%TF.GenerationSoftware,KiCad,Pcbnew,7.0.2*%
%TF.CreationDate,2023-10-17T17:42:58-05:00*%
%TF.ProjectId,BPS-PeripheralSOM,4250532d-5065-4726-9970-686572616c53,rev?*%
%TF.SameCoordinates,Original*%
%TF.FileFunction,Copper,L1,Top*%
%TF.FilePolarity,Positive*%
%FSLAX46Y46*%
G04 Gerber Fmt 4.6, Leading zero omitted, Abs format (unit mm)*
G04 Created by KiCad (PCBNEW 7.0.2) date 2023-10-17 17:42:58*
%MOMM*%
%LPD*%
G01*
G04 APERTURE LIST*
G04 Aperture macros list*
%AMRoundRect*
0 Rectangle with rounded corners*
0 $1 Rounding radius*
0 $2 $3 $4 $5 $6 $7 $8 $9 X,Y pos of 4 corners*
0 Add a 4 corners polygon primitive as box body*
4,1,4,$2,$3,$4,$5,$6,$7,$8,$9,$2,$3,0*
0 Add four circle primitives for the rounded corners*
1,1,$1+$1,$2,$3*
1,1,$1+$1,$4,$5*
1,1,$1+$1,$6,$7*
1,1,$1+$1,$8,$9*
0 Add four rect primitives between the rounded corners*
20,1,$1+$1,$2,$3,$4,$5,0*
20,1,$1+$1,$4,$5,$6,$7,0*
20,1,$1+$1,$6,$7,$8,$9,0*
20,1,$1+$1,$8,$9,$2,$3,0*%
G04 Aperture macros list end*
%TA.AperFunction,ComponentPad*%
%ADD10C,2.800000*%
%TD*%
%TA.AperFunction,SMDPad,CuDef*%
%ADD11R,2.750000X1.000000*%
%TD*%
%TA.AperFunction,SMDPad,CuDef*%
%ADD12RoundRect,0.250000X-0.475000X0.250000X-0.475000X-0.250000X0.475000X-0.250000X0.475000X0.250000X0*%
%TD*%
%TA.AperFunction,ComponentPad*%
%ADD13R,1.700000X1.700000*%
%TD*%
%TA.AperFunction,ComponentPad*%
%ADD14O,1.700000X1.700000*%
%TD*%
%TA.AperFunction,SMDPad,CuDef*%
%ADD15R,0.650000X1.528000*%
%TD*%
%TA.AperFunction,SMDPad,CuDef*%
%ADD16R,1.700000X2.400000*%
%TD*%
%TA.AperFunction,SMDPad,CuDef*%
%ADD17RoundRect,0.243750X-0.243750X-0.456250X0.243750X-0.456250X0.243750X0.456250X-0.243750X0.456250X0*%
%TD*%
%TA.AperFunction,SMDPad,CuDef*%
%ADD18RoundRect,0.075000X0.075000X-0.662500X0.075000X0.662500X-0.075000X0.662500X-0.075000X-0.662500X0*%
%TD*%
%TA.AperFunction,SMDPad,CuDef*%
%ADD19RoundRect,0.075000X0.662500X-0.075000X0.662500X0.075000X-0.662500X0.075000X-0.662500X-0.075000X0*%
%TD*%
%TA.AperFunction,SMDPad,CuDef*%
%ADD20R,0.600000X1.950000*%
%TD*%
%TA.AperFunction,SMDPad,CuDef*%
%ADD21R,0.762000X1.117600*%
%TD*%
%TA.AperFunction,SMDPad,CuDef*%
%ADD22RoundRect,0.250000X-0.250000X-0.475000X0.250000X-0.475000X0.250000X0.475000X-0.250000X0.475000X0*%
%TD*%
%TA.AperFunction,ComponentPad*%
%ADD23RoundRect,0.250001X0.499999X-0.499999X0.499999X0.499999X-0.499999X0.499999X-0.499999X-0.499999X0*%
%TD*%
%TA.AperFunction,ComponentPad*%
%ADD24C,1.500000*%
%TD*%
%TA.AperFunction,ComponentPad*%
%ADD25O,1.000000X1.800000*%
%TD*%
%TA.AperFunction,SMDPad,CuDef*%
%ADD26R,0.400000X1.350000*%
%TD*%
%TA.AperFunction,ComponentPad*%
%ADD27O,1.200000X1.900000*%
%TD*%
%TA.AperFunction,SMDPad,CuDef*%
%ADD28R,1.200000X1.900000*%
%TD*%
%TA.AperFunction,ComponentPad*%
%ADD29C,1.450000*%
%TD*%
%TA.AperFunction,SMDPad,CuDef*%
%ADD30R,1.500000X1.900000*%
%TD*%
%TA.AperFunction,SMDPad,CuDef*%
%ADD31R,0.558800X5.410200*%
%TD*%
%TA.AperFunction,SMDPad,CuDef*%
%ADD32R,1.003300X0.558800*%
%TD*%
%TA.AperFunction,ViaPad*%
%ADD33C,0.500000*%
%TD*%
%TA.AperFunction,Conductor*%
%ADD34C,1.000000*%
%TD*%
%TA.AperFunction,Conductor*%
%ADD35C,0.500000*%
%TD*%
%TA.AperFunction,Conductor*%
%ADD36C,0.250000*%
%TD*%
%TA.AperFunction,Conductor*%
%ADD37C,0.650000*%
%TD*%
G04 APERTURE END LIST*
D10*
%TO.P,TP4,1,1*%
%TO.N,GNDPWR*%
X137000000Y-84500000D03*
%TD*%
D11*
%TO.P,SW5,1,1*%
%TO.N,GND*%
X137375000Y-80500000D03*
X131625000Y-80500000D03*
%TO.P,SW5,2,2*%
%TO.N,Net-(C5-Pad1)*%
X137375000Y-76500000D03*
X131625000Y-76500000D03*
%TD*%
D12*
%TO.P,C22,1*%
%TO.N,/OSC_OUT*%
X122500000Y-71950000D03*
%TO.P,C22,2*%
%TO.N,GND*%
X122500000Y-73850000D03*
%TD*%
D13*
%TO.P,J1,1,Pin_1*%
%TO.N,+3.3V*%
X118950000Y-53350000D03*
D14*
%TO.P,J1,2,Pin_2*%
%TO.N,/SWCLK*%
X121490000Y-53350000D03*
%TO.P,J1,3,Pin_3*%
%TO.N,/SWDIO*%
X124030000Y-53350000D03*
%TO.P,J1,4,Pin_4*%
%TO.N,GND*%
X126570000Y-53350000D03*
%TD*%
D15*
%TO.P,IC1,1,1SOURCE*%
%TO.N,+3.3V*%
X134190000Y-58422000D03*
%TO.P,IC1,2,1GATE*%
%TO.N,Net-(IC1-1GATE)*%
X135460000Y-58422000D03*
%TO.P,IC1,3,2SOURCE*%
%TO.N,+3.3V*%
X136730000Y-58422000D03*
%TO.P,IC1,4,2GATE*%
%TO.N,Net-(IC1-1GATE)*%
X138000000Y-58422000D03*
%TO.P,IC1,5,2DRAIN_1*%
%TO.N,Net-(IC1-2DRAIN_1)*%
X138000000Y-53000000D03*
%TO.P,IC1,6,2DRAIN_2*%
X136730000Y-53000000D03*
%TO.P,IC1,7,1DRAIN_1*%
%TO.N,Net-(IC1-1DRAIN_1)*%
X135460000Y-53000000D03*
%TO.P,IC1,8,1DRAIN_2*%
X134190000Y-53000000D03*
%TD*%
D16*
%TO.P,Y1,1,1*%
%TO.N,/OSC_IN*%
X118650000Y-68900000D03*
%TO.P,Y1,2,2*%
%TO.N,/OSC_OUT*%
X122350000Y-68900000D03*
%TD*%
D17*
%TO.P,D14,1,K*%
%TO.N,GND*%
X110500000Y-58269450D03*
%TO.P,D14,2,A*%
%TO.N,Net-(D14-A)*%
X112375000Y-58269450D03*
%TD*%
D13*
%TO.P,JP1,1,1*%
%TO.N,/CAN_L*%
X121500000Y-49500000D03*
D14*
%TO.P,JP1,2,2*%
%TO.N,/CAN/TERM_H*%
X118960000Y-49500000D03*
%TD*%
D10*
%TO.P,TP6,1,1*%
%TO.N,GND*%
X130000000Y-84500000D03*
%TD*%
D18*
%TO.P,U1,1,VBAT*%
%TO.N,unconnected-(U1-VBAT-Pad1)*%
X119000000Y-64825000D03*
%TO.P,U1,2,PC13*%
%TO.N,unconnected-(U1-PC13-Pad2)*%
X119500000Y-64825000D03*
%TO.P,U1,3,PC14*%
%TO.N,/OSC_IN*%
X120000000Y-64825000D03*
%TO.P,U1,4,PC15*%
%TO.N,/OSC_OUT*%
X120500000Y-64825000D03*
%TO.P,U1,5,PH0*%
%TO.N,unconnected-(U1-PH0-Pad5)*%
X121000000Y-64825000D03*
%TO.P,U1,6,PH1*%
%TO.N,unconnected-(U1-PH1-Pad6)*%
X121500000Y-64825000D03*
%TO.P,U1,7,NRST*%
%TO.N,/NRST*%
X122000000Y-64825000D03*
%TO.P,U1,8,VSSA*%
%TO.N,GNDA*%
X122500000Y-64825000D03*
%TO.P,U1,9,VDDA*%
%TO.N,VDDA*%
X123000000Y-64825000D03*
%TO.P,U1,10,PA0*%
%TO.N,unconnected-(U1-PA0-Pad10)*%
X123500000Y-64825000D03*
%TO.P,U1,11,PA1*%
%TO.N,/PA1*%
X124000000Y-64825000D03*
%TO.P,U1,12,PA2*%
%TO.N,/PA2*%
X124500000Y-64825000D03*
D19*
%TO.P,U1,13,PA3*%
%TO.N,unconnected-(U1-PA3-Pad13)*%
X125912500Y-63412500D03*
%TO.P,U1,14,PA4*%
%TO.N,/SPI1_NSS*%
X125912500Y-62912500D03*
%TO.P,U1,15,PA5*%
%TO.N,Net-(U1-PA5)*%
X125912500Y-62412500D03*
%TO.P,U1,16,PA6*%
%TO.N,/SPI1_MISO*%
X125912500Y-61912500D03*
%TO.P,U1,17,PA7*%
%TO.N,Net-(U1-PA7)*%
X125912500Y-61412500D03*
%TO.P,U1,18,PB0*%
%TO.N,unconnected-(U1-PB0-Pad18)*%
X125912500Y-60912500D03*
%TO.P,U1,19,PB1*%
%TO.N,/PB1*%
X125912500Y-60412500D03*
%TO.P,U1,20,PB2*%
%TO.N,/PB2*%
X125912500Y-59912500D03*
%TO.P,U1,21,PB10*%
%TO.N,/I2C2_SCL*%
X125912500Y-59412500D03*
%TO.P,U1,22,PB11*%
%TO.N,/I2C2_SDA*%
X125912500Y-58912500D03*
%TO.P,U1,23,VSS*%
%TO.N,GND*%
X125912500Y-58412500D03*
%TO.P,U1,24,VDD*%
%TO.N,+3.3V*%
X125912500Y-57912500D03*
D18*
%TO.P,U1,25,PB12*%
%TO.N,/SPI2_NSS*%
X124500000Y-56500000D03*
%TO.P,U1,26,PB13*%
%TO.N,/SPI2_SCK*%
X124000000Y-56500000D03*
%TO.P,U1,27,PB14*%
%TO.N,/SPI2_MISO*%
X123500000Y-56500000D03*
%TO.P,U1,28,PB15*%
%TO.N,/SPI2_MOSI*%
X123000000Y-56500000D03*
%TO.P,U1,29,PA8*%
%TO.N,/I2C2_PU_EN*%
X122500000Y-56500000D03*
%TO.P,U1,30,PA9*%
%TO.N,/USART1_TX*%
X122000000Y-56500000D03*
%TO.P,U1,31,PA10*%
%TO.N,/USART1_RX*%
X121500000Y-56500000D03*
%TO.P,U1,32,PA11*%
%TO.N,/SILENT*%
X121000000Y-56500000D03*
%TO.P,U1,33,PA12*%
%TO.N,/STDBY*%
X120500000Y-56500000D03*
%TO.P,U1,34,PA13*%
%TO.N,/SWDIO*%
X120000000Y-56500000D03*
%TO.P,U1,35,VSS*%
%TO.N,GND*%
X119500000Y-56500000D03*
%TO.P,U1,36,VDD*%
%TO.N,+3.3V*%
X119000000Y-56500000D03*
D19*
%TO.P,U1,37,PA14*%
%TO.N,/SWCLK*%
X117587500Y-57912500D03*
%TO.P,U1,38,PA15*%
%TO.N,/PA15*%
X117587500Y-58412500D03*
%TO.P,U1,39,PB3*%
%TO.N,/PB3*%
X117587500Y-58912500D03*
%TO.P,U1,40,PB4*%
%TO.N,/PB4*%
X117587500Y-59412500D03*
%TO.P,U1,41,PB5*%
%TO.N,/PB5*%
X117587500Y-59912500D03*
%TO.P,U1,42,PB6*%
%TO.N,/I2C1_SCL*%
X117587500Y-60412500D03*
%TO.P,U1,43,PB7*%
%TO.N,/I2C1_SDA*%
X117587500Y-60912500D03*
%TO.P,U1,44,PH3*%
%TO.N,unconnected-(U1-PH3-Pad44)*%
X117587500Y-61412500D03*
%TO.P,U1,45,PB8*%
%TO.N,/CAN_RX*%
X117587500Y-61912500D03*
%TO.P,U1,46,PB9*%
%TO.N,/CAN_TX*%
X117587500Y-62412500D03*
%TO.P,U1,47,VSS*%
%TO.N,GND*%
X117587500Y-62912500D03*
%TO.P,U1,48,VDD*%
%TO.N,+3.3V*%
X117587500Y-63412500D03*
%TD*%
D11*
%TO.P,SW1,1,1*%
%TO.N,/NRST*%
X119125000Y-76500000D03*
X124875000Y-76500000D03*
%TO.P,SW1,2,2*%
%TO.N,GND*%
X119125000Y-80500000D03*
X124875000Y-80500000D03*
%TD*%
D20*
%TO.P,U7,1,GND_In*%
%TO.N,GND*%
X103235000Y-50962500D03*
%TO.P,U7,2,GND_In*%
X104505000Y-50962500D03*
%TO.P,U7,3,V_In*%
%TO.N,+5V*%
X105775000Y-50962500D03*
%TO.P,U7,4,V_IO*%
%TO.N,+3.3V*%
X107045000Y-50962500D03*
%TO.P,U7,5,RX*%
%TO.N,/CAN_RX*%
X108315000Y-50962500D03*
%TO.P,U7,6,SILENT*%
%TO.N,/SILENT*%
X109585000Y-50962500D03*
%TO.P,U7,7,TX*%
%TO.N,/CAN_TX*%
X110855000Y-50962500D03*
%TO.P,U7,8,STDBY*%
%TO.N,/STDBY*%
X112125000Y-50962500D03*
%TO.P,U7,9,AUX_In*%
%TO.N,unconnected-(U7-AUX_In-Pad9)*%
X113395000Y-50962500D03*
%TO.P,U7,10,GND_In*%
%TO.N,GND*%
X114665000Y-50962500D03*
%TO.P,U7,11,GND_ISO_In*%
%TO.N,GND1*%
X114665000Y-41562500D03*
%TO.P,U7,12,RS*%
%TO.N,/CAN/RSlope*%
X113395000Y-41562500D03*
%TO.P,U7,13,CAN_L*%
%TO.N,/CAN_L*%
X112125000Y-41562500D03*
%TO.P,U7,14,CAN_H*%
%TO.N,/CAN_H*%
X110855000Y-41562500D03*
%TO.P,U7,15,GND_ISO_In*%
%TO.N,GND1*%
X109585000Y-41562500D03*
%TO.P,U7,16,V_ISO_In*%
%TO.N,/V_CAN_IN*%
X108315000Y-41562500D03*
%TO.P,U7,17,AUX_Out*%
%TO.N,unconnected-(U7-AUX_Out-Pad17)*%
X107045000Y-41562500D03*
%TO.P,U7,18,GND_ISO_Out*%
%TO.N,/CAN/GND_ISO_Out*%
X105775000Y-41562500D03*
%TO.P,U7,19,V_ISO_Out*%
%TO.N,/CAN/V_ISO_Out*%
X104505000Y-41562500D03*
%TO.P,U7,20,GND_ISO_Out*%
%TO.N,/CAN/GND_ISO_Out*%
X103235000Y-41562500D03*
%TD*%
D21*
%TO.P,SW2,1,A*%
%TO.N,unconnected-(SW2-A-Pad1)*%
X132749998Y-73892300D03*
%TO.P,SW2,2,B*%
%TO.N,/PB2*%
X134500000Y-70107700D03*
%TO.P,SW2,3,C*%
%TO.N,GND*%
X136250002Y-73892300D03*
%TD*%
D22*
%TO.P,C3,1*%
%TO.N,+3.3V*%
X110450000Y-71600000D03*
%TO.P,C3,2*%
%TO.N,GND*%
X112350000Y-71600000D03*
%TD*%
D17*
%TO.P,D12,1,K*%
%TO.N,GND*%
X110500000Y-63730550D03*
%TO.P,D12,2,A*%
%TO.N,Net-(D12-A)*%
X112375000Y-63730550D03*
%TD*%
D12*
%TO.P,C21,1*%
%TO.N,/OSC_IN*%
X118500000Y-71950000D03*
%TO.P,C21,2*%
%TO.N,GND*%
X118500000Y-73850000D03*
%TD*%
D23*
%TO.P,J2,1,Pin_1*%
%TO.N,GNDPWR*%
X103000000Y-62000000D03*
D24*
%TO.P,J2,2,Pin_2*%
%TO.N,/CAN_L*%
X103000000Y-59000000D03*
%TO.P,J2,3,Pin_3*%
%TO.N,GND1*%
X103000000Y-56000000D03*
%TO.P,J2,4,Pin_4*%
%TO.N,/V_CAN_IN*%
X106000000Y-62000000D03*
%TO.P,J2,5,Pin_5*%
%TO.N,/CAN_H*%
X106000000Y-59000000D03*
%TO.P,J2,6,Pin_6*%
%TO.N,/5V_Ext*%
X106000000Y-56000000D03*
%TD*%
D25*
%TO.P,U2,1,-Vin*%
%TO.N,GNDPWR*%
X105380000Y-88500000D03*
%TO.P,U2,2,+Vin*%
%TO.N,Net-(Q1-D)*%
X107920000Y-88500000D03*
%TO.P,U2,3,-Vout*%
%TO.N,GND*%
X110460000Y-88500000D03*
%TO.P,U2,4,+Vout*%
%TO.N,+5V*%
X113000000Y-88500000D03*
%TD*%
D17*
%TO.P,D2,1,K*%
%TO.N,GND*%
X110500000Y-66500000D03*
%TO.P,D2,2,A*%
%TO.N,Net-(D2-A)*%
X112375000Y-66500000D03*
%TD*%
D26*
%TO.P,J3,1,VBUS*%
%TO.N,Net-(J3-VBUS)*%
X132300000Y-44962500D03*
%TO.P,J3,2,D-*%
%TO.N,Net-(J3-D-)*%
X131650000Y-44962500D03*
%TO.P,J3,3,D+*%
%TO.N,Net-(J3-D+)*%
X131000000Y-44962500D03*
%TO.P,J3,4,ID*%
%TO.N,unconnected-(J3-ID-Pad4)*%
X130350000Y-44962500D03*
%TO.P,J3,5,GND*%
%TO.N,GND*%
X129700000Y-44962500D03*
D27*
%TO.P,J3,6,Shield*%
X134500000Y-42262500D03*
D28*
X133900000Y-42262500D03*
D29*
X133500000Y-44962500D03*
D30*
X132000000Y-42262500D03*
X130000000Y-42262500D03*
D29*
X128500000Y-44962500D03*
D28*
X128100000Y-42262500D03*
D27*
X127500000Y-42262500D03*
%TD*%
D17*
%TO.P,D4,1,K*%
%TO.N,GND*%
X110500000Y-55538900D03*
%TO.P,D4,2,A*%
%TO.N,Net-(D4-A)*%
X112375000Y-55538900D03*
%TD*%
D31*
%TO.P,C1,1*%
%TO.N,Net-(Q1-D)*%
X116000000Y-78500000D03*
%TO.P,C1,2*%
%TO.N,GNDPWR*%
X109751600Y-78500000D03*
%TD*%
D10*
%TO.P,TP5,1,1*%
%TO.N,+5V*%
X126500000Y-87500000D03*
%TD*%
%TO.P,TP3,1,1*%
%TO.N,Net-(Q1-D)*%
X133500000Y-87500000D03*
%TD*%
D32*
%TO.P,CR2,1,1*%
%TO.N,/SPI1_SCK*%
X128400000Y-66049999D03*
%TO.P,CR2,2,2*%
%TO.N,GND*%
X128400000Y-67000000D03*
%TO.P,CR2,3,3*%
%TO.N,/SPI1_NSS*%
X128400000Y-67950001D03*
%TO.P,CR2,4,4*%
%TO.N,/SPI1_MOSI*%
X131105100Y-67950001D03*
%TO.P,CR2,5,5*%
%TO.N,unconnected-(CR2-Pad5)*%
X131105100Y-67000000D03*
%TO.P,CR2,6,6*%
%TO.N,/SPI1_MISO*%
X131105100Y-66049999D03*
%TD*%
D23*
%TO.P,J5,1,Pin_1*%
%TO.N,GNDPWR*%
X103000000Y-76000000D03*
D24*
%TO.P,J5,2,Pin_2*%
%TO.N,/CAN_L*%
X103000000Y-73000000D03*
%TO.P,J5,3,Pin_3*%
%TO.N,GND1*%
X103000000Y-70000000D03*
%TO.P,J5,4,Pin_4*%
%TO.N,/V_CAN_IN*%
X106000000Y-76000000D03*
%TO.P,J5,5,Pin_5*%
%TO.N,/CAN_H*%
X106000000Y-73000000D03*
%TO.P,J5,6,Pin_6*%
%TO.N,/5V_Ext*%
X106000000Y-70000000D03*
%TD*%
D32*
%TO.P,CR1,1,1*%
%TO.N,/SPI2_MOSI*%
X128400000Y-58049999D03*
%TO.P,CR1,2,2*%
%TO.N,GND*%
X128400000Y-59000000D03*
%TO.P,CR1,3,3*%
%TO.N,/SPI2_NSS*%
X128400000Y-59950001D03*
%TO.P,CR1,4,4*%
%TO.N,/SPI2_SCK*%
X131105100Y-59950001D03*
%TO.P,CR1,5,5*%
%TO.N,unconnected-(CR1-Pad5)*%
X131105100Y-59000000D03*
%TO.P,CR1,6,6*%
%TO.N,/SPI2_MISO*%
X131105100Y-58049999D03*
%TD*%
D17*
%TO.P,D13,1,K*%
%TO.N,GND*%
X110500000Y-61000000D03*
%TO.P,D13,2,A*%
%TO.N,Net-(D13-A)*%
X112375000Y-61000000D03*
%TD*%
D22*
%TO.P,C2,1*%
%TO.N,+5V*%
X110500000Y-69100000D03*
%TO.P,C2,2*%
%TO.N,GND*%
X112400000Y-69100000D03*
%TD*%
D33*
%TO.N,+5V*%
X105775000Y-50962500D03*
X110000000Y-69200000D03*
%TO.N,GND*%
X129800000Y-67000000D03*
X135503987Y-65192160D03*
X114665000Y-50962500D03*
X134500000Y-80500000D03*
X135890000Y-51450000D03*
X131437500Y-48750000D03*
X119050000Y-63000000D03*
X136500000Y-74000000D03*
X137000000Y-78500000D03*
X112350000Y-72750000D03*
X128500000Y-59000000D03*
X119500000Y-78500000D03*
X124400000Y-59000000D03*
X138800000Y-62000000D03*
X118500000Y-73850000D03*
X119250000Y-57850500D03*
X121500000Y-80500000D03*
X102500000Y-50962500D03*
%TO.N,+3.3V*%
X110450000Y-71600000D03*
X120900000Y-63000000D03*
X133062035Y-47138988D03*
X138800000Y-61200000D03*
X116300000Y-68450000D03*
X137000000Y-64374500D03*
X131000000Y-55912500D03*
X136000000Y-48700000D03*
X122500000Y-59000000D03*
X116550500Y-63769712D03*
X123968518Y-69000000D03*
X120912500Y-59000000D03*
X107000000Y-49562500D03*
X116350000Y-73900000D03*
X116500000Y-71500000D03*
%TO.N,/NRST*%
X119500000Y-76600000D03*
%TO.N,GNDPWR*%
X109500000Y-82000000D03*
%TO.N,/PB4*%
X115543483Y-59981017D03*
%TO.N,/PB5*%
X116400500Y-60500000D03*
%TO.N,/SPI2_MOSI*%
X128400000Y-58049999D03*
X123300000Y-57700000D03*
%TO.N,/SPI2_NSS*%
X129131233Y-59818767D03*
%TO.N,/SPI2_SCK*%
X131105100Y-59950001D03*
%TO.N,/SPI2_MISO*%
X131100026Y-58079573D03*
%TO.N,/SPI1_SCK*%
X128400000Y-66049999D03*
%TO.N,/SPI1_NSS*%
X129954641Y-67945359D03*
%TO.N,/SPI1_MOSI*%
X131105100Y-67950001D03*
X130412500Y-62000000D03*
%TO.N,/SPI1_MISO*%
X132122872Y-66701627D03*
%TO.N,/5V_Ext*%
X104500000Y-81937500D03*
%TO.N,/PA1*%
X136800000Y-68400000D03*
%TO.N,Net-(D2-A)*%
X112200000Y-66386100D03*
%TO.N,/PB3*%
X115524500Y-59000000D03*
%TO.N,/SWCLK*%
X117587500Y-57300000D03*
%TO.N,/SWDIO*%
X120300000Y-57800000D03*
%TO.N,/I2C1_SCL*%
X119087500Y-59000000D03*
X137500000Y-66000000D03*
%TO.N,/I2C1_SDA*%
X136500000Y-66800000D03*
X119087500Y-61000000D03*
%TO.N,/I2C2_SCL*%
X138800000Y-63600000D03*
X127000000Y-59500000D03*
%TO.N,/CAN/RSlope*%
X113395000Y-41562500D03*
%TO.N,Net-(U1-PA5)*%
X128587500Y-64000000D03*
%TO.N,Net-(U1-PA7)*%
X128587500Y-62000000D03*
%TO.N,/USART1_TX*%
X128000000Y-50000000D03*
%TO.N,/USART1_RX*%
X127000000Y-50000000D03*
%TO.N,/SILENT*%
X110003246Y-52418246D03*
X113149431Y-52425500D03*
%TO.N,GNDA*%
X132000000Y-70425500D03*
X138429500Y-65200000D03*
X125500000Y-73400000D03*
%TO.N,VDDA*%
X126337500Y-70062500D03*
X138800000Y-64400000D03*
%TO.N,/PowerDist/5V_Ferrite*%
X104500000Y-84062500D03*
X106500000Y-82000000D03*
X111500000Y-84550000D03*
%TO.N,/V_CAN_IN*%
X108315000Y-41562500D03*
X107200000Y-45575000D03*
%TO.N,GND1*%
X110000000Y-45462500D03*
X114500000Y-45462500D03*
%TO.N,/CAN/V_ISO_Out*%
X104505000Y-41562500D03*
%TO.N,/CAN/GND_ISO_Out*%
X105746375Y-48538876D03*
X105200000Y-45462500D03*
%TO.N,/CAN_H*%
X112750000Y-47162500D03*
X109998882Y-46533203D03*
%TO.N,/CAN_L*%
X114650000Y-47162500D03*
%TO.N,/PA15*%
X116168500Y-58031500D03*
%TO.N,/PB1*%
X132000000Y-78325000D03*
X124000000Y-61200000D03*
%TO.N,/I2C2_PU_EN*%
X122200000Y-57700000D03*
%TO.N,/PA2*%
X137500000Y-67600000D03*
%TO.N,Net-(J3-VBUS)*%
X132300000Y-44677575D03*
%TO.N,Net-(J3-D-)*%
X127800000Y-47800000D03*
X131650000Y-45837500D03*
%TO.N,Net-(J3-D+)*%
X131000000Y-45252075D03*
%TO.N,Net-(D14-A)*%
X112200000Y-58386100D03*
%TO.N,Net-(D13-A)*%
X112200000Y-60986100D03*
%TO.N,Net-(D12-A)*%
X112200000Y-63786100D03*
%TO.N,Net-(C5-Pad1)*%
X132000000Y-76500000D03*
X137000000Y-76600000D03*
%TO.N,Net-(D4-A)*%
X112200000Y-55586100D03*
%TO.N,Net-(Q1-D)*%
X113500000Y-85500000D03*
%TO.N,/PB2*%
X132500000Y-71825000D03*
X123950000Y-60150000D03*
%TO.N,Net-(IC1-1GATE)*%
X133000000Y-55900000D03*
%TO.N,/I2C2_SDA*%
X127448848Y-58800497D03*
X138800000Y-62800000D03*
%TO.N,Net-(IC1-2DRAIN_1)*%
X137000000Y-54100000D03*
%TO.N,Net-(IC1-1DRAIN_1)*%
X135000000Y-54087500D03*
%TD*%
D34*
%TO.N,GND*%
X134500000Y-43962500D02*
X133500000Y-44962500D01*
D35*
X102500000Y-50962500D02*
X103235000Y-50962500D01*
D36*
X119250000Y-57636827D02*
X119500000Y-57386827D01*
D35*
X103235000Y-50962500D02*
X104505000Y-50962500D01*
D36*
X119500000Y-57386827D02*
X119500000Y-56500000D01*
D34*
X130000000Y-42262500D02*
X132000000Y-42262500D01*
X134500000Y-80500000D02*
X131625000Y-80500000D01*
D36*
X136392300Y-73892300D02*
X136500000Y-74000000D01*
D34*
X118500000Y-73850000D02*
X122500000Y-73850000D01*
D36*
X125109315Y-58412500D02*
X124521815Y-59000000D01*
X118962500Y-62912500D02*
X119050000Y-63000000D01*
D34*
X121500000Y-80500000D02*
X124875000Y-80500000D01*
X112350000Y-72750000D02*
X112350000Y-69150000D01*
X137375000Y-80500000D02*
X134500000Y-80500000D01*
D35*
X128400000Y-59000000D02*
X128500000Y-59000000D01*
X110500000Y-67200000D02*
X110500000Y-55538900D01*
D36*
X136250002Y-73892300D02*
X136392300Y-73892300D01*
D34*
X110500000Y-67031497D02*
X110500000Y-66500000D01*
X119125000Y-80500000D02*
X121500000Y-80500000D01*
X128500000Y-44962500D02*
X129450000Y-44962500D01*
X132000000Y-42262500D02*
X134500000Y-42262500D01*
X127500000Y-42262500D02*
X127500000Y-43962500D01*
D36*
X128400000Y-67000000D02*
X129800000Y-67000000D01*
D34*
X127500000Y-43962500D02*
X128500000Y-44962500D01*
D36*
X124521815Y-59000000D02*
X124400000Y-59000000D01*
X125912500Y-58412500D02*
X125109315Y-58412500D01*
D34*
X127500000Y-42262500D02*
X130000000Y-42262500D01*
D36*
X117587500Y-62912500D02*
X118962500Y-62912500D01*
X119250000Y-57850500D02*
X119250000Y-57636827D01*
D35*
X112400000Y-69100000D02*
X110500000Y-67200000D01*
D34*
X134500000Y-42262500D02*
X134500000Y-43962500D01*
D36*
%TO.N,+3.3V*%
X119011327Y-58425000D02*
X120337500Y-58425000D01*
X119000000Y-57250431D02*
X118675000Y-57575431D01*
X124288173Y-57912500D02*
X123200673Y-59000000D01*
X107045000Y-49607500D02*
X107000000Y-49562500D01*
X118675000Y-57575431D02*
X118675000Y-58088673D01*
X107045000Y-50962500D02*
X107045000Y-49607500D01*
X120337500Y-58425000D02*
X120912500Y-59000000D01*
X117587500Y-63412500D02*
X116907712Y-63412500D01*
X118675000Y-58088673D02*
X119011327Y-58425000D01*
X119000000Y-57250431D02*
X119000000Y-56500000D01*
D37*
X136730000Y-58422000D02*
X136730000Y-59870000D01*
D36*
X116907712Y-63412500D02*
X116550500Y-63769712D01*
X125912500Y-57912500D02*
X124288173Y-57912500D01*
X123200673Y-59000000D02*
X122500000Y-59000000D01*
D34*
%TO.N,/NRST*%
X119125000Y-76500000D02*
X124875000Y-76500000D01*
D36*
X122000000Y-64825000D02*
X122000000Y-66000000D01*
X122000000Y-66000000D02*
X124875000Y-68875000D01*
X124875000Y-68875000D02*
X124875000Y-76500000D01*
D35*
%TO.N,GNDPWR*%
X109500000Y-82000000D02*
X109751600Y-81748400D01*
X109751600Y-81748400D02*
X109751600Y-78500000D01*
D36*
%TO.N,/OSC_IN*%
X120000000Y-64825000D02*
X120000000Y-67550000D01*
D34*
X118500000Y-71950000D02*
X118500000Y-69050000D01*
D36*
X120000000Y-67550000D02*
X118650000Y-68900000D01*
%TO.N,/OSC_OUT*%
X120500000Y-64825000D02*
X120500000Y-67050000D01*
D34*
X122500000Y-71950000D02*
X122500000Y-69050000D01*
X122500000Y-68650000D02*
X122350000Y-68500000D01*
D36*
X122000000Y-68500000D02*
X122350000Y-68500000D01*
X120500000Y-67050000D02*
X122350000Y-68900000D01*
%TO.N,/PB4*%
X116112000Y-59412500D02*
X117587500Y-59412500D01*
X115543483Y-59981017D02*
X116112000Y-59412500D01*
%TO.N,/PB5*%
X116784315Y-59912500D02*
X117587500Y-59912500D01*
X116400500Y-60296315D02*
X116784315Y-59912500D01*
X116400500Y-60500000D02*
X116400500Y-60296315D01*
%TO.N,/SPI2_MOSI*%
X123000000Y-57400000D02*
X123000000Y-56500000D01*
X123300000Y-57700000D02*
X123000000Y-57400000D01*
%TO.N,/SPI2_NSS*%
X128263604Y-56500000D02*
X124500000Y-56500000D01*
X129382946Y-59950001D02*
X129382946Y-57619342D01*
X129382946Y-57619342D02*
X128263604Y-56500000D01*
X128400000Y-59950001D02*
X129382946Y-59950001D01*
%TO.N,/SPI2_SCK*%
X124259315Y-55437500D02*
X127837500Y-55437500D01*
X127837500Y-55437500D02*
X130000000Y-57600000D01*
X124000000Y-55696815D02*
X124259315Y-55437500D01*
X124000000Y-56500000D02*
X124000000Y-55696815D01*
X130000000Y-57600000D02*
X130000000Y-59596551D01*
X130353450Y-59950001D02*
X131105100Y-59950001D01*
X130000000Y-59596551D02*
X130353450Y-59950001D01*
%TO.N,/SPI2_MISO*%
X123500000Y-56500000D02*
X123500000Y-55560419D01*
X131100026Y-58044925D02*
X128042601Y-54987500D01*
X131100026Y-58079573D02*
X131100026Y-58044925D01*
X123530210Y-55530210D02*
X124072919Y-54987500D01*
X128042601Y-54987500D02*
X124072919Y-54987500D01*
%TO.N,/SPI1_NSS*%
X126715685Y-62912500D02*
X127500000Y-63696815D01*
X129954641Y-67945359D02*
X129949999Y-67950001D01*
X129949999Y-67950001D02*
X128400000Y-67950001D01*
X127500000Y-67500000D02*
X127950001Y-67950001D01*
X127500000Y-63696815D02*
X127500000Y-67500000D01*
X125912500Y-62912500D02*
X126715685Y-62912500D01*
X127950001Y-67950001D02*
X128400000Y-67950001D01*
%TO.N,/SPI1_MISO*%
X127412500Y-61912500D02*
X131105100Y-65605100D01*
X125912500Y-61912500D02*
X127412500Y-61912500D01*
X131105100Y-65605100D02*
X131105100Y-66049999D01*
X131471244Y-66049999D02*
X131105100Y-66049999D01*
X132122872Y-66701627D02*
X131471244Y-66049999D01*
%TO.N,/PA1*%
X127471815Y-69100000D02*
X124000000Y-65628185D01*
X136800000Y-68400000D02*
X136100000Y-69100000D01*
X124000000Y-65628185D02*
X124000000Y-64825000D01*
X136100000Y-69100000D02*
X127471815Y-69100000D01*
%TO.N,/PB3*%
X115524500Y-59000000D02*
X115612000Y-58912500D01*
X115612000Y-58912500D02*
X117587500Y-58912500D01*
%TO.N,/SWCLK*%
X117587500Y-57912500D02*
X117587500Y-57300000D01*
%TO.N,/SWDIO*%
X120300000Y-57800000D02*
X120000000Y-57500000D01*
X120000000Y-57500000D02*
X120000000Y-56500000D01*
%TO.N,/I2C1_SCL*%
X119087500Y-59715684D02*
X119087500Y-59000000D01*
X118390684Y-60412500D02*
X119087500Y-59715684D01*
X117587500Y-60412500D02*
X118390684Y-60412500D01*
%TO.N,/I2C1_SDA*%
X119000000Y-60912500D02*
X117587500Y-60912500D01*
X119087500Y-61000000D02*
X119000000Y-60912500D01*
%TO.N,/I2C2_SCL*%
X125912500Y-59412500D02*
X126912500Y-59412500D01*
X126912500Y-59412500D02*
X127000000Y-59500000D01*
%TO.N,Net-(U1-PA5)*%
X127000000Y-62412500D02*
X128587500Y-64000000D01*
X125912500Y-62412500D02*
X127000000Y-62412500D01*
%TO.N,Net-(U1-PA7)*%
X125912500Y-61412500D02*
X128000000Y-61412500D01*
X128000000Y-61412500D02*
X128587500Y-62000000D01*
%TO.N,/USART1_TX*%
X125205000Y-52795000D02*
X125205000Y-53836701D01*
X124504201Y-54537500D02*
X123159315Y-54537500D01*
X122000000Y-55696815D02*
X122000000Y-56500000D01*
X125205000Y-53836701D02*
X124504201Y-54537500D01*
X123159315Y-54537500D02*
X122000000Y-55696815D01*
X128000000Y-50000000D02*
X125205000Y-52795000D01*
%TO.N,/USART1_RX*%
X127000000Y-50060419D02*
X124885419Y-52175000D01*
X122855000Y-54205419D02*
X121500000Y-55560419D01*
X122855000Y-52863299D02*
X122855000Y-54205419D01*
X127000000Y-50000000D02*
X127000000Y-50060419D01*
X121500000Y-55560419D02*
X121500000Y-56500000D01*
X123543299Y-52175000D02*
X122855000Y-52863299D01*
X124885419Y-52175000D02*
X123543299Y-52175000D01*
%TO.N,/SILENT*%
X121000000Y-55351104D02*
X121000000Y-56500000D01*
X115248931Y-54525000D02*
X120173896Y-54525000D01*
X120173896Y-54525000D02*
X121000000Y-55351104D01*
X113149431Y-52425500D02*
X115248931Y-54525000D01*
X109585000Y-52000000D02*
X110003246Y-52418246D01*
X109585000Y-50962500D02*
X109585000Y-52000000D01*
%TO.N,/STDBY*%
X120500000Y-55487500D02*
X120500000Y-56500000D01*
X114861396Y-54975000D02*
X119987500Y-54975000D01*
X112125000Y-50962500D02*
X112125000Y-52238604D01*
X112125000Y-52238604D02*
X114861396Y-54975000D01*
X119987500Y-54975000D02*
X120500000Y-55487500D01*
%TO.N,/CAN_RX*%
X111480000Y-49662500D02*
X110817500Y-49000000D01*
X109000000Y-49000000D02*
X108315000Y-49685000D01*
X114950000Y-55700000D02*
X111480000Y-52230000D01*
X110817500Y-49000000D02*
X109000000Y-49000000D01*
X117587500Y-61912500D02*
X116662500Y-61912500D01*
X114950000Y-60200000D02*
X114950000Y-55700000D01*
X108315000Y-49685000D02*
X108315000Y-50962500D01*
X116662500Y-61912500D02*
X114950000Y-60200000D01*
X111480000Y-52230000D02*
X111480000Y-49662500D01*
%TO.N,/CAN_TX*%
X116526104Y-62412500D02*
X117587500Y-62412500D01*
X110855000Y-52241396D02*
X114500000Y-55886396D01*
X114500000Y-60386396D02*
X116526104Y-62412500D01*
X114500000Y-55886396D02*
X114500000Y-60386396D01*
X110855000Y-50962500D02*
X110855000Y-52241396D01*
%TO.N,GNDA*%
X125325000Y-68688604D02*
X122500000Y-65863604D01*
X122500000Y-65863604D02*
X122500000Y-64825000D01*
X125500000Y-73400000D02*
X125325000Y-73225000D01*
X125325000Y-73225000D02*
X125325000Y-68688604D01*
%TO.N,VDDA*%
X126337500Y-70062500D02*
X126337500Y-68965685D01*
X123000000Y-65628185D02*
X123000000Y-64825000D01*
X126337500Y-68965685D02*
X123000000Y-65628185D01*
D34*
%TO.N,/V_CAN_IN*%
X108315000Y-44460000D02*
X107200000Y-45575000D01*
X108315000Y-41562500D02*
X108315000Y-44460000D01*
%TO.N,GND1*%
X114665000Y-45297500D02*
X114500000Y-45462500D01*
X109585000Y-45047500D02*
X109585000Y-41562500D01*
X114665000Y-41562500D02*
X114665000Y-45297500D01*
X110000000Y-45462500D02*
X109585000Y-45047500D01*
D36*
%TO.N,/CAN/GND_ISO_Out*%
X105200000Y-47992501D02*
X105200000Y-45462500D01*
D34*
X103235000Y-43497500D02*
X103235000Y-41562500D01*
X105775000Y-44887500D02*
X105775000Y-41562500D01*
X105200000Y-45462500D02*
X105775000Y-44887500D01*
D36*
X105746375Y-48538876D02*
X105200000Y-47992501D01*
D34*
X105200000Y-45462500D02*
X103235000Y-43497500D01*
D36*
%TO.N,/CAN_H*%
X110855000Y-45267500D02*
X112087500Y-46500000D01*
D35*
X108000000Y-61000000D02*
X106000000Y-59000000D01*
D36*
X110855000Y-41562500D02*
X110855000Y-45267500D01*
D35*
X106000000Y-73000000D02*
X108000000Y-71000000D01*
D36*
X112120703Y-46533203D02*
X112543750Y-46956250D01*
X112087500Y-46500000D02*
X112543750Y-46956250D01*
X107690000Y-52262500D02*
X108000000Y-52572500D01*
D35*
X108000000Y-71000000D02*
X108000000Y-61000000D01*
D36*
X108000000Y-57000000D02*
X106000000Y-59000000D01*
X107690000Y-48842085D02*
X107690000Y-52262500D01*
X108000000Y-52572500D02*
X108000000Y-57000000D01*
X109998882Y-46533203D02*
X107690000Y-48842085D01*
X112543750Y-46956250D02*
X112750000Y-47162500D01*
X109998882Y-46533203D02*
X112120703Y-46533203D01*
%TO.N,/CAN_L*%
X112125000Y-44637500D02*
X114650000Y-47162500D01*
X112125000Y-41562500D02*
X112125000Y-44637500D01*
D35*
X104500000Y-71500000D02*
X103000000Y-73000000D01*
X104500000Y-60500000D02*
X104500000Y-71500000D01*
X103000000Y-59000000D02*
X104500000Y-60500000D01*
D36*
%TO.N,/PA15*%
X116549500Y-58412500D02*
X117587500Y-58412500D01*
X116168500Y-58031500D02*
X116549500Y-58412500D01*
%TO.N,/PB1*%
X124500673Y-60412500D02*
X125912500Y-60412500D01*
X124000000Y-60913173D02*
X124500673Y-60412500D01*
X124000000Y-61200000D02*
X124000000Y-60913173D01*
%TO.N,/I2C2_PU_EN*%
X122500000Y-56500000D02*
X122500000Y-57400000D01*
X122500000Y-57400000D02*
X122200000Y-57700000D01*
%TO.N,/PA2*%
X127608211Y-68600000D02*
X124500000Y-65491789D01*
X124500000Y-65491789D02*
X124500000Y-64825000D01*
X136786827Y-67600000D02*
X135786827Y-68600000D01*
X137500000Y-67600000D02*
X136786827Y-67600000D01*
X135786827Y-68600000D02*
X127608211Y-68600000D01*
%TO.N,Net-(J3-D-)*%
X131337500Y-46150000D02*
X129450000Y-46150000D01*
X131650000Y-45837500D02*
X131337500Y-46150000D01*
X131650000Y-44962500D02*
X131650000Y-45837500D01*
X129450000Y-46150000D02*
X127800000Y-47800000D01*
D34*
%TO.N,Net-(C5-Pad1)*%
X136900000Y-76500000D02*
X137000000Y-76600000D01*
X131625000Y-76500000D02*
X132000000Y-76500000D01*
X132000000Y-76500000D02*
X136900000Y-76500000D01*
X137100000Y-76500000D02*
X137375000Y-76500000D01*
X137000000Y-76600000D02*
X137100000Y-76500000D01*
%TO.N,Net-(Q1-D)*%
X110920000Y-85500000D02*
X113500000Y-85500000D01*
X107920000Y-88500000D02*
X110920000Y-85500000D01*
D36*
X125000000Y-82500000D02*
X130000000Y-87500000D01*
D34*
X116000000Y-82500000D02*
X116000000Y-83000000D01*
X116000000Y-83000000D02*
X113500000Y-85500000D01*
X116000000Y-78500000D02*
X116000000Y-82500000D01*
D36*
X116000000Y-82500000D02*
X125000000Y-82500000D01*
X130000000Y-87500000D02*
X134000000Y-87500000D01*
%TO.N,/PB2*%
X134500000Y-70503850D02*
X134500000Y-70107700D01*
X133178850Y-71825000D02*
X134500000Y-70503850D01*
X124187500Y-59912500D02*
X125912500Y-59912500D01*
X132500000Y-71825000D02*
X133178850Y-71825000D01*
X123950000Y-60150000D02*
X124187500Y-59912500D01*
%TO.N,Net-(IC1-1GATE)*%
X136110000Y-57333000D02*
X137333000Y-57333000D01*
X135460000Y-58422000D02*
X135460000Y-57983000D01*
X137333000Y-57333000D02*
X138000000Y-58000000D01*
X133400000Y-55900000D02*
X133000000Y-55900000D01*
X138000000Y-58000000D02*
X138000000Y-58422000D01*
X135460000Y-57960000D02*
X133400000Y-55900000D01*
X135460000Y-57983000D02*
X136110000Y-57333000D01*
X135460000Y-57983000D02*
X135460000Y-57960000D01*
%TO.N,/I2C2_SDA*%
X127336845Y-58912500D02*
X125912500Y-58912500D01*
X127448848Y-58800497D02*
X127336845Y-58912500D01*
%TO.N,Net-(IC1-2DRAIN_1)*%
X137000000Y-54100000D02*
X136730000Y-53830000D01*
X136730000Y-53830000D02*
X136730000Y-53000000D01*
X136730000Y-53000000D02*
X138000000Y-53000000D01*
%TO.N,Net-(IC1-1DRAIN_1)*%
X135000000Y-54087500D02*
X135460000Y-53627500D01*
X135460000Y-53627500D02*
X135460000Y-53000000D01*
X134190000Y-53000000D02*
X135460000Y-53000000D01*
%TD*%
%TA.AperFunction,Conductor*%
%TO.N,+3.3V*%
G36*
X136002855Y-40100632D02*
G01*
X136354083Y-40116870D01*
X136365473Y-40117926D01*
X136710864Y-40166105D01*
X136722107Y-40168207D01*
X137061578Y-40248050D01*
X137072568Y-40251177D01*
X137403244Y-40362009D01*
X137413898Y-40366137D01*
X137732922Y-40506999D01*
X137743149Y-40512091D01*
X137863670Y-40579221D01*
X138047809Y-40681786D01*
X138057547Y-40687815D01*
X138345249Y-40884895D01*
X138354386Y-40891796D01*
X138496268Y-41009613D01*
X138622665Y-41114572D01*
X138631129Y-41122288D01*
X138877711Y-41368870D01*
X138885427Y-41377334D01*
X139108201Y-41645610D01*
X139115104Y-41654750D01*
X139312184Y-41942452D01*
X139318213Y-41952190D01*
X139346262Y-42002547D01*
X139481682Y-42245673D01*
X139487901Y-42256837D01*
X139493006Y-42267090D01*
X139633857Y-42586088D01*
X139637995Y-42596768D01*
X139748818Y-42927418D01*
X139751952Y-42938434D01*
X139831790Y-43277884D01*
X139833895Y-43289143D01*
X139882072Y-43634519D01*
X139883129Y-43645923D01*
X139899368Y-43997143D01*
X139899500Y-44002870D01*
X139899500Y-85997128D01*
X139899368Y-86002855D01*
X139883129Y-86354076D01*
X139882072Y-86365480D01*
X139833895Y-86710856D01*
X139831790Y-86722115D01*
X139751952Y-87061565D01*
X139748818Y-87072581D01*
X139637995Y-87403231D01*
X139633857Y-87413911D01*
X139493006Y-87732909D01*
X139487901Y-87743162D01*
X139318213Y-88047809D01*
X139312184Y-88057547D01*
X139115104Y-88345249D01*
X139108201Y-88354389D01*
X138885427Y-88622665D01*
X138877711Y-88631129D01*
X138631129Y-88877711D01*
X138622665Y-88885427D01*
X138354389Y-89108201D01*
X138345249Y-89115104D01*
X138057547Y-89312184D01*
X138047809Y-89318213D01*
X137743162Y-89487901D01*
X137732909Y-89493006D01*
X137413911Y-89633857D01*
X137403231Y-89637995D01*
X137072581Y-89748818D01*
X137061565Y-89751952D01*
X136722115Y-89831790D01*
X136710856Y-89833895D01*
X136365480Y-89882072D01*
X136354076Y-89883129D01*
X136002855Y-89899368D01*
X135997128Y-89899500D01*
X113537961Y-89899500D01*
X113470922Y-89879815D01*
X113425167Y-89827011D01*
X113415223Y-89757853D01*
X113444248Y-89694297D01*
X113465076Y-89675182D01*
X113605870Y-89572889D01*
X113679884Y-89490689D01*
X113732533Y-89432216D01*
X113827179Y-89268284D01*
X113885674Y-89088256D01*
X113900500Y-88947192D01*
X113900500Y-88052808D01*
X113885674Y-87911744D01*
X113834582Y-87754500D01*
X113827179Y-87731715D01*
X113732533Y-87567783D01*
X113605870Y-87427110D01*
X113452730Y-87315848D01*
X113279802Y-87238855D01*
X113094648Y-87199500D01*
X113094646Y-87199500D01*
X112905354Y-87199500D01*
X112905352Y-87199500D01*
X112720197Y-87238855D01*
X112547269Y-87315848D01*
X112394129Y-87427110D01*
X112267466Y-87567783D01*
X112172820Y-87731715D01*
X112114326Y-87911742D01*
X112102181Y-88027303D01*
X112099500Y-88052808D01*
X112099500Y-88947192D01*
X112099837Y-88950404D01*
X112099838Y-88950411D01*
X112114326Y-89088257D01*
X112172820Y-89268284D01*
X112267466Y-89432216D01*
X112394129Y-89572889D01*
X112534924Y-89675182D01*
X112577590Y-89730512D01*
X112583569Y-89800125D01*
X112550963Y-89861920D01*
X112490125Y-89896277D01*
X112462039Y-89899500D01*
X110997961Y-89899500D01*
X110930922Y-89879815D01*
X110885167Y-89827011D01*
X110875223Y-89757853D01*
X110904248Y-89694297D01*
X110925076Y-89675182D01*
X111065870Y-89572889D01*
X111139884Y-89490689D01*
X111192533Y-89432216D01*
X111287179Y-89268284D01*
X111345674Y-89088256D01*
X111360500Y-88947192D01*
X111360500Y-88052808D01*
X111345674Y-87911744D01*
X111294582Y-87754500D01*
X111287179Y-87731715D01*
X111192533Y-87567783D01*
X111065870Y-87427110D01*
X110912730Y-87315848D01*
X110739804Y-87238856D01*
X110728016Y-87236350D01*
X110666535Y-87203155D01*
X110632761Y-87141991D01*
X110637416Y-87072276D01*
X110666118Y-87027381D01*
X111256681Y-86436819D01*
X111318004Y-86403334D01*
X111344362Y-86400500D01*
X113419374Y-86400500D01*
X113438771Y-86402026D01*
X113452612Y-86404219D01*
X113520336Y-86400670D01*
X113526826Y-86400500D01*
X113543952Y-86400500D01*
X113547192Y-86400500D01*
X113550413Y-86400161D01*
X113550421Y-86400161D01*
X113567447Y-86398371D01*
X113573906Y-86397862D01*
X113641646Y-86394313D01*
X113655193Y-86390682D01*
X113674309Y-86387139D01*
X113688256Y-86385674D01*
X113752786Y-86364706D01*
X113758951Y-86362880D01*
X113824488Y-86345320D01*
X113836974Y-86338956D01*
X113854953Y-86331509D01*
X113868284Y-86327179D01*
X113927051Y-86293248D01*
X113932677Y-86290193D01*
X113993149Y-86259383D01*
X114004042Y-86250560D01*
X114020074Y-86239542D01*
X114032216Y-86232533D01*
X114082638Y-86187131D01*
X114087540Y-86182945D01*
X114103380Y-86170119D01*
X114117779Y-86155718D01*
X114122471Y-86151265D01*
X114144443Y-86131482D01*
X118245500Y-86131482D01*
X118284691Y-86391507D01*
X118362202Y-86642787D01*
X118476296Y-86879707D01*
X118476297Y-86879709D01*
X118476298Y-86879710D01*
X118624430Y-87096980D01*
X118803290Y-87289746D01*
X119008883Y-87453701D01*
X119236616Y-87585183D01*
X119481402Y-87681254D01*
X119737772Y-87739769D01*
X119934346Y-87754500D01*
X119936663Y-87754500D01*
X120063337Y-87754500D01*
X120065654Y-87754500D01*
X120262228Y-87739769D01*
X120518598Y-87681254D01*
X120763384Y-87585183D01*
X120991117Y-87453701D01*
X121196710Y-87289746D01*
X121375570Y-87096980D01*
X121523702Y-86879710D01*
X121637798Y-86642788D01*
X121715308Y-86391508D01*
X121754500Y-86131482D01*
X121754500Y-85868518D01*
X121733333Y-85728085D01*
X121715308Y-85608492D01*
X121715308Y-85608491D01*
X121637798Y-85357212D01*
X121523702Y-85120290D01*
X121375570Y-84903020D01*
X121196710Y-84710254D01*
X121196164Y-84709818D01*
X120991116Y-84546298D01*
X120763382Y-84414816D01*
X120518600Y-84318746D01*
X120262225Y-84260230D01*
X120067968Y-84245673D01*
X120067957Y-84245672D01*
X120065654Y-84245500D01*
X119934346Y-84245500D01*
X119932043Y-84245672D01*
X119932031Y-84245673D01*
X119737774Y-84260230D01*
X119481399Y-84318746D01*
X119236617Y-84414816D01*
X119008883Y-84546298D01*
X118803290Y-84710253D01*
X118624431Y-84903018D01*
X118476296Y-85120292D01*
X118362202Y-85357212D01*
X118284691Y-85608492D01*
X118245500Y-85868517D01*
X118245500Y-86131482D01*
X114144443Y-86131482D01*
X114172888Y-86105871D01*
X114181129Y-86094526D01*
X114193760Y-86079737D01*
X116579742Y-83693756D01*
X116594527Y-83681129D01*
X116605871Y-83672888D01*
X116651256Y-83622481D01*
X116655712Y-83617787D01*
X116670120Y-83603380D01*
X116682964Y-83587517D01*
X116687152Y-83582615D01*
X116732533Y-83532216D01*
X116739544Y-83520071D01*
X116750564Y-83504039D01*
X116759383Y-83493149D01*
X116790185Y-83432693D01*
X116793248Y-83427051D01*
X116827179Y-83368284D01*
X116831509Y-83354953D01*
X116838956Y-83336974D01*
X116845320Y-83324488D01*
X116862875Y-83258970D01*
X116864707Y-83252782D01*
X116885674Y-83188256D01*
X116887140Y-83174305D01*
X116890683Y-83155190D01*
X116894313Y-83141645D01*
X116894313Y-83141642D01*
X116897688Y-83129050D01*
X116899022Y-83129407D01*
X116917404Y-83077098D01*
X116972528Y-83034166D01*
X117018071Y-83025500D01*
X124730968Y-83025500D01*
X124798007Y-83045185D01*
X124818649Y-83061819D01*
X127446886Y-85690056D01*
X127480371Y-85751379D01*
X127475387Y-85821071D01*
X127433515Y-85877004D01*
X127368051Y-85901421D01*
X127305404Y-85889457D01*
X127159643Y-85819263D01*
X127159641Y-85819262D01*
X127067716Y-85790907D01*
X126901771Y-85739719D01*
X126634929Y-85699500D01*
X126365071Y-85699500D01*
X126098228Y-85739719D01*
X125840359Y-85819262D01*
X125597228Y-85936347D01*
X125374257Y-86088366D01*
X125176439Y-86271915D01*
X125008184Y-86482899D01*
X124873257Y-86716601D01*
X124774666Y-86967804D01*
X124714616Y-87230899D01*
X124694450Y-87499999D01*
X124714616Y-87769100D01*
X124714617Y-87769103D01*
X124774666Y-88032195D01*
X124873257Y-88283398D01*
X125008185Y-88517102D01*
X125176439Y-88728085D01*
X125374259Y-88911635D01*
X125597226Y-89063651D01*
X125840359Y-89180738D01*
X126098228Y-89260280D01*
X126365071Y-89300500D01*
X126634929Y-89300500D01*
X126901772Y-89260280D01*
X127159641Y-89180738D01*
X127402775Y-89063651D01*
X127625741Y-88911635D01*
X127823561Y-88728085D01*
X127991815Y-88517102D01*
X128126743Y-88283398D01*
X128225334Y-88032195D01*
X128285383Y-87769103D01*
X128305549Y-87500000D01*
X128285383Y-87230897D01*
X128225334Y-86967805D01*
X128126743Y-86716602D01*
X128124091Y-86712009D01*
X128107618Y-86644112D01*
X128130469Y-86578085D01*
X128185390Y-86534893D01*
X128254943Y-86528250D01*
X128317046Y-86560265D01*
X128319159Y-86562329D01*
X129620557Y-87863727D01*
X129623500Y-87866772D01*
X129665243Y-87911468D01*
X129665245Y-87911469D01*
X129698505Y-87931694D01*
X129708985Y-87938827D01*
X129740025Y-87962365D01*
X129755521Y-87968475D01*
X129774451Y-87977878D01*
X129788672Y-87986526D01*
X129826166Y-87997030D01*
X129838184Y-88001072D01*
X129874411Y-88015359D01*
X129890972Y-88017061D01*
X129911737Y-88021006D01*
X129927772Y-88025500D01*
X129966696Y-88025500D01*
X129979376Y-88026149D01*
X130018110Y-88030132D01*
X130034518Y-88027303D01*
X130055587Y-88025500D01*
X131687497Y-88025500D01*
X131754536Y-88045185D01*
X131800291Y-88097989D01*
X131802925Y-88104197D01*
X131873257Y-88283398D01*
X132008185Y-88517102D01*
X132176439Y-88728085D01*
X132374259Y-88911635D01*
X132597226Y-89063651D01*
X132840359Y-89180738D01*
X133098228Y-89260280D01*
X133365071Y-89300500D01*
X133634929Y-89300500D01*
X133901772Y-89260280D01*
X134159641Y-89180738D01*
X134402775Y-89063651D01*
X134625741Y-88911635D01*
X134823561Y-88728085D01*
X134991815Y-88517102D01*
X135126743Y-88283398D01*
X135225334Y-88032195D01*
X135285383Y-87769103D01*
X135305549Y-87500000D01*
X135285383Y-87230897D01*
X135225334Y-86967805D01*
X135126743Y-86716602D01*
X134991815Y-86482898D01*
X134823561Y-86271915D01*
X134823560Y-86271914D01*
X134625743Y-86088366D01*
X134500321Y-86002855D01*
X134402775Y-85936349D01*
X134159641Y-85819262D01*
X134080097Y-85794726D01*
X133901771Y-85739719D01*
X133634929Y-85699500D01*
X133365071Y-85699500D01*
X133098228Y-85739719D01*
X132840359Y-85819262D01*
X132597228Y-85936347D01*
X132374257Y-86088366D01*
X132176439Y-86271915D01*
X132008184Y-86482899D01*
X131873257Y-86716602D01*
X131802925Y-86895803D01*
X131760109Y-86951016D01*
X131694239Y-86974317D01*
X131687497Y-86974500D01*
X130269032Y-86974500D01*
X130201993Y-86954815D01*
X130181351Y-86938181D01*
X129753088Y-86509918D01*
X129719603Y-86448595D01*
X129724587Y-86378903D01*
X129766459Y-86322970D01*
X129831923Y-86298553D01*
X129859251Y-86299622D01*
X129865071Y-86300500D01*
X129865072Y-86300500D01*
X130134929Y-86300500D01*
X130401772Y-86260280D01*
X130659641Y-86180738D01*
X130902775Y-86063651D01*
X131125741Y-85911635D01*
X131323561Y-85728085D01*
X131491815Y-85517102D01*
X131626743Y-85283398D01*
X131725334Y-85032195D01*
X131785383Y-84769103D01*
X131805549Y-84500000D01*
X135194450Y-84500000D01*
X135214616Y-84769100D01*
X135274459Y-85031289D01*
X135274666Y-85032195D01*
X135373257Y-85283398D01*
X135508185Y-85517102D01*
X135676439Y-85728085D01*
X135874259Y-85911635D01*
X136097226Y-86063651D01*
X136340359Y-86180738D01*
X136598228Y-86260280D01*
X136865071Y-86300500D01*
X137134929Y-86300500D01*
X137401772Y-86260280D01*
X137659641Y-86180738D01*
X137902775Y-86063651D01*
X138125741Y-85911635D01*
X138323561Y-85728085D01*
X138491815Y-85517102D01*
X138626743Y-85283398D01*
X138725334Y-85032195D01*
X138785383Y-84769103D01*
X138805549Y-84500000D01*
X138785383Y-84230897D01*
X138725334Y-83967805D01*
X138626743Y-83716602D01*
X138491815Y-83482898D01*
X138323561Y-83271915D01*
X138309625Y-83258984D01*
X138125743Y-83088366D01*
X138033535Y-83025500D01*
X137902775Y-82936349D01*
X137659641Y-82819262D01*
X137580098Y-82794726D01*
X137401771Y-82739719D01*
X137134929Y-82699500D01*
X136865071Y-82699500D01*
X136598228Y-82739719D01*
X136340359Y-82819262D01*
X136097228Y-82936347D01*
X135874257Y-83088366D01*
X135676439Y-83271915D01*
X135508184Y-83482899D01*
X135373257Y-83716601D01*
X135274666Y-83967804D01*
X135214616Y-84230899D01*
X135194450Y-84500000D01*
X131805549Y-84500000D01*
X131805326Y-84497030D01*
X131786477Y-84245500D01*
X131785383Y-84230897D01*
X131725334Y-83967805D01*
X131626743Y-83716602D01*
X131491815Y-83482898D01*
X131323561Y-83271915D01*
X131309625Y-83258984D01*
X131125743Y-83088366D01*
X131033535Y-83025500D01*
X130902775Y-82936349D01*
X130659641Y-82819262D01*
X130580097Y-82794726D01*
X130401771Y-82739719D01*
X130134929Y-82699500D01*
X129865071Y-82699500D01*
X129598228Y-82739719D01*
X129340359Y-82819262D01*
X129097228Y-82936347D01*
X128874257Y-83088366D01*
X128676439Y-83271915D01*
X128508184Y-83482899D01*
X128373257Y-83716601D01*
X128274666Y-83967804D01*
X128214616Y-84230899D01*
X128194450Y-84500000D01*
X128206034Y-84654583D01*
X128191414Y-84722906D01*
X128142177Y-84772479D01*
X128073955Y-84787562D01*
X128008408Y-84763368D01*
X127994700Y-84751530D01*
X125379441Y-82136272D01*
X125376498Y-82133227D01*
X125334753Y-82088529D01*
X125301488Y-82068300D01*
X125290992Y-82061157D01*
X125259975Y-82037636D01*
X125259973Y-82037635D01*
X125244488Y-82031528D01*
X125225556Y-82022125D01*
X125211327Y-82013473D01*
X125173843Y-82002970D01*
X125161810Y-81998924D01*
X125125586Y-81984639D01*
X125109021Y-81982936D01*
X125088255Y-81978990D01*
X125072228Y-81974500D01*
X125033296Y-81974500D01*
X125020616Y-81973850D01*
X125017031Y-81973481D01*
X124981890Y-81969868D01*
X124966842Y-81972463D01*
X124965486Y-81972697D01*
X124944419Y-81974500D01*
X117024500Y-81974500D01*
X116957461Y-81954815D01*
X116911706Y-81902011D01*
X116900500Y-81850500D01*
X116900500Y-81031514D01*
X117349500Y-81031514D01*
X117349501Y-81031518D01*
X117364354Y-81125304D01*
X117364354Y-81125305D01*
X117364355Y-81125306D01*
X117421949Y-81238342D01*
X117511656Y-81328049D01*
X117511658Y-81328050D01*
X117624696Y-81385646D01*
X117718481Y-81400500D01*
X119065525Y-81400499D01*
X119065535Y-81400500D01*
X119077808Y-81400500D01*
X124937453Y-81400500D01*
X124937461Y-81400499D01*
X126281514Y-81400499D01*
X126281518Y-81400499D01*
X126375304Y-81385646D01*
X126488342Y-81328050D01*
X126578050Y-81238342D01*
X126635646Y-81125304D01*
X126650500Y-81031519D01*
X126650500Y-81031514D01*
X129849500Y-81031514D01*
X129849501Y-81031518D01*
X129864354Y-81125304D01*
X129864354Y-81125305D01*
X129864355Y-81125306D01*
X129921949Y-81238342D01*
X130011656Y-81328049D01*
X130011658Y-81328050D01*
X130124696Y-81385646D01*
X130218481Y-81400500D01*
X131565525Y-81400499D01*
X131565535Y-81400500D01*
X131577808Y-81400500D01*
X137437453Y-81400500D01*
X137437461Y-81400499D01*
X138781514Y-81400499D01*
X138781518Y-81400499D01*
X138875304Y-81385646D01*
X138988342Y-81328050D01*
X139078050Y-81238342D01*
X139135646Y-81125304D01*
X139150500Y-81031519D01*
X139150499Y-79968482D01*
X139135646Y-79874696D01*
X139107965Y-79820370D01*
X139078050Y-79761657D01*
X138988343Y-79671950D01*
X138875302Y-79614353D01*
X138781521Y-79599500D01*
X138781519Y-79599500D01*
X137422196Y-79599500D01*
X137422192Y-79599500D01*
X134547192Y-79599500D01*
X131577808Y-79599500D01*
X131577803Y-79599500D01*
X130218485Y-79599500D01*
X130171589Y-79606927D01*
X130124696Y-79614354D01*
X130124694Y-79614354D01*
X130124693Y-79614355D01*
X130011657Y-79671949D01*
X129921950Y-79761656D01*
X129864353Y-79874697D01*
X129849500Y-79968478D01*
X129849500Y-81031514D01*
X126650500Y-81031514D01*
X126650499Y-79968482D01*
X126635646Y-79874696D01*
X126607965Y-79820370D01*
X126578050Y-79761657D01*
X126488343Y-79671950D01*
X126375302Y-79614353D01*
X126281521Y-79599500D01*
X126281519Y-79599500D01*
X124922196Y-79599500D01*
X124922192Y-79599500D01*
X121547192Y-79599500D01*
X119077808Y-79599500D01*
X119077803Y-79599500D01*
X117718485Y-79599500D01*
X117671588Y-79606927D01*
X117624696Y-79614354D01*
X117624694Y-79614354D01*
X117624693Y-79614355D01*
X117511657Y-79671949D01*
X117421950Y-79761656D01*
X117364353Y-79874697D01*
X117349500Y-79968478D01*
X117349500Y-81031514D01*
X116900500Y-81031514D01*
X116900500Y-78500000D01*
X118844721Y-78500000D01*
X118863763Y-78656818D01*
X118919780Y-78804523D01*
X119009515Y-78934528D01*
X119009516Y-78934529D01*
X119009517Y-78934530D01*
X119127760Y-79039283D01*
X119267635Y-79112696D01*
X119421015Y-79150500D01*
X119578985Y-79150500D01*
X119732365Y-79112696D01*
X119872240Y-79039283D01*
X119990483Y-78934530D01*
X120080220Y-78804523D01*
X120136237Y-78656818D01*
X120155278Y-78500000D01*
X120136237Y-78343182D01*
X120129341Y-78325000D01*
X131344721Y-78325000D01*
X131363763Y-78481818D01*
X131419780Y-78629523D01*
X131509515Y-78759528D01*
X131509516Y-78759529D01*
X131509517Y-78759530D01*
X131627760Y-78864283D01*
X131767635Y-78937696D01*
X131921015Y-78975500D01*
X132078985Y-78975500D01*
X132232365Y-78937696D01*
X132372240Y-78864283D01*
X132490483Y-78759530D01*
X132580220Y-78629523D01*
X132629342Y-78499999D01*
X136344721Y-78499999D01*
X136363763Y-78656818D01*
X136419780Y-78804523D01*
X136509515Y-78934528D01*
X136509516Y-78934529D01*
X136509517Y-78934530D01*
X136627760Y-79039283D01*
X136767635Y-79112696D01*
X136921015Y-79150500D01*
X137078985Y-79150500D01*
X137232365Y-79112696D01*
X137372240Y-79039283D01*
X137490483Y-78934530D01*
X137580220Y-78804523D01*
X137636237Y-78656818D01*
X137655278Y-78500000D01*
X137636237Y-78343182D01*
X137580220Y-78195477D01*
X137490483Y-78065470D01*
X137372240Y-77960717D01*
X137274328Y-77909328D01*
X137232364Y-77887303D01*
X137078985Y-77849500D01*
X136921015Y-77849500D01*
X136767635Y-77887303D01*
X136627761Y-77960716D01*
X136509515Y-78065471D01*
X136419780Y-78195476D01*
X136363763Y-78343181D01*
X136344721Y-78499999D01*
X132629342Y-78499999D01*
X132636237Y-78481818D01*
X132655278Y-78325000D01*
X132636237Y-78168182D01*
X132580220Y-78020477D01*
X132490483Y-77890470D01*
X132372240Y-77785717D01*
X132358994Y-77778764D01*
X132232364Y-77712303D01*
X132078985Y-77674500D01*
X131921015Y-77674500D01*
X131767635Y-77712303D01*
X131627761Y-77785716D01*
X131509515Y-77890471D01*
X131419780Y-78020476D01*
X131363763Y-78168181D01*
X131344721Y-78325000D01*
X120129341Y-78325000D01*
X120080220Y-78195477D01*
X119990483Y-78065470D01*
X119872240Y-77960717D01*
X119774328Y-77909328D01*
X119732364Y-77887303D01*
X119578985Y-77849500D01*
X119421015Y-77849500D01*
X119267635Y-77887303D01*
X119127761Y-77960716D01*
X119009515Y-78065471D01*
X118919780Y-78195476D01*
X118863763Y-78343181D01*
X118844721Y-78500000D01*
X116900500Y-78500000D01*
X116900500Y-78456049D01*
X116900500Y-78452808D01*
X116885674Y-78311744D01*
X116827179Y-78131716D01*
X116827179Y-78131715D01*
X116732533Y-77967783D01*
X116711749Y-77944700D01*
X116681519Y-77881708D01*
X116679899Y-77861728D01*
X116679899Y-75763385D01*
X116679899Y-75763382D01*
X116665046Y-75669596D01*
X116627435Y-75595781D01*
X116607450Y-75556557D01*
X116517743Y-75466850D01*
X116404702Y-75409253D01*
X116310921Y-75394400D01*
X115689085Y-75394400D01*
X115642188Y-75401827D01*
X115595296Y-75409254D01*
X115595294Y-75409254D01*
X115595293Y-75409255D01*
X115482257Y-75466849D01*
X115392550Y-75556556D01*
X115334953Y-75669597D01*
X115320099Y-75763378D01*
X115320100Y-77861729D01*
X115300415Y-77928768D01*
X115288252Y-77944699D01*
X115267466Y-77967784D01*
X115172820Y-78131715D01*
X115114326Y-78311742D01*
X115103150Y-78418084D01*
X115099500Y-78452808D01*
X115099500Y-78456029D01*
X115099499Y-78456049D01*
X115099500Y-82575638D01*
X115079815Y-82642677D01*
X115063181Y-82663319D01*
X113163320Y-84563181D01*
X113101997Y-84596666D01*
X113075639Y-84599500D01*
X112271143Y-84599500D01*
X112204104Y-84579815D01*
X112158349Y-84527011D01*
X112148047Y-84490447D01*
X112136237Y-84393182D01*
X112080220Y-84245477D01*
X111990483Y-84115470D01*
X111872240Y-84010717D01*
X111858994Y-84003764D01*
X111732364Y-83937303D01*
X111578985Y-83899500D01*
X111421015Y-83899500D01*
X111267635Y-83937303D01*
X111127761Y-84010716D01*
X111009515Y-84115471D01*
X110919780Y-84245476D01*
X110863763Y-84393181D01*
X110850176Y-84505079D01*
X110822554Y-84569257D01*
X110764620Y-84608313D01*
X110740049Y-84613452D01*
X110731743Y-84614325D01*
X110667241Y-84635283D01*
X110661020Y-84637126D01*
X110595510Y-84654680D01*
X110583016Y-84661046D01*
X110565056Y-84668485D01*
X110551718Y-84672819D01*
X110492996Y-84706722D01*
X110487295Y-84709818D01*
X110426847Y-84740618D01*
X110415952Y-84749441D01*
X110399929Y-84760454D01*
X110387785Y-84767466D01*
X110337397Y-84812835D01*
X110332465Y-84817048D01*
X110319134Y-84827843D01*
X110319121Y-84827854D01*
X110316620Y-84829880D01*
X110314339Y-84832160D01*
X110314321Y-84832177D01*
X110302199Y-84844298D01*
X110297498Y-84848760D01*
X110247108Y-84894132D01*
X110238872Y-84905468D01*
X110226238Y-84920260D01*
X107983320Y-87163181D01*
X107921997Y-87196666D01*
X107895639Y-87199500D01*
X107825352Y-87199500D01*
X107640197Y-87238855D01*
X107467269Y-87315848D01*
X107314129Y-87427110D01*
X107187466Y-87567783D01*
X107092820Y-87731715D01*
X107034326Y-87911742D01*
X107022181Y-88027303D01*
X107019500Y-88052808D01*
X107019500Y-88056048D01*
X107019500Y-88056049D01*
X107019500Y-88473174D01*
X107019330Y-88479663D01*
X107015781Y-88547388D01*
X107017973Y-88561227D01*
X107019500Y-88580626D01*
X107019500Y-88947192D01*
X107019837Y-88950404D01*
X107019838Y-88950411D01*
X107034326Y-89088257D01*
X107092820Y-89268284D01*
X107187466Y-89432216D01*
X107314129Y-89572889D01*
X107454924Y-89675182D01*
X107497590Y-89730512D01*
X107503569Y-89800125D01*
X107470963Y-89861920D01*
X107410125Y-89896277D01*
X107382039Y-89899500D01*
X105917961Y-89899500D01*
X105850922Y-89879815D01*
X105805167Y-89827011D01*
X105795223Y-89757853D01*
X105824248Y-89694297D01*
X105845076Y-89675182D01*
X105985870Y-89572889D01*
X106059884Y-89490689D01*
X106112533Y-89432216D01*
X106207179Y-89268284D01*
X106265674Y-89088256D01*
X106280500Y-88947192D01*
X106280500Y-88052808D01*
X106265674Y-87911744D01*
X106214582Y-87754500D01*
X106207179Y-87731715D01*
X106112533Y-87567783D01*
X105985870Y-87427110D01*
X105832730Y-87315848D01*
X105659802Y-87238855D01*
X105474648Y-87199500D01*
X105474646Y-87199500D01*
X105285354Y-87199500D01*
X105285352Y-87199500D01*
X105100197Y-87238855D01*
X104927269Y-87315848D01*
X104774129Y-87427110D01*
X104647466Y-87567783D01*
X104552820Y-87731715D01*
X104494326Y-87911742D01*
X104482181Y-88027303D01*
X104479500Y-88052808D01*
X104479500Y-88947192D01*
X104479837Y-88950404D01*
X104479838Y-88950411D01*
X104494326Y-89088257D01*
X104552820Y-89268284D01*
X104647466Y-89432216D01*
X104774129Y-89572889D01*
X104914924Y-89675182D01*
X104957590Y-89730512D01*
X104963569Y-89800125D01*
X104930963Y-89861920D01*
X104870125Y-89896277D01*
X104842039Y-89899500D01*
X104002872Y-89899500D01*
X103997145Y-89899368D01*
X103645923Y-89883129D01*
X103634519Y-89882072D01*
X103289143Y-89833895D01*
X103277884Y-89831790D01*
X102938434Y-89751952D01*
X102927418Y-89748818D01*
X102596768Y-89637995D01*
X102586088Y-89633857D01*
X102267085Y-89493003D01*
X102256842Y-89487903D01*
X102156864Y-89432216D01*
X101952190Y-89318213D01*
X101942452Y-89312184D01*
X101654750Y-89115104D01*
X101645610Y-89108201D01*
X101377334Y-88885427D01*
X101368870Y-88877711D01*
X101122288Y-88631129D01*
X101114572Y-88622665D01*
X101071560Y-88570868D01*
X100891796Y-88354386D01*
X100884895Y-88345249D01*
X100842525Y-88283397D01*
X100687815Y-88057547D01*
X100681786Y-88047809D01*
X100579253Y-87863727D01*
X100512091Y-87743149D01*
X100506999Y-87732922D01*
X100366137Y-87413898D01*
X100362009Y-87403244D01*
X100251177Y-87072568D01*
X100248050Y-87061578D01*
X100168207Y-86722107D01*
X100166104Y-86710856D01*
X100146053Y-86567115D01*
X100117926Y-86365473D01*
X100116870Y-86354076D01*
X100116465Y-86345320D01*
X100100632Y-86002855D01*
X100100500Y-85997128D01*
X100100500Y-84062500D01*
X103844721Y-84062500D01*
X103863763Y-84219318D01*
X103919780Y-84367023D01*
X104009515Y-84497028D01*
X104009516Y-84497029D01*
X104009517Y-84497030D01*
X104127760Y-84601783D01*
X104267635Y-84675196D01*
X104421015Y-84713000D01*
X104578985Y-84713000D01*
X104732365Y-84675196D01*
X104872240Y-84601783D01*
X104990483Y-84497030D01*
X105080220Y-84367023D01*
X105136237Y-84219318D01*
X105155278Y-84062500D01*
X105136237Y-83905682D01*
X105080220Y-83757977D01*
X104990483Y-83627970D01*
X104872240Y-83523217D01*
X104858994Y-83516264D01*
X104732364Y-83449803D01*
X104578985Y-83412000D01*
X104421015Y-83412000D01*
X104267635Y-83449803D01*
X104127761Y-83523216D01*
X104009515Y-83627971D01*
X103919780Y-83757976D01*
X103863763Y-83905681D01*
X103844721Y-84062500D01*
X100100500Y-84062500D01*
X100100500Y-81937500D01*
X103844721Y-81937500D01*
X103863763Y-82094318D01*
X103919780Y-82242023D01*
X104009515Y-82372028D01*
X104009516Y-82372029D01*
X104009517Y-82372030D01*
X104127760Y-82476783D01*
X104267635Y-82550196D01*
X104421015Y-82588000D01*
X104578985Y-82588000D01*
X104732365Y-82550196D01*
X104872240Y-82476783D01*
X104990483Y-82372030D01*
X105080220Y-82242023D01*
X105136237Y-82094318D01*
X105147689Y-82000000D01*
X105844721Y-82000000D01*
X105863763Y-82156818D01*
X105919780Y-82304523D01*
X106009515Y-82434528D01*
X106009516Y-82434529D01*
X106009517Y-82434530D01*
X106127760Y-82539283D01*
X106267635Y-82612696D01*
X106421015Y-82650500D01*
X106578985Y-82650500D01*
X106732365Y-82612696D01*
X106872240Y-82539283D01*
X106990483Y-82434530D01*
X107080220Y-82304523D01*
X107136237Y-82156818D01*
X107155278Y-82000000D01*
X107154831Y-81996324D01*
X108844275Y-81996324D01*
X108853001Y-82068194D01*
X108853354Y-82071466D01*
X108860518Y-82147235D01*
X108861171Y-82149986D01*
X108889841Y-82225580D01*
X108916607Y-82299927D01*
X108963395Y-82367710D01*
X109008175Y-82433602D01*
X109051046Y-82471398D01*
X109068990Y-82487218D01*
X109130748Y-82541930D01*
X109201155Y-82577805D01*
X109234381Y-82595242D01*
X109267635Y-82612696D01*
X109267638Y-82612696D01*
X109274001Y-82616036D01*
X109277898Y-82616907D01*
X109277900Y-82616908D01*
X109349871Y-82632994D01*
X109352467Y-82633604D01*
X109421015Y-82650500D01*
X109421019Y-82650500D01*
X109426306Y-82651803D01*
X109435704Y-82652841D01*
X109438294Y-82652759D01*
X109438296Y-82652760D01*
X109508262Y-82650560D01*
X109512157Y-82650500D01*
X109581092Y-82650500D01*
X109602116Y-82647611D01*
X109602569Y-82647597D01*
X109666237Y-82629099D01*
X109671060Y-82627805D01*
X109732365Y-82612696D01*
X109733302Y-82612204D01*
X109756324Y-82602927D01*
X109760398Y-82601744D01*
X109814231Y-82569905D01*
X109819664Y-82566876D01*
X109872240Y-82539283D01*
X109875850Y-82536083D01*
X109894970Y-82522158D01*
X109901863Y-82518082D01*
X109901862Y-82518082D01*
X109901865Y-82518081D01*
X109943442Y-82476503D01*
X109948866Y-82471398D01*
X109990483Y-82434530D01*
X109995375Y-82427440D01*
X110009738Y-82410206D01*
X110151113Y-82268831D01*
X110167762Y-82255494D01*
X110169536Y-82253604D01*
X110169540Y-82253602D01*
X110217497Y-82202531D01*
X110220115Y-82199829D01*
X110240511Y-82179435D01*
X110243210Y-82175954D01*
X110250784Y-82167085D01*
X110282048Y-82133793D01*
X110292275Y-82115187D01*
X110302948Y-82098939D01*
X110315962Y-82082164D01*
X110334091Y-82040268D01*
X110339231Y-82029777D01*
X110348194Y-82013474D01*
X110361227Y-81989768D01*
X110366506Y-81969205D01*
X110372807Y-81950798D01*
X110381235Y-81931326D01*
X110388377Y-81886228D01*
X110390741Y-81874813D01*
X110402100Y-81830577D01*
X110402100Y-81809348D01*
X110403627Y-81789948D01*
X110406946Y-81768995D01*
X110402647Y-81723524D01*
X110402099Y-81711898D01*
X110402099Y-81388722D01*
X110415618Y-81332421D01*
X110416646Y-81330404D01*
X110416646Y-81330402D01*
X110416647Y-81330401D01*
X110424073Y-81283511D01*
X110431500Y-81236619D01*
X110431499Y-75763382D01*
X110416646Y-75669596D01*
X110379035Y-75595781D01*
X110359050Y-75556557D01*
X110269343Y-75466850D01*
X110156302Y-75409253D01*
X110062521Y-75394400D01*
X109440685Y-75394400D01*
X109393788Y-75401827D01*
X109346896Y-75409254D01*
X109346894Y-75409254D01*
X109346893Y-75409255D01*
X109233857Y-75466849D01*
X109144150Y-75556556D01*
X109086553Y-75669597D01*
X109071700Y-75763378D01*
X109071700Y-81236614D01*
X109071974Y-81238342D01*
X109086554Y-81330404D01*
X109087585Y-81332428D01*
X109101100Y-81388724D01*
X109101099Y-81427594D01*
X109081413Y-81494633D01*
X109064780Y-81515272D01*
X109056586Y-81523466D01*
X109051134Y-81528599D01*
X109009515Y-81565471D01*
X108976864Y-81612774D01*
X108972795Y-81618332D01*
X108935637Y-81666235D01*
X108933202Y-81671864D01*
X108921455Y-81693049D01*
X108919781Y-81695474D01*
X108898063Y-81752736D01*
X108895925Y-81758006D01*
X108870365Y-81817074D01*
X108869997Y-81819398D01*
X108863837Y-81842571D01*
X108855929Y-81907691D01*
X108855310Y-81912113D01*
X108845533Y-81973850D01*
X108844486Y-81980461D01*
X108844275Y-81996324D01*
X107154831Y-81996324D01*
X107154035Y-81989767D01*
X107150391Y-81959753D01*
X107136237Y-81843182D01*
X107080220Y-81695477D01*
X107025088Y-81615604D01*
X106990484Y-81565471D01*
X106990483Y-81565470D01*
X106872240Y-81460717D01*
X106858994Y-81453765D01*
X106732364Y-81387303D01*
X106578985Y-81349500D01*
X106421015Y-81349500D01*
X106267635Y-81387303D01*
X106127761Y-81460716D01*
X106009515Y-81565471D01*
X105919780Y-81695476D01*
X105863763Y-81843181D01*
X105844721Y-82000000D01*
X105147689Y-82000000D01*
X105155278Y-81937500D01*
X105136237Y-81780682D01*
X105080220Y-81632977D01*
X105033623Y-81565470D01*
X104990484Y-81502971D01*
X104963374Y-81478954D01*
X104872240Y-81398217D01*
X104848288Y-81385646D01*
X104732364Y-81324803D01*
X104578985Y-81287000D01*
X104421015Y-81287000D01*
X104267635Y-81324803D01*
X104127761Y-81398216D01*
X104009515Y-81502971D01*
X103919780Y-81632976D01*
X103863763Y-81780681D01*
X103844721Y-81937500D01*
X100100500Y-81937500D01*
X100100500Y-79044168D01*
X106181648Y-79044168D01*
X106193732Y-79112696D01*
X106212277Y-79217866D01*
X106282135Y-79379818D01*
X106282136Y-79379818D01*
X106387461Y-79521294D01*
X106522570Y-79634665D01*
X106522571Y-79634665D01*
X106522573Y-79634667D01*
X106680189Y-79713824D01*
X106680190Y-79713824D01*
X106680192Y-79713825D01*
X106851810Y-79754500D01*
X106851812Y-79754500D01*
X106980342Y-79754500D01*
X106983941Y-79754500D01*
X107115184Y-79739160D01*
X107280924Y-79678836D01*
X107428285Y-79581915D01*
X107549322Y-79453623D01*
X107637510Y-79300876D01*
X107688095Y-79131909D01*
X107698351Y-78955831D01*
X107667723Y-78782134D01*
X107597864Y-78620182D01*
X107492539Y-78478706D01*
X107457838Y-78449588D01*
X107357429Y-78365334D01*
X107199807Y-78286174D01*
X107028190Y-78245500D01*
X107028188Y-78245500D01*
X106896059Y-78245500D01*
X106892492Y-78245916D01*
X106892490Y-78245917D01*
X106764813Y-78260840D01*
X106599074Y-78321164D01*
X106451715Y-78418084D01*
X106330676Y-78546377D01*
X106242491Y-78699120D01*
X106191905Y-78868092D01*
X106181648Y-79044168D01*
X100100500Y-79044168D01*
X100100500Y-76565694D01*
X101849500Y-76565694D01*
X101849690Y-76568114D01*
X101849691Y-76568128D01*
X101852402Y-76602572D01*
X101898255Y-76760396D01*
X101898256Y-76760397D01*
X101981919Y-76901864D01*
X102098136Y-77018081D01*
X102120857Y-77031518D01*
X102239603Y-77101744D01*
X102397427Y-77147597D01*
X102397431Y-77147598D01*
X102434306Y-77150500D01*
X102436751Y-77150500D01*
X103563249Y-77150500D01*
X103565694Y-77150500D01*
X103602569Y-77147598D01*
X103760397Y-77101744D01*
X103901864Y-77018081D01*
X104018081Y-76901864D01*
X104101744Y-76760397D01*
X104147598Y-76602569D01*
X104150500Y-76565694D01*
X104150500Y-75999999D01*
X104844571Y-75999999D01*
X104864243Y-76212310D01*
X104922595Y-76417390D01*
X105017631Y-76608252D01*
X105132527Y-76760397D01*
X105146128Y-76778407D01*
X105303698Y-76922052D01*
X105484981Y-77034298D01*
X105683802Y-77111321D01*
X105893390Y-77150500D01*
X105893392Y-77150500D01*
X106106608Y-77150500D01*
X106106610Y-77150500D01*
X106316198Y-77111321D01*
X106515019Y-77034298D01*
X106696302Y-76922052D01*
X106853872Y-76778407D01*
X106982366Y-76608255D01*
X106982366Y-76608253D01*
X106982368Y-76608252D01*
X107030080Y-76512430D01*
X107077405Y-76417389D01*
X107135756Y-76212310D01*
X107155429Y-76000000D01*
X107135756Y-75787690D01*
X107128839Y-75763381D01*
X107112550Y-75706132D01*
X107077405Y-75582611D01*
X107024071Y-75475500D01*
X106982368Y-75391747D01*
X106853873Y-75221594D01*
X106696301Y-75077947D01*
X106515017Y-74965701D01*
X106316198Y-74888679D01*
X106316197Y-74888678D01*
X106106610Y-74849500D01*
X105893390Y-74849500D01*
X105753664Y-74875619D01*
X105683801Y-74888679D01*
X105484982Y-74965701D01*
X105303698Y-75077947D01*
X105146126Y-75221594D01*
X105017631Y-75391747D01*
X104922595Y-75582609D01*
X104864243Y-75787689D01*
X104844571Y-75999999D01*
X104150500Y-75999999D01*
X104150500Y-75434306D01*
X104147598Y-75397431D01*
X104146717Y-75394400D01*
X104101744Y-75239603D01*
X104018081Y-75098136D01*
X103901864Y-74981919D01*
X103901864Y-74981918D01*
X103760396Y-74898255D01*
X103602572Y-74852402D01*
X103568128Y-74849691D01*
X103568114Y-74849690D01*
X103565694Y-74849500D01*
X102434306Y-74849500D01*
X102431886Y-74849690D01*
X102431871Y-74849691D01*
X102397427Y-74852402D01*
X102239603Y-74898255D01*
X102098135Y-74981919D01*
X101981919Y-75098135D01*
X101898255Y-75239603D01*
X101852402Y-75397427D01*
X101849691Y-75431871D01*
X101849690Y-75431886D01*
X101849500Y-75434306D01*
X101849500Y-76565694D01*
X100100500Y-76565694D01*
X100100500Y-56000000D01*
X101844571Y-56000000D01*
X101864243Y-56212310D01*
X101922595Y-56417390D01*
X102017631Y-56608252D01*
X102146126Y-56778405D01*
X102146128Y-56778407D01*
X102303698Y-56922052D01*
X102484981Y-57034298D01*
X102683802Y-57111321D01*
X102893390Y-57150500D01*
X102893392Y-57150500D01*
X103106608Y-57150500D01*
X103106610Y-57150500D01*
X103316198Y-57111321D01*
X103515019Y-57034298D01*
X103696302Y-56922052D01*
X103853872Y-56778407D01*
X103982366Y-56608255D01*
X103982366Y-56608253D01*
X103982368Y-56608252D01*
X104036516Y-56499506D01*
X104077405Y-56417389D01*
X104135756Y-56212310D01*
X104155429Y-56000000D01*
X104844571Y-56000000D01*
X104864243Y-56212310D01*
X104922595Y-56417390D01*
X105017631Y-56608252D01*
X105146126Y-56778405D01*
X105146128Y-56778407D01*
X105303698Y-56922052D01*
X105484981Y-57034298D01*
X105683802Y-57111321D01*
X105893390Y-57150500D01*
X105893392Y-57150500D01*
X106106608Y-57150500D01*
X106106610Y-57150500D01*
X106316198Y-57111321D01*
X106515019Y-57034298D01*
X106696302Y-56922052D01*
X106853872Y-56778407D01*
X106982366Y-56608255D01*
X106982366Y-56608253D01*
X106982368Y-56608252D01*
X107036516Y-56499506D01*
X107077405Y-56417389D01*
X107135756Y-56212310D01*
X107155429Y-56000000D01*
X107137424Y-55805693D01*
X107135756Y-55787689D01*
X107084422Y-55607274D01*
X107077405Y-55582611D01*
X107038962Y-55505406D01*
X106982368Y-55391747D01*
X106853873Y-55221594D01*
X106696301Y-55077947D01*
X106584802Y-55008910D01*
X106515019Y-54965702D01*
X106515017Y-54965701D01*
X106316198Y-54888679D01*
X106316197Y-54888679D01*
X106106610Y-54849500D01*
X105893390Y-54849500D01*
X105757454Y-54874911D01*
X105683801Y-54888679D01*
X105484982Y-54965701D01*
X105303698Y-55077947D01*
X105146126Y-55221594D01*
X105017631Y-55391747D01*
X104922595Y-55582609D01*
X104864243Y-55787689D01*
X104844571Y-56000000D01*
X104155429Y-56000000D01*
X104137424Y-55805693D01*
X104135756Y-55787689D01*
X104084422Y-55607274D01*
X104077405Y-55582611D01*
X104038962Y-55505406D01*
X103982368Y-55391747D01*
X103853873Y-55221594D01*
X103696301Y-55077947D01*
X103584802Y-55008910D01*
X103515019Y-54965702D01*
X103515017Y-54965701D01*
X103316198Y-54888679D01*
X103316198Y-54888678D01*
X103106610Y-54849500D01*
X102893390Y-54849500D01*
X102757454Y-54874911D01*
X102683801Y-54888679D01*
X102484982Y-54965701D01*
X102303698Y-55077947D01*
X102146126Y-55221594D01*
X102017631Y-55391747D01*
X101922595Y-55582609D01*
X101864243Y-55787689D01*
X101844571Y-56000000D01*
X100100500Y-56000000D01*
X100100500Y-44002870D01*
X100100632Y-43997143D01*
X100100932Y-43990646D01*
X100116870Y-43645914D01*
X100117927Y-43634519D01*
X100166106Y-43289131D01*
X100168206Y-43277896D01*
X100248052Y-42938416D01*
X100251175Y-42927437D01*
X100362011Y-42596748D01*
X100366134Y-42586108D01*
X100507003Y-42267068D01*
X100512086Y-42256859D01*
X100681789Y-41952184D01*
X100687815Y-41942452D01*
X100745232Y-41858634D01*
X100884905Y-41654736D01*
X100891787Y-41645623D01*
X101114582Y-41377321D01*
X101122277Y-41368881D01*
X101368881Y-41122277D01*
X101377321Y-41114582D01*
X101645623Y-40891787D01*
X101654736Y-40884905D01*
X101942457Y-40687811D01*
X101952184Y-40681789D01*
X102256859Y-40512086D01*
X102267050Y-40507011D01*
X102360419Y-40465785D01*
X102429693Y-40456715D01*
X102492878Y-40486539D01*
X102529908Y-40545789D01*
X102534500Y-40579221D01*
X102534500Y-40947108D01*
X102514815Y-41014147D01*
X102502655Y-41030075D01*
X102502467Y-41030283D01*
X102407820Y-41194215D01*
X102349326Y-41374242D01*
X102349325Y-41374244D01*
X102349326Y-41374244D01*
X102334500Y-41515308D01*
X102334500Y-41518548D01*
X102334500Y-41518549D01*
X102334500Y-43416873D01*
X102332973Y-43436271D01*
X102330780Y-43450110D01*
X102334330Y-43517835D01*
X102334500Y-43524324D01*
X102334500Y-43544692D01*
X102334837Y-43547904D01*
X102334838Y-43547913D01*
X102336628Y-43564947D01*
X102337136Y-43571409D01*
X102340686Y-43639145D01*
X102344315Y-43652687D01*
X102347860Y-43671815D01*
X102349325Y-43685754D01*
X102370282Y-43750254D01*
X102372125Y-43756476D01*
X102389679Y-43821987D01*
X102396042Y-43834474D01*
X102403489Y-43852453D01*
X102407820Y-43865783D01*
X102441725Y-43924508D01*
X102444823Y-43930213D01*
X102475615Y-43990646D01*
X102475617Y-43990649D01*
X102484439Y-44001543D01*
X102495458Y-44017576D01*
X102502466Y-44029715D01*
X102547854Y-44080125D01*
X102552067Y-44085057D01*
X102564881Y-44100880D01*
X102567180Y-44103179D01*
X102579274Y-44115273D01*
X102583743Y-44119982D01*
X102629129Y-44170388D01*
X102640467Y-44178625D01*
X102655264Y-44191263D01*
X104596620Y-46132620D01*
X104596623Y-46132622D01*
X104596629Y-46132628D01*
X104638181Y-46174180D01*
X104671666Y-46235503D01*
X104674500Y-46261861D01*
X104674500Y-47981390D01*
X104674428Y-47985624D01*
X104672339Y-48046749D01*
X104681556Y-48084569D01*
X104683926Y-48097037D01*
X104686553Y-48116146D01*
X104689229Y-48135613D01*
X104695863Y-48150886D01*
X104702602Y-48170925D01*
X104706542Y-48187095D01*
X104725619Y-48221023D01*
X104731265Y-48232391D01*
X104746780Y-48268109D01*
X104757284Y-48281020D01*
X104769182Y-48298501D01*
X104777342Y-48313014D01*
X104804865Y-48340537D01*
X104813370Y-48349960D01*
X104837943Y-48380163D01*
X104837944Y-48380163D01*
X104837946Y-48380166D01*
X104851550Y-48389769D01*
X104867715Y-48403386D01*
X105072986Y-48608657D01*
X105106471Y-48669980D01*
X105108401Y-48681390D01*
X105110138Y-48695695D01*
X105166154Y-48843399D01*
X105255890Y-48973404D01*
X105255891Y-48973405D01*
X105255892Y-48973406D01*
X105374135Y-49078159D01*
X105514010Y-49151572D01*
X105667390Y-49189376D01*
X105825360Y-49189376D01*
X105978740Y-49151572D01*
X106118615Y-49078159D01*
X106236858Y-48973406D01*
X106326595Y-48843399D01*
X106382612Y-48695694D01*
X106401653Y-48538876D01*
X106382612Y-48382058D01*
X106326595Y-48234353D01*
X106259607Y-48137304D01*
X106236859Y-48104347D01*
X106214534Y-48084569D01*
X106118615Y-47999593D01*
X106083933Y-47981390D01*
X105978739Y-47926179D01*
X105877083Y-47901124D01*
X105819076Y-47868407D01*
X105761818Y-47811148D01*
X105728334Y-47749825D01*
X105725500Y-47723468D01*
X105725500Y-46261862D01*
X105745185Y-46194823D01*
X105761819Y-46174181D01*
X105833004Y-46102996D01*
X105903675Y-46032325D01*
X105903675Y-46032323D01*
X105913879Y-46022120D01*
X105913883Y-46022115D01*
X106135248Y-45800749D01*
X106196569Y-45767266D01*
X106266261Y-45772250D01*
X106322194Y-45814122D01*
X106338691Y-45843994D01*
X106353485Y-45882533D01*
X106393229Y-45986070D01*
X106393230Y-45986071D01*
X106496325Y-46144825D01*
X106630174Y-46278674D01*
X106678582Y-46310110D01*
X106788930Y-46381771D01*
X106922817Y-46433165D01*
X106965652Y-46449608D01*
X107152610Y-46479219D01*
X107152611Y-46479218D01*
X107152612Y-46479219D01*
X107341646Y-46469313D01*
X107524488Y-46420320D01*
X107693149Y-46334383D01*
X107803380Y-46245119D01*
X108597676Y-45450821D01*
X108658997Y-45417338D01*
X108728688Y-45422322D01*
X108784622Y-45464193D01*
X108795840Y-45482209D01*
X108825615Y-45540646D01*
X108825617Y-45540649D01*
X108834439Y-45551543D01*
X108845458Y-45567576D01*
X108852466Y-45579715D01*
X108897854Y-45630125D01*
X108902067Y-45635057D01*
X108914881Y-45650880D01*
X108917180Y-45653179D01*
X108929274Y-45665273D01*
X108933743Y-45669982D01*
X108943891Y-45681253D01*
X108979129Y-45720388D01*
X108988680Y-45727327D01*
X108990467Y-45728625D01*
X109005265Y-45741264D01*
X109382324Y-46118324D01*
X109415809Y-46179647D01*
X109410825Y-46249339D01*
X109410585Y-46249976D01*
X109362645Y-46376383D01*
X109360908Y-46390689D01*
X109333285Y-46454866D01*
X109325493Y-46463421D01*
X107326270Y-48462644D01*
X107323227Y-48465585D01*
X107278531Y-48507329D01*
X107258301Y-48540594D01*
X107251162Y-48551083D01*
X107227635Y-48582110D01*
X107221524Y-48597604D01*
X107212127Y-48616524D01*
X107203473Y-48630756D01*
X107192971Y-48668238D01*
X107188926Y-48680268D01*
X107174639Y-48716498D01*
X107172936Y-48733062D01*
X107168991Y-48753822D01*
X107164500Y-48769854D01*
X107164500Y-48808787D01*
X107163850Y-48821467D01*
X107159868Y-48860193D01*
X107162697Y-48876595D01*
X107164500Y-48897665D01*
X107164500Y-51088500D01*
X107144815Y-51155539D01*
X107092011Y-51201294D01*
X107040500Y-51212500D01*
X106919000Y-51212500D01*
X106851961Y-51192815D01*
X106806206Y-51140011D01*
X106795000Y-51088500D01*
X106795000Y-49587500D01*
X106794999Y-49587499D01*
X106713523Y-49587500D01*
X106619849Y-49602336D01*
X106506952Y-49659859D01*
X106498032Y-49668780D01*
X106436708Y-49702264D01*
X106367017Y-49697278D01*
X106322674Y-49668780D01*
X106313344Y-49659451D01*
X106200302Y-49601853D01*
X106106521Y-49587000D01*
X105443485Y-49587000D01*
X105396589Y-49594427D01*
X105349696Y-49601854D01*
X105349694Y-49601854D01*
X105349693Y-49601855D01*
X105236657Y-49659449D01*
X105227681Y-49668426D01*
X105166358Y-49701911D01*
X105096666Y-49696927D01*
X105052319Y-49668426D01*
X105043343Y-49659450D01*
X104930302Y-49601853D01*
X104836521Y-49587000D01*
X104173485Y-49587000D01*
X104126588Y-49594427D01*
X104079696Y-49601854D01*
X104079694Y-49601854D01*
X104079693Y-49601855D01*
X103966657Y-49659449D01*
X103957681Y-49668426D01*
X103896358Y-49701911D01*
X103826666Y-49696927D01*
X103782319Y-49668426D01*
X103773343Y-49659450D01*
X103660302Y-49601853D01*
X103566521Y-49587000D01*
X102903485Y-49587000D01*
X102856588Y-49594427D01*
X102809696Y-49601854D01*
X102809694Y-49601854D01*
X102809693Y-49601855D01*
X102696657Y-49659449D01*
X102606950Y-49749156D01*
X102549353Y-49862197D01*
X102534500Y-49955978D01*
X102534500Y-50188000D01*
X102514815Y-50255039D01*
X102462011Y-50300794D01*
X102435193Y-50306627D01*
X102435630Y-50308398D01*
X102387978Y-50320141D01*
X102373852Y-50322765D01*
X102336940Y-50327428D01*
X102309340Y-50338356D01*
X102293373Y-50343459D01*
X102267638Y-50349802D01*
X102234188Y-50367358D01*
X102222214Y-50372851D01*
X102184130Y-50387930D01*
X102163153Y-50403171D01*
X102147899Y-50412646D01*
X102127760Y-50423216D01*
X102096675Y-50450754D01*
X102087339Y-50458252D01*
X102051162Y-50484537D01*
X102037033Y-50501615D01*
X102023725Y-50515381D01*
X102009515Y-50527970D01*
X101983794Y-50565233D01*
X101977292Y-50573828D01*
X101946400Y-50611172D01*
X101938567Y-50627818D01*
X101928423Y-50645453D01*
X101919781Y-50657974D01*
X101902391Y-50703825D01*
X101898649Y-50712646D01*
X101876421Y-50759884D01*
X101873680Y-50774252D01*
X101867822Y-50794977D01*
X101863762Y-50805684D01*
X101857397Y-50858089D01*
X101856106Y-50866370D01*
X101845623Y-50921327D01*
X101846305Y-50932161D01*
X101845645Y-50954885D01*
X101844720Y-50962497D01*
X101851535Y-51018624D01*
X101852194Y-51025780D01*
X101855943Y-51085361D01*
X101858131Y-51092095D01*
X101863293Y-51115451D01*
X101863762Y-51119315D01*
X101863762Y-51119317D01*
X101863763Y-51119318D01*
X101877499Y-51155539D01*
X101885133Y-51175667D01*
X101887120Y-51181317D01*
X101906731Y-51241671D01*
X101908502Y-51244462D01*
X101919738Y-51266913D01*
X101919779Y-51267022D01*
X101956157Y-51319724D01*
X101958786Y-51323696D01*
X101994798Y-51380440D01*
X101994995Y-51380750D01*
X102007351Y-51395112D01*
X102032153Y-51417084D01*
X102060276Y-51441999D01*
X102062867Y-51444362D01*
X102114607Y-51492948D01*
X102114608Y-51492949D01*
X102117089Y-51495278D01*
X102122116Y-51498821D01*
X102192148Y-51535577D01*
X102261435Y-51573668D01*
X102341303Y-51593353D01*
X102433003Y-51616898D01*
X102432355Y-51619417D01*
X102477540Y-51632685D01*
X102523295Y-51685489D01*
X102534501Y-51736999D01*
X102534501Y-51969018D01*
X102549354Y-52062804D01*
X102549354Y-52062805D01*
X102549355Y-52062806D01*
X102606949Y-52175842D01*
X102696656Y-52265549D01*
X102696658Y-52265550D01*
X102809696Y-52323146D01*
X102903481Y-52338000D01*
X103566518Y-52337999D01*
X103660304Y-52323146D01*
X103773342Y-52265550D01*
X103782316Y-52256574D01*
X103843639Y-52223088D01*
X103913331Y-52228071D01*
X103957683Y-52256575D01*
X103966658Y-52265550D01*
X104079696Y-52323146D01*
X104173481Y-52338000D01*
X104836518Y-52337999D01*
X104930304Y-52323146D01*
X105043342Y-52265550D01*
X105052316Y-52256575D01*
X105113639Y-52223088D01*
X105183331Y-52228071D01*
X105227683Y-52256575D01*
X105236658Y-52265550D01*
X105349696Y-52323146D01*
X105443481Y-52338000D01*
X106106518Y-52337999D01*
X106200304Y-52323146D01*
X106219511Y-52313359D01*
X106288176Y-52300463D01*
X106352917Y-52326738D01*
X106393175Y-52383844D01*
X106396169Y-52453649D01*
X106365999Y-52508937D01*
X106330676Y-52546377D01*
X106242491Y-52699120D01*
X106191905Y-52868092D01*
X106181648Y-53044168D01*
X106198574Y-53140156D01*
X106212277Y-53217866D01*
X106269274Y-53350000D01*
X106282136Y-53379818D01*
X106387461Y-53521294D01*
X106522570Y-53634665D01*
X106522571Y-53634665D01*
X106522573Y-53634667D01*
X106680189Y-53713824D01*
X106680190Y-53713824D01*
X106680192Y-53713825D01*
X106851810Y-53754500D01*
X106851812Y-53754500D01*
X106980342Y-53754500D01*
X106983941Y-53754500D01*
X107115184Y-53739160D01*
X107280924Y-53678836D01*
X107282358Y-53677892D01*
X107289531Y-53675703D01*
X107294544Y-53673879D01*
X107294640Y-53674144D01*
X107349184Y-53657498D01*
X107416429Y-53676470D01*
X107462741Y-53728786D01*
X107474500Y-53781491D01*
X107474500Y-56730968D01*
X107454815Y-56798007D01*
X107438181Y-56818649D01*
X106406186Y-57850643D01*
X106344863Y-57884128D01*
X106295720Y-57884851D01*
X106106610Y-57849500D01*
X105893390Y-57849500D01*
X105808130Y-57865438D01*
X105683801Y-57888679D01*
X105484982Y-57965701D01*
X105303698Y-58077947D01*
X105146126Y-58221594D01*
X105017631Y-58391747D01*
X104922595Y-58582609D01*
X104864243Y-58787689D01*
X104844571Y-58999999D01*
X104864243Y-59212310D01*
X104922595Y-59417390D01*
X105017631Y-59608252D01*
X105146126Y-59778405D01*
X105146128Y-59778407D01*
X105303698Y-59922052D01*
X105484981Y-60034298D01*
X105683802Y-60111321D01*
X105893390Y-60150500D01*
X105893392Y-60150500D01*
X106106611Y-60150500D01*
X106146783Y-60142990D01*
X106216298Y-60150020D01*
X106257251Y-60177197D01*
X107313180Y-61233126D01*
X107346665Y-61294449D01*
X107349499Y-61320807D01*
X107349499Y-61649996D01*
X107329814Y-61717035D01*
X107277010Y-61762790D01*
X107207852Y-61772734D01*
X107144296Y-61743709D01*
X107106522Y-61684931D01*
X107106233Y-61683930D01*
X107102008Y-61669082D01*
X107093288Y-61638433D01*
X107077405Y-61582610D01*
X106982368Y-61391747D01*
X106853873Y-61221594D01*
X106789050Y-61162500D01*
X106696302Y-61077948D01*
X106696301Y-61077947D01*
X106553932Y-60989796D01*
X106515019Y-60965702D01*
X106515017Y-60965701D01*
X106316198Y-60888679D01*
X106297571Y-60885197D01*
X106106610Y-60849500D01*
X105893390Y-60849500D01*
X105753664Y-60875619D01*
X105683801Y-60888679D01*
X105484979Y-60965702D01*
X105339777Y-61055608D01*
X105272417Y-61074163D01*
X105205717Y-61053355D01*
X105160856Y-60999790D01*
X105150500Y-60950181D01*
X105150500Y-60585502D01*
X105152841Y-60564299D01*
X105152759Y-60561705D01*
X105152760Y-60561703D01*
X105150561Y-60491735D01*
X105150500Y-60487840D01*
X105150500Y-60462976D01*
X105150500Y-60459075D01*
X105149948Y-60454709D01*
X105149030Y-60443055D01*
X105149002Y-60442162D01*
X105147597Y-60397430D01*
X105141675Y-60377047D01*
X105137732Y-60358010D01*
X105135071Y-60336942D01*
X105118266Y-60294498D01*
X105114481Y-60283444D01*
X105101744Y-60239602D01*
X105101744Y-60239601D01*
X105090934Y-60221322D01*
X105082380Y-60203862D01*
X105074568Y-60184129D01*
X105047723Y-60147180D01*
X105041332Y-60137451D01*
X105018081Y-60098135D01*
X105003068Y-60083122D01*
X104990435Y-60068330D01*
X104977963Y-60051163D01*
X104942779Y-60022056D01*
X104934140Y-60014194D01*
X104176619Y-59256673D01*
X104143134Y-59195350D01*
X104140829Y-59157557D01*
X104155429Y-59000000D01*
X104137578Y-58807361D01*
X104135756Y-58787689D01*
X104077404Y-58582609D01*
X103982368Y-58391747D01*
X103853873Y-58221594D01*
X103696301Y-58077947D01*
X103551637Y-57988375D01*
X103515019Y-57965702D01*
X103515017Y-57965701D01*
X103316198Y-57888679D01*
X103291852Y-57884128D01*
X103106610Y-57849500D01*
X102893390Y-57849500D01*
X102808130Y-57865438D01*
X102683801Y-57888679D01*
X102484982Y-57965701D01*
X102303698Y-58077947D01*
X102146126Y-58221594D01*
X102017631Y-58391747D01*
X101922595Y-58582609D01*
X101864243Y-58787689D01*
X101844571Y-58999999D01*
X101864243Y-59212310D01*
X101922595Y-59417390D01*
X102017631Y-59608252D01*
X102146126Y-59778405D01*
X102146128Y-59778407D01*
X102303698Y-59922052D01*
X102484981Y-60034298D01*
X102683802Y-60111321D01*
X102893390Y-60150500D01*
X102893392Y-60150500D01*
X103106611Y-60150500D01*
X103146783Y-60142990D01*
X103216298Y-60150020D01*
X103257251Y-60177197D01*
X103726047Y-60645993D01*
X103759532Y-60707316D01*
X103754548Y-60777008D01*
X103712676Y-60832941D01*
X103647212Y-60857358D01*
X103603776Y-60852752D01*
X103602572Y-60852402D01*
X103568128Y-60849691D01*
X103568114Y-60849690D01*
X103565694Y-60849500D01*
X102434306Y-60849500D01*
X102431886Y-60849690D01*
X102431871Y-60849691D01*
X102397427Y-60852402D01*
X102239603Y-60898255D01*
X102098135Y-60981919D01*
X101981919Y-61098135D01*
X101898255Y-61239603D01*
X101852402Y-61397427D01*
X101849691Y-61431871D01*
X101849690Y-61431886D01*
X101849500Y-61434306D01*
X101849500Y-62565694D01*
X101849690Y-62568114D01*
X101849691Y-62568128D01*
X101852402Y-62602572D01*
X101898255Y-62760396D01*
X101935852Y-62823969D01*
X101981919Y-62901864D01*
X102098136Y-63018081D01*
X102128901Y-63036275D01*
X102239603Y-63101744D01*
X102397427Y-63147597D01*
X102397431Y-63147598D01*
X102434306Y-63150500D01*
X102436751Y-63150500D01*
X103563249Y-63150500D01*
X103565694Y-63150500D01*
X103602569Y-63147598D01*
X103690903Y-63121934D01*
X103760773Y-63122133D01*
X103819443Y-63160074D01*
X103848287Y-63223713D01*
X103849499Y-63241010D01*
X103849499Y-68950180D01*
X103829814Y-69017219D01*
X103777010Y-69062974D01*
X103707852Y-69072918D01*
X103660222Y-69055607D01*
X103515020Y-68965702D01*
X103316198Y-68888679D01*
X103316198Y-68888678D01*
X103106610Y-68849500D01*
X102893390Y-68849500D01*
X102753664Y-68875619D01*
X102683801Y-68888679D01*
X102484982Y-68965701D01*
X102303698Y-69077947D01*
X102146126Y-69221594D01*
X102017631Y-69391747D01*
X101922595Y-69582609D01*
X101864243Y-69787689D01*
X101844571Y-70000000D01*
X101864243Y-70212310D01*
X101922595Y-70417390D01*
X102017631Y-70608252D01*
X102137417Y-70766872D01*
X102146128Y-70778407D01*
X102303698Y-70922052D01*
X102484981Y-71034298D01*
X102683802Y-71111321D01*
X102893390Y-71150500D01*
X102893392Y-71150500D01*
X103106608Y-71150500D01*
X103106610Y-71150500D01*
X103316198Y-71111321D01*
X103515019Y-71034298D01*
X103660222Y-70944391D01*
X103727581Y-70925835D01*
X103794281Y-70946643D01*
X103839142Y-71000208D01*
X103849499Y-71049818D01*
X103849499Y-71179192D01*
X103829814Y-71246231D01*
X103813180Y-71266873D01*
X103257250Y-71822802D01*
X103195927Y-71856287D01*
X103146785Y-71857010D01*
X103106610Y-71849500D01*
X102893390Y-71849500D01*
X102788968Y-71869020D01*
X102683801Y-71888679D01*
X102484982Y-71965701D01*
X102303698Y-72077947D01*
X102146126Y-72221594D01*
X102017631Y-72391747D01*
X101922595Y-72582609D01*
X101864243Y-72787689D01*
X101844571Y-72999999D01*
X101864243Y-73212310D01*
X101922595Y-73417390D01*
X102017631Y-73608252D01*
X102146126Y-73778405D01*
X102146128Y-73778407D01*
X102303698Y-73922052D01*
X102484981Y-74034298D01*
X102683802Y-74111321D01*
X102893390Y-74150500D01*
X102893392Y-74150500D01*
X103106608Y-74150500D01*
X103106610Y-74150500D01*
X103316198Y-74111321D01*
X103515019Y-74034298D01*
X103696302Y-73922052D01*
X103853872Y-73778407D01*
X103982366Y-73608255D01*
X103982366Y-73608253D01*
X103982368Y-73608252D01*
X104074666Y-73422889D01*
X104077405Y-73417389D01*
X104135756Y-73212310D01*
X104155429Y-73000000D01*
X104141506Y-72849747D01*
X104140830Y-72842446D01*
X104154245Y-72773876D01*
X104176617Y-72743327D01*
X104899513Y-72020431D01*
X104916162Y-72007094D01*
X104917936Y-72005204D01*
X104917940Y-72005202D01*
X104965897Y-71954131D01*
X104968515Y-71951429D01*
X104988911Y-71931035D01*
X104991610Y-71927554D01*
X104999184Y-71918685D01*
X105030448Y-71885393D01*
X105040675Y-71866787D01*
X105051348Y-71850539D01*
X105064362Y-71833764D01*
X105082495Y-71791857D01*
X105087625Y-71781387D01*
X105109627Y-71741368D01*
X105114903Y-71720813D01*
X105121206Y-71702402D01*
X105129635Y-71682927D01*
X105136777Y-71637825D01*
X105139140Y-71626418D01*
X105150500Y-71582177D01*
X105150500Y-71560948D01*
X105152027Y-71541548D01*
X105155346Y-71520595D01*
X105151050Y-71475147D01*
X105150500Y-71463478D01*
X105150500Y-71049818D01*
X105170185Y-70982779D01*
X105222989Y-70937024D01*
X105292147Y-70927080D01*
X105339774Y-70944389D01*
X105484981Y-71034298D01*
X105683802Y-71111321D01*
X105893390Y-71150500D01*
X105893392Y-71150500D01*
X106106608Y-71150500D01*
X106106610Y-71150500D01*
X106316198Y-71111321D01*
X106515019Y-71034298D01*
X106696302Y-70922052D01*
X106853872Y-70778407D01*
X106982366Y-70608255D01*
X106982366Y-70608253D01*
X106982368Y-70608252D01*
X107073366Y-70425500D01*
X107077405Y-70417389D01*
X107106234Y-70316064D01*
X107143512Y-70256976D01*
X107206821Y-70227418D01*
X107276061Y-70236780D01*
X107329247Y-70282089D01*
X107349495Y-70348961D01*
X107349499Y-70350003D01*
X107349500Y-70679191D01*
X107329816Y-70746230D01*
X107313181Y-70766872D01*
X106257250Y-71822802D01*
X106195927Y-71856287D01*
X106146785Y-71857010D01*
X106106610Y-71849500D01*
X105893390Y-71849500D01*
X105788968Y-71869020D01*
X105683801Y-71888679D01*
X105484982Y-71965701D01*
X105303698Y-72077947D01*
X105146126Y-72221594D01*
X105017631Y-72391747D01*
X104922595Y-72582609D01*
X104864243Y-72787689D01*
X104844571Y-72999999D01*
X104864243Y-73212310D01*
X104922595Y-73417390D01*
X105017631Y-73608252D01*
X105146126Y-73778405D01*
X105146128Y-73778407D01*
X105303698Y-73922052D01*
X105484981Y-74034298D01*
X105683802Y-74111321D01*
X105893390Y-74150500D01*
X105893392Y-74150500D01*
X106106608Y-74150500D01*
X106106610Y-74150500D01*
X106316198Y-74111321D01*
X106515019Y-74034298D01*
X106696302Y-73922052D01*
X106853872Y-73778407D01*
X106982366Y-73608255D01*
X106982366Y-73608253D01*
X106982368Y-73608252D01*
X107074666Y-73422889D01*
X107077405Y-73417389D01*
X107135756Y-73212310D01*
X107155429Y-73000000D01*
X107141506Y-72849747D01*
X107140830Y-72842446D01*
X107154245Y-72773876D01*
X107176617Y-72743327D01*
X108069944Y-71850000D01*
X109550000Y-71850000D01*
X109550000Y-72138196D01*
X109550191Y-72143076D01*
X109552900Y-72177493D01*
X109598717Y-72335197D01*
X109682317Y-72476557D01*
X109798442Y-72592682D01*
X109939802Y-72676282D01*
X110097506Y-72722099D01*
X110131923Y-72724808D01*
X110136803Y-72725000D01*
X110200000Y-72725000D01*
X110200000Y-71850000D01*
X109550000Y-71850000D01*
X108069944Y-71850000D01*
X108399513Y-71520431D01*
X108416162Y-71507094D01*
X108417936Y-71505204D01*
X108417940Y-71505202D01*
X108465897Y-71454131D01*
X108468515Y-71451429D01*
X108488911Y-71431035D01*
X108491610Y-71427554D01*
X108499184Y-71418685D01*
X108530448Y-71385393D01*
X108540675Y-71366787D01*
X108551348Y-71350539D01*
X108551766Y-71350000D01*
X109550000Y-71350000D01*
X110200000Y-71350000D01*
X110200000Y-70475000D01*
X110136803Y-70475000D01*
X110131923Y-70475191D01*
X110097506Y-70477900D01*
X109939802Y-70523717D01*
X109798442Y-70607317D01*
X109682317Y-70723442D01*
X109598717Y-70864802D01*
X109552900Y-71022506D01*
X109550191Y-71056923D01*
X109550000Y-71061803D01*
X109550000Y-71350000D01*
X108551766Y-71350000D01*
X108564362Y-71333764D01*
X108582491Y-71291868D01*
X108587631Y-71281377D01*
X108606953Y-71246231D01*
X108609627Y-71241368D01*
X108614906Y-71220805D01*
X108621207Y-71202398D01*
X108629635Y-71182926D01*
X108636777Y-71137828D01*
X108639141Y-71126413D01*
X108650500Y-71082177D01*
X108650500Y-71060948D01*
X108652027Y-71041548D01*
X108652558Y-71038196D01*
X108655346Y-71020595D01*
X108651050Y-70975147D01*
X108650500Y-70963478D01*
X108650500Y-61085502D01*
X108652841Y-61064299D01*
X108652759Y-61061705D01*
X108652760Y-61061703D01*
X108650561Y-60991736D01*
X108650500Y-60987841D01*
X108650500Y-60962976D01*
X108650500Y-60959075D01*
X108649948Y-60954709D01*
X108649030Y-60943055D01*
X108647597Y-60897431D01*
X108641675Y-60877048D01*
X108637732Y-60858011D01*
X108635071Y-60836942D01*
X108618264Y-60794492D01*
X108614483Y-60783448D01*
X108601745Y-60739604D01*
X108601744Y-60739603D01*
X108601744Y-60739601D01*
X108590934Y-60721322D01*
X108582380Y-60703862D01*
X108574568Y-60684129D01*
X108547723Y-60647180D01*
X108541332Y-60637451D01*
X108518081Y-60598135D01*
X108503068Y-60583122D01*
X108490435Y-60568330D01*
X108487506Y-60564299D01*
X108477963Y-60551163D01*
X108477962Y-60551163D01*
X108442779Y-60522056D01*
X108434140Y-60514194D01*
X107176619Y-59256673D01*
X107143134Y-59195350D01*
X107140829Y-59157557D01*
X107155429Y-59000000D01*
X107135756Y-58787690D01*
X107115765Y-58717431D01*
X107116351Y-58647567D01*
X107147348Y-58595819D01*
X108363754Y-57379413D01*
X108366740Y-57376527D01*
X108411469Y-57334755D01*
X108431697Y-57301490D01*
X108438833Y-57291004D01*
X108462364Y-57259975D01*
X108468475Y-57244477D01*
X108477876Y-57225552D01*
X108486526Y-57211328D01*
X108497030Y-57173835D01*
X108501071Y-57161818D01*
X108515359Y-57125589D01*
X108517061Y-57109027D01*
X108521008Y-57088256D01*
X108525500Y-57072228D01*
X108525500Y-57033296D01*
X108526150Y-57020615D01*
X108530131Y-56981890D01*
X108527697Y-56967771D01*
X108527302Y-56965486D01*
X108525500Y-56944419D01*
X108525500Y-52583609D01*
X108525572Y-52579375D01*
X108526208Y-52560760D01*
X108527660Y-52518255D01*
X108521105Y-52491357D01*
X108524356Y-52421567D01*
X108564824Y-52364610D01*
X108629661Y-52338573D01*
X108641579Y-52337999D01*
X108646514Y-52337999D01*
X108646518Y-52337999D01*
X108740304Y-52323146D01*
X108853342Y-52265550D01*
X108862316Y-52256574D01*
X108923639Y-52223088D01*
X108993331Y-52228071D01*
X109037683Y-52256575D01*
X109046658Y-52265550D01*
X109152962Y-52319715D01*
X109184348Y-52342518D01*
X109189865Y-52348035D01*
X109198371Y-52357459D01*
X109219837Y-52383844D01*
X109222946Y-52387665D01*
X109229447Y-52392254D01*
X109236540Y-52397260D01*
X109252715Y-52410885D01*
X109329857Y-52488027D01*
X109363342Y-52549350D01*
X109365272Y-52560760D01*
X109367009Y-52575065D01*
X109423025Y-52722769D01*
X109512761Y-52852774D01*
X109512762Y-52852775D01*
X109512763Y-52852776D01*
X109631006Y-52957529D01*
X109770881Y-53030942D01*
X109924261Y-53068746D01*
X110082231Y-53068746D01*
X110235611Y-53030942D01*
X110375486Y-52957529D01*
X110493729Y-52852776D01*
X110502921Y-52839458D01*
X110557198Y-52795470D01*
X110626646Y-52787807D01*
X110689212Y-52818908D01*
X110692651Y-52822217D01*
X111438411Y-53567977D01*
X112100936Y-54230501D01*
X112134421Y-54291824D01*
X112129437Y-54361516D01*
X112087565Y-54417449D01*
X112041068Y-54434985D01*
X112041866Y-54437730D01*
X111873354Y-54486687D01*
X111733245Y-54569547D01*
X111618147Y-54684645D01*
X111544232Y-54809630D01*
X111493163Y-54857314D01*
X111424421Y-54869817D01*
X111359832Y-54843172D01*
X111330768Y-54809630D01*
X111256852Y-54684645D01*
X111141754Y-54569547D01*
X111001645Y-54486687D01*
X110845337Y-54441275D01*
X110811238Y-54438591D01*
X110811223Y-54438590D01*
X110808804Y-54438400D01*
X110191196Y-54438400D01*
X110188777Y-54438590D01*
X110188761Y-54438591D01*
X110154662Y-54441275D01*
X109998354Y-54486687D01*
X109858245Y-54569547D01*
X109743147Y-54684645D01*
X109660287Y-54824754D01*
X109614875Y-54981062D01*
X109612191Y-55015161D01*
X109612190Y-55015177D01*
X109612000Y-55017596D01*
X109612000Y-56060204D01*
X109612190Y-56062623D01*
X109612191Y-56062638D01*
X109614875Y-56096737D01*
X109660287Y-56253045D01*
X109743147Y-56393154D01*
X109813180Y-56463187D01*
X109846665Y-56524510D01*
X109849499Y-56550868D01*
X109849500Y-57257480D01*
X109829816Y-57324519D01*
X109813182Y-57345160D01*
X109743147Y-57415195D01*
X109660287Y-57555304D01*
X109614875Y-57711612D01*
X109612191Y-57745711D01*
X109612190Y-57745727D01*
X109612000Y-57748146D01*
X109612000Y-58790754D01*
X109612190Y-58793173D01*
X109612191Y-58793188D01*
X109614875Y-58827287D01*
X109660287Y-58983595D01*
X109743147Y-59123704D01*
X109813180Y-59193737D01*
X109846665Y-59255060D01*
X109849499Y-59281418D01*
X109849500Y-59988030D01*
X109829816Y-60055069D01*
X109813182Y-60075710D01*
X109743147Y-60145745D01*
X109660287Y-60285854D01*
X109614875Y-60442162D01*
X109612191Y-60476261D01*
X109612190Y-60476277D01*
X109612000Y-60478696D01*
X109612000Y-61521304D01*
X109612190Y-61523723D01*
X109612191Y-61523738D01*
X109614875Y-61557837D01*
X109660287Y-61714145D01*
X109743145Y-61854251D01*
X109743146Y-61854252D01*
X109743147Y-61854253D01*
X109813182Y-61924288D01*
X109846666Y-61985609D01*
X109849500Y-62011968D01*
X109849500Y-62718581D01*
X109829815Y-62785620D01*
X109813181Y-62806262D01*
X109743147Y-62876295D01*
X109660287Y-63016404D01*
X109614875Y-63172712D01*
X109612191Y-63206811D01*
X109612190Y-63206827D01*
X109612000Y-63209246D01*
X109612000Y-64251854D01*
X109612190Y-64254273D01*
X109612191Y-64254288D01*
X109614875Y-64288387D01*
X109660287Y-64444695D01*
X109743147Y-64584804D01*
X109813180Y-64654837D01*
X109846665Y-64716160D01*
X109849499Y-64742518D01*
X109849499Y-65488030D01*
X109829814Y-65555069D01*
X109813182Y-65575710D01*
X109743146Y-65645748D01*
X109660287Y-65785854D01*
X109614875Y-65942162D01*
X109612191Y-65976261D01*
X109612190Y-65976277D01*
X109612000Y-65978696D01*
X109612000Y-65981141D01*
X109612000Y-66327374D01*
X109611321Y-66340335D01*
X109599838Y-66449586D01*
X109599837Y-66449598D01*
X109599500Y-66452808D01*
X109599500Y-66456029D01*
X109599499Y-66456049D01*
X109599499Y-67075447D01*
X109599500Y-67075466D01*
X109599500Y-67078689D01*
X109599837Y-67081901D01*
X109599838Y-67081908D01*
X109614326Y-67219754D01*
X109672820Y-67399781D01*
X109767466Y-67563713D01*
X109894127Y-67704384D01*
X110030145Y-67803207D01*
X110072810Y-67858537D01*
X110078789Y-67928151D01*
X110046183Y-67989946D01*
X109991856Y-68022601D01*
X109989601Y-68023255D01*
X109848134Y-68106919D01*
X109731919Y-68223134D01*
X109648255Y-68364602D01*
X109602402Y-68522427D01*
X109599691Y-68556871D01*
X109599690Y-68556886D01*
X109599500Y-68559306D01*
X109599500Y-68561751D01*
X109599500Y-68629944D01*
X109579815Y-68696983D01*
X109557727Y-68722759D01*
X109509518Y-68765468D01*
X109419780Y-68895476D01*
X109363763Y-69043181D01*
X109344721Y-69200000D01*
X109363763Y-69356818D01*
X109419780Y-69504523D01*
X109509517Y-69634531D01*
X109590913Y-69706641D01*
X109627762Y-69764860D01*
X109648255Y-69835397D01*
X109724666Y-69964601D01*
X109731919Y-69976865D01*
X109848135Y-70093081D01*
X109895305Y-70120977D01*
X109989602Y-70176744D01*
X110147427Y-70222597D01*
X110147431Y-70222598D01*
X110184306Y-70225500D01*
X110186751Y-70225500D01*
X110813249Y-70225500D01*
X110815694Y-70225500D01*
X110852569Y-70222598D01*
X111010398Y-70176744D01*
X111151865Y-70093081D01*
X111237822Y-70007123D01*
X111299141Y-69973641D01*
X111368833Y-69978625D01*
X111424767Y-70020496D01*
X111449184Y-70085960D01*
X111449500Y-70094807D01*
X111449500Y-70662156D01*
X111429815Y-70729195D01*
X111377011Y-70774950D01*
X111307853Y-70784894D01*
X111244297Y-70755869D01*
X111218770Y-70725280D01*
X111217684Y-70723444D01*
X111101557Y-70607317D01*
X110960197Y-70523717D01*
X110802493Y-70477900D01*
X110768076Y-70475191D01*
X110763197Y-70475000D01*
X110700000Y-70475000D01*
X110699999Y-72725000D01*
X110763197Y-72725000D01*
X110768076Y-72724808D01*
X110802493Y-72722099D01*
X110960197Y-72676282D01*
X111101557Y-72592682D01*
X111217682Y-72476557D01*
X111218768Y-72474722D01*
X111269837Y-72427039D01*
X111338579Y-72414535D01*
X111403168Y-72441180D01*
X111443098Y-72498516D01*
X111449500Y-72537843D01*
X111449500Y-72797192D01*
X111449837Y-72800404D01*
X111449838Y-72800411D01*
X111464326Y-72938257D01*
X111522820Y-73118284D01*
X111617466Y-73282216D01*
X111744129Y-73422889D01*
X111897269Y-73534151D01*
X112070197Y-73611144D01*
X112255352Y-73650500D01*
X112255354Y-73650500D01*
X112444648Y-73650500D01*
X112568083Y-73624262D01*
X112629803Y-73611144D01*
X112802730Y-73534151D01*
X112853271Y-73497431D01*
X112955870Y-73422889D01*
X112976480Y-73400000D01*
X113082533Y-73282216D01*
X113177179Y-73118284D01*
X113235674Y-72938256D01*
X113250500Y-72797192D01*
X113250500Y-69857327D01*
X113255424Y-69822732D01*
X113297597Y-69677572D01*
X113297596Y-69677572D01*
X113297598Y-69677569D01*
X113300500Y-69640694D01*
X113300500Y-68559306D01*
X113297598Y-68522431D01*
X113251744Y-68364602D01*
X113168081Y-68223135D01*
X113051865Y-68106919D01*
X112910397Y-68023255D01*
X112752572Y-67977402D01*
X112718128Y-67974691D01*
X112718114Y-67974690D01*
X112715694Y-67974500D01*
X112713249Y-67974500D01*
X112245808Y-67974500D01*
X112178769Y-67954815D01*
X112158127Y-67938181D01*
X112032127Y-67812181D01*
X111998642Y-67750858D01*
X112003626Y-67681166D01*
X112045498Y-67625233D01*
X112110962Y-67600816D01*
X112119808Y-67600500D01*
X112681359Y-67600500D01*
X112683804Y-67600500D01*
X112720334Y-67597625D01*
X112876646Y-67552212D01*
X113016753Y-67469353D01*
X113131853Y-67354253D01*
X113214712Y-67214146D01*
X113260125Y-67057834D01*
X113263000Y-67021304D01*
X113263000Y-65978696D01*
X113260125Y-65942166D01*
X113233493Y-65850500D01*
X113214712Y-65785854D01*
X113131852Y-65645745D01*
X113016754Y-65530647D01*
X112876645Y-65447787D01*
X112720337Y-65402375D01*
X112686238Y-65399691D01*
X112686223Y-65399690D01*
X112683804Y-65399500D01*
X112066196Y-65399500D01*
X112063777Y-65399690D01*
X112063761Y-65399691D01*
X112029662Y-65402375D01*
X111873354Y-65447787D01*
X111733245Y-65530647D01*
X111618147Y-65645745D01*
X111544232Y-65770730D01*
X111493163Y-65818414D01*
X111424421Y-65830917D01*
X111359832Y-65804272D01*
X111330768Y-65770730D01*
X111256852Y-65645745D01*
X111186819Y-65575712D01*
X111153334Y-65514389D01*
X111150500Y-65488031D01*
X111150500Y-64742518D01*
X111170185Y-64675479D01*
X111186819Y-64654836D01*
X111199937Y-64641718D01*
X111256853Y-64584803D01*
X111330768Y-64459818D01*
X111381837Y-64412136D01*
X111450578Y-64399632D01*
X111515168Y-64426277D01*
X111544232Y-64459819D01*
X111618147Y-64584804D01*
X111733245Y-64699902D01*
X111873354Y-64782762D01*
X112029662Y-64828174D01*
X112029666Y-64828175D01*
X112066196Y-64831050D01*
X112068641Y-64831050D01*
X112681359Y-64831050D01*
X112683804Y-64831050D01*
X112720334Y-64828175D01*
X112876646Y-64782762D01*
X113016753Y-64699903D01*
X113131853Y-64584803D01*
X113214712Y-64444696D01*
X113260125Y-64288384D01*
X113263000Y-64251854D01*
X113263000Y-63209246D01*
X113260125Y-63172716D01*
X113245371Y-63121934D01*
X113214712Y-63016404D01*
X113131852Y-62876295D01*
X113016754Y-62761197D01*
X112876645Y-62678337D01*
X112720337Y-62632925D01*
X112686238Y-62630241D01*
X112686223Y-62630240D01*
X112683804Y-62630050D01*
X112066196Y-62630050D01*
X112063777Y-62630240D01*
X112063761Y-62630241D01*
X112029662Y-62632925D01*
X111873354Y-62678337D01*
X111733245Y-62761197D01*
X111618147Y-62876295D01*
X111544232Y-63001280D01*
X111493163Y-63048964D01*
X111424421Y-63061467D01*
X111359832Y-63034822D01*
X111330768Y-63001280D01*
X111256854Y-62876298D01*
X111223737Y-62843181D01*
X111186816Y-62806260D01*
X111153333Y-62744940D01*
X111150500Y-62718590D01*
X111150500Y-62011964D01*
X111170184Y-61944929D01*
X111186814Y-61924291D01*
X111256853Y-61854253D01*
X111330768Y-61729268D01*
X111381837Y-61681586D01*
X111450578Y-61669082D01*
X111515168Y-61695727D01*
X111544231Y-61729267D01*
X111557089Y-61751009D01*
X111618147Y-61854254D01*
X111733245Y-61969352D01*
X111873354Y-62052212D01*
X112029662Y-62097624D01*
X112029666Y-62097625D01*
X112066196Y-62100500D01*
X112068641Y-62100500D01*
X112681359Y-62100500D01*
X112683804Y-62100500D01*
X112720334Y-62097625D01*
X112876646Y-62052212D01*
X113016753Y-61969353D01*
X113131853Y-61854253D01*
X113214712Y-61714146D01*
X113260125Y-61557834D01*
X113263000Y-61521304D01*
X113263000Y-60478696D01*
X113260125Y-60442166D01*
X113258486Y-60436526D01*
X113214712Y-60285854D01*
X113131852Y-60145745D01*
X113016754Y-60030647D01*
X112876645Y-59947787D01*
X112720337Y-59902375D01*
X112686238Y-59899691D01*
X112686223Y-59899690D01*
X112683804Y-59899500D01*
X112066196Y-59899500D01*
X112063777Y-59899690D01*
X112063761Y-59899691D01*
X112029662Y-59902375D01*
X111873354Y-59947787D01*
X111733245Y-60030647D01*
X111618147Y-60145745D01*
X111544232Y-60270730D01*
X111493163Y-60318414D01*
X111424421Y-60330917D01*
X111359832Y-60304272D01*
X111330768Y-60270730D01*
X111256852Y-60145745D01*
X111186819Y-60075712D01*
X111153334Y-60014389D01*
X111150500Y-59988031D01*
X111150500Y-59281418D01*
X111170185Y-59214379D01*
X111186819Y-59193736D01*
X111256853Y-59123703D01*
X111330768Y-58998718D01*
X111381837Y-58951036D01*
X111450578Y-58938532D01*
X111515168Y-58965177D01*
X111544231Y-58998717D01*
X111568438Y-59039651D01*
X111618147Y-59123704D01*
X111733245Y-59238802D01*
X111873354Y-59321662D01*
X112029662Y-59367074D01*
X112029666Y-59367075D01*
X112066196Y-59369950D01*
X112068641Y-59369950D01*
X112681359Y-59369950D01*
X112683804Y-59369950D01*
X112720334Y-59367075D01*
X112876646Y-59321662D01*
X113016753Y-59238803D01*
X113131853Y-59123703D01*
X113214712Y-58983596D01*
X113260125Y-58827284D01*
X113263000Y-58790754D01*
X113263000Y-57748146D01*
X113260125Y-57711616D01*
X113259796Y-57710485D01*
X113214712Y-57555304D01*
X113131852Y-57415195D01*
X113016754Y-57300097D01*
X112876645Y-57217237D01*
X112720337Y-57171825D01*
X112686238Y-57169141D01*
X112686223Y-57169140D01*
X112683804Y-57168950D01*
X112066196Y-57168950D01*
X112063777Y-57169140D01*
X112063761Y-57169141D01*
X112029662Y-57171825D01*
X111873354Y-57217237D01*
X111733245Y-57300097D01*
X111618147Y-57415195D01*
X111544232Y-57540180D01*
X111493163Y-57587864D01*
X111424421Y-57600367D01*
X111359832Y-57573722D01*
X111330768Y-57540180D01*
X111256852Y-57415195D01*
X111186819Y-57345162D01*
X111153334Y-57283839D01*
X111150500Y-57257481D01*
X111150500Y-56550868D01*
X111170185Y-56483829D01*
X111186819Y-56463186D01*
X111256853Y-56393153D01*
X111330768Y-56268168D01*
X111381837Y-56220486D01*
X111450578Y-56207982D01*
X111515168Y-56234627D01*
X111544232Y-56268169D01*
X111618147Y-56393154D01*
X111733245Y-56508252D01*
X111873354Y-56591112D01*
X112029662Y-56636524D01*
X112029666Y-56636525D01*
X112066196Y-56639400D01*
X112068641Y-56639400D01*
X112681359Y-56639400D01*
X112683804Y-56639400D01*
X112720334Y-56636525D01*
X112876646Y-56591112D01*
X113016753Y-56508253D01*
X113131853Y-56393153D01*
X113214712Y-56253046D01*
X113260125Y-56096734D01*
X113263000Y-56060204D01*
X113263000Y-55691927D01*
X113282685Y-55624888D01*
X113335489Y-55579133D01*
X113404647Y-55569189D01*
X113468203Y-55598214D01*
X113474681Y-55604246D01*
X113938181Y-56067746D01*
X113971666Y-56129069D01*
X113974500Y-56155427D01*
X113974500Y-60375285D01*
X113974428Y-60379519D01*
X113972339Y-60440644D01*
X113981556Y-60478464D01*
X113983926Y-60490932D01*
X113985406Y-60501695D01*
X113989229Y-60529508D01*
X113995863Y-60544781D01*
X114002602Y-60564820D01*
X114006542Y-60580990D01*
X114025619Y-60614918D01*
X114031265Y-60626286D01*
X114046780Y-60662004D01*
X114057284Y-60674915D01*
X114069182Y-60692396D01*
X114077342Y-60706909D01*
X114104869Y-60734435D01*
X114113377Y-60743862D01*
X114137943Y-60774058D01*
X114137944Y-60774058D01*
X114137946Y-60774061D01*
X114151550Y-60783664D01*
X114167715Y-60797281D01*
X116146661Y-62776227D01*
X116149604Y-62779272D01*
X116191347Y-62823968D01*
X116191349Y-62823969D01*
X116224609Y-62844194D01*
X116235089Y-62851327D01*
X116266129Y-62874865D01*
X116281625Y-62880975D01*
X116300555Y-62890378D01*
X116314776Y-62899026D01*
X116352270Y-62909530D01*
X116364287Y-62913572D01*
X116370994Y-62916217D01*
X116426136Y-62959125D01*
X116449328Y-63025033D01*
X116449402Y-63027841D01*
X116449500Y-63029687D01*
X116449501Y-63032984D01*
X116449853Y-63036261D01*
X116449854Y-63036275D01*
X116455588Y-63089617D01*
X116503371Y-63217725D01*
X116585312Y-63327187D01*
X116667253Y-63388526D01*
X116694774Y-63409128D01*
X116822886Y-63456912D01*
X116879515Y-63463000D01*
X118295484Y-63462999D01*
X118352114Y-63456912D01*
X118381856Y-63445818D01*
X118425189Y-63438000D01*
X118516407Y-63438000D01*
X118583446Y-63457685D01*
X118598633Y-63469184D01*
X118658488Y-63522210D01*
X118674371Y-63536281D01*
X118689029Y-63549266D01*
X118687391Y-63551114D01*
X118722298Y-63584892D01*
X118738271Y-63652911D01*
X118714933Y-63718768D01*
X118688768Y-63745367D01*
X118585312Y-63822812D01*
X118503372Y-63932273D01*
X118455588Y-64060383D01*
X118451815Y-64095477D01*
X118449500Y-64117015D01*
X118449500Y-64120324D01*
X118449500Y-64120325D01*
X118449500Y-65529672D01*
X118449500Y-65529690D01*
X118449501Y-65532984D01*
X118449853Y-65536262D01*
X118449854Y-65536274D01*
X118455588Y-65589617D01*
X118503371Y-65717725D01*
X118585312Y-65827187D01*
X118654733Y-65879154D01*
X118694774Y-65909128D01*
X118822886Y-65956912D01*
X118879515Y-65963000D01*
X119120484Y-65962999D01*
X119177114Y-65956912D01*
X119206664Y-65945889D01*
X119276353Y-65940903D01*
X119293322Y-65945885D01*
X119322886Y-65956912D01*
X119363754Y-65961305D01*
X119428305Y-65988042D01*
X119468154Y-66045434D01*
X119474500Y-66084595D01*
X119474500Y-66174137D01*
X119454815Y-66241176D01*
X119438181Y-66261818D01*
X118736319Y-66963681D01*
X118674996Y-66997166D01*
X118648638Y-67000000D01*
X118100000Y-67000000D01*
X117885854Y-67214145D01*
X117835013Y-67264986D01*
X117773690Y-67298470D01*
X117766730Y-67299777D01*
X117674696Y-67314353D01*
X117561657Y-67371949D01*
X117471950Y-67461656D01*
X117414353Y-67574697D01*
X117399776Y-67666731D01*
X117369846Y-67729865D01*
X117364986Y-67735012D01*
X117300000Y-67800000D01*
X117300000Y-72200000D01*
X117344582Y-72244582D01*
X117375977Y-72297667D01*
X117423255Y-72460397D01*
X117495531Y-72582609D01*
X117506919Y-72601865D01*
X117623135Y-72718081D01*
X117665819Y-72743324D01*
X117750269Y-72793268D01*
X117797953Y-72844337D01*
X117810456Y-72913079D01*
X117783810Y-72977668D01*
X117750269Y-73006732D01*
X117623134Y-73081919D01*
X117506919Y-73198134D01*
X117423255Y-73339602D01*
X117377402Y-73497427D01*
X117374691Y-73531871D01*
X117374690Y-73531886D01*
X117374500Y-73534306D01*
X117374500Y-74165694D01*
X117374690Y-74168114D01*
X117374691Y-74168128D01*
X117377402Y-74202572D01*
X117423255Y-74360397D01*
X117423256Y-74360398D01*
X117506919Y-74501865D01*
X117623135Y-74618081D01*
X117743800Y-74689442D01*
X117764602Y-74701744D01*
X117922427Y-74747597D01*
X117922431Y-74747598D01*
X117959306Y-74750500D01*
X117961751Y-74750500D01*
X123038249Y-74750500D01*
X123040694Y-74750500D01*
X123077569Y-74747598D01*
X123235398Y-74701744D01*
X123376865Y-74618081D01*
X123493081Y-74501865D01*
X123576744Y-74360398D01*
X123622598Y-74202569D01*
X123625500Y-74165694D01*
X123625500Y-73534306D01*
X123622598Y-73497431D01*
X123599343Y-73417389D01*
X123576744Y-73339602D01*
X123542806Y-73282216D01*
X123493081Y-73198135D01*
X123376865Y-73081919D01*
X123302955Y-73038209D01*
X123249729Y-73006731D01*
X123202046Y-72955661D01*
X123189543Y-72886920D01*
X123216189Y-72822330D01*
X123249729Y-72793268D01*
X123376865Y-72718081D01*
X123493081Y-72601865D01*
X123576744Y-72460398D01*
X123622598Y-72302569D01*
X123622598Y-72302567D01*
X123624021Y-72297670D01*
X123655416Y-72244583D01*
X123655417Y-72244582D01*
X123700000Y-72200000D01*
X123700000Y-68742526D01*
X123719684Y-68675491D01*
X123772488Y-68629736D01*
X123841646Y-68619792D01*
X123905202Y-68648817D01*
X123911680Y-68654849D01*
X124313181Y-69056350D01*
X124346666Y-69117673D01*
X124349500Y-69144031D01*
X124349500Y-75475500D01*
X124329815Y-75542539D01*
X124277011Y-75588294D01*
X124225500Y-75599500D01*
X117718485Y-75599500D01*
X117671588Y-75606927D01*
X117624696Y-75614354D01*
X117624694Y-75614354D01*
X117624693Y-75614355D01*
X117511657Y-75671949D01*
X117421950Y-75761656D01*
X117364353Y-75874697D01*
X117349500Y-75968478D01*
X117349500Y-77031514D01*
X117349501Y-77031518D01*
X117364354Y-77125304D01*
X117364354Y-77125305D01*
X117364355Y-77125306D01*
X117421949Y-77238342D01*
X117511656Y-77328049D01*
X117511658Y-77328050D01*
X117624696Y-77385646D01*
X117718481Y-77400500D01*
X119065525Y-77400499D01*
X119065535Y-77400500D01*
X119077808Y-77400500D01*
X124937453Y-77400500D01*
X124937461Y-77400499D01*
X126281514Y-77400499D01*
X126281518Y-77400499D01*
X126375304Y-77385646D01*
X126488342Y-77328050D01*
X126578050Y-77238342D01*
X126635646Y-77125304D01*
X126650500Y-77031519D01*
X126650500Y-77031514D01*
X129849500Y-77031514D01*
X129849501Y-77031518D01*
X129864354Y-77125304D01*
X129864354Y-77125305D01*
X129864355Y-77125306D01*
X129921949Y-77238342D01*
X130011656Y-77328049D01*
X130011658Y-77328050D01*
X130124696Y-77385646D01*
X130218481Y-77400500D01*
X131565525Y-77400499D01*
X131565535Y-77400500D01*
X131577808Y-77400500D01*
X131952808Y-77400500D01*
X135968481Y-77400500D01*
X136549612Y-77400500D01*
X136594045Y-77408734D01*
X136627168Y-77421449D01*
X136639011Y-77426721D01*
X136675512Y-77445320D01*
X136715089Y-77455924D01*
X136727407Y-77459926D01*
X136765650Y-77474607D01*
X136806106Y-77481013D01*
X136818794Y-77483711D01*
X136858354Y-77494312D01*
X136899261Y-77496455D01*
X136912143Y-77497808D01*
X136952612Y-77504219D01*
X136993515Y-77502075D01*
X137006488Y-77502075D01*
X137047388Y-77504219D01*
X137087849Y-77497809D01*
X137100731Y-77496456D01*
X137141646Y-77494313D01*
X137181230Y-77483705D01*
X137193896Y-77481013D01*
X137234350Y-77474607D01*
X137272582Y-77459930D01*
X137284907Y-77455925D01*
X137324488Y-77445320D01*
X137360993Y-77426718D01*
X137372827Y-77421450D01*
X137405956Y-77408733D01*
X137450390Y-77400499D01*
X138781514Y-77400499D01*
X138781518Y-77400499D01*
X138875304Y-77385646D01*
X138988342Y-77328050D01*
X139078050Y-77238342D01*
X139135646Y-77125304D01*
X139150500Y-77031519D01*
X139150499Y-75968482D01*
X139135646Y-75874696D01*
X139078930Y-75763385D01*
X139078050Y-75761657D01*
X138988343Y-75671950D01*
X138875302Y-75614353D01*
X138781521Y-75599500D01*
X138781519Y-75599500D01*
X137422196Y-75599500D01*
X137422192Y-75599500D01*
X137180626Y-75599500D01*
X137161228Y-75597973D01*
X137147388Y-75595781D01*
X137079670Y-75599330D01*
X137073180Y-75599500D01*
X136926826Y-75599500D01*
X136920337Y-75599330D01*
X136915375Y-75599069D01*
X136852612Y-75595781D01*
X136852611Y-75595781D01*
X136845076Y-75596974D01*
X136838771Y-75597973D01*
X136819374Y-75599500D01*
X130218485Y-75599500D01*
X130171589Y-75606927D01*
X130124696Y-75614354D01*
X130124694Y-75614354D01*
X130124693Y-75614355D01*
X130011657Y-75671949D01*
X129921950Y-75761656D01*
X129864353Y-75874697D01*
X129849500Y-75968478D01*
X129849500Y-77031514D01*
X126650500Y-77031514D01*
X126650499Y-75968482D01*
X126635646Y-75874696D01*
X126578930Y-75763385D01*
X126578050Y-75761657D01*
X126488343Y-75671950D01*
X126375302Y-75614353D01*
X126281521Y-75599500D01*
X126281519Y-75599500D01*
X125524500Y-75599500D01*
X125457461Y-75579815D01*
X125411706Y-75527011D01*
X125400500Y-75475500D01*
X125400500Y-74482614D01*
X131968498Y-74482614D01*
X131968499Y-74482618D01*
X131983352Y-74576404D01*
X131983352Y-74576405D01*
X131983353Y-74576406D01*
X132040947Y-74689442D01*
X132130654Y-74779149D01*
X132130656Y-74779150D01*
X132243694Y-74836746D01*
X132337479Y-74851600D01*
X133162516Y-74851599D01*
X133256302Y-74836746D01*
X133369340Y-74779150D01*
X133459048Y-74689442D01*
X133516644Y-74576404D01*
X133531498Y-74482619D01*
X133531498Y-74482614D01*
X135468502Y-74482614D01*
X135468503Y-74482618D01*
X135483356Y-74576404D01*
X135483356Y-74576405D01*
X135483357Y-74576406D01*
X135540951Y-74689442D01*
X135630658Y-74779149D01*
X135630660Y-74779150D01*
X135743698Y-74836746D01*
X135837483Y-74851600D01*
X136662520Y-74851599D01*
X136756306Y-74836746D01*
X136869344Y-74779150D01*
X136959052Y-74689442D01*
X137016648Y-74576404D01*
X137031502Y-74482619D01*
X137031501Y-74413743D01*
X137051185Y-74346705D01*
X137053438Y-74343322D01*
X137080220Y-74304523D01*
X137136237Y-74156818D01*
X137155278Y-74000000D01*
X137136237Y-73843182D01*
X137080220Y-73695477D01*
X137053451Y-73656695D01*
X137031568Y-73590340D01*
X137031501Y-73586255D01*
X137031501Y-73301985D01*
X137031501Y-73301982D01*
X137016648Y-73208196D01*
X136988967Y-73153870D01*
X136959052Y-73095157D01*
X136869345Y-73005450D01*
X136756304Y-72947853D01*
X136662523Y-72933000D01*
X135837487Y-72933000D01*
X135790591Y-72940427D01*
X135743698Y-72947854D01*
X135743696Y-72947854D01*
X135743695Y-72947855D01*
X135630659Y-73005449D01*
X135540952Y-73095156D01*
X135483355Y-73208197D01*
X135468502Y-73301978D01*
X135468502Y-74482614D01*
X133531498Y-74482614D01*
X133531497Y-73301982D01*
X133516644Y-73208196D01*
X133488963Y-73153870D01*
X133459048Y-73095157D01*
X133369341Y-73005450D01*
X133256300Y-72947853D01*
X133162519Y-72933000D01*
X132337483Y-72933000D01*
X132290586Y-72940427D01*
X132243694Y-72947854D01*
X132243692Y-72947854D01*
X132243691Y-72947855D01*
X132130655Y-73005449D01*
X132040948Y-73095156D01*
X131983351Y-73208197D01*
X131968498Y-73301978D01*
X131968498Y-74482614D01*
X125400500Y-74482614D01*
X125400500Y-74174500D01*
X125420185Y-74107461D01*
X125472989Y-74061706D01*
X125524500Y-74050500D01*
X125578985Y-74050500D01*
X125732365Y-74012696D01*
X125872240Y-73939283D01*
X125990483Y-73834530D01*
X126080220Y-73704523D01*
X126136237Y-73556818D01*
X126155278Y-73400000D01*
X126136237Y-73243182D01*
X126080220Y-73095477D01*
X125990483Y-72965470D01*
X125892272Y-72878463D01*
X125855146Y-72819275D01*
X125850500Y-72785649D01*
X125850500Y-71781373D01*
X125850499Y-70746669D01*
X125870184Y-70679634D01*
X125922987Y-70633879D01*
X125992146Y-70623935D01*
X126032123Y-70636876D01*
X126105135Y-70675196D01*
X126258515Y-70713000D01*
X126416485Y-70713000D01*
X126569865Y-70675196D01*
X126709740Y-70601783D01*
X126827983Y-70497030D01*
X126917720Y-70367023D01*
X126973737Y-70219318D01*
X126992778Y-70062500D01*
X126973737Y-69905682D01*
X126917720Y-69757977D01*
X126884950Y-69710501D01*
X126863067Y-69644146D01*
X126863000Y-69640061D01*
X126863000Y-69533716D01*
X126882685Y-69466677D01*
X126935489Y-69420922D01*
X127004647Y-69410978D01*
X127068203Y-69440003D01*
X127074681Y-69446035D01*
X127092359Y-69463713D01*
X127095301Y-69466757D01*
X127130573Y-69504523D01*
X127137060Y-69511469D01*
X127170322Y-69531695D01*
X127180813Y-69538836D01*
X127203157Y-69555779D01*
X127211840Y-69562364D01*
X127227325Y-69568470D01*
X127246259Y-69577874D01*
X127260487Y-69586526D01*
X127297971Y-69597028D01*
X127310001Y-69601073D01*
X127346226Y-69615359D01*
X127362787Y-69617061D01*
X127383548Y-69621005D01*
X127399587Y-69625500D01*
X127438519Y-69625500D01*
X127451198Y-69626149D01*
X127462415Y-69627303D01*
X127489924Y-69630131D01*
X127489924Y-69630130D01*
X127489925Y-69630131D01*
X127506328Y-69627302D01*
X127527396Y-69625500D01*
X131621427Y-69625500D01*
X131688466Y-69645185D01*
X131734221Y-69697989D01*
X131744165Y-69767147D01*
X131715140Y-69830703D01*
X131679055Y-69859294D01*
X131627760Y-69886217D01*
X131564569Y-69942198D01*
X131509515Y-69990971D01*
X131419780Y-70120976D01*
X131363763Y-70268681D01*
X131344721Y-70425500D01*
X131363763Y-70582318D01*
X131419780Y-70730023D01*
X131509515Y-70860028D01*
X131509516Y-70860029D01*
X131509517Y-70860030D01*
X131627760Y-70964783D01*
X131684476Y-70994550D01*
X131767635Y-71038196D01*
X131921015Y-71076000D01*
X132037521Y-71076000D01*
X132104560Y-71095685D01*
X132150315Y-71148489D01*
X132160259Y-71217647D01*
X132131234Y-71281203D01*
X132119756Y-71292807D01*
X132073529Y-71333761D01*
X132009515Y-71390471D01*
X131919780Y-71520476D01*
X131863763Y-71668181D01*
X131844721Y-71824999D01*
X131863763Y-71981818D01*
X131919780Y-72129523D01*
X132009515Y-72259528D01*
X132009516Y-72259529D01*
X132009517Y-72259530D01*
X132127760Y-72364283D01*
X132267635Y-72437696D01*
X132421015Y-72475500D01*
X132578985Y-72475500D01*
X132732365Y-72437696D01*
X132871438Y-72364703D01*
X132929064Y-72350500D01*
X133167740Y-72350500D01*
X133171973Y-72350571D01*
X133233095Y-72352660D01*
X133233095Y-72352659D01*
X133233096Y-72352660D01*
X133247556Y-72349135D01*
X133270920Y-72343441D01*
X133283382Y-72341073D01*
X133321961Y-72335771D01*
X133337242Y-72329132D01*
X133357271Y-72322397D01*
X133373444Y-72318457D01*
X133407381Y-72299374D01*
X133418729Y-72293737D01*
X133454459Y-72278219D01*
X133467371Y-72267713D01*
X133484858Y-72255813D01*
X133491141Y-72252279D01*
X133499362Y-72247658D01*
X133526893Y-72220125D01*
X133536308Y-72211628D01*
X133566515Y-72187054D01*
X133576119Y-72173447D01*
X133589731Y-72157287D01*
X134643700Y-71103317D01*
X134705023Y-71069833D01*
X134731381Y-71066999D01*
X134912514Y-71066999D01*
X134912518Y-71066999D01*
X135006304Y-71052146D01*
X135119342Y-70994550D01*
X135209050Y-70904842D01*
X135266646Y-70791804D01*
X135281500Y-70698019D01*
X135281499Y-69749499D01*
X135301183Y-69682461D01*
X135353987Y-69636706D01*
X135405499Y-69625500D01*
X136088890Y-69625500D01*
X136093123Y-69625571D01*
X136154245Y-69627660D01*
X136154245Y-69627659D01*
X136154246Y-69627660D01*
X136168706Y-69624135D01*
X136192070Y-69618441D01*
X136204532Y-69616073D01*
X136243111Y-69610771D01*
X136258392Y-69604132D01*
X136278421Y-69597397D01*
X136294594Y-69593457D01*
X136328531Y-69574374D01*
X136339879Y-69568737D01*
X136375609Y-69553219D01*
X136388523Y-69542711D01*
X136406000Y-69530816D01*
X136420512Y-69522658D01*
X136448055Y-69495113D01*
X136457461Y-69486625D01*
X136487665Y-69462054D01*
X136497269Y-69448447D01*
X136510882Y-69432286D01*
X136560662Y-69382506D01*
X137520500Y-69382506D01*
X137534672Y-69440003D01*
X137559990Y-69542725D01*
X137634626Y-69684931D01*
X137636675Y-69688835D01*
X137711003Y-69772734D01*
X137746100Y-69812350D01*
X137881900Y-69906087D01*
X137940413Y-69928277D01*
X138036191Y-69964601D01*
X138158895Y-69979500D01*
X138162644Y-69979500D01*
X138237356Y-69979500D01*
X138241105Y-69979500D01*
X138363809Y-69964601D01*
X138518099Y-69906087D01*
X138653901Y-69812349D01*
X138763325Y-69688835D01*
X138840010Y-69542724D01*
X138879500Y-69382506D01*
X138879500Y-69217494D01*
X138840010Y-69057276D01*
X138763325Y-68911165D01*
X138653901Y-68787651D01*
X138653900Y-68787650D01*
X138653899Y-68787649D01*
X138518099Y-68693912D01*
X138363809Y-68635399D01*
X138244825Y-68620951D01*
X138244813Y-68620950D01*
X138241105Y-68620500D01*
X138158895Y-68620500D01*
X138155187Y-68620950D01*
X138155174Y-68620951D01*
X138036190Y-68635399D01*
X137881900Y-68693912D01*
X137746100Y-68787649D01*
X137636673Y-68911167D01*
X137559990Y-69057274D01*
X137538607Y-69144031D01*
X137520500Y-69217494D01*
X137520500Y-69382506D01*
X136560662Y-69382506D01*
X136872703Y-69070464D01*
X136930706Y-69037751D01*
X137032365Y-69012696D01*
X137172240Y-68939283D01*
X137290483Y-68834530D01*
X137380220Y-68704523D01*
X137436237Y-68556818D01*
X137455278Y-68400000D01*
X137455278Y-68399998D01*
X137453997Y-68389445D01*
X137465458Y-68320522D01*
X137512362Y-68268736D01*
X137577093Y-68250500D01*
X137578985Y-68250500D01*
X137732365Y-68212696D01*
X137872240Y-68139283D01*
X137990483Y-68034530D01*
X138080220Y-67904523D01*
X138136237Y-67756818D01*
X138155278Y-67600000D01*
X138136237Y-67443182D01*
X138080220Y-67295477D01*
X138026648Y-67217864D01*
X137990484Y-67165471D01*
X137921687Y-67104523D01*
X137872240Y-67060717D01*
X137826196Y-67036551D01*
X137732364Y-66987303D01*
X137578985Y-66949500D01*
X137421015Y-66949500D01*
X137421014Y-66949500D01*
X137302791Y-66978638D01*
X137232989Y-66975568D01*
X137175927Y-66935248D01*
X137149722Y-66870478D01*
X137150021Y-66843294D01*
X137155278Y-66799999D01*
X137150021Y-66756705D01*
X137161481Y-66687781D01*
X137208385Y-66635995D01*
X137275841Y-66617788D01*
X137302789Y-66621360D01*
X137421015Y-66650500D01*
X137421016Y-66650500D01*
X137578985Y-66650500D01*
X137732365Y-66612696D01*
X137872240Y-66539283D01*
X137990483Y-66434530D01*
X138080220Y-66304523D01*
X138136237Y-66156818D01*
X138155278Y-66000000D01*
X138152195Y-65974617D01*
X138163656Y-65905693D01*
X138210560Y-65853907D01*
X138278016Y-65835700D01*
X138304961Y-65839272D01*
X138350515Y-65850500D01*
X138350516Y-65850500D01*
X138508485Y-65850500D01*
X138661865Y-65812696D01*
X138801740Y-65739283D01*
X138919983Y-65634530D01*
X139009720Y-65504523D01*
X139065737Y-65356818D01*
X139084778Y-65200000D01*
X139070574Y-65083021D01*
X139082034Y-65014100D01*
X139128938Y-64962313D01*
X139136046Y-64958279D01*
X139172240Y-64939283D01*
X139290483Y-64834530D01*
X139380220Y-64704523D01*
X139436237Y-64556818D01*
X139455278Y-64400000D01*
X139436237Y-64243182D01*
X139380220Y-64095477D01*
X139362937Y-64070438D01*
X139341055Y-64004086D01*
X139358520Y-63936435D01*
X139362925Y-63929577D01*
X139380220Y-63904523D01*
X139436237Y-63756818D01*
X139455278Y-63600000D01*
X139436237Y-63443182D01*
X139380220Y-63295477D01*
X139362937Y-63270438D01*
X139341055Y-63204086D01*
X139358520Y-63136435D01*
X139362925Y-63129577D01*
X139380220Y-63104523D01*
X139436237Y-62956818D01*
X139455278Y-62800000D01*
X139436237Y-62643182D01*
X139380220Y-62495477D01*
X139362937Y-62470438D01*
X139341055Y-62404086D01*
X139358520Y-62336435D01*
X139362925Y-62329577D01*
X139380220Y-62304523D01*
X139436237Y-62156818D01*
X139455278Y-62000000D01*
X139436237Y-61843182D01*
X139380220Y-61695477D01*
X139323081Y-61612696D01*
X139290484Y-61565471D01*
X139281867Y-61557837D01*
X139172240Y-61460717D01*
X139126577Y-61436751D01*
X139032364Y-61387303D01*
X138878985Y-61349500D01*
X138721015Y-61349500D01*
X138567635Y-61387303D01*
X138427761Y-61460716D01*
X138309515Y-61565471D01*
X138219780Y-61695476D01*
X138163763Y-61843181D01*
X138144721Y-61999999D01*
X138163763Y-62156818D01*
X138219780Y-62304523D01*
X138237063Y-62329563D01*
X138258944Y-62395918D01*
X138241477Y-62463569D01*
X138237063Y-62470437D01*
X138219780Y-62495476D01*
X138163763Y-62643181D01*
X138144721Y-62799999D01*
X138163763Y-62956818D01*
X138219780Y-63104523D01*
X138237061Y-63129559D01*
X138258944Y-63195913D01*
X138241479Y-63263565D01*
X138237064Y-63270435D01*
X138219780Y-63295476D01*
X138163763Y-63443181D01*
X138144721Y-63600000D01*
X138163763Y-63756818D01*
X138219780Y-63904523D01*
X138237063Y-63929563D01*
X138258944Y-63995918D01*
X138241477Y-64063569D01*
X138237063Y-64070437D01*
X138219780Y-64095476D01*
X138163763Y-64243181D01*
X138144721Y-64400000D01*
X138158925Y-64516977D01*
X138147464Y-64585900D01*
X138100560Y-64637686D01*
X138093457Y-64641718D01*
X138057262Y-64660715D01*
X138057259Y-64660717D01*
X138057260Y-64660717D01*
X137947866Y-64757631D01*
X137939016Y-64765471D01*
X137849280Y-64895476D01*
X137793263Y-65043181D01*
X137774221Y-65200002D01*
X137777303Y-65225385D01*
X137765841Y-65294308D01*
X137718937Y-65346093D01*
X137651481Y-65364299D01*
X137624533Y-65360726D01*
X137578986Y-65349500D01*
X137578985Y-65349500D01*
X137421015Y-65349500D01*
X137267635Y-65387303D01*
X137127761Y-65460716D01*
X137009515Y-65565471D01*
X136919780Y-65695476D01*
X136863763Y-65843181D01*
X136844721Y-66000001D01*
X136849978Y-66043296D01*
X136838517Y-66112219D01*
X136791612Y-66164005D01*
X136724156Y-66182211D01*
X136697208Y-66178638D01*
X136578986Y-66149500D01*
X136578985Y-66149500D01*
X136421015Y-66149500D01*
X136267635Y-66187303D01*
X136127761Y-66260716D01*
X136009515Y-66365471D01*
X135919780Y-66495476D01*
X135863763Y-66643181D01*
X135844721Y-66799999D01*
X135863763Y-66956818D01*
X135919780Y-67104523D01*
X136009515Y-67234528D01*
X136009516Y-67234529D01*
X136009517Y-67234530D01*
X136122810Y-67334897D01*
X136159935Y-67394085D01*
X136159168Y-67463951D01*
X136128263Y-67515393D01*
X135605477Y-68038181D01*
X135544154Y-68071666D01*
X135517796Y-68074500D01*
X132131250Y-68074500D01*
X132064211Y-68054815D01*
X132018456Y-68002011D01*
X132007250Y-67950500D01*
X132007249Y-67639086D01*
X132007249Y-67639083D01*
X131992396Y-67545297D01*
X131985835Y-67532421D01*
X131972939Y-67463755D01*
X131999214Y-67399014D01*
X132056320Y-67358756D01*
X132096320Y-67352127D01*
X132201857Y-67352127D01*
X132355237Y-67314323D01*
X132495112Y-67240910D01*
X132613355Y-67136157D01*
X132703092Y-67006150D01*
X132759109Y-66858445D01*
X132778150Y-66701627D01*
X132759109Y-66544809D01*
X132703092Y-66397104D01*
X132633825Y-66296753D01*
X132613356Y-66267098D01*
X132513504Y-66178638D01*
X132495112Y-66162344D01*
X132495110Y-66162343D01*
X132495109Y-66162342D01*
X132355239Y-66088932D01*
X132355238Y-66088931D01*
X132355237Y-66088931D01*
X132253577Y-66063874D01*
X132195572Y-66031158D01*
X132043568Y-65879154D01*
X132010083Y-65817831D01*
X132007249Y-65791473D01*
X132007249Y-65739084D01*
X132007249Y-65739081D01*
X131992396Y-65645295D01*
X131956941Y-65575710D01*
X131934800Y-65532256D01*
X131845093Y-65442549D01*
X131732052Y-65384952D01*
X131631270Y-65368990D01*
X131568135Y-65339061D01*
X131554480Y-65324772D01*
X131547812Y-65316576D01*
X131535913Y-65299093D01*
X131527758Y-65284588D01*
X131500228Y-65257058D01*
X131491720Y-65247631D01*
X131467504Y-65217866D01*
X131467154Y-65217435D01*
X131467153Y-65217434D01*
X131453552Y-65207833D01*
X131437381Y-65194211D01*
X131435329Y-65192159D01*
X134848708Y-65192159D01*
X134867750Y-65348978D01*
X134923767Y-65496683D01*
X135013502Y-65626688D01*
X135013503Y-65626689D01*
X135013504Y-65626690D01*
X135131747Y-65731443D01*
X135271622Y-65804856D01*
X135425002Y-65842660D01*
X135582972Y-65842660D01*
X135736352Y-65804856D01*
X135876227Y-65731443D01*
X135994470Y-65626690D01*
X136084207Y-65496683D01*
X136140224Y-65348978D01*
X136159265Y-65192160D01*
X136140224Y-65035342D01*
X136084207Y-64887637D01*
X136011817Y-64782762D01*
X135994471Y-64757631D01*
X135977412Y-64742518D01*
X135876227Y-64652877D01*
X135847283Y-64637686D01*
X135736351Y-64579463D01*
X135582972Y-64541660D01*
X135425002Y-64541660D01*
X135271622Y-64579463D01*
X135131748Y-64652876D01*
X135013502Y-64757631D01*
X134923767Y-64887636D01*
X134867750Y-65035341D01*
X134848708Y-65192159D01*
X131435329Y-65192159D01*
X128958879Y-62715709D01*
X128925394Y-62654386D01*
X128930378Y-62584694D01*
X128964332Y-62535214D01*
X129077983Y-62434530D01*
X129167720Y-62304523D01*
X129223737Y-62156818D01*
X129242778Y-62000000D01*
X129242778Y-61999999D01*
X129757221Y-61999999D01*
X129776263Y-62156818D01*
X129832280Y-62304523D01*
X129922015Y-62434528D01*
X129922016Y-62434529D01*
X129922017Y-62434530D01*
X130040260Y-62539283D01*
X130180135Y-62612696D01*
X130333515Y-62650500D01*
X130491485Y-62650500D01*
X130644865Y-62612696D01*
X130784740Y-62539283D01*
X130902983Y-62434530D01*
X130992720Y-62304523D01*
X131048737Y-62156818D01*
X131067778Y-62000000D01*
X131048737Y-61843182D01*
X130992720Y-61695477D01*
X130935581Y-61612696D01*
X130902984Y-61565471D01*
X130894367Y-61557837D01*
X130784740Y-61460717D01*
X130739077Y-61436751D01*
X130644864Y-61387303D01*
X130491485Y-61349500D01*
X130333515Y-61349500D01*
X130180135Y-61387303D01*
X130040261Y-61460716D01*
X129922015Y-61565471D01*
X129832280Y-61695476D01*
X129776263Y-61843181D01*
X129757221Y-61999999D01*
X129242778Y-61999999D01*
X129223737Y-61843182D01*
X129167720Y-61695477D01*
X129110581Y-61612696D01*
X129077984Y-61565471D01*
X129069367Y-61557837D01*
X128959740Y-61460717D01*
X128959738Y-61460716D01*
X128959737Y-61460715D01*
X128819867Y-61387305D01*
X128819866Y-61387304D01*
X128819865Y-61387304D01*
X128718205Y-61362247D01*
X128660200Y-61329531D01*
X128379441Y-61048772D01*
X128376498Y-61045727D01*
X128364597Y-61032984D01*
X128334755Y-61001031D01*
X128334754Y-61001030D01*
X128334753Y-61001029D01*
X128301488Y-60980800D01*
X128290992Y-60973657D01*
X128280502Y-60965702D01*
X128259975Y-60950136D01*
X128259973Y-60950135D01*
X128244488Y-60944028D01*
X128225556Y-60934625D01*
X128211327Y-60925973D01*
X128173843Y-60915470D01*
X128161810Y-60911424D01*
X128125586Y-60897139D01*
X128109021Y-60895436D01*
X128088255Y-60891490D01*
X128072228Y-60887000D01*
X128033296Y-60887000D01*
X128020616Y-60886350D01*
X128017031Y-60885981D01*
X127981890Y-60882368D01*
X127966842Y-60884963D01*
X127965486Y-60885197D01*
X127944419Y-60887000D01*
X127172095Y-60887000D01*
X127105056Y-60867315D01*
X127059301Y-60814511D01*
X127048805Y-60776254D01*
X127048032Y-60769071D01*
X127044412Y-60735386D01*
X127033388Y-60705832D01*
X127028403Y-60636143D01*
X127033384Y-60619177D01*
X127044412Y-60589614D01*
X127050500Y-60532985D01*
X127050499Y-60292016D01*
X127047994Y-60268712D01*
X127060401Y-60199955D01*
X127108012Y-60148818D01*
X127141608Y-60135064D01*
X127232365Y-60112696D01*
X127316227Y-60068680D01*
X127384730Y-60054956D01*
X127449784Y-60080447D01*
X127490729Y-60137062D01*
X127497850Y-60178477D01*
X127497850Y-60260914D01*
X127499393Y-60270654D01*
X127512704Y-60354705D01*
X127512704Y-60354706D01*
X127512705Y-60354707D01*
X127570299Y-60467743D01*
X127660006Y-60557450D01*
X127660008Y-60557451D01*
X127773046Y-60615047D01*
X127866831Y-60629901D01*
X128933168Y-60629900D01*
X129026954Y-60615047D01*
X129139992Y-60557451D01*
X129185624Y-60511818D01*
X129246945Y-60478335D01*
X129273304Y-60475501D01*
X129360757Y-60475501D01*
X129369219Y-60475790D01*
X129419145Y-60479205D01*
X129468152Y-60469021D01*
X129476464Y-60467588D01*
X129526057Y-60460772D01*
X129531058Y-60458599D01*
X129555239Y-60450924D01*
X129560580Y-60449815D01*
X129605040Y-60426776D01*
X129612628Y-60423168D01*
X129658555Y-60403220D01*
X129662789Y-60399774D01*
X129683995Y-60385865D01*
X129688841Y-60383355D01*
X129725421Y-60349189D01*
X129731799Y-60343630D01*
X129783836Y-60301297D01*
X129784407Y-60301999D01*
X129823925Y-60270654D01*
X129893450Y-60263720D01*
X129955687Y-60295476D01*
X129958175Y-60297896D01*
X129974007Y-60313728D01*
X129976950Y-60316773D01*
X130018693Y-60361469D01*
X130028414Y-60367380D01*
X130051955Y-60381695D01*
X130062435Y-60388828D01*
X130093475Y-60412366D01*
X130108971Y-60418476D01*
X130127901Y-60427879D01*
X130142122Y-60436527D01*
X130179616Y-60447031D01*
X130191634Y-60451073D01*
X130227861Y-60465360D01*
X130234347Y-60466026D01*
X130299022Y-60492460D01*
X130309343Y-60501686D01*
X130365108Y-60557451D01*
X130478146Y-60615047D01*
X130571931Y-60629901D01*
X131638268Y-60629900D01*
X131732054Y-60615047D01*
X131845092Y-60557451D01*
X131934800Y-60467743D01*
X131992396Y-60354705D01*
X132007250Y-60260920D01*
X132007249Y-59639083D01*
X131992396Y-59545297D01*
X131985262Y-59531296D01*
X131972365Y-59462627D01*
X131985261Y-59418705D01*
X131992396Y-59404704D01*
X132007250Y-59310919D01*
X132007249Y-58689082D01*
X132004544Y-58672000D01*
X133465001Y-58672000D01*
X133465001Y-59217477D01*
X133479836Y-59311149D01*
X133537358Y-59424045D01*
X133626953Y-59513640D01*
X133739853Y-59571165D01*
X133833516Y-59585999D01*
X133939999Y-59585999D01*
X133940000Y-59585998D01*
X133940000Y-58672000D01*
X133465001Y-58672000D01*
X132004544Y-58672000D01*
X131992396Y-58595296D01*
X131985262Y-58581295D01*
X131972365Y-58512626D01*
X131985261Y-58468704D01*
X131992396Y-58454703D01*
X132007250Y-58360918D01*
X132007249Y-57739081D01*
X131992396Y-57645295D01*
X131935024Y-57532696D01*
X131934800Y-57532256D01*
X131845093Y-57442549D01*
X131732052Y-57384952D01*
X131638271Y-57370099D01*
X131638269Y-57370099D01*
X131219732Y-57370099D01*
X131152693Y-57350414D01*
X131132051Y-57333780D01*
X129698269Y-55899999D01*
X132344721Y-55899999D01*
X132363763Y-56056818D01*
X132419780Y-56204523D01*
X132509515Y-56334528D01*
X132509516Y-56334529D01*
X132509517Y-56334530D01*
X132627760Y-56439283D01*
X132767635Y-56512696D01*
X132921015Y-56550500D01*
X133078983Y-56550500D01*
X133078985Y-56550500D01*
X133194278Y-56522083D01*
X133264076Y-56525152D01*
X133311627Y-56554797D01*
X133817956Y-57061126D01*
X133851441Y-57122448D01*
X133846457Y-57192140D01*
X133804585Y-57248073D01*
X133749674Y-57271279D01*
X133739852Y-57272834D01*
X133626954Y-57330358D01*
X133537359Y-57419953D01*
X133479834Y-57532853D01*
X133465000Y-57626515D01*
X133465000Y-58172000D01*
X134316000Y-58172000D01*
X134383039Y-58191685D01*
X134428794Y-58244489D01*
X134440000Y-58296000D01*
X134440000Y-59585999D01*
X134546478Y-59585999D01*
X134640147Y-59571164D01*
X134768155Y-59505941D01*
X134836824Y-59493045D01*
X134880745Y-59505941D01*
X134896656Y-59514048D01*
X134896658Y-59514050D01*
X135009696Y-59571646D01*
X135103481Y-59586500D01*
X135816518Y-59586499D01*
X135910304Y-59571646D01*
X136023342Y-59514050D01*
X136023342Y-59514049D01*
X136039254Y-59505942D01*
X136107923Y-59493046D01*
X136151844Y-59505942D01*
X136279853Y-59571165D01*
X136373516Y-59585999D01*
X136479999Y-59585999D01*
X136480000Y-59585998D01*
X136480000Y-58296000D01*
X136499685Y-58228961D01*
X136552489Y-58183206D01*
X136604000Y-58172000D01*
X136856000Y-58172000D01*
X136923039Y-58191685D01*
X136968794Y-58244489D01*
X136980000Y-58296000D01*
X136980000Y-59585999D01*
X137086478Y-59585999D01*
X137180147Y-59571164D01*
X137308155Y-59505941D01*
X137376824Y-59493045D01*
X137420745Y-59505941D01*
X137436656Y-59514048D01*
X137436658Y-59514050D01*
X137549696Y-59571646D01*
X137605310Y-59580454D01*
X137643474Y-59586499D01*
X137643475Y-59586499D01*
X137643481Y-59586500D01*
X137648781Y-59586499D01*
X137715819Y-59606179D01*
X137761577Y-59658980D01*
X137771525Y-59728138D01*
X137742504Y-59791696D01*
X137741602Y-59792725D01*
X137636675Y-59911165D01*
X137559990Y-60057274D01*
X137537131Y-60150020D01*
X137520500Y-60217494D01*
X137520500Y-60382506D01*
X137531684Y-60427880D01*
X137559990Y-60542725D01*
X137634205Y-60684129D01*
X137636675Y-60688835D01*
X137712176Y-60774058D01*
X137746100Y-60812350D01*
X137881900Y-60906087D01*
X137934339Y-60925974D01*
X138036191Y-60964601D01*
X138158895Y-60979500D01*
X138162644Y-60979500D01*
X138237356Y-60979500D01*
X138241105Y-60979500D01*
X138363809Y-60964601D01*
X138518099Y-60906087D01*
X138653901Y-60812349D01*
X138763325Y-60688835D01*
X138840010Y-60542724D01*
X138879500Y-60382506D01*
X138879500Y-60217494D01*
X138840010Y-60057276D01*
X138763325Y-59911165D01*
X138653901Y-59787651D01*
X138558535Y-59721824D01*
X138514546Y-59667541D01*
X138506887Y-59598093D01*
X138537991Y-59535528D01*
X138553882Y-59523510D01*
X138653049Y-59424343D01*
X138656592Y-59417390D01*
X138710646Y-59311304D01*
X138725500Y-59217519D01*
X138725499Y-57626482D01*
X138710646Y-57532696D01*
X138664713Y-57442548D01*
X138653050Y-57419657D01*
X138563343Y-57329950D01*
X138450302Y-57272353D01*
X138356521Y-57257500D01*
X138356519Y-57257500D01*
X138052031Y-57257500D01*
X137984992Y-57237815D01*
X137964350Y-57221181D01*
X137712441Y-56969272D01*
X137709498Y-56966227D01*
X137683015Y-56937871D01*
X137667755Y-56921531D01*
X137667754Y-56921530D01*
X137667753Y-56921529D01*
X137634488Y-56901300D01*
X137623992Y-56894157D01*
X137618891Y-56890289D01*
X137592975Y-56870636D01*
X137592973Y-56870635D01*
X137577488Y-56864528D01*
X137558556Y-56855125D01*
X137544327Y-56846473D01*
X137506843Y-56835970D01*
X137494810Y-56831924D01*
X137458586Y-56817639D01*
X137442021Y-56815936D01*
X137421255Y-56811990D01*
X137405228Y-56807500D01*
X137366296Y-56807500D01*
X137353616Y-56806850D01*
X137350031Y-56806481D01*
X137314890Y-56802868D01*
X137300564Y-56805339D01*
X137298486Y-56805697D01*
X137277419Y-56807500D01*
X136121110Y-56807500D01*
X136116876Y-56807428D01*
X136055753Y-56805339D01*
X136017931Y-56814556D01*
X136005464Y-56816925D01*
X135966891Y-56822227D01*
X135951615Y-56828863D01*
X135931583Y-56835599D01*
X135915408Y-56839541D01*
X135881475Y-56858620D01*
X135870110Y-56864265D01*
X135834389Y-56879781D01*
X135821473Y-56890289D01*
X135804003Y-56902179D01*
X135789487Y-56910341D01*
X135761958Y-56937871D01*
X135752533Y-56946377D01*
X135728136Y-56966227D01*
X135722333Y-56970948D01*
X135712733Y-56984547D01*
X135699114Y-57000714D01*
X135559180Y-57140648D01*
X135497857Y-57174133D01*
X135428165Y-57169149D01*
X135383818Y-57140648D01*
X133779441Y-55536272D01*
X133776498Y-55533227D01*
X133734753Y-55488529D01*
X133701488Y-55468300D01*
X133690992Y-55461157D01*
X133659975Y-55437636D01*
X133659973Y-55437635D01*
X133644488Y-55431528D01*
X133625556Y-55422125D01*
X133611327Y-55413473D01*
X133573843Y-55402970D01*
X133561810Y-55398924D01*
X133525586Y-55384639D01*
X133509021Y-55382936D01*
X133488255Y-55378990D01*
X133472228Y-55374500D01*
X133433296Y-55374500D01*
X133420597Y-55373848D01*
X133420211Y-55373808D01*
X133415332Y-55373306D01*
X133370406Y-55359754D01*
X133232366Y-55287303D01*
X133078985Y-55249500D01*
X132921015Y-55249500D01*
X132767635Y-55287303D01*
X132627761Y-55360716D01*
X132509515Y-55465471D01*
X132419780Y-55595476D01*
X132363763Y-55743181D01*
X132344721Y-55899999D01*
X129698269Y-55899999D01*
X128422042Y-54623772D01*
X128419099Y-54620727D01*
X128386860Y-54586207D01*
X128377356Y-54576031D01*
X128377355Y-54576030D01*
X128377354Y-54576029D01*
X128344089Y-54555800D01*
X128333593Y-54548657D01*
X128302576Y-54525136D01*
X128302574Y-54525135D01*
X128287089Y-54519028D01*
X128268157Y-54509625D01*
X128253928Y-54500973D01*
X128216444Y-54490470D01*
X128204411Y-54486424D01*
X128168187Y-54472139D01*
X128151622Y-54470436D01*
X128130856Y-54466490D01*
X128114829Y-54462000D01*
X128075897Y-54462000D01*
X128063217Y-54461350D01*
X128059632Y-54460981D01*
X128024491Y-54457368D01*
X128009443Y-54459963D01*
X128008087Y-54460197D01*
X127987020Y-54462000D01*
X127525837Y-54462000D01*
X127458798Y-54442315D01*
X127413043Y-54389511D01*
X127403099Y-54320353D01*
X127432124Y-54256797D01*
X127438156Y-54250319D01*
X127483723Y-54204752D01*
X127531598Y-54156877D01*
X127657102Y-53977639D01*
X127742028Y-53795514D01*
X133464500Y-53795514D01*
X133464501Y-53795518D01*
X133479354Y-53889304D01*
X133479354Y-53889305D01*
X133479355Y-53889306D01*
X133536949Y-54002342D01*
X133626656Y-54092049D01*
X133626658Y-54092050D01*
X133739696Y-54149646D01*
X133833481Y-54164500D01*
X134247900Y-54164499D01*
X134314939Y-54184183D01*
X134360694Y-54236987D01*
X134363842Y-54244528D01*
X134419779Y-54392023D01*
X134509515Y-54522028D01*
X134509516Y-54522029D01*
X134509517Y-54522030D01*
X134627760Y-54626783D01*
X134767635Y-54700196D01*
X134921015Y-54738000D01*
X135078985Y-54738000D01*
X135232365Y-54700196D01*
X135372240Y-54626783D01*
X135490483Y-54522030D01*
X135580220Y-54392023D01*
X135636157Y-54244527D01*
X135678335Y-54188825D01*
X135743932Y-54164768D01*
X135752099Y-54164499D01*
X135816514Y-54164499D01*
X135816518Y-54164499D01*
X135910304Y-54149646D01*
X136023342Y-54092050D01*
X136023343Y-54092048D01*
X136038704Y-54084222D01*
X136107373Y-54071326D01*
X136151293Y-54084222D01*
X136296594Y-54158256D01*
X136347391Y-54206230D01*
X136363396Y-54253794D01*
X136363763Y-54256818D01*
X136419780Y-54404523D01*
X136509515Y-54534528D01*
X136509516Y-54534529D01*
X136509517Y-54534530D01*
X136627760Y-54639283D01*
X136767635Y-54712696D01*
X136921015Y-54750500D01*
X137078985Y-54750500D01*
X137232365Y-54712696D01*
X137372240Y-54639283D01*
X137490483Y-54534530D01*
X137580220Y-54404523D01*
X137636237Y-54256818D01*
X137636236Y-54256818D01*
X137640898Y-54244528D01*
X137683076Y-54188825D01*
X137748673Y-54164768D01*
X137756840Y-54164499D01*
X138356514Y-54164499D01*
X138356518Y-54164499D01*
X138450304Y-54149646D01*
X138563342Y-54092050D01*
X138653050Y-54002342D01*
X138710646Y-53889304D01*
X138725500Y-53795519D01*
X138725499Y-52204482D01*
X138710646Y-52110696D01*
X138672919Y-52036652D01*
X138653050Y-51997657D01*
X138563343Y-51907950D01*
X138450302Y-51850353D01*
X138356521Y-51835500D01*
X137643485Y-51835500D01*
X137597937Y-51842714D01*
X137549696Y-51850354D01*
X137549694Y-51850354D01*
X137549693Y-51850355D01*
X137421294Y-51915777D01*
X137352625Y-51928673D01*
X137308706Y-51915777D01*
X137180304Y-51850353D01*
X137086521Y-51835500D01*
X137086519Y-51835500D01*
X136619154Y-51835500D01*
X136552115Y-51815815D01*
X136506360Y-51763011D01*
X136496416Y-51693853D01*
X136503212Y-51667529D01*
X136526237Y-51606818D01*
X136545278Y-51450000D01*
X136544448Y-51443168D01*
X136537891Y-51389162D01*
X136526237Y-51293182D01*
X136470220Y-51145477D01*
X136425351Y-51080473D01*
X136380484Y-51015471D01*
X136380483Y-51015470D01*
X136262240Y-50910717D01*
X136177745Y-50866370D01*
X136122364Y-50837303D01*
X135968985Y-50799500D01*
X135811015Y-50799500D01*
X135657635Y-50837303D01*
X135517761Y-50910716D01*
X135399515Y-51015471D01*
X135309780Y-51145476D01*
X135253763Y-51293181D01*
X135234721Y-51449999D01*
X135253763Y-51606820D01*
X135276787Y-51667530D01*
X135282154Y-51737193D01*
X135249006Y-51798699D01*
X135187867Y-51832520D01*
X135160847Y-51835500D01*
X135103486Y-51835500D01*
X135064921Y-51841607D01*
X135009696Y-51850354D01*
X135009694Y-51850354D01*
X135009693Y-51850355D01*
X134881294Y-51915777D01*
X134812625Y-51928673D01*
X134768706Y-51915777D01*
X134640304Y-51850353D01*
X134546521Y-51835500D01*
X133833485Y-51835500D01*
X133787937Y-51842714D01*
X133739696Y-51850354D01*
X133739694Y-51850354D01*
X133739693Y-51850355D01*
X133626657Y-51907949D01*
X133536950Y-51997656D01*
X133479353Y-52110697D01*
X133464500Y-52204478D01*
X133464500Y-53795514D01*
X127742028Y-53795514D01*
X127749575Y-53779330D01*
X127806207Y-53567977D01*
X127825277Y-53350000D01*
X127806207Y-53132023D01*
X127749575Y-52920670D01*
X127657102Y-52722362D01*
X127531598Y-52543123D01*
X127376877Y-52388402D01*
X127197639Y-52262898D01*
X127072372Y-52204485D01*
X126999331Y-52170425D01*
X126870347Y-52135864D01*
X126810687Y-52099499D01*
X126780158Y-52036652D01*
X126788453Y-51967276D01*
X126814760Y-51928408D01*
X127362728Y-51380440D01*
X128072703Y-50670465D01*
X128130707Y-50637751D01*
X128232365Y-50612696D01*
X128372240Y-50539283D01*
X128490483Y-50434530D01*
X128580220Y-50304523D01*
X128636237Y-50156818D01*
X128655278Y-50000000D01*
X128636237Y-49843182D01*
X128580220Y-49695477D01*
X128505689Y-49587500D01*
X128490484Y-49565471D01*
X128451322Y-49530777D01*
X128372240Y-49460717D01*
X128358994Y-49453765D01*
X128232364Y-49387303D01*
X128078985Y-49349500D01*
X127921015Y-49349500D01*
X127767635Y-49387303D01*
X127627758Y-49460718D01*
X127582226Y-49501056D01*
X127518993Y-49530777D01*
X127449729Y-49521593D01*
X127417774Y-49501056D01*
X127372241Y-49460718D01*
X127372240Y-49460717D01*
X127257508Y-49400500D01*
X127232364Y-49387303D01*
X127078985Y-49349500D01*
X126921015Y-49349500D01*
X126767635Y-49387303D01*
X126627761Y-49460716D01*
X126509515Y-49565471D01*
X126419780Y-49695476D01*
X126363763Y-49843181D01*
X126353675Y-49926255D01*
X126326052Y-49990433D01*
X126318260Y-49998988D01*
X124704069Y-51613181D01*
X124642746Y-51646666D01*
X124616388Y-51649500D01*
X123554409Y-51649500D01*
X123550175Y-51649428D01*
X123489052Y-51647339D01*
X123451230Y-51656556D01*
X123438763Y-51658925D01*
X123400190Y-51664227D01*
X123384914Y-51670863D01*
X123364882Y-51677599D01*
X123348707Y-51681541D01*
X123314774Y-51700620D01*
X123303409Y-51706265D01*
X123267688Y-51721781D01*
X123254772Y-51732289D01*
X123237302Y-51744179D01*
X123222786Y-51752341D01*
X123195257Y-51779871D01*
X123185833Y-51788377D01*
X123155632Y-51812948D01*
X123146032Y-51826547D01*
X123132413Y-51842714D01*
X122529482Y-52445645D01*
X122468159Y-52479130D01*
X122398467Y-52474146D01*
X122354120Y-52445645D01*
X122296880Y-52388405D01*
X122296880Y-52388404D01*
X122296877Y-52388402D01*
X122117639Y-52262898D01*
X121992372Y-52204485D01*
X121919331Y-52170425D01*
X121707974Y-52113792D01*
X121489999Y-52094722D01*
X121272025Y-52113792D01*
X121060668Y-52170425D01*
X120862361Y-52262898D01*
X120683122Y-52388402D01*
X120528402Y-52543122D01*
X120425574Y-52689977D01*
X120370997Y-52733602D01*
X120301499Y-52740795D01*
X120239144Y-52709273D01*
X120203730Y-52649043D01*
X120199999Y-52618854D01*
X120199999Y-52468522D01*
X120185163Y-52374850D01*
X120127641Y-52261954D01*
X120038046Y-52172359D01*
X119925146Y-52114834D01*
X119831484Y-52100000D01*
X119200000Y-52100000D01*
X119200000Y-52914498D01*
X119092315Y-52865320D01*
X118985763Y-52850000D01*
X118914237Y-52850000D01*
X118807685Y-52865320D01*
X118700000Y-52914498D01*
X118700000Y-52100000D01*
X118068522Y-52100000D01*
X117974850Y-52114836D01*
X117861954Y-52172358D01*
X117772359Y-52261953D01*
X117714834Y-52374853D01*
X117699999Y-52468515D01*
X117700000Y-53100000D01*
X118516314Y-53100000D01*
X118490507Y-53140156D01*
X118450000Y-53278111D01*
X118450000Y-53421889D01*
X118490507Y-53559844D01*
X118516314Y-53600000D01*
X117700001Y-53600000D01*
X117700001Y-53875500D01*
X117680316Y-53942539D01*
X117627512Y-53988294D01*
X117576001Y-53999500D01*
X115517962Y-53999500D01*
X115450923Y-53979815D01*
X115430281Y-53963181D01*
X113920677Y-52453577D01*
X113887192Y-52392254D01*
X113892176Y-52322562D01*
X113920677Y-52278215D01*
X113942319Y-52256573D01*
X114003642Y-52223088D01*
X114073334Y-52228072D01*
X114117683Y-52256574D01*
X114126658Y-52265550D01*
X114239696Y-52323146D01*
X114333481Y-52338000D01*
X114996518Y-52337999D01*
X115090304Y-52323146D01*
X115203342Y-52265550D01*
X115293050Y-52175842D01*
X115350646Y-52062804D01*
X115365500Y-51969019D01*
X115365499Y-49955982D01*
X115350646Y-49862196D01*
X115300000Y-49762798D01*
X115293050Y-49749157D01*
X115203343Y-49659450D01*
X115090302Y-49601853D01*
X114996521Y-49587000D01*
X114333485Y-49587000D01*
X114286588Y-49594427D01*
X114239696Y-49601854D01*
X114239694Y-49601854D01*
X114239693Y-49601855D01*
X114126657Y-49659449D01*
X114117681Y-49668426D01*
X114056358Y-49701911D01*
X113986666Y-49696927D01*
X113942319Y-49668426D01*
X113933343Y-49659450D01*
X113820302Y-49601853D01*
X113726521Y-49587000D01*
X113063485Y-49587000D01*
X113016588Y-49594427D01*
X112969696Y-49601854D01*
X112969694Y-49601854D01*
X112969693Y-49601855D01*
X112856657Y-49659449D01*
X112847681Y-49668426D01*
X112786358Y-49701911D01*
X112716666Y-49696927D01*
X112672319Y-49668426D01*
X112663343Y-49659450D01*
X112550302Y-49601853D01*
X112456521Y-49587000D01*
X112456519Y-49587000D01*
X112101470Y-49587000D01*
X112034431Y-49567315D01*
X111988676Y-49514511D01*
X111987735Y-49512400D01*
X111984136Y-49504114D01*
X111982752Y-49499999D01*
X117704722Y-49499999D01*
X117723792Y-49717974D01*
X117780425Y-49929331D01*
X117792853Y-49955982D01*
X117872898Y-50127639D01*
X117998402Y-50306877D01*
X118153123Y-50461598D01*
X118332361Y-50587102D01*
X118530670Y-50679575D01*
X118742023Y-50736207D01*
X118960000Y-50755277D01*
X119177977Y-50736207D01*
X119389330Y-50679575D01*
X119587639Y-50587102D01*
X119766877Y-50461598D01*
X119921598Y-50306877D01*
X120023928Y-50160734D01*
X120078502Y-50117112D01*
X120148000Y-50109918D01*
X120210355Y-50141441D01*
X120245769Y-50201670D01*
X120249500Y-50231859D01*
X120249500Y-50381514D01*
X120252930Y-50403171D01*
X120264354Y-50475304D01*
X120264354Y-50475305D01*
X120264355Y-50475306D01*
X120321949Y-50588342D01*
X120411656Y-50678049D01*
X120411658Y-50678050D01*
X120524696Y-50735646D01*
X120618481Y-50750500D01*
X122381518Y-50750499D01*
X122475304Y-50735646D01*
X122588342Y-50678050D01*
X122678050Y-50588342D01*
X122735646Y-50475304D01*
X122750500Y-50381519D01*
X122750499Y-48749999D01*
X130782221Y-48749999D01*
X130801263Y-48906818D01*
X130857280Y-49054523D01*
X130947015Y-49184528D01*
X130947016Y-49184529D01*
X130947017Y-49184530D01*
X131065260Y-49289283D01*
X131205135Y-49362696D01*
X131358515Y-49400500D01*
X131516485Y-49400500D01*
X131669865Y-49362696D01*
X131809740Y-49289283D01*
X131927983Y-49184530D01*
X132017720Y-49054523D01*
X132073737Y-48906818D01*
X132092778Y-48750000D01*
X132073737Y-48593182D01*
X132017720Y-48445477D01*
X131948392Y-48345037D01*
X131927984Y-48315471D01*
X131925211Y-48313014D01*
X131809740Y-48210717D01*
X131714284Y-48160617D01*
X131669864Y-48137303D01*
X131516485Y-48099500D01*
X131358515Y-48099500D01*
X131205135Y-48137303D01*
X131065261Y-48210716D01*
X130947015Y-48315471D01*
X130857280Y-48445476D01*
X130801263Y-48593181D01*
X130782221Y-48749999D01*
X122750499Y-48749999D01*
X122750499Y-48618482D01*
X122735646Y-48524696D01*
X122678682Y-48412898D01*
X122678050Y-48411657D01*
X122588343Y-48321950D01*
X122475302Y-48264353D01*
X122381521Y-48249500D01*
X120618485Y-48249500D01*
X120571589Y-48256927D01*
X120524696Y-48264354D01*
X120524694Y-48264354D01*
X120524693Y-48264355D01*
X120411657Y-48321949D01*
X120321950Y-48411656D01*
X120264353Y-48524697D01*
X120249499Y-48618478D01*
X120249500Y-48768138D01*
X120229815Y-48835177D01*
X120177011Y-48880932D01*
X120107853Y-48890876D01*
X120044297Y-48861851D01*
X120023925Y-48839262D01*
X120002586Y-48808787D01*
X119921598Y-48693123D01*
X119766877Y-48538402D01*
X119587639Y-48412898D01*
X119442111Y-48345037D01*
X119389331Y-48320425D01*
X119177974Y-48263792D01*
X118960000Y-48244722D01*
X118742025Y-48263792D01*
X118530668Y-48320425D01*
X118332361Y-48412898D01*
X118153122Y-48538402D01*
X117998402Y-48693122D01*
X117872898Y-48872361D01*
X117780425Y-49070668D01*
X117723792Y-49282025D01*
X117704722Y-49499999D01*
X111982752Y-49499999D01*
X111977396Y-49484070D01*
X111973457Y-49467906D01*
X111973457Y-49467905D01*
X111954374Y-49433967D01*
X111948733Y-49422608D01*
X111933219Y-49386891D01*
X111922706Y-49373969D01*
X111910813Y-49356494D01*
X111902657Y-49341988D01*
X111875133Y-49314464D01*
X111866626Y-49305038D01*
X111853808Y-49289283D01*
X111842054Y-49274835D01*
X111828450Y-49265232D01*
X111812278Y-49251609D01*
X111196941Y-48636272D01*
X111193998Y-48633227D01*
X111180223Y-48618478D01*
X111152255Y-48588531D01*
X111152254Y-48588530D01*
X111152253Y-48588529D01*
X111118988Y-48568300D01*
X111108492Y-48561157D01*
X111077475Y-48537636D01*
X111077473Y-48537635D01*
X111061988Y-48531528D01*
X111043056Y-48522125D01*
X111028827Y-48513473D01*
X110991343Y-48502970D01*
X110979310Y-48498924D01*
X110943086Y-48484639D01*
X110926521Y-48482936D01*
X110905755Y-48478990D01*
X110889728Y-48474500D01*
X110850796Y-48474500D01*
X110838116Y-48473850D01*
X110834531Y-48473481D01*
X110799390Y-48469868D01*
X110785058Y-48472340D01*
X110782986Y-48472697D01*
X110761919Y-48474500D01*
X109100115Y-48474500D01*
X109033076Y-48454815D01*
X108987321Y-48402011D01*
X108977377Y-48332853D01*
X109006402Y-48269297D01*
X109012434Y-48262819D01*
X109406846Y-47868407D01*
X110071585Y-47203668D01*
X110129589Y-47170954D01*
X110231247Y-47145899D01*
X110370320Y-47072906D01*
X110427946Y-47058703D01*
X111851671Y-47058703D01*
X111918710Y-47078388D01*
X111939352Y-47095022D01*
X112076611Y-47232281D01*
X112110096Y-47293604D01*
X112112026Y-47305014D01*
X112113763Y-47319319D01*
X112169779Y-47467023D01*
X112259515Y-47597028D01*
X112259516Y-47597029D01*
X112259517Y-47597030D01*
X112377760Y-47701783D01*
X112517635Y-47775196D01*
X112671015Y-47813000D01*
X112828985Y-47813000D01*
X112982365Y-47775196D01*
X113122240Y-47701783D01*
X113240483Y-47597030D01*
X113330220Y-47467023D01*
X113386237Y-47319318D01*
X113405278Y-47162500D01*
X113386237Y-47005682D01*
X113368823Y-46959767D01*
X113363457Y-46890105D01*
X113396604Y-46828599D01*
X113457743Y-46794777D01*
X113527461Y-46799379D01*
X113572447Y-46828116D01*
X113976610Y-47232279D01*
X114010095Y-47293602D01*
X114012024Y-47305009D01*
X114013761Y-47319315D01*
X114069779Y-47467023D01*
X114159515Y-47597028D01*
X114159516Y-47597029D01*
X114159517Y-47597030D01*
X114277760Y-47701783D01*
X114417635Y-47775196D01*
X114571015Y-47813000D01*
X114728985Y-47813000D01*
X114882365Y-47775196D01*
X115022240Y-47701783D01*
X115140483Y-47597030D01*
X115230220Y-47467023D01*
X115286237Y-47319318D01*
X115305278Y-47162500D01*
X115286237Y-47005682D01*
X115230220Y-46857977D01*
X115140483Y-46727970D01*
X115022240Y-46623217D01*
X115022238Y-46623216D01*
X115022237Y-46623215D01*
X114882364Y-46549803D01*
X114846611Y-46540991D01*
X114786231Y-46505835D01*
X114754443Y-46443615D01*
X114761340Y-46374086D01*
X114804733Y-46319324D01*
X114819993Y-46310110D01*
X114824486Y-46307820D01*
X114824488Y-46307820D01*
X114993149Y-46221883D01*
X115103380Y-46132619D01*
X115244740Y-45991257D01*
X115259531Y-45978626D01*
X115270871Y-45970388D01*
X115316265Y-45919971D01*
X115320721Y-45915277D01*
X115332813Y-45903186D01*
X115332814Y-45903184D01*
X115335119Y-45900880D01*
X115347945Y-45885040D01*
X115352135Y-45880135D01*
X115397533Y-45829716D01*
X115404542Y-45817574D01*
X115415560Y-45801542D01*
X115424383Y-45790649D01*
X115455193Y-45730177D01*
X115458248Y-45724551D01*
X115492179Y-45665784D01*
X115496509Y-45652456D01*
X115503960Y-45634468D01*
X115504946Y-45632533D01*
X115510320Y-45621988D01*
X115527882Y-45556437D01*
X115529703Y-45550294D01*
X115550674Y-45485756D01*
X115552139Y-45471805D01*
X115555683Y-45452686D01*
X115559312Y-45439146D01*
X115562861Y-45371409D01*
X115563370Y-45364954D01*
X115565161Y-45347919D01*
X115565161Y-45347915D01*
X115565500Y-45344692D01*
X115565500Y-45324319D01*
X115565670Y-45317829D01*
X115569219Y-45250112D01*
X115567027Y-45236271D01*
X115565500Y-45216873D01*
X115565500Y-44131482D01*
X118245500Y-44131482D01*
X118284691Y-44391507D01*
X118329103Y-44535485D01*
X118362202Y-44642788D01*
X118411676Y-44745521D01*
X118476296Y-44879707D01*
X118476297Y-44879709D01*
X118476298Y-44879710D01*
X118624430Y-45096980D01*
X118803290Y-45289746D01*
X119008883Y-45453701D01*
X119236616Y-45585183D01*
X119481402Y-45681254D01*
X119737772Y-45739769D01*
X119934346Y-45754500D01*
X119936663Y-45754500D01*
X120063337Y-45754500D01*
X120065654Y-45754500D01*
X120262228Y-45739769D01*
X120518598Y-45681254D01*
X120763384Y-45585183D01*
X120991117Y-45453701D01*
X121196710Y-45289746D01*
X121375570Y-45096980D01*
X121523702Y-44879710D01*
X121637798Y-44642788D01*
X121715308Y-44391508D01*
X121754500Y-44131482D01*
X121754500Y-43868518D01*
X121728625Y-43696849D01*
X121715308Y-43608492D01*
X121703869Y-43571409D01*
X121637798Y-43357212D01*
X121523702Y-43120290D01*
X121375570Y-42903020D01*
X121196710Y-42710254D01*
X121137759Y-42663242D01*
X126499500Y-42663242D01*
X126499816Y-42666353D01*
X126499817Y-42666365D01*
X126514926Y-42814940D01*
X126575840Y-43009086D01*
X126583919Y-43023641D01*
X126599500Y-43083819D01*
X126599499Y-43881873D01*
X126597973Y-43901267D01*
X126595780Y-43915110D01*
X126599330Y-43982835D01*
X126599500Y-43989324D01*
X126599500Y-44009692D01*
X126599837Y-44012904D01*
X126599838Y-44012913D01*
X126601628Y-44029947D01*
X126602136Y-44036409D01*
X126605686Y-44104145D01*
X126609315Y-44117687D01*
X126612860Y-44136815D01*
X126614325Y-44150754D01*
X126635282Y-44215254D01*
X126637125Y-44221476D01*
X126654679Y-44286987D01*
X126661042Y-44299474D01*
X126668489Y-44317453D01*
X126672820Y-44330783D01*
X126706725Y-44389508D01*
X126709823Y-44395213D01*
X126740615Y-44455646D01*
X126740617Y-44455649D01*
X126749436Y-44466539D01*
X126760458Y-44482576D01*
X126767466Y-44494715D01*
X126812854Y-44545125D01*
X126817067Y-44550057D01*
X126829881Y-44565880D01*
X126832180Y-44568179D01*
X126844274Y-44580273D01*
X126848743Y-44584982D01*
X126894129Y-44635388D01*
X126904360Y-44642821D01*
X126905467Y-44643625D01*
X126920265Y-44656264D01*
X127352641Y-45088640D01*
X127386126Y-45149963D01*
X127388431Y-45164879D01*
X127388923Y-45170198D01*
X127446005Y-45370819D01*
X127538978Y-45557535D01*
X127664682Y-45723994D01*
X127818826Y-45864514D01*
X127818828Y-45864515D01*
X127818829Y-45864516D01*
X127996172Y-45974323D01*
X128190673Y-46049673D01*
X128395707Y-46088000D01*
X128395709Y-46088000D01*
X128469468Y-46088000D01*
X128536507Y-46107685D01*
X128582262Y-46160489D01*
X128592206Y-46229647D01*
X128563181Y-46293203D01*
X128557149Y-46299681D01*
X127727298Y-47129531D01*
X127669294Y-47162246D01*
X127567635Y-47187303D01*
X127427762Y-47260715D01*
X127309515Y-47365471D01*
X127219780Y-47495476D01*
X127163763Y-47643181D01*
X127144721Y-47799999D01*
X127163763Y-47956818D01*
X127219780Y-48104523D01*
X127309515Y-48234528D01*
X127309516Y-48234529D01*
X127309517Y-48234530D01*
X127427760Y-48339283D01*
X127567635Y-48412696D01*
X127721015Y-48450500D01*
X127878985Y-48450500D01*
X128032365Y-48412696D01*
X128172240Y-48339283D01*
X128290483Y-48234530D01*
X128380220Y-48104523D01*
X128436237Y-47956818D01*
X128437973Y-47942515D01*
X128465593Y-47878338D01*
X128473377Y-47869791D01*
X129631349Y-46711818D01*
X129692673Y-46678334D01*
X129719031Y-46675500D01*
X131326390Y-46675500D01*
X131330623Y-46675571D01*
X131391745Y-46677660D01*
X131391745Y-46677659D01*
X131391746Y-46677660D01*
X131406206Y-46674135D01*
X131429570Y-46668441D01*
X131442032Y-46666073D01*
X131480611Y-46660771D01*
X131495892Y-46654132D01*
X131515921Y-46647397D01*
X131532094Y-46643457D01*
X131566031Y-46624374D01*
X131577379Y-46618737D01*
X131613109Y-46603219D01*
X131626021Y-46592713D01*
X131643508Y-46580813D01*
X131649791Y-46577279D01*
X131658012Y-46572658D01*
X131685543Y-46545125D01*
X131694958Y-46536628D01*
X131725165Y-46512054D01*
X131725166Y-46512052D01*
X131738388Y-46501296D01*
X131740661Y-46504090D01*
X131772945Y-46478476D01*
X131789850Y-46472997D01*
X131882365Y-46450196D01*
X132022240Y-46376783D01*
X132140483Y-46272030D01*
X132230220Y-46142023D01*
X132239320Y-46118027D01*
X132281495Y-46062327D01*
X132347092Y-46038268D01*
X132355261Y-46037999D01*
X132531514Y-46037999D01*
X132531518Y-46037999D01*
X132625304Y-46023146D01*
X132738342Y-45965550D01*
X132762065Y-45941826D01*
X132823388Y-45908340D01*
X132893080Y-45913324D01*
X132915025Y-45924078D01*
X132996172Y-45974323D01*
X133190673Y-46049673D01*
X133395707Y-46088000D01*
X133395709Y-46088000D01*
X133604291Y-46088000D01*
X133604293Y-46088000D01*
X133809327Y-46049673D01*
X134003828Y-45974323D01*
X134181171Y-45864516D01*
X134316373Y-45741264D01*
X134335317Y-45723994D01*
X134412347Y-45621990D01*
X134461019Y-45557538D01*
X134461019Y-45557536D01*
X134461021Y-45557535D01*
X134553994Y-45370819D01*
X134588338Y-45250112D01*
X134611076Y-45170196D01*
X134611569Y-45164879D01*
X134637350Y-45099946D01*
X134647349Y-45088648D01*
X135079742Y-44656256D01*
X135094527Y-44643629D01*
X135105871Y-44635388D01*
X135151256Y-44584981D01*
X135155712Y-44580287D01*
X135155726Y-44580273D01*
X135170120Y-44565880D01*
X135182964Y-44550017D01*
X135187152Y-44545115D01*
X135195823Y-44535485D01*
X135232533Y-44494716D01*
X135239544Y-44482571D01*
X135250564Y-44466539D01*
X135250566Y-44466537D01*
X135259383Y-44455649D01*
X135290179Y-44395206D01*
X135293264Y-44389526D01*
X135305421Y-44368469D01*
X135327179Y-44330784D01*
X135331513Y-44317443D01*
X135338957Y-44299474D01*
X135345320Y-44286987D01*
X135362874Y-44221473D01*
X135364714Y-44215261D01*
X135385674Y-44150756D01*
X135387140Y-44136805D01*
X135390684Y-44117687D01*
X135394313Y-44104145D01*
X135397862Y-44036406D01*
X135398371Y-44029947D01*
X135400161Y-44012921D01*
X135400161Y-44012913D01*
X135400500Y-44009692D01*
X135400500Y-43989324D01*
X135400670Y-43982835D01*
X135404219Y-43915112D01*
X135402119Y-43901855D01*
X135402027Y-43901271D01*
X135400500Y-43881873D01*
X135400500Y-43076619D01*
X135410549Y-43027719D01*
X135412299Y-43023641D01*
X135459540Y-42913558D01*
X135500500Y-42714241D01*
X135500500Y-41861758D01*
X135485074Y-41710062D01*
X135424159Y-41515912D01*
X135325409Y-41337998D01*
X135192866Y-41183605D01*
X135031958Y-41059052D01*
X135031957Y-41059051D01*
X134849272Y-40969440D01*
X134763019Y-40947108D01*
X134652285Y-40918437D01*
X134635765Y-40917599D01*
X134540998Y-40912792D01*
X134533391Y-40912000D01*
X134531519Y-40912000D01*
X134528499Y-40912000D01*
X134522220Y-40911841D01*
X134449064Y-40908131D01*
X134449063Y-40908131D01*
X134449060Y-40908131D01*
X134433141Y-40910570D01*
X134414366Y-40912000D01*
X133268485Y-40912000D01*
X133227843Y-40918437D01*
X133174696Y-40926854D01*
X133174694Y-40926854D01*
X133174693Y-40926855D01*
X133081294Y-40974444D01*
X133012625Y-40987340D01*
X132968705Y-40974444D01*
X132875302Y-40926853D01*
X132781521Y-40912000D01*
X131218485Y-40912000D01*
X131177843Y-40918437D01*
X131124696Y-40926854D01*
X131124694Y-40926854D01*
X131124693Y-40926855D01*
X131056294Y-40961706D01*
X130987625Y-40974602D01*
X130943705Y-40961706D01*
X130875302Y-40926853D01*
X130781521Y-40912000D01*
X129218485Y-40912000D01*
X129177843Y-40918437D01*
X129124696Y-40926854D01*
X129124694Y-40926854D01*
X129124693Y-40926855D01*
X129031294Y-40974444D01*
X128962625Y-40987340D01*
X128918705Y-40974444D01*
X128825302Y-40926853D01*
X128731521Y-40912000D01*
X128731519Y-40912000D01*
X127528517Y-40912000D01*
X127522239Y-40911841D01*
X127485156Y-40909960D01*
X127449064Y-40908131D01*
X127449063Y-40908131D01*
X127247928Y-40938943D01*
X127057113Y-41009613D01*
X126884431Y-41117245D01*
X126814623Y-41183604D01*
X126736947Y-41257441D01*
X126736946Y-41257443D01*
X126620705Y-41424450D01*
X126581456Y-41515912D01*
X126540460Y-41611442D01*
X126499500Y-41810759D01*
X126499500Y-42663242D01*
X121137759Y-42663242D01*
X120991117Y-42546299D01*
X120991116Y-42546298D01*
X120763382Y-42414816D01*
X120518600Y-42318746D01*
X120262225Y-42260230D01*
X120067968Y-42245673D01*
X120067957Y-42245672D01*
X120065654Y-42245500D01*
X119934346Y-42245500D01*
X119932043Y-42245672D01*
X119932031Y-42245673D01*
X119737774Y-42260230D01*
X119481399Y-42318746D01*
X119236617Y-42414816D01*
X119008883Y-42546298D01*
X118803290Y-42710253D01*
X118624431Y-42903018D01*
X118476296Y-43120292D01*
X118362202Y-43357212D01*
X118284691Y-43608492D01*
X118245500Y-43868517D01*
X118245500Y-44131482D01*
X115565500Y-44131482D01*
X115565500Y-43416873D01*
X115565500Y-41515308D01*
X115550674Y-41374244D01*
X115492179Y-41194216D01*
X115492179Y-41194215D01*
X115414142Y-41059052D01*
X115397533Y-41030284D01*
X115397345Y-41030075D01*
X115397013Y-41029384D01*
X115391017Y-41018998D01*
X115391810Y-41018540D01*
X115367118Y-40967081D01*
X115365499Y-40947107D01*
X115365499Y-40555985D01*
X115365499Y-40555982D01*
X115350646Y-40462196D01*
X115301704Y-40366142D01*
X115293050Y-40349157D01*
X115256074Y-40312181D01*
X115222589Y-40250858D01*
X115227573Y-40181166D01*
X115269445Y-40125233D01*
X115334909Y-40100816D01*
X115343755Y-40100500D01*
X135973071Y-40100500D01*
X135997128Y-40100500D01*
X136002855Y-40100632D01*
G37*
%TD.AperFunction*%
%TA.AperFunction,Conductor*%
G36*
X118931641Y-55520185D02*
G01*
X118977396Y-55572989D01*
X118987340Y-55642147D01*
X118980784Y-55667834D01*
X118971798Y-55691927D01*
X118955588Y-55735386D01*
X118949500Y-55792015D01*
X118949500Y-55795325D01*
X118949500Y-57142794D01*
X118929815Y-57209833D01*
X118913181Y-57230475D01*
X118886270Y-57257386D01*
X118883227Y-57260327D01*
X118838531Y-57302071D01*
X118818301Y-57335336D01*
X118811162Y-57345826D01*
X118777341Y-57390429D01*
X118776701Y-57389944D01*
X118767453Y-57403156D01*
X118768068Y-57403581D01*
X118737613Y-57447702D01*
X118683330Y-57491692D01*
X118613882Y-57499351D01*
X118561254Y-57476528D01*
X118480226Y-57415872D01*
X118352112Y-57368086D01*
X118347669Y-57367609D01*
X118283119Y-57340869D01*
X118243272Y-57283475D01*
X118237832Y-57259267D01*
X118237786Y-57258886D01*
X118223737Y-57143182D01*
X118167720Y-56995477D01*
X118077983Y-56865470D01*
X117959740Y-56760717D01*
X117903059Y-56730968D01*
X117819864Y-56687303D01*
X117666485Y-56649500D01*
X117508515Y-56649500D01*
X117355135Y-56687303D01*
X117215261Y-56760716D01*
X117097015Y-56865471D01*
X117007280Y-56995476D01*
X116951263Y-57143181D01*
X116937167Y-57259268D01*
X116909545Y-57323446D01*
X116851610Y-57362502D01*
X116827326Y-57367610D01*
X116826259Y-57367725D01*
X116822882Y-57368088D01*
X116694774Y-57415871D01*
X116633981Y-57461380D01*
X116568517Y-57485796D01*
X116502046Y-57471908D01*
X116400866Y-57418803D01*
X116247485Y-57381000D01*
X116089515Y-57381000D01*
X115936135Y-57418803D01*
X115796258Y-57492218D01*
X115681725Y-57593684D01*
X115618492Y-57623405D01*
X115549228Y-57614221D01*
X115495925Y-57569048D01*
X115475506Y-57502229D01*
X115475499Y-57500999D01*
X115475499Y-55711111D01*
X115475571Y-55706877D01*
X115478242Y-55628720D01*
X115480802Y-55628807D01*
X115482884Y-55584072D01*
X115523350Y-55527114D01*
X115588186Y-55501075D01*
X115600109Y-55500500D01*
X118864602Y-55500500D01*
X118931641Y-55520185D01*
G37*
%TD.AperFunction*%
%TA.AperFunction,Conductor*%
G36*
X124293322Y-57620885D02*
G01*
X124322886Y-57631912D01*
X124379515Y-57638000D01*
X124620484Y-57637999D01*
X124640569Y-57635840D01*
X124709328Y-57648244D01*
X124760466Y-57695854D01*
X124777198Y-57761409D01*
X124814027Y-57802410D01*
X124844182Y-57865438D01*
X124835473Y-57934763D01*
X124800119Y-57977066D01*
X124800850Y-57977797D01*
X124792685Y-57985960D01*
X124790668Y-57988375D01*
X124789639Y-57989006D01*
X124761274Y-58017370D01*
X124751855Y-58025870D01*
X124721649Y-58050446D01*
X124712043Y-58064054D01*
X124698424Y-58080220D01*
X124465463Y-58313182D01*
X124404143Y-58346666D01*
X124377784Y-58349500D01*
X124321015Y-58349500D01*
X124167635Y-58387303D01*
X124027761Y-58460716D01*
X123909515Y-58565471D01*
X123819780Y-58695476D01*
X123763763Y-58843181D01*
X123744721Y-59000000D01*
X123763763Y-59156818D01*
X123819780Y-59304525D01*
X123840193Y-59334098D01*
X123862076Y-59400452D01*
X123844610Y-59468104D01*
X123793342Y-59515573D01*
X123767819Y-59524933D01*
X123717638Y-59537301D01*
X123577761Y-59610716D01*
X123459515Y-59715471D01*
X123369780Y-59845476D01*
X123313763Y-59993181D01*
X123294721Y-60150000D01*
X123313763Y-60306818D01*
X123369780Y-60454523D01*
X123459517Y-60584531D01*
X123470951Y-60594660D01*
X123508078Y-60653849D01*
X123508126Y-60720930D01*
X123502972Y-60739325D01*
X123498926Y-60751357D01*
X123478390Y-60803437D01*
X123475207Y-60802182D01*
X123464909Y-60830095D01*
X123419779Y-60895477D01*
X123363763Y-61043181D01*
X123344721Y-61200000D01*
X123363763Y-61356818D01*
X123419780Y-61504523D01*
X123509515Y-61634528D01*
X123509516Y-61634529D01*
X123509517Y-61634530D01*
X123627760Y-61739283D01*
X123767635Y-61812696D01*
X123921015Y-61850500D01*
X124078985Y-61850500D01*
X124232365Y-61812696D01*
X124372240Y-61739283D01*
X124490483Y-61634530D01*
X124556020Y-61539582D01*
X124610299Y-61495595D01*
X124679747Y-61487935D01*
X124742312Y-61519037D01*
X124778130Y-61579028D01*
X124779548Y-61586827D01*
X124791610Y-61619167D01*
X124796594Y-61688859D01*
X124791611Y-61705830D01*
X124780588Y-61735384D01*
X124774854Y-61788726D01*
X124774500Y-61792015D01*
X124774500Y-61795324D01*
X124774500Y-61795325D01*
X124774500Y-62029671D01*
X124774500Y-62029689D01*
X124774501Y-62032984D01*
X124774853Y-62036263D01*
X124774854Y-62036273D01*
X124780588Y-62089616D01*
X124791610Y-62119167D01*
X124796594Y-62188859D01*
X124791611Y-62205830D01*
X124780588Y-62235384D01*
X124780587Y-62235386D01*
X124780588Y-62235386D01*
X124774500Y-62292015D01*
X124774500Y-62295324D01*
X124774500Y-62295325D01*
X124774500Y-62529671D01*
X124774500Y-62529689D01*
X124774501Y-62532984D01*
X124774853Y-62536263D01*
X124774854Y-62536273D01*
X124780588Y-62589616D01*
X124791610Y-62619167D01*
X124796594Y-62688859D01*
X124791611Y-62705830D01*
X124780588Y-62735384D01*
X124775188Y-62785620D01*
X124774500Y-62792015D01*
X124774500Y-62795324D01*
X124774500Y-62795325D01*
X124774500Y-63029671D01*
X124774500Y-63029689D01*
X124774501Y-63032984D01*
X124774853Y-63036263D01*
X124774854Y-63036273D01*
X124780588Y-63089616D01*
X124791610Y-63119167D01*
X124796594Y-63188859D01*
X124791611Y-63205830D01*
X124780588Y-63235384D01*
X124777559Y-63263565D01*
X124774500Y-63292015D01*
X124774500Y-63295324D01*
X124774500Y-63295325D01*
X124774500Y-63529671D01*
X124774500Y-63529689D01*
X124774501Y-63532984D01*
X124774854Y-63536273D01*
X124774855Y-63536281D01*
X124776605Y-63552564D01*
X124764197Y-63621323D01*
X124716584Y-63672458D01*
X124648884Y-63689735D01*
X124640064Y-63689104D01*
X124623780Y-63687353D01*
X124623757Y-63687351D01*
X124620485Y-63687000D01*
X124617174Y-63687000D01*
X124382828Y-63687000D01*
X124382809Y-63687000D01*
X124379516Y-63687001D01*
X124376237Y-63687353D01*
X124376226Y-63687354D01*
X124322885Y-63693088D01*
X124293331Y-63704111D01*
X124223640Y-63709094D01*
X124206668Y-63704110D01*
X124177117Y-63693088D01*
X124123770Y-63687353D01*
X124123767Y-63687352D01*
X124120485Y-63687000D01*
X124117174Y-63687000D01*
X123882828Y-63687000D01*
X123882809Y-63687000D01*
X123879516Y-63687001D01*
X123876237Y-63687353D01*
X123876226Y-63687354D01*
X123822885Y-63693088D01*
X123793331Y-63704111D01*
X123723640Y-63709094D01*
X123706668Y-63704110D01*
X123677117Y-63693088D01*
X123623770Y-63687353D01*
X123623767Y-63687352D01*
X123620485Y-63687000D01*
X123617174Y-63687000D01*
X123382828Y-63687000D01*
X123382809Y-63687000D01*
X123379516Y-63687001D01*
X123376237Y-63687353D01*
X123376226Y-63687354D01*
X123322885Y-63693088D01*
X123293331Y-63704111D01*
X123223640Y-63709094D01*
X123206668Y-63704110D01*
X123177117Y-63693088D01*
X123123770Y-63687353D01*
X123123767Y-63687352D01*
X123120485Y-63687000D01*
X123117174Y-63687000D01*
X122882828Y-63687000D01*
X122882809Y-63687000D01*
X122879516Y-63687001D01*
X122876237Y-63687353D01*
X122876226Y-63687354D01*
X122822885Y-63693088D01*
X122793331Y-63704111D01*
X122723640Y-63709094D01*
X122706668Y-63704110D01*
X122677117Y-63693088D01*
X122623770Y-63687353D01*
X122623767Y-63687352D01*
X122620485Y-63687000D01*
X122617174Y-63687000D01*
X122382828Y-63687000D01*
X122382809Y-63687000D01*
X122379516Y-63687001D01*
X122376237Y-63687353D01*
X122376226Y-63687354D01*
X122322885Y-63693088D01*
X122293331Y-63704111D01*
X122223640Y-63709094D01*
X122206668Y-63704110D01*
X122177117Y-63693088D01*
X122123770Y-63687353D01*
X122123767Y-63687352D01*
X122120485Y-63687000D01*
X122117174Y-63687000D01*
X121882828Y-63687000D01*
X121882809Y-63687000D01*
X121879516Y-63687001D01*
X121876237Y-63687353D01*
X121876226Y-63687354D01*
X121822885Y-63693088D01*
X121793331Y-63704111D01*
X121723640Y-63709094D01*
X121706668Y-63704110D01*
X121677117Y-63693088D01*
X121623770Y-63687353D01*
X121623767Y-63687352D01*
X121620485Y-63687000D01*
X121617174Y-63687000D01*
X121382828Y-63687000D01*
X121382809Y-63687000D01*
X121379516Y-63687001D01*
X121376237Y-63687353D01*
X121376226Y-63687354D01*
X121322885Y-63693088D01*
X121293331Y-63704111D01*
X121223640Y-63709094D01*
X121206668Y-63704110D01*
X121177117Y-63693088D01*
X121123770Y-63687353D01*
X121123767Y-63687352D01*
X121120485Y-63687000D01*
X121117174Y-63687000D01*
X120882828Y-63687000D01*
X120882809Y-63687000D01*
X120879516Y-63687001D01*
X120876237Y-63687353D01*
X120876226Y-63687354D01*
X120822885Y-63693088D01*
X120793331Y-63704111D01*
X120723640Y-63709094D01*
X120706668Y-63704110D01*
X120677117Y-63693088D01*
X120623770Y-63687353D01*
X120623767Y-63687352D01*
X120620485Y-63687000D01*
X120617174Y-63687000D01*
X120382828Y-63687000D01*
X120382809Y-63687000D01*
X120379516Y-63687001D01*
X120376237Y-63687353D01*
X120376226Y-63687354D01*
X120322885Y-63693088D01*
X120293331Y-63704111D01*
X120223640Y-63709094D01*
X120206668Y-63704110D01*
X120177117Y-63693088D01*
X120123770Y-63687353D01*
X120123767Y-63687352D01*
X120120485Y-63687000D01*
X120117174Y-63687000D01*
X119882828Y-63687000D01*
X119882809Y-63687000D01*
X119879516Y-63687001D01*
X119876237Y-63687353D01*
X119876226Y-63687354D01*
X119822885Y-63693088D01*
X119793331Y-63704111D01*
X119723640Y-63709094D01*
X119706668Y-63704110D01*
X119677117Y-63693088D01*
X119623770Y-63687353D01*
X119623767Y-63687352D01*
X119620485Y-63687000D01*
X119617174Y-63687000D01*
X119582463Y-63687000D01*
X119515424Y-63667315D01*
X119469669Y-63614511D01*
X119459725Y-63545353D01*
X119488750Y-63481797D01*
X119500233Y-63470187D01*
X119540483Y-63434530D01*
X119630220Y-63304523D01*
X119686237Y-63156818D01*
X119705278Y-63000000D01*
X119686237Y-62843182D01*
X119630220Y-62695477D01*
X119566093Y-62602572D01*
X119540484Y-62565471D01*
X119537975Y-62563248D01*
X119422240Y-62460717D01*
X119408994Y-62453765D01*
X119282364Y-62387303D01*
X119128985Y-62349500D01*
X118971015Y-62349500D01*
X118971014Y-62349500D01*
X118875651Y-62373004D01*
X118805849Y-62369934D01*
X118748787Y-62329614D01*
X118722687Y-62265858D01*
X118719412Y-62235386D01*
X118708388Y-62205832D01*
X118703403Y-62136143D01*
X118708384Y-62119177D01*
X118719412Y-62089614D01*
X118725500Y-62032985D01*
X118725499Y-61792016D01*
X118721091Y-61751008D01*
X118733498Y-61682249D01*
X118781110Y-61631113D01*
X118848809Y-61613835D01*
X118874051Y-61617358D01*
X119008515Y-61650500D01*
X119008516Y-61650500D01*
X119166485Y-61650500D01*
X119319865Y-61612696D01*
X119459740Y-61539283D01*
X119577983Y-61434530D01*
X119667720Y-61304523D01*
X119723737Y-61156818D01*
X119742778Y-61000000D01*
X119723737Y-60843182D01*
X119667720Y-60695477D01*
X119598131Y-60594660D01*
X119577984Y-60565471D01*
X119565614Y-60554512D01*
X119459740Y-60460717D01*
X119363615Y-60410266D01*
X119313404Y-60361682D01*
X119297430Y-60293663D01*
X119320766Y-60227805D01*
X119333556Y-60212796D01*
X119451269Y-60095083D01*
X119454255Y-60092197D01*
X119498969Y-60050439D01*
X119519196Y-60017176D01*
X119526328Y-60006695D01*
X119549865Y-59975659D01*
X119555974Y-59960164D01*
X119565377Y-59941233D01*
X119574026Y-59927012D01*
X119584529Y-59889522D01*
X119588565Y-59877516D01*
X119602859Y-59841273D01*
X119604561Y-59824712D01*
X119608510Y-59803934D01*
X119611940Y-59791696D01*
X119613000Y-59787912D01*
X119613000Y-59748988D01*
X119613650Y-59736307D01*
X119617632Y-59697573D01*
X119614803Y-59681166D01*
X119613000Y-59660097D01*
X119613000Y-59422438D01*
X119632685Y-59355399D01*
X119634927Y-59352030D01*
X119667720Y-59304523D01*
X119723737Y-59156818D01*
X119742778Y-59000000D01*
X119723737Y-58843182D01*
X119667720Y-58695477D01*
X119580243Y-58568744D01*
X119558360Y-58502389D01*
X119575826Y-58434738D01*
X119611792Y-58400695D01*
X119610970Y-58399767D01*
X119625039Y-58387303D01*
X119721277Y-58302044D01*
X119784507Y-58272324D01*
X119853770Y-58281508D01*
X119885722Y-58302041D01*
X119927760Y-58339283D01*
X120067635Y-58412696D01*
X120221015Y-58450500D01*
X120378985Y-58450500D01*
X120532365Y-58412696D01*
X120672240Y-58339283D01*
X120790483Y-58234530D01*
X120880220Y-58104523D01*
X120936237Y-57956818D01*
X120955278Y-57800000D01*
X120955135Y-57798819D01*
X120952479Y-57776945D01*
X120963940Y-57708022D01*
X121010844Y-57656236D01*
X121075575Y-57637999D01*
X121117172Y-57637999D01*
X121120484Y-57637999D01*
X121177114Y-57631912D01*
X121206664Y-57620889D01*
X121276353Y-57615903D01*
X121293322Y-57620885D01*
X121322886Y-57631912D01*
X121379515Y-57638000D01*
X121427338Y-57637999D01*
X121494376Y-57657682D01*
X121540132Y-57710485D01*
X121550435Y-57747052D01*
X121563763Y-57856818D01*
X121619780Y-58004523D01*
X121709515Y-58134528D01*
X121709516Y-58134529D01*
X121709517Y-58134530D01*
X121827760Y-58239283D01*
X121967635Y-58312696D01*
X122121015Y-58350500D01*
X122278985Y-58350500D01*
X122432365Y-58312696D01*
X122572240Y-58239283D01*
X122667775Y-58154646D01*
X122731007Y-58124927D01*
X122800270Y-58134111D01*
X122832222Y-58154645D01*
X122927760Y-58239283D01*
X123067635Y-58312696D01*
X123221015Y-58350500D01*
X123378985Y-58350500D01*
X123532365Y-58312696D01*
X123672240Y-58239283D01*
X123790483Y-58134530D01*
X123880220Y-58004523D01*
X123936237Y-57856818D01*
X123949564Y-57747052D01*
X123977187Y-57682874D01*
X124035121Y-57643818D01*
X124072661Y-57637999D01*
X124117172Y-57637999D01*
X124120484Y-57637999D01*
X124177114Y-57631912D01*
X124206664Y-57620889D01*
X124276353Y-57615903D01*
X124293322Y-57620885D01*
G37*
%TD.AperFunction*%
%TA.AperFunction,Conductor*%
G36*
X128061611Y-57045185D02*
G01*
X128082253Y-57061819D01*
X128178852Y-57158418D01*
X128212337Y-57219741D01*
X128207353Y-57289433D01*
X128165481Y-57345366D01*
X128100017Y-57369783D01*
X128091172Y-57370099D01*
X127866835Y-57370099D01*
X127824198Y-57376852D01*
X127773046Y-57384953D01*
X127773044Y-57384953D01*
X127773043Y-57384954D01*
X127660007Y-57442548D01*
X127570300Y-57532255D01*
X127512703Y-57645296D01*
X127498021Y-57738000D01*
X127497850Y-57739080D01*
X127497850Y-57941235D01*
X127497851Y-58025997D01*
X127478167Y-58093036D01*
X127425363Y-58138791D01*
X127373851Y-58149997D01*
X127369863Y-58149997D01*
X127201863Y-58191404D01*
X127200815Y-58187154D01*
X127159601Y-58195396D01*
X127094557Y-58169880D01*
X127053633Y-58113250D01*
X127047823Y-58063615D01*
X127046822Y-58062500D01*
X127025181Y-58062500D01*
X126958142Y-58042815D01*
X126925914Y-58012811D01*
X126914687Y-57997813D01*
X126914685Y-57997811D01*
X126914684Y-57997810D01*
X126898596Y-57985767D01*
X126856724Y-57929834D01*
X126851740Y-57860142D01*
X126885224Y-57798819D01*
X126946547Y-57765334D01*
X126972906Y-57762500D01*
X127046821Y-57762500D01*
X127043917Y-57735494D01*
X126996183Y-57607513D01*
X126914330Y-57498169D01*
X126804986Y-57416316D01*
X126677007Y-57368582D01*
X126623730Y-57362854D01*
X126617113Y-57362500D01*
X126062500Y-57362500D01*
X126062500Y-57738000D01*
X126042815Y-57805039D01*
X125990011Y-57850794D01*
X125938500Y-57862000D01*
X125886500Y-57862000D01*
X125819461Y-57842315D01*
X125773706Y-57789511D01*
X125762500Y-57738000D01*
X125762500Y-57362500D01*
X125207875Y-57362500D01*
X125201264Y-57362855D01*
X125184879Y-57364616D01*
X125116120Y-57352207D01*
X125064985Y-57304595D01*
X125047709Y-57236894D01*
X125048341Y-57228068D01*
X125050146Y-57211281D01*
X125050146Y-57211274D01*
X125050500Y-57207985D01*
X125050500Y-57149499D01*
X125070185Y-57082461D01*
X125122989Y-57036706D01*
X125174500Y-57025500D01*
X127994572Y-57025500D01*
X128061611Y-57045185D01*
G37*
%TD.AperFunction*%
%TD*%
M02*
