%TF.GenerationSoftware,KiCad,Pcbnew,7.0.2*%
%TF.CreationDate,2023-10-17T17:42:58-05:00*%
%TF.ProjectId,BPS-PeripheralSOM,4250532d-5065-4726-9970-686572616c53,rev?*%
%TF.SameCoordinates,Original*%
%TF.FileFunction,Legend,Top*%
%TF.FilePolarity,Positive*%
%FSLAX46Y46*%
G04 Gerber Fmt 4.6, Leading zero omitted, Abs format (unit mm)*
G04 Created by KiCad (PCBNEW 7.0.2) date 2023-10-17 17:42:58*
%MOMM*%
%LPD*%
G01*
G04 APERTURE LIST*
%ADD10C,0.150000*%
%ADD11C,0.254000*%
%ADD12C,0.120000*%
%ADD13C,0.200000*%
%ADD14C,0.152400*%
G04 APERTURE END LIST*
D10*
X135275000Y-60800000D02*
X135900000Y-60000000D01*
X135300000Y-69275000D02*
X135300000Y-69600000D01*
X134325000Y-66500000D02*
X135825000Y-66500000D01*
X135825000Y-67025000D01*
X134325000Y-67025000D01*
X134325000Y-66500000D01*
X138100000Y-64875000D02*
X139575000Y-64875000D01*
X139575000Y-65475000D01*
X138100000Y-65475000D01*
X138100000Y-64875000D01*
X138025000Y-64100000D02*
X139500000Y-64100000D01*
X139500000Y-64625000D01*
X138025000Y-64625000D01*
X138025000Y-64100000D01*
X101000001Y-50000000D02*
G75*
G03*
X101000001Y-50000000I-1J0D01*
G01*
X134325000Y-64900000D02*
X135800000Y-64900000D01*
X135800000Y-65500000D01*
X134325000Y-65500000D01*
X134325000Y-64900000D01*
X134250000Y-61750000D02*
X135750000Y-61750000D01*
X135750000Y-62275000D01*
X134250000Y-62275000D01*
X134250000Y-61750000D01*
X120900000Y-68900000D02*
G75*
G03*
X120900000Y-68900000I-100000J0D01*
G01*
X134325000Y-67325000D02*
X135825000Y-67325000D01*
X135825000Y-67850000D01*
X134325000Y-67850000D01*
X134325000Y-67325000D01*
X134250000Y-60925000D02*
X135725000Y-60925000D01*
X135725000Y-61525000D01*
X134250000Y-61525000D01*
X134250000Y-60925000D01*
X120700000Y-68600000D02*
X121000000Y-68400000D01*
X120899999Y-69447213D02*
G75*
G03*
X120100001Y-69447213I-399999J-199999D01*
G01*
X118000001Y-65000000D02*
G75*
G03*
X118000001Y-65000000I-1J0D01*
G01*
X138025000Y-63325000D02*
X139525000Y-63325000D01*
X139525000Y-63850000D01*
X138025000Y-63850000D01*
X138025000Y-63325000D01*
X134250000Y-64125000D02*
X135725000Y-64125000D01*
X135725000Y-64650000D01*
X134250000Y-64650000D01*
X134250000Y-64125000D01*
X135300000Y-69600000D02*
X137425000Y-69600000D01*
X120300000Y-68900000D02*
G75*
G03*
X120300000Y-68900000I-100000J0D01*
G01*
X138025000Y-62500000D02*
X139525000Y-62500000D01*
X139525000Y-63025000D01*
X138025000Y-63025000D01*
X138025000Y-62500000D01*
X120300000Y-68600000D02*
X120000000Y-68400000D01*
X138100000Y-67300000D02*
X139600000Y-67300000D01*
X139600000Y-67825000D01*
X138100000Y-67825000D01*
X138100000Y-67300000D01*
X135900000Y-60000000D02*
X137375000Y-60000000D01*
X138100000Y-66475000D02*
X139600000Y-66475000D01*
X139600000Y-67000000D01*
X138100000Y-67000000D01*
X138100000Y-66475000D01*
X138025000Y-61725000D02*
X139525000Y-61725000D01*
X139525000Y-62250000D01*
X138025000Y-62250000D01*
X138025000Y-61725000D01*
X138100000Y-65700000D02*
X139600000Y-65700000D01*
X139600000Y-66225000D01*
X138100000Y-66225000D01*
X138100000Y-65700000D01*
X134325000Y-65725000D02*
X135825000Y-65725000D01*
X135825000Y-66250000D01*
X134325000Y-66250000D01*
X134325000Y-65725000D01*
X134250000Y-62525000D02*
X135750000Y-62525000D01*
X135750000Y-63050000D01*
X134250000Y-63050000D01*
X134250000Y-62525000D01*
X138025000Y-60900000D02*
X139500000Y-60900000D01*
X139500000Y-61500000D01*
X138025000Y-61500000D01*
X138025000Y-60900000D01*
X134250000Y-63350000D02*
X135750000Y-63350000D01*
X135750000Y-63875000D01*
X134250000Y-63875000D01*
X134250000Y-63350000D01*
X134325000Y-68100000D02*
X135800000Y-68100000D01*
X135800000Y-68625000D01*
X134325000Y-68625000D01*
X134325000Y-68100000D01*
X134825000Y-60500000D02*
G75*
G03*
X134825000Y-60500000I-125000J0D01*
G01*
X138100000Y-68075000D02*
X139575000Y-68075000D01*
X139575000Y-68600000D01*
X138100000Y-68600000D01*
X138100000Y-68075000D01*
X124190476Y-46637619D02*
X124190476Y-45637619D01*
X124533333Y-46637619D02*
X124533333Y-46113809D01*
X124533333Y-46113809D02*
X124495238Y-46018571D01*
X124495238Y-46018571D02*
X124419047Y-45970952D01*
X124419047Y-45970952D02*
X124304761Y-45970952D01*
X124304761Y-45970952D02*
X124228571Y-46018571D01*
X124228571Y-46018571D02*
X124190476Y-46066190D01*
X125219048Y-46590000D02*
X125142857Y-46637619D01*
X125142857Y-46637619D02*
X124990476Y-46637619D01*
X124990476Y-46637619D02*
X124914286Y-46590000D01*
X124914286Y-46590000D02*
X124876190Y-46494761D01*
X124876190Y-46494761D02*
X124876190Y-46113809D01*
X124876190Y-46113809D02*
X124914286Y-46018571D01*
X124914286Y-46018571D02*
X124990476Y-45970952D01*
X124990476Y-45970952D02*
X125142857Y-45970952D01*
X125142857Y-45970952D02*
X125219048Y-46018571D01*
X125219048Y-46018571D02*
X125257143Y-46113809D01*
X125257143Y-46113809D02*
X125257143Y-46209047D01*
X125257143Y-46209047D02*
X124876190Y-46304285D01*
X125714285Y-46637619D02*
X125638095Y-46590000D01*
X125638095Y-46590000D02*
X125600000Y-46494761D01*
X125600000Y-46494761D02*
X125600000Y-45637619D01*
X126133333Y-46637619D02*
X126057143Y-46590000D01*
X126057143Y-46590000D02*
X126019048Y-46494761D01*
X126019048Y-46494761D02*
X126019048Y-45637619D01*
X126552381Y-46637619D02*
X126476191Y-46590000D01*
X126476191Y-46590000D02*
X126438096Y-46542380D01*
X126438096Y-46542380D02*
X126400000Y-46447142D01*
X126400000Y-46447142D02*
X126400000Y-46161428D01*
X126400000Y-46161428D02*
X126438096Y-46066190D01*
X126438096Y-46066190D02*
X126476191Y-46018571D01*
X126476191Y-46018571D02*
X126552381Y-45970952D01*
X126552381Y-45970952D02*
X126666667Y-45970952D01*
X126666667Y-45970952D02*
X126742858Y-46018571D01*
X126742858Y-46018571D02*
X126780953Y-46066190D01*
X126780953Y-46066190D02*
X126819048Y-46161428D01*
X126819048Y-46161428D02*
X126819048Y-46447142D01*
X126819048Y-46447142D02*
X126780953Y-46542380D01*
X126780953Y-46542380D02*
X126742858Y-46590000D01*
X126742858Y-46590000D02*
X126666667Y-46637619D01*
X126666667Y-46637619D02*
X126552381Y-46637619D01*
X127200001Y-46590000D02*
X127200001Y-46637619D01*
X127200001Y-46637619D02*
X127161906Y-46732857D01*
X127161906Y-46732857D02*
X127123810Y-46780476D01*
X128152382Y-46637619D02*
X128152382Y-45637619D01*
X128228572Y-46256666D02*
X128457144Y-46637619D01*
X128457144Y-45970952D02*
X128152382Y-46351904D01*
X128800001Y-46637619D02*
X128800001Y-45970952D01*
X128800001Y-45637619D02*
X128761905Y-45685238D01*
X128761905Y-45685238D02*
X128800001Y-45732857D01*
X128800001Y-45732857D02*
X128838096Y-45685238D01*
X128838096Y-45685238D02*
X128800001Y-45637619D01*
X128800001Y-45637619D02*
X128800001Y-45732857D01*
X129180953Y-45970952D02*
X129180953Y-46637619D01*
X129180953Y-46066190D02*
X129219048Y-46018571D01*
X129219048Y-46018571D02*
X129295238Y-45970952D01*
X129295238Y-45970952D02*
X129409524Y-45970952D01*
X129409524Y-45970952D02*
X129485715Y-46018571D01*
X129485715Y-46018571D02*
X129523810Y-46113809D01*
X129523810Y-46113809D02*
X129523810Y-46637619D01*
X130247620Y-46637619D02*
X130247620Y-45637619D01*
X130247620Y-46590000D02*
X130171429Y-46637619D01*
X130171429Y-46637619D02*
X130019048Y-46637619D01*
X130019048Y-46637619D02*
X129942858Y-46590000D01*
X129942858Y-46590000D02*
X129904763Y-46542380D01*
X129904763Y-46542380D02*
X129866667Y-46447142D01*
X129866667Y-46447142D02*
X129866667Y-46161428D01*
X129866667Y-46161428D02*
X129904763Y-46066190D01*
X129904763Y-46066190D02*
X129942858Y-46018571D01*
X129942858Y-46018571D02*
X130019048Y-45970952D01*
X130019048Y-45970952D02*
X130171429Y-45970952D01*
X130171429Y-45970952D02*
X130247620Y-46018571D01*
X130742858Y-46637619D02*
X130666668Y-46590000D01*
X130666668Y-46590000D02*
X130628573Y-46494761D01*
X130628573Y-46494761D02*
X130628573Y-45637619D01*
X130971430Y-45970952D02*
X131161906Y-46637619D01*
X131352383Y-45970952D02*
X131161906Y-46637619D01*
X131161906Y-46637619D02*
X131085716Y-46875714D01*
X131085716Y-46875714D02*
X131047621Y-46923333D01*
X131047621Y-46923333D02*
X130971430Y-46970952D01*
X132266669Y-46637619D02*
X132266669Y-45637619D01*
X132266669Y-46018571D02*
X132342859Y-45970952D01*
X132342859Y-45970952D02*
X132495240Y-45970952D01*
X132495240Y-45970952D02*
X132571431Y-46018571D01*
X132571431Y-46018571D02*
X132609526Y-46066190D01*
X132609526Y-46066190D02*
X132647621Y-46161428D01*
X132647621Y-46161428D02*
X132647621Y-46447142D01*
X132647621Y-46447142D02*
X132609526Y-46542380D01*
X132609526Y-46542380D02*
X132571431Y-46590000D01*
X132571431Y-46590000D02*
X132495240Y-46637619D01*
X132495240Y-46637619D02*
X132342859Y-46637619D01*
X132342859Y-46637619D02*
X132266669Y-46590000D01*
X132990479Y-46637619D02*
X132990479Y-45970952D01*
X132990479Y-46161428D02*
X133028574Y-46066190D01*
X133028574Y-46066190D02*
X133066669Y-46018571D01*
X133066669Y-46018571D02*
X133142860Y-45970952D01*
X133142860Y-45970952D02*
X133219050Y-45970952D01*
X133485717Y-46637619D02*
X133485717Y-45970952D01*
X133485717Y-45637619D02*
X133447621Y-45685238D01*
X133447621Y-45685238D02*
X133485717Y-45732857D01*
X133485717Y-45732857D02*
X133523812Y-45685238D01*
X133523812Y-45685238D02*
X133485717Y-45637619D01*
X133485717Y-45637619D02*
X133485717Y-45732857D01*
X134209526Y-46637619D02*
X134209526Y-45637619D01*
X134209526Y-46590000D02*
X134133335Y-46637619D01*
X134133335Y-46637619D02*
X133980954Y-46637619D01*
X133980954Y-46637619D02*
X133904764Y-46590000D01*
X133904764Y-46590000D02*
X133866669Y-46542380D01*
X133866669Y-46542380D02*
X133828573Y-46447142D01*
X133828573Y-46447142D02*
X133828573Y-46161428D01*
X133828573Y-46161428D02*
X133866669Y-46066190D01*
X133866669Y-46066190D02*
X133904764Y-46018571D01*
X133904764Y-46018571D02*
X133980954Y-45970952D01*
X133980954Y-45970952D02*
X134133335Y-45970952D01*
X134133335Y-45970952D02*
X134209526Y-46018571D01*
X134933336Y-45970952D02*
X134933336Y-46780476D01*
X134933336Y-46780476D02*
X134895241Y-46875714D01*
X134895241Y-46875714D02*
X134857145Y-46923333D01*
X134857145Y-46923333D02*
X134780955Y-46970952D01*
X134780955Y-46970952D02*
X134666669Y-46970952D01*
X134666669Y-46970952D02*
X134590479Y-46923333D01*
X134933336Y-46590000D02*
X134857145Y-46637619D01*
X134857145Y-46637619D02*
X134704764Y-46637619D01*
X134704764Y-46637619D02*
X134628574Y-46590000D01*
X134628574Y-46590000D02*
X134590479Y-46542380D01*
X134590479Y-46542380D02*
X134552383Y-46447142D01*
X134552383Y-46447142D02*
X134552383Y-46161428D01*
X134552383Y-46161428D02*
X134590479Y-46066190D01*
X134590479Y-46066190D02*
X134628574Y-46018571D01*
X134628574Y-46018571D02*
X134704764Y-45970952D01*
X134704764Y-45970952D02*
X134857145Y-45970952D01*
X134857145Y-45970952D02*
X134933336Y-46018571D01*
X135619051Y-46590000D02*
X135542860Y-46637619D01*
X135542860Y-46637619D02*
X135390479Y-46637619D01*
X135390479Y-46637619D02*
X135314289Y-46590000D01*
X135314289Y-46590000D02*
X135276193Y-46494761D01*
X135276193Y-46494761D02*
X135276193Y-46113809D01*
X135276193Y-46113809D02*
X135314289Y-46018571D01*
X135314289Y-46018571D02*
X135390479Y-45970952D01*
X135390479Y-45970952D02*
X135542860Y-45970952D01*
X135542860Y-45970952D02*
X135619051Y-46018571D01*
X135619051Y-46018571D02*
X135657146Y-46113809D01*
X135657146Y-46113809D02*
X135657146Y-46209047D01*
X135657146Y-46209047D02*
X135276193Y-46304285D01*
X124076190Y-47590952D02*
X124380952Y-47590952D01*
X124190476Y-47257619D02*
X124190476Y-48114761D01*
X124190476Y-48114761D02*
X124228571Y-48210000D01*
X124228571Y-48210000D02*
X124304761Y-48257619D01*
X124304761Y-48257619D02*
X124380952Y-48257619D01*
X124647619Y-48257619D02*
X124647619Y-47257619D01*
X124990476Y-48257619D02*
X124990476Y-47733809D01*
X124990476Y-47733809D02*
X124952381Y-47638571D01*
X124952381Y-47638571D02*
X124876190Y-47590952D01*
X124876190Y-47590952D02*
X124761904Y-47590952D01*
X124761904Y-47590952D02*
X124685714Y-47638571D01*
X124685714Y-47638571D02*
X124647619Y-47686190D01*
X125371429Y-48257619D02*
X125371429Y-47590952D01*
X125371429Y-47257619D02*
X125333333Y-47305238D01*
X125333333Y-47305238D02*
X125371429Y-47352857D01*
X125371429Y-47352857D02*
X125409524Y-47305238D01*
X125409524Y-47305238D02*
X125371429Y-47257619D01*
X125371429Y-47257619D02*
X125371429Y-47352857D01*
X125714285Y-48210000D02*
X125790476Y-48257619D01*
X125790476Y-48257619D02*
X125942857Y-48257619D01*
X125942857Y-48257619D02*
X126019047Y-48210000D01*
X126019047Y-48210000D02*
X126057143Y-48114761D01*
X126057143Y-48114761D02*
X126057143Y-48067142D01*
X126057143Y-48067142D02*
X126019047Y-47971904D01*
X126019047Y-47971904D02*
X125942857Y-47924285D01*
X125942857Y-47924285D02*
X125828571Y-47924285D01*
X125828571Y-47924285D02*
X125752381Y-47876666D01*
X125752381Y-47876666D02*
X125714285Y-47781428D01*
X125714285Y-47781428D02*
X125714285Y-47733809D01*
X125714285Y-47733809D02*
X125752381Y-47638571D01*
X125752381Y-47638571D02*
X125828571Y-47590952D01*
X125828571Y-47590952D02*
X125942857Y-47590952D01*
X125942857Y-47590952D02*
X126019047Y-47638571D01*
X127009524Y-47590952D02*
X127009524Y-48448095D01*
X127009524Y-48448095D02*
X126971428Y-48543333D01*
X126971428Y-48543333D02*
X126895238Y-48590952D01*
X126895238Y-48590952D02*
X126857143Y-48590952D01*
X127009524Y-47257619D02*
X126971428Y-47305238D01*
X126971428Y-47305238D02*
X127009524Y-47352857D01*
X127009524Y-47352857D02*
X127047619Y-47305238D01*
X127047619Y-47305238D02*
X127009524Y-47257619D01*
X127009524Y-47257619D02*
X127009524Y-47352857D01*
X127733333Y-47590952D02*
X127733333Y-48257619D01*
X127390476Y-47590952D02*
X127390476Y-48114761D01*
X127390476Y-48114761D02*
X127428571Y-48210000D01*
X127428571Y-48210000D02*
X127504761Y-48257619D01*
X127504761Y-48257619D02*
X127619047Y-48257619D01*
X127619047Y-48257619D02*
X127695238Y-48210000D01*
X127695238Y-48210000D02*
X127733333Y-48162380D01*
X128114286Y-48257619D02*
X128114286Y-47590952D01*
X128114286Y-47686190D02*
X128152381Y-47638571D01*
X128152381Y-47638571D02*
X128228571Y-47590952D01*
X128228571Y-47590952D02*
X128342857Y-47590952D01*
X128342857Y-47590952D02*
X128419048Y-47638571D01*
X128419048Y-47638571D02*
X128457143Y-47733809D01*
X128457143Y-47733809D02*
X128457143Y-48257619D01*
X128457143Y-47733809D02*
X128495238Y-47638571D01*
X128495238Y-47638571D02*
X128571429Y-47590952D01*
X128571429Y-47590952D02*
X128685714Y-47590952D01*
X128685714Y-47590952D02*
X128761905Y-47638571D01*
X128761905Y-47638571D02*
X128800000Y-47733809D01*
X128800000Y-47733809D02*
X128800000Y-48257619D01*
X129180953Y-47590952D02*
X129180953Y-48590952D01*
X129180953Y-47638571D02*
X129257143Y-47590952D01*
X129257143Y-47590952D02*
X129409524Y-47590952D01*
X129409524Y-47590952D02*
X129485715Y-47638571D01*
X129485715Y-47638571D02*
X129523810Y-47686190D01*
X129523810Y-47686190D02*
X129561905Y-47781428D01*
X129561905Y-47781428D02*
X129561905Y-48067142D01*
X129561905Y-48067142D02*
X129523810Y-48162380D01*
X129523810Y-48162380D02*
X129485715Y-48210000D01*
X129485715Y-48210000D02*
X129409524Y-48257619D01*
X129409524Y-48257619D02*
X129257143Y-48257619D01*
X129257143Y-48257619D02*
X129180953Y-48210000D01*
X130209525Y-48210000D02*
X130133334Y-48257619D01*
X130133334Y-48257619D02*
X129980953Y-48257619D01*
X129980953Y-48257619D02*
X129904763Y-48210000D01*
X129904763Y-48210000D02*
X129866667Y-48114761D01*
X129866667Y-48114761D02*
X129866667Y-47733809D01*
X129866667Y-47733809D02*
X129904763Y-47638571D01*
X129904763Y-47638571D02*
X129980953Y-47590952D01*
X129980953Y-47590952D02*
X130133334Y-47590952D01*
X130133334Y-47590952D02*
X130209525Y-47638571D01*
X130209525Y-47638571D02*
X130247620Y-47733809D01*
X130247620Y-47733809D02*
X130247620Y-47829047D01*
X130247620Y-47829047D02*
X129866667Y-47924285D01*
X130590477Y-48257619D02*
X130590477Y-47590952D01*
X130590477Y-47781428D02*
X130628572Y-47686190D01*
X130628572Y-47686190D02*
X130666667Y-47638571D01*
X130666667Y-47638571D02*
X130742858Y-47590952D01*
X130742858Y-47590952D02*
X130819048Y-47590952D01*
X131695239Y-48257619D02*
X131695239Y-47590952D01*
X131695239Y-47257619D02*
X131657143Y-47305238D01*
X131657143Y-47305238D02*
X131695239Y-47352857D01*
X131695239Y-47352857D02*
X131733334Y-47305238D01*
X131733334Y-47305238D02*
X131695239Y-47257619D01*
X131695239Y-47257619D02*
X131695239Y-47352857D01*
X131961905Y-47590952D02*
X132266667Y-47590952D01*
X132076191Y-48257619D02*
X132076191Y-47400476D01*
X132076191Y-47400476D02*
X132114286Y-47305238D01*
X132114286Y-47305238D02*
X132190476Y-47257619D01*
X132190476Y-47257619D02*
X132266667Y-47257619D01*
X133066667Y-47590952D02*
X133257143Y-48257619D01*
X133447620Y-47590952D02*
X133257143Y-48257619D01*
X133257143Y-48257619D02*
X133180953Y-48495714D01*
X133180953Y-48495714D02*
X133142858Y-48543333D01*
X133142858Y-48543333D02*
X133066667Y-48590952D01*
X133866667Y-48257619D02*
X133790477Y-48210000D01*
X133790477Y-48210000D02*
X133752382Y-48162380D01*
X133752382Y-48162380D02*
X133714286Y-48067142D01*
X133714286Y-48067142D02*
X133714286Y-47781428D01*
X133714286Y-47781428D02*
X133752382Y-47686190D01*
X133752382Y-47686190D02*
X133790477Y-47638571D01*
X133790477Y-47638571D02*
X133866667Y-47590952D01*
X133866667Y-47590952D02*
X133980953Y-47590952D01*
X133980953Y-47590952D02*
X134057144Y-47638571D01*
X134057144Y-47638571D02*
X134095239Y-47686190D01*
X134095239Y-47686190D02*
X134133334Y-47781428D01*
X134133334Y-47781428D02*
X134133334Y-48067142D01*
X134133334Y-48067142D02*
X134095239Y-48162380D01*
X134095239Y-48162380D02*
X134057144Y-48210000D01*
X134057144Y-48210000D02*
X133980953Y-48257619D01*
X133980953Y-48257619D02*
X133866667Y-48257619D01*
X134819049Y-47590952D02*
X134819049Y-48257619D01*
X134476192Y-47590952D02*
X134476192Y-48114761D01*
X134476192Y-48114761D02*
X134514287Y-48210000D01*
X134514287Y-48210000D02*
X134590477Y-48257619D01*
X134590477Y-48257619D02*
X134704763Y-48257619D01*
X134704763Y-48257619D02*
X134780954Y-48210000D01*
X134780954Y-48210000D02*
X134819049Y-48162380D01*
X135238097Y-47257619D02*
X135161906Y-47448095D01*
X135923811Y-48257619D02*
X135923811Y-47257619D01*
X135923811Y-48210000D02*
X135847620Y-48257619D01*
X135847620Y-48257619D02*
X135695239Y-48257619D01*
X135695239Y-48257619D02*
X135619049Y-48210000D01*
X135619049Y-48210000D02*
X135580954Y-48162380D01*
X135580954Y-48162380D02*
X135542858Y-48067142D01*
X135542858Y-48067142D02*
X135542858Y-47781428D01*
X135542858Y-47781428D02*
X135580954Y-47686190D01*
X135580954Y-47686190D02*
X135619049Y-47638571D01*
X135619049Y-47638571D02*
X135695239Y-47590952D01*
X135695239Y-47590952D02*
X135847620Y-47590952D01*
X135847620Y-47590952D02*
X135923811Y-47638571D01*
X124304761Y-49877619D02*
X124228571Y-49830000D01*
X124228571Y-49830000D02*
X124190476Y-49734761D01*
X124190476Y-49734761D02*
X124190476Y-48877619D01*
X124609524Y-49877619D02*
X124609524Y-49210952D01*
X124609524Y-48877619D02*
X124571428Y-48925238D01*
X124571428Y-48925238D02*
X124609524Y-48972857D01*
X124609524Y-48972857D02*
X124647619Y-48925238D01*
X124647619Y-48925238D02*
X124609524Y-48877619D01*
X124609524Y-48877619D02*
X124609524Y-48972857D01*
X124990476Y-49877619D02*
X124990476Y-48877619D01*
X125066666Y-49496666D02*
X125295238Y-49877619D01*
X125295238Y-49210952D02*
X124990476Y-49591904D01*
X125942857Y-49830000D02*
X125866666Y-49877619D01*
X125866666Y-49877619D02*
X125714285Y-49877619D01*
X125714285Y-49877619D02*
X125638095Y-49830000D01*
X125638095Y-49830000D02*
X125599999Y-49734761D01*
X125599999Y-49734761D02*
X125599999Y-49353809D01*
X125599999Y-49353809D02*
X125638095Y-49258571D01*
X125638095Y-49258571D02*
X125714285Y-49210952D01*
X125714285Y-49210952D02*
X125866666Y-49210952D01*
X125866666Y-49210952D02*
X125942857Y-49258571D01*
X125942857Y-49258571D02*
X125980952Y-49353809D01*
X125980952Y-49353809D02*
X125980952Y-49449047D01*
X125980952Y-49449047D02*
X125599999Y-49544285D01*
X126933333Y-49877619D02*
X126933333Y-49210952D01*
X126933333Y-49306190D02*
X126971428Y-49258571D01*
X126971428Y-49258571D02*
X127047618Y-49210952D01*
X127047618Y-49210952D02*
X127161904Y-49210952D01*
X127161904Y-49210952D02*
X127238095Y-49258571D01*
X127238095Y-49258571D02*
X127276190Y-49353809D01*
X127276190Y-49353809D02*
X127276190Y-49877619D01*
X127276190Y-49353809D02*
X127314285Y-49258571D01*
X127314285Y-49258571D02*
X127390476Y-49210952D01*
X127390476Y-49210952D02*
X127504761Y-49210952D01*
X127504761Y-49210952D02*
X127580952Y-49258571D01*
X127580952Y-49258571D02*
X127619047Y-49353809D01*
X127619047Y-49353809D02*
X127619047Y-49877619D01*
X128304762Y-49830000D02*
X128228571Y-49877619D01*
X128228571Y-49877619D02*
X128076190Y-49877619D01*
X128076190Y-49877619D02*
X128000000Y-49830000D01*
X128000000Y-49830000D02*
X127961904Y-49734761D01*
X127961904Y-49734761D02*
X127961904Y-49353809D01*
X127961904Y-49353809D02*
X128000000Y-49258571D01*
X128000000Y-49258571D02*
X128076190Y-49210952D01*
X128076190Y-49210952D02*
X128228571Y-49210952D01*
X128228571Y-49210952D02*
X128304762Y-49258571D01*
X128304762Y-49258571D02*
X128342857Y-49353809D01*
X128342857Y-49353809D02*
X128342857Y-49449047D01*
X128342857Y-49449047D02*
X127961904Y-49544285D01*
X129180952Y-49210952D02*
X129485714Y-49210952D01*
X129295238Y-48877619D02*
X129295238Y-49734761D01*
X129295238Y-49734761D02*
X129333333Y-49830000D01*
X129333333Y-49830000D02*
X129409523Y-49877619D01*
X129409523Y-49877619D02*
X129485714Y-49877619D01*
X129866666Y-49877619D02*
X129790476Y-49830000D01*
X129790476Y-49830000D02*
X129752381Y-49782380D01*
X129752381Y-49782380D02*
X129714285Y-49687142D01*
X129714285Y-49687142D02*
X129714285Y-49401428D01*
X129714285Y-49401428D02*
X129752381Y-49306190D01*
X129752381Y-49306190D02*
X129790476Y-49258571D01*
X129790476Y-49258571D02*
X129866666Y-49210952D01*
X129866666Y-49210952D02*
X129980952Y-49210952D01*
X129980952Y-49210952D02*
X130057143Y-49258571D01*
X130057143Y-49258571D02*
X130095238Y-49306190D01*
X130095238Y-49306190D02*
X130133333Y-49401428D01*
X130133333Y-49401428D02*
X130133333Y-49687142D01*
X130133333Y-49687142D02*
X130095238Y-49782380D01*
X130095238Y-49782380D02*
X130057143Y-49830000D01*
X130057143Y-49830000D02*
X129980952Y-49877619D01*
X129980952Y-49877619D02*
X129866666Y-49877619D01*
X131085715Y-49877619D02*
X131085715Y-48877619D01*
X131085715Y-49258571D02*
X131161905Y-49210952D01*
X131161905Y-49210952D02*
X131314286Y-49210952D01*
X131314286Y-49210952D02*
X131390477Y-49258571D01*
X131390477Y-49258571D02*
X131428572Y-49306190D01*
X131428572Y-49306190D02*
X131466667Y-49401428D01*
X131466667Y-49401428D02*
X131466667Y-49687142D01*
X131466667Y-49687142D02*
X131428572Y-49782380D01*
X131428572Y-49782380D02*
X131390477Y-49830000D01*
X131390477Y-49830000D02*
X131314286Y-49877619D01*
X131314286Y-49877619D02*
X131161905Y-49877619D01*
X131161905Y-49877619D02*
X131085715Y-49830000D01*
X132114287Y-49830000D02*
X132038096Y-49877619D01*
X132038096Y-49877619D02*
X131885715Y-49877619D01*
X131885715Y-49877619D02*
X131809525Y-49830000D01*
X131809525Y-49830000D02*
X131771429Y-49734761D01*
X131771429Y-49734761D02*
X131771429Y-49353809D01*
X131771429Y-49353809D02*
X131809525Y-49258571D01*
X131809525Y-49258571D02*
X131885715Y-49210952D01*
X131885715Y-49210952D02*
X132038096Y-49210952D01*
X132038096Y-49210952D02*
X132114287Y-49258571D01*
X132114287Y-49258571D02*
X132152382Y-49353809D01*
X132152382Y-49353809D02*
X132152382Y-49449047D01*
X132152382Y-49449047D02*
X131771429Y-49544285D01*
X132990477Y-49210952D02*
X133295239Y-49210952D01*
X133104763Y-48877619D02*
X133104763Y-49734761D01*
X133104763Y-49734761D02*
X133142858Y-49830000D01*
X133142858Y-49830000D02*
X133219048Y-49877619D01*
X133219048Y-49877619D02*
X133295239Y-49877619D01*
X133561906Y-49877619D02*
X133561906Y-48877619D01*
X133904763Y-49877619D02*
X133904763Y-49353809D01*
X133904763Y-49353809D02*
X133866668Y-49258571D01*
X133866668Y-49258571D02*
X133790477Y-49210952D01*
X133790477Y-49210952D02*
X133676191Y-49210952D01*
X133676191Y-49210952D02*
X133600001Y-49258571D01*
X133600001Y-49258571D02*
X133561906Y-49306190D01*
X134590478Y-49830000D02*
X134514287Y-49877619D01*
X134514287Y-49877619D02*
X134361906Y-49877619D01*
X134361906Y-49877619D02*
X134285716Y-49830000D01*
X134285716Y-49830000D02*
X134247620Y-49734761D01*
X134247620Y-49734761D02*
X134247620Y-49353809D01*
X134247620Y-49353809D02*
X134285716Y-49258571D01*
X134285716Y-49258571D02*
X134361906Y-49210952D01*
X134361906Y-49210952D02*
X134514287Y-49210952D01*
X134514287Y-49210952D02*
X134590478Y-49258571D01*
X134590478Y-49258571D02*
X134628573Y-49353809D01*
X134628573Y-49353809D02*
X134628573Y-49449047D01*
X134628573Y-49449047D02*
X134247620Y-49544285D01*
X135885716Y-49830000D02*
X135809525Y-49877619D01*
X135809525Y-49877619D02*
X135657144Y-49877619D01*
X135657144Y-49877619D02*
X135580954Y-49830000D01*
X135580954Y-49830000D02*
X135542858Y-49734761D01*
X135542858Y-49734761D02*
X135542858Y-49353809D01*
X135542858Y-49353809D02*
X135580954Y-49258571D01*
X135580954Y-49258571D02*
X135657144Y-49210952D01*
X135657144Y-49210952D02*
X135809525Y-49210952D01*
X135809525Y-49210952D02*
X135885716Y-49258571D01*
X135885716Y-49258571D02*
X135923811Y-49353809D01*
X135923811Y-49353809D02*
X135923811Y-49449047D01*
X135923811Y-49449047D02*
X135542858Y-49544285D01*
X136266668Y-49210952D02*
X136266668Y-49877619D01*
X136266668Y-49306190D02*
X136304763Y-49258571D01*
X136304763Y-49258571D02*
X136380953Y-49210952D01*
X136380953Y-49210952D02*
X136495239Y-49210952D01*
X136495239Y-49210952D02*
X136571430Y-49258571D01*
X136571430Y-49258571D02*
X136609525Y-49353809D01*
X136609525Y-49353809D02*
X136609525Y-49877619D01*
X137333335Y-49877619D02*
X137333335Y-48877619D01*
X137333335Y-49830000D02*
X137257144Y-49877619D01*
X137257144Y-49877619D02*
X137104763Y-49877619D01*
X137104763Y-49877619D02*
X137028573Y-49830000D01*
X137028573Y-49830000D02*
X136990478Y-49782380D01*
X136990478Y-49782380D02*
X136952382Y-49687142D01*
X136952382Y-49687142D02*
X136952382Y-49401428D01*
X136952382Y-49401428D02*
X136990478Y-49306190D01*
X136990478Y-49306190D02*
X137028573Y-49258571D01*
X137028573Y-49258571D02*
X137104763Y-49210952D01*
X137104763Y-49210952D02*
X137257144Y-49210952D01*
X137257144Y-49210952D02*
X137333335Y-49258571D01*
X120888095Y-51715024D02*
X120847619Y-51755501D01*
X120847619Y-51755501D02*
X120726190Y-51795977D01*
X120726190Y-51795977D02*
X120645238Y-51795977D01*
X120645238Y-51795977D02*
X120523809Y-51755501D01*
X120523809Y-51755501D02*
X120442857Y-51674548D01*
X120442857Y-51674548D02*
X120402380Y-51593596D01*
X120402380Y-51593596D02*
X120361904Y-51431691D01*
X120361904Y-51431691D02*
X120361904Y-51310262D01*
X120361904Y-51310262D02*
X120402380Y-51148358D01*
X120402380Y-51148358D02*
X120442857Y-51067405D01*
X120442857Y-51067405D02*
X120523809Y-50986453D01*
X120523809Y-50986453D02*
X120645238Y-50945977D01*
X120645238Y-50945977D02*
X120726190Y-50945977D01*
X120726190Y-50945977D02*
X120847619Y-50986453D01*
X120847619Y-50986453D02*
X120888095Y-51026929D01*
X121657142Y-51795977D02*
X121252380Y-51795977D01*
X121252380Y-51795977D02*
X121252380Y-50945977D01*
X121940475Y-51795977D02*
X121940475Y-50945977D01*
X122426190Y-51795977D02*
X122061904Y-51310262D01*
X122426190Y-50945977D02*
X121940475Y-51431691D01*
X123714285Y-88377619D02*
X123238095Y-88377619D01*
X123238095Y-88377619D02*
X123190476Y-88853809D01*
X123190476Y-88853809D02*
X123238095Y-88806190D01*
X123238095Y-88806190D02*
X123333333Y-88758571D01*
X123333333Y-88758571D02*
X123571428Y-88758571D01*
X123571428Y-88758571D02*
X123666666Y-88806190D01*
X123666666Y-88806190D02*
X123714285Y-88853809D01*
X123714285Y-88853809D02*
X123761904Y-88949047D01*
X123761904Y-88949047D02*
X123761904Y-89187142D01*
X123761904Y-89187142D02*
X123714285Y-89282380D01*
X123714285Y-89282380D02*
X123666666Y-89330000D01*
X123666666Y-89330000D02*
X123571428Y-89377619D01*
X123571428Y-89377619D02*
X123333333Y-89377619D01*
X123333333Y-89377619D02*
X123238095Y-89330000D01*
X123238095Y-89330000D02*
X123190476Y-89282380D01*
X124047619Y-88377619D02*
X124380952Y-89377619D01*
X124380952Y-89377619D02*
X124714285Y-88377619D01*
X108333333Y-59377619D02*
X108333333Y-58377619D01*
X108333333Y-58853809D02*
X108904761Y-58853809D01*
X108904761Y-59377619D02*
X108904761Y-58377619D01*
X108818095Y-53862619D02*
X108818095Y-52862619D01*
X108818095Y-53338809D02*
X109389523Y-53338809D01*
X109389523Y-53862619D02*
X109389523Y-52862619D01*
X110246666Y-53815000D02*
X110151428Y-53862619D01*
X110151428Y-53862619D02*
X109960952Y-53862619D01*
X109960952Y-53862619D02*
X109865714Y-53815000D01*
X109865714Y-53815000D02*
X109818095Y-53719761D01*
X109818095Y-53719761D02*
X109818095Y-53338809D01*
X109818095Y-53338809D02*
X109865714Y-53243571D01*
X109865714Y-53243571D02*
X109960952Y-53195952D01*
X109960952Y-53195952D02*
X110151428Y-53195952D01*
X110151428Y-53195952D02*
X110246666Y-53243571D01*
X110246666Y-53243571D02*
X110294285Y-53338809D01*
X110294285Y-53338809D02*
X110294285Y-53434047D01*
X110294285Y-53434047D02*
X109818095Y-53529285D01*
X111151428Y-53862619D02*
X111151428Y-53338809D01*
X111151428Y-53338809D02*
X111103809Y-53243571D01*
X111103809Y-53243571D02*
X111008571Y-53195952D01*
X111008571Y-53195952D02*
X110818095Y-53195952D01*
X110818095Y-53195952D02*
X110722857Y-53243571D01*
X111151428Y-53815000D02*
X111056190Y-53862619D01*
X111056190Y-53862619D02*
X110818095Y-53862619D01*
X110818095Y-53862619D02*
X110722857Y-53815000D01*
X110722857Y-53815000D02*
X110675238Y-53719761D01*
X110675238Y-53719761D02*
X110675238Y-53624523D01*
X110675238Y-53624523D02*
X110722857Y-53529285D01*
X110722857Y-53529285D02*
X110818095Y-53481666D01*
X110818095Y-53481666D02*
X111056190Y-53481666D01*
X111056190Y-53481666D02*
X111151428Y-53434047D01*
X111627619Y-53862619D02*
X111627619Y-53195952D01*
X111627619Y-53386428D02*
X111675238Y-53291190D01*
X111675238Y-53291190D02*
X111722857Y-53243571D01*
X111722857Y-53243571D02*
X111818095Y-53195952D01*
X111818095Y-53195952D02*
X111913333Y-53195952D01*
X112103810Y-53195952D02*
X112484762Y-53195952D01*
X112246667Y-52862619D02*
X112246667Y-53719761D01*
X112246667Y-53719761D02*
X112294286Y-53815000D01*
X112294286Y-53815000D02*
X112389524Y-53862619D01*
X112389524Y-53862619D02*
X112484762Y-53862619D01*
X112818096Y-53862619D02*
X112818096Y-52862619D01*
X112818096Y-53243571D02*
X112913334Y-53195952D01*
X112913334Y-53195952D02*
X113103810Y-53195952D01*
X113103810Y-53195952D02*
X113199048Y-53243571D01*
X113199048Y-53243571D02*
X113246667Y-53291190D01*
X113246667Y-53291190D02*
X113294286Y-53386428D01*
X113294286Y-53386428D02*
X113294286Y-53672142D01*
X113294286Y-53672142D02*
X113246667Y-53767380D01*
X113246667Y-53767380D02*
X113199048Y-53815000D01*
X113199048Y-53815000D02*
X113103810Y-53862619D01*
X113103810Y-53862619D02*
X112913334Y-53862619D01*
X112913334Y-53862619D02*
X112818096Y-53815000D01*
X114103810Y-53815000D02*
X114008572Y-53862619D01*
X114008572Y-53862619D02*
X113818096Y-53862619D01*
X113818096Y-53862619D02*
X113722858Y-53815000D01*
X113722858Y-53815000D02*
X113675239Y-53719761D01*
X113675239Y-53719761D02*
X113675239Y-53338809D01*
X113675239Y-53338809D02*
X113722858Y-53243571D01*
X113722858Y-53243571D02*
X113818096Y-53195952D01*
X113818096Y-53195952D02*
X114008572Y-53195952D01*
X114008572Y-53195952D02*
X114103810Y-53243571D01*
X114103810Y-53243571D02*
X114151429Y-53338809D01*
X114151429Y-53338809D02*
X114151429Y-53434047D01*
X114151429Y-53434047D02*
X113675239Y-53529285D01*
X115008572Y-53862619D02*
X115008572Y-53338809D01*
X115008572Y-53338809D02*
X114960953Y-53243571D01*
X114960953Y-53243571D02*
X114865715Y-53195952D01*
X114865715Y-53195952D02*
X114675239Y-53195952D01*
X114675239Y-53195952D02*
X114580001Y-53243571D01*
X115008572Y-53815000D02*
X114913334Y-53862619D01*
X114913334Y-53862619D02*
X114675239Y-53862619D01*
X114675239Y-53862619D02*
X114580001Y-53815000D01*
X114580001Y-53815000D02*
X114532382Y-53719761D01*
X114532382Y-53719761D02*
X114532382Y-53624523D01*
X114532382Y-53624523D02*
X114580001Y-53529285D01*
X114580001Y-53529285D02*
X114675239Y-53481666D01*
X114675239Y-53481666D02*
X114913334Y-53481666D01*
X114913334Y-53481666D02*
X115008572Y-53434047D01*
X115341906Y-53195952D02*
X115722858Y-53195952D01*
X115484763Y-52862619D02*
X115484763Y-53719761D01*
X115484763Y-53719761D02*
X115532382Y-53815000D01*
X115532382Y-53815000D02*
X115627620Y-53862619D01*
X115627620Y-53862619D02*
X115722858Y-53862619D01*
X117821428Y-50945977D02*
X118347619Y-50945977D01*
X118347619Y-50945977D02*
X118064285Y-51269786D01*
X118064285Y-51269786D02*
X118185714Y-51269786D01*
X118185714Y-51269786D02*
X118266666Y-51310262D01*
X118266666Y-51310262D02*
X118307142Y-51350739D01*
X118307142Y-51350739D02*
X118347619Y-51431691D01*
X118347619Y-51431691D02*
X118347619Y-51634072D01*
X118347619Y-51634072D02*
X118307142Y-51715024D01*
X118307142Y-51715024D02*
X118266666Y-51755501D01*
X118266666Y-51755501D02*
X118185714Y-51795977D01*
X118185714Y-51795977D02*
X117942857Y-51795977D01*
X117942857Y-51795977D02*
X117861904Y-51755501D01*
X117861904Y-51755501D02*
X117821428Y-51715024D01*
X118590476Y-50945977D02*
X118873809Y-51795977D01*
X118873809Y-51795977D02*
X119157143Y-50945977D01*
X119359523Y-50945977D02*
X119885714Y-50945977D01*
X119885714Y-50945977D02*
X119602380Y-51269786D01*
X119602380Y-51269786D02*
X119723809Y-51269786D01*
X119723809Y-51269786D02*
X119804761Y-51310262D01*
X119804761Y-51310262D02*
X119845237Y-51350739D01*
X119845237Y-51350739D02*
X119885714Y-51431691D01*
X119885714Y-51431691D02*
X119885714Y-51634072D01*
X119885714Y-51634072D02*
X119845237Y-51715024D01*
X119845237Y-51715024D02*
X119804761Y-51755501D01*
X119804761Y-51755501D02*
X119723809Y-51795977D01*
X119723809Y-51795977D02*
X119480952Y-51795977D01*
X119480952Y-51795977D02*
X119399999Y-51755501D01*
X119399999Y-51755501D02*
X119359523Y-51715024D01*
X123548808Y-51795977D02*
X123548808Y-50945977D01*
X124115475Y-50945977D02*
X124277380Y-50945977D01*
X124277380Y-50945977D02*
X124358332Y-50986453D01*
X124358332Y-50986453D02*
X124439285Y-51067405D01*
X124439285Y-51067405D02*
X124479761Y-51229310D01*
X124479761Y-51229310D02*
X124479761Y-51512643D01*
X124479761Y-51512643D02*
X124439285Y-51674548D01*
X124439285Y-51674548D02*
X124358332Y-51755501D01*
X124358332Y-51755501D02*
X124277380Y-51795977D01*
X124277380Y-51795977D02*
X124115475Y-51795977D01*
X124115475Y-51795977D02*
X124034523Y-51755501D01*
X124034523Y-51755501D02*
X123953570Y-51674548D01*
X123953570Y-51674548D02*
X123913094Y-51512643D01*
X123913094Y-51512643D02*
X123913094Y-51229310D01*
X123913094Y-51229310D02*
X123953570Y-51067405D01*
X123953570Y-51067405D02*
X124034523Y-50986453D01*
X124034523Y-50986453D02*
X124115475Y-50945977D01*
X125761904Y-83925238D02*
X125666666Y-83877619D01*
X125666666Y-83877619D02*
X125523809Y-83877619D01*
X125523809Y-83877619D02*
X125380952Y-83925238D01*
X125380952Y-83925238D02*
X125285714Y-84020476D01*
X125285714Y-84020476D02*
X125238095Y-84115714D01*
X125238095Y-84115714D02*
X125190476Y-84306190D01*
X125190476Y-84306190D02*
X125190476Y-84449047D01*
X125190476Y-84449047D02*
X125238095Y-84639523D01*
X125238095Y-84639523D02*
X125285714Y-84734761D01*
X125285714Y-84734761D02*
X125380952Y-84830000D01*
X125380952Y-84830000D02*
X125523809Y-84877619D01*
X125523809Y-84877619D02*
X125619047Y-84877619D01*
X125619047Y-84877619D02*
X125761904Y-84830000D01*
X125761904Y-84830000D02*
X125809523Y-84782380D01*
X125809523Y-84782380D02*
X125809523Y-84449047D01*
X125809523Y-84449047D02*
X125619047Y-84449047D01*
X126238095Y-84877619D02*
X126238095Y-83877619D01*
X126238095Y-83877619D02*
X126809523Y-84877619D01*
X126809523Y-84877619D02*
X126809523Y-83877619D01*
X127285714Y-84877619D02*
X127285714Y-83877619D01*
X127285714Y-83877619D02*
X127523809Y-83877619D01*
X127523809Y-83877619D02*
X127666666Y-83925238D01*
X127666666Y-83925238D02*
X127761904Y-84020476D01*
X127761904Y-84020476D02*
X127809523Y-84115714D01*
X127809523Y-84115714D02*
X127857142Y-84306190D01*
X127857142Y-84306190D02*
X127857142Y-84449047D01*
X127857142Y-84449047D02*
X127809523Y-84639523D01*
X127809523Y-84639523D02*
X127761904Y-84734761D01*
X127761904Y-84734761D02*
X127666666Y-84830000D01*
X127666666Y-84830000D02*
X127523809Y-84877619D01*
X127523809Y-84877619D02*
X127285714Y-84877619D01*
X129714285Y-86757619D02*
X129238095Y-86757619D01*
X129238095Y-86757619D02*
X129190476Y-87233809D01*
X129190476Y-87233809D02*
X129238095Y-87186190D01*
X129238095Y-87186190D02*
X129333333Y-87138571D01*
X129333333Y-87138571D02*
X129571428Y-87138571D01*
X129571428Y-87138571D02*
X129666666Y-87186190D01*
X129666666Y-87186190D02*
X129714285Y-87233809D01*
X129714285Y-87233809D02*
X129761904Y-87329047D01*
X129761904Y-87329047D02*
X129761904Y-87567142D01*
X129761904Y-87567142D02*
X129714285Y-87662380D01*
X129714285Y-87662380D02*
X129666666Y-87710000D01*
X129666666Y-87710000D02*
X129571428Y-87757619D01*
X129571428Y-87757619D02*
X129333333Y-87757619D01*
X129333333Y-87757619D02*
X129238095Y-87710000D01*
X129238095Y-87710000D02*
X129190476Y-87662380D01*
X130047619Y-86757619D02*
X130380952Y-87757619D01*
X130380952Y-87757619D02*
X130714285Y-86757619D01*
X129238095Y-89377619D02*
X129238095Y-88377619D01*
X129714285Y-88710952D02*
X129714285Y-89377619D01*
X129714285Y-88806190D02*
X129761904Y-88758571D01*
X129761904Y-88758571D02*
X129857142Y-88710952D01*
X129857142Y-88710952D02*
X129999999Y-88710952D01*
X129999999Y-88710952D02*
X130095237Y-88758571D01*
X130095237Y-88758571D02*
X130142856Y-88853809D01*
X130142856Y-88853809D02*
X130142856Y-89377619D01*
X108238095Y-69996666D02*
X109000000Y-69996666D01*
X108619047Y-70377619D02*
X108619047Y-69615714D01*
X132761904Y-82805238D02*
X132666666Y-82757619D01*
X132666666Y-82757619D02*
X132523809Y-82757619D01*
X132523809Y-82757619D02*
X132380952Y-82805238D01*
X132380952Y-82805238D02*
X132285714Y-82900476D01*
X132285714Y-82900476D02*
X132238095Y-82995714D01*
X132238095Y-82995714D02*
X132190476Y-83186190D01*
X132190476Y-83186190D02*
X132190476Y-83329047D01*
X132190476Y-83329047D02*
X132238095Y-83519523D01*
X132238095Y-83519523D02*
X132285714Y-83614761D01*
X132285714Y-83614761D02*
X132380952Y-83710000D01*
X132380952Y-83710000D02*
X132523809Y-83757619D01*
X132523809Y-83757619D02*
X132619047Y-83757619D01*
X132619047Y-83757619D02*
X132761904Y-83710000D01*
X132761904Y-83710000D02*
X132809523Y-83662380D01*
X132809523Y-83662380D02*
X132809523Y-83329047D01*
X132809523Y-83329047D02*
X132619047Y-83329047D01*
X133238095Y-83757619D02*
X133238095Y-82757619D01*
X133238095Y-82757619D02*
X133809523Y-83757619D01*
X133809523Y-83757619D02*
X133809523Y-82757619D01*
X134285714Y-83757619D02*
X134285714Y-82757619D01*
X134285714Y-82757619D02*
X134523809Y-82757619D01*
X134523809Y-82757619D02*
X134666666Y-82805238D01*
X134666666Y-82805238D02*
X134761904Y-82900476D01*
X134761904Y-82900476D02*
X134809523Y-82995714D01*
X134809523Y-82995714D02*
X134857142Y-83186190D01*
X134857142Y-83186190D02*
X134857142Y-83329047D01*
X134857142Y-83329047D02*
X134809523Y-83519523D01*
X134809523Y-83519523D02*
X134761904Y-83614761D01*
X134761904Y-83614761D02*
X134666666Y-83710000D01*
X134666666Y-83710000D02*
X134523809Y-83757619D01*
X134523809Y-83757619D02*
X134285714Y-83757619D01*
X132238095Y-85377619D02*
X132238095Y-84377619D01*
X132238095Y-84377619D02*
X132619047Y-84377619D01*
X132619047Y-84377619D02*
X132714285Y-84425238D01*
X132714285Y-84425238D02*
X132761904Y-84472857D01*
X132761904Y-84472857D02*
X132809523Y-84568095D01*
X132809523Y-84568095D02*
X132809523Y-84710952D01*
X132809523Y-84710952D02*
X132761904Y-84806190D01*
X132761904Y-84806190D02*
X132714285Y-84853809D01*
X132714285Y-84853809D02*
X132619047Y-84901428D01*
X132619047Y-84901428D02*
X132238095Y-84901428D01*
X133142857Y-84377619D02*
X133380952Y-85377619D01*
X133380952Y-85377619D02*
X133571428Y-84663333D01*
X133571428Y-84663333D02*
X133761904Y-85377619D01*
X133761904Y-85377619D02*
X134000000Y-84377619D01*
X134952380Y-85377619D02*
X134619047Y-84901428D01*
X134380952Y-85377619D02*
X134380952Y-84377619D01*
X134380952Y-84377619D02*
X134761904Y-84377619D01*
X134761904Y-84377619D02*
X134857142Y-84425238D01*
X134857142Y-84425238D02*
X134904761Y-84472857D01*
X134904761Y-84472857D02*
X134952380Y-84568095D01*
X134952380Y-84568095D02*
X134952380Y-84710952D01*
X134952380Y-84710952D02*
X134904761Y-84806190D01*
X134904761Y-84806190D02*
X134857142Y-84853809D01*
X134857142Y-84853809D02*
X134761904Y-84901428D01*
X134761904Y-84901428D02*
X134380952Y-84901428D01*
X108238095Y-55996666D02*
X109000000Y-55996666D01*
X108619047Y-56377619D02*
X108619047Y-55615714D01*
X126047619Y-50986453D02*
X125966666Y-50945977D01*
X125966666Y-50945977D02*
X125845238Y-50945977D01*
X125845238Y-50945977D02*
X125723809Y-50986453D01*
X125723809Y-50986453D02*
X125642857Y-51067405D01*
X125642857Y-51067405D02*
X125602380Y-51148358D01*
X125602380Y-51148358D02*
X125561904Y-51310262D01*
X125561904Y-51310262D02*
X125561904Y-51431691D01*
X125561904Y-51431691D02*
X125602380Y-51593596D01*
X125602380Y-51593596D02*
X125642857Y-51674548D01*
X125642857Y-51674548D02*
X125723809Y-51755501D01*
X125723809Y-51755501D02*
X125845238Y-51795977D01*
X125845238Y-51795977D02*
X125926190Y-51795977D01*
X125926190Y-51795977D02*
X126047619Y-51755501D01*
X126047619Y-51755501D02*
X126088095Y-51715024D01*
X126088095Y-51715024D02*
X126088095Y-51431691D01*
X126088095Y-51431691D02*
X125926190Y-51431691D01*
X126452380Y-51795977D02*
X126452380Y-50945977D01*
X126452380Y-50945977D02*
X126938095Y-51795977D01*
X126938095Y-51795977D02*
X126938095Y-50945977D01*
X127342856Y-51795977D02*
X127342856Y-50945977D01*
X127342856Y-50945977D02*
X127545237Y-50945977D01*
X127545237Y-50945977D02*
X127666666Y-50986453D01*
X127666666Y-50986453D02*
X127747618Y-51067405D01*
X127747618Y-51067405D02*
X127788095Y-51148358D01*
X127788095Y-51148358D02*
X127828571Y-51310262D01*
X127828571Y-51310262D02*
X127828571Y-51431691D01*
X127828571Y-51431691D02*
X127788095Y-51593596D01*
X127788095Y-51593596D02*
X127747618Y-51674548D01*
X127747618Y-51674548D02*
X127666666Y-51755501D01*
X127666666Y-51755501D02*
X127545237Y-51795977D01*
X127545237Y-51795977D02*
X127342856Y-51795977D01*
X121309523Y-83377619D02*
X120976190Y-82901428D01*
X120738095Y-83377619D02*
X120738095Y-82377619D01*
X120738095Y-82377619D02*
X121119047Y-82377619D01*
X121119047Y-82377619D02*
X121214285Y-82425238D01*
X121214285Y-82425238D02*
X121261904Y-82472857D01*
X121261904Y-82472857D02*
X121309523Y-82568095D01*
X121309523Y-82568095D02*
X121309523Y-82710952D01*
X121309523Y-82710952D02*
X121261904Y-82806190D01*
X121261904Y-82806190D02*
X121214285Y-82853809D01*
X121214285Y-82853809D02*
X121119047Y-82901428D01*
X121119047Y-82901428D02*
X120738095Y-82901428D01*
X121690476Y-83330000D02*
X121833333Y-83377619D01*
X121833333Y-83377619D02*
X122071428Y-83377619D01*
X122071428Y-83377619D02*
X122166666Y-83330000D01*
X122166666Y-83330000D02*
X122214285Y-83282380D01*
X122214285Y-83282380D02*
X122261904Y-83187142D01*
X122261904Y-83187142D02*
X122261904Y-83091904D01*
X122261904Y-83091904D02*
X122214285Y-82996666D01*
X122214285Y-82996666D02*
X122166666Y-82949047D01*
X122166666Y-82949047D02*
X122071428Y-82901428D01*
X122071428Y-82901428D02*
X121880952Y-82853809D01*
X121880952Y-82853809D02*
X121785714Y-82806190D01*
X121785714Y-82806190D02*
X121738095Y-82758571D01*
X121738095Y-82758571D02*
X121690476Y-82663333D01*
X121690476Y-82663333D02*
X121690476Y-82568095D01*
X121690476Y-82568095D02*
X121738095Y-82472857D01*
X121738095Y-82472857D02*
X121785714Y-82425238D01*
X121785714Y-82425238D02*
X121880952Y-82377619D01*
X121880952Y-82377619D02*
X122119047Y-82377619D01*
X122119047Y-82377619D02*
X122261904Y-82425238D01*
X122547619Y-82377619D02*
X123119047Y-82377619D01*
X122833333Y-83377619D02*
X122833333Y-82377619D01*
X108333333Y-73377619D02*
X108333333Y-72377619D01*
X108333333Y-72853809D02*
X108904761Y-72853809D01*
X108904761Y-73377619D02*
X108904761Y-72377619D01*
%TO.C,SW5*%
X133166667Y-79415000D02*
X133309524Y-79462619D01*
X133309524Y-79462619D02*
X133547619Y-79462619D01*
X133547619Y-79462619D02*
X133642857Y-79415000D01*
X133642857Y-79415000D02*
X133690476Y-79367380D01*
X133690476Y-79367380D02*
X133738095Y-79272142D01*
X133738095Y-79272142D02*
X133738095Y-79176904D01*
X133738095Y-79176904D02*
X133690476Y-79081666D01*
X133690476Y-79081666D02*
X133642857Y-79034047D01*
X133642857Y-79034047D02*
X133547619Y-78986428D01*
X133547619Y-78986428D02*
X133357143Y-78938809D01*
X133357143Y-78938809D02*
X133261905Y-78891190D01*
X133261905Y-78891190D02*
X133214286Y-78843571D01*
X133214286Y-78843571D02*
X133166667Y-78748333D01*
X133166667Y-78748333D02*
X133166667Y-78653095D01*
X133166667Y-78653095D02*
X133214286Y-78557857D01*
X133214286Y-78557857D02*
X133261905Y-78510238D01*
X133261905Y-78510238D02*
X133357143Y-78462619D01*
X133357143Y-78462619D02*
X133595238Y-78462619D01*
X133595238Y-78462619D02*
X133738095Y-78510238D01*
X134071429Y-78462619D02*
X134309524Y-79462619D01*
X134309524Y-79462619D02*
X134500000Y-78748333D01*
X134500000Y-78748333D02*
X134690476Y-79462619D01*
X134690476Y-79462619D02*
X134928572Y-78462619D01*
X135785714Y-78462619D02*
X135309524Y-78462619D01*
X135309524Y-78462619D02*
X135261905Y-78938809D01*
X135261905Y-78938809D02*
X135309524Y-78891190D01*
X135309524Y-78891190D02*
X135404762Y-78843571D01*
X135404762Y-78843571D02*
X135642857Y-78843571D01*
X135642857Y-78843571D02*
X135738095Y-78891190D01*
X135738095Y-78891190D02*
X135785714Y-78938809D01*
X135785714Y-78938809D02*
X135833333Y-79034047D01*
X135833333Y-79034047D02*
X135833333Y-79272142D01*
X135833333Y-79272142D02*
X135785714Y-79367380D01*
X135785714Y-79367380D02*
X135738095Y-79415000D01*
X135738095Y-79415000D02*
X135642857Y-79462619D01*
X135642857Y-79462619D02*
X135404762Y-79462619D01*
X135404762Y-79462619D02*
X135309524Y-79415000D01*
X135309524Y-79415000D02*
X135261905Y-79367380D01*
%TO.C,C22*%
X124547380Y-73542857D02*
X124595000Y-73590476D01*
X124595000Y-73590476D02*
X124642619Y-73733333D01*
X124642619Y-73733333D02*
X124642619Y-73828571D01*
X124642619Y-73828571D02*
X124595000Y-73971428D01*
X124595000Y-73971428D02*
X124499761Y-74066666D01*
X124499761Y-74066666D02*
X124404523Y-74114285D01*
X124404523Y-74114285D02*
X124214047Y-74161904D01*
X124214047Y-74161904D02*
X124071190Y-74161904D01*
X124071190Y-74161904D02*
X123880714Y-74114285D01*
X123880714Y-74114285D02*
X123785476Y-74066666D01*
X123785476Y-74066666D02*
X123690238Y-73971428D01*
X123690238Y-73971428D02*
X123642619Y-73828571D01*
X123642619Y-73828571D02*
X123642619Y-73733333D01*
X123642619Y-73733333D02*
X123690238Y-73590476D01*
X123690238Y-73590476D02*
X123737857Y-73542857D01*
X123737857Y-73161904D02*
X123690238Y-73114285D01*
X123690238Y-73114285D02*
X123642619Y-73019047D01*
X123642619Y-73019047D02*
X123642619Y-72780952D01*
X123642619Y-72780952D02*
X123690238Y-72685714D01*
X123690238Y-72685714D02*
X123737857Y-72638095D01*
X123737857Y-72638095D02*
X123833095Y-72590476D01*
X123833095Y-72590476D02*
X123928333Y-72590476D01*
X123928333Y-72590476D02*
X124071190Y-72638095D01*
X124071190Y-72638095D02*
X124642619Y-73209523D01*
X124642619Y-73209523D02*
X124642619Y-72590476D01*
X123737857Y-72209523D02*
X123690238Y-72161904D01*
X123690238Y-72161904D02*
X123642619Y-72066666D01*
X123642619Y-72066666D02*
X123642619Y-71828571D01*
X123642619Y-71828571D02*
X123690238Y-71733333D01*
X123690238Y-71733333D02*
X123737857Y-71685714D01*
X123737857Y-71685714D02*
X123833095Y-71638095D01*
X123833095Y-71638095D02*
X123928333Y-71638095D01*
X123928333Y-71638095D02*
X124071190Y-71685714D01*
X124071190Y-71685714D02*
X124642619Y-72257142D01*
X124642619Y-72257142D02*
X124642619Y-71638095D01*
D11*
%TO.C,IC1*%
X136682526Y-56950762D02*
X135412526Y-56950762D01*
X136561573Y-55620285D02*
X136622050Y-55680761D01*
X136622050Y-55680761D02*
X136682526Y-55862190D01*
X136682526Y-55862190D02*
X136682526Y-55983142D01*
X136682526Y-55983142D02*
X136622050Y-56164571D01*
X136622050Y-56164571D02*
X136501097Y-56285523D01*
X136501097Y-56285523D02*
X136380145Y-56346000D01*
X136380145Y-56346000D02*
X136138240Y-56406476D01*
X136138240Y-56406476D02*
X135956811Y-56406476D01*
X135956811Y-56406476D02*
X135714907Y-56346000D01*
X135714907Y-56346000D02*
X135593954Y-56285523D01*
X135593954Y-56285523D02*
X135473002Y-56164571D01*
X135473002Y-56164571D02*
X135412526Y-55983142D01*
X135412526Y-55983142D02*
X135412526Y-55862190D01*
X135412526Y-55862190D02*
X135473002Y-55680761D01*
X135473002Y-55680761D02*
X135533478Y-55620285D01*
X136682526Y-54410761D02*
X136682526Y-55136476D01*
X136682526Y-54773619D02*
X135412526Y-54773619D01*
X135412526Y-54773619D02*
X135593954Y-54894571D01*
X135593954Y-54894571D02*
X135714907Y-55015523D01*
X135714907Y-55015523D02*
X135775383Y-55136476D01*
D10*
%TO.C,Y1*%
X120023809Y-66386428D02*
X120023809Y-66862619D01*
X119690476Y-65862619D02*
X120023809Y-66386428D01*
X120023809Y-66386428D02*
X120357142Y-65862619D01*
X121214285Y-66862619D02*
X120642857Y-66862619D01*
X120928571Y-66862619D02*
X120928571Y-65862619D01*
X120928571Y-65862619D02*
X120833333Y-66005476D01*
X120833333Y-66005476D02*
X120738095Y-66100714D01*
X120738095Y-66100714D02*
X120642857Y-66148333D01*
%TO.C,D14*%
X113285714Y-58962619D02*
X113285714Y-57962619D01*
X113285714Y-57962619D02*
X113523809Y-57962619D01*
X113523809Y-57962619D02*
X113666666Y-58010238D01*
X113666666Y-58010238D02*
X113761904Y-58105476D01*
X113761904Y-58105476D02*
X113809523Y-58200714D01*
X113809523Y-58200714D02*
X113857142Y-58391190D01*
X113857142Y-58391190D02*
X113857142Y-58534047D01*
X113857142Y-58534047D02*
X113809523Y-58724523D01*
X113809523Y-58724523D02*
X113761904Y-58819761D01*
X113761904Y-58819761D02*
X113666666Y-58915000D01*
X113666666Y-58915000D02*
X113523809Y-58962619D01*
X113523809Y-58962619D02*
X113285714Y-58962619D01*
X114809523Y-58962619D02*
X114238095Y-58962619D01*
X114523809Y-58962619D02*
X114523809Y-57962619D01*
X114523809Y-57962619D02*
X114428571Y-58105476D01*
X114428571Y-58105476D02*
X114333333Y-58200714D01*
X114333333Y-58200714D02*
X114238095Y-58248333D01*
X115666666Y-58295952D02*
X115666666Y-58962619D01*
X115428571Y-57915000D02*
X115190476Y-58629285D01*
X115190476Y-58629285D02*
X115809523Y-58629285D01*
%TO.C,JP1*%
X120666666Y-46962619D02*
X120666666Y-47676904D01*
X120666666Y-47676904D02*
X120619047Y-47819761D01*
X120619047Y-47819761D02*
X120523809Y-47915000D01*
X120523809Y-47915000D02*
X120380952Y-47962619D01*
X120380952Y-47962619D02*
X120285714Y-47962619D01*
X121142857Y-47962619D02*
X121142857Y-46962619D01*
X121142857Y-46962619D02*
X121523809Y-46962619D01*
X121523809Y-46962619D02*
X121619047Y-47010238D01*
X121619047Y-47010238D02*
X121666666Y-47057857D01*
X121666666Y-47057857D02*
X121714285Y-47153095D01*
X121714285Y-47153095D02*
X121714285Y-47295952D01*
X121714285Y-47295952D02*
X121666666Y-47391190D01*
X121666666Y-47391190D02*
X121619047Y-47438809D01*
X121619047Y-47438809D02*
X121523809Y-47486428D01*
X121523809Y-47486428D02*
X121142857Y-47486428D01*
X122666666Y-47962619D02*
X122095238Y-47962619D01*
X122380952Y-47962619D02*
X122380952Y-46962619D01*
X122380952Y-46962619D02*
X122285714Y-47105476D01*
X122285714Y-47105476D02*
X122190476Y-47200714D01*
X122190476Y-47200714D02*
X122095238Y-47248333D01*
%TO.C,U1*%
X116738095Y-55462619D02*
X116738095Y-56272142D01*
X116738095Y-56272142D02*
X116785714Y-56367380D01*
X116785714Y-56367380D02*
X116833333Y-56415000D01*
X116833333Y-56415000D02*
X116928571Y-56462619D01*
X116928571Y-56462619D02*
X117119047Y-56462619D01*
X117119047Y-56462619D02*
X117214285Y-56415000D01*
X117214285Y-56415000D02*
X117261904Y-56367380D01*
X117261904Y-56367380D02*
X117309523Y-56272142D01*
X117309523Y-56272142D02*
X117309523Y-55462619D01*
X118309523Y-56462619D02*
X117738095Y-56462619D01*
X118023809Y-56462619D02*
X118023809Y-55462619D01*
X118023809Y-55462619D02*
X117928571Y-55605476D01*
X117928571Y-55605476D02*
X117833333Y-55700714D01*
X117833333Y-55700714D02*
X117738095Y-55748333D01*
%TO.C,SW1*%
X122166667Y-78915000D02*
X122309524Y-78962619D01*
X122309524Y-78962619D02*
X122547619Y-78962619D01*
X122547619Y-78962619D02*
X122642857Y-78915000D01*
X122642857Y-78915000D02*
X122690476Y-78867380D01*
X122690476Y-78867380D02*
X122738095Y-78772142D01*
X122738095Y-78772142D02*
X122738095Y-78676904D01*
X122738095Y-78676904D02*
X122690476Y-78581666D01*
X122690476Y-78581666D02*
X122642857Y-78534047D01*
X122642857Y-78534047D02*
X122547619Y-78486428D01*
X122547619Y-78486428D02*
X122357143Y-78438809D01*
X122357143Y-78438809D02*
X122261905Y-78391190D01*
X122261905Y-78391190D02*
X122214286Y-78343571D01*
X122214286Y-78343571D02*
X122166667Y-78248333D01*
X122166667Y-78248333D02*
X122166667Y-78153095D01*
X122166667Y-78153095D02*
X122214286Y-78057857D01*
X122214286Y-78057857D02*
X122261905Y-78010238D01*
X122261905Y-78010238D02*
X122357143Y-77962619D01*
X122357143Y-77962619D02*
X122595238Y-77962619D01*
X122595238Y-77962619D02*
X122738095Y-78010238D01*
X123071429Y-77962619D02*
X123309524Y-78962619D01*
X123309524Y-78962619D02*
X123500000Y-78248333D01*
X123500000Y-78248333D02*
X123690476Y-78962619D01*
X123690476Y-78962619D02*
X123928572Y-77962619D01*
X124833333Y-78962619D02*
X124261905Y-78962619D01*
X124547619Y-78962619D02*
X124547619Y-77962619D01*
X124547619Y-77962619D02*
X124452381Y-78105476D01*
X124452381Y-78105476D02*
X124357143Y-78200714D01*
X124357143Y-78200714D02*
X124261905Y-78248333D01*
%TO.C,MH1*%
X118666667Y-86462619D02*
X118666667Y-85462619D01*
X118666667Y-85462619D02*
X119000000Y-86176904D01*
X119000000Y-86176904D02*
X119333333Y-85462619D01*
X119333333Y-85462619D02*
X119333333Y-86462619D01*
X119809524Y-86462619D02*
X119809524Y-85462619D01*
X119809524Y-85938809D02*
X120380952Y-85938809D01*
X120380952Y-86462619D02*
X120380952Y-85462619D01*
X121380952Y-86462619D02*
X120809524Y-86462619D01*
X121095238Y-86462619D02*
X121095238Y-85462619D01*
X121095238Y-85462619D02*
X121000000Y-85605476D01*
X121000000Y-85605476D02*
X120904762Y-85700714D01*
X120904762Y-85700714D02*
X120809524Y-85748333D01*
%TO.C,U7*%
X115738095Y-40962619D02*
X115738095Y-41772142D01*
X115738095Y-41772142D02*
X115785714Y-41867380D01*
X115785714Y-41867380D02*
X115833333Y-41915000D01*
X115833333Y-41915000D02*
X115928571Y-41962619D01*
X115928571Y-41962619D02*
X116119047Y-41962619D01*
X116119047Y-41962619D02*
X116214285Y-41915000D01*
X116214285Y-41915000D02*
X116261904Y-41867380D01*
X116261904Y-41867380D02*
X116309523Y-41772142D01*
X116309523Y-41772142D02*
X116309523Y-40962619D01*
X116690476Y-40962619D02*
X117357142Y-40962619D01*
X117357142Y-40962619D02*
X116928571Y-41962619D01*
%TO.C,MH2*%
X118666667Y-44462619D02*
X118666667Y-43462619D01*
X118666667Y-43462619D02*
X119000000Y-44176904D01*
X119000000Y-44176904D02*
X119333333Y-43462619D01*
X119333333Y-43462619D02*
X119333333Y-44462619D01*
X119809524Y-44462619D02*
X119809524Y-43462619D01*
X119809524Y-43938809D02*
X120380952Y-43938809D01*
X120380952Y-44462619D02*
X120380952Y-43462619D01*
X120809524Y-43557857D02*
X120857143Y-43510238D01*
X120857143Y-43510238D02*
X120952381Y-43462619D01*
X120952381Y-43462619D02*
X121190476Y-43462619D01*
X121190476Y-43462619D02*
X121285714Y-43510238D01*
X121285714Y-43510238D02*
X121333333Y-43557857D01*
X121333333Y-43557857D02*
X121380952Y-43653095D01*
X121380952Y-43653095D02*
X121380952Y-43748333D01*
X121380952Y-43748333D02*
X121333333Y-43891190D01*
X121333333Y-43891190D02*
X120761905Y-44462619D01*
X120761905Y-44462619D02*
X121380952Y-44462619D01*
%TO.C,SW2*%
X133666667Y-72415000D02*
X133809524Y-72462619D01*
X133809524Y-72462619D02*
X134047619Y-72462619D01*
X134047619Y-72462619D02*
X134142857Y-72415000D01*
X134142857Y-72415000D02*
X134190476Y-72367380D01*
X134190476Y-72367380D02*
X134238095Y-72272142D01*
X134238095Y-72272142D02*
X134238095Y-72176904D01*
X134238095Y-72176904D02*
X134190476Y-72081666D01*
X134190476Y-72081666D02*
X134142857Y-72034047D01*
X134142857Y-72034047D02*
X134047619Y-71986428D01*
X134047619Y-71986428D02*
X133857143Y-71938809D01*
X133857143Y-71938809D02*
X133761905Y-71891190D01*
X133761905Y-71891190D02*
X133714286Y-71843571D01*
X133714286Y-71843571D02*
X133666667Y-71748333D01*
X133666667Y-71748333D02*
X133666667Y-71653095D01*
X133666667Y-71653095D02*
X133714286Y-71557857D01*
X133714286Y-71557857D02*
X133761905Y-71510238D01*
X133761905Y-71510238D02*
X133857143Y-71462619D01*
X133857143Y-71462619D02*
X134095238Y-71462619D01*
X134095238Y-71462619D02*
X134238095Y-71510238D01*
X134571429Y-71462619D02*
X134809524Y-72462619D01*
X134809524Y-72462619D02*
X135000000Y-71748333D01*
X135000000Y-71748333D02*
X135190476Y-72462619D01*
X135190476Y-72462619D02*
X135428572Y-71462619D01*
X135761905Y-71557857D02*
X135809524Y-71510238D01*
X135809524Y-71510238D02*
X135904762Y-71462619D01*
X135904762Y-71462619D02*
X136142857Y-71462619D01*
X136142857Y-71462619D02*
X136238095Y-71510238D01*
X136238095Y-71510238D02*
X136285714Y-71557857D01*
X136285714Y-71557857D02*
X136333333Y-71653095D01*
X136333333Y-71653095D02*
X136333333Y-71748333D01*
X136333333Y-71748333D02*
X136285714Y-71891190D01*
X136285714Y-71891190D02*
X135714286Y-72462619D01*
X135714286Y-72462619D02*
X136333333Y-72462619D01*
%TO.C,C3*%
X113833333Y-71867380D02*
X113785714Y-71915000D01*
X113785714Y-71915000D02*
X113642857Y-71962619D01*
X113642857Y-71962619D02*
X113547619Y-71962619D01*
X113547619Y-71962619D02*
X113404762Y-71915000D01*
X113404762Y-71915000D02*
X113309524Y-71819761D01*
X113309524Y-71819761D02*
X113261905Y-71724523D01*
X113261905Y-71724523D02*
X113214286Y-71534047D01*
X113214286Y-71534047D02*
X113214286Y-71391190D01*
X113214286Y-71391190D02*
X113261905Y-71200714D01*
X113261905Y-71200714D02*
X113309524Y-71105476D01*
X113309524Y-71105476D02*
X113404762Y-71010238D01*
X113404762Y-71010238D02*
X113547619Y-70962619D01*
X113547619Y-70962619D02*
X113642857Y-70962619D01*
X113642857Y-70962619D02*
X113785714Y-71010238D01*
X113785714Y-71010238D02*
X113833333Y-71057857D01*
X114166667Y-70962619D02*
X114785714Y-70962619D01*
X114785714Y-70962619D02*
X114452381Y-71343571D01*
X114452381Y-71343571D02*
X114595238Y-71343571D01*
X114595238Y-71343571D02*
X114690476Y-71391190D01*
X114690476Y-71391190D02*
X114738095Y-71438809D01*
X114738095Y-71438809D02*
X114785714Y-71534047D01*
X114785714Y-71534047D02*
X114785714Y-71772142D01*
X114785714Y-71772142D02*
X114738095Y-71867380D01*
X114738095Y-71867380D02*
X114690476Y-71915000D01*
X114690476Y-71915000D02*
X114595238Y-71962619D01*
X114595238Y-71962619D02*
X114309524Y-71962619D01*
X114309524Y-71962619D02*
X114214286Y-71915000D01*
X114214286Y-71915000D02*
X114166667Y-71867380D01*
%TO.C,D12*%
X113285714Y-63962619D02*
X113285714Y-62962619D01*
X113285714Y-62962619D02*
X113523809Y-62962619D01*
X113523809Y-62962619D02*
X113666666Y-63010238D01*
X113666666Y-63010238D02*
X113761904Y-63105476D01*
X113761904Y-63105476D02*
X113809523Y-63200714D01*
X113809523Y-63200714D02*
X113857142Y-63391190D01*
X113857142Y-63391190D02*
X113857142Y-63534047D01*
X113857142Y-63534047D02*
X113809523Y-63724523D01*
X113809523Y-63724523D02*
X113761904Y-63819761D01*
X113761904Y-63819761D02*
X113666666Y-63915000D01*
X113666666Y-63915000D02*
X113523809Y-63962619D01*
X113523809Y-63962619D02*
X113285714Y-63962619D01*
X114809523Y-63962619D02*
X114238095Y-63962619D01*
X114523809Y-63962619D02*
X114523809Y-62962619D01*
X114523809Y-62962619D02*
X114428571Y-63105476D01*
X114428571Y-63105476D02*
X114333333Y-63200714D01*
X114333333Y-63200714D02*
X114238095Y-63248333D01*
X115190476Y-63057857D02*
X115238095Y-63010238D01*
X115238095Y-63010238D02*
X115333333Y-62962619D01*
X115333333Y-62962619D02*
X115571428Y-62962619D01*
X115571428Y-62962619D02*
X115666666Y-63010238D01*
X115666666Y-63010238D02*
X115714285Y-63057857D01*
X115714285Y-63057857D02*
X115761904Y-63153095D01*
X115761904Y-63153095D02*
X115761904Y-63248333D01*
X115761904Y-63248333D02*
X115714285Y-63391190D01*
X115714285Y-63391190D02*
X115142857Y-63962619D01*
X115142857Y-63962619D02*
X115761904Y-63962619D01*
%TO.C,C21*%
X120547380Y-73542857D02*
X120595000Y-73590476D01*
X120595000Y-73590476D02*
X120642619Y-73733333D01*
X120642619Y-73733333D02*
X120642619Y-73828571D01*
X120642619Y-73828571D02*
X120595000Y-73971428D01*
X120595000Y-73971428D02*
X120499761Y-74066666D01*
X120499761Y-74066666D02*
X120404523Y-74114285D01*
X120404523Y-74114285D02*
X120214047Y-74161904D01*
X120214047Y-74161904D02*
X120071190Y-74161904D01*
X120071190Y-74161904D02*
X119880714Y-74114285D01*
X119880714Y-74114285D02*
X119785476Y-74066666D01*
X119785476Y-74066666D02*
X119690238Y-73971428D01*
X119690238Y-73971428D02*
X119642619Y-73828571D01*
X119642619Y-73828571D02*
X119642619Y-73733333D01*
X119642619Y-73733333D02*
X119690238Y-73590476D01*
X119690238Y-73590476D02*
X119737857Y-73542857D01*
X119737857Y-73161904D02*
X119690238Y-73114285D01*
X119690238Y-73114285D02*
X119642619Y-73019047D01*
X119642619Y-73019047D02*
X119642619Y-72780952D01*
X119642619Y-72780952D02*
X119690238Y-72685714D01*
X119690238Y-72685714D02*
X119737857Y-72638095D01*
X119737857Y-72638095D02*
X119833095Y-72590476D01*
X119833095Y-72590476D02*
X119928333Y-72590476D01*
X119928333Y-72590476D02*
X120071190Y-72638095D01*
X120071190Y-72638095D02*
X120642619Y-73209523D01*
X120642619Y-73209523D02*
X120642619Y-72590476D01*
X120642619Y-71638095D02*
X120642619Y-72209523D01*
X120642619Y-71923809D02*
X119642619Y-71923809D01*
X119642619Y-71923809D02*
X119785476Y-72019047D01*
X119785476Y-72019047D02*
X119880714Y-72114285D01*
X119880714Y-72114285D02*
X119928333Y-72209523D01*
%TO.C,J2*%
X106666666Y-65962619D02*
X106666666Y-66676904D01*
X106666666Y-66676904D02*
X106619047Y-66819761D01*
X106619047Y-66819761D02*
X106523809Y-66915000D01*
X106523809Y-66915000D02*
X106380952Y-66962619D01*
X106380952Y-66962619D02*
X106285714Y-66962619D01*
X107095238Y-66057857D02*
X107142857Y-66010238D01*
X107142857Y-66010238D02*
X107238095Y-65962619D01*
X107238095Y-65962619D02*
X107476190Y-65962619D01*
X107476190Y-65962619D02*
X107571428Y-66010238D01*
X107571428Y-66010238D02*
X107619047Y-66057857D01*
X107619047Y-66057857D02*
X107666666Y-66153095D01*
X107666666Y-66153095D02*
X107666666Y-66248333D01*
X107666666Y-66248333D02*
X107619047Y-66391190D01*
X107619047Y-66391190D02*
X107047619Y-66962619D01*
X107047619Y-66962619D02*
X107666666Y-66962619D01*
%TO.C,U2*%
X105438095Y-85462619D02*
X105438095Y-86272142D01*
X105438095Y-86272142D02*
X105485714Y-86367380D01*
X105485714Y-86367380D02*
X105533333Y-86415000D01*
X105533333Y-86415000D02*
X105628571Y-86462619D01*
X105628571Y-86462619D02*
X105819047Y-86462619D01*
X105819047Y-86462619D02*
X105914285Y-86415000D01*
X105914285Y-86415000D02*
X105961904Y-86367380D01*
X105961904Y-86367380D02*
X106009523Y-86272142D01*
X106009523Y-86272142D02*
X106009523Y-85462619D01*
X106438095Y-85557857D02*
X106485714Y-85510238D01*
X106485714Y-85510238D02*
X106580952Y-85462619D01*
X106580952Y-85462619D02*
X106819047Y-85462619D01*
X106819047Y-85462619D02*
X106914285Y-85510238D01*
X106914285Y-85510238D02*
X106961904Y-85557857D01*
X106961904Y-85557857D02*
X107009523Y-85653095D01*
X107009523Y-85653095D02*
X107009523Y-85748333D01*
X107009523Y-85748333D02*
X106961904Y-85891190D01*
X106961904Y-85891190D02*
X106390476Y-86462619D01*
X106390476Y-86462619D02*
X107009523Y-86462619D01*
%TO.C,D2*%
X113761905Y-66962619D02*
X113761905Y-65962619D01*
X113761905Y-65962619D02*
X114000000Y-65962619D01*
X114000000Y-65962619D02*
X114142857Y-66010238D01*
X114142857Y-66010238D02*
X114238095Y-66105476D01*
X114238095Y-66105476D02*
X114285714Y-66200714D01*
X114285714Y-66200714D02*
X114333333Y-66391190D01*
X114333333Y-66391190D02*
X114333333Y-66534047D01*
X114333333Y-66534047D02*
X114285714Y-66724523D01*
X114285714Y-66724523D02*
X114238095Y-66819761D01*
X114238095Y-66819761D02*
X114142857Y-66915000D01*
X114142857Y-66915000D02*
X114000000Y-66962619D01*
X114000000Y-66962619D02*
X113761905Y-66962619D01*
X114714286Y-66057857D02*
X114761905Y-66010238D01*
X114761905Y-66010238D02*
X114857143Y-65962619D01*
X114857143Y-65962619D02*
X115095238Y-65962619D01*
X115095238Y-65962619D02*
X115190476Y-66010238D01*
X115190476Y-66010238D02*
X115238095Y-66057857D01*
X115238095Y-66057857D02*
X115285714Y-66153095D01*
X115285714Y-66153095D02*
X115285714Y-66248333D01*
X115285714Y-66248333D02*
X115238095Y-66391190D01*
X115238095Y-66391190D02*
X114666667Y-66962619D01*
X114666667Y-66962619D02*
X115285714Y-66962619D01*
%TO.C,J3*%
X130166666Y-43425119D02*
X130166666Y-44139404D01*
X130166666Y-44139404D02*
X130119047Y-44282261D01*
X130119047Y-44282261D02*
X130023809Y-44377500D01*
X130023809Y-44377500D02*
X129880952Y-44425119D01*
X129880952Y-44425119D02*
X129785714Y-44425119D01*
X130547619Y-43425119D02*
X131166666Y-43425119D01*
X131166666Y-43425119D02*
X130833333Y-43806071D01*
X130833333Y-43806071D02*
X130976190Y-43806071D01*
X130976190Y-43806071D02*
X131071428Y-43853690D01*
X131071428Y-43853690D02*
X131119047Y-43901309D01*
X131119047Y-43901309D02*
X131166666Y-43996547D01*
X131166666Y-43996547D02*
X131166666Y-44234642D01*
X131166666Y-44234642D02*
X131119047Y-44329880D01*
X131119047Y-44329880D02*
X131071428Y-44377500D01*
X131071428Y-44377500D02*
X130976190Y-44425119D01*
X130976190Y-44425119D02*
X130690476Y-44425119D01*
X130690476Y-44425119D02*
X130595238Y-44377500D01*
X130595238Y-44377500D02*
X130547619Y-44329880D01*
%TO.C,D4*%
X113761905Y-55962619D02*
X113761905Y-54962619D01*
X113761905Y-54962619D02*
X114000000Y-54962619D01*
X114000000Y-54962619D02*
X114142857Y-55010238D01*
X114142857Y-55010238D02*
X114238095Y-55105476D01*
X114238095Y-55105476D02*
X114285714Y-55200714D01*
X114285714Y-55200714D02*
X114333333Y-55391190D01*
X114333333Y-55391190D02*
X114333333Y-55534047D01*
X114333333Y-55534047D02*
X114285714Y-55724523D01*
X114285714Y-55724523D02*
X114238095Y-55819761D01*
X114238095Y-55819761D02*
X114142857Y-55915000D01*
X114142857Y-55915000D02*
X114000000Y-55962619D01*
X114000000Y-55962619D02*
X113761905Y-55962619D01*
X115190476Y-55295952D02*
X115190476Y-55962619D01*
X114952381Y-54915000D02*
X114714286Y-55629285D01*
X114714286Y-55629285D02*
X115333333Y-55629285D01*
%TO.C,C1*%
X112709133Y-78867380D02*
X112661514Y-78915000D01*
X112661514Y-78915000D02*
X112518657Y-78962619D01*
X112518657Y-78962619D02*
X112423419Y-78962619D01*
X112423419Y-78962619D02*
X112280562Y-78915000D01*
X112280562Y-78915000D02*
X112185324Y-78819761D01*
X112185324Y-78819761D02*
X112137705Y-78724523D01*
X112137705Y-78724523D02*
X112090086Y-78534047D01*
X112090086Y-78534047D02*
X112090086Y-78391190D01*
X112090086Y-78391190D02*
X112137705Y-78200714D01*
X112137705Y-78200714D02*
X112185324Y-78105476D01*
X112185324Y-78105476D02*
X112280562Y-78010238D01*
X112280562Y-78010238D02*
X112423419Y-77962619D01*
X112423419Y-77962619D02*
X112518657Y-77962619D01*
X112518657Y-77962619D02*
X112661514Y-78010238D01*
X112661514Y-78010238D02*
X112709133Y-78057857D01*
X113661514Y-78962619D02*
X113090086Y-78962619D01*
X113375800Y-78962619D02*
X113375800Y-77962619D01*
X113375800Y-77962619D02*
X113280562Y-78105476D01*
X113280562Y-78105476D02*
X113185324Y-78200714D01*
X113185324Y-78200714D02*
X113090086Y-78248333D01*
%TO.C,CR2*%
X129085883Y-69907380D02*
X129038264Y-69955000D01*
X129038264Y-69955000D02*
X128895407Y-70002619D01*
X128895407Y-70002619D02*
X128800169Y-70002619D01*
X128800169Y-70002619D02*
X128657312Y-69955000D01*
X128657312Y-69955000D02*
X128562074Y-69859761D01*
X128562074Y-69859761D02*
X128514455Y-69764523D01*
X128514455Y-69764523D02*
X128466836Y-69574047D01*
X128466836Y-69574047D02*
X128466836Y-69431190D01*
X128466836Y-69431190D02*
X128514455Y-69240714D01*
X128514455Y-69240714D02*
X128562074Y-69145476D01*
X128562074Y-69145476D02*
X128657312Y-69050238D01*
X128657312Y-69050238D02*
X128800169Y-69002619D01*
X128800169Y-69002619D02*
X128895407Y-69002619D01*
X128895407Y-69002619D02*
X129038264Y-69050238D01*
X129038264Y-69050238D02*
X129085883Y-69097857D01*
X130085883Y-70002619D02*
X129752550Y-69526428D01*
X129514455Y-70002619D02*
X129514455Y-69002619D01*
X129514455Y-69002619D02*
X129895407Y-69002619D01*
X129895407Y-69002619D02*
X129990645Y-69050238D01*
X129990645Y-69050238D02*
X130038264Y-69097857D01*
X130038264Y-69097857D02*
X130085883Y-69193095D01*
X130085883Y-69193095D02*
X130085883Y-69335952D01*
X130085883Y-69335952D02*
X130038264Y-69431190D01*
X130038264Y-69431190D02*
X129990645Y-69478809D01*
X129990645Y-69478809D02*
X129895407Y-69526428D01*
X129895407Y-69526428D02*
X129514455Y-69526428D01*
X130466836Y-69097857D02*
X130514455Y-69050238D01*
X130514455Y-69050238D02*
X130609693Y-69002619D01*
X130609693Y-69002619D02*
X130847788Y-69002619D01*
X130847788Y-69002619D02*
X130943026Y-69050238D01*
X130943026Y-69050238D02*
X130990645Y-69097857D01*
X130990645Y-69097857D02*
X131038264Y-69193095D01*
X131038264Y-69193095D02*
X131038264Y-69288333D01*
X131038264Y-69288333D02*
X130990645Y-69431190D01*
X130990645Y-69431190D02*
X130419217Y-70002619D01*
X130419217Y-70002619D02*
X131038264Y-70002619D01*
X128146000Y-63810819D02*
X128146000Y-64048914D01*
X127907905Y-63953676D02*
X128146000Y-64048914D01*
X128146000Y-64048914D02*
X128384095Y-63953676D01*
X128003143Y-64239390D02*
X128146000Y-64048914D01*
X128146000Y-64048914D02*
X128288857Y-64239390D01*
X128146000Y-63810819D02*
X128146000Y-64048914D01*
X127907905Y-63953676D02*
X128146000Y-64048914D01*
X128146000Y-64048914D02*
X128384095Y-63953676D01*
X128003143Y-64239390D02*
X128146000Y-64048914D01*
X128146000Y-64048914D02*
X128288857Y-64239390D01*
%TO.C,J5*%
X106666666Y-64962619D02*
X106666666Y-65676904D01*
X106666666Y-65676904D02*
X106619047Y-65819761D01*
X106619047Y-65819761D02*
X106523809Y-65915000D01*
X106523809Y-65915000D02*
X106380952Y-65962619D01*
X106380952Y-65962619D02*
X106285714Y-65962619D01*
X107619047Y-64962619D02*
X107142857Y-64962619D01*
X107142857Y-64962619D02*
X107095238Y-65438809D01*
X107095238Y-65438809D02*
X107142857Y-65391190D01*
X107142857Y-65391190D02*
X107238095Y-65343571D01*
X107238095Y-65343571D02*
X107476190Y-65343571D01*
X107476190Y-65343571D02*
X107571428Y-65391190D01*
X107571428Y-65391190D02*
X107619047Y-65438809D01*
X107619047Y-65438809D02*
X107666666Y-65534047D01*
X107666666Y-65534047D02*
X107666666Y-65772142D01*
X107666666Y-65772142D02*
X107619047Y-65867380D01*
X107619047Y-65867380D02*
X107571428Y-65915000D01*
X107571428Y-65915000D02*
X107476190Y-65962619D01*
X107476190Y-65962619D02*
X107238095Y-65962619D01*
X107238095Y-65962619D02*
X107142857Y-65915000D01*
X107142857Y-65915000D02*
X107095238Y-65867380D01*
%TO.C,CR1*%
X129085883Y-61907380D02*
X129038264Y-61955000D01*
X129038264Y-61955000D02*
X128895407Y-62002619D01*
X128895407Y-62002619D02*
X128800169Y-62002619D01*
X128800169Y-62002619D02*
X128657312Y-61955000D01*
X128657312Y-61955000D02*
X128562074Y-61859761D01*
X128562074Y-61859761D02*
X128514455Y-61764523D01*
X128514455Y-61764523D02*
X128466836Y-61574047D01*
X128466836Y-61574047D02*
X128466836Y-61431190D01*
X128466836Y-61431190D02*
X128514455Y-61240714D01*
X128514455Y-61240714D02*
X128562074Y-61145476D01*
X128562074Y-61145476D02*
X128657312Y-61050238D01*
X128657312Y-61050238D02*
X128800169Y-61002619D01*
X128800169Y-61002619D02*
X128895407Y-61002619D01*
X128895407Y-61002619D02*
X129038264Y-61050238D01*
X129038264Y-61050238D02*
X129085883Y-61097857D01*
X130085883Y-62002619D02*
X129752550Y-61526428D01*
X129514455Y-62002619D02*
X129514455Y-61002619D01*
X129514455Y-61002619D02*
X129895407Y-61002619D01*
X129895407Y-61002619D02*
X129990645Y-61050238D01*
X129990645Y-61050238D02*
X130038264Y-61097857D01*
X130038264Y-61097857D02*
X130085883Y-61193095D01*
X130085883Y-61193095D02*
X130085883Y-61335952D01*
X130085883Y-61335952D02*
X130038264Y-61431190D01*
X130038264Y-61431190D02*
X129990645Y-61478809D01*
X129990645Y-61478809D02*
X129895407Y-61526428D01*
X129895407Y-61526428D02*
X129514455Y-61526428D01*
X131038264Y-62002619D02*
X130466836Y-62002619D01*
X130752550Y-62002619D02*
X130752550Y-61002619D01*
X130752550Y-61002619D02*
X130657312Y-61145476D01*
X130657312Y-61145476D02*
X130562074Y-61240714D01*
X130562074Y-61240714D02*
X130466836Y-61288333D01*
X128146000Y-55810819D02*
X128146000Y-56048914D01*
X127907905Y-55953676D02*
X128146000Y-56048914D01*
X128146000Y-56048914D02*
X128384095Y-55953676D01*
X128003143Y-56239390D02*
X128146000Y-56048914D01*
X128146000Y-56048914D02*
X128288857Y-56239390D01*
X128146000Y-55810819D02*
X128146000Y-56048914D01*
X127907905Y-55953676D02*
X128146000Y-56048914D01*
X128146000Y-56048914D02*
X128384095Y-55953676D01*
X128003143Y-56239390D02*
X128146000Y-56048914D01*
X128146000Y-56048914D02*
X128288857Y-56239390D01*
%TO.C,D13*%
X113285714Y-61462619D02*
X113285714Y-60462619D01*
X113285714Y-60462619D02*
X113523809Y-60462619D01*
X113523809Y-60462619D02*
X113666666Y-60510238D01*
X113666666Y-60510238D02*
X113761904Y-60605476D01*
X113761904Y-60605476D02*
X113809523Y-60700714D01*
X113809523Y-60700714D02*
X113857142Y-60891190D01*
X113857142Y-60891190D02*
X113857142Y-61034047D01*
X113857142Y-61034047D02*
X113809523Y-61224523D01*
X113809523Y-61224523D02*
X113761904Y-61319761D01*
X113761904Y-61319761D02*
X113666666Y-61415000D01*
X113666666Y-61415000D02*
X113523809Y-61462619D01*
X113523809Y-61462619D02*
X113285714Y-61462619D01*
X114809523Y-61462619D02*
X114238095Y-61462619D01*
X114523809Y-61462619D02*
X114523809Y-60462619D01*
X114523809Y-60462619D02*
X114428571Y-60605476D01*
X114428571Y-60605476D02*
X114333333Y-60700714D01*
X114333333Y-60700714D02*
X114238095Y-60748333D01*
X115142857Y-60462619D02*
X115761904Y-60462619D01*
X115761904Y-60462619D02*
X115428571Y-60843571D01*
X115428571Y-60843571D02*
X115571428Y-60843571D01*
X115571428Y-60843571D02*
X115666666Y-60891190D01*
X115666666Y-60891190D02*
X115714285Y-60938809D01*
X115714285Y-60938809D02*
X115761904Y-61034047D01*
X115761904Y-61034047D02*
X115761904Y-61272142D01*
X115761904Y-61272142D02*
X115714285Y-61367380D01*
X115714285Y-61367380D02*
X115666666Y-61415000D01*
X115666666Y-61415000D02*
X115571428Y-61462619D01*
X115571428Y-61462619D02*
X115285714Y-61462619D01*
X115285714Y-61462619D02*
X115190476Y-61415000D01*
X115190476Y-61415000D02*
X115142857Y-61367380D01*
%TO.C,C2*%
X114333333Y-69367380D02*
X114285714Y-69415000D01*
X114285714Y-69415000D02*
X114142857Y-69462619D01*
X114142857Y-69462619D02*
X114047619Y-69462619D01*
X114047619Y-69462619D02*
X113904762Y-69415000D01*
X113904762Y-69415000D02*
X113809524Y-69319761D01*
X113809524Y-69319761D02*
X113761905Y-69224523D01*
X113761905Y-69224523D02*
X113714286Y-69034047D01*
X113714286Y-69034047D02*
X113714286Y-68891190D01*
X113714286Y-68891190D02*
X113761905Y-68700714D01*
X113761905Y-68700714D02*
X113809524Y-68605476D01*
X113809524Y-68605476D02*
X113904762Y-68510238D01*
X113904762Y-68510238D02*
X114047619Y-68462619D01*
X114047619Y-68462619D02*
X114142857Y-68462619D01*
X114142857Y-68462619D02*
X114285714Y-68510238D01*
X114285714Y-68510238D02*
X114333333Y-68557857D01*
X114714286Y-68557857D02*
X114761905Y-68510238D01*
X114761905Y-68510238D02*
X114857143Y-68462619D01*
X114857143Y-68462619D02*
X115095238Y-68462619D01*
X115095238Y-68462619D02*
X115190476Y-68510238D01*
X115190476Y-68510238D02*
X115238095Y-68557857D01*
X115238095Y-68557857D02*
X115285714Y-68653095D01*
X115285714Y-68653095D02*
X115285714Y-68748333D01*
X115285714Y-68748333D02*
X115238095Y-68891190D01*
X115238095Y-68891190D02*
X114666667Y-69462619D01*
X114666667Y-69462619D02*
X115285714Y-69462619D01*
%TO.C,TP4*%
X138750000Y-84500000D02*
G75*
G03*
X138750000Y-84500000I-1750000J0D01*
G01*
D12*
%TO.C,SW5*%
X137750000Y-81900000D02*
X137750000Y-81250000D01*
X137750000Y-79750000D02*
X137750000Y-77250000D01*
X137750000Y-75100000D02*
X137750000Y-75750000D01*
X131250000Y-81900000D02*
X137750000Y-81900000D01*
X131250000Y-81250000D02*
X131250000Y-81900000D01*
X131250000Y-79750000D02*
X131250000Y-77250000D01*
X131250000Y-75750000D02*
X131250000Y-75100000D01*
X131250000Y-75100000D02*
X137750000Y-75100000D01*
%TO.C,C22*%
X123235000Y-72638748D02*
X123235000Y-73161252D01*
X121765000Y-72638748D02*
X121765000Y-73161252D01*
%TO.C,J1*%
X117620000Y-54680000D02*
X117620000Y-53350000D01*
X118950000Y-54680000D02*
X117620000Y-54680000D01*
X120220000Y-54680000D02*
X127900000Y-54680000D01*
X120220000Y-54680000D02*
X120220000Y-52020000D01*
X127900000Y-54680000D02*
X127900000Y-52020000D01*
X120220000Y-52020000D02*
X127900000Y-52020000D01*
D13*
%TO.C,IC1*%
X133515000Y-59186000D02*
X133515000Y-57659000D01*
X133643000Y-57309000D02*
X133643000Y-54113000D01*
X138547000Y-57309000D02*
X133643000Y-57309000D01*
X133643000Y-54113000D02*
X138547000Y-54113000D01*
X138547000Y-54113000D02*
X138547000Y-57309000D01*
D12*
%TO.C,Y1*%
X118000000Y-67190000D02*
X123000000Y-67190000D01*
X118000000Y-70610000D02*
X123000000Y-70610000D01*
%TO.C,D14*%
X109752500Y-57309450D02*
X109752500Y-59229450D01*
X109752500Y-59229450D02*
X112437500Y-59229450D01*
X112437500Y-57309450D02*
X109752500Y-57309450D01*
%TO.C,JP1*%
X122830000Y-48170000D02*
X122830000Y-49500000D01*
X121500000Y-48170000D02*
X122830000Y-48170000D01*
X120230000Y-48170000D02*
X117630000Y-48170000D01*
X120230000Y-48170000D02*
X120230000Y-50830000D01*
X117630000Y-48170000D02*
X117630000Y-50830000D01*
X120230000Y-50830000D02*
X117630000Y-50830000D01*
D10*
%TO.C,TP6*%
X131750000Y-84500000D02*
G75*
G03*
X131750000Y-84500000I-1750000J0D01*
G01*
D12*
%TO.C,U1*%
X118140000Y-64272500D02*
X118590000Y-64272500D01*
X118590000Y-64272500D02*
X118590000Y-65562500D01*
X125360000Y-64272500D02*
X124910000Y-64272500D01*
X118140000Y-63822500D02*
X118140000Y-64272500D01*
X125360000Y-63822500D02*
X125360000Y-64272500D01*
X118140000Y-57502500D02*
X118140000Y-57052500D01*
X125360000Y-57502500D02*
X125360000Y-57052500D01*
X118140000Y-57052500D02*
X118590000Y-57052500D01*
X125360000Y-57052500D02*
X124910000Y-57052500D01*
%TO.C,SW1*%
X118750000Y-75100000D02*
X118750000Y-75750000D01*
X118750000Y-77250000D02*
X118750000Y-79750000D01*
X118750000Y-81900000D02*
X118750000Y-81250000D01*
X125250000Y-75100000D02*
X118750000Y-75100000D01*
X125250000Y-75750000D02*
X125250000Y-75100000D01*
X125250000Y-77250000D02*
X125250000Y-79750000D01*
X125250000Y-81250000D02*
X125250000Y-81900000D01*
X125250000Y-81900000D02*
X118750000Y-81900000D01*
D10*
%TO.C,U7*%
X102250000Y-50012500D02*
X101250000Y-49012500D01*
X116650000Y-50012500D02*
X102250000Y-50012500D01*
X101250000Y-49012500D02*
X101250000Y-42512500D01*
X101250000Y-42512500D02*
X116650000Y-42512500D01*
X116650000Y-42512500D02*
X116650000Y-50012500D01*
D14*
%TO.C,SW2*%
X131667900Y-70628400D02*
X131667900Y-73371600D01*
X131667900Y-73371600D02*
X132036258Y-73371600D01*
X133463738Y-73371600D02*
X135536262Y-73371600D01*
X133786260Y-70628400D02*
X131667900Y-70628400D01*
X136963742Y-73371600D02*
X137332100Y-73371600D01*
X137332100Y-70628400D02*
X135213740Y-70628400D01*
X137332100Y-73371600D02*
X137332100Y-70628400D01*
X130651900Y-74095500D02*
G75*
G03*
X130651900Y-74095500I-127000J0D01*
G01*
D12*
%TO.C,C3*%
X111138748Y-70865000D02*
X111661252Y-70865000D01*
X111138748Y-72335000D02*
X111661252Y-72335000D01*
%TO.C,D12*%
X109752500Y-62770550D02*
X109752500Y-64690550D01*
X109752500Y-64690550D02*
X112437500Y-64690550D01*
X112437500Y-62770550D02*
X109752500Y-62770550D01*
%TO.C,C21*%
X119235000Y-72638748D02*
X119235000Y-73161252D01*
X117765000Y-72638748D02*
X117765000Y-73161252D01*
%TO.C,J2*%
X100420000Y-65435000D02*
X100420000Y-64015000D01*
X106180000Y-65435000D02*
X100420000Y-65435000D01*
X107700000Y-65435000D02*
X108010000Y-65435000D01*
X108010000Y-65435000D02*
X108010000Y-52565000D01*
X100420000Y-64015000D02*
X100920000Y-64015000D01*
X100920000Y-64015000D02*
X100920000Y-53985000D01*
X100420000Y-53985000D02*
X100420000Y-52565000D01*
X100920000Y-53985000D02*
X100420000Y-53985000D01*
X100420000Y-52565000D02*
X106180000Y-52565000D01*
X108010000Y-52565000D02*
X107700000Y-52565000D01*
D10*
%TO.C,U2*%
X103440000Y-82040000D02*
X114940000Y-82040000D01*
X103440000Y-89900000D02*
X103440000Y-82040000D01*
X114940000Y-82040000D02*
X114940000Y-89900000D01*
X114940000Y-89900000D02*
X103440000Y-89900000D01*
D12*
%TO.C,D2*%
X109752500Y-65540000D02*
X109752500Y-67460000D01*
X109752500Y-67460000D02*
X112437500Y-67460000D01*
X112437500Y-65540000D02*
X109752500Y-65540000D01*
%TO.C,J3*%
X134900000Y-45262500D02*
X134450000Y-45262500D01*
X134900000Y-43412500D02*
X134900000Y-45262500D01*
X134900000Y-40862500D02*
X134900000Y-41112500D01*
X132700000Y-45812500D02*
X132700000Y-45362500D01*
X132700000Y-45812500D02*
X132250000Y-45812500D01*
X127100000Y-45262500D02*
X127550000Y-45262500D01*
X127100000Y-43412500D02*
X127100000Y-45262500D01*
X127100000Y-40862500D02*
X127100000Y-41112500D01*
%TO.C,D4*%
X109752500Y-54578900D02*
X109752500Y-56498900D01*
X109752500Y-56498900D02*
X112437500Y-56498900D01*
X112437500Y-54578900D02*
X109752500Y-54578900D01*
D14*
%TO.C,C1*%
X115413050Y-75667900D02*
X110338550Y-75667900D01*
X110338550Y-81332100D02*
X115413050Y-81332100D01*
X117193800Y-78500000D02*
G75*
G03*
X117193800Y-78500000I-76200J0D01*
G01*
D10*
%TO.C,TP5*%
X128250000Y-87500000D02*
G75*
G03*
X128250000Y-87500000I-1750000J0D01*
G01*
%TO.C,TP3*%
X135250000Y-87500000D02*
G75*
G03*
X135250000Y-87500000I-1750000J0D01*
G01*
D14*
%TO.C,CR2*%
X128774650Y-68676400D02*
X130730450Y-68676400D01*
X130730450Y-65323600D02*
X128774650Y-65323600D01*
D12*
%TO.C,J5*%
X100420000Y-79435000D02*
X100420000Y-78015000D01*
X106180000Y-79435000D02*
X100420000Y-79435000D01*
X107700000Y-79435000D02*
X108010000Y-79435000D01*
X108010000Y-79435000D02*
X108010000Y-66565000D01*
X100420000Y-78015000D02*
X100920000Y-78015000D01*
X100920000Y-78015000D02*
X100920000Y-67985000D01*
X100420000Y-67985000D02*
X100420000Y-66565000D01*
X100920000Y-67985000D02*
X100420000Y-67985000D01*
X100420000Y-66565000D02*
X106180000Y-66565000D01*
X108010000Y-66565000D02*
X107700000Y-66565000D01*
D14*
%TO.C,CR1*%
X128774650Y-60676400D02*
X130730450Y-60676400D01*
X130730450Y-57323600D02*
X128774650Y-57323600D01*
D12*
%TO.C,D13*%
X109752500Y-60040000D02*
X109752500Y-61960000D01*
X109752500Y-61960000D02*
X112437500Y-61960000D01*
X112437500Y-60040000D02*
X109752500Y-60040000D01*
%TO.C,C2*%
X111188748Y-68365000D02*
X111711252Y-68365000D01*
X111188748Y-69835000D02*
X111711252Y-69835000D01*
%TD*%
M02*
