%TF.GenerationSoftware,KiCad,Pcbnew,7.0.2*%
%TF.CreationDate,2023-09-23T11:43:56-05:00*%
%TF.ProjectId,BPS-PeripheralSOM,4250532d-5065-4726-9970-686572616c53,rev?*%
%TF.SameCoordinates,Original*%
%TF.FileFunction,Copper,L3,Inr*%
%TF.FilePolarity,Positive*%
%FSLAX46Y46*%
G04 Gerber Fmt 4.6, Leading zero omitted, Abs format (unit mm)*
G04 Created by KiCad (PCBNEW 7.0.2) date 2023-09-23 11:43:56*
%MOMM*%
%LPD*%
G01*
G04 APERTURE LIST*
G04 Aperture macros list*
%AMRoundRect*
0 Rectangle with rounded corners*
0 $1 Rounding radius*
0 $2 $3 $4 $5 $6 $7 $8 $9 X,Y pos of 4 corners*
0 Add a 4 corners polygon primitive as box body*
4,1,4,$2,$3,$4,$5,$6,$7,$8,$9,$2,$3,0*
0 Add four circle primitives for the rounded corners*
1,1,$1+$1,$2,$3*
1,1,$1+$1,$4,$5*
1,1,$1+$1,$6,$7*
1,1,$1+$1,$8,$9*
0 Add four rect primitives between the rounded corners*
20,1,$1+$1,$2,$3,$4,$5,0*
20,1,$1+$1,$4,$5,$6,$7,0*
20,1,$1+$1,$6,$7,$8,$9,0*
20,1,$1+$1,$8,$9,$2,$3,0*%
G04 Aperture macros list end*
%TA.AperFunction,ComponentPad*%
%ADD10C,2.800000*%
%TD*%
%TA.AperFunction,ComponentPad*%
%ADD11R,1.700000X1.700000*%
%TD*%
%TA.AperFunction,ComponentPad*%
%ADD12O,1.700000X1.700000*%
%TD*%
%TA.AperFunction,ComponentPad*%
%ADD13RoundRect,0.250001X0.499999X-0.499999X0.499999X0.499999X-0.499999X0.499999X-0.499999X-0.499999X0*%
%TD*%
%TA.AperFunction,ComponentPad*%
%ADD14C,1.500000*%
%TD*%
%TA.AperFunction,ComponentPad*%
%ADD15O,1.000000X1.800000*%
%TD*%
%TA.AperFunction,ComponentPad*%
%ADD16O,1.200000X1.900000*%
%TD*%
%TA.AperFunction,ComponentPad*%
%ADD17C,1.450000*%
%TD*%
%TA.AperFunction,ViaPad*%
%ADD18C,0.800000*%
%TD*%
%TA.AperFunction,ViaPad*%
%ADD19C,0.500000*%
%TD*%
%TA.AperFunction,Conductor*%
%ADD20C,1.000000*%
%TD*%
%TA.AperFunction,Conductor*%
%ADD21C,0.500000*%
%TD*%
%TA.AperFunction,Conductor*%
%ADD22C,0.250000*%
%TD*%
G04 APERTURE END LIST*
D10*
%TO.N,GNDPWR*%
%TO.C,TP4*%
X137000000Y-84500000D03*
%TD*%
D11*
%TO.N,+3.3V*%
%TO.C,J1*%
X118950000Y-53350000D03*
D12*
%TO.N,/SWCLK*%
X121490000Y-53350000D03*
%TO.N,/SWDIO*%
X124030000Y-53350000D03*
%TO.N,GND*%
X126570000Y-53350000D03*
%TD*%
D11*
%TO.N,/CAN_L*%
%TO.C,JP1*%
X121500000Y-49500000D03*
D12*
%TO.N,/CAN/TERM_H*%
X118960000Y-49500000D03*
%TD*%
D10*
%TO.N,GND*%
%TO.C,TP6*%
X130000000Y-84500000D03*
%TD*%
D13*
%TO.N,GNDPWR*%
%TO.C,J2*%
X103000000Y-62000000D03*
D14*
%TO.N,/CAN_L*%
X103000000Y-59000000D03*
%TO.N,GND1*%
X103000000Y-56000000D03*
%TO.N,/V_CAN_IN*%
X106000000Y-62000000D03*
%TO.N,/CAN_H*%
X106000000Y-59000000D03*
%TO.N,/5V_Ext*%
X106000000Y-56000000D03*
%TD*%
D15*
%TO.N,GNDPWR*%
%TO.C,U2*%
X105380000Y-88500000D03*
%TO.N,Net-(Q1-D)*%
X107920000Y-88500000D03*
%TO.N,GND*%
X110460000Y-88500000D03*
%TO.N,+5V*%
X113000000Y-88500000D03*
%TD*%
D16*
%TO.N,GND*%
%TO.C,J3*%
X134500000Y-42262500D03*
D17*
X133500000Y-44962500D03*
X128500000Y-44962500D03*
D16*
X127500000Y-42262500D03*
%TD*%
D10*
%TO.N,+5V*%
%TO.C,TP5*%
X126500000Y-87500000D03*
%TD*%
%TO.N,Net-(Q1-D)*%
%TO.C,TP3*%
X133500000Y-87500000D03*
%TD*%
D13*
%TO.N,GNDPWR*%
%TO.C,J5*%
X103000000Y-76000000D03*
D14*
%TO.N,/CAN_L*%
X103000000Y-73000000D03*
%TO.N,GND1*%
X103000000Y-70000000D03*
%TO.N,/V_CAN_IN*%
X106000000Y-76000000D03*
%TO.N,/CAN_H*%
X106000000Y-73000000D03*
%TO.N,/5V_Ext*%
X106000000Y-70000000D03*
%TD*%
D18*
%TO.N,+5V*%
X105775000Y-50962500D03*
D19*
X110000000Y-69200000D03*
X137200000Y-68050000D03*
%TO.N,GND*%
X129800000Y-67000000D03*
X135503987Y-65192160D03*
X114665000Y-50962500D03*
X134500000Y-80500000D03*
X135890000Y-51450000D03*
X124620326Y-62829674D03*
X131437500Y-48750000D03*
X119050000Y-63000000D03*
X136500000Y-74000000D03*
X137000000Y-78500000D03*
X112350000Y-72750000D03*
X128500000Y-59000000D03*
X119500000Y-78500000D03*
X138800000Y-62000000D03*
X118500000Y-73850000D03*
X119250000Y-57850500D03*
X121500000Y-80500000D03*
X102500000Y-50962500D03*
%TO.N,+3.3V*%
X118550000Y-55650000D03*
X110450000Y-71600000D03*
X120900000Y-63000000D03*
X133062035Y-47138988D03*
X138800000Y-61200000D03*
X116300000Y-68450000D03*
X137000000Y-64374500D03*
X131000000Y-55912500D03*
X136000000Y-48700000D03*
X116550500Y-63769712D03*
X123649502Y-69100000D03*
X120912500Y-59000000D03*
X107000000Y-49562500D03*
X116350000Y-73900000D03*
X116500000Y-71500000D03*
X127294543Y-57887678D03*
%TO.N,/NRST*%
X119500000Y-76600000D03*
%TO.N,GNDPWR*%
X109500000Y-82000000D03*
%TO.N,/PB4*%
X115543483Y-59981017D03*
%TO.N,/PB5*%
X116400500Y-60500000D03*
%TO.N,/SPI2_MOSI*%
X128400000Y-58049999D03*
%TO.N,/SPI2_NSS*%
X129131233Y-59818767D03*
%TO.N,/SPI2_SCK*%
X131105100Y-59950001D03*
%TO.N,/SPI2_MISO*%
X131100026Y-58079573D03*
%TO.N,/SPI1_SCK*%
X128400000Y-66049999D03*
%TO.N,/SPI1_NSS*%
X129954641Y-67945359D03*
%TO.N,/SPI1_MOSI*%
X131105100Y-67950001D03*
X130412500Y-62000000D03*
%TO.N,/SPI1_MISO*%
X132122872Y-66701627D03*
%TO.N,/5V_Ext*%
X104500000Y-81937500D03*
%TO.N,/PA1*%
X132000000Y-78325000D03*
%TO.N,Net-(D2-A)*%
X112200000Y-66386100D03*
%TO.N,/PB3*%
X115524500Y-59000000D03*
%TO.N,/SWCLK*%
X117587500Y-57300000D03*
%TO.N,/SWDIO*%
X120000000Y-57700000D03*
%TO.N,/I2C1_SCL*%
X119087500Y-59000000D03*
X137500000Y-66000000D03*
%TO.N,/I2C1_SDA*%
X136500000Y-67000000D03*
X119087500Y-61000000D03*
%TO.N,/I2C2_SCL*%
X138800000Y-63600000D03*
X127000000Y-59500000D03*
%TO.N,/CAN/RSlope*%
X113395000Y-41562500D03*
%TO.N,Net-(U1-PA5)*%
X128587500Y-64000000D03*
%TO.N,Net-(U1-PA7)*%
X128587500Y-62000000D03*
%TO.N,/USART1_TX*%
X128000000Y-50000000D03*
%TO.N,/USART1_RX*%
X127000000Y-50000000D03*
%TO.N,/SILENT*%
X110003246Y-52418246D03*
X113149431Y-52425500D03*
%TO.N,GNDA*%
X132000000Y-70425500D03*
X138429500Y-65200000D03*
X125500000Y-73400000D03*
%TO.N,VDDA*%
X126337500Y-70062500D03*
X138800000Y-64400000D03*
%TO.N,/PowerDist/5V_Ferrite*%
X104500000Y-84062500D03*
X106500000Y-82000000D03*
X111500000Y-84550000D03*
%TO.N,/V_CAN_IN*%
X108315000Y-41562500D03*
X107200000Y-45575000D03*
D18*
%TO.N,GND1*%
X110000000Y-45462500D03*
X114500000Y-45462500D03*
D19*
%TO.N,/CAN/V_ISO_Out*%
X104505000Y-41562500D03*
%TO.N,/CAN/GND_ISO_Out*%
X105746375Y-48538876D03*
D18*
X105200000Y-45462500D03*
D19*
%TO.N,/CAN_H*%
X112750000Y-47162500D03*
X109998882Y-46533203D03*
%TO.N,/CAN_L*%
X114650000Y-47162500D03*
%TO.N,/PA15*%
X116168500Y-58031500D03*
%TO.N,Net-(J3-VBUS)*%
X132300000Y-44677575D03*
%TO.N,Net-(J3-D-)*%
X127800000Y-47800000D03*
X131650000Y-45837500D03*
%TO.N,Net-(J3-D+)*%
X131000000Y-45252075D03*
%TO.N,Net-(D14-A)*%
X112200000Y-58386100D03*
%TO.N,Net-(D13-A)*%
X112200000Y-60986100D03*
%TO.N,Net-(D12-A)*%
X112200000Y-63786100D03*
%TO.N,Net-(C5-Pad1)*%
X132000000Y-76500000D03*
X137000000Y-76600000D03*
%TO.N,Net-(D4-A)*%
X112200000Y-55586100D03*
D18*
%TO.N,Net-(Q1-D)*%
X113500000Y-85500000D03*
D19*
%TO.N,/PA8*%
X122465423Y-57513610D03*
%TO.N,Net-(IC1-1GATE)*%
X133000000Y-55900000D03*
%TO.N,/I2C2_SDA*%
X127448848Y-58800497D03*
X138800000Y-62800000D03*
%TO.N,Net-(IC1-2DRAIN_1)*%
X137000000Y-54100000D03*
%TO.N,Net-(IC1-1DRAIN_1)*%
X135000000Y-54087500D03*
%TD*%
D20*
%TO.N,+5V*%
X109000000Y-53093750D02*
X106868750Y-50962500D01*
X106868750Y-50962500D02*
X105775000Y-50962500D01*
X109000000Y-74700000D02*
X109000000Y-53093750D01*
D21*
%TO.N,/SWCLK*%
X118400000Y-54650000D02*
X117587500Y-55462500D01*
X120190000Y-54650000D02*
X118400000Y-54650000D01*
X121490000Y-53350000D02*
X120190000Y-54650000D01*
X117587500Y-55462500D02*
X117587500Y-57300000D01*
%TO.N,/SWDIO*%
X124030000Y-53350000D02*
X120000000Y-57380000D01*
X120000000Y-57380000D02*
X120000000Y-57700000D01*
D22*
%TO.N,/I2C1_SCL*%
X125242329Y-64617194D02*
X120200135Y-59575000D01*
X120200135Y-59575000D02*
X119662500Y-59575000D01*
X119662500Y-59575000D02*
X119087500Y-59000000D01*
X137500000Y-66000000D02*
X136117194Y-64617194D01*
X136117194Y-64617194D02*
X125242329Y-64617194D01*
%TO.N,/I2C1_SDA*%
X119087500Y-61000000D02*
X120988739Y-61000000D01*
X134400000Y-65450000D02*
X135950000Y-67000000D01*
X120988739Y-61000000D02*
X125438739Y-65450000D01*
X125438739Y-65450000D02*
X134400000Y-65450000D01*
X135950000Y-67000000D02*
X136500000Y-67000000D01*
%TO.N,/I2C2_SCL*%
X136150000Y-61425000D02*
X138325000Y-63600000D01*
X128925000Y-61425000D02*
X136150000Y-61425000D01*
X127000000Y-59500000D02*
X128925000Y-61425000D01*
X138325000Y-63600000D02*
X138800000Y-63600000D01*
D20*
%TO.N,GND1*%
X109726082Y-45462500D02*
X107688582Y-47500000D01*
X110000000Y-45462500D02*
X109726082Y-45462500D01*
X103500000Y-55500000D02*
X103000000Y-56000000D01*
X107688582Y-47500000D02*
X105441748Y-47500000D01*
X103500000Y-49441748D02*
X103500000Y-55500000D01*
X105441748Y-47500000D02*
X103500000Y-49441748D01*
X104450000Y-68550000D02*
X104450000Y-57450000D01*
X103000000Y-70000000D02*
X104450000Y-68550000D01*
X104450000Y-57450000D02*
X103000000Y-56000000D01*
D22*
%TO.N,/I2C2_SDA*%
X129474293Y-60975000D02*
X136961827Y-60975000D01*
X136961827Y-60975000D02*
X138786827Y-62800000D01*
X138786827Y-62800000D02*
X138800000Y-62800000D01*
X127448848Y-58949555D02*
X129474293Y-60975000D01*
X127448848Y-58800497D02*
X127448848Y-58949555D01*
%TD*%
%TA.AperFunction,Conductor*%
%TO.N,+3.3V*%
G36*
X136002855Y-40100632D02*
G01*
X136354083Y-40116870D01*
X136365473Y-40117926D01*
X136710864Y-40166105D01*
X136722107Y-40168207D01*
X137061578Y-40248050D01*
X137072568Y-40251177D01*
X137403244Y-40362009D01*
X137413898Y-40366137D01*
X137732922Y-40506999D01*
X137743149Y-40512091D01*
X137925184Y-40613484D01*
X138047809Y-40681786D01*
X138057547Y-40687815D01*
X138345249Y-40884895D01*
X138354386Y-40891796D01*
X138595013Y-41091610D01*
X138622665Y-41114572D01*
X138631129Y-41122288D01*
X138877711Y-41368870D01*
X138885427Y-41377334D01*
X139108201Y-41645610D01*
X139115104Y-41654750D01*
X139312184Y-41942452D01*
X139318213Y-41952190D01*
X139363442Y-42033391D01*
X139481682Y-42245673D01*
X139487901Y-42256837D01*
X139493006Y-42267090D01*
X139633857Y-42586088D01*
X139637995Y-42596768D01*
X139748818Y-42927418D01*
X139751952Y-42938434D01*
X139831790Y-43277884D01*
X139833895Y-43289143D01*
X139882072Y-43634519D01*
X139883129Y-43645923D01*
X139899368Y-43997143D01*
X139899500Y-44002870D01*
X139899500Y-66420500D01*
X139879815Y-66487539D01*
X139827011Y-66533294D01*
X139775500Y-66544500D01*
X138268586Y-66544500D01*
X138201547Y-66524815D01*
X138155792Y-66472011D01*
X138145848Y-66402853D01*
X138163593Y-66354527D01*
X138180455Y-66327691D01*
X138180456Y-66327690D01*
X138236313Y-66168059D01*
X138248528Y-66059642D01*
X138275596Y-65995228D01*
X138333190Y-65955673D01*
X138385632Y-65950306D01*
X138429500Y-65955249D01*
X138429500Y-65955248D01*
X138429501Y-65955249D01*
X138473370Y-65950306D01*
X138597559Y-65936313D01*
X138757190Y-65880456D01*
X138900390Y-65790477D01*
X139019977Y-65670890D01*
X139109956Y-65527690D01*
X139165813Y-65368059D01*
X139184749Y-65200000D01*
X139177121Y-65132302D01*
X139189175Y-65063481D01*
X139234368Y-65013424D01*
X139270890Y-64990477D01*
X139390477Y-64870890D01*
X139480456Y-64727690D01*
X139536313Y-64568059D01*
X139555249Y-64400000D01*
X139536313Y-64231941D01*
X139480456Y-64072310D01*
X139476471Y-64065969D01*
X139457473Y-63998733D01*
X139476475Y-63934024D01*
X139480456Y-63927690D01*
X139536313Y-63768059D01*
X139555249Y-63600000D01*
X139536313Y-63431941D01*
X139480456Y-63272310D01*
X139476471Y-63265969D01*
X139457473Y-63198733D01*
X139476475Y-63134024D01*
X139480456Y-63127690D01*
X139536313Y-62968059D01*
X139555249Y-62800000D01*
X139536313Y-62631941D01*
X139480456Y-62472310D01*
X139476471Y-62465969D01*
X139457473Y-62398733D01*
X139476475Y-62334024D01*
X139480456Y-62327690D01*
X139536313Y-62168059D01*
X139555249Y-62000000D01*
X139536313Y-61831941D01*
X139480456Y-61672310D01*
X139390477Y-61529110D01*
X139270890Y-61409523D01*
X139127690Y-61319544D01*
X138968059Y-61263687D01*
X138968058Y-61263686D01*
X138968056Y-61263686D01*
X138800000Y-61244750D01*
X138631943Y-61263686D01*
X138472307Y-61319545D01*
X138383256Y-61375499D01*
X138316019Y-61394499D01*
X138249184Y-61374131D01*
X138229604Y-61358186D01*
X138062044Y-61190626D01*
X138028559Y-61129303D01*
X138033543Y-61059611D01*
X138075415Y-61003678D01*
X138140879Y-60979261D01*
X138156230Y-60979176D01*
X138158895Y-60979500D01*
X138162652Y-60979500D01*
X138237356Y-60979500D01*
X138241105Y-60979500D01*
X138363809Y-60964601D01*
X138518099Y-60906087D01*
X138653901Y-60812349D01*
X138763325Y-60688835D01*
X138840010Y-60542724D01*
X138879500Y-60382506D01*
X138879500Y-60217494D01*
X138840010Y-60057276D01*
X138763325Y-59911165D01*
X138653901Y-59787651D01*
X138653900Y-59787650D01*
X138653899Y-59787649D01*
X138518099Y-59693912D01*
X138363809Y-59635399D01*
X138244825Y-59620951D01*
X138244813Y-59620950D01*
X138241105Y-59620500D01*
X138158895Y-59620500D01*
X138155187Y-59620950D01*
X138155174Y-59620951D01*
X138036190Y-59635399D01*
X137881900Y-59693912D01*
X137746100Y-59787649D01*
X137636673Y-59911167D01*
X137559990Y-60057274D01*
X137520500Y-60217494D01*
X137520500Y-60358669D01*
X137500815Y-60425708D01*
X137448011Y-60471463D01*
X137378853Y-60481407D01*
X137336765Y-60467332D01*
X137314856Y-60455288D01*
X137298591Y-60444604D01*
X137282763Y-60432327D01*
X137242678Y-60414980D01*
X137232188Y-60409841D01*
X137193918Y-60388802D01*
X137174518Y-60383821D01*
X137156111Y-60377519D01*
X137137724Y-60369562D01*
X137094585Y-60362729D01*
X137083151Y-60360361D01*
X137040846Y-60349500D01*
X137020811Y-60349500D01*
X137001413Y-60347973D01*
X136993989Y-60346797D01*
X136981632Y-60344840D01*
X136981631Y-60344840D01*
X136948578Y-60347964D01*
X136938152Y-60348950D01*
X136926483Y-60349500D01*
X131935190Y-60349500D01*
X131868151Y-60329815D01*
X131822396Y-60277011D01*
X131812452Y-60207853D01*
X131818149Y-60184545D01*
X131822430Y-60172310D01*
X131841413Y-60118060D01*
X131860349Y-59950001D01*
X131841413Y-59781942D01*
X131785556Y-59622311D01*
X131695577Y-59479111D01*
X131575990Y-59359524D01*
X131432790Y-59269545D01*
X131273159Y-59213688D01*
X131273158Y-59213687D01*
X131273156Y-59213687D01*
X131105100Y-59194751D01*
X130937043Y-59213687D01*
X130777410Y-59269545D01*
X130634208Y-59359525D01*
X130514624Y-59479109D01*
X130424644Y-59622311D01*
X130368786Y-59781944D01*
X130349850Y-59950001D01*
X130368786Y-60118059D01*
X130392051Y-60184545D01*
X130395613Y-60254324D01*
X130360885Y-60314951D01*
X130298891Y-60347179D01*
X130275010Y-60349500D01*
X129908470Y-60349500D01*
X129841431Y-60329815D01*
X129795676Y-60277011D01*
X129785732Y-60207853D01*
X129803476Y-60159529D01*
X129811687Y-60146460D01*
X129811686Y-60146460D01*
X129811689Y-60146457D01*
X129867546Y-59986826D01*
X129886482Y-59818767D01*
X129885827Y-59812958D01*
X129877302Y-59737294D01*
X129867546Y-59650708D01*
X129811689Y-59491077D01*
X129721710Y-59347877D01*
X129602123Y-59228290D01*
X129458923Y-59138311D01*
X129336652Y-59095526D01*
X129279878Y-59054806D01*
X129254389Y-58992369D01*
X129252610Y-58976577D01*
X129236313Y-58831941D01*
X129180456Y-58672310D01*
X129090477Y-58529110D01*
X129090475Y-58529108D01*
X129083043Y-58517280D01*
X129085572Y-58515690D01*
X129062331Y-58473126D01*
X129067315Y-58403434D01*
X129078507Y-58380791D01*
X129080455Y-58377690D01*
X129080456Y-58377689D01*
X129136313Y-58218058D01*
X129151917Y-58079573D01*
X130344776Y-58079573D01*
X130363712Y-58247629D01*
X130363712Y-58247631D01*
X130363713Y-58247632D01*
X130419570Y-58407263D01*
X130509549Y-58550463D01*
X130629136Y-58670050D01*
X130772336Y-58760029D01*
X130931967Y-58815886D01*
X131100026Y-58834822D01*
X131268085Y-58815886D01*
X131427716Y-58760029D01*
X131570916Y-58670050D01*
X131690503Y-58550463D01*
X131780482Y-58407263D01*
X131836339Y-58247632D01*
X131855275Y-58079573D01*
X131854749Y-58074909D01*
X131845612Y-57993812D01*
X131836339Y-57911514D01*
X131780482Y-57751883D01*
X131690503Y-57608683D01*
X131570916Y-57489096D01*
X131427716Y-57399117D01*
X131268085Y-57343260D01*
X131268084Y-57343259D01*
X131268082Y-57343259D01*
X131100026Y-57324323D01*
X130931969Y-57343259D01*
X130772336Y-57399117D01*
X130629134Y-57489097D01*
X130509550Y-57608681D01*
X130419570Y-57751883D01*
X130363712Y-57911516D01*
X130344776Y-58079573D01*
X129151917Y-58079573D01*
X129155249Y-58049999D01*
X129136313Y-57881940D01*
X129080456Y-57722309D01*
X128990477Y-57579109D01*
X128870890Y-57459522D01*
X128727690Y-57369543D01*
X128568059Y-57313686D01*
X128568058Y-57313685D01*
X128568056Y-57313685D01*
X128399999Y-57294749D01*
X128231943Y-57313685D01*
X128072310Y-57369543D01*
X127929108Y-57459523D01*
X127809524Y-57579107D01*
X127719544Y-57722309D01*
X127663686Y-57881942D01*
X127656707Y-57943883D01*
X127629640Y-58008297D01*
X127572045Y-58047852D01*
X127519604Y-58053219D01*
X127448849Y-58045247D01*
X127280791Y-58064183D01*
X127121158Y-58120041D01*
X126977956Y-58210021D01*
X126858372Y-58329605D01*
X126768392Y-58472807D01*
X126712534Y-58632440D01*
X126699596Y-58747261D01*
X126672529Y-58811675D01*
X126642349Y-58838369D01*
X126529109Y-58909523D01*
X126409524Y-59029108D01*
X126319544Y-59172310D01*
X126263686Y-59331943D01*
X126244750Y-59500000D01*
X126263686Y-59668056D01*
X126263686Y-59668058D01*
X126263687Y-59668059D01*
X126319544Y-59827690D01*
X126409523Y-59970890D01*
X126529110Y-60090477D01*
X126672310Y-60180456D01*
X126831941Y-60236313D01*
X126831942Y-60236313D01*
X126835657Y-60237613D01*
X126882384Y-60266974D01*
X127984015Y-61368605D01*
X128017500Y-61429928D01*
X128012516Y-61499620D01*
X128001328Y-61522258D01*
X127907044Y-61672309D01*
X127851186Y-61831943D01*
X127832250Y-62000000D01*
X127851186Y-62168056D01*
X127851186Y-62168058D01*
X127851187Y-62168059D01*
X127907044Y-62327690D01*
X127997023Y-62470890D01*
X128116610Y-62590477D01*
X128259810Y-62680456D01*
X128419441Y-62736313D01*
X128587500Y-62755249D01*
X128755559Y-62736313D01*
X128915190Y-62680456D01*
X129058390Y-62590477D01*
X129177977Y-62470890D01*
X129267956Y-62327690D01*
X129323813Y-62168059D01*
X129324652Y-62160616D01*
X129351719Y-62096202D01*
X129409314Y-62056647D01*
X129447872Y-62050500D01*
X129552128Y-62050500D01*
X129619167Y-62070185D01*
X129664922Y-62122989D01*
X129675348Y-62160616D01*
X129676186Y-62168056D01*
X129676186Y-62168058D01*
X129676187Y-62168059D01*
X129732044Y-62327690D01*
X129822023Y-62470890D01*
X129941610Y-62590477D01*
X130084810Y-62680456D01*
X130244441Y-62736313D01*
X130356480Y-62748936D01*
X130412499Y-62755249D01*
X130412499Y-62755248D01*
X130412500Y-62755249D01*
X130580559Y-62736313D01*
X130740190Y-62680456D01*
X130883390Y-62590477D01*
X131002977Y-62470890D01*
X131092956Y-62327690D01*
X131148813Y-62168059D01*
X131149652Y-62160616D01*
X131176719Y-62096202D01*
X131234314Y-62056647D01*
X131272872Y-62050500D01*
X135839548Y-62050500D01*
X135906587Y-62070185D01*
X135927228Y-62086818D01*
X136890195Y-63049786D01*
X137824196Y-63983787D01*
X137837096Y-63999888D01*
X137888223Y-64047900D01*
X137891020Y-64050611D01*
X137910529Y-64070120D01*
X137913709Y-64072587D01*
X137922571Y-64080155D01*
X137941022Y-64097482D01*
X137954418Y-64110062D01*
X137971970Y-64119711D01*
X137988238Y-64130397D01*
X138013131Y-64149707D01*
X138054036Y-64206351D01*
X138060348Y-64261568D01*
X138044750Y-64400000D01*
X138052378Y-64467697D01*
X138040324Y-64536519D01*
X137995133Y-64586573D01*
X137958609Y-64609523D01*
X137839024Y-64729108D01*
X137749044Y-64872310D01*
X137688573Y-65045128D01*
X137685826Y-65044167D01*
X137666931Y-65089129D01*
X137609335Y-65128682D01*
X137539498Y-65130817D01*
X137483100Y-65098509D01*
X136617996Y-64233405D01*
X136605100Y-64217307D01*
X136553969Y-64169292D01*
X136551172Y-64166581D01*
X136534421Y-64149830D01*
X136531665Y-64147074D01*
X136528484Y-64144606D01*
X136519616Y-64137031D01*
X136487776Y-64107132D01*
X136470218Y-64097479D01*
X136453958Y-64086798D01*
X136438130Y-64074521D01*
X136398045Y-64057174D01*
X136387555Y-64052035D01*
X136349285Y-64030996D01*
X136329885Y-64026015D01*
X136311478Y-64019713D01*
X136293091Y-64011756D01*
X136249952Y-64004923D01*
X136238518Y-64002555D01*
X136196213Y-63991694D01*
X136176178Y-63991694D01*
X136156780Y-63990167D01*
X136149356Y-63988991D01*
X136136999Y-63987034D01*
X136136998Y-63987034D01*
X136103945Y-63990158D01*
X136093519Y-63991144D01*
X136081850Y-63991694D01*
X129452626Y-63991694D01*
X129385587Y-63972009D01*
X129339832Y-63919205D01*
X129329406Y-63881578D01*
X129323813Y-63831943D01*
X129323813Y-63831941D01*
X129267956Y-63672310D01*
X129177977Y-63529110D01*
X129058390Y-63409523D01*
X128915190Y-63319544D01*
X128755559Y-63263687D01*
X128755558Y-63263686D01*
X128755556Y-63263686D01*
X128587500Y-63244750D01*
X128419443Y-63263686D01*
X128259810Y-63319544D01*
X128116608Y-63409524D01*
X127997024Y-63529108D01*
X127907044Y-63672310D01*
X127851186Y-63831943D01*
X127845594Y-63881578D01*
X127818527Y-63945992D01*
X127760933Y-63985547D01*
X127722374Y-63991694D01*
X125552782Y-63991694D01*
X125485743Y-63972009D01*
X125465101Y-63955375D01*
X125098227Y-63588501D01*
X125064742Y-63527178D01*
X125069726Y-63457486D01*
X125098223Y-63413143D01*
X125210803Y-63300564D01*
X125300782Y-63157364D01*
X125356639Y-62997733D01*
X125375575Y-62829674D01*
X125356639Y-62661615D01*
X125300782Y-62501984D01*
X125210803Y-62358784D01*
X125091216Y-62239197D01*
X124948016Y-62149218D01*
X124788385Y-62093361D01*
X124788384Y-62093360D01*
X124788382Y-62093360D01*
X124620325Y-62074424D01*
X124452269Y-62093360D01*
X124292636Y-62149218D01*
X124149436Y-62239197D01*
X124036860Y-62351773D01*
X123975537Y-62385257D01*
X123905845Y-62380273D01*
X123861498Y-62351772D01*
X120700937Y-59191211D01*
X120688041Y-59175113D01*
X120636910Y-59127098D01*
X120634113Y-59124387D01*
X120617362Y-59107636D01*
X120614606Y-59104880D01*
X120611425Y-59102412D01*
X120602557Y-59094837D01*
X120570717Y-59064938D01*
X120553159Y-59055285D01*
X120536899Y-59044604D01*
X120521071Y-59032327D01*
X120480986Y-59014980D01*
X120470496Y-59009841D01*
X120432226Y-58988802D01*
X120412826Y-58983821D01*
X120394419Y-58977519D01*
X120376032Y-58969562D01*
X120332893Y-58962729D01*
X120321459Y-58960361D01*
X120279154Y-58949500D01*
X120259119Y-58949500D01*
X120239721Y-58947973D01*
X120232297Y-58946797D01*
X120219940Y-58944840D01*
X120219939Y-58944840D01*
X120186886Y-58947964D01*
X120176460Y-58948950D01*
X120164791Y-58949500D01*
X119972952Y-58949500D01*
X119905913Y-58929815D01*
X119885271Y-58913181D01*
X119854474Y-58882384D01*
X119825113Y-58835657D01*
X119823813Y-58831941D01*
X119767956Y-58672310D01*
X119743330Y-58633119D01*
X119724331Y-58565883D01*
X119744699Y-58499048D01*
X119797967Y-58453834D01*
X119855534Y-58443358D01*
X119868789Y-58444129D01*
X119868790Y-58444130D01*
X119932776Y-58447856D01*
X119939450Y-58448425D01*
X120000000Y-58455249D01*
X120009822Y-58454141D01*
X120030914Y-58453572D01*
X120043935Y-58454331D01*
X120103490Y-58443829D01*
X120111090Y-58442731D01*
X120168059Y-58436313D01*
X120180847Y-58431837D01*
X120200261Y-58426765D01*
X120216711Y-58423865D01*
X120268890Y-58401356D01*
X120277003Y-58398190D01*
X120327690Y-58380456D01*
X120342260Y-58371300D01*
X120359110Y-58362440D01*
X120377804Y-58354377D01*
X120406963Y-58332668D01*
X120420461Y-58322619D01*
X120428524Y-58317095D01*
X120470890Y-58290477D01*
X120485642Y-58275723D01*
X120499262Y-58263953D01*
X120518530Y-58249610D01*
X120550375Y-58211656D01*
X120557671Y-58203694D01*
X120590477Y-58170890D01*
X120603519Y-58150132D01*
X120613519Y-58136404D01*
X120631302Y-58115214D01*
X120651909Y-58074178D01*
X120657703Y-58063897D01*
X120680456Y-58027690D01*
X120689759Y-58001102D01*
X120695987Y-57986415D01*
X120703575Y-57971306D01*
X120710040Y-57958433D01*
X120719784Y-57917316D01*
X120723395Y-57904973D01*
X120736313Y-57868059D01*
X120739874Y-57836442D01*
X120742434Y-57821749D01*
X120750500Y-57787721D01*
X120750499Y-57749110D01*
X120751279Y-57735226D01*
X120752153Y-57727470D01*
X120779221Y-57663056D01*
X120787682Y-57653684D01*
X120927757Y-57513609D01*
X121710173Y-57513609D01*
X121729109Y-57681666D01*
X121729109Y-57681668D01*
X121729110Y-57681669D01*
X121784967Y-57841300D01*
X121874946Y-57984500D01*
X121994533Y-58104087D01*
X122137733Y-58194066D01*
X122297364Y-58249923D01*
X122465423Y-58268859D01*
X122633482Y-58249923D01*
X122793113Y-58194066D01*
X122936313Y-58104087D01*
X123055900Y-57984500D01*
X123145879Y-57841300D01*
X123201736Y-57681669D01*
X123220672Y-57513610D01*
X123201736Y-57345551D01*
X123145879Y-57185920D01*
X123055900Y-57042720D01*
X122936313Y-56923133D01*
X122793113Y-56833154D01*
X122633482Y-56777297D01*
X122633481Y-56777296D01*
X122633479Y-56777296D01*
X122465422Y-56758360D01*
X122297366Y-56777296D01*
X122137733Y-56833154D01*
X121994531Y-56923134D01*
X121874947Y-57042718D01*
X121784967Y-57185920D01*
X121729109Y-57345553D01*
X121710173Y-57513609D01*
X120927757Y-57513609D01*
X122541366Y-55899999D01*
X132244750Y-55899999D01*
X132263686Y-56068056D01*
X132263686Y-56068058D01*
X132263687Y-56068059D01*
X132319544Y-56227690D01*
X132409523Y-56370890D01*
X132529110Y-56490477D01*
X132672310Y-56580456D01*
X132831941Y-56636313D01*
X132943980Y-56648936D01*
X132999999Y-56655249D01*
X132999999Y-56655248D01*
X133000000Y-56655249D01*
X133168059Y-56636313D01*
X133327690Y-56580456D01*
X133470890Y-56490477D01*
X133590477Y-56370890D01*
X133680456Y-56227690D01*
X133736313Y-56068059D01*
X133755249Y-55900000D01*
X133736313Y-55731941D01*
X133680456Y-55572310D01*
X133590477Y-55429110D01*
X133470890Y-55309523D01*
X133327690Y-55219544D01*
X133168059Y-55163687D01*
X133168058Y-55163686D01*
X133168056Y-55163686D01*
X133000000Y-55144750D01*
X132831943Y-55163686D01*
X132672310Y-55219544D01*
X132529108Y-55309524D01*
X132409524Y-55429108D01*
X132319544Y-55572310D01*
X132263686Y-55731943D01*
X132244750Y-55899999D01*
X122541366Y-55899999D01*
X123718499Y-54722866D01*
X123779820Y-54689383D01*
X123816977Y-54687021D01*
X124030000Y-54705659D01*
X124265408Y-54685063D01*
X124493663Y-54623903D01*
X124707830Y-54524035D01*
X124901401Y-54388495D01*
X125068495Y-54221401D01*
X125198426Y-54035839D01*
X125253002Y-53992216D01*
X125322500Y-53985022D01*
X125384855Y-54016545D01*
X125401571Y-54035837D01*
X125531505Y-54221401D01*
X125698599Y-54388495D01*
X125892170Y-54524035D01*
X126106337Y-54623903D01*
X126334592Y-54685063D01*
X126570000Y-54705659D01*
X126805408Y-54685063D01*
X127033663Y-54623903D01*
X127247830Y-54524035D01*
X127441401Y-54388495D01*
X127608495Y-54221401D01*
X127702254Y-54087499D01*
X134244750Y-54087499D01*
X134263686Y-54255556D01*
X134263686Y-54255558D01*
X134263687Y-54255559D01*
X134319544Y-54415190D01*
X134409523Y-54558390D01*
X134529110Y-54677977D01*
X134672310Y-54767956D01*
X134831941Y-54823813D01*
X135000000Y-54842749D01*
X135168059Y-54823813D01*
X135327690Y-54767956D01*
X135470890Y-54677977D01*
X135590477Y-54558390D01*
X135680456Y-54415190D01*
X135736313Y-54255559D01*
X135753841Y-54099999D01*
X136244750Y-54099999D01*
X136263686Y-54268056D01*
X136263686Y-54268058D01*
X136263687Y-54268059D01*
X136319544Y-54427690D01*
X136409523Y-54570890D01*
X136529110Y-54690477D01*
X136672310Y-54780456D01*
X136831941Y-54836313D01*
X137000000Y-54855249D01*
X137168059Y-54836313D01*
X137327690Y-54780456D01*
X137470890Y-54690477D01*
X137590477Y-54570890D01*
X137680456Y-54427690D01*
X137736313Y-54268059D01*
X137755249Y-54100000D01*
X137753840Y-54087499D01*
X137740059Y-53965186D01*
X137736313Y-53931941D01*
X137680456Y-53772310D01*
X137590477Y-53629110D01*
X137470890Y-53509523D01*
X137327690Y-53419544D01*
X137168059Y-53363687D01*
X137168058Y-53363686D01*
X137168056Y-53363686D01*
X136999999Y-53344750D01*
X136831943Y-53363686D01*
X136672310Y-53419544D01*
X136529108Y-53509524D01*
X136409524Y-53629108D01*
X136319544Y-53772310D01*
X136263686Y-53931943D01*
X136244750Y-54099999D01*
X135753841Y-54099999D01*
X135755249Y-54087500D01*
X135736313Y-53919441D01*
X135680456Y-53759810D01*
X135590477Y-53616610D01*
X135470890Y-53497023D01*
X135327690Y-53407044D01*
X135168059Y-53351187D01*
X135168058Y-53351186D01*
X135168056Y-53351186D01*
X135000000Y-53332250D01*
X134831943Y-53351186D01*
X134672310Y-53407044D01*
X134529108Y-53497024D01*
X134409524Y-53616608D01*
X134319544Y-53759810D01*
X134263686Y-53919443D01*
X134244750Y-54087499D01*
X127702254Y-54087499D01*
X127744035Y-54027830D01*
X127843903Y-53813663D01*
X127905063Y-53585408D01*
X127925659Y-53350000D01*
X127905063Y-53114592D01*
X127843903Y-52886337D01*
X127744035Y-52672171D01*
X127608495Y-52478599D01*
X127441401Y-52311505D01*
X127247830Y-52175965D01*
X127033663Y-52076097D01*
X126961074Y-52056647D01*
X126805407Y-52014936D01*
X126569999Y-51994340D01*
X126334592Y-52014936D01*
X126106336Y-52076097D01*
X125892170Y-52175965D01*
X125698598Y-52311505D01*
X125531505Y-52478598D01*
X125401575Y-52664159D01*
X125346998Y-52707784D01*
X125277500Y-52714978D01*
X125215145Y-52683455D01*
X125198425Y-52664159D01*
X125183449Y-52642771D01*
X125068495Y-52478599D01*
X124901401Y-52311505D01*
X124707830Y-52175965D01*
X124493663Y-52076097D01*
X124421074Y-52056647D01*
X124265407Y-52014936D01*
X124030000Y-51994340D01*
X123794592Y-52014936D01*
X123566336Y-52076097D01*
X123352170Y-52175965D01*
X123158598Y-52311505D01*
X122991505Y-52478598D01*
X122861575Y-52664159D01*
X122806998Y-52707784D01*
X122737500Y-52714978D01*
X122675145Y-52683455D01*
X122658425Y-52664159D01*
X122643449Y-52642771D01*
X122528495Y-52478599D01*
X122361401Y-52311505D01*
X122167830Y-52175965D01*
X121953663Y-52076097D01*
X121881074Y-52056647D01*
X121725407Y-52014936D01*
X121489999Y-51994340D01*
X121254592Y-52014936D01*
X121026336Y-52076097D01*
X120812170Y-52175965D01*
X120618601Y-52311503D01*
X120496285Y-52433819D01*
X120434962Y-52467303D01*
X120365270Y-52462319D01*
X120309337Y-52420447D01*
X120292422Y-52389471D01*
X120243352Y-52257911D01*
X120157188Y-52142811D01*
X120042089Y-52056647D01*
X119907371Y-52006400D01*
X119851132Y-52000354D01*
X119844518Y-52000000D01*
X119200000Y-52000000D01*
X119200000Y-52914498D01*
X119092315Y-52865320D01*
X118985763Y-52850000D01*
X118914237Y-52850000D01*
X118807685Y-52865320D01*
X118700000Y-52914498D01*
X118700000Y-52000000D01*
X118055482Y-52000000D01*
X118048867Y-52000354D01*
X117992628Y-52006400D01*
X117857910Y-52056647D01*
X117742811Y-52142811D01*
X117656647Y-52257910D01*
X117606400Y-52392628D01*
X117600354Y-52448867D01*
X117600000Y-52455481D01*
X117600000Y-53100000D01*
X118516314Y-53100000D01*
X118490507Y-53140156D01*
X118450000Y-53278111D01*
X118450000Y-53421889D01*
X118490507Y-53559844D01*
X118516314Y-53600000D01*
X117600000Y-53600000D01*
X117600000Y-54244518D01*
X117600353Y-54251117D01*
X117607326Y-54315978D01*
X117594919Y-54384738D01*
X117571717Y-54416913D01*
X117101858Y-54886772D01*
X117088227Y-54898553D01*
X117068968Y-54912891D01*
X117037135Y-54950828D01*
X117029838Y-54958792D01*
X117028472Y-54960157D01*
X117028450Y-54960181D01*
X117025909Y-54962723D01*
X117023673Y-54965550D01*
X117023671Y-54965553D01*
X117006676Y-54987046D01*
X117004402Y-54989837D01*
X116955394Y-55048244D01*
X116944918Y-55064687D01*
X116912692Y-55133794D01*
X116911122Y-55137036D01*
X116876893Y-55205192D01*
X116870496Y-55223598D01*
X116855073Y-55298288D01*
X116854293Y-55301805D01*
X116836708Y-55376006D01*
X116834729Y-55395379D01*
X116836948Y-55471629D01*
X116837000Y-55475235D01*
X116837000Y-57250889D01*
X116836220Y-57264774D01*
X116832250Y-57300001D01*
X116835215Y-57326314D01*
X116823160Y-57395136D01*
X116775811Y-57446515D01*
X116708201Y-57464139D01*
X116646023Y-57445191D01*
X116608704Y-57421742D01*
X116496190Y-57351044D01*
X116336559Y-57295187D01*
X116336558Y-57295186D01*
X116336556Y-57295186D01*
X116168500Y-57276250D01*
X116000443Y-57295186D01*
X115840810Y-57351044D01*
X115697608Y-57441024D01*
X115578024Y-57560608D01*
X115488044Y-57703810D01*
X115432186Y-57863443D01*
X115413250Y-58031499D01*
X115425193Y-58137489D01*
X115413139Y-58206311D01*
X115365790Y-58257690D01*
X115342928Y-58268414D01*
X115196812Y-58319542D01*
X115053608Y-58409524D01*
X114934024Y-58529108D01*
X114844044Y-58672310D01*
X114788186Y-58831943D01*
X114769250Y-59000000D01*
X114788186Y-59168056D01*
X114788186Y-59168058D01*
X114788187Y-59168059D01*
X114844044Y-59327690D01*
X114914389Y-59439643D01*
X114933389Y-59506878D01*
X114914389Y-59571584D01*
X114892854Y-59605856D01*
X114863027Y-59653326D01*
X114807169Y-59812960D01*
X114788233Y-59981017D01*
X114807169Y-60149073D01*
X114807169Y-60149075D01*
X114807170Y-60149076D01*
X114863027Y-60308707D01*
X114953006Y-60451907D01*
X115072593Y-60571494D01*
X115215793Y-60661473D01*
X115375424Y-60717330D01*
X115442647Y-60724904D01*
X115543480Y-60736266D01*
X115543481Y-60736265D01*
X115543483Y-60736266D01*
X115584304Y-60731666D01*
X115653124Y-60743719D01*
X115704504Y-60791067D01*
X115715229Y-60813931D01*
X115720042Y-60827687D01*
X115720044Y-60827690D01*
X115810023Y-60970890D01*
X115929610Y-61090477D01*
X116072810Y-61180456D01*
X116232441Y-61236313D01*
X116344480Y-61248936D01*
X116400499Y-61255249D01*
X116400499Y-61255248D01*
X116400500Y-61255249D01*
X116568559Y-61236313D01*
X116728190Y-61180456D01*
X116871390Y-61090477D01*
X116990977Y-60970890D01*
X117080956Y-60827690D01*
X117136813Y-60668059D01*
X117155749Y-60500000D01*
X117136813Y-60331941D01*
X117080956Y-60172310D01*
X116990977Y-60029110D01*
X116871390Y-59909523D01*
X116728190Y-59819544D01*
X116568559Y-59763687D01*
X116568558Y-59763686D01*
X116568556Y-59763686D01*
X116400502Y-59744750D01*
X116359676Y-59749350D01*
X116290854Y-59737294D01*
X116239475Y-59689944D01*
X116228752Y-59667083D01*
X116223938Y-59653325D01*
X116203312Y-59620500D01*
X116153593Y-59541372D01*
X116134593Y-59474139D01*
X116153593Y-59409433D01*
X116204956Y-59327690D01*
X116260813Y-59168059D01*
X116279749Y-59000000D01*
X116278889Y-58992369D01*
X116267807Y-58894009D01*
X116279861Y-58825187D01*
X116327210Y-58773807D01*
X116350062Y-58763088D01*
X116496190Y-58711956D01*
X116639390Y-58621977D01*
X116758977Y-58502390D01*
X116848956Y-58359190D01*
X116904813Y-58199559D01*
X116921302Y-58053219D01*
X116923749Y-58031501D01*
X116922889Y-58023865D01*
X116920784Y-58005186D01*
X116932837Y-57936366D01*
X116980185Y-57884986D01*
X117047795Y-57867360D01*
X117109982Y-57886312D01*
X117115674Y-57889889D01*
X117134788Y-57904683D01*
X117135083Y-57904961D01*
X117136282Y-57906092D01*
X117188720Y-57936366D01*
X117198087Y-57941774D01*
X117202010Y-57944137D01*
X117259810Y-57980456D01*
X117262234Y-57981304D01*
X117283269Y-57990954D01*
X117288219Y-57993812D01*
X117288221Y-57993812D01*
X117288222Y-57993813D01*
X117353099Y-58013237D01*
X117358488Y-58014985D01*
X117419438Y-58036312D01*
X117419441Y-58036313D01*
X117425626Y-58037009D01*
X117447298Y-58041438D01*
X117456290Y-58044130D01*
X117513063Y-58047436D01*
X117520274Y-58047856D01*
X117526950Y-58048425D01*
X117587500Y-58055249D01*
X117597322Y-58054141D01*
X117618414Y-58053572D01*
X117631435Y-58054331D01*
X117690990Y-58043829D01*
X117698590Y-58042731D01*
X117755559Y-58036313D01*
X117768347Y-58031837D01*
X117787761Y-58026765D01*
X117804211Y-58023865D01*
X117856390Y-58001356D01*
X117864503Y-57998190D01*
X117915190Y-57980456D01*
X117929760Y-57971300D01*
X117946610Y-57962440D01*
X117965304Y-57954377D01*
X118007961Y-57922619D01*
X118016024Y-57917095D01*
X118058390Y-57890477D01*
X118073142Y-57875723D01*
X118086762Y-57863953D01*
X118106030Y-57849610D01*
X118137875Y-57811656D01*
X118145171Y-57803694D01*
X118177977Y-57770890D01*
X118191019Y-57750132D01*
X118201019Y-57736404D01*
X118218802Y-57715214D01*
X118239409Y-57674178D01*
X118245203Y-57663897D01*
X118267956Y-57627690D01*
X118277259Y-57601102D01*
X118283484Y-57586420D01*
X118283800Y-57585789D01*
X118290560Y-57572330D01*
X118300368Y-57561822D01*
X118299598Y-57558597D01*
X118302779Y-57536325D01*
X118302989Y-57535440D01*
X118307284Y-57517316D01*
X118310895Y-57504973D01*
X118323813Y-57468059D01*
X118327374Y-57436444D01*
X118329936Y-57421742D01*
X118338000Y-57387720D01*
X118338000Y-57349109D01*
X118338780Y-57335224D01*
X118342749Y-57299999D01*
X118338780Y-57264774D01*
X118338000Y-57250889D01*
X118338000Y-55824729D01*
X118357685Y-55757690D01*
X118374319Y-55737048D01*
X118674548Y-55436819D01*
X118735871Y-55403334D01*
X118762229Y-55400500D01*
X120126294Y-55400500D01*
X120144264Y-55401809D01*
X120148320Y-55402402D01*
X120168023Y-55405289D01*
X120217368Y-55400972D01*
X120228176Y-55400500D01*
X120230100Y-55400500D01*
X120233709Y-55400500D01*
X120264550Y-55396894D01*
X120268031Y-55396539D01*
X120342797Y-55389999D01*
X120342797Y-55389998D01*
X120344052Y-55389889D01*
X120363062Y-55385674D01*
X120364250Y-55385241D01*
X120364255Y-55385241D01*
X120434820Y-55359557D01*
X120438095Y-55358419D01*
X120509334Y-55334814D01*
X120509336Y-55334812D01*
X120510536Y-55334415D01*
X120528063Y-55325929D01*
X120529112Y-55325238D01*
X120529117Y-55325237D01*
X120591806Y-55284005D01*
X120594798Y-55282099D01*
X120658656Y-55242712D01*
X120658656Y-55242711D01*
X120659729Y-55242050D01*
X120674824Y-55229753D01*
X120675692Y-55228832D01*
X120675696Y-55228830D01*
X120727185Y-55174253D01*
X120729631Y-55171735D01*
X121178499Y-54722866D01*
X121239820Y-54689383D01*
X121276978Y-54687021D01*
X121338177Y-54692375D01*
X121403243Y-54717828D01*
X121444221Y-54774420D01*
X121448098Y-54844182D01*
X121415047Y-54903584D01*
X119514358Y-56804272D01*
X119500727Y-56816053D01*
X119481468Y-56830391D01*
X119449635Y-56868328D01*
X119442338Y-56876292D01*
X119440972Y-56877657D01*
X119440950Y-56877681D01*
X119438409Y-56880223D01*
X119436173Y-56883050D01*
X119436171Y-56883053D01*
X119419176Y-56904546D01*
X119416902Y-56907337D01*
X119367894Y-56965744D01*
X119357419Y-56982185D01*
X119337118Y-57025720D01*
X119290944Y-57078158D01*
X119238621Y-57096532D01*
X119081943Y-57114186D01*
X118922310Y-57170044D01*
X118779108Y-57260024D01*
X118659524Y-57379608D01*
X118569542Y-57522812D01*
X118540478Y-57605874D01*
X118521482Y-57632358D01*
X118523373Y-57650152D01*
X118518414Y-57668930D01*
X118513686Y-57682441D01*
X118494750Y-57850500D01*
X118513686Y-58018556D01*
X118513686Y-58018558D01*
X118513687Y-58018559D01*
X118523026Y-58045248D01*
X118569544Y-58178190D01*
X118624361Y-58265431D01*
X118643361Y-58332668D01*
X118622993Y-58399503D01*
X118607049Y-58419084D01*
X118497023Y-58529110D01*
X118407044Y-58672310D01*
X118351186Y-58831943D01*
X118332250Y-58999999D01*
X118351186Y-59168056D01*
X118351186Y-59168058D01*
X118351187Y-59168059D01*
X118407044Y-59327690D01*
X118497023Y-59470890D01*
X118616610Y-59590477D01*
X118759810Y-59680456D01*
X118919441Y-59736313D01*
X118919442Y-59736313D01*
X118923157Y-59737613D01*
X118969884Y-59766974D01*
X119161697Y-59958787D01*
X119174598Y-59974889D01*
X119176712Y-59976874D01*
X119176714Y-59976877D01*
X119224061Y-60021339D01*
X119225740Y-60022916D01*
X119228536Y-60025626D01*
X119242815Y-60039905D01*
X119276300Y-60101228D01*
X119271316Y-60170920D01*
X119229444Y-60226853D01*
X119163980Y-60251270D01*
X119141251Y-60250806D01*
X119087501Y-60244750D01*
X118919443Y-60263686D01*
X118759810Y-60319544D01*
X118616608Y-60409524D01*
X118497024Y-60529108D01*
X118407044Y-60672310D01*
X118351186Y-60831943D01*
X118332250Y-60999999D01*
X118351186Y-61168056D01*
X118351186Y-61168058D01*
X118351187Y-61168059D01*
X118407044Y-61327690D01*
X118497023Y-61470890D01*
X118616610Y-61590477D01*
X118759810Y-61680456D01*
X118919441Y-61736313D01*
X119031480Y-61748936D01*
X119087499Y-61755249D01*
X119087499Y-61755248D01*
X119087500Y-61755249D01*
X119255559Y-61736313D01*
X119415190Y-61680456D01*
X119472404Y-61644505D01*
X119538376Y-61625500D01*
X120678287Y-61625500D01*
X120745326Y-61645185D01*
X120765967Y-61661818D01*
X122859397Y-63755249D01*
X124937935Y-65833787D01*
X124950835Y-65849888D01*
X125001962Y-65897900D01*
X125004759Y-65900611D01*
X125024268Y-65920120D01*
X125027448Y-65922587D01*
X125036310Y-65930155D01*
X125037681Y-65931443D01*
X125068157Y-65960062D01*
X125085709Y-65969711D01*
X125101977Y-65980397D01*
X125117803Y-65992673D01*
X125157885Y-66010017D01*
X125168372Y-66015155D01*
X125206646Y-66036197D01*
X125215149Y-66038379D01*
X125226047Y-66041178D01*
X125244452Y-66047478D01*
X125262843Y-66055437D01*
X125305989Y-66062270D01*
X125317407Y-66064635D01*
X125359720Y-66075500D01*
X125379755Y-66075500D01*
X125399154Y-66077027D01*
X125418935Y-66080160D01*
X125462413Y-66076050D01*
X125474083Y-66075500D01*
X127536811Y-66075500D01*
X127603850Y-66095185D01*
X127649605Y-66147989D01*
X127660031Y-66185615D01*
X127663686Y-66218055D01*
X127663686Y-66218057D01*
X127663687Y-66218058D01*
X127719544Y-66377689D01*
X127809523Y-66520889D01*
X127929110Y-66640476D01*
X128072310Y-66730455D01*
X128231941Y-66786312D01*
X128400000Y-66805248D01*
X128568059Y-66786312D01*
X128727690Y-66730455D01*
X128870890Y-66640476D01*
X128886365Y-66625000D01*
X128947684Y-66591517D01*
X129017375Y-66596500D01*
X129073310Y-66638371D01*
X129097728Y-66703835D01*
X129091086Y-66753636D01*
X129063686Y-66831941D01*
X129044750Y-66999999D01*
X129063686Y-67168056D01*
X129063686Y-67168058D01*
X129063687Y-67168059D01*
X129119544Y-67327690D01*
X129209523Y-67470890D01*
X129209524Y-67470891D01*
X129240376Y-67501743D01*
X129273861Y-67563066D01*
X129269737Y-67630378D01*
X129218327Y-67777302D01*
X129199391Y-67945359D01*
X129218327Y-68113415D01*
X129218327Y-68113417D01*
X129218328Y-68113418D01*
X129274185Y-68273049D01*
X129364164Y-68416249D01*
X129483751Y-68535836D01*
X129626951Y-68625815D01*
X129786582Y-68681672D01*
X129954641Y-68700608D01*
X130122700Y-68681672D01*
X130282331Y-68625815D01*
X130425531Y-68535836D01*
X130439867Y-68521498D01*
X130501188Y-68488013D01*
X130570880Y-68492996D01*
X130615229Y-68521498D01*
X130634210Y-68540478D01*
X130777410Y-68630457D01*
X130937041Y-68686314D01*
X131049080Y-68698937D01*
X131105099Y-68705250D01*
X131105099Y-68705249D01*
X131105100Y-68705250D01*
X131273159Y-68686314D01*
X131432790Y-68630457D01*
X131575990Y-68540478D01*
X131695577Y-68420891D01*
X131785556Y-68277691D01*
X131841413Y-68118060D01*
X131860349Y-67950001D01*
X131841413Y-67781942D01*
X131785556Y-67622311D01*
X131777892Y-67610115D01*
X131758893Y-67542880D01*
X131779261Y-67476044D01*
X131832528Y-67430830D01*
X131901785Y-67421592D01*
X131923842Y-67427103D01*
X131954812Y-67437940D01*
X132122872Y-67456876D01*
X132290931Y-67437940D01*
X132450562Y-67382083D01*
X132593762Y-67292104D01*
X132713349Y-67172517D01*
X132803328Y-67029317D01*
X132859185Y-66869686D01*
X132878121Y-66701627D01*
X132859185Y-66533568D01*
X132803328Y-66373937D01*
X132735173Y-66265470D01*
X132716174Y-66198236D01*
X132736542Y-66131400D01*
X132789809Y-66086186D01*
X132840168Y-66075500D01*
X134089548Y-66075500D01*
X134156587Y-66095185D01*
X134177228Y-66111818D01*
X134819045Y-66753636D01*
X135449196Y-67383787D01*
X135462096Y-67399888D01*
X135464213Y-67401876D01*
X135464214Y-67401877D01*
X135502617Y-67437940D01*
X135513223Y-67447900D01*
X135516020Y-67450611D01*
X135535529Y-67470120D01*
X135538709Y-67472587D01*
X135547571Y-67480155D01*
X135579418Y-67510062D01*
X135587535Y-67514524D01*
X135596972Y-67519712D01*
X135613236Y-67530396D01*
X135618736Y-67534662D01*
X135629064Y-67542673D01*
X135653909Y-67553424D01*
X135669152Y-67560021D01*
X135679631Y-67565154D01*
X135717908Y-67586197D01*
X135737306Y-67591177D01*
X135755708Y-67597477D01*
X135774104Y-67605438D01*
X135817261Y-67612273D01*
X135828664Y-67614634D01*
X135870981Y-67625500D01*
X135891016Y-67625500D01*
X135910413Y-67627026D01*
X135930196Y-67630160D01*
X135973674Y-67626050D01*
X135985344Y-67625500D01*
X136049124Y-67625500D01*
X136115095Y-67644505D01*
X136172310Y-67680456D01*
X136331941Y-67736313D01*
X136352230Y-67738599D01*
X136355016Y-67738913D01*
X136419431Y-67765979D01*
X136458986Y-67823573D01*
X136464354Y-67876017D01*
X136444750Y-68049999D01*
X136463686Y-68218056D01*
X136463686Y-68218058D01*
X136463687Y-68218059D01*
X136482928Y-68273048D01*
X136519545Y-68377692D01*
X136521599Y-68380961D01*
X136540604Y-68447276D01*
X136538171Y-69321125D01*
X136538004Y-69381097D01*
X136527557Y-73131177D01*
X136507685Y-73198162D01*
X136454754Y-73243769D01*
X136417442Y-73254052D01*
X136331943Y-73263686D01*
X136172310Y-73319544D01*
X136029108Y-73409524D01*
X135909524Y-73529108D01*
X135819544Y-73672310D01*
X135763686Y-73831943D01*
X135744750Y-73999999D01*
X135763686Y-74168056D01*
X135763686Y-74168058D01*
X135763687Y-74168059D01*
X135819544Y-74327690D01*
X135909523Y-74470890D01*
X136029110Y-74590477D01*
X136172310Y-74680456D01*
X136331941Y-74736313D01*
X136412600Y-74745401D01*
X136477014Y-74772467D01*
X136516569Y-74830062D01*
X136522717Y-74868966D01*
X136520311Y-75732620D01*
X136520311Y-75732642D01*
X136520305Y-75735095D01*
X136520494Y-75737551D01*
X136520495Y-75737566D01*
X136526308Y-75812941D01*
X136526310Y-75812964D01*
X136526499Y-75815405D01*
X136526884Y-75817843D01*
X136526885Y-75817849D01*
X136532258Y-75851853D01*
X136532261Y-75851869D01*
X136532646Y-75854304D01*
X136533221Y-75856691D01*
X136533225Y-75856710D01*
X136545815Y-75908956D01*
X136542382Y-75978742D01*
X136512947Y-76025684D01*
X136409525Y-76129107D01*
X136409523Y-76129109D01*
X136409523Y-76129110D01*
X136353686Y-76217974D01*
X136319544Y-76272310D01*
X136263686Y-76431943D01*
X136244750Y-76600000D01*
X136263686Y-76768056D01*
X136263686Y-76768058D01*
X136263687Y-76768059D01*
X136319544Y-76927690D01*
X136409523Y-77070890D01*
X136512056Y-77173423D01*
X136545540Y-77234746D01*
X136543252Y-77296374D01*
X136536955Y-77317598D01*
X136536399Y-77319364D01*
X136515495Y-77461934D01*
X136515020Y-77632025D01*
X136515020Y-77632047D01*
X136515014Y-77634499D01*
X136515203Y-77636962D01*
X136515204Y-77636963D01*
X136521017Y-77712346D01*
X136521019Y-77712369D01*
X136521208Y-77714810D01*
X136521593Y-77717248D01*
X136521594Y-77717254D01*
X136526967Y-77751258D01*
X136526970Y-77751274D01*
X136527355Y-77753709D01*
X136527930Y-77756096D01*
X136527934Y-77756115D01*
X136541667Y-77813105D01*
X136538234Y-77882891D01*
X136508799Y-77929834D01*
X136409523Y-78029110D01*
X136319544Y-78172310D01*
X136263686Y-78331943D01*
X136244750Y-78500000D01*
X136263686Y-78668056D01*
X136263686Y-78668058D01*
X136263687Y-78668059D01*
X136319544Y-78827690D01*
X136374705Y-78915477D01*
X136409524Y-78970891D01*
X136508109Y-79069476D01*
X136541594Y-79130799D01*
X136539307Y-79192423D01*
X136531544Y-79218591D01*
X136531542Y-79218598D01*
X136531076Y-79220171D01*
X136531074Y-79220179D01*
X136530628Y-79223217D01*
X136530626Y-79223230D01*
X136510201Y-79362532D01*
X136501530Y-82475178D01*
X136501530Y-82475194D01*
X136501523Y-82477953D01*
X136501764Y-82480718D01*
X136501765Y-82480726D01*
X136508506Y-82557861D01*
X136494733Y-82626360D01*
X136446112Y-82676538D01*
X136428315Y-82684835D01*
X136208487Y-82766828D01*
X136208484Y-82766829D01*
X136208480Y-82766831D01*
X135969891Y-82897109D01*
X135752255Y-83060031D01*
X135560031Y-83252255D01*
X135397109Y-83469891D01*
X135266831Y-83708480D01*
X135171823Y-83963203D01*
X135114039Y-84228838D01*
X135103274Y-84379347D01*
X135078857Y-84444811D01*
X135022923Y-84486682D01*
X134979590Y-84494500D01*
X132020409Y-84494500D01*
X131953370Y-84474815D01*
X131907615Y-84422011D01*
X131896725Y-84379346D01*
X131892391Y-84318746D01*
X131885961Y-84228840D01*
X131828175Y-83963199D01*
X131733172Y-83708487D01*
X131669353Y-83591610D01*
X131602890Y-83469891D01*
X131537128Y-83382044D01*
X131439971Y-83252258D01*
X131247742Y-83060029D01*
X131030113Y-82897113D01*
X131030114Y-82897113D01*
X131030108Y-82897109D01*
X130791519Y-82766831D01*
X130791517Y-82766830D01*
X130791513Y-82766828D01*
X130536801Y-82671825D01*
X130536796Y-82671823D01*
X130271161Y-82614039D01*
X130000000Y-82594644D01*
X129728838Y-82614039D01*
X129463203Y-82671823D01*
X129318956Y-82725624D01*
X129208487Y-82766828D01*
X129208484Y-82766829D01*
X129208480Y-82766831D01*
X128969891Y-82897109D01*
X128752255Y-83060031D01*
X128560031Y-83252255D01*
X128397109Y-83469891D01*
X128266831Y-83708480D01*
X128171823Y-83963203D01*
X128114039Y-84228838D01*
X128103274Y-84379347D01*
X128078857Y-84444811D01*
X128022923Y-84486682D01*
X127979590Y-84494500D01*
X121663118Y-84494500D01*
X121660764Y-84494680D01*
X121660748Y-84494681D01*
X121588458Y-84500221D01*
X121588434Y-84500223D01*
X121586082Y-84500404D01*
X121583755Y-84500762D01*
X121583736Y-84500765D01*
X121551063Y-84505803D01*
X121551042Y-84505806D01*
X121548727Y-84506164D01*
X121546436Y-84506699D01*
X121546432Y-84506700D01*
X121473477Y-84523744D01*
X121343848Y-84586171D01*
X121285848Y-84625140D01*
X121272103Y-84637550D01*
X121209151Y-84667863D01*
X121139804Y-84659330D01*
X121111696Y-84642457D01*
X120991116Y-84546298D01*
X120763382Y-84414816D01*
X120518600Y-84318746D01*
X120262225Y-84260230D01*
X120067968Y-84245673D01*
X120067957Y-84245672D01*
X120065654Y-84245500D01*
X119934346Y-84245500D01*
X119932043Y-84245672D01*
X119932031Y-84245673D01*
X119737774Y-84260230D01*
X119481399Y-84318746D01*
X119236618Y-84414816D01*
X119008885Y-84546297D01*
X118887845Y-84642823D01*
X118823158Y-84669231D01*
X118754463Y-84656474D01*
X118729330Y-84639588D01*
X118677217Y-84594432D01*
X118546342Y-84534662D01*
X118480995Y-84515474D01*
X118480993Y-84515473D01*
X118479302Y-84514977D01*
X118479298Y-84514976D01*
X118476172Y-84514526D01*
X118476159Y-84514524D01*
X118336882Y-84494500D01*
X114455053Y-84494500D01*
X114453755Y-84494555D01*
X114453737Y-84494556D01*
X114413130Y-84496296D01*
X114413088Y-84496298D01*
X114411798Y-84496354D01*
X114410475Y-84496467D01*
X114410469Y-84496468D01*
X114391964Y-84498057D01*
X114391945Y-84498059D01*
X114390653Y-84498170D01*
X114389371Y-84498335D01*
X114389340Y-84498339D01*
X114347709Y-84503719D01*
X114210875Y-84548178D01*
X114170085Y-84568234D01*
X114148170Y-84579009D01*
X114148166Y-84579011D01*
X114144696Y-84581383D01*
X114144687Y-84581389D01*
X114055381Y-84642457D01*
X114030706Y-84659330D01*
X114014682Y-84670287D01*
X114013142Y-84668035D01*
X113977838Y-84692172D01*
X113907997Y-84694160D01*
X113889095Y-84687516D01*
X113779802Y-84638855D01*
X113603718Y-84601427D01*
X113542236Y-84568234D01*
X113508460Y-84507071D01*
X113505499Y-84480137D01*
X113505499Y-80499999D01*
X120744750Y-80499999D01*
X120763686Y-80668056D01*
X120763686Y-80668058D01*
X120763687Y-80668059D01*
X120819544Y-80827690D01*
X120909523Y-80970890D01*
X121029110Y-81090477D01*
X121172310Y-81180456D01*
X121331941Y-81236313D01*
X121500000Y-81255249D01*
X121668059Y-81236313D01*
X121827690Y-81180456D01*
X121970890Y-81090477D01*
X122090477Y-80970890D01*
X122180456Y-80827690D01*
X122236313Y-80668059D01*
X122255249Y-80500000D01*
X133744750Y-80500000D01*
X133763686Y-80668056D01*
X133763686Y-80668058D01*
X133763687Y-80668059D01*
X133819544Y-80827690D01*
X133909523Y-80970890D01*
X134029110Y-81090477D01*
X134172310Y-81180456D01*
X134331941Y-81236313D01*
X134500000Y-81255249D01*
X134668059Y-81236313D01*
X134827690Y-81180456D01*
X134970890Y-81090477D01*
X135090477Y-80970890D01*
X135180456Y-80827690D01*
X135236313Y-80668059D01*
X135255249Y-80500000D01*
X135236313Y-80331941D01*
X135180456Y-80172310D01*
X135090477Y-80029110D01*
X134970890Y-79909523D01*
X134827690Y-79819544D01*
X134668059Y-79763687D01*
X134668058Y-79763686D01*
X134668056Y-79763686D01*
X134500000Y-79744750D01*
X134331943Y-79763686D01*
X134172310Y-79819544D01*
X134029108Y-79909524D01*
X133909524Y-80029108D01*
X133819544Y-80172310D01*
X133763686Y-80331943D01*
X133744750Y-80500000D01*
X122255249Y-80500000D01*
X122236313Y-80331941D01*
X122180456Y-80172310D01*
X122090477Y-80029110D01*
X121970890Y-79909523D01*
X121827690Y-79819544D01*
X121668059Y-79763687D01*
X121668058Y-79763686D01*
X121668056Y-79763686D01*
X121499999Y-79744750D01*
X121331943Y-79763686D01*
X121172310Y-79819544D01*
X121029108Y-79909524D01*
X120909524Y-80029108D01*
X120819544Y-80172310D01*
X120763686Y-80331943D01*
X120744750Y-80499999D01*
X113505499Y-80499999D01*
X113505499Y-78500000D01*
X118744750Y-78500000D01*
X118763686Y-78668056D01*
X118763686Y-78668058D01*
X118763687Y-78668059D01*
X118819544Y-78827690D01*
X118909523Y-78970890D01*
X119029110Y-79090477D01*
X119172310Y-79180456D01*
X119331941Y-79236313D01*
X119443980Y-79248936D01*
X119499999Y-79255249D01*
X119499999Y-79255248D01*
X119500000Y-79255249D01*
X119668059Y-79236313D01*
X119827690Y-79180456D01*
X119970890Y-79090477D01*
X120090477Y-78970890D01*
X120180456Y-78827690D01*
X120236313Y-78668059D01*
X120255249Y-78500000D01*
X120236313Y-78331941D01*
X120233884Y-78324999D01*
X131244750Y-78324999D01*
X131263686Y-78493056D01*
X131263686Y-78493058D01*
X131263687Y-78493059D01*
X131319544Y-78652690D01*
X131409523Y-78795890D01*
X131529110Y-78915477D01*
X131672310Y-79005456D01*
X131831941Y-79061313D01*
X132000000Y-79080249D01*
X132168059Y-79061313D01*
X132327690Y-79005456D01*
X132470890Y-78915477D01*
X132590477Y-78795890D01*
X132680456Y-78652690D01*
X132736313Y-78493059D01*
X132755249Y-78325000D01*
X132736313Y-78156941D01*
X132680456Y-77997310D01*
X132590477Y-77854110D01*
X132470890Y-77734523D01*
X132327690Y-77644544D01*
X132168059Y-77588687D01*
X132168058Y-77588686D01*
X132168056Y-77588686D01*
X132000000Y-77569750D01*
X131831943Y-77588686D01*
X131672310Y-77644544D01*
X131529108Y-77734524D01*
X131409524Y-77854108D01*
X131319544Y-77997310D01*
X131263686Y-78156943D01*
X131244750Y-78324999D01*
X120233884Y-78324999D01*
X120180456Y-78172310D01*
X120090477Y-78029110D01*
X119970890Y-77909523D01*
X119827690Y-77819544D01*
X119668059Y-77763687D01*
X119668058Y-77763686D01*
X119668056Y-77763686D01*
X119500000Y-77744750D01*
X119331943Y-77763686D01*
X119172310Y-77819544D01*
X119029108Y-77909524D01*
X118909524Y-78029108D01*
X118819544Y-78172310D01*
X118763686Y-78331943D01*
X118744750Y-78500000D01*
X113505499Y-78500000D01*
X113505499Y-76599999D01*
X118744750Y-76599999D01*
X118763686Y-76768056D01*
X118763686Y-76768058D01*
X118763687Y-76768059D01*
X118819544Y-76927690D01*
X118909523Y-77070890D01*
X119029110Y-77190477D01*
X119172310Y-77280456D01*
X119331941Y-77336313D01*
X119500000Y-77355249D01*
X119668059Y-77336313D01*
X119827690Y-77280456D01*
X119970890Y-77190477D01*
X120090477Y-77070890D01*
X120180456Y-76927690D01*
X120236313Y-76768059D01*
X120255249Y-76600000D01*
X120243981Y-76499999D01*
X131244750Y-76499999D01*
X131263686Y-76668056D01*
X131263686Y-76668058D01*
X131263687Y-76668059D01*
X131319544Y-76827690D01*
X131409523Y-76970890D01*
X131529110Y-77090477D01*
X131672310Y-77180456D01*
X131831941Y-77236313D01*
X132000000Y-77255249D01*
X132168059Y-77236313D01*
X132327690Y-77180456D01*
X132470890Y-77090477D01*
X132590477Y-76970890D01*
X132680456Y-76827690D01*
X132736313Y-76668059D01*
X132755249Y-76500000D01*
X132736313Y-76331941D01*
X132680456Y-76172310D01*
X132590477Y-76029110D01*
X132470890Y-75909523D01*
X132327690Y-75819544D01*
X132168059Y-75763687D01*
X132168058Y-75763686D01*
X132168056Y-75763686D01*
X132000000Y-75744750D01*
X131831943Y-75763686D01*
X131672310Y-75819544D01*
X131529108Y-75909524D01*
X131409524Y-76029108D01*
X131319544Y-76172310D01*
X131263686Y-76331943D01*
X131244750Y-76499999D01*
X120243981Y-76499999D01*
X120236313Y-76431941D01*
X120180456Y-76272310D01*
X120090477Y-76129110D01*
X119970890Y-76009523D01*
X119827690Y-75919544D01*
X119668059Y-75863687D01*
X119668058Y-75863686D01*
X119668056Y-75863686D01*
X119500000Y-75844750D01*
X119331943Y-75863686D01*
X119172310Y-75919544D01*
X119029108Y-76009524D01*
X118909524Y-76129108D01*
X118819544Y-76272310D01*
X118763686Y-76431943D01*
X118744750Y-76599999D01*
X113505499Y-76599999D01*
X113505499Y-73850000D01*
X117744750Y-73850000D01*
X117763686Y-74018056D01*
X117763686Y-74018058D01*
X117763687Y-74018059D01*
X117819544Y-74177690D01*
X117909523Y-74320890D01*
X118029110Y-74440477D01*
X118172310Y-74530456D01*
X118331941Y-74586313D01*
X118443980Y-74598936D01*
X118499999Y-74605249D01*
X118499999Y-74605248D01*
X118500000Y-74605249D01*
X118668059Y-74586313D01*
X118827690Y-74530456D01*
X118970890Y-74440477D01*
X119090477Y-74320890D01*
X119180456Y-74177690D01*
X119236313Y-74018059D01*
X119255249Y-73850000D01*
X119236313Y-73681941D01*
X119180456Y-73522310D01*
X119103603Y-73400000D01*
X124744750Y-73400000D01*
X124763686Y-73568056D01*
X124763686Y-73568058D01*
X124763687Y-73568059D01*
X124819544Y-73727690D01*
X124909523Y-73870890D01*
X125029110Y-73990477D01*
X125172310Y-74080456D01*
X125331941Y-74136313D01*
X125443980Y-74148936D01*
X125499999Y-74155249D01*
X125499999Y-74155248D01*
X125500000Y-74155249D01*
X125668059Y-74136313D01*
X125827690Y-74080456D01*
X125970890Y-73990477D01*
X126090477Y-73870890D01*
X126180456Y-73727690D01*
X126236313Y-73568059D01*
X126255249Y-73400000D01*
X126236313Y-73231941D01*
X126180456Y-73072310D01*
X126090477Y-72929110D01*
X125970890Y-72809523D01*
X125827690Y-72719544D01*
X125668059Y-72663687D01*
X125668058Y-72663686D01*
X125668056Y-72663686D01*
X125500000Y-72644750D01*
X125331943Y-72663686D01*
X125172310Y-72719544D01*
X125029108Y-72809524D01*
X124909524Y-72929108D01*
X124819544Y-73072310D01*
X124763686Y-73231943D01*
X124744750Y-73400000D01*
X119103603Y-73400000D01*
X119090477Y-73379110D01*
X118970890Y-73259523D01*
X118827690Y-73169544D01*
X118668059Y-73113687D01*
X118668058Y-73113686D01*
X118668056Y-73113686D01*
X118499999Y-73094750D01*
X118331943Y-73113686D01*
X118172310Y-73169544D01*
X118029108Y-73259524D01*
X117909524Y-73379108D01*
X117819544Y-73522310D01*
X117763686Y-73681943D01*
X117744750Y-73850000D01*
X113505499Y-73850000D01*
X113505499Y-73455544D01*
X113505499Y-73455543D01*
X113505499Y-73452296D01*
X113494489Y-73347367D01*
X113483803Y-73297008D01*
X113451250Y-73196646D01*
X113374701Y-73074819D01*
X113329487Y-73021551D01*
X113329484Y-73021548D01*
X113328077Y-73020303D01*
X113328068Y-73020295D01*
X113221712Y-72926222D01*
X113172755Y-72903258D01*
X113120420Y-72856967D01*
X113101420Y-72789730D01*
X113102194Y-72777109D01*
X113105249Y-72749998D01*
X113102427Y-72724953D01*
X113114481Y-72656131D01*
X113158607Y-72606753D01*
X113258542Y-72542528D01*
X113311346Y-72496773D01*
X113405566Y-72388039D01*
X113465337Y-72257162D01*
X113485022Y-72190123D01*
X113485023Y-72190119D01*
X113505499Y-72047703D01*
X113505500Y-70062500D01*
X125582250Y-70062500D01*
X125601186Y-70230556D01*
X125601186Y-70230558D01*
X125601187Y-70230559D01*
X125657044Y-70390190D01*
X125747023Y-70533390D01*
X125866610Y-70652977D01*
X126009810Y-70742956D01*
X126169441Y-70798813D01*
X126281480Y-70811436D01*
X126337499Y-70817749D01*
X126337499Y-70817748D01*
X126337500Y-70817749D01*
X126505559Y-70798813D01*
X126665190Y-70742956D01*
X126808390Y-70652977D01*
X126927977Y-70533390D01*
X126995769Y-70425500D01*
X131244750Y-70425500D01*
X131263686Y-70593556D01*
X131263686Y-70593558D01*
X131263687Y-70593559D01*
X131319544Y-70753190D01*
X131409523Y-70896390D01*
X131529110Y-71015977D01*
X131672310Y-71105956D01*
X131831941Y-71161813D01*
X132000000Y-71180749D01*
X132168059Y-71161813D01*
X132327690Y-71105956D01*
X132470890Y-71015977D01*
X132590477Y-70896390D01*
X132680456Y-70753190D01*
X132736313Y-70593559D01*
X132755249Y-70425500D01*
X132736313Y-70257441D01*
X132680456Y-70097810D01*
X132590477Y-69954610D01*
X132470890Y-69835023D01*
X132327690Y-69745044D01*
X132168059Y-69689187D01*
X132168058Y-69689186D01*
X132168056Y-69689186D01*
X131999999Y-69670250D01*
X131831943Y-69689186D01*
X131672310Y-69745044D01*
X131529108Y-69835024D01*
X131409524Y-69954608D01*
X131319544Y-70097810D01*
X131263686Y-70257443D01*
X131244750Y-70425500D01*
X126995769Y-70425500D01*
X127017956Y-70390190D01*
X127073813Y-70230559D01*
X127092749Y-70062500D01*
X127073813Y-69894441D01*
X127017956Y-69734810D01*
X126927977Y-69591610D01*
X126808390Y-69472023D01*
X126665190Y-69382044D01*
X126505559Y-69326187D01*
X126505558Y-69326186D01*
X126505556Y-69326186D01*
X126337500Y-69307250D01*
X126169443Y-69326186D01*
X126009810Y-69382044D01*
X125866608Y-69472024D01*
X125747024Y-69591608D01*
X125657044Y-69734810D01*
X125601186Y-69894443D01*
X125582250Y-70062500D01*
X113505500Y-70062500D01*
X113505500Y-68124000D01*
X113493947Y-68016544D01*
X113482741Y-67965033D01*
X113476193Y-67945359D01*
X113448614Y-67862496D01*
X113370826Y-67741458D01*
X113366004Y-67735894D01*
X113325070Y-67688653D01*
X113216336Y-67594433D01*
X113216335Y-67594432D01*
X113085460Y-67534662D01*
X113020113Y-67515474D01*
X113020111Y-67515473D01*
X113018420Y-67514977D01*
X113018416Y-67514976D01*
X113015290Y-67514526D01*
X113015277Y-67514524D01*
X112876000Y-67494500D01*
X110124500Y-67494500D01*
X110057461Y-67474815D01*
X110011706Y-67422011D01*
X110000500Y-67370500D01*
X110000500Y-66386100D01*
X111444750Y-66386100D01*
X111463686Y-66554156D01*
X111463686Y-66554158D01*
X111463687Y-66554159D01*
X111519544Y-66713790D01*
X111609523Y-66856990D01*
X111729110Y-66976577D01*
X111872310Y-67066556D01*
X112031941Y-67122413D01*
X112116219Y-67131909D01*
X112199999Y-67141349D01*
X112199999Y-67141348D01*
X112200000Y-67141349D01*
X112368059Y-67122413D01*
X112527690Y-67066556D01*
X112670890Y-66976577D01*
X112790477Y-66856990D01*
X112880456Y-66713790D01*
X112936313Y-66554159D01*
X112955249Y-66386100D01*
X112936313Y-66218041D01*
X112880456Y-66058410D01*
X112790477Y-65915210D01*
X112670890Y-65795623D01*
X112527690Y-65705644D01*
X112368059Y-65649787D01*
X112368058Y-65649786D01*
X112368056Y-65649786D01*
X112200000Y-65630850D01*
X112031943Y-65649786D01*
X111872310Y-65705644D01*
X111729108Y-65795624D01*
X111609524Y-65915208D01*
X111519544Y-66058410D01*
X111463686Y-66218043D01*
X111444750Y-66386100D01*
X110000500Y-66386100D01*
X110000500Y-63786099D01*
X111444750Y-63786099D01*
X111463686Y-63954156D01*
X111463686Y-63954158D01*
X111463687Y-63954159D01*
X111519544Y-64113790D01*
X111609523Y-64256990D01*
X111729110Y-64376577D01*
X111872310Y-64466556D01*
X112031941Y-64522413D01*
X112200000Y-64541349D01*
X112368059Y-64522413D01*
X112527690Y-64466556D01*
X112670890Y-64376577D01*
X112790477Y-64256990D01*
X112880456Y-64113790D01*
X112936313Y-63954159D01*
X112955249Y-63786100D01*
X112936313Y-63618041D01*
X112880456Y-63458410D01*
X112790477Y-63315210D01*
X112670890Y-63195623D01*
X112527690Y-63105644D01*
X112368059Y-63049787D01*
X112368058Y-63049786D01*
X112368056Y-63049786D01*
X112199999Y-63030850D01*
X112031943Y-63049786D01*
X111872310Y-63105644D01*
X111729108Y-63195624D01*
X111609524Y-63315208D01*
X111519544Y-63458410D01*
X111463686Y-63618043D01*
X111444750Y-63786099D01*
X110000500Y-63786099D01*
X110000500Y-63000000D01*
X118294750Y-63000000D01*
X118313686Y-63168056D01*
X118313686Y-63168058D01*
X118313687Y-63168059D01*
X118369544Y-63327690D01*
X118459523Y-63470890D01*
X118579110Y-63590477D01*
X118722310Y-63680456D01*
X118881941Y-63736313D01*
X119050000Y-63755249D01*
X119218059Y-63736313D01*
X119377690Y-63680456D01*
X119520890Y-63590477D01*
X119640477Y-63470890D01*
X119730456Y-63327690D01*
X119786313Y-63168059D01*
X119805249Y-63000000D01*
X119786313Y-62831941D01*
X119730456Y-62672310D01*
X119640477Y-62529110D01*
X119520890Y-62409523D01*
X119377690Y-62319544D01*
X119218059Y-62263687D01*
X119218058Y-62263686D01*
X119218056Y-62263686D01*
X119050000Y-62244750D01*
X118881943Y-62263686D01*
X118722310Y-62319544D01*
X118579108Y-62409524D01*
X118459524Y-62529108D01*
X118369544Y-62672310D01*
X118313686Y-62831943D01*
X118294750Y-63000000D01*
X110000500Y-63000000D01*
X110000500Y-60986099D01*
X111444750Y-60986099D01*
X111463686Y-61154156D01*
X111463686Y-61154158D01*
X111463687Y-61154159D01*
X111519544Y-61313790D01*
X111609523Y-61456990D01*
X111729110Y-61576577D01*
X111872310Y-61666556D01*
X112031941Y-61722413D01*
X112200000Y-61741349D01*
X112368059Y-61722413D01*
X112527690Y-61666556D01*
X112670890Y-61576577D01*
X112790477Y-61456990D01*
X112880456Y-61313790D01*
X112936313Y-61154159D01*
X112955249Y-60986100D01*
X112954478Y-60979261D01*
X112937400Y-60827687D01*
X112936313Y-60818041D01*
X112880456Y-60658410D01*
X112790477Y-60515210D01*
X112670890Y-60395623D01*
X112527690Y-60305644D01*
X112368059Y-60249787D01*
X112368058Y-60249786D01*
X112368056Y-60249786D01*
X112199999Y-60230850D01*
X112031943Y-60249786D01*
X111872310Y-60305644D01*
X111729108Y-60395624D01*
X111609524Y-60515208D01*
X111519544Y-60658410D01*
X111463686Y-60818043D01*
X111444750Y-60986099D01*
X110000500Y-60986099D01*
X110000500Y-60329815D01*
X110000500Y-58386100D01*
X111444750Y-58386100D01*
X111463686Y-58554156D01*
X111463686Y-58554158D01*
X111463687Y-58554159D01*
X111519544Y-58713790D01*
X111609523Y-58856990D01*
X111729110Y-58976577D01*
X111872310Y-59066556D01*
X112031941Y-59122413D01*
X112143980Y-59135036D01*
X112199999Y-59141349D01*
X112199999Y-59141348D01*
X112200000Y-59141349D01*
X112368059Y-59122413D01*
X112527690Y-59066556D01*
X112670890Y-58976577D01*
X112790477Y-58856990D01*
X112880456Y-58713790D01*
X112936313Y-58554159D01*
X112955249Y-58386100D01*
X112936313Y-58218041D01*
X112880456Y-58058410D01*
X112790477Y-57915210D01*
X112670890Y-57795623D01*
X112527690Y-57705644D01*
X112368059Y-57649787D01*
X112368058Y-57649786D01*
X112368056Y-57649786D01*
X112200000Y-57630850D01*
X112031943Y-57649786D01*
X111872310Y-57705644D01*
X111729108Y-57795624D01*
X111609524Y-57915208D01*
X111519544Y-58058410D01*
X111463686Y-58218043D01*
X111444750Y-58386100D01*
X110000500Y-58386100D01*
X110000500Y-55586100D01*
X111444750Y-55586100D01*
X111463686Y-55754156D01*
X111463686Y-55754158D01*
X111463687Y-55754159D01*
X111519544Y-55913790D01*
X111609523Y-56056990D01*
X111729110Y-56176577D01*
X111872310Y-56266556D01*
X112031941Y-56322413D01*
X112143980Y-56335036D01*
X112199999Y-56341349D01*
X112199999Y-56341348D01*
X112200000Y-56341349D01*
X112368059Y-56322413D01*
X112527690Y-56266556D01*
X112670890Y-56176577D01*
X112790477Y-56056990D01*
X112880456Y-55913790D01*
X112936313Y-55754159D01*
X112955249Y-55586100D01*
X112936313Y-55418041D01*
X112880456Y-55258410D01*
X112790477Y-55115210D01*
X112670890Y-54995623D01*
X112527690Y-54905644D01*
X112368059Y-54849787D01*
X112368058Y-54849786D01*
X112368056Y-54849786D01*
X112200000Y-54830850D01*
X112031943Y-54849786D01*
X111872310Y-54905644D01*
X111729108Y-54995624D01*
X111609524Y-55115208D01*
X111519544Y-55258410D01*
X111463686Y-55418043D01*
X111444750Y-55586100D01*
X110000500Y-55586100D01*
X110000500Y-53284613D01*
X110020184Y-53217578D01*
X110072988Y-53171823D01*
X110110615Y-53161397D01*
X110171305Y-53154559D01*
X110330936Y-53098702D01*
X110474136Y-53008723D01*
X110593723Y-52889136D01*
X110683702Y-52745936D01*
X110739559Y-52586305D01*
X110757678Y-52425500D01*
X112394181Y-52425500D01*
X112413117Y-52593556D01*
X112413117Y-52593558D01*
X112413118Y-52593559D01*
X112468975Y-52753190D01*
X112558954Y-52896390D01*
X112678541Y-53015977D01*
X112821741Y-53105956D01*
X112981372Y-53161813D01*
X113149431Y-53180749D01*
X113317490Y-53161813D01*
X113477121Y-53105956D01*
X113620321Y-53015977D01*
X113739908Y-52896390D01*
X113829887Y-52753190D01*
X113885744Y-52593559D01*
X113904680Y-52425500D01*
X113885744Y-52257441D01*
X113829887Y-52097810D01*
X113739908Y-51954610D01*
X113620321Y-51835023D01*
X113477121Y-51745044D01*
X113317490Y-51689187D01*
X113317489Y-51689186D01*
X113317487Y-51689186D01*
X113149431Y-51670250D01*
X112981374Y-51689186D01*
X112821741Y-51745044D01*
X112678539Y-51835024D01*
X112558955Y-51954608D01*
X112468975Y-52097810D01*
X112413117Y-52257443D01*
X112394181Y-52425500D01*
X110757678Y-52425500D01*
X110758495Y-52418246D01*
X110739559Y-52250187D01*
X110683702Y-52090556D01*
X110593723Y-51947356D01*
X110474136Y-51827769D01*
X110330936Y-51737790D01*
X110171305Y-51681933D01*
X110171304Y-51681932D01*
X110171302Y-51681932D01*
X110003246Y-51662996D01*
X109835189Y-51681932D01*
X109675556Y-51737790D01*
X109532356Y-51827769D01*
X109428328Y-51931797D01*
X109367005Y-51965281D01*
X109297313Y-51960297D01*
X109252966Y-51931796D01*
X108283670Y-50962500D01*
X113909750Y-50962500D01*
X113928686Y-51130556D01*
X113928686Y-51130558D01*
X113928687Y-51130559D01*
X113984544Y-51290190D01*
X114074523Y-51433390D01*
X114194110Y-51552977D01*
X114337310Y-51642956D01*
X114496941Y-51698813D01*
X114665000Y-51717749D01*
X114833059Y-51698813D01*
X114992690Y-51642956D01*
X115135890Y-51552977D01*
X115238868Y-51449999D01*
X135134750Y-51449999D01*
X135153686Y-51618056D01*
X135153686Y-51618058D01*
X135153687Y-51618059D01*
X135209544Y-51777690D01*
X135299523Y-51920890D01*
X135419110Y-52040477D01*
X135562310Y-52130456D01*
X135721941Y-52186313D01*
X135890000Y-52205249D01*
X136058059Y-52186313D01*
X136217690Y-52130456D01*
X136360890Y-52040477D01*
X136480477Y-51920890D01*
X136570456Y-51777690D01*
X136626313Y-51618059D01*
X136645249Y-51450000D01*
X136643377Y-51433390D01*
X136626313Y-51281943D01*
X136626313Y-51281941D01*
X136570456Y-51122310D01*
X136480477Y-50979110D01*
X136360890Y-50859523D01*
X136217690Y-50769544D01*
X136058059Y-50713687D01*
X136058058Y-50713686D01*
X136058056Y-50713686D01*
X135890000Y-50694750D01*
X135721943Y-50713686D01*
X135562310Y-50769544D01*
X135419108Y-50859524D01*
X135299524Y-50979108D01*
X135209544Y-51122310D01*
X135153686Y-51281943D01*
X135134750Y-51449999D01*
X115238868Y-51449999D01*
X115255477Y-51433390D01*
X115345456Y-51290190D01*
X115401313Y-51130559D01*
X115420249Y-50962500D01*
X115401313Y-50794441D01*
X115345456Y-50634810D01*
X115255477Y-50491610D01*
X115135890Y-50372023D01*
X114992690Y-50282044D01*
X114833059Y-50226187D01*
X114833058Y-50226186D01*
X114833056Y-50226186D01*
X114664999Y-50207250D01*
X114496943Y-50226186D01*
X114337310Y-50282044D01*
X114194108Y-50372024D01*
X114074524Y-50491608D01*
X113984544Y-50634810D01*
X113928686Y-50794443D01*
X113909750Y-50962500D01*
X108283670Y-50962500D01*
X107586317Y-50265147D01*
X107584162Y-50262938D01*
X107523809Y-50199447D01*
X107475390Y-50165746D01*
X107467868Y-50160075D01*
X107422155Y-50122800D01*
X107395190Y-50108715D01*
X107381769Y-50100584D01*
X107356799Y-50083205D01*
X107356798Y-50083204D01*
X107356796Y-50083203D01*
X107302595Y-50059943D01*
X107294086Y-50055902D01*
X107241803Y-50028592D01*
X107235876Y-50026896D01*
X107212548Y-50020221D01*
X107197770Y-50014959D01*
X107169808Y-50002960D01*
X107112022Y-49991083D01*
X107102878Y-49988838D01*
X107046171Y-49972613D01*
X107015825Y-49970302D01*
X107000284Y-49968122D01*
X106970492Y-49962000D01*
X106970491Y-49962000D01*
X106911508Y-49962000D01*
X106902094Y-49961642D01*
X106892948Y-49960945D01*
X106843274Y-49957163D01*
X106843273Y-49957163D01*
X106843272Y-49957163D01*
X106813099Y-49961006D01*
X106797433Y-49962000D01*
X105724258Y-49962000D01*
X105721147Y-49962316D01*
X105721134Y-49962317D01*
X105572559Y-49977426D01*
X105378412Y-50038341D01*
X105200500Y-50137089D01*
X105046104Y-50269635D01*
X104921551Y-50430542D01*
X104831940Y-50613227D01*
X104807520Y-50707545D01*
X104785189Y-50793795D01*
X104780937Y-50810216D01*
X104770630Y-51013437D01*
X104801443Y-51214571D01*
X104872113Y-51405386D01*
X104979745Y-51578068D01*
X104979748Y-51578071D01*
X105119941Y-51725553D01*
X105286951Y-51841795D01*
X105473942Y-51922040D01*
X105673259Y-51963000D01*
X106402967Y-51963000D01*
X106470006Y-51982685D01*
X106490648Y-51999319D01*
X106620182Y-52128853D01*
X106653667Y-52190176D01*
X106648683Y-52259868D01*
X106606811Y-52315801D01*
X106600641Y-52320134D01*
X106451714Y-52418085D01*
X106330676Y-52546377D01*
X106242491Y-52699120D01*
X106191905Y-52868092D01*
X106181648Y-53044168D01*
X106198574Y-53140156D01*
X106212277Y-53217866D01*
X106269786Y-53351187D01*
X106282136Y-53379818D01*
X106387461Y-53521294D01*
X106522570Y-53634665D01*
X106522571Y-53634665D01*
X106522573Y-53634667D01*
X106680189Y-53713824D01*
X106680190Y-53713824D01*
X106680192Y-53713825D01*
X106851810Y-53754500D01*
X106851812Y-53754500D01*
X106980342Y-53754500D01*
X106983941Y-53754500D01*
X107115184Y-53739160D01*
X107280924Y-53678836D01*
X107428285Y-53581915D01*
X107549322Y-53453623D01*
X107613332Y-53342752D01*
X107663897Y-53294537D01*
X107732504Y-53281313D01*
X107797369Y-53307280D01*
X107808400Y-53317071D01*
X107963181Y-53471852D01*
X107996666Y-53533175D01*
X107999500Y-53559533D01*
X107999500Y-68080354D01*
X107998238Y-68098000D01*
X107994500Y-68124000D01*
X107994500Y-71599997D01*
X107994500Y-81964198D01*
X107994558Y-81965541D01*
X107994559Y-81965575D01*
X107996053Y-81999997D01*
X107996385Y-82007667D01*
X107995240Y-82030649D01*
X107994500Y-82035799D01*
X107994500Y-84549997D01*
X107994499Y-86971544D01*
X107974814Y-87038584D01*
X107922010Y-87084338D01*
X107881283Y-87092125D01*
X107881528Y-87093722D01*
X107869065Y-87095631D01*
X107869064Y-87095631D01*
X107827542Y-87101992D01*
X107667928Y-87126443D01*
X107477113Y-87197113D01*
X107304431Y-87304745D01*
X107234623Y-87371104D01*
X107156947Y-87444941D01*
X107156946Y-87444943D01*
X107040705Y-87611950D01*
X106960460Y-87798941D01*
X106919499Y-87998260D01*
X106919500Y-88622389D01*
X106919500Y-88950742D01*
X106919816Y-88953853D01*
X106919817Y-88953865D01*
X106934926Y-89102440D01*
X106952366Y-89158024D01*
X106995841Y-89296588D01*
X107094591Y-89474502D01*
X107227134Y-89628895D01*
X107289854Y-89677444D01*
X107330818Y-89734046D01*
X107334677Y-89803809D01*
X107300208Y-89864584D01*
X107238352Y-89897076D01*
X107213952Y-89899500D01*
X106091130Y-89899500D01*
X106024091Y-89879815D01*
X105978336Y-89827011D01*
X105968392Y-89757853D01*
X105997417Y-89694297D01*
X106005697Y-89685626D01*
X106014050Y-89677686D01*
X106143053Y-89555059D01*
X106259295Y-89388049D01*
X106339540Y-89201058D01*
X106380500Y-89001741D01*
X106380500Y-88049258D01*
X106365074Y-87897562D01*
X106304159Y-87703412D01*
X106205409Y-87525498D01*
X106072866Y-87371105D01*
X105911958Y-87246552D01*
X105911957Y-87246551D01*
X105729272Y-87156940D01*
X105663609Y-87139938D01*
X105532285Y-87105937D01*
X105511670Y-87104891D01*
X105329062Y-87095630D01*
X105127928Y-87126443D01*
X104937113Y-87197113D01*
X104764431Y-87304745D01*
X104694623Y-87371104D01*
X104616947Y-87444941D01*
X104616946Y-87444943D01*
X104500705Y-87611950D01*
X104461456Y-87703412D01*
X104420460Y-87798942D01*
X104379500Y-87998259D01*
X104379500Y-88950742D01*
X104379816Y-88953853D01*
X104379817Y-88953865D01*
X104394926Y-89102440D01*
X104412366Y-89158024D01*
X104455841Y-89296588D01*
X104554591Y-89474502D01*
X104687134Y-89628895D01*
X104749854Y-89677444D01*
X104790818Y-89734046D01*
X104794677Y-89803809D01*
X104760208Y-89864584D01*
X104698352Y-89897076D01*
X104673952Y-89899500D01*
X104002872Y-89899500D01*
X103997145Y-89899368D01*
X103645923Y-89883129D01*
X103634519Y-89882072D01*
X103289143Y-89833895D01*
X103277884Y-89831790D01*
X102938434Y-89751952D01*
X102927418Y-89748818D01*
X102738879Y-89685626D01*
X102596767Y-89637994D01*
X102586088Y-89633857D01*
X102574850Y-89628895D01*
X102267085Y-89493003D01*
X102256842Y-89487903D01*
X102108637Y-89405354D01*
X101952190Y-89318213D01*
X101942452Y-89312184D01*
X101654750Y-89115104D01*
X101645610Y-89108201D01*
X101377334Y-88885427D01*
X101368870Y-88877711D01*
X101122288Y-88631129D01*
X101114572Y-88622665D01*
X100891798Y-88354389D01*
X100884895Y-88345249D01*
X100849643Y-88293788D01*
X100687815Y-88057547D01*
X100681786Y-88047809D01*
X100598097Y-87897559D01*
X100512091Y-87743149D01*
X100506999Y-87732922D01*
X100366137Y-87413898D01*
X100362009Y-87403244D01*
X100251177Y-87072568D01*
X100248050Y-87061578D01*
X100168207Y-86722107D01*
X100166104Y-86710856D01*
X100146053Y-86567115D01*
X100117926Y-86365473D01*
X100116870Y-86354076D01*
X100100632Y-86002855D01*
X100100500Y-85997128D01*
X100100500Y-84062500D01*
X103744750Y-84062500D01*
X103763686Y-84230556D01*
X103763686Y-84230558D01*
X103763687Y-84230559D01*
X103819544Y-84390190D01*
X103909523Y-84533390D01*
X104029110Y-84652977D01*
X104172310Y-84742956D01*
X104331941Y-84798813D01*
X104443980Y-84811436D01*
X104499999Y-84817749D01*
X104499999Y-84817748D01*
X104500000Y-84817749D01*
X104668059Y-84798813D01*
X104827690Y-84742956D01*
X104970890Y-84652977D01*
X105090477Y-84533390D01*
X105180456Y-84390190D01*
X105236313Y-84230559D01*
X105255249Y-84062500D01*
X105236313Y-83894441D01*
X105180456Y-83734810D01*
X105090477Y-83591610D01*
X104970890Y-83472023D01*
X104827690Y-83382044D01*
X104668059Y-83326187D01*
X104668058Y-83326186D01*
X104668056Y-83326186D01*
X104500000Y-83307250D01*
X104331943Y-83326186D01*
X104172310Y-83382044D01*
X104029108Y-83472024D01*
X103909524Y-83591608D01*
X103819544Y-83734810D01*
X103763686Y-83894443D01*
X103744750Y-84062500D01*
X100100500Y-84062500D01*
X100100500Y-81937500D01*
X103744750Y-81937500D01*
X103763686Y-82105556D01*
X103763686Y-82105558D01*
X103763687Y-82105559D01*
X103819544Y-82265190D01*
X103909523Y-82408390D01*
X104029110Y-82527977D01*
X104172310Y-82617956D01*
X104331941Y-82673813D01*
X104500000Y-82692749D01*
X104668059Y-82673813D01*
X104827690Y-82617956D01*
X104970890Y-82527977D01*
X105090477Y-82408390D01*
X105180456Y-82265190D01*
X105236313Y-82105559D01*
X105248207Y-82000000D01*
X105744750Y-82000000D01*
X105763686Y-82168056D01*
X105763686Y-82168058D01*
X105763687Y-82168059D01*
X105819544Y-82327690D01*
X105909523Y-82470890D01*
X106029110Y-82590477D01*
X106172310Y-82680456D01*
X106331941Y-82736313D01*
X106443980Y-82748936D01*
X106499999Y-82755249D01*
X106499999Y-82755248D01*
X106500000Y-82755249D01*
X106668059Y-82736313D01*
X106827690Y-82680456D01*
X106970890Y-82590477D01*
X107090477Y-82470890D01*
X107180456Y-82327690D01*
X107236313Y-82168059D01*
X107255249Y-82000000D01*
X107236313Y-81831941D01*
X107180456Y-81672310D01*
X107090477Y-81529110D01*
X106970890Y-81409523D01*
X106827690Y-81319544D01*
X106668059Y-81263687D01*
X106668058Y-81263686D01*
X106668056Y-81263686D01*
X106499999Y-81244750D01*
X106331943Y-81263686D01*
X106172310Y-81319544D01*
X106029108Y-81409524D01*
X105909524Y-81529108D01*
X105819544Y-81672310D01*
X105763686Y-81831943D01*
X105744750Y-82000000D01*
X105248207Y-82000000D01*
X105255249Y-81937500D01*
X105236313Y-81769441D01*
X105180456Y-81609810D01*
X105090477Y-81466610D01*
X104970890Y-81347023D01*
X104827690Y-81257044D01*
X104668059Y-81201187D01*
X104668058Y-81201186D01*
X104668056Y-81201186D01*
X104499999Y-81182250D01*
X104331943Y-81201186D01*
X104172310Y-81257044D01*
X104029108Y-81347024D01*
X103909524Y-81466608D01*
X103819544Y-81609810D01*
X103763686Y-81769443D01*
X103744750Y-81937500D01*
X100100500Y-81937500D01*
X100100500Y-79044168D01*
X106181648Y-79044168D01*
X106189814Y-79090475D01*
X106212277Y-79217866D01*
X106274680Y-79362532D01*
X106282136Y-79379818D01*
X106387461Y-79521294D01*
X106522570Y-79634665D01*
X106522571Y-79634665D01*
X106522573Y-79634667D01*
X106680189Y-79713824D01*
X106680190Y-79713824D01*
X106680192Y-79713825D01*
X106851810Y-79754500D01*
X106851812Y-79754500D01*
X106980342Y-79754500D01*
X106983941Y-79754500D01*
X107115184Y-79739160D01*
X107280924Y-79678836D01*
X107428285Y-79581915D01*
X107549322Y-79453623D01*
X107637510Y-79300876D01*
X107688095Y-79131909D01*
X107698351Y-78955831D01*
X107667723Y-78782134D01*
X107597864Y-78620182D01*
X107492539Y-78478706D01*
X107492538Y-78478705D01*
X107357429Y-78365334D01*
X107199807Y-78286174D01*
X107028190Y-78245500D01*
X107028188Y-78245500D01*
X106896059Y-78245500D01*
X106892492Y-78245916D01*
X106892490Y-78245917D01*
X106764813Y-78260840D01*
X106599074Y-78321164D01*
X106451715Y-78418084D01*
X106330676Y-78546377D01*
X106242491Y-78699120D01*
X106242489Y-78699124D01*
X106242490Y-78699124D01*
X106204001Y-78827689D01*
X106191905Y-78868092D01*
X106181648Y-79044168D01*
X100100500Y-79044168D01*
X100100500Y-76550008D01*
X101749500Y-76550008D01*
X101749818Y-76553121D01*
X101749819Y-76553140D01*
X101760000Y-76652797D01*
X101815186Y-76819336D01*
X101907288Y-76968655D01*
X102031344Y-77092711D01*
X102180663Y-77184813D01*
X102347202Y-77239999D01*
X102446859Y-77250180D01*
X102446860Y-77250180D01*
X102449992Y-77250500D01*
X102453141Y-77250500D01*
X103546859Y-77250500D01*
X103550008Y-77250500D01*
X103652797Y-77239999D01*
X103819334Y-77184814D01*
X103826400Y-77180456D01*
X103968655Y-77092711D01*
X104092711Y-76968655D01*
X104184813Y-76819336D01*
X104239999Y-76652797D01*
X104250180Y-76553140D01*
X104250179Y-76553140D01*
X104250500Y-76550008D01*
X104250500Y-76000000D01*
X104744722Y-76000000D01*
X104763792Y-76217974D01*
X104820425Y-76429331D01*
X104821643Y-76431943D01*
X104912898Y-76627639D01*
X105038402Y-76806877D01*
X105193123Y-76961598D01*
X105372361Y-77087102D01*
X105570670Y-77179575D01*
X105782023Y-77236207D01*
X105927341Y-77248920D01*
X105999999Y-77255277D01*
X105999999Y-77255276D01*
X106000000Y-77255277D01*
X106217977Y-77236207D01*
X106429330Y-77179575D01*
X106627639Y-77087102D01*
X106806877Y-76961598D01*
X106961598Y-76806877D01*
X107087102Y-76627639D01*
X107179575Y-76429330D01*
X107236207Y-76217977D01*
X107255277Y-76000000D01*
X107236207Y-75782023D01*
X107179575Y-75570670D01*
X107087102Y-75372362D01*
X106961598Y-75193123D01*
X106806877Y-75038402D01*
X106627639Y-74912898D01*
X106449997Y-74830062D01*
X106429331Y-74820425D01*
X106217974Y-74763792D01*
X106000000Y-74744722D01*
X105782025Y-74763792D01*
X105570668Y-74820425D01*
X105372361Y-74912898D01*
X105193122Y-75038402D01*
X105038402Y-75193122D01*
X104912898Y-75372361D01*
X104820425Y-75570668D01*
X104763792Y-75782025D01*
X104744722Y-76000000D01*
X104250500Y-76000000D01*
X104250500Y-75449992D01*
X104239999Y-75347203D01*
X104184814Y-75180666D01*
X104184813Y-75180665D01*
X104184813Y-75180663D01*
X104092711Y-75031344D01*
X103968655Y-74907288D01*
X103819336Y-74815186D01*
X103652797Y-74760000D01*
X103553140Y-74749819D01*
X103553121Y-74749818D01*
X103550008Y-74749500D01*
X102449992Y-74749500D01*
X102446879Y-74749817D01*
X102446859Y-74749819D01*
X102347202Y-74760000D01*
X102180663Y-74815186D01*
X102031344Y-74907288D01*
X101907288Y-75031344D01*
X101815186Y-75180663D01*
X101760000Y-75347202D01*
X101749819Y-75446859D01*
X101749817Y-75446879D01*
X101749500Y-75449992D01*
X101749500Y-76550008D01*
X100100500Y-76550008D01*
X100100500Y-73000000D01*
X101744722Y-73000000D01*
X101763792Y-73217974D01*
X101820425Y-73429331D01*
X101863782Y-73522310D01*
X101912898Y-73627639D01*
X102038402Y-73806877D01*
X102193123Y-73961598D01*
X102372361Y-74087102D01*
X102570670Y-74179575D01*
X102782023Y-74236207D01*
X103000000Y-74255277D01*
X103217977Y-74236207D01*
X103429330Y-74179575D01*
X103627639Y-74087102D01*
X103806877Y-73961598D01*
X103961598Y-73806877D01*
X104087102Y-73627639D01*
X104179575Y-73429330D01*
X104236207Y-73217977D01*
X104255277Y-73000000D01*
X104744722Y-73000000D01*
X104763792Y-73217974D01*
X104820425Y-73429331D01*
X104863782Y-73522310D01*
X104912898Y-73627639D01*
X105038402Y-73806877D01*
X105193123Y-73961598D01*
X105372361Y-74087102D01*
X105570670Y-74179575D01*
X105782023Y-74236207D01*
X105927341Y-74248920D01*
X105999999Y-74255277D01*
X105999999Y-74255276D01*
X106000000Y-74255277D01*
X106217977Y-74236207D01*
X106429330Y-74179575D01*
X106627639Y-74087102D01*
X106806877Y-73961598D01*
X106961598Y-73806877D01*
X107087102Y-73627639D01*
X107179575Y-73429330D01*
X107236207Y-73217977D01*
X107255277Y-73000000D01*
X107236207Y-72782023D01*
X107179575Y-72570670D01*
X107087102Y-72372362D01*
X106961598Y-72193123D01*
X106806877Y-72038402D01*
X106627639Y-71912898D01*
X106536205Y-71870261D01*
X106429331Y-71820425D01*
X106217974Y-71763792D01*
X106000000Y-71744722D01*
X105782025Y-71763792D01*
X105570668Y-71820425D01*
X105372361Y-71912898D01*
X105193122Y-72038402D01*
X105038402Y-72193122D01*
X104912898Y-72372361D01*
X104820425Y-72570668D01*
X104763792Y-72782025D01*
X104744722Y-73000000D01*
X104255277Y-73000000D01*
X104236207Y-72782023D01*
X104179575Y-72570670D01*
X104087102Y-72372362D01*
X103961598Y-72193123D01*
X103806877Y-72038402D01*
X103627639Y-71912898D01*
X103536205Y-71870261D01*
X103429331Y-71820425D01*
X103217974Y-71763792D01*
X103000000Y-71744722D01*
X102782025Y-71763792D01*
X102570668Y-71820425D01*
X102372361Y-71912898D01*
X102193122Y-72038402D01*
X102038402Y-72193122D01*
X101912898Y-72372361D01*
X101820425Y-72570668D01*
X101763792Y-72782025D01*
X101744722Y-73000000D01*
X100100500Y-73000000D01*
X100100500Y-70000000D01*
X101744722Y-70000000D01*
X101763792Y-70217974D01*
X101819398Y-70425500D01*
X101820425Y-70429330D01*
X101912898Y-70627639D01*
X102038402Y-70806877D01*
X102193123Y-70961598D01*
X102372361Y-71087102D01*
X102570670Y-71179575D01*
X102782023Y-71236207D01*
X103000000Y-71255277D01*
X103217977Y-71236207D01*
X103429330Y-71179575D01*
X103627639Y-71087102D01*
X103806877Y-70961598D01*
X103961598Y-70806877D01*
X104087102Y-70627639D01*
X104179575Y-70429330D01*
X104236207Y-70217977D01*
X104236207Y-70217976D01*
X104239015Y-70207497D01*
X104240715Y-70207952D01*
X104261486Y-70154845D01*
X104271877Y-70143042D01*
X104535443Y-69879476D01*
X104596764Y-69845993D01*
X104666456Y-69850977D01*
X104722389Y-69892849D01*
X104746806Y-69958313D01*
X104746650Y-69977966D01*
X104744722Y-69999999D01*
X104763792Y-70217974D01*
X104819398Y-70425500D01*
X104820425Y-70429330D01*
X104912898Y-70627639D01*
X105038402Y-70806877D01*
X105193123Y-70961598D01*
X105372361Y-71087102D01*
X105570670Y-71179575D01*
X105782023Y-71236207D01*
X105927341Y-71248920D01*
X105999999Y-71255277D01*
X105999999Y-71255276D01*
X106000000Y-71255277D01*
X106217977Y-71236207D01*
X106429330Y-71179575D01*
X106627639Y-71087102D01*
X106806877Y-70961598D01*
X106961598Y-70806877D01*
X107087102Y-70627639D01*
X107179575Y-70429330D01*
X107236207Y-70217977D01*
X107255277Y-70000000D01*
X107236207Y-69782023D01*
X107179575Y-69570670D01*
X107087102Y-69372362D01*
X106961598Y-69193123D01*
X106806877Y-69038402D01*
X106627639Y-68912898D01*
X106495023Y-68851058D01*
X106429331Y-68820425D01*
X106217974Y-68763792D01*
X106000000Y-68744722D01*
X105782025Y-68763792D01*
X105689207Y-68788663D01*
X105600791Y-68812353D01*
X105530942Y-68810691D01*
X105473079Y-68771529D01*
X105445575Y-68707300D01*
X105447236Y-68667619D01*
X105450500Y-68651741D01*
X105450500Y-68592756D01*
X105450858Y-68583342D01*
X105455337Y-68524523D01*
X105451493Y-68494338D01*
X105450500Y-68478675D01*
X105450500Y-67044168D01*
X106181648Y-67044168D01*
X106197120Y-67131907D01*
X106212277Y-67217866D01*
X106273382Y-67359524D01*
X106282136Y-67379818D01*
X106387461Y-67521294D01*
X106522570Y-67634665D01*
X106522571Y-67634665D01*
X106522573Y-67634667D01*
X106680189Y-67713824D01*
X106680190Y-67713824D01*
X106680192Y-67713825D01*
X106851810Y-67754500D01*
X106851812Y-67754500D01*
X106980342Y-67754500D01*
X106983941Y-67754500D01*
X107115184Y-67739160D01*
X107280924Y-67678836D01*
X107428285Y-67581915D01*
X107549322Y-67453623D01*
X107552627Y-67447900D01*
X107622029Y-67327690D01*
X107637510Y-67300876D01*
X107688095Y-67131909D01*
X107698351Y-66955831D01*
X107667723Y-66782134D01*
X107597864Y-66620182D01*
X107492539Y-66478706D01*
X107484560Y-66472011D01*
X107357429Y-66365334D01*
X107199807Y-66286174D01*
X107028190Y-66245500D01*
X107028188Y-66245500D01*
X106896059Y-66245500D01*
X106892492Y-66245916D01*
X106892490Y-66245917D01*
X106764813Y-66260840D01*
X106599074Y-66321164D01*
X106451715Y-66418084D01*
X106330676Y-66546377D01*
X106242491Y-66699120D01*
X106238099Y-66713790D01*
X106195229Y-66856990D01*
X106191905Y-66868092D01*
X106181648Y-67044168D01*
X105450500Y-67044168D01*
X105450500Y-65044168D01*
X106181648Y-65044168D01*
X106203094Y-65165790D01*
X106212277Y-65217866D01*
X106277062Y-65368056D01*
X106282136Y-65379818D01*
X106387461Y-65521294D01*
X106522570Y-65634665D01*
X106522571Y-65634665D01*
X106522573Y-65634667D01*
X106680189Y-65713824D01*
X106680190Y-65713824D01*
X106680192Y-65713825D01*
X106851810Y-65754500D01*
X106851812Y-65754500D01*
X106980342Y-65754500D01*
X106983941Y-65754500D01*
X107115184Y-65739160D01*
X107280924Y-65678836D01*
X107428285Y-65581915D01*
X107549322Y-65453623D01*
X107637510Y-65300876D01*
X107688095Y-65131909D01*
X107698351Y-64955831D01*
X107667723Y-64782134D01*
X107597864Y-64620182D01*
X107492539Y-64478706D01*
X107479419Y-64467697D01*
X107357429Y-64365334D01*
X107199807Y-64286174D01*
X107028190Y-64245500D01*
X107028188Y-64245500D01*
X106896059Y-64245500D01*
X106892492Y-64245916D01*
X106892490Y-64245917D01*
X106764813Y-64260840D01*
X106599074Y-64321164D01*
X106451715Y-64418084D01*
X106330676Y-64546377D01*
X106242491Y-64699120D01*
X106191905Y-64868092D01*
X106181648Y-65044168D01*
X105450500Y-65044168D01*
X105450500Y-63308975D01*
X105470185Y-63241936D01*
X105522989Y-63196181D01*
X105592147Y-63186237D01*
X105606580Y-63189197D01*
X105782023Y-63236207D01*
X106000000Y-63255277D01*
X106217977Y-63236207D01*
X106429330Y-63179575D01*
X106627639Y-63087102D01*
X106806877Y-62961598D01*
X106961598Y-62806877D01*
X107087102Y-62627639D01*
X107179575Y-62429330D01*
X107236207Y-62217977D01*
X107255277Y-62000000D01*
X107236207Y-61782023D01*
X107179575Y-61570670D01*
X107087102Y-61372362D01*
X106961598Y-61193123D01*
X106806877Y-61038402D01*
X106627639Y-60912898D01*
X106536205Y-60870261D01*
X106429331Y-60820425D01*
X106217974Y-60763792D01*
X106000000Y-60744722D01*
X105782025Y-60763792D01*
X105606594Y-60810799D01*
X105536744Y-60809136D01*
X105478881Y-60769974D01*
X105451377Y-60705745D01*
X105450500Y-60691024D01*
X105450500Y-60500000D01*
X105450500Y-60308971D01*
X105470183Y-60241936D01*
X105522987Y-60196181D01*
X105592146Y-60186237D01*
X105606584Y-60189198D01*
X105782023Y-60236207D01*
X106000000Y-60255277D01*
X106217977Y-60236207D01*
X106429330Y-60179575D01*
X106627639Y-60087102D01*
X106806877Y-59961598D01*
X106961598Y-59806877D01*
X107087102Y-59627639D01*
X107179575Y-59429330D01*
X107236207Y-59217977D01*
X107255277Y-59000000D01*
X107236207Y-58782023D01*
X107179575Y-58570670D01*
X107087102Y-58372362D01*
X106961598Y-58193123D01*
X106806877Y-58038402D01*
X106627639Y-57912898D01*
X106529982Y-57867360D01*
X106429331Y-57820425D01*
X106217974Y-57763792D01*
X106000000Y-57744722D01*
X105782025Y-57763792D01*
X105606594Y-57810799D01*
X105536744Y-57809136D01*
X105478881Y-57769974D01*
X105451377Y-57705745D01*
X105450500Y-57691025D01*
X105450500Y-57579107D01*
X105450500Y-57464199D01*
X105450537Y-57461217D01*
X105452757Y-57373637D01*
X105444717Y-57328781D01*
X105452265Y-57259322D01*
X105496168Y-57204969D01*
X105562487Y-57182979D01*
X105598865Y-57187129D01*
X105782023Y-57236207D01*
X106000000Y-57255277D01*
X106217977Y-57236207D01*
X106429330Y-57179575D01*
X106627639Y-57087102D01*
X106806877Y-56961598D01*
X106961598Y-56806877D01*
X107087102Y-56627639D01*
X107179575Y-56429330D01*
X107236207Y-56217977D01*
X107255277Y-56000000D01*
X107236207Y-55782023D01*
X107179575Y-55570670D01*
X107087102Y-55372362D01*
X106961598Y-55193123D01*
X106806877Y-55038402D01*
X106627639Y-54912898D01*
X106536205Y-54870261D01*
X106429331Y-54820425D01*
X106217974Y-54763792D01*
X106000000Y-54744722D01*
X105782025Y-54763792D01*
X105570668Y-54820425D01*
X105372361Y-54912898D01*
X105193122Y-55038402D01*
X105038402Y-55193122D01*
X104912898Y-55372361D01*
X104820425Y-55570668D01*
X104763792Y-55782025D01*
X104744722Y-56000000D01*
X104746650Y-56022033D01*
X104732883Y-56090533D01*
X104684268Y-56140716D01*
X104616239Y-56156649D01*
X104550396Y-56133273D01*
X104535441Y-56120521D01*
X104448218Y-56033298D01*
X104414733Y-55971975D01*
X104419717Y-55902283D01*
X104425983Y-55888220D01*
X104433909Y-55873049D01*
X104442278Y-55843797D01*
X104447534Y-55829032D01*
X104459540Y-55801058D01*
X104471418Y-55743256D01*
X104473651Y-55734156D01*
X104489887Y-55677418D01*
X104492197Y-55647077D01*
X104494376Y-55631535D01*
X104500500Y-55601741D01*
X104500500Y-55542756D01*
X104500858Y-55533342D01*
X104505337Y-55474523D01*
X104501493Y-55444338D01*
X104500500Y-55428675D01*
X104500500Y-49907530D01*
X104520185Y-49840491D01*
X104536819Y-49819849D01*
X104851464Y-49505204D01*
X104856669Y-49499999D01*
X117604340Y-49499999D01*
X117624936Y-49735407D01*
X117657294Y-49856168D01*
X117686097Y-49963663D01*
X117785965Y-50177830D01*
X117921505Y-50371401D01*
X118088599Y-50538495D01*
X118282170Y-50674035D01*
X118496337Y-50773903D01*
X118724592Y-50835063D01*
X118960000Y-50855659D01*
X119195408Y-50835063D01*
X119423663Y-50773903D01*
X119637830Y-50674035D01*
X119831401Y-50538495D01*
X119953329Y-50416566D01*
X120014648Y-50383084D01*
X120084340Y-50388068D01*
X120140274Y-50429939D01*
X120157189Y-50460916D01*
X120183291Y-50530898D01*
X120206204Y-50592331D01*
X120292454Y-50707546D01*
X120407669Y-50793796D01*
X120542517Y-50844091D01*
X120602127Y-50850500D01*
X122397872Y-50850499D01*
X122457483Y-50844091D01*
X122592331Y-50793796D01*
X122707546Y-50707546D01*
X122793796Y-50592331D01*
X122844091Y-50457483D01*
X122850500Y-50397873D01*
X122850500Y-50000000D01*
X126244750Y-50000000D01*
X126263686Y-50168056D01*
X126263686Y-50168058D01*
X126263687Y-50168059D01*
X126319544Y-50327690D01*
X126409523Y-50470890D01*
X126529110Y-50590477D01*
X126672310Y-50680456D01*
X126831941Y-50736313D01*
X127000000Y-50755249D01*
X127168059Y-50736313D01*
X127327690Y-50680456D01*
X127434028Y-50613638D01*
X127501264Y-50594638D01*
X127565970Y-50613638D01*
X127672310Y-50680456D01*
X127831941Y-50736313D01*
X128000000Y-50755249D01*
X128168059Y-50736313D01*
X128327690Y-50680456D01*
X128470890Y-50590477D01*
X128590477Y-50470890D01*
X128680456Y-50327690D01*
X128736313Y-50168059D01*
X128755249Y-50000000D01*
X128752705Y-49977426D01*
X128736313Y-49831943D01*
X128736313Y-49831941D01*
X128680456Y-49672310D01*
X128590477Y-49529110D01*
X128470890Y-49409523D01*
X128327690Y-49319544D01*
X128168059Y-49263687D01*
X128168058Y-49263686D01*
X128168056Y-49263686D01*
X128000000Y-49244750D01*
X127831943Y-49263686D01*
X127672309Y-49319544D01*
X127565972Y-49386361D01*
X127498735Y-49405361D01*
X127434028Y-49386361D01*
X127361004Y-49340477D01*
X127327690Y-49319544D01*
X127168059Y-49263687D01*
X127168058Y-49263686D01*
X127168056Y-49263686D01*
X126999999Y-49244750D01*
X126831943Y-49263686D01*
X126672310Y-49319544D01*
X126529108Y-49409524D01*
X126409524Y-49529108D01*
X126319544Y-49672310D01*
X126263686Y-49831943D01*
X126244750Y-50000000D01*
X122850500Y-50000000D01*
X122850499Y-48749999D01*
X130682250Y-48749999D01*
X130701186Y-48918056D01*
X130701186Y-48918058D01*
X130701187Y-48918059D01*
X130757044Y-49077690D01*
X130847023Y-49220890D01*
X130966610Y-49340477D01*
X131109810Y-49430456D01*
X131269441Y-49486313D01*
X131437500Y-49505249D01*
X131605559Y-49486313D01*
X131765190Y-49430456D01*
X131908390Y-49340477D01*
X132027977Y-49220890D01*
X132117956Y-49077690D01*
X132173813Y-48918059D01*
X132192749Y-48750000D01*
X132189965Y-48725296D01*
X132177044Y-48610616D01*
X132173813Y-48581941D01*
X132117956Y-48422310D01*
X132027977Y-48279110D01*
X131908390Y-48159523D01*
X131765190Y-48069544D01*
X131605559Y-48013687D01*
X131605558Y-48013686D01*
X131605556Y-48013686D01*
X131437499Y-47994750D01*
X131269443Y-48013686D01*
X131109810Y-48069544D01*
X130966608Y-48159524D01*
X130847024Y-48279108D01*
X130757044Y-48422310D01*
X130701186Y-48581943D01*
X130682250Y-48749999D01*
X122850499Y-48749999D01*
X122850499Y-48602128D01*
X122844091Y-48542517D01*
X122793796Y-48407669D01*
X122707546Y-48292454D01*
X122592331Y-48206204D01*
X122457483Y-48155909D01*
X122397873Y-48149500D01*
X122394550Y-48149500D01*
X120605439Y-48149500D01*
X120605420Y-48149500D01*
X120602128Y-48149501D01*
X120598848Y-48149853D01*
X120598840Y-48149854D01*
X120542515Y-48155909D01*
X120407669Y-48206204D01*
X120292454Y-48292454D01*
X120206204Y-48407669D01*
X120157189Y-48539083D01*
X120115317Y-48595016D01*
X120049852Y-48619433D01*
X119981580Y-48604581D01*
X119953326Y-48583430D01*
X119831404Y-48461508D01*
X119831404Y-48461507D01*
X119831401Y-48461505D01*
X119637830Y-48325965D01*
X119423663Y-48226097D01*
X119362502Y-48209709D01*
X119195407Y-48164936D01*
X118959999Y-48144340D01*
X118724592Y-48164936D01*
X118496336Y-48226097D01*
X118282170Y-48325965D01*
X118088598Y-48461505D01*
X117921505Y-48628598D01*
X117785965Y-48822170D01*
X117686097Y-49036336D01*
X117624936Y-49264592D01*
X117604340Y-49499999D01*
X104856669Y-49499999D01*
X105175981Y-49180686D01*
X105237302Y-49147203D01*
X105306993Y-49152187D01*
X105329628Y-49163373D01*
X105418685Y-49219332D01*
X105578316Y-49275189D01*
X105746375Y-49294125D01*
X105914434Y-49275189D01*
X106074065Y-49219332D01*
X106217265Y-49129353D01*
X106336852Y-49009766D01*
X106426831Y-48866566D01*
X106482688Y-48706935D01*
X106488584Y-48654598D01*
X106493541Y-48610616D01*
X106520608Y-48546202D01*
X106578203Y-48506647D01*
X106616761Y-48500500D01*
X107674303Y-48500500D01*
X107677444Y-48500539D01*
X107764945Y-48502757D01*
X107823014Y-48492348D01*
X107832318Y-48491043D01*
X107891020Y-48485074D01*
X107920049Y-48475965D01*
X107935282Y-48472226D01*
X107965235Y-48466858D01*
X108020008Y-48444978D01*
X108028883Y-48441819D01*
X108046257Y-48436367D01*
X108085170Y-48424159D01*
X108111776Y-48409390D01*
X108125944Y-48402662D01*
X108154199Y-48391377D01*
X108203461Y-48358909D01*
X108211492Y-48354043D01*
X108263084Y-48325409D01*
X108286169Y-48305589D01*
X108298696Y-48296144D01*
X108324101Y-48279402D01*
X108365833Y-48237668D01*
X108372705Y-48231300D01*
X108417477Y-48192866D01*
X108436106Y-48168798D01*
X108446465Y-48157036D01*
X109428488Y-47175013D01*
X109489809Y-47141530D01*
X109559501Y-47146514D01*
X109582135Y-47157700D01*
X109609691Y-47175015D01*
X109664609Y-47209523D01*
X109671192Y-47213659D01*
X109830823Y-47269516D01*
X109998882Y-47288452D01*
X110166941Y-47269516D01*
X110326572Y-47213659D01*
X110407992Y-47162499D01*
X111994750Y-47162499D01*
X112013686Y-47330556D01*
X112013686Y-47330558D01*
X112013687Y-47330559D01*
X112069544Y-47490190D01*
X112159523Y-47633390D01*
X112279110Y-47752977D01*
X112422310Y-47842956D01*
X112581941Y-47898813D01*
X112750000Y-47917749D01*
X112918059Y-47898813D01*
X113077690Y-47842956D01*
X113220890Y-47752977D01*
X113340477Y-47633390D01*
X113430456Y-47490190D01*
X113486313Y-47330559D01*
X113505249Y-47162500D01*
X113486313Y-46994441D01*
X113430456Y-46834810D01*
X113340477Y-46691610D01*
X113220890Y-46572023D01*
X113077690Y-46482044D01*
X112918059Y-46426187D01*
X112918058Y-46426186D01*
X112918056Y-46426186D01*
X112750000Y-46407250D01*
X112581943Y-46426186D01*
X112422310Y-46482044D01*
X112279108Y-46572024D01*
X112159524Y-46691608D01*
X112069544Y-46834810D01*
X112013686Y-46994443D01*
X111994750Y-47162499D01*
X110407992Y-47162499D01*
X110469772Y-47123680D01*
X110589359Y-47004093D01*
X110679338Y-46860893D01*
X110735195Y-46701262D01*
X110754131Y-46533203D01*
X110735195Y-46365144D01*
X110704929Y-46278650D01*
X110701369Y-46208874D01*
X110723917Y-46161796D01*
X110728892Y-46155367D01*
X110728895Y-46155366D01*
X110853448Y-45994458D01*
X110943060Y-45811771D01*
X110994063Y-45614785D01*
X111001786Y-45462500D01*
X113594540Y-45462500D01*
X113614326Y-45650757D01*
X113672820Y-45830784D01*
X113767466Y-45994716D01*
X113894129Y-46135389D01*
X114047267Y-46246650D01*
X114082240Y-46262221D01*
X114215099Y-46321374D01*
X114268335Y-46366623D01*
X114288657Y-46433472D01*
X114269612Y-46500696D01*
X114230637Y-46539646D01*
X114179108Y-46572024D01*
X114059524Y-46691608D01*
X113969544Y-46834810D01*
X113913686Y-46994443D01*
X113894750Y-47162499D01*
X113913686Y-47330556D01*
X113913686Y-47330558D01*
X113913687Y-47330559D01*
X113969544Y-47490190D01*
X114059523Y-47633390D01*
X114179110Y-47752977D01*
X114322310Y-47842956D01*
X114481941Y-47898813D01*
X114650000Y-47917749D01*
X114818059Y-47898813D01*
X114977690Y-47842956D01*
X115046054Y-47800000D01*
X127044750Y-47800000D01*
X127063686Y-47968056D01*
X127063686Y-47968058D01*
X127063687Y-47968059D01*
X127119544Y-48127690D01*
X127209523Y-48270890D01*
X127329110Y-48390477D01*
X127472310Y-48480456D01*
X127631941Y-48536313D01*
X127719707Y-48546202D01*
X127799999Y-48555249D01*
X127799999Y-48555248D01*
X127800000Y-48555249D01*
X127968059Y-48536313D01*
X128127690Y-48480456D01*
X128270890Y-48390477D01*
X128390477Y-48270890D01*
X128480456Y-48127690D01*
X128536313Y-47968059D01*
X128555249Y-47800000D01*
X128536313Y-47631941D01*
X128480456Y-47472310D01*
X128390477Y-47329110D01*
X128270890Y-47209523D01*
X128127690Y-47119544D01*
X127968059Y-47063687D01*
X127968058Y-47063686D01*
X127968056Y-47063686D01*
X127800000Y-47044750D01*
X127631943Y-47063686D01*
X127472310Y-47119544D01*
X127329108Y-47209524D01*
X127209524Y-47329108D01*
X127119544Y-47472310D01*
X127063686Y-47631943D01*
X127044750Y-47800000D01*
X115046054Y-47800000D01*
X115120890Y-47752977D01*
X115240477Y-47633390D01*
X115330456Y-47490190D01*
X115386313Y-47330559D01*
X115405249Y-47162500D01*
X115404708Y-47157703D01*
X115391982Y-47044751D01*
X115386313Y-46994441D01*
X115330456Y-46834810D01*
X115240477Y-46691610D01*
X115120890Y-46572023D01*
X114977690Y-46482044D01*
X114962643Y-46476779D01*
X114905869Y-46436058D01*
X114880121Y-46371106D01*
X114893577Y-46302544D01*
X114941964Y-46252141D01*
X114952608Y-46246740D01*
X115105870Y-46135389D01*
X115232533Y-45994716D01*
X115327179Y-45830784D01*
X115334939Y-45806901D01*
X115385674Y-45650756D01*
X115405460Y-45462500D01*
X115385674Y-45274244D01*
X115330393Y-45104108D01*
X115327179Y-45094215D01*
X115232533Y-44930283D01*
X115105870Y-44789610D01*
X114952730Y-44678348D01*
X114779802Y-44601355D01*
X114594648Y-44562000D01*
X114594646Y-44562000D01*
X114405354Y-44562000D01*
X114405352Y-44562000D01*
X114220197Y-44601355D01*
X114047269Y-44678348D01*
X113894129Y-44789610D01*
X113767466Y-44930283D01*
X113672820Y-45094215D01*
X113614326Y-45274242D01*
X113594540Y-45462500D01*
X111001786Y-45462500D01*
X111004369Y-45411564D01*
X110973556Y-45210429D01*
X110931539Y-45096980D01*
X110902886Y-45019613D01*
X110795254Y-44846931D01*
X110755841Y-44805469D01*
X110655059Y-44699447D01*
X110488049Y-44583205D01*
X110301058Y-44502960D01*
X110101741Y-44462000D01*
X110101739Y-44462000D01*
X109740344Y-44462000D01*
X109737203Y-44461960D01*
X109735921Y-44461927D01*
X109649719Y-44459742D01*
X109591662Y-44470148D01*
X109582333Y-44471457D01*
X109523644Y-44477426D01*
X109494609Y-44486535D01*
X109479372Y-44490274D01*
X109449432Y-44495641D01*
X109449429Y-44495641D01*
X109449429Y-44495642D01*
X109446465Y-44496826D01*
X109394649Y-44517522D01*
X109385780Y-44520679D01*
X109329492Y-44538341D01*
X109302891Y-44553105D01*
X109288721Y-44559835D01*
X109260467Y-44571122D01*
X109260466Y-44571122D01*
X109260465Y-44571123D01*
X109255632Y-44574308D01*
X109211203Y-44603587D01*
X109203152Y-44608464D01*
X109151580Y-44637090D01*
X109128496Y-44656907D01*
X109115969Y-44666353D01*
X109090563Y-44683098D01*
X109048857Y-44724803D01*
X109041950Y-44731204D01*
X108997185Y-44769635D01*
X108978562Y-44793693D01*
X108968190Y-44805469D01*
X108161969Y-45611691D01*
X108100646Y-45645176D01*
X108030955Y-45640192D01*
X107975021Y-45598320D01*
X107951068Y-45537894D01*
X107942573Y-45462499D01*
X107936313Y-45406941D01*
X107880456Y-45247310D01*
X107790477Y-45104110D01*
X107670890Y-44984523D01*
X107527690Y-44894544D01*
X107368059Y-44838687D01*
X107368058Y-44838686D01*
X107368056Y-44838686D01*
X107200000Y-44819750D01*
X107031943Y-44838686D01*
X106872310Y-44894544D01*
X106729108Y-44984524D01*
X106609524Y-45104108D01*
X106519544Y-45247310D01*
X106463686Y-45406943D01*
X106444750Y-45574999D01*
X106463686Y-45743056D01*
X106463686Y-45743058D01*
X106463687Y-45743059D01*
X106519544Y-45902690D01*
X106609523Y-46045890D01*
X106729110Y-46165477D01*
X106872310Y-46255456D01*
X106872312Y-46255457D01*
X106880891Y-46258459D01*
X106937667Y-46299180D01*
X106963414Y-46364133D01*
X106949958Y-46432695D01*
X106901570Y-46483097D01*
X106839936Y-46499500D01*
X105668198Y-46499500D01*
X105601159Y-46479815D01*
X105555404Y-46427011D01*
X105545460Y-46357853D01*
X105574485Y-46294297D01*
X105617762Y-46262221D01*
X105652730Y-46246651D01*
X105805870Y-46135389D01*
X105932533Y-45994716D01*
X106027179Y-45830784D01*
X106034939Y-45806901D01*
X106085674Y-45650756D01*
X106105460Y-45462500D01*
X106085674Y-45274244D01*
X106030393Y-45104108D01*
X106027179Y-45094215D01*
X105932533Y-44930283D01*
X105805870Y-44789610D01*
X105652730Y-44678348D01*
X105479802Y-44601355D01*
X105294648Y-44562000D01*
X105294646Y-44562000D01*
X105105354Y-44562000D01*
X105105352Y-44562000D01*
X104920197Y-44601355D01*
X104747269Y-44678348D01*
X104594129Y-44789610D01*
X104467466Y-44930283D01*
X104372820Y-45094215D01*
X104314326Y-45274242D01*
X104294540Y-45462499D01*
X104314326Y-45650757D01*
X104372820Y-45830784D01*
X104467466Y-45994716D01*
X104594129Y-46135389D01*
X104747269Y-46246651D01*
X104920197Y-46323644D01*
X105014980Y-46343791D01*
X105076462Y-46376983D01*
X105110239Y-46438146D01*
X105105587Y-46507860D01*
X105063983Y-46563993D01*
X105049374Y-46573502D01*
X105018558Y-46590605D01*
X105004387Y-46597335D01*
X104976133Y-46608622D01*
X104926869Y-46641087D01*
X104918818Y-46645964D01*
X104867246Y-46674590D01*
X104844162Y-46694407D01*
X104831635Y-46703853D01*
X104806229Y-46720598D01*
X104764523Y-46762303D01*
X104757616Y-46768704D01*
X104712851Y-46807135D01*
X104694228Y-46831193D01*
X104683856Y-46842969D01*
X102802645Y-48724181D01*
X102800398Y-48726372D01*
X102736948Y-48786688D01*
X102703244Y-48835110D01*
X102697573Y-48842630D01*
X102660301Y-48888341D01*
X102646210Y-48915314D01*
X102638082Y-48928731D01*
X102620705Y-48953698D01*
X102597439Y-49007913D01*
X102593399Y-49016419D01*
X102566090Y-49068700D01*
X102557720Y-49097949D01*
X102552459Y-49112726D01*
X102540460Y-49140690D01*
X102528587Y-49198461D01*
X102526342Y-49207608D01*
X102510113Y-49264328D01*
X102507802Y-49294673D01*
X102505622Y-49310214D01*
X102499500Y-49340006D01*
X102499500Y-49398989D01*
X102499142Y-49408403D01*
X102494663Y-49467225D01*
X102498506Y-49497399D01*
X102499500Y-49513065D01*
X102499500Y-50096494D01*
X102479815Y-50163533D01*
X102427011Y-50209288D01*
X102389384Y-50219714D01*
X102331943Y-50226186D01*
X102172310Y-50282044D01*
X102029108Y-50372024D01*
X101909524Y-50491608D01*
X101819544Y-50634810D01*
X101763686Y-50794443D01*
X101744750Y-50962500D01*
X101763686Y-51130556D01*
X101763686Y-51130558D01*
X101763687Y-51130559D01*
X101819544Y-51290190D01*
X101909523Y-51433390D01*
X102029110Y-51552977D01*
X102172310Y-51642956D01*
X102331941Y-51698813D01*
X102389383Y-51705285D01*
X102453797Y-51732351D01*
X102493352Y-51789946D01*
X102499500Y-51828505D01*
X102499500Y-54774615D01*
X102479815Y-54841654D01*
X102427906Y-54886996D01*
X102372364Y-54912896D01*
X102193122Y-55038402D01*
X102038402Y-55193122D01*
X101912898Y-55372361D01*
X101820425Y-55570668D01*
X101763792Y-55782025D01*
X101744722Y-56000000D01*
X101763792Y-56217974D01*
X101796850Y-56341349D01*
X101820425Y-56429330D01*
X101912898Y-56627639D01*
X102038402Y-56806877D01*
X102193123Y-56961598D01*
X102372361Y-57087102D01*
X102570670Y-57179575D01*
X102782023Y-57236207D01*
X102792503Y-57239015D01*
X102792047Y-57240715D01*
X102845155Y-57261487D01*
X102856964Y-57271885D01*
X103120519Y-57535440D01*
X103154004Y-57596763D01*
X103149020Y-57666455D01*
X103107148Y-57722388D01*
X103041684Y-57746805D01*
X103022034Y-57746649D01*
X103000003Y-57744722D01*
X102782025Y-57763792D01*
X102570668Y-57820425D01*
X102372361Y-57912898D01*
X102193122Y-58038402D01*
X102038402Y-58193122D01*
X101912898Y-58372361D01*
X101820425Y-58570668D01*
X101763792Y-58782025D01*
X101744722Y-59000000D01*
X101763792Y-59217974D01*
X101820425Y-59429331D01*
X101849218Y-59491077D01*
X101912898Y-59627639D01*
X102038402Y-59806877D01*
X102193123Y-59961598D01*
X102372361Y-60087102D01*
X102570670Y-60179575D01*
X102782023Y-60236207D01*
X103000000Y-60255277D01*
X103217978Y-60236207D01*
X103276000Y-60220659D01*
X103293405Y-60215996D01*
X103363255Y-60217658D01*
X103421118Y-60256819D01*
X103448623Y-60321047D01*
X103449500Y-60335770D01*
X103449500Y-60625500D01*
X103429815Y-60692539D01*
X103377011Y-60738294D01*
X103325500Y-60749500D01*
X102449992Y-60749500D01*
X102446879Y-60749817D01*
X102446859Y-60749819D01*
X102347202Y-60760000D01*
X102180663Y-60815186D01*
X102031344Y-60907288D01*
X101907288Y-61031344D01*
X101815186Y-61180663D01*
X101760000Y-61347202D01*
X101749819Y-61446859D01*
X101749817Y-61446879D01*
X101749500Y-61449992D01*
X101749500Y-62550008D01*
X101749818Y-62553121D01*
X101749819Y-62553140D01*
X101760000Y-62652797D01*
X101815186Y-62819336D01*
X101907288Y-62968655D01*
X102031344Y-63092711D01*
X102180663Y-63184813D01*
X102347202Y-63239999D01*
X102446859Y-63250180D01*
X102446860Y-63250180D01*
X102449992Y-63250500D01*
X103325500Y-63250500D01*
X103392539Y-63270185D01*
X103438294Y-63322989D01*
X103449500Y-63374500D01*
X103449500Y-68084217D01*
X103429815Y-68151256D01*
X103413181Y-68171898D01*
X102856963Y-68728115D01*
X102795640Y-68761600D01*
X102783100Y-68763504D01*
X102570669Y-68820425D01*
X102372361Y-68912898D01*
X102193122Y-69038402D01*
X102038402Y-69193122D01*
X101912898Y-69372361D01*
X101820425Y-69570668D01*
X101763792Y-69782025D01*
X101744722Y-70000000D01*
X100100500Y-70000000D01*
X100100500Y-44131482D01*
X118245500Y-44131482D01*
X118284691Y-44391507D01*
X118324536Y-44520679D01*
X118362202Y-44642788D01*
X118404781Y-44731204D01*
X118476296Y-44879707D01*
X118476297Y-44879709D01*
X118476298Y-44879710D01*
X118624430Y-45096980D01*
X118803290Y-45289746D01*
X119008883Y-45453701D01*
X119236616Y-45585183D01*
X119481402Y-45681254D01*
X119737772Y-45739769D01*
X119934346Y-45754500D01*
X119936663Y-45754500D01*
X120063337Y-45754500D01*
X120065654Y-45754500D01*
X120262228Y-45739769D01*
X120518598Y-45681254D01*
X120763384Y-45585183D01*
X120991117Y-45453701D01*
X121196710Y-45289746D01*
X121375570Y-45096980D01*
X121523702Y-44879710D01*
X121637798Y-44642788D01*
X121715308Y-44391508D01*
X121754500Y-44131482D01*
X121754500Y-43868518D01*
X121741656Y-43783305D01*
X121715308Y-43608492D01*
X121703403Y-43569897D01*
X121637798Y-43357212D01*
X121523702Y-43120290D01*
X121375570Y-42903020D01*
X121196710Y-42710254D01*
X121139870Y-42664925D01*
X121136166Y-42661971D01*
X126399499Y-42661971D01*
X126399500Y-42661991D01*
X126399500Y-42664925D01*
X126399779Y-42667855D01*
X126399781Y-42667880D01*
X126414471Y-42821715D01*
X126473683Y-43023373D01*
X126569990Y-43210184D01*
X126699906Y-43375384D01*
X126858745Y-43513020D01*
X127040754Y-43618103D01*
X127040756Y-43618104D01*
X127088184Y-43634519D01*
X127239366Y-43686844D01*
X127274298Y-43691866D01*
X127447398Y-43716754D01*
X127657330Y-43706754D01*
X127782725Y-43676333D01*
X127852513Y-43679658D01*
X127909427Y-43720186D01*
X127935395Y-43785051D01*
X127922173Y-43853658D01*
X127883081Y-43898412D01*
X127821886Y-43941262D01*
X127709251Y-44020130D01*
X127557630Y-44171751D01*
X127434631Y-44347412D01*
X127344008Y-44541751D01*
X127288507Y-44748883D01*
X127269818Y-44962500D01*
X127288507Y-45176116D01*
X127344008Y-45383248D01*
X127363775Y-45425638D01*
X127434632Y-45577591D01*
X127557627Y-45753245D01*
X127709255Y-45904873D01*
X127884909Y-46027868D01*
X128079253Y-46118492D01*
X128286381Y-46173992D01*
X128500000Y-46192681D01*
X128713619Y-46173992D01*
X128920747Y-46118492D01*
X129115091Y-46027868D01*
X129290745Y-45904873D01*
X129442373Y-45753245D01*
X129565368Y-45577591D01*
X129655992Y-45383247D01*
X129691140Y-45252074D01*
X130244750Y-45252074D01*
X130263686Y-45420131D01*
X130263686Y-45420133D01*
X130263687Y-45420134D01*
X130319544Y-45579765D01*
X130409523Y-45722965D01*
X130529110Y-45842552D01*
X130672310Y-45932531D01*
X130831941Y-45988388D01*
X130833361Y-45988548D01*
X130838152Y-45990561D01*
X130845128Y-45993002D01*
X130844978Y-45993429D01*
X130897773Y-46015613D01*
X130936519Y-46070813D01*
X130969542Y-46165187D01*
X130969544Y-46165190D01*
X131059523Y-46308390D01*
X131179110Y-46427977D01*
X131322310Y-46517956D01*
X131481941Y-46573813D01*
X131650000Y-46592749D01*
X131818059Y-46573813D01*
X131977690Y-46517956D01*
X132120890Y-46427977D01*
X132240477Y-46308390D01*
X132330456Y-46165190D01*
X132386313Y-46005559D01*
X132400382Y-45880698D01*
X132427449Y-45816284D01*
X132485044Y-45776729D01*
X132554881Y-45774592D01*
X132611283Y-45806901D01*
X132709255Y-45904873D01*
X132884909Y-46027868D01*
X133079253Y-46118492D01*
X133286381Y-46173992D01*
X133500000Y-46192681D01*
X133713619Y-46173992D01*
X133920747Y-46118492D01*
X134115091Y-46027868D01*
X134290745Y-45904873D01*
X134442373Y-45753245D01*
X134565368Y-45577591D01*
X134655992Y-45383247D01*
X134711492Y-45176119D01*
X134730181Y-44962500D01*
X134711492Y-44748881D01*
X134655992Y-44541753D01*
X134565368Y-44347410D01*
X134442373Y-44171755D01*
X134290745Y-44020127D01*
X134126687Y-43905251D01*
X134083064Y-43850677D01*
X134075872Y-43781178D01*
X134107394Y-43718824D01*
X134167624Y-43683410D01*
X134227556Y-43685788D01*
X134227647Y-43685159D01*
X134233731Y-43686033D01*
X134237439Y-43686181D01*
X134238370Y-43686499D01*
X134239366Y-43686844D01*
X134274298Y-43691866D01*
X134447398Y-43716754D01*
X134657330Y-43706754D01*
X134861576Y-43657204D01*
X134968240Y-43608492D01*
X135052752Y-43569897D01*
X135132624Y-43513020D01*
X135223952Y-43447986D01*
X135368986Y-43295878D01*
X135481829Y-43120292D01*
X135482612Y-43119074D01*
X135482613Y-43119072D01*
X135560725Y-42923957D01*
X135600500Y-42717585D01*
X135600500Y-41860075D01*
X135585528Y-41703282D01*
X135526316Y-41501625D01*
X135430011Y-41314818D01*
X135367091Y-41234810D01*
X135300093Y-41149615D01*
X135141254Y-41011979D01*
X134959245Y-40906896D01*
X134760633Y-40838155D01*
X134552603Y-40808246D01*
X134552602Y-40808246D01*
X134447635Y-40813246D01*
X134342669Y-40818246D01*
X134138419Y-40867797D01*
X133947247Y-40955102D01*
X133776050Y-41077012D01*
X133631013Y-41229123D01*
X133517387Y-41405925D01*
X133439274Y-41601045D01*
X133399500Y-41807413D01*
X133399499Y-42661971D01*
X133399500Y-42661991D01*
X133399500Y-42664925D01*
X133399779Y-42667855D01*
X133399781Y-42667880D01*
X133414471Y-42821715D01*
X133473683Y-43023373D01*
X133569990Y-43210184D01*
X133699906Y-43375384D01*
X133858745Y-43513020D01*
X133937931Y-43558738D01*
X133986147Y-43609305D01*
X133999369Y-43677912D01*
X133973401Y-43742777D01*
X133916487Y-43783305D01*
X133846697Y-43786630D01*
X133843837Y-43785900D01*
X133834152Y-43783305D01*
X133815743Y-43778372D01*
X133713616Y-43751007D01*
X133499999Y-43732318D01*
X133286383Y-43751007D01*
X133079251Y-43806508D01*
X132884909Y-43897132D01*
X132755409Y-43987809D01*
X132689203Y-44010136D01*
X132642077Y-43998307D01*
X132640878Y-44001734D01*
X132627691Y-43997119D01*
X132627690Y-43997119D01*
X132468059Y-43941262D01*
X132468058Y-43941261D01*
X132468056Y-43941261D01*
X132300000Y-43922325D01*
X132131943Y-43941261D01*
X131972310Y-43997119D01*
X131829108Y-44087099D01*
X131709524Y-44206683D01*
X131619544Y-44349885D01*
X131563686Y-44509518D01*
X131563644Y-44509895D01*
X131563110Y-44511164D01*
X131559073Y-44522703D01*
X131558365Y-44522455D01*
X131536575Y-44574308D01*
X131478979Y-44613862D01*
X131409142Y-44615997D01*
X131374453Y-44601002D01*
X131327690Y-44571619D01*
X131168059Y-44515762D01*
X131168058Y-44515761D01*
X131168056Y-44515761D01*
X131000000Y-44496825D01*
X130831943Y-44515761D01*
X130672310Y-44571619D01*
X130529108Y-44661599D01*
X130409524Y-44781183D01*
X130319544Y-44924385D01*
X130263686Y-45084018D01*
X130244750Y-45252074D01*
X129691140Y-45252074D01*
X129711492Y-45176119D01*
X129730181Y-44962500D01*
X129711492Y-44748881D01*
X129655992Y-44541753D01*
X129565368Y-44347410D01*
X129442373Y-44171755D01*
X129290745Y-44020127D01*
X129115091Y-43897132D01*
X129015468Y-43850677D01*
X128920748Y-43806508D01*
X128713616Y-43751007D01*
X128499999Y-43732318D01*
X128286381Y-43751007D01*
X128167901Y-43782754D01*
X128098052Y-43781091D01*
X128040189Y-43741928D01*
X128012685Y-43677700D01*
X128024272Y-43608798D01*
X128063881Y-43561972D01*
X128132624Y-43513020D01*
X128223952Y-43447986D01*
X128368986Y-43295878D01*
X128481829Y-43120292D01*
X128482612Y-43119074D01*
X128482613Y-43119072D01*
X128560725Y-42923957D01*
X128600500Y-42717585D01*
X128600500Y-41860075D01*
X128585528Y-41703282D01*
X128526316Y-41501625D01*
X128430011Y-41314818D01*
X128367091Y-41234810D01*
X128300093Y-41149615D01*
X128141254Y-41011979D01*
X127959245Y-40906896D01*
X127760633Y-40838155D01*
X127552603Y-40808246D01*
X127552602Y-40808246D01*
X127447635Y-40813246D01*
X127342669Y-40818246D01*
X127138419Y-40867797D01*
X126947247Y-40955102D01*
X126776050Y-41077012D01*
X126631013Y-41229123D01*
X126517387Y-41405925D01*
X126439274Y-41601045D01*
X126399500Y-41807413D01*
X126399499Y-42661971D01*
X121136166Y-42661971D01*
X120991116Y-42546298D01*
X120763382Y-42414816D01*
X120518600Y-42318746D01*
X120262225Y-42260230D01*
X120067968Y-42245673D01*
X120067957Y-42245672D01*
X120065654Y-42245500D01*
X119934346Y-42245500D01*
X119932043Y-42245672D01*
X119932031Y-42245673D01*
X119737774Y-42260230D01*
X119481399Y-42318746D01*
X119236617Y-42414816D01*
X119008883Y-42546298D01*
X118803290Y-42710253D01*
X118624431Y-42903018D01*
X118476296Y-43120292D01*
X118362202Y-43357212D01*
X118284691Y-43608492D01*
X118245500Y-43868517D01*
X118245500Y-44131482D01*
X100100500Y-44131482D01*
X100100500Y-44002870D01*
X100100632Y-43997143D01*
X100110365Y-43786630D01*
X100116870Y-43645914D01*
X100117927Y-43634519D01*
X100120217Y-43618103D01*
X100166106Y-43289131D01*
X100168206Y-43277896D01*
X100248052Y-42938416D01*
X100251175Y-42927437D01*
X100362011Y-42596748D01*
X100366134Y-42586108D01*
X100507003Y-42267068D01*
X100512086Y-42256859D01*
X100681789Y-41952184D01*
X100687815Y-41942452D01*
X100884905Y-41654736D01*
X100891787Y-41645623D01*
X100960812Y-41562499D01*
X103749750Y-41562499D01*
X103768686Y-41730556D01*
X103768686Y-41730558D01*
X103768687Y-41730559D01*
X103824544Y-41890190D01*
X103914523Y-42033390D01*
X104034110Y-42152977D01*
X104177310Y-42242956D01*
X104336941Y-42298813D01*
X104448980Y-42311436D01*
X104504999Y-42317749D01*
X104504999Y-42317748D01*
X104505000Y-42317749D01*
X104673059Y-42298813D01*
X104832690Y-42242956D01*
X104975890Y-42152977D01*
X105095477Y-42033390D01*
X105185456Y-41890190D01*
X105241313Y-41730559D01*
X105260249Y-41562500D01*
X105260249Y-41562499D01*
X107559750Y-41562499D01*
X107578686Y-41730556D01*
X107578686Y-41730558D01*
X107578687Y-41730559D01*
X107634544Y-41890190D01*
X107724523Y-42033390D01*
X107844110Y-42152977D01*
X107987310Y-42242956D01*
X108146941Y-42298813D01*
X108315000Y-42317749D01*
X108483059Y-42298813D01*
X108642690Y-42242956D01*
X108785890Y-42152977D01*
X108905477Y-42033390D01*
X108995456Y-41890190D01*
X109051313Y-41730559D01*
X109070249Y-41562500D01*
X109070249Y-41562499D01*
X112639750Y-41562499D01*
X112658686Y-41730556D01*
X112658686Y-41730558D01*
X112658687Y-41730559D01*
X112714544Y-41890190D01*
X112804523Y-42033390D01*
X112924110Y-42152977D01*
X113067310Y-42242956D01*
X113226941Y-42298813D01*
X113395000Y-42317749D01*
X113563059Y-42298813D01*
X113722690Y-42242956D01*
X113865890Y-42152977D01*
X113985477Y-42033390D01*
X114075456Y-41890190D01*
X114131313Y-41730559D01*
X114150249Y-41562500D01*
X114131313Y-41394441D01*
X114075456Y-41234810D01*
X113985477Y-41091610D01*
X113865890Y-40972023D01*
X113722690Y-40882044D01*
X113563059Y-40826187D01*
X113563058Y-40826186D01*
X113563056Y-40826186D01*
X113394999Y-40807250D01*
X113226943Y-40826186D01*
X113067310Y-40882044D01*
X112924108Y-40972024D01*
X112804524Y-41091608D01*
X112714544Y-41234810D01*
X112658686Y-41394443D01*
X112639750Y-41562499D01*
X109070249Y-41562499D01*
X109051313Y-41394441D01*
X108995456Y-41234810D01*
X108905477Y-41091610D01*
X108785890Y-40972023D01*
X108642690Y-40882044D01*
X108483059Y-40826187D01*
X108483058Y-40826186D01*
X108483056Y-40826186D01*
X108315000Y-40807250D01*
X108146943Y-40826186D01*
X107987310Y-40882044D01*
X107844108Y-40972024D01*
X107724524Y-41091608D01*
X107634544Y-41234810D01*
X107578686Y-41394443D01*
X107559750Y-41562499D01*
X105260249Y-41562499D01*
X105241313Y-41394441D01*
X105185456Y-41234810D01*
X105095477Y-41091610D01*
X104975890Y-40972023D01*
X104832690Y-40882044D01*
X104673059Y-40826187D01*
X104673058Y-40826186D01*
X104673056Y-40826186D01*
X104504999Y-40807250D01*
X104336943Y-40826186D01*
X104177310Y-40882044D01*
X104034108Y-40972024D01*
X103914524Y-41091608D01*
X103824544Y-41234810D01*
X103768686Y-41394443D01*
X103749750Y-41562499D01*
X100960812Y-41562499D01*
X101114582Y-41377321D01*
X101122277Y-41368881D01*
X101368881Y-41122277D01*
X101377321Y-41114582D01*
X101645623Y-40891787D01*
X101654736Y-40884905D01*
X101942457Y-40687811D01*
X101952184Y-40681789D01*
X102256859Y-40512086D01*
X102267068Y-40507003D01*
X102586108Y-40366134D01*
X102596748Y-40362011D01*
X102927437Y-40251175D01*
X102938416Y-40248052D01*
X103277896Y-40168206D01*
X103289131Y-40166106D01*
X103634528Y-40117926D01*
X103645914Y-40116870D01*
X103997144Y-40100632D01*
X104002872Y-40100500D01*
X104026929Y-40100500D01*
X135973071Y-40100500D01*
X135997128Y-40100500D01*
X136002855Y-40100632D01*
G37*
%TD.AperFunction*%
%TA.AperFunction,Conductor*%
G36*
X110490983Y-71358065D02*
G01*
X110518036Y-71364240D01*
X110543792Y-71373252D01*
X110568801Y-71385296D01*
X110580348Y-71392552D01*
X110591894Y-71399807D01*
X110613602Y-71417119D01*
X110632879Y-71436396D01*
X110650191Y-71458104D01*
X110664701Y-71481196D01*
X110676747Y-71506210D01*
X110685755Y-71531950D01*
X110691932Y-71559018D01*
X110694986Y-71586117D01*
X110694986Y-71613880D01*
X110691933Y-71640978D01*
X110685754Y-71668051D01*
X110676749Y-71693785D01*
X110664701Y-71718802D01*
X110650191Y-71741894D01*
X110632879Y-71763602D01*
X110613602Y-71782879D01*
X110591894Y-71800191D01*
X110568802Y-71814701D01*
X110543785Y-71826749D01*
X110518051Y-71835754D01*
X110490976Y-71841933D01*
X110479691Y-71843204D01*
X110463878Y-71844986D01*
X110436119Y-71844986D01*
X110430023Y-71844299D01*
X110409020Y-71841933D01*
X110381953Y-71835755D01*
X110356210Y-71826747D01*
X110331196Y-71814701D01*
X110308104Y-71800191D01*
X110286396Y-71782879D01*
X110267119Y-71763602D01*
X110249807Y-71741894D01*
X110235297Y-71718802D01*
X110223252Y-71693792D01*
X110214241Y-71668039D01*
X110208065Y-71640981D01*
X110205012Y-71613877D01*
X110205012Y-71586112D01*
X110208065Y-71559019D01*
X110214240Y-71531959D01*
X110223251Y-71506208D01*
X110235298Y-71481196D01*
X110249813Y-71458095D01*
X110267118Y-71436396D01*
X110286396Y-71417118D01*
X110308095Y-71399813D01*
X110331200Y-71385295D01*
X110356208Y-71373251D01*
X110381959Y-71364240D01*
X110409024Y-71358064D01*
X110436117Y-71355011D01*
X110463871Y-71355011D01*
X110490983Y-71358065D01*
G37*
%TD.AperFunction*%
%TD*%
%TA.AperFunction,Conductor*%
%TO.N,+5V*%
G36*
X139842539Y-67069685D02*
G01*
X139888294Y-67122489D01*
X139899500Y-67174000D01*
X139899500Y-85997128D01*
X139899368Y-86002855D01*
X139883129Y-86354076D01*
X139882072Y-86365480D01*
X139833895Y-86710856D01*
X139831790Y-86722115D01*
X139751952Y-87061565D01*
X139748818Y-87072581D01*
X139637995Y-87403231D01*
X139633857Y-87413911D01*
X139493006Y-87732909D01*
X139487901Y-87743162D01*
X139318213Y-88047809D01*
X139312184Y-88057547D01*
X139115104Y-88345249D01*
X139108201Y-88354389D01*
X138885427Y-88622665D01*
X138877711Y-88631129D01*
X138631129Y-88877711D01*
X138622665Y-88885427D01*
X138354389Y-89108201D01*
X138345249Y-89115104D01*
X138057547Y-89312184D01*
X138047809Y-89318213D01*
X137749575Y-89484329D01*
X137689236Y-89500000D01*
X134263404Y-89500000D01*
X134196365Y-89480315D01*
X134150610Y-89427511D01*
X134140666Y-89358353D01*
X134169691Y-89294797D01*
X134220067Y-89259820D01*
X134291513Y-89233172D01*
X134507739Y-89115104D01*
X134530108Y-89102890D01*
X134530109Y-89102889D01*
X134530113Y-89102887D01*
X134747742Y-88939971D01*
X134939971Y-88747742D01*
X135102887Y-88530113D01*
X135233172Y-88291513D01*
X135328175Y-88036801D01*
X135385961Y-87771160D01*
X135405355Y-87500000D01*
X135385961Y-87228840D01*
X135328175Y-86963199D01*
X135233172Y-86708487D01*
X135197297Y-86642787D01*
X135102890Y-86469891D01*
X135101685Y-86468281D01*
X134939971Y-86252258D01*
X134747742Y-86060029D01*
X134530678Y-85897536D01*
X134530108Y-85897109D01*
X134291519Y-85766831D01*
X134291517Y-85766830D01*
X134291513Y-85766828D01*
X134036801Y-85671825D01*
X134036796Y-85671823D01*
X133771161Y-85614039D01*
X133500000Y-85594644D01*
X133228838Y-85614039D01*
X132963203Y-85671823D01*
X132818956Y-85725624D01*
X132708487Y-85766828D01*
X132708484Y-85766829D01*
X132708480Y-85766831D01*
X132469891Y-85897109D01*
X132252255Y-86060031D01*
X132060031Y-86252255D01*
X131897109Y-86469891D01*
X131766831Y-86708480D01*
X131766829Y-86708484D01*
X131766828Y-86708487D01*
X131764353Y-86715123D01*
X131671823Y-86963203D01*
X131614039Y-87228838D01*
X131594644Y-87500000D01*
X131614039Y-87771161D01*
X131671823Y-88036796D01*
X131679563Y-88057547D01*
X131766828Y-88291513D01*
X131766830Y-88291517D01*
X131766831Y-88291519D01*
X131897109Y-88530108D01*
X131897113Y-88530113D01*
X132060029Y-88747742D01*
X132252258Y-88939971D01*
X132468281Y-89101685D01*
X132469891Y-89102890D01*
X132570863Y-89158024D01*
X132708487Y-89233172D01*
X132779932Y-89259819D01*
X132835863Y-89301690D01*
X132860280Y-89367154D01*
X132845428Y-89435427D01*
X132796023Y-89484832D01*
X132736596Y-89500000D01*
X127261971Y-89500000D01*
X127194932Y-89480315D01*
X127149177Y-89427511D01*
X127139233Y-89358353D01*
X127168258Y-89294797D01*
X127218637Y-89259818D01*
X127291307Y-89232713D01*
X127529839Y-89102465D01*
X127655124Y-89008677D01*
X126863108Y-88216661D01*
X127001948Y-88129423D01*
X127129423Y-88001948D01*
X127216661Y-87863108D01*
X128008677Y-88655124D01*
X128102465Y-88529839D01*
X128232712Y-88291307D01*
X128327694Y-88036654D01*
X128385463Y-87771089D01*
X128404853Y-87499999D01*
X128385463Y-87228910D01*
X128327694Y-86963345D01*
X128232712Y-86708692D01*
X128102463Y-86470157D01*
X128008678Y-86344875D01*
X128008677Y-86344874D01*
X127216660Y-87136890D01*
X127129423Y-86998052D01*
X127001948Y-86870577D01*
X126863107Y-86783337D01*
X127655124Y-85991320D01*
X127529842Y-85897536D01*
X127291307Y-85767287D01*
X127036654Y-85672305D01*
X126771089Y-85614536D01*
X126500000Y-85595146D01*
X126228910Y-85614536D01*
X125963345Y-85672305D01*
X125708692Y-85767286D01*
X125470162Y-85897534D01*
X125344874Y-85991321D01*
X126136891Y-86783338D01*
X125998052Y-86870577D01*
X125870577Y-86998052D01*
X125783338Y-87136891D01*
X124991321Y-86344875D01*
X124897534Y-86470162D01*
X124767286Y-86708692D01*
X124672305Y-86963345D01*
X124614536Y-87228910D01*
X124595146Y-87500000D01*
X124614536Y-87771089D01*
X124672305Y-88036654D01*
X124767287Y-88291307D01*
X124897536Y-88529842D01*
X124991320Y-88655124D01*
X124991321Y-88655124D01*
X125783338Y-87863107D01*
X125870577Y-88001948D01*
X125998052Y-88129423D01*
X126136891Y-88216661D01*
X125344874Y-89008677D01*
X125344875Y-89008678D01*
X125470157Y-89102463D01*
X125708692Y-89232713D01*
X125781363Y-89259818D01*
X125837296Y-89301690D01*
X125861713Y-89367154D01*
X125846861Y-89435427D01*
X125797456Y-89484832D01*
X125738029Y-89500000D01*
X114018857Y-89500000D01*
X113951818Y-89480315D01*
X113906063Y-89427511D01*
X113896119Y-89358353D01*
X113904906Y-89327100D01*
X113959059Y-89200907D01*
X114000000Y-89001688D01*
X114000000Y-88750000D01*
X113349607Y-88750000D01*
X113409238Y-88632969D01*
X113430298Y-88500000D01*
X113409238Y-88367031D01*
X113349607Y-88250000D01*
X114000000Y-88250000D01*
X114000000Y-88052429D01*
X113999682Y-88046164D01*
X113984580Y-87897660D01*
X113923696Y-87703610D01*
X113824996Y-87525785D01*
X113692520Y-87371468D01*
X113531692Y-87246978D01*
X113349094Y-87157410D01*
X113250000Y-87131753D01*
X113250000Y-88150392D01*
X113132969Y-88090762D01*
X113033451Y-88075000D01*
X112966549Y-88075000D01*
X112867031Y-88090762D01*
X112749999Y-88150392D01*
X112749999Y-87126633D01*
X112748051Y-87126932D01*
X112557336Y-87197564D01*
X112384736Y-87305145D01*
X112237330Y-87445266D01*
X112121144Y-87612194D01*
X112040940Y-87799092D01*
X112000000Y-87998311D01*
X112000000Y-88250000D01*
X112650393Y-88250000D01*
X112590762Y-88367031D01*
X112569702Y-88500000D01*
X112590762Y-88632969D01*
X112650393Y-88750000D01*
X112000000Y-88750000D01*
X112000000Y-88947570D01*
X112000317Y-88953835D01*
X112015419Y-89102339D01*
X112076302Y-89296388D01*
X112087089Y-89315821D01*
X112102413Y-89383990D01*
X112078450Y-89449622D01*
X112022808Y-89491879D01*
X111978671Y-89500000D01*
X111479401Y-89500000D01*
X111412362Y-89480315D01*
X111366607Y-89427511D01*
X111356663Y-89358353D01*
X111365448Y-89327105D01*
X111419540Y-89201058D01*
X111460500Y-89001741D01*
X111460500Y-88049258D01*
X111445074Y-87897562D01*
X111384159Y-87703412D01*
X111285409Y-87525498D01*
X111152866Y-87371105D01*
X111014974Y-87264368D01*
X110991957Y-87246551D01*
X110809272Y-87156940D01*
X110743609Y-87139939D01*
X110612285Y-87105937D01*
X110591670Y-87104891D01*
X110409062Y-87095630D01*
X110207928Y-87126443D01*
X110017113Y-87197113D01*
X109844431Y-87304745D01*
X109774623Y-87371104D01*
X109696947Y-87444941D01*
X109696946Y-87444943D01*
X109580705Y-87611950D01*
X109512382Y-87771161D01*
X109500460Y-87798942D01*
X109459500Y-87998259D01*
X109459500Y-88950742D01*
X109459815Y-88953835D01*
X109459817Y-88953865D01*
X109474926Y-89102440D01*
X109505868Y-89201058D01*
X109535841Y-89296588D01*
X109544497Y-89312184D01*
X109546517Y-89315822D01*
X109561841Y-89383990D01*
X109537878Y-89449622D01*
X109482235Y-89491879D01*
X109438099Y-89500000D01*
X108939401Y-89500000D01*
X108872362Y-89480315D01*
X108826607Y-89427511D01*
X108816663Y-89358353D01*
X108825448Y-89327105D01*
X108879540Y-89201058D01*
X108920500Y-89001741D01*
X108920500Y-88049258D01*
X108905074Y-87897562D01*
X108844159Y-87703412D01*
X108745409Y-87525498D01*
X108676532Y-87445266D01*
X108612868Y-87371106D01*
X108548098Y-87320970D01*
X108507134Y-87264368D01*
X108500000Y-87222914D01*
X108500000Y-84549999D01*
X110744750Y-84549999D01*
X110763686Y-84718056D01*
X110763686Y-84718058D01*
X110763687Y-84718059D01*
X110819544Y-84877690D01*
X110909523Y-85020890D01*
X111029110Y-85140477D01*
X111172310Y-85230456D01*
X111331941Y-85286313D01*
X111500000Y-85305249D01*
X111668059Y-85286313D01*
X111827690Y-85230456D01*
X111970890Y-85140477D01*
X112090477Y-85020890D01*
X112180456Y-84877690D01*
X112236313Y-84718059D01*
X112255249Y-84550000D01*
X112236313Y-84381941D01*
X112180456Y-84222310D01*
X112090477Y-84079110D01*
X111970890Y-83959523D01*
X111827690Y-83869544D01*
X111668059Y-83813687D01*
X111668058Y-83813686D01*
X111668056Y-83813686D01*
X111499999Y-83794750D01*
X111331943Y-83813686D01*
X111172310Y-83869544D01*
X111029108Y-83959524D01*
X110909524Y-84079108D01*
X110819544Y-84222310D01*
X110763686Y-84381943D01*
X110744750Y-84549999D01*
X108500000Y-84549999D01*
X108500000Y-82035801D01*
X108509941Y-82001945D01*
X108506929Y-81995850D01*
X108739753Y-81995850D01*
X108742977Y-82000866D01*
X108747220Y-82021917D01*
X108763686Y-82168056D01*
X108763686Y-82168058D01*
X108763687Y-82168059D01*
X108819544Y-82327690D01*
X108909523Y-82470890D01*
X109029110Y-82590477D01*
X109172310Y-82680456D01*
X109331941Y-82736313D01*
X109500000Y-82755249D01*
X109668059Y-82736313D01*
X109827690Y-82680456D01*
X109970890Y-82590477D01*
X110090477Y-82470890D01*
X110180456Y-82327690D01*
X110236313Y-82168059D01*
X110255249Y-82000000D01*
X110236313Y-81831941D01*
X110180456Y-81672310D01*
X110090477Y-81529110D01*
X109970890Y-81409523D01*
X109827690Y-81319544D01*
X109668059Y-81263687D01*
X109668058Y-81263686D01*
X109668056Y-81263686D01*
X109500000Y-81244750D01*
X109331943Y-81263686D01*
X109172310Y-81319544D01*
X109029108Y-81409524D01*
X108909524Y-81529108D01*
X108819544Y-81672310D01*
X108763686Y-81831943D01*
X108747220Y-81978082D01*
X108739753Y-81995850D01*
X108506929Y-81995850D01*
X108501859Y-81985591D01*
X108500000Y-81964198D01*
X108500000Y-71600000D01*
X109694750Y-71600000D01*
X109713686Y-71768056D01*
X109713686Y-71768058D01*
X109713687Y-71768059D01*
X109769544Y-71927690D01*
X109859523Y-72070890D01*
X109979110Y-72190477D01*
X110122310Y-72280456D01*
X110281941Y-72336313D01*
X110450000Y-72355249D01*
X110618059Y-72336313D01*
X110777690Y-72280456D01*
X110920890Y-72190477D01*
X111040477Y-72070890D01*
X111130456Y-71927690D01*
X111186313Y-71768059D01*
X111205249Y-71600000D01*
X111186313Y-71431941D01*
X111130456Y-71272310D01*
X111040477Y-71129110D01*
X110920890Y-71009523D01*
X110777690Y-70919544D01*
X110618059Y-70863687D01*
X110618058Y-70863686D01*
X110618056Y-70863686D01*
X110450000Y-70844750D01*
X110281943Y-70863686D01*
X110122310Y-70919544D01*
X109979108Y-71009524D01*
X109859524Y-71129108D01*
X109769544Y-71272310D01*
X109713686Y-71431943D01*
X109694750Y-71600000D01*
X108500000Y-71600000D01*
X108500000Y-68124000D01*
X108519685Y-68056961D01*
X108572489Y-68011206D01*
X108624000Y-68000000D01*
X112876000Y-68000000D01*
X112943039Y-68019685D01*
X112988794Y-68072489D01*
X113000000Y-68124000D01*
X112999999Y-72047703D01*
X112980314Y-72114742D01*
X112927510Y-72160497D01*
X112858352Y-72170441D01*
X112810027Y-72152697D01*
X112677690Y-72069544D01*
X112518056Y-72013686D01*
X112350000Y-71994750D01*
X112181943Y-72013686D01*
X112022310Y-72069544D01*
X111879108Y-72159524D01*
X111759524Y-72279108D01*
X111669544Y-72422310D01*
X111613686Y-72581943D01*
X111594750Y-72749999D01*
X111613686Y-72918056D01*
X111613686Y-72918058D01*
X111613687Y-72918059D01*
X111669544Y-73077690D01*
X111759523Y-73220890D01*
X111879110Y-73340477D01*
X112022310Y-73430456D01*
X112181941Y-73486313D01*
X112293980Y-73498936D01*
X112349999Y-73505249D01*
X112349999Y-73505248D01*
X112350000Y-73505249D01*
X112518059Y-73486313D01*
X112677690Y-73430456D01*
X112810029Y-73347301D01*
X112877263Y-73328302D01*
X112944099Y-73348669D01*
X112989313Y-73401937D01*
X112999999Y-73452296D01*
X112999999Y-84687010D01*
X112980314Y-84754049D01*
X112948886Y-84787327D01*
X112894129Y-84827111D01*
X112767466Y-84967783D01*
X112672820Y-85131715D01*
X112614326Y-85311742D01*
X112594540Y-85500000D01*
X112614326Y-85688257D01*
X112672820Y-85868284D01*
X112767466Y-86032216D01*
X112894129Y-86172889D01*
X113047269Y-86284151D01*
X113220197Y-86361144D01*
X113405352Y-86400500D01*
X113405354Y-86400500D01*
X113594648Y-86400500D01*
X113718084Y-86374262D01*
X113779803Y-86361144D01*
X113952730Y-86284151D01*
X114022897Y-86233172D01*
X114105870Y-86172889D01*
X114232533Y-86032216D01*
X114327179Y-85868284D01*
X114366345Y-85747744D01*
X114385674Y-85688256D01*
X114405460Y-85500000D01*
X114385674Y-85311744D01*
X114337121Y-85162317D01*
X114335127Y-85092477D01*
X114371207Y-85032644D01*
X114433908Y-85001816D01*
X114455053Y-85000000D01*
X118336882Y-85000000D01*
X118403921Y-85019685D01*
X118449676Y-85072489D01*
X118459620Y-85141647D01*
X118448602Y-85177802D01*
X118362202Y-85357212D01*
X118284691Y-85608492D01*
X118245500Y-85868517D01*
X118245500Y-86131482D01*
X118284691Y-86391507D01*
X118362202Y-86642787D01*
X118476296Y-86879707D01*
X118476297Y-86879709D01*
X118476298Y-86879710D01*
X118624430Y-87096980D01*
X118803290Y-87289746D01*
X119008883Y-87453701D01*
X119236616Y-87585183D01*
X119481402Y-87681254D01*
X119737772Y-87739769D01*
X119934346Y-87754500D01*
X119936663Y-87754500D01*
X120063337Y-87754500D01*
X120065654Y-87754500D01*
X120262228Y-87739769D01*
X120518598Y-87681254D01*
X120763384Y-87585183D01*
X120991117Y-87453701D01*
X121196710Y-87289746D01*
X121375570Y-87096980D01*
X121523702Y-86879710D01*
X121637798Y-86642788D01*
X121715308Y-86391508D01*
X121754500Y-86131482D01*
X121754500Y-85868518D01*
X121715308Y-85608492D01*
X121637798Y-85357212D01*
X121551397Y-85177800D01*
X121540046Y-85108861D01*
X121567768Y-85044726D01*
X121625763Y-85005760D01*
X121663118Y-85000000D01*
X128072005Y-85000000D01*
X128139044Y-85019685D01*
X128184799Y-85072489D01*
X128188175Y-85080638D01*
X128266828Y-85291513D01*
X128266830Y-85291517D01*
X128266831Y-85291519D01*
X128397109Y-85530108D01*
X128397113Y-85530113D01*
X128560029Y-85747742D01*
X128752258Y-85939971D01*
X128968281Y-86101685D01*
X128969891Y-86102890D01*
X129128650Y-86189578D01*
X129208487Y-86233172D01*
X129463199Y-86328175D01*
X129463202Y-86328175D01*
X129463203Y-86328176D01*
X129512852Y-86338976D01*
X129728840Y-86385961D01*
X130000000Y-86405355D01*
X130271160Y-86385961D01*
X130536801Y-86328175D01*
X130791513Y-86233172D01*
X131030113Y-86102887D01*
X131247742Y-85939971D01*
X131439971Y-85747742D01*
X131602887Y-85530113D01*
X131733172Y-85291513D01*
X131811815Y-85080662D01*
X131853685Y-85024733D01*
X131919149Y-85000316D01*
X131927995Y-85000000D01*
X135072005Y-85000000D01*
X135139044Y-85019685D01*
X135184799Y-85072489D01*
X135188175Y-85080638D01*
X135266828Y-85291513D01*
X135266830Y-85291517D01*
X135266831Y-85291519D01*
X135397109Y-85530108D01*
X135397113Y-85530113D01*
X135560029Y-85747742D01*
X135752258Y-85939971D01*
X135968281Y-86101685D01*
X135969891Y-86102890D01*
X136128650Y-86189578D01*
X136208487Y-86233172D01*
X136463199Y-86328175D01*
X136463202Y-86328175D01*
X136463203Y-86328176D01*
X136512852Y-86338976D01*
X136728840Y-86385961D01*
X137000000Y-86405355D01*
X137271160Y-86385961D01*
X137536801Y-86328175D01*
X137791513Y-86233172D01*
X138030113Y-86102887D01*
X138247742Y-85939971D01*
X138439971Y-85747742D01*
X138602887Y-85530113D01*
X138733172Y-85291513D01*
X138828175Y-85036801D01*
X138885961Y-84771160D01*
X138905355Y-84500000D01*
X138885961Y-84228840D01*
X138828175Y-83963199D01*
X138733172Y-83708487D01*
X138709864Y-83665802D01*
X138602890Y-83469891D01*
X138601685Y-83468281D01*
X138439971Y-83252258D01*
X138247742Y-83060029D01*
X138030113Y-82897113D01*
X138030114Y-82897113D01*
X138030108Y-82897109D01*
X137791519Y-82766831D01*
X137791517Y-82766830D01*
X137791513Y-82766828D01*
X137536801Y-82671825D01*
X137536796Y-82671823D01*
X137271161Y-82614039D01*
X137122173Y-82603383D01*
X137056709Y-82578966D01*
X137014838Y-82523032D01*
X137007021Y-82479361D01*
X137015699Y-79363945D01*
X137035571Y-79296962D01*
X137088502Y-79251355D01*
X137125808Y-79241073D01*
X137168059Y-79236313D01*
X137327690Y-79180456D01*
X137470890Y-79090477D01*
X137590477Y-78970890D01*
X137680456Y-78827690D01*
X137736313Y-78668059D01*
X137755249Y-78500000D01*
X137736313Y-78331941D01*
X137680456Y-78172310D01*
X137590477Y-78029110D01*
X137470890Y-77909523D01*
X137327690Y-77819544D01*
X137168059Y-77763687D01*
X137168058Y-77763686D01*
X137168056Y-77763686D01*
X137130628Y-77759469D01*
X137066214Y-77732402D01*
X137026659Y-77674807D01*
X137020512Y-77635908D01*
X137020993Y-77463348D01*
X137040865Y-77396366D01*
X137093796Y-77350758D01*
X137131110Y-77340476D01*
X137168059Y-77336313D01*
X137327690Y-77280456D01*
X137470890Y-77190477D01*
X137590477Y-77070890D01*
X137680456Y-76927690D01*
X137736313Y-76768059D01*
X137755249Y-76600000D01*
X137736313Y-76431941D01*
X137680456Y-76272310D01*
X137590477Y-76129110D01*
X137470890Y-76009523D01*
X137327690Y-75919544D01*
X137168059Y-75863687D01*
X137168058Y-75863686D01*
X137168056Y-75863686D01*
X137135918Y-75860065D01*
X137071505Y-75832998D01*
X137031950Y-75775402D01*
X137025803Y-75736503D01*
X137029015Y-74583365D01*
X137048887Y-74516383D01*
X137065330Y-74496036D01*
X137090477Y-74470890D01*
X137180456Y-74327690D01*
X137236313Y-74168059D01*
X137255249Y-74000000D01*
X137236313Y-73831941D01*
X137180456Y-73672310D01*
X137090477Y-73529110D01*
X137068576Y-73507209D01*
X137035091Y-73445886D01*
X137032258Y-73419197D01*
X137043502Y-69382505D01*
X137520500Y-69382505D01*
X137559990Y-69542725D01*
X137585647Y-69591610D01*
X137636675Y-69688835D01*
X137686472Y-69745044D01*
X137746100Y-69812350D01*
X137881900Y-69906087D01*
X137940413Y-69928277D01*
X138036191Y-69964601D01*
X138158895Y-69979500D01*
X138162644Y-69979500D01*
X138237356Y-69979500D01*
X138241105Y-69979500D01*
X138363809Y-69964601D01*
X138518099Y-69906087D01*
X138653901Y-69812349D01*
X138763325Y-69688835D01*
X138840010Y-69542724D01*
X138879500Y-69382506D01*
X138879500Y-69217494D01*
X138840010Y-69057276D01*
X138763325Y-68911165D01*
X138653901Y-68787651D01*
X138653900Y-68787650D01*
X138653899Y-68787649D01*
X138518099Y-68693912D01*
X138363809Y-68635399D01*
X138244825Y-68620951D01*
X138244813Y-68620950D01*
X138241105Y-68620500D01*
X138158895Y-68620500D01*
X138155187Y-68620950D01*
X138155174Y-68620951D01*
X138036190Y-68635399D01*
X137881900Y-68693912D01*
X137746100Y-68787649D01*
X137636673Y-68911167D01*
X137559990Y-69057274D01*
X137520500Y-69217494D01*
X137520500Y-69382505D01*
X137043502Y-69382505D01*
X137048568Y-67563812D01*
X137068440Y-67496830D01*
X137084883Y-67476483D01*
X137090477Y-67470890D01*
X137180456Y-67327690D01*
X137236313Y-67168059D01*
X137237207Y-67160118D01*
X137264274Y-67095703D01*
X137321868Y-67056148D01*
X137360428Y-67050000D01*
X139775500Y-67050000D01*
X139842539Y-67069685D01*
G37*
%TD.AperFunction*%
%TD*%
M02*
