M48
; DRILL file {KiCad 7.0.2} date Tue Oct 17 17:42:49 2023
; FORMAT={-:-/ absolute / metric / decimal}
; #@! TF.CreationDate,2023-10-17T17:42:49-05:00
; #@! TF.GenerationSoftware,Kicad,Pcbnew,7.0.2
; #@! TF.FileFunction,Plated,1,4,PTH
FMAT,2
METRIC
; #@! TA.AperFunction,Plated,PTH,ViaDrill
T1C0.300
; #@! TA.AperFunction,Plated,PTH,ComponentDrill
T2C0.600
; #@! TA.AperFunction,Plated,PTH,ComponentDrill
T3C0.850
; #@! TA.AperFunction,Plated,PTH,ComponentDrill
T4C1.000
; #@! TA.AperFunction,Plated,PTH,ComponentDrill
T5C1.600
%
G90
G05
T1
X102.5Y-50.962
X104.5Y-81.938
X104.5Y-84.062
X104.505Y-41.562
X105.2Y-45.462
X105.746Y-48.539
X105.775Y-50.962
X106.5Y-82.0
X107.0Y-49.562
X107.2Y-45.575
X108.315Y-41.562
X109.5Y-82.0
X109.999Y-46.533
X110.0Y-45.462
X110.0Y-69.2
X110.003Y-52.418
X110.45Y-71.6
X111.5Y-84.55
X112.2Y-55.586
X112.2Y-58.386
X112.2Y-60.986
X112.2Y-63.786
X112.2Y-66.386
X112.35Y-72.75
X112.75Y-47.162
X113.149Y-52.425
X113.395Y-41.562
X113.5Y-85.5
X114.5Y-45.462
X114.65Y-47.162
X114.665Y-50.962
X115.524Y-59.0
X115.543Y-59.981
X116.168Y-58.031
X116.3Y-68.45
X116.35Y-73.9
X116.4Y-60.5
X116.5Y-71.5
X116.55Y-63.77
X117.587Y-57.3
X118.5Y-73.85
X119.05Y-63.0
X119.087Y-59.0
X119.087Y-61.0
X119.25Y-57.85
X119.5Y-76.6
X119.5Y-78.5
X120.3Y-57.8
X120.9Y-63.0
X120.912Y-59.0
X121.5Y-80.5
X122.2Y-57.7
X122.5Y-59.0
X123.3Y-57.7
X123.95Y-60.15
X123.969Y-69.0
X124.0Y-61.2
X124.4Y-59.0
X125.5Y-73.4
X126.337Y-70.062
X127.0Y-50.0
X127.0Y-59.5
X127.449Y-58.8
X127.8Y-47.8
X128.0Y-50.0
X128.4Y-58.05
X128.4Y-66.05
X128.5Y-59.0
X128.588Y-62.0
X128.588Y-64.0
X129.131Y-59.819
X129.8Y-67.0
X129.955Y-67.945
X130.412Y-62.0
X131.0Y-45.252
X131.0Y-55.912
X131.1Y-58.08
X131.105Y-59.95
X131.105Y-67.95
X131.438Y-48.75
X131.65Y-45.837
X132.0Y-70.425
X132.0Y-76.5
X132.0Y-78.325
X132.123Y-66.702
X132.3Y-44.678
X132.5Y-71.825
X133.0Y-55.9
X133.062Y-47.139
X134.5Y-80.5
X135.0Y-54.087
X135.504Y-65.192
X135.89Y-51.45
X136.0Y-48.7
X136.5Y-66.8
X136.5Y-74.0
X136.8Y-68.4
X137.0Y-54.1
X137.0Y-64.374
X137.0Y-76.6
X137.0Y-78.5
X137.5Y-66.0
X137.5Y-67.6
X138.429Y-65.2
X138.8Y-61.2
X138.8Y-62.0
X138.8Y-62.8
X138.8Y-63.6
X138.8Y-64.4
T3
X105.38Y-88.5
X107.92Y-88.5
X110.46Y-88.5
X113.0Y-88.5
X128.5Y-44.962
X133.5Y-44.962
T4
X103.0Y-56.0
X103.0Y-59.0
X103.0Y-62.0
X103.0Y-70.0
X103.0Y-73.0
X103.0Y-76.0
X106.0Y-56.0
X106.0Y-59.0
X106.0Y-62.0
X106.0Y-70.0
X106.0Y-73.0
X106.0Y-76.0
X118.95Y-53.35
X118.96Y-49.5
X121.49Y-53.35
X121.5Y-49.5
X124.03Y-53.35
X126.57Y-53.35
T5
X126.5Y-87.5
X130.0Y-84.5
X133.5Y-87.5
X137.0Y-84.5
T2
G00X127.5Y-42.612
M15
G01X127.5Y-41.913
M16
G05
G00X134.5Y-41.913
M15
G01X134.5Y-42.612
M16
G05
T0
M30
