%TF.GenerationSoftware,KiCad,Pcbnew,7.0.2*%
%TF.CreationDate,2023-10-17T17:42:58-05:00*%
%TF.ProjectId,BPS-PeripheralSOM,4250532d-5065-4726-9970-686572616c53,rev?*%
%TF.SameCoordinates,Original*%
%TF.FileFunction,Copper,L3,Inr*%
%TF.FilePolarity,Positive*%
%FSLAX46Y46*%
G04 Gerber Fmt 4.6, Leading zero omitted, Abs format (unit mm)*
G04 Created by KiCad (PCBNEW 7.0.2) date 2023-10-17 17:42:58*
%MOMM*%
%LPD*%
G01*
G04 APERTURE LIST*
G04 Aperture macros list*
%AMRoundRect*
0 Rectangle with rounded corners*
0 $1 Rounding radius*
0 $2 $3 $4 $5 $6 $7 $8 $9 X,Y pos of 4 corners*
0 Add a 4 corners polygon primitive as box body*
4,1,4,$2,$3,$4,$5,$6,$7,$8,$9,$2,$3,0*
0 Add four circle primitives for the rounded corners*
1,1,$1+$1,$2,$3*
1,1,$1+$1,$4,$5*
1,1,$1+$1,$6,$7*
1,1,$1+$1,$8,$9*
0 Add four rect primitives between the rounded corners*
20,1,$1+$1,$2,$3,$4,$5,0*
20,1,$1+$1,$4,$5,$6,$7,0*
20,1,$1+$1,$6,$7,$8,$9,0*
20,1,$1+$1,$8,$9,$2,$3,0*%
G04 Aperture macros list end*
%TA.AperFunction,ComponentPad*%
%ADD10C,2.800000*%
%TD*%
%TA.AperFunction,ComponentPad*%
%ADD11R,1.700000X1.700000*%
%TD*%
%TA.AperFunction,ComponentPad*%
%ADD12O,1.700000X1.700000*%
%TD*%
%TA.AperFunction,ComponentPad*%
%ADD13RoundRect,0.250001X0.499999X-0.499999X0.499999X0.499999X-0.499999X0.499999X-0.499999X-0.499999X0*%
%TD*%
%TA.AperFunction,ComponentPad*%
%ADD14C,1.500000*%
%TD*%
%TA.AperFunction,ComponentPad*%
%ADD15O,1.000000X1.800000*%
%TD*%
%TA.AperFunction,ComponentPad*%
%ADD16O,1.200000X1.900000*%
%TD*%
%TA.AperFunction,ComponentPad*%
%ADD17C,1.450000*%
%TD*%
%TA.AperFunction,ViaPad*%
%ADD18C,0.500000*%
%TD*%
%TA.AperFunction,Conductor*%
%ADD19C,0.250000*%
%TD*%
%TA.AperFunction,Conductor*%
%ADD20C,0.500000*%
%TD*%
G04 APERTURE END LIST*
D10*
%TO.N,GNDPWR*%
%TO.C,TP4*%
X137000000Y-84500000D03*
%TD*%
D11*
%TO.N,+3.3V*%
%TO.C,J1*%
X118950000Y-53350000D03*
D12*
%TO.N,/SWCLK*%
X121490000Y-53350000D03*
%TO.N,/SWDIO*%
X124030000Y-53350000D03*
%TO.N,GND*%
X126570000Y-53350000D03*
%TD*%
D11*
%TO.N,/CAN_L*%
%TO.C,JP1*%
X121500000Y-49500000D03*
D12*
%TO.N,/CAN/TERM_H*%
X118960000Y-49500000D03*
%TD*%
D10*
%TO.N,GND*%
%TO.C,TP6*%
X130000000Y-84500000D03*
%TD*%
D13*
%TO.N,GNDPWR*%
%TO.C,J2*%
X103000000Y-62000000D03*
D14*
%TO.N,/CAN_L*%
X103000000Y-59000000D03*
%TO.N,GND1*%
X103000000Y-56000000D03*
%TO.N,/V_CAN_IN*%
X106000000Y-62000000D03*
%TO.N,/CAN_H*%
X106000000Y-59000000D03*
%TO.N,/5V_Ext*%
X106000000Y-56000000D03*
%TD*%
D15*
%TO.N,GNDPWR*%
%TO.C,U2*%
X105380000Y-88500000D03*
%TO.N,Net-(Q1-D)*%
X107920000Y-88500000D03*
%TO.N,GND*%
X110460000Y-88500000D03*
%TO.N,+5V*%
X113000000Y-88500000D03*
%TD*%
D16*
%TO.N,GND*%
%TO.C,J3*%
X134500000Y-42262500D03*
D17*
X133500000Y-44962500D03*
X128500000Y-44962500D03*
D16*
X127500000Y-42262500D03*
%TD*%
D10*
%TO.N,+5V*%
%TO.C,TP5*%
X126500000Y-87500000D03*
%TD*%
%TO.N,Net-(Q1-D)*%
%TO.C,TP3*%
X133500000Y-87500000D03*
%TD*%
D13*
%TO.N,GNDPWR*%
%TO.C,J5*%
X103000000Y-76000000D03*
D14*
%TO.N,/CAN_L*%
X103000000Y-73000000D03*
%TO.N,GND1*%
X103000000Y-70000000D03*
%TO.N,/V_CAN_IN*%
X106000000Y-76000000D03*
%TO.N,/CAN_H*%
X106000000Y-73000000D03*
%TO.N,/5V_Ext*%
X106000000Y-70000000D03*
%TD*%
D18*
%TO.N,+5V*%
X105775000Y-50962500D03*
X110000000Y-69200000D03*
%TO.N,GND*%
X129800000Y-67000000D03*
X135503987Y-65192160D03*
X114665000Y-50962500D03*
X134500000Y-80500000D03*
X135890000Y-51450000D03*
X131437500Y-48750000D03*
X119050000Y-63000000D03*
X136500000Y-74000000D03*
X137000000Y-78500000D03*
X112350000Y-72750000D03*
X128500000Y-59000000D03*
X119500000Y-78500000D03*
X124400000Y-59000000D03*
X138800000Y-62000000D03*
X118500000Y-73850000D03*
X119250000Y-57850500D03*
X121500000Y-80500000D03*
X102500000Y-50962500D03*
%TO.N,+3.3V*%
X110450000Y-71600000D03*
X120900000Y-63000000D03*
X133062035Y-47138988D03*
X138800000Y-61200000D03*
X116300000Y-68450000D03*
X137000000Y-64374500D03*
X131000000Y-55912500D03*
X136000000Y-48700000D03*
X122500000Y-59000000D03*
X116550500Y-63769712D03*
X123968518Y-69000000D03*
X120912500Y-59000000D03*
X107000000Y-49562500D03*
X116350000Y-73900000D03*
X116500000Y-71500000D03*
%TO.N,/NRST*%
X119500000Y-76600000D03*
%TO.N,GNDPWR*%
X109500000Y-82000000D03*
%TO.N,/PB4*%
X115543483Y-59981017D03*
%TO.N,/PB5*%
X116400500Y-60500000D03*
%TO.N,/SPI2_MOSI*%
X128400000Y-58049999D03*
X123300000Y-57700000D03*
%TO.N,/SPI2_NSS*%
X129131233Y-59818767D03*
%TO.N,/SPI2_SCK*%
X131105100Y-59950001D03*
%TO.N,/SPI2_MISO*%
X131100026Y-58079573D03*
%TO.N,/SPI1_SCK*%
X128400000Y-66049999D03*
%TO.N,/SPI1_NSS*%
X129954641Y-67945359D03*
%TO.N,/SPI1_MOSI*%
X131105100Y-67950001D03*
X130412500Y-62000000D03*
%TO.N,/SPI1_MISO*%
X132122872Y-66701627D03*
%TO.N,/5V_Ext*%
X104500000Y-81937500D03*
%TO.N,/PA1*%
X136800000Y-68400000D03*
%TO.N,Net-(D2-A)*%
X112200000Y-66386100D03*
%TO.N,/PB3*%
X115524500Y-59000000D03*
%TO.N,/SWCLK*%
X117587500Y-57300000D03*
%TO.N,/SWDIO*%
X120300000Y-57800000D03*
%TO.N,/I2C1_SCL*%
X119087500Y-59000000D03*
X137500000Y-66000000D03*
%TO.N,/I2C1_SDA*%
X136500000Y-66800000D03*
X119087500Y-61000000D03*
%TO.N,/I2C2_SCL*%
X138800000Y-63600000D03*
X127000000Y-59500000D03*
%TO.N,/CAN/RSlope*%
X113395000Y-41562500D03*
%TO.N,Net-(U1-PA5)*%
X128587500Y-64000000D03*
%TO.N,Net-(U1-PA7)*%
X128587500Y-62000000D03*
%TO.N,/USART1_TX*%
X128000000Y-50000000D03*
%TO.N,/USART1_RX*%
X127000000Y-50000000D03*
%TO.N,/SILENT*%
X110003246Y-52418246D03*
X113149431Y-52425500D03*
%TO.N,GNDA*%
X132000000Y-70425500D03*
X138429500Y-65200000D03*
X125500000Y-73400000D03*
%TO.N,VDDA*%
X126337500Y-70062500D03*
X138800000Y-64400000D03*
%TO.N,/PowerDist/5V_Ferrite*%
X104500000Y-84062500D03*
X106500000Y-82000000D03*
X111500000Y-84550000D03*
%TO.N,/V_CAN_IN*%
X108315000Y-41562500D03*
X107200000Y-45575000D03*
%TO.N,GND1*%
X110000000Y-45462500D03*
X114500000Y-45462500D03*
%TO.N,/CAN/V_ISO_Out*%
X104505000Y-41562500D03*
%TO.N,/CAN/GND_ISO_Out*%
X105746375Y-48538876D03*
X105200000Y-45462500D03*
%TO.N,/CAN_H*%
X112750000Y-47162500D03*
X109998882Y-46533203D03*
%TO.N,/CAN_L*%
X114650000Y-47162500D03*
%TO.N,/PA15*%
X116168500Y-58031500D03*
%TO.N,/PB1*%
X132000000Y-78325000D03*
X124000000Y-61200000D03*
%TO.N,/I2C2_PU_EN*%
X122200000Y-57700000D03*
%TO.N,/PA2*%
X137500000Y-67600000D03*
%TO.N,Net-(J3-VBUS)*%
X132300000Y-44677575D03*
%TO.N,Net-(J3-D-)*%
X127800000Y-47800000D03*
X131650000Y-45837500D03*
%TO.N,Net-(J3-D+)*%
X131000000Y-45252075D03*
%TO.N,Net-(D14-A)*%
X112200000Y-58386100D03*
%TO.N,Net-(D13-A)*%
X112200000Y-60986100D03*
%TO.N,Net-(D12-A)*%
X112200000Y-63786100D03*
%TO.N,Net-(C5-Pad1)*%
X132000000Y-76500000D03*
X137000000Y-76600000D03*
%TO.N,Net-(D4-A)*%
X112200000Y-55586100D03*
%TO.N,Net-(Q1-D)*%
X113500000Y-85500000D03*
%TO.N,/PB2*%
X132500000Y-71825000D03*
X123950000Y-60150000D03*
%TO.N,Net-(IC1-1GATE)*%
X133000000Y-55900000D03*
%TO.N,/I2C2_SDA*%
X127448848Y-58800497D03*
X138800000Y-62800000D03*
%TO.N,Net-(IC1-2DRAIN_1)*%
X137000000Y-54100000D03*
%TO.N,Net-(IC1-1DRAIN_1)*%
X135000000Y-54087500D03*
%TD*%
D19*
%TO.N,+5V*%
X113000000Y-88500000D02*
X125500000Y-88500000D01*
X125500000Y-88500000D02*
X126500000Y-87500000D01*
D20*
%TO.N,/SWCLK*%
X118400000Y-54650000D02*
X117587500Y-55462500D01*
X120190000Y-54650000D02*
X118400000Y-54650000D01*
X121490000Y-53350000D02*
X120190000Y-54650000D01*
X117587500Y-55462500D02*
X117587500Y-57300000D01*
%TO.N,/SWDIO*%
X120300000Y-57800000D02*
X120300000Y-57080000D01*
X120300000Y-57080000D02*
X124030000Y-53350000D01*
D19*
%TO.N,/I2C1_SCL*%
X125242329Y-64617194D02*
X120200135Y-59575000D01*
X120200135Y-59575000D02*
X119662500Y-59575000D01*
X119662500Y-59575000D02*
X119087500Y-59000000D01*
X137500000Y-66000000D02*
X136117194Y-64617194D01*
X136117194Y-64617194D02*
X125242329Y-64617194D01*
%TO.N,/I2C1_SDA*%
X125438739Y-65450000D02*
X120988739Y-61000000D01*
X134400000Y-65450000D02*
X125438739Y-65450000D01*
X135750000Y-66800000D02*
X134400000Y-65450000D01*
X120988739Y-61000000D02*
X119087500Y-61000000D01*
X136500000Y-66800000D02*
X135750000Y-66800000D01*
%TO.N,/I2C2_SCL*%
X136150000Y-61425000D02*
X138325000Y-63600000D01*
X128925000Y-61425000D02*
X136150000Y-61425000D01*
X127000000Y-59500000D02*
X128925000Y-61425000D01*
X138325000Y-63600000D02*
X138800000Y-63600000D01*
D20*
%TO.N,GNDA*%
X135764450Y-70425500D02*
X132000000Y-70425500D01*
X137500000Y-68686196D02*
X137500000Y-68689950D01*
X138429500Y-67756696D02*
X137500000Y-68686196D01*
X137500000Y-68689950D02*
X135764450Y-70425500D01*
X138429500Y-65200000D02*
X138429500Y-67756696D01*
%TO.N,VDDA*%
X139129500Y-69870500D02*
X137874500Y-71125500D01*
X137874500Y-71125500D02*
X127400500Y-71125500D01*
X139129500Y-64729500D02*
X139129500Y-69870500D01*
X127400500Y-71125500D02*
X126337500Y-70062500D01*
X138800000Y-64400000D02*
X139129500Y-64729500D01*
D19*
%TO.N,/I2C2_SDA*%
X129474293Y-60975000D02*
X136961827Y-60975000D01*
X136961827Y-60975000D02*
X138786827Y-62800000D01*
X138786827Y-62800000D02*
X138800000Y-62800000D01*
X127448848Y-58949555D02*
X129474293Y-60975000D01*
X127448848Y-58800497D02*
X127448848Y-58949555D01*
%TD*%
%TA.AperFunction,Conductor*%
%TO.N,+3.3V*%
G36*
X136002855Y-40100632D02*
G01*
X136354083Y-40116870D01*
X136365473Y-40117926D01*
X136710864Y-40166105D01*
X136722107Y-40168207D01*
X137061578Y-40248050D01*
X137072568Y-40251177D01*
X137403244Y-40362009D01*
X137413898Y-40366137D01*
X137732922Y-40506999D01*
X137743149Y-40512091D01*
X137925184Y-40613484D01*
X138047809Y-40681786D01*
X138057547Y-40687815D01*
X138345249Y-40884895D01*
X138354386Y-40891796D01*
X138555804Y-41059051D01*
X138622665Y-41114572D01*
X138631129Y-41122288D01*
X138877711Y-41368870D01*
X138885427Y-41377334D01*
X139108201Y-41645610D01*
X139115104Y-41654750D01*
X139312184Y-41942452D01*
X139318213Y-41952190D01*
X139343188Y-41997028D01*
X139481682Y-42245673D01*
X139487901Y-42256837D01*
X139493006Y-42267090D01*
X139633857Y-42586088D01*
X139637995Y-42596768D01*
X139748818Y-42927418D01*
X139751952Y-42938434D01*
X139831790Y-43277884D01*
X139833895Y-43289143D01*
X139882072Y-43634519D01*
X139883129Y-43645923D01*
X139899368Y-43997143D01*
X139899500Y-44002870D01*
X139899500Y-64300338D01*
X139879815Y-64367377D01*
X139827011Y-64413132D01*
X139757853Y-64423076D01*
X139694297Y-64394051D01*
X139668768Y-64363460D01*
X139647581Y-64327635D01*
X139645329Y-64325383D01*
X139632568Y-64312622D01*
X139619935Y-64297830D01*
X139618300Y-64295580D01*
X139607463Y-64280663D01*
X139572279Y-64251556D01*
X139563640Y-64243694D01*
X139389688Y-64069742D01*
X139356203Y-64008419D01*
X139361187Y-63938727D01*
X139375317Y-63911624D01*
X139380220Y-63904523D01*
X139436237Y-63756818D01*
X139455278Y-63600000D01*
X139436237Y-63443182D01*
X139380220Y-63295477D01*
X139362937Y-63270438D01*
X139341055Y-63204086D01*
X139358520Y-63136435D01*
X139362925Y-63129577D01*
X139380220Y-63104523D01*
X139436237Y-62956818D01*
X139455278Y-62800000D01*
X139436237Y-62643182D01*
X139380220Y-62495477D01*
X139362937Y-62470438D01*
X139341055Y-62404086D01*
X139358520Y-62336435D01*
X139362925Y-62329577D01*
X139380220Y-62304523D01*
X139436237Y-62156818D01*
X139455278Y-62000000D01*
X139454716Y-61995375D01*
X139449974Y-61956319D01*
X139436237Y-61843182D01*
X139380220Y-61695477D01*
X139313486Y-61598796D01*
X139290484Y-61565471D01*
X139269624Y-61546991D01*
X139172240Y-61460717D01*
X139158994Y-61453764D01*
X139032364Y-61387303D01*
X138878985Y-61349500D01*
X138721015Y-61349500D01*
X138567635Y-61387303D01*
X138427760Y-61460717D01*
X138389435Y-61494669D01*
X138326201Y-61524388D01*
X138256937Y-61515203D01*
X138219529Y-61489532D01*
X137894360Y-61164363D01*
X137860875Y-61103040D01*
X137865859Y-61033348D01*
X137907731Y-60977415D01*
X137973195Y-60952998D01*
X138026012Y-60960740D01*
X138036191Y-60964601D01*
X138158895Y-60979500D01*
X138162644Y-60979500D01*
X138237356Y-60979500D01*
X138241105Y-60979500D01*
X138363809Y-60964601D01*
X138518099Y-60906087D01*
X138653901Y-60812349D01*
X138763325Y-60688835D01*
X138840010Y-60542724D01*
X138879500Y-60382506D01*
X138879500Y-60217494D01*
X138840010Y-60057276D01*
X138763325Y-59911165D01*
X138653901Y-59787651D01*
X138653900Y-59787650D01*
X138653899Y-59787649D01*
X138518099Y-59693912D01*
X138363809Y-59635399D01*
X138244825Y-59620951D01*
X138244813Y-59620950D01*
X138241105Y-59620500D01*
X138158895Y-59620500D01*
X138155187Y-59620950D01*
X138155174Y-59620951D01*
X138036190Y-59635399D01*
X137881900Y-59693912D01*
X137746100Y-59787649D01*
X137636673Y-59911167D01*
X137559990Y-60057274D01*
X137520500Y-60217494D01*
X137520500Y-60382506D01*
X137547462Y-60491900D01*
X137544392Y-60561702D01*
X137504072Y-60618764D01*
X137439303Y-60644969D01*
X137370648Y-60631996D01*
X137336441Y-60606210D01*
X137329071Y-60598319D01*
X137296582Y-60563531D01*
X137296581Y-60563530D01*
X137296580Y-60563529D01*
X137263315Y-60543300D01*
X137252819Y-60536157D01*
X137221802Y-60512636D01*
X137221800Y-60512635D01*
X137206315Y-60506528D01*
X137187383Y-60497125D01*
X137173154Y-60488473D01*
X137135670Y-60477970D01*
X137123637Y-60473924D01*
X137087413Y-60459639D01*
X137070848Y-60457936D01*
X137050082Y-60453990D01*
X137034055Y-60449500D01*
X136995123Y-60449500D01*
X136982443Y-60448850D01*
X136978858Y-60448481D01*
X136943717Y-60444868D01*
X136928669Y-60447463D01*
X136927313Y-60447697D01*
X136906246Y-60449500D01*
X131787000Y-60449500D01*
X131719961Y-60429815D01*
X131674206Y-60377011D01*
X131664262Y-60307853D01*
X131684951Y-60255059D01*
X131685032Y-60254941D01*
X131685320Y-60254524D01*
X131741337Y-60106819D01*
X131760378Y-59950001D01*
X131741337Y-59793183D01*
X131685320Y-59645478D01*
X131631720Y-59567825D01*
X131595584Y-59515472D01*
X131578316Y-59500174D01*
X131477340Y-59410718D01*
X131426887Y-59384238D01*
X131337464Y-59337304D01*
X131184085Y-59299501D01*
X131026115Y-59299501D01*
X130872735Y-59337304D01*
X130732861Y-59410717D01*
X130614615Y-59515472D01*
X130524880Y-59645477D01*
X130468863Y-59793182D01*
X130449821Y-59950000D01*
X130468863Y-60106819D01*
X130524880Y-60254524D01*
X130525249Y-60255059D01*
X130526357Y-60258419D01*
X130530219Y-60268602D01*
X130529771Y-60268771D01*
X130547133Y-60321414D01*
X130529668Y-60389065D01*
X130478401Y-60436536D01*
X130423200Y-60449500D01*
X129743325Y-60449500D01*
X129676286Y-60429815D01*
X129655644Y-60413181D01*
X129643352Y-60400889D01*
X129609867Y-60339566D01*
X129614851Y-60269874D01*
X129628981Y-60242771D01*
X129711453Y-60123290D01*
X129767470Y-59975585D01*
X129786511Y-59818767D01*
X129767470Y-59661949D01*
X129711453Y-59514244D01*
X129641702Y-59413192D01*
X129621717Y-59384238D01*
X129575374Y-59343182D01*
X129503473Y-59279484D01*
X129373508Y-59211272D01*
X129363597Y-59206070D01*
X129243699Y-59176519D01*
X129183319Y-59141363D01*
X129151530Y-59079144D01*
X129150278Y-59041177D01*
X129155278Y-59000000D01*
X129136237Y-58843182D01*
X129080220Y-58695477D01*
X128990483Y-58565470D01*
X128975985Y-58552626D01*
X128938860Y-58493437D01*
X128939628Y-58423572D01*
X128956165Y-58389371D01*
X128957592Y-58387304D01*
X128980220Y-58354522D01*
X129036237Y-58206817D01*
X129051687Y-58079573D01*
X130444747Y-58079573D01*
X130463789Y-58236391D01*
X130519806Y-58384096D01*
X130609541Y-58514101D01*
X130609542Y-58514102D01*
X130609543Y-58514103D01*
X130727786Y-58618856D01*
X130867661Y-58692269D01*
X131021041Y-58730073D01*
X131179011Y-58730073D01*
X131332391Y-58692269D01*
X131472266Y-58618856D01*
X131590509Y-58514103D01*
X131680246Y-58384096D01*
X131736263Y-58236391D01*
X131755304Y-58079573D01*
X131736263Y-57922755D01*
X131680246Y-57775050D01*
X131624081Y-57693681D01*
X131590510Y-57645044D01*
X131587459Y-57642341D01*
X131472266Y-57540290D01*
X131415918Y-57510716D01*
X131332390Y-57466876D01*
X131179011Y-57429073D01*
X131021041Y-57429073D01*
X130867661Y-57466876D01*
X130727787Y-57540289D01*
X130609541Y-57645044D01*
X130519806Y-57775049D01*
X130463789Y-57922754D01*
X130444747Y-58079573D01*
X129051687Y-58079573D01*
X129055278Y-58049999D01*
X129036237Y-57893181D01*
X128980220Y-57745476D01*
X128910897Y-57645044D01*
X128890484Y-57615470D01*
X128869603Y-57596971D01*
X128772240Y-57510716D01*
X128688711Y-57466876D01*
X128632364Y-57437302D01*
X128478985Y-57399499D01*
X128321015Y-57399499D01*
X128167635Y-57437302D01*
X128027761Y-57510715D01*
X127909515Y-57615470D01*
X127819780Y-57745475D01*
X127763763Y-57893180D01*
X127743501Y-58060049D01*
X127715879Y-58124227D01*
X127657945Y-58163283D01*
X127590731Y-58165499D01*
X127527834Y-58149997D01*
X127527833Y-58149997D01*
X127369863Y-58149997D01*
X127216483Y-58187800D01*
X127076609Y-58261213D01*
X126958363Y-58365968D01*
X126868628Y-58495973D01*
X126812611Y-58643678D01*
X126791921Y-58814069D01*
X126764299Y-58878247D01*
X126726452Y-58908918D01*
X126627761Y-58960716D01*
X126509515Y-59065471D01*
X126419780Y-59195476D01*
X126363763Y-59343181D01*
X126344721Y-59500000D01*
X126363763Y-59656818D01*
X126419780Y-59804523D01*
X126509515Y-59934528D01*
X126509516Y-59934529D01*
X126509517Y-59934530D01*
X126627760Y-60039283D01*
X126767635Y-60112696D01*
X126869288Y-60137750D01*
X126927296Y-60170466D01*
X127527914Y-60771084D01*
X128123327Y-61366496D01*
X128156812Y-61427819D01*
X128151828Y-61497511D01*
X128117875Y-61546991D01*
X128097017Y-61565470D01*
X128007280Y-61695476D01*
X127951263Y-61843181D01*
X127932221Y-61999999D01*
X127951263Y-62156818D01*
X128007280Y-62304523D01*
X128097015Y-62434528D01*
X128097016Y-62434529D01*
X128097017Y-62434530D01*
X128215260Y-62539283D01*
X128355135Y-62612696D01*
X128508515Y-62650500D01*
X128666485Y-62650500D01*
X128819865Y-62612696D01*
X128959740Y-62539283D01*
X129077983Y-62434530D01*
X129167720Y-62304523D01*
X129223737Y-62156818D01*
X129235547Y-62059552D01*
X129263169Y-61995375D01*
X129321103Y-61956319D01*
X129358643Y-61950500D01*
X129641357Y-61950500D01*
X129708396Y-61970185D01*
X129754151Y-62022989D01*
X129764453Y-62059553D01*
X129776263Y-62156818D01*
X129832280Y-62304523D01*
X129922015Y-62434528D01*
X129922016Y-62434529D01*
X129922017Y-62434530D01*
X130040260Y-62539283D01*
X130180135Y-62612696D01*
X130333515Y-62650500D01*
X130491485Y-62650500D01*
X130644865Y-62612696D01*
X130784740Y-62539283D01*
X130902983Y-62434530D01*
X130992720Y-62304523D01*
X131048737Y-62156818D01*
X131060547Y-62059552D01*
X131088169Y-61995375D01*
X131146103Y-61956319D01*
X131183643Y-61950500D01*
X135880968Y-61950500D01*
X135948007Y-61970185D01*
X135968649Y-61986819D01*
X137945544Y-63963713D01*
X137948486Y-63966757D01*
X137990243Y-64011467D01*
X137990245Y-64011469D01*
X138023507Y-64031695D01*
X138033998Y-64038836D01*
X138055809Y-64055375D01*
X138065025Y-64062364D01*
X138080512Y-64068471D01*
X138099447Y-64077875D01*
X138113672Y-64086526D01*
X138113673Y-64086526D01*
X138114595Y-64087087D01*
X138161645Y-64138741D01*
X138173301Y-64207631D01*
X138166107Y-64236999D01*
X138163763Y-64243179D01*
X138158869Y-64283481D01*
X138156787Y-64295580D01*
X138147239Y-64338295D01*
X138147965Y-64361389D01*
X138147122Y-64380226D01*
X138144721Y-64399998D01*
X138150067Y-64444021D01*
X138150910Y-64455072D01*
X138152895Y-64518225D01*
X138151358Y-64518273D01*
X138151212Y-64569033D01*
X138113269Y-64627702D01*
X138089965Y-64643551D01*
X138057258Y-64660717D01*
X138044460Y-64672055D01*
X138028686Y-64683928D01*
X138011560Y-64694797D01*
X137979666Y-64728759D01*
X137971506Y-64736686D01*
X137939015Y-64765470D01*
X137927166Y-64782638D01*
X137915511Y-64797079D01*
X137899051Y-64814607D01*
X137878417Y-64852138D01*
X137871810Y-64862833D01*
X137849280Y-64895475D01*
X137840546Y-64918504D01*
X137833269Y-64934263D01*
X137819872Y-64958632D01*
X137810150Y-64996494D01*
X137805991Y-65009618D01*
X137793261Y-65043185D01*
X137789840Y-65071360D01*
X137786850Y-65087243D01*
X137779000Y-65117820D01*
X137779000Y-65153147D01*
X137778096Y-65168094D01*
X137774221Y-65200002D01*
X137776660Y-65220089D01*
X137765198Y-65289012D01*
X137718293Y-65340797D01*
X137650837Y-65359003D01*
X137584247Y-65337849D01*
X137565883Y-65322714D01*
X136496635Y-64253466D01*
X136493692Y-64250421D01*
X136451947Y-64205723D01*
X136418682Y-64185494D01*
X136408186Y-64178351D01*
X136377169Y-64154830D01*
X136377167Y-64154829D01*
X136361682Y-64148722D01*
X136342750Y-64139319D01*
X136328521Y-64130667D01*
X136291037Y-64120164D01*
X136279004Y-64116118D01*
X136242780Y-64101833D01*
X136226215Y-64100130D01*
X136205449Y-64096184D01*
X136189422Y-64091694D01*
X136150490Y-64091694D01*
X136137810Y-64091044D01*
X136133715Y-64090623D01*
X136099084Y-64087062D01*
X136084036Y-64089657D01*
X136082680Y-64089891D01*
X136061613Y-64091694D01*
X129363766Y-64091694D01*
X129296727Y-64072009D01*
X129250972Y-64019205D01*
X129240670Y-63982640D01*
X129223737Y-63843182D01*
X129167720Y-63695477D01*
X129077983Y-63565470D01*
X128959740Y-63460717D01*
X128926330Y-63443182D01*
X128819864Y-63387303D01*
X128666485Y-63349500D01*
X128508515Y-63349500D01*
X128355135Y-63387303D01*
X128215261Y-63460716D01*
X128097015Y-63565471D01*
X128007280Y-63695476D01*
X127967640Y-63800000D01*
X127951263Y-63843182D01*
X127936259Y-63966757D01*
X127934330Y-63982640D01*
X127906708Y-64046818D01*
X127848774Y-64085875D01*
X127811234Y-64091694D01*
X125511360Y-64091694D01*
X125444321Y-64072009D01*
X125423679Y-64055375D01*
X121518304Y-60150000D01*
X123294721Y-60150000D01*
X123313763Y-60306818D01*
X123369780Y-60454523D01*
X123459517Y-60584531D01*
X123485817Y-60607830D01*
X123522944Y-60667019D01*
X123522176Y-60736884D01*
X123505641Y-60771084D01*
X123419779Y-60895477D01*
X123363763Y-61043181D01*
X123344721Y-61200000D01*
X123363763Y-61356818D01*
X123419780Y-61504523D01*
X123509515Y-61634528D01*
X123509516Y-61634529D01*
X123509517Y-61634530D01*
X123627760Y-61739283D01*
X123767635Y-61812696D01*
X123921015Y-61850500D01*
X124078985Y-61850500D01*
X124232365Y-61812696D01*
X124372240Y-61739283D01*
X124490483Y-61634530D01*
X124580220Y-61504523D01*
X124636237Y-61356818D01*
X124655278Y-61200000D01*
X124636237Y-61043182D01*
X124580220Y-60895477D01*
X124490483Y-60765470D01*
X124490482Y-60765468D01*
X124464182Y-60742169D01*
X124427055Y-60682980D01*
X124427823Y-60613114D01*
X124444359Y-60578914D01*
X124454978Y-60563531D01*
X124530220Y-60454523D01*
X124586237Y-60306818D01*
X124605278Y-60150000D01*
X124586237Y-59993182D01*
X124530220Y-59845477D01*
X124513493Y-59821243D01*
X124509806Y-59815902D01*
X124487923Y-59749547D01*
X124505388Y-59681896D01*
X124556656Y-59634426D01*
X124582182Y-59625065D01*
X124607691Y-59618777D01*
X124632365Y-59612696D01*
X124772240Y-59539283D01*
X124890483Y-59434530D01*
X124980220Y-59304523D01*
X125036237Y-59156818D01*
X125055278Y-59000000D01*
X125036237Y-58843182D01*
X124980220Y-58695477D01*
X124927333Y-58618856D01*
X124890484Y-58565471D01*
X124875986Y-58552627D01*
X124772240Y-58460717D01*
X124726143Y-58436523D01*
X124632364Y-58387303D01*
X124478985Y-58349500D01*
X124321015Y-58349500D01*
X124167635Y-58387303D01*
X124027761Y-58460716D01*
X123909515Y-58565471D01*
X123819780Y-58695476D01*
X123763763Y-58843181D01*
X123744721Y-59000000D01*
X123763763Y-59156818D01*
X123819780Y-59304525D01*
X123840193Y-59334098D01*
X123862076Y-59400452D01*
X123844610Y-59468104D01*
X123793342Y-59515573D01*
X123767819Y-59524933D01*
X123717638Y-59537301D01*
X123577761Y-59610716D01*
X123459515Y-59715471D01*
X123369780Y-59845476D01*
X123313763Y-59993181D01*
X123294721Y-60150000D01*
X121518304Y-60150000D01*
X120579576Y-59211272D01*
X120576633Y-59208227D01*
X120534888Y-59163529D01*
X120501623Y-59143300D01*
X120491127Y-59136157D01*
X120460110Y-59112636D01*
X120460108Y-59112635D01*
X120444623Y-59106528D01*
X120425691Y-59097125D01*
X120411462Y-59088473D01*
X120373978Y-59077970D01*
X120361945Y-59073924D01*
X120325721Y-59059639D01*
X120309156Y-59057936D01*
X120288390Y-59053990D01*
X120272363Y-59049500D01*
X120233431Y-59049500D01*
X120220751Y-59048850D01*
X120217166Y-59048481D01*
X120182025Y-59044868D01*
X120166977Y-59047463D01*
X120165621Y-59047697D01*
X120144554Y-59049500D01*
X119931532Y-59049500D01*
X119864493Y-59029815D01*
X119843851Y-59013181D01*
X119760888Y-58930218D01*
X119727403Y-58868895D01*
X119725473Y-58857482D01*
X119723737Y-58843182D01*
X119667720Y-58695477D01*
X119580243Y-58568744D01*
X119558360Y-58502389D01*
X119575826Y-58434738D01*
X119611792Y-58400695D01*
X119610970Y-58399767D01*
X119628659Y-58384096D01*
X119721277Y-58302044D01*
X119784507Y-58272324D01*
X119853770Y-58281508D01*
X119885725Y-58302043D01*
X119927760Y-58339283D01*
X119927761Y-58339283D01*
X119928772Y-58340179D01*
X119947588Y-58352702D01*
X119948674Y-58353600D01*
X120007799Y-58381422D01*
X120012567Y-58383793D01*
X120067635Y-58412696D01*
X120069575Y-58413174D01*
X120092699Y-58421373D01*
X120097387Y-58423579D01*
X120157887Y-58435120D01*
X120164292Y-58436519D01*
X120221015Y-58450500D01*
X120226788Y-58450500D01*
X120250022Y-58452696D01*
X120258830Y-58454376D01*
X120316543Y-58450744D01*
X120324329Y-58450500D01*
X120378983Y-58450500D01*
X120378985Y-58450500D01*
X120388254Y-58448214D01*
X120410146Y-58444856D01*
X120418330Y-58444340D01*
X120422860Y-58444056D01*
X120474319Y-58427335D01*
X120482902Y-58424886D01*
X120532365Y-58412696D01*
X120544163Y-58406502D01*
X120563466Y-58398370D01*
X120579171Y-58393268D01*
X120621680Y-58366289D01*
X120630488Y-58361195D01*
X120672240Y-58339283D01*
X120685033Y-58327948D01*
X120700818Y-58316067D01*
X120717940Y-58305202D01*
X120749837Y-58271233D01*
X120757984Y-58263320D01*
X120790483Y-58234530D01*
X120802333Y-58217360D01*
X120813991Y-58202916D01*
X120830448Y-58185393D01*
X120851087Y-58147850D01*
X120857688Y-58137166D01*
X120880220Y-58104523D01*
X120888952Y-58081498D01*
X120896233Y-58065730D01*
X120909627Y-58041368D01*
X120919349Y-58003499D01*
X120923507Y-57990383D01*
X120936237Y-57956818D01*
X120939658Y-57928636D01*
X120942646Y-57912762D01*
X120950500Y-57882177D01*
X120950500Y-57846837D01*
X120951401Y-57831923D01*
X120955278Y-57800000D01*
X120951404Y-57768094D01*
X120950500Y-57753147D01*
X120950500Y-57699999D01*
X121544721Y-57699999D01*
X121563763Y-57856818D01*
X121619780Y-58004523D01*
X121709515Y-58134528D01*
X121709516Y-58134529D01*
X121709517Y-58134530D01*
X121827760Y-58239283D01*
X121967635Y-58312696D01*
X122121015Y-58350500D01*
X122278985Y-58350500D01*
X122432365Y-58312696D01*
X122572240Y-58239283D01*
X122667775Y-58154646D01*
X122731007Y-58124927D01*
X122800270Y-58134111D01*
X122832222Y-58154645D01*
X122927760Y-58239283D01*
X123067635Y-58312696D01*
X123221015Y-58350500D01*
X123378985Y-58350500D01*
X123532365Y-58312696D01*
X123672240Y-58239283D01*
X123790483Y-58134530D01*
X123880220Y-58004523D01*
X123936237Y-57856818D01*
X123955278Y-57700000D01*
X123936237Y-57543182D01*
X123880220Y-57395477D01*
X123835351Y-57330473D01*
X123790484Y-57265471D01*
X123754416Y-57233518D01*
X123672240Y-57160717D01*
X123588046Y-57116528D01*
X123532364Y-57087303D01*
X123378985Y-57049500D01*
X123221015Y-57049500D01*
X123067635Y-57087303D01*
X122927758Y-57160718D01*
X122832226Y-57245351D01*
X122768993Y-57275072D01*
X122699729Y-57265888D01*
X122667774Y-57245351D01*
X122572241Y-57160718D01*
X122572240Y-57160717D01*
X122465811Y-57104858D01*
X122432364Y-57087303D01*
X122278985Y-57049500D01*
X122121015Y-57049500D01*
X121967635Y-57087303D01*
X121827761Y-57160716D01*
X121709515Y-57265471D01*
X121619780Y-57395476D01*
X121563763Y-57543181D01*
X121544721Y-57699999D01*
X120950500Y-57699999D01*
X120950500Y-57400807D01*
X120970185Y-57333768D01*
X120986814Y-57313131D01*
X122399945Y-55899999D01*
X132344721Y-55899999D01*
X132363763Y-56056818D01*
X132419780Y-56204523D01*
X132509515Y-56334528D01*
X132509516Y-56334529D01*
X132509517Y-56334530D01*
X132627760Y-56439283D01*
X132767635Y-56512696D01*
X132921015Y-56550500D01*
X133078985Y-56550500D01*
X133232365Y-56512696D01*
X133372240Y-56439283D01*
X133490483Y-56334530D01*
X133580220Y-56204523D01*
X133636237Y-56056818D01*
X133655278Y-55900000D01*
X133636237Y-55743182D01*
X133580220Y-55595477D01*
X133490483Y-55465470D01*
X133372240Y-55360717D01*
X133325333Y-55336098D01*
X133232364Y-55287303D01*
X133078985Y-55249500D01*
X132921015Y-55249500D01*
X132767635Y-55287303D01*
X132627761Y-55360716D01*
X132509515Y-55465471D01*
X132419780Y-55595476D01*
X132363763Y-55743181D01*
X132344721Y-55899999D01*
X122399945Y-55899999D01*
X123683885Y-54616059D01*
X123745208Y-54582575D01*
X123803659Y-54583965D01*
X123812023Y-54586207D01*
X124030000Y-54605277D01*
X124247977Y-54586207D01*
X124459330Y-54529575D01*
X124657639Y-54437102D01*
X124836877Y-54311598D01*
X124991598Y-54156877D01*
X125117102Y-53977639D01*
X125187617Y-53826417D01*
X125233790Y-53773978D01*
X125300984Y-53754826D01*
X125367865Y-53775042D01*
X125412382Y-53826417D01*
X125482898Y-53977639D01*
X125608402Y-54156877D01*
X125763123Y-54311598D01*
X125942361Y-54437102D01*
X126140670Y-54529575D01*
X126352023Y-54586207D01*
X126468384Y-54596387D01*
X126569999Y-54605277D01*
X126569999Y-54605276D01*
X126570000Y-54605277D01*
X126787977Y-54586207D01*
X126999330Y-54529575D01*
X127197639Y-54437102D01*
X127376877Y-54311598D01*
X127531598Y-54156877D01*
X127580177Y-54087499D01*
X134344721Y-54087499D01*
X134363763Y-54244318D01*
X134419780Y-54392023D01*
X134509515Y-54522028D01*
X134509516Y-54522029D01*
X134509517Y-54522030D01*
X134627760Y-54626783D01*
X134767635Y-54700196D01*
X134921015Y-54738000D01*
X135078985Y-54738000D01*
X135232365Y-54700196D01*
X135372240Y-54626783D01*
X135490483Y-54522030D01*
X135580220Y-54392023D01*
X135636237Y-54244318D01*
X135653760Y-54099999D01*
X136344721Y-54099999D01*
X136363763Y-54256818D01*
X136419780Y-54404523D01*
X136509515Y-54534528D01*
X136509516Y-54534529D01*
X136509517Y-54534530D01*
X136627760Y-54639283D01*
X136767635Y-54712696D01*
X136921015Y-54750500D01*
X137078985Y-54750500D01*
X137232365Y-54712696D01*
X137372240Y-54639283D01*
X137490483Y-54534530D01*
X137580220Y-54404523D01*
X137636237Y-54256818D01*
X137655278Y-54100000D01*
X137636237Y-53943182D01*
X137580220Y-53795477D01*
X137490483Y-53665470D01*
X137372240Y-53560717D01*
X137338558Y-53543039D01*
X137232364Y-53487303D01*
X137078985Y-53449500D01*
X136921015Y-53449500D01*
X136767635Y-53487303D01*
X136627761Y-53560716D01*
X136509515Y-53665471D01*
X136419780Y-53795476D01*
X136363763Y-53943181D01*
X136344721Y-54099999D01*
X135653760Y-54099999D01*
X135655278Y-54087500D01*
X135636237Y-53930682D01*
X135580220Y-53782977D01*
X135490483Y-53652970D01*
X135372240Y-53548217D01*
X135358994Y-53541264D01*
X135232364Y-53474803D01*
X135078985Y-53437000D01*
X134921015Y-53437000D01*
X134767635Y-53474803D01*
X134627761Y-53548216D01*
X134509515Y-53652971D01*
X134419780Y-53782976D01*
X134363763Y-53930681D01*
X134344721Y-54087499D01*
X127580177Y-54087499D01*
X127657102Y-53977639D01*
X127749575Y-53779330D01*
X127806207Y-53567977D01*
X127825277Y-53350000D01*
X127806207Y-53132023D01*
X127749575Y-52920670D01*
X127657102Y-52722362D01*
X127531598Y-52543123D01*
X127376877Y-52388402D01*
X127197639Y-52262898D01*
X127106205Y-52220261D01*
X126999331Y-52170425D01*
X126787974Y-52113792D01*
X126569999Y-52094722D01*
X126352025Y-52113792D01*
X126140668Y-52170425D01*
X125942361Y-52262898D01*
X125763122Y-52388402D01*
X125608402Y-52543122D01*
X125482898Y-52722361D01*
X125412382Y-52873583D01*
X125366209Y-52926022D01*
X125299016Y-52945174D01*
X125232135Y-52924958D01*
X125187618Y-52873583D01*
X125120674Y-52730023D01*
X125117102Y-52722362D01*
X124991598Y-52543123D01*
X124836877Y-52388402D01*
X124657639Y-52262898D01*
X124566205Y-52220261D01*
X124459331Y-52170425D01*
X124247974Y-52113792D01*
X124030000Y-52094722D01*
X123812025Y-52113792D01*
X123600668Y-52170425D01*
X123402361Y-52262898D01*
X123223122Y-52388402D01*
X123068402Y-52543122D01*
X122942899Y-52722359D01*
X122872381Y-52873584D01*
X122826208Y-52926023D01*
X122759014Y-52945174D01*
X122692133Y-52924958D01*
X122647618Y-52873584D01*
X122577102Y-52722362D01*
X122451598Y-52543123D01*
X122296877Y-52388402D01*
X122117639Y-52262898D01*
X122026205Y-52220261D01*
X121919331Y-52170425D01*
X121707974Y-52113792D01*
X121489999Y-52094722D01*
X121272025Y-52113792D01*
X121060668Y-52170425D01*
X120862361Y-52262898D01*
X120683122Y-52388402D01*
X120528402Y-52543122D01*
X120425574Y-52689977D01*
X120370997Y-52733602D01*
X120301499Y-52740795D01*
X120239144Y-52709273D01*
X120203730Y-52649043D01*
X120199999Y-52618854D01*
X120199999Y-52468522D01*
X120185163Y-52374850D01*
X120127641Y-52261954D01*
X120038046Y-52172359D01*
X119925146Y-52114834D01*
X119831484Y-52100000D01*
X119200000Y-52100000D01*
X119200000Y-52914498D01*
X119092315Y-52865320D01*
X118985763Y-52850000D01*
X118914237Y-52850000D01*
X118807685Y-52865320D01*
X118700000Y-52914498D01*
X118700000Y-52100000D01*
X118068522Y-52100000D01*
X117974850Y-52114836D01*
X117861954Y-52172358D01*
X117772359Y-52261953D01*
X117714834Y-52374853D01*
X117699999Y-52468515D01*
X117700000Y-53100000D01*
X118516314Y-53100000D01*
X118490507Y-53140156D01*
X118450000Y-53278111D01*
X118450000Y-53421889D01*
X118490507Y-53559844D01*
X118516314Y-53600000D01*
X117700001Y-53600000D01*
X117700001Y-54231477D01*
X117717267Y-54340500D01*
X117708311Y-54409793D01*
X117682474Y-54447577D01*
X117187984Y-54942068D01*
X117171331Y-54955410D01*
X117121633Y-55008333D01*
X117118928Y-55011125D01*
X117098589Y-55031465D01*
X117096213Y-55034527D01*
X117096202Y-55034540D01*
X117095878Y-55034959D01*
X117088306Y-55043823D01*
X117057050Y-55077107D01*
X117046822Y-55095712D01*
X117036145Y-55111967D01*
X117023136Y-55128738D01*
X117005006Y-55170632D01*
X116999870Y-55181116D01*
X116977872Y-55221132D01*
X116972591Y-55241699D01*
X116966291Y-55260100D01*
X116957864Y-55279574D01*
X116950723Y-55324661D01*
X116948355Y-55336098D01*
X116937000Y-55380324D01*
X116937000Y-55401545D01*
X116935473Y-55420944D01*
X116932153Y-55441903D01*
X116936450Y-55487358D01*
X116937000Y-55499028D01*
X116937000Y-57253147D01*
X116936096Y-57268094D01*
X116932221Y-57300000D01*
X116936870Y-57338284D01*
X116937000Y-57339695D01*
X116937000Y-57340925D01*
X116937418Y-57344237D01*
X116937419Y-57344244D01*
X116941919Y-57379868D01*
X116951839Y-57461569D01*
X116971298Y-57510716D01*
X116980926Y-57535034D01*
X117004415Y-57596970D01*
X117010112Y-57611990D01*
X117055696Y-57674732D01*
X117057426Y-57677175D01*
X117099607Y-57738285D01*
X117108130Y-57747673D01*
X117109536Y-57748836D01*
X117109537Y-57748837D01*
X117141223Y-57775050D01*
X117162755Y-57792862D01*
X117165906Y-57795559D01*
X117215260Y-57839283D01*
X117215261Y-57839283D01*
X117216272Y-57840179D01*
X117235088Y-57852702D01*
X117236174Y-57853600D01*
X117295299Y-57881422D01*
X117300067Y-57883793D01*
X117355135Y-57912696D01*
X117357075Y-57913174D01*
X117380199Y-57921373D01*
X117384887Y-57923579D01*
X117445387Y-57935120D01*
X117451792Y-57936519D01*
X117508515Y-57950500D01*
X117514288Y-57950500D01*
X117537522Y-57952696D01*
X117546330Y-57954376D01*
X117604043Y-57950744D01*
X117611829Y-57950500D01*
X117666483Y-57950500D01*
X117666485Y-57950500D01*
X117675754Y-57948214D01*
X117697646Y-57944856D01*
X117705830Y-57944340D01*
X117710360Y-57944056D01*
X117761819Y-57927335D01*
X117770402Y-57924886D01*
X117819865Y-57912696D01*
X117831663Y-57906502D01*
X117850966Y-57898370D01*
X117866671Y-57893268D01*
X117909180Y-57866289D01*
X117917988Y-57861195D01*
X117959740Y-57839283D01*
X117972533Y-57827948D01*
X117988318Y-57816067D01*
X118005440Y-57805202D01*
X118037337Y-57771233D01*
X118045484Y-57763320D01*
X118077983Y-57734530D01*
X118089833Y-57717360D01*
X118101491Y-57702916D01*
X118117948Y-57685393D01*
X118138587Y-57647850D01*
X118145188Y-57637166D01*
X118167720Y-57604523D01*
X118176452Y-57581498D01*
X118183733Y-57565730D01*
X118197127Y-57541368D01*
X118206849Y-57503499D01*
X118211007Y-57490383D01*
X118223737Y-57456818D01*
X118227158Y-57428636D01*
X118230146Y-57412762D01*
X118238000Y-57382177D01*
X118238000Y-57346852D01*
X118238904Y-57331905D01*
X118242778Y-57300000D01*
X118238901Y-57268076D01*
X118238000Y-57253163D01*
X118238000Y-55783307D01*
X118257685Y-55716268D01*
X118274319Y-55695627D01*
X118633127Y-55336819D01*
X118694450Y-55303334D01*
X118720808Y-55300500D01*
X120104495Y-55300500D01*
X120125704Y-55302841D01*
X120128294Y-55302759D01*
X120128296Y-55302760D01*
X120198262Y-55300560D01*
X120202157Y-55300500D01*
X120227025Y-55300500D01*
X120230925Y-55300500D01*
X120235294Y-55299947D01*
X120246939Y-55299030D01*
X120292569Y-55297597D01*
X120312949Y-55291675D01*
X120331989Y-55287732D01*
X120353058Y-55285071D01*
X120395520Y-55268258D01*
X120406557Y-55264480D01*
X120450398Y-55251744D01*
X120468670Y-55240936D01*
X120486136Y-55232380D01*
X120505871Y-55224568D01*
X120542816Y-55197725D01*
X120552548Y-55191332D01*
X120591865Y-55168081D01*
X120606874Y-55153071D01*
X120621663Y-55140439D01*
X120638837Y-55127963D01*
X120667946Y-55092774D01*
X120675790Y-55084154D01*
X121143886Y-54616058D01*
X121205207Y-54582575D01*
X121263657Y-54583966D01*
X121272022Y-54586207D01*
X121489998Y-54605277D01*
X121489998Y-54605276D01*
X121490000Y-54605277D01*
X121550359Y-54599996D01*
X121618857Y-54613762D01*
X121669041Y-54662377D01*
X121684975Y-54730405D01*
X121661600Y-54796249D01*
X121648847Y-54811205D01*
X119900484Y-56559568D01*
X119883831Y-56572910D01*
X119834133Y-56625833D01*
X119831428Y-56628625D01*
X119811089Y-56648965D01*
X119808713Y-56652027D01*
X119808702Y-56652040D01*
X119808378Y-56652459D01*
X119800806Y-56661323D01*
X119769550Y-56694607D01*
X119759322Y-56713212D01*
X119748645Y-56729467D01*
X119735636Y-56746238D01*
X119717506Y-56788132D01*
X119712370Y-56798616D01*
X119690372Y-56838632D01*
X119685091Y-56859199D01*
X119678791Y-56877600D01*
X119670364Y-56897074D01*
X119663223Y-56942161D01*
X119660855Y-56953598D01*
X119649500Y-56997824D01*
X119649500Y-57019045D01*
X119647973Y-57038443D01*
X119644653Y-57059405D01*
X119648950Y-57104858D01*
X119649500Y-57116528D01*
X119649500Y-57120724D01*
X119629815Y-57187763D01*
X119577011Y-57233518D01*
X119507853Y-57243462D01*
X119495826Y-57241121D01*
X119328985Y-57200000D01*
X119171015Y-57200000D01*
X119017635Y-57237803D01*
X118877761Y-57311216D01*
X118759515Y-57415971D01*
X118669780Y-57545976D01*
X118613763Y-57693681D01*
X118594721Y-57850500D01*
X118613763Y-58007318D01*
X118669780Y-58155023D01*
X118757256Y-58281755D01*
X118779139Y-58348110D01*
X118761673Y-58415761D01*
X118725707Y-58449805D01*
X118726530Y-58450734D01*
X118715262Y-58460715D01*
X118715260Y-58460717D01*
X118675464Y-58495973D01*
X118597015Y-58565471D01*
X118507280Y-58695476D01*
X118451263Y-58843181D01*
X118432221Y-58999999D01*
X118451263Y-59156818D01*
X118507280Y-59304523D01*
X118597015Y-59434528D01*
X118597016Y-59434529D01*
X118597017Y-59434530D01*
X118715260Y-59539283D01*
X118855135Y-59612696D01*
X118956788Y-59637750D01*
X119014796Y-59670466D01*
X119283057Y-59938727D01*
X119286000Y-59941772D01*
X119327743Y-59986468D01*
X119327745Y-59986469D01*
X119361005Y-60006694D01*
X119371485Y-60013827D01*
X119402525Y-60037365D01*
X119418021Y-60043475D01*
X119436951Y-60052878D01*
X119451172Y-60061526D01*
X119488666Y-60072030D01*
X119500684Y-60076072D01*
X119536911Y-60090359D01*
X119553472Y-60092061D01*
X119574237Y-60096006D01*
X119590272Y-60100500D01*
X119629196Y-60100500D01*
X119641876Y-60101149D01*
X119680610Y-60105132D01*
X119697018Y-60102303D01*
X119718087Y-60100500D01*
X119931103Y-60100500D01*
X119998142Y-60120185D01*
X120018784Y-60136819D01*
X120144784Y-60262819D01*
X120178269Y-60324142D01*
X120173285Y-60393834D01*
X120131413Y-60449767D01*
X120065949Y-60474184D01*
X120057103Y-60474500D01*
X119516564Y-60474500D01*
X119458938Y-60460296D01*
X119332307Y-60393834D01*
X119319864Y-60387303D01*
X119166485Y-60349500D01*
X119008515Y-60349500D01*
X118855135Y-60387303D01*
X118715261Y-60460716D01*
X118597015Y-60565471D01*
X118507280Y-60695476D01*
X118451263Y-60843181D01*
X118432221Y-61000000D01*
X118451263Y-61156818D01*
X118507280Y-61304523D01*
X118597015Y-61434528D01*
X118597016Y-61434529D01*
X118597017Y-61434530D01*
X118715260Y-61539283D01*
X118855135Y-61612696D01*
X119008515Y-61650500D01*
X119166485Y-61650500D01*
X119319865Y-61612696D01*
X119458938Y-61539703D01*
X119516564Y-61525500D01*
X120719707Y-61525500D01*
X120786746Y-61545185D01*
X120807388Y-61561819D01*
X125059283Y-65813713D01*
X125062225Y-65816757D01*
X125090299Y-65846816D01*
X125103984Y-65861469D01*
X125137246Y-65881695D01*
X125147737Y-65888836D01*
X125170081Y-65905779D01*
X125178764Y-65912364D01*
X125194249Y-65918470D01*
X125213183Y-65927874D01*
X125227411Y-65936526D01*
X125264895Y-65947028D01*
X125276925Y-65951073D01*
X125313150Y-65965359D01*
X125329711Y-65967061D01*
X125350476Y-65971006D01*
X125366511Y-65975500D01*
X125405442Y-65975500D01*
X125418121Y-65976149D01*
X125429338Y-65977303D01*
X125456847Y-65980131D01*
X125456847Y-65980130D01*
X125456848Y-65980131D01*
X125473251Y-65977302D01*
X125494319Y-65975500D01*
X127625822Y-65975500D01*
X127692861Y-65995185D01*
X127738616Y-66047989D01*
X127748917Y-66084552D01*
X127756699Y-66148637D01*
X127763763Y-66206817D01*
X127819780Y-66354522D01*
X127909515Y-66484527D01*
X127909516Y-66484528D01*
X127909517Y-66484529D01*
X128027760Y-66589282D01*
X128167635Y-66662695D01*
X128321015Y-66700499D01*
X128478985Y-66700499D01*
X128632365Y-66662695D01*
X128772240Y-66589282D01*
X128890483Y-66484529D01*
X128980220Y-66354522D01*
X129036237Y-66206817D01*
X129051082Y-66084553D01*
X129078704Y-66020376D01*
X129136638Y-65981319D01*
X129174178Y-65975500D01*
X131634574Y-65975500D01*
X131701613Y-65995185D01*
X131747368Y-66047989D01*
X131757312Y-66117147D01*
X131728287Y-66180703D01*
X131716806Y-66192310D01*
X131708127Y-66200000D01*
X131632387Y-66267098D01*
X131542652Y-66397103D01*
X131486635Y-66544808D01*
X131467593Y-66701627D01*
X131486635Y-66858445D01*
X131542652Y-67006150D01*
X131632387Y-67136155D01*
X131632388Y-67136156D01*
X131632389Y-67136157D01*
X131750632Y-67240910D01*
X131890507Y-67314323D01*
X132043887Y-67352127D01*
X132201857Y-67352127D01*
X132355237Y-67314323D01*
X132495112Y-67240910D01*
X132613355Y-67136157D01*
X132703092Y-67006150D01*
X132759109Y-66858445D01*
X132778150Y-66701627D01*
X132759109Y-66544809D01*
X132703092Y-66397104D01*
X132613355Y-66267097D01*
X132528942Y-66192314D01*
X132491816Y-66133126D01*
X132492584Y-66063261D01*
X132531001Y-66004901D01*
X132594872Y-65976576D01*
X132611170Y-65975500D01*
X134130968Y-65975500D01*
X134198007Y-65995185D01*
X134218649Y-66011819D01*
X135370544Y-67163713D01*
X135373486Y-67166757D01*
X135415243Y-67211467D01*
X135415245Y-67211469D01*
X135448507Y-67231695D01*
X135458998Y-67238836D01*
X135481342Y-67255779D01*
X135490025Y-67262364D01*
X135505510Y-67268470D01*
X135524444Y-67277874D01*
X135538672Y-67286526D01*
X135576156Y-67297028D01*
X135588186Y-67301073D01*
X135624411Y-67315359D01*
X135640972Y-67317061D01*
X135661737Y-67321006D01*
X135677772Y-67325500D01*
X135716703Y-67325500D01*
X135729382Y-67326149D01*
X135740599Y-67327303D01*
X135768108Y-67330131D01*
X135768108Y-67330130D01*
X135768109Y-67330131D01*
X135784512Y-67327302D01*
X135805580Y-67325500D01*
X136070936Y-67325500D01*
X136128561Y-67339703D01*
X136267635Y-67412696D01*
X136421015Y-67450500D01*
X136578984Y-67450500D01*
X136578985Y-67450500D01*
X136697208Y-67421361D01*
X136767009Y-67424430D01*
X136824071Y-67464750D01*
X136850277Y-67529519D01*
X136849978Y-67556703D01*
X136844721Y-67599999D01*
X136846003Y-67610555D01*
X136834542Y-67679478D01*
X136787638Y-67731264D01*
X136722907Y-67749500D01*
X136721015Y-67749500D01*
X136567635Y-67787303D01*
X136427761Y-67860716D01*
X136309515Y-67965471D01*
X136219780Y-68095476D01*
X136163763Y-68243181D01*
X136144721Y-68399999D01*
X136163763Y-68556818D01*
X136219780Y-68704523D01*
X136302249Y-68824001D01*
X136324132Y-68890356D01*
X136306666Y-68958007D01*
X136287880Y-68982122D01*
X135531323Y-69738681D01*
X135470000Y-69772166D01*
X135443642Y-69775000D01*
X131921013Y-69775000D01*
X131887978Y-69783141D01*
X131873852Y-69785765D01*
X131836940Y-69790428D01*
X131809340Y-69801356D01*
X131793373Y-69806459D01*
X131767638Y-69812802D01*
X131734188Y-69830358D01*
X131722214Y-69835851D01*
X131684130Y-69850930D01*
X131663153Y-69866171D01*
X131647899Y-69875646D01*
X131627760Y-69886216D01*
X131596675Y-69913754D01*
X131587339Y-69921252D01*
X131551162Y-69947537D01*
X131537033Y-69964615D01*
X131523725Y-69978381D01*
X131509515Y-69990970D01*
X131483794Y-70028233D01*
X131477292Y-70036828D01*
X131446400Y-70074172D01*
X131438567Y-70090818D01*
X131428423Y-70108453D01*
X131419781Y-70120974D01*
X131402391Y-70166825D01*
X131398649Y-70175646D01*
X131376421Y-70222884D01*
X131373680Y-70237252D01*
X131367822Y-70257977D01*
X131363762Y-70268684D01*
X131357397Y-70321089D01*
X131356107Y-70329368D01*
X131353035Y-70345474D01*
X131347550Y-70374231D01*
X131315655Y-70436395D01*
X131255214Y-70471448D01*
X131225746Y-70475000D01*
X127721308Y-70475000D01*
X127654269Y-70455315D01*
X127633627Y-70438681D01*
X126847243Y-69652297D01*
X126832874Y-69635056D01*
X126827983Y-69627970D01*
X126786364Y-69591099D01*
X126780911Y-69585965D01*
X126771287Y-69576341D01*
X126768535Y-69573589D01*
X126756161Y-69563990D01*
X126749961Y-69558849D01*
X126709740Y-69523217D01*
X126700438Y-69518335D01*
X126682076Y-69506525D01*
X126671264Y-69498138D01*
X126671263Y-69498137D01*
X126671261Y-69498136D01*
X126622493Y-69477032D01*
X126614114Y-69473027D01*
X126569864Y-69449802D01*
X126556001Y-69446385D01*
X126536441Y-69439794D01*
X126520426Y-69432864D01*
X126471633Y-69425136D01*
X126461363Y-69423061D01*
X126416485Y-69412000D01*
X126398455Y-69412000D01*
X126379056Y-69410473D01*
X126358096Y-69407153D01*
X126358095Y-69407153D01*
X126336058Y-69409236D01*
X126312639Y-69411450D01*
X126300970Y-69412000D01*
X126258514Y-69412000D01*
X126237338Y-69417218D01*
X126219346Y-69420268D01*
X126194470Y-69422620D01*
X126155052Y-69436811D01*
X126142730Y-69440537D01*
X126105132Y-69449804D01*
X126082497Y-69461684D01*
X126066882Y-69468554D01*
X126039833Y-69478292D01*
X126008281Y-69499735D01*
X125996215Y-69506969D01*
X125965263Y-69523215D01*
X125965261Y-69523216D01*
X125965260Y-69523217D01*
X125943303Y-69542667D01*
X125930787Y-69552400D01*
X125903897Y-69570674D01*
X125881157Y-69596467D01*
X125870377Y-69607272D01*
X125847019Y-69627965D01*
X125828221Y-69655200D01*
X125819187Y-69666759D01*
X125795208Y-69693957D01*
X125781304Y-69721246D01*
X125772872Y-69735387D01*
X125757277Y-69757980D01*
X125744218Y-69792415D01*
X125738763Y-69804735D01*
X125720592Y-69840399D01*
X125714730Y-69866623D01*
X125709660Y-69883538D01*
X125701263Y-69905679D01*
X125696369Y-69945981D01*
X125694287Y-69958080D01*
X125684739Y-70000795D01*
X125685465Y-70023889D01*
X125684622Y-70042726D01*
X125682221Y-70062498D01*
X125687567Y-70106521D01*
X125688410Y-70117572D01*
X125689902Y-70165071D01*
X125695296Y-70183636D01*
X125699314Y-70203278D01*
X125701261Y-70219314D01*
X125718321Y-70264298D01*
X125721452Y-70273666D01*
X125735756Y-70322898D01*
X125737144Y-70325245D01*
X125743681Y-70336299D01*
X125752888Y-70355442D01*
X125757280Y-70367024D01*
X125786731Y-70409690D01*
X125791413Y-70417009D01*
X125819419Y-70464365D01*
X125827757Y-70472703D01*
X125842125Y-70489943D01*
X125847017Y-70497030D01*
X125888633Y-70533899D01*
X125894087Y-70539033D01*
X126880064Y-71525010D01*
X126893411Y-71541669D01*
X126946332Y-71591364D01*
X126949129Y-71594075D01*
X126969465Y-71614411D01*
X126972536Y-71616793D01*
X126972937Y-71617104D01*
X126981823Y-71624692D01*
X127001817Y-71643468D01*
X127015107Y-71655948D01*
X127033706Y-71666173D01*
X127049966Y-71676854D01*
X127066736Y-71689862D01*
X127086546Y-71698434D01*
X127108629Y-71707991D01*
X127119120Y-71713130D01*
X127159132Y-71735127D01*
X127179696Y-71740406D01*
X127198101Y-71746708D01*
X127217574Y-71755135D01*
X127262671Y-71762277D01*
X127274086Y-71764641D01*
X127318323Y-71776000D01*
X127339545Y-71776000D01*
X127358944Y-71777527D01*
X127361299Y-71777899D01*
X127379905Y-71780847D01*
X127421819Y-71776884D01*
X127425361Y-71776550D01*
X127437030Y-71776000D01*
X131728918Y-71776000D01*
X131795957Y-71795685D01*
X131841712Y-71848489D01*
X131852014Y-71885054D01*
X131863763Y-71981818D01*
X131919780Y-72129523D01*
X132009515Y-72259528D01*
X132009516Y-72259529D01*
X132009517Y-72259530D01*
X132127760Y-72364283D01*
X132267635Y-72437696D01*
X132421015Y-72475500D01*
X132578985Y-72475500D01*
X132732365Y-72437696D01*
X132872240Y-72364283D01*
X132990483Y-72259530D01*
X133080220Y-72129523D01*
X133136237Y-71981818D01*
X133147986Y-71885053D01*
X133175608Y-71820876D01*
X133233542Y-71781819D01*
X133271082Y-71776000D01*
X137788995Y-71776000D01*
X137810204Y-71778341D01*
X137812794Y-71778259D01*
X137812796Y-71778260D01*
X137882762Y-71776060D01*
X137886657Y-71776000D01*
X137911525Y-71776000D01*
X137915425Y-71776000D01*
X137919794Y-71775447D01*
X137931439Y-71774530D01*
X137977069Y-71773097D01*
X137997449Y-71767175D01*
X138016489Y-71763232D01*
X138037558Y-71760571D01*
X138080020Y-71743758D01*
X138091057Y-71739980D01*
X138134898Y-71727244D01*
X138153170Y-71716436D01*
X138170636Y-71707880D01*
X138190371Y-71700068D01*
X138227316Y-71673225D01*
X138237048Y-71666832D01*
X138276365Y-71643581D01*
X138291374Y-71628571D01*
X138306163Y-71615939D01*
X138323337Y-71603463D01*
X138352446Y-71568274D01*
X138360290Y-71559654D01*
X139529013Y-70390931D01*
X139545662Y-70377594D01*
X139547436Y-70375704D01*
X139547440Y-70375702D01*
X139595397Y-70324631D01*
X139598015Y-70321929D01*
X139618411Y-70301535D01*
X139621110Y-70298054D01*
X139628684Y-70289185D01*
X139659948Y-70255893D01*
X139666837Y-70243360D01*
X139716381Y-70194096D01*
X139784695Y-70179437D01*
X139850090Y-70204039D01*
X139891804Y-70260091D01*
X139899500Y-70303096D01*
X139899500Y-85997128D01*
X139899368Y-86002855D01*
X139883129Y-86354076D01*
X139882072Y-86365480D01*
X139833895Y-86710856D01*
X139831790Y-86722115D01*
X139751952Y-87061565D01*
X139748818Y-87072581D01*
X139637995Y-87403231D01*
X139633857Y-87413911D01*
X139493006Y-87732909D01*
X139487901Y-87743162D01*
X139318213Y-88047809D01*
X139312184Y-88057547D01*
X139115104Y-88345249D01*
X139108201Y-88354389D01*
X138885427Y-88622665D01*
X138877711Y-88631129D01*
X138631129Y-88877711D01*
X138622665Y-88885427D01*
X138354389Y-89108201D01*
X138345249Y-89115104D01*
X138057547Y-89312184D01*
X138047809Y-89318213D01*
X137743162Y-89487901D01*
X137732909Y-89493006D01*
X137413911Y-89633857D01*
X137403231Y-89637995D01*
X137072581Y-89748818D01*
X137061565Y-89751952D01*
X136722115Y-89831790D01*
X136710856Y-89833895D01*
X136365480Y-89882072D01*
X136354076Y-89883129D01*
X136002855Y-89899368D01*
X135997128Y-89899500D01*
X114794545Y-89899500D01*
X114727506Y-89879815D01*
X114681751Y-89827011D01*
X114671807Y-89757853D01*
X114700832Y-89694297D01*
X114706864Y-89687819D01*
X114791957Y-89602726D01*
X114793488Y-89601111D01*
X114811672Y-89581551D01*
X114813131Y-89579897D01*
X114823258Y-89568181D01*
X114824663Y-89566469D01*
X114841430Y-89545632D01*
X114842778Y-89543865D01*
X115001812Y-89331388D01*
X115003079Y-89329596D01*
X115018325Y-89307604D01*
X115019554Y-89305730D01*
X115027890Y-89292720D01*
X115029020Y-89290852D01*
X115042657Y-89267831D01*
X115043741Y-89265888D01*
X115139720Y-89090073D01*
X115189125Y-89040668D01*
X115248552Y-89025500D01*
X125488891Y-89025500D01*
X125493123Y-89025571D01*
X125507997Y-89026080D01*
X125573614Y-89047553D01*
X125585912Y-89055937D01*
X125597226Y-89063651D01*
X125840359Y-89180738D01*
X126098228Y-89260280D01*
X126365071Y-89300500D01*
X126634929Y-89300500D01*
X126901772Y-89260280D01*
X127159641Y-89180738D01*
X127402775Y-89063651D01*
X127625741Y-88911635D01*
X127823561Y-88728085D01*
X127991815Y-88517102D01*
X128126743Y-88283398D01*
X128225334Y-88032195D01*
X128285383Y-87769103D01*
X128305549Y-87500000D01*
X128305549Y-87499999D01*
X131694450Y-87499999D01*
X131714616Y-87769100D01*
X131761497Y-87974500D01*
X131774666Y-88032195D01*
X131873257Y-88283398D01*
X132008185Y-88517102D01*
X132176439Y-88728085D01*
X132374259Y-88911635D01*
X132597226Y-89063651D01*
X132840359Y-89180738D01*
X133098228Y-89260280D01*
X133365071Y-89300500D01*
X133634929Y-89300500D01*
X133901772Y-89260280D01*
X134159641Y-89180738D01*
X134402775Y-89063651D01*
X134625741Y-88911635D01*
X134823561Y-88728085D01*
X134991815Y-88517102D01*
X135126743Y-88283398D01*
X135225334Y-88032195D01*
X135285383Y-87769103D01*
X135305549Y-87500000D01*
X135285383Y-87230897D01*
X135225334Y-86967805D01*
X135126743Y-86716602D01*
X134991815Y-86482898D01*
X134823561Y-86271915D01*
X134823560Y-86271914D01*
X134625743Y-86088366D01*
X134568205Y-86049137D01*
X134402775Y-85936349D01*
X134159641Y-85819262D01*
X134080097Y-85794726D01*
X133901771Y-85739719D01*
X133634929Y-85699500D01*
X133365071Y-85699500D01*
X133098228Y-85739719D01*
X132840359Y-85819262D01*
X132597228Y-85936347D01*
X132374257Y-86088366D01*
X132176439Y-86271915D01*
X132008184Y-86482899D01*
X131873257Y-86716601D01*
X131774666Y-86967804D01*
X131714616Y-87230899D01*
X131694450Y-87499999D01*
X128305549Y-87499999D01*
X128285383Y-87230897D01*
X128225334Y-86967805D01*
X128126743Y-86716602D01*
X127991815Y-86482898D01*
X127823561Y-86271915D01*
X127823560Y-86271914D01*
X127625743Y-86088366D01*
X127568205Y-86049137D01*
X127402775Y-85936349D01*
X127159641Y-85819262D01*
X127080098Y-85794726D01*
X126901771Y-85739719D01*
X126634929Y-85699500D01*
X126365071Y-85699500D01*
X126098228Y-85739719D01*
X125840359Y-85819262D01*
X125597228Y-85936347D01*
X125374257Y-86088366D01*
X125176439Y-86271915D01*
X125008184Y-86482899D01*
X124873257Y-86716601D01*
X124774666Y-86967804D01*
X124714616Y-87230899D01*
X124694450Y-87499999D01*
X124714616Y-87769102D01*
X124726897Y-87822908D01*
X124722624Y-87892647D01*
X124681325Y-87949004D01*
X124616113Y-87974087D01*
X124606006Y-87974500D01*
X120334335Y-87974500D01*
X120267296Y-87954815D01*
X120221541Y-87902011D01*
X120211597Y-87832853D01*
X120240622Y-87769297D01*
X120299400Y-87731523D01*
X120306742Y-87729609D01*
X120330392Y-87724210D01*
X120518598Y-87681254D01*
X120763384Y-87585183D01*
X120991117Y-87453701D01*
X121196710Y-87289746D01*
X121375570Y-87096980D01*
X121523702Y-86879710D01*
X121637798Y-86642788D01*
X121715308Y-86391508D01*
X121754500Y-86131482D01*
X121754500Y-85868518D01*
X121733333Y-85728085D01*
X121715308Y-85608492D01*
X121715308Y-85608491D01*
X121637798Y-85357212D01*
X121523702Y-85120290D01*
X121375570Y-84903020D01*
X121196710Y-84710254D01*
X121109766Y-84640918D01*
X120991116Y-84546298D01*
X120910924Y-84499999D01*
X128194450Y-84499999D01*
X128214616Y-84769100D01*
X128245182Y-84903018D01*
X128274666Y-85032195D01*
X128373257Y-85283398D01*
X128508185Y-85517102D01*
X128676439Y-85728085D01*
X128874259Y-85911635D01*
X129097226Y-86063651D01*
X129340359Y-86180738D01*
X129598228Y-86260280D01*
X129865071Y-86300500D01*
X130134929Y-86300500D01*
X130401772Y-86260280D01*
X130659641Y-86180738D01*
X130902775Y-86063651D01*
X131125741Y-85911635D01*
X131323561Y-85728085D01*
X131491815Y-85517102D01*
X131626743Y-85283398D01*
X131725334Y-85032195D01*
X131785383Y-84769103D01*
X131805549Y-84500000D01*
X135194450Y-84500000D01*
X135214616Y-84769100D01*
X135245182Y-84903018D01*
X135274666Y-85032195D01*
X135373257Y-85283398D01*
X135508185Y-85517102D01*
X135676439Y-85728085D01*
X135874259Y-85911635D01*
X136097226Y-86063651D01*
X136340359Y-86180738D01*
X136598228Y-86260280D01*
X136865071Y-86300500D01*
X137134929Y-86300500D01*
X137401772Y-86260280D01*
X137659641Y-86180738D01*
X137902775Y-86063651D01*
X138125741Y-85911635D01*
X138323561Y-85728085D01*
X138491815Y-85517102D01*
X138626743Y-85283398D01*
X138725334Y-85032195D01*
X138785383Y-84769103D01*
X138805549Y-84500000D01*
X138785383Y-84230897D01*
X138725334Y-83967805D01*
X138626743Y-83716602D01*
X138491815Y-83482898D01*
X138323561Y-83271915D01*
X138323560Y-83271914D01*
X138125743Y-83088366D01*
X138068205Y-83049137D01*
X137902775Y-82936349D01*
X137659641Y-82819262D01*
X137580098Y-82794726D01*
X137401771Y-82739719D01*
X137134929Y-82699500D01*
X136865071Y-82699500D01*
X136598228Y-82739719D01*
X136340359Y-82819262D01*
X136097228Y-82936347D01*
X135874257Y-83088366D01*
X135676439Y-83271915D01*
X135508184Y-83482899D01*
X135373257Y-83716601D01*
X135274666Y-83967804D01*
X135214616Y-84230899D01*
X135194450Y-84500000D01*
X131805549Y-84500000D01*
X131805326Y-84497030D01*
X131786477Y-84245500D01*
X131785383Y-84230897D01*
X131725334Y-83967805D01*
X131626743Y-83716602D01*
X131491815Y-83482898D01*
X131323561Y-83271915D01*
X131323560Y-83271914D01*
X131125743Y-83088366D01*
X131068205Y-83049137D01*
X130902775Y-82936349D01*
X130659641Y-82819262D01*
X130580097Y-82794726D01*
X130401771Y-82739719D01*
X130134929Y-82699500D01*
X129865071Y-82699500D01*
X129598228Y-82739719D01*
X129340359Y-82819262D01*
X129097228Y-82936347D01*
X128874257Y-83088366D01*
X128676439Y-83271915D01*
X128508184Y-83482899D01*
X128373257Y-83716601D01*
X128274666Y-83967804D01*
X128214616Y-84230899D01*
X128194450Y-84499999D01*
X120910924Y-84499999D01*
X120763382Y-84414816D01*
X120518600Y-84318746D01*
X120262225Y-84260230D01*
X120067968Y-84245673D01*
X120067957Y-84245672D01*
X120065654Y-84245500D01*
X119934346Y-84245500D01*
X119932043Y-84245672D01*
X119932031Y-84245673D01*
X119737774Y-84260230D01*
X119481399Y-84318746D01*
X119236617Y-84414816D01*
X119008883Y-84546298D01*
X118803290Y-84710253D01*
X118624431Y-84903018D01*
X118476296Y-85120292D01*
X118362202Y-85357212D01*
X118284691Y-85608492D01*
X118245500Y-85868517D01*
X118245500Y-86131482D01*
X118284691Y-86391507D01*
X118338292Y-86565276D01*
X118362202Y-86642788D01*
X118394982Y-86710856D01*
X118476296Y-86879707D01*
X118476297Y-86879709D01*
X118476298Y-86879710D01*
X118624430Y-87096980D01*
X118803290Y-87289746D01*
X119008883Y-87453701D01*
X119236616Y-87585183D01*
X119481402Y-87681254D01*
X119655533Y-87720998D01*
X119693258Y-87729609D01*
X119754236Y-87763718D01*
X119787094Y-87825379D01*
X119781399Y-87895017D01*
X119738959Y-87950520D01*
X119673249Y-87974268D01*
X119665665Y-87974500D01*
X115529500Y-87974500D01*
X115462461Y-87954815D01*
X115416706Y-87902011D01*
X115405500Y-87850500D01*
X115405500Y-87004427D01*
X115405239Y-86989807D01*
X115404918Y-86980879D01*
X115404143Y-86966506D01*
X115386267Y-86716602D01*
X115384742Y-86695285D01*
X115384740Y-86695272D01*
X115384525Y-86693088D01*
X115381647Y-86666502D01*
X115381350Y-86664293D01*
X115379129Y-86648990D01*
X115378756Y-86646809D01*
X115373990Y-86620507D01*
X115373541Y-86618354D01*
X115317105Y-86359010D01*
X115316574Y-86356848D01*
X115309950Y-86330975D01*
X115309349Y-86328860D01*
X115304966Y-86313999D01*
X115304280Y-86311872D01*
X115295821Y-86286520D01*
X115295067Y-86284441D01*
X115202294Y-86035766D01*
X115201470Y-86033726D01*
X115191212Y-86009013D01*
X115190307Y-86006982D01*
X115183862Y-85992920D01*
X115182894Y-85990942D01*
X115170910Y-85967047D01*
X115169867Y-85965095D01*
X115042657Y-85732168D01*
X115041551Y-85730266D01*
X115027890Y-85707279D01*
X115026695Y-85705381D01*
X115018325Y-85692395D01*
X115017094Y-85690589D01*
X115001812Y-85668611D01*
X115000489Y-85666810D01*
X114841430Y-85454367D01*
X114840061Y-85452637D01*
X114823258Y-85431818D01*
X114821823Y-85430132D01*
X114811672Y-85418448D01*
X114810175Y-85416811D01*
X114791957Y-85397273D01*
X114790415Y-85395704D01*
X114602726Y-85208042D01*
X114601109Y-85206509D01*
X114581540Y-85188317D01*
X114579880Y-85186852D01*
X114568169Y-85176731D01*
X114566463Y-85175331D01*
X114545630Y-85158569D01*
X114543877Y-85157233D01*
X114494361Y-85120188D01*
X114494339Y-85120173D01*
X114492060Y-85118467D01*
X114428406Y-85079406D01*
X114425854Y-85078147D01*
X114425846Y-85078143D01*
X114389780Y-85060357D01*
X114389776Y-85060355D01*
X114387612Y-85059288D01*
X114385372Y-85058392D01*
X114385359Y-85058387D01*
X114328966Y-85035850D01*
X114287119Y-85029732D01*
X114203430Y-85017497D01*
X114203426Y-85017497D01*
X114137550Y-85018281D01*
X114137541Y-85018281D01*
X114133566Y-85018329D01*
X114030652Y-85032876D01*
X114030649Y-85032876D01*
X114020993Y-85034242D01*
X113951858Y-85024133D01*
X113921412Y-85004278D01*
X113872239Y-84960716D01*
X113732366Y-84887303D01*
X113578985Y-84849500D01*
X113455945Y-84849500D01*
X113388906Y-84829815D01*
X113356680Y-84799813D01*
X113342618Y-84781030D01*
X113340230Y-84777840D01*
X113267793Y-84703304D01*
X113202907Y-84666660D01*
X113157320Y-84640916D01*
X113101419Y-84620066D01*
X113100184Y-84619629D01*
X113085030Y-84614348D01*
X112959713Y-84594500D01*
X112959711Y-84594500D01*
X112270536Y-84594500D01*
X112203497Y-84574815D01*
X112157742Y-84522011D01*
X112147440Y-84485447D01*
X112146393Y-84476832D01*
X112136237Y-84393182D01*
X112080220Y-84245477D01*
X111990483Y-84115470D01*
X111872240Y-84010717D01*
X111858994Y-84003764D01*
X111732364Y-83937303D01*
X111578985Y-83899500D01*
X111529500Y-83899500D01*
X111462461Y-83879815D01*
X111416706Y-83827011D01*
X111405500Y-83775500D01*
X111405500Y-80500000D01*
X120844721Y-80500000D01*
X120863763Y-80656818D01*
X120919780Y-80804523D01*
X121009515Y-80934528D01*
X121009516Y-80934529D01*
X121009517Y-80934530D01*
X121127760Y-81039283D01*
X121267635Y-81112696D01*
X121421015Y-81150500D01*
X121578985Y-81150500D01*
X121732365Y-81112696D01*
X121872240Y-81039283D01*
X121990483Y-80934530D01*
X122080220Y-80804523D01*
X122136237Y-80656818D01*
X122155278Y-80500000D01*
X133844721Y-80500000D01*
X133863763Y-80656818D01*
X133919780Y-80804523D01*
X134009515Y-80934528D01*
X134009516Y-80934529D01*
X134009517Y-80934530D01*
X134127760Y-81039283D01*
X134267635Y-81112696D01*
X134421015Y-81150500D01*
X134578985Y-81150500D01*
X134732365Y-81112696D01*
X134872240Y-81039283D01*
X134990483Y-80934530D01*
X135080220Y-80804523D01*
X135136237Y-80656818D01*
X135155278Y-80500000D01*
X135136237Y-80343182D01*
X135080220Y-80195477D01*
X134990483Y-80065470D01*
X134872240Y-79960717D01*
X134858994Y-79953764D01*
X134732364Y-79887303D01*
X134578985Y-79849500D01*
X134421015Y-79849500D01*
X134267635Y-79887303D01*
X134127761Y-79960716D01*
X134009515Y-80065471D01*
X133919780Y-80195476D01*
X133863763Y-80343181D01*
X133844721Y-80500000D01*
X122155278Y-80500000D01*
X122136237Y-80343182D01*
X122080220Y-80195477D01*
X121990483Y-80065470D01*
X121872240Y-79960717D01*
X121858994Y-79953765D01*
X121732364Y-79887303D01*
X121578985Y-79849500D01*
X121421015Y-79849500D01*
X121267635Y-79887303D01*
X121127761Y-79960716D01*
X121009515Y-80065471D01*
X120919780Y-80195476D01*
X120863763Y-80343181D01*
X120844721Y-80500000D01*
X111405500Y-80500000D01*
X111405500Y-78500000D01*
X118844721Y-78500000D01*
X118863763Y-78656818D01*
X118919780Y-78804523D01*
X119009515Y-78934528D01*
X119009516Y-78934529D01*
X119009517Y-78934530D01*
X119127760Y-79039283D01*
X119267635Y-79112696D01*
X119421015Y-79150500D01*
X119578985Y-79150500D01*
X119732365Y-79112696D01*
X119872240Y-79039283D01*
X119990483Y-78934530D01*
X120080220Y-78804523D01*
X120136237Y-78656818D01*
X120155278Y-78500000D01*
X120136237Y-78343182D01*
X120129341Y-78325000D01*
X131344721Y-78325000D01*
X131363763Y-78481818D01*
X131419780Y-78629523D01*
X131509515Y-78759528D01*
X131509516Y-78759529D01*
X131509517Y-78759530D01*
X131627760Y-78864283D01*
X131767635Y-78937696D01*
X131921015Y-78975500D01*
X132078985Y-78975500D01*
X132232365Y-78937696D01*
X132372240Y-78864283D01*
X132490483Y-78759530D01*
X132580220Y-78629523D01*
X132629342Y-78499999D01*
X136344721Y-78499999D01*
X136363763Y-78656818D01*
X136419780Y-78804523D01*
X136509515Y-78934528D01*
X136509516Y-78934529D01*
X136509517Y-78934530D01*
X136627760Y-79039283D01*
X136767635Y-79112696D01*
X136921015Y-79150500D01*
X137078985Y-79150500D01*
X137232365Y-79112696D01*
X137372240Y-79039283D01*
X137490483Y-78934530D01*
X137580220Y-78804523D01*
X137636237Y-78656818D01*
X137655278Y-78500000D01*
X137636237Y-78343182D01*
X137580220Y-78195477D01*
X137490483Y-78065470D01*
X137372240Y-77960717D01*
X137358994Y-77953764D01*
X137232364Y-77887303D01*
X137078985Y-77849500D01*
X136921015Y-77849500D01*
X136767635Y-77887303D01*
X136627761Y-77960716D01*
X136509515Y-78065471D01*
X136419780Y-78195476D01*
X136363763Y-78343181D01*
X136344721Y-78499999D01*
X132629342Y-78499999D01*
X132636237Y-78481818D01*
X132655278Y-78325000D01*
X132636237Y-78168182D01*
X132580220Y-78020477D01*
X132490483Y-77890470D01*
X132372240Y-77785717D01*
X132358994Y-77778764D01*
X132232364Y-77712303D01*
X132078985Y-77674500D01*
X131921015Y-77674500D01*
X131767635Y-77712303D01*
X131627761Y-77785716D01*
X131509515Y-77890471D01*
X131419780Y-78020476D01*
X131363763Y-78168181D01*
X131344721Y-78325000D01*
X120129341Y-78325000D01*
X120080220Y-78195477D01*
X119990483Y-78065470D01*
X119872240Y-77960717D01*
X119858994Y-77953765D01*
X119732364Y-77887303D01*
X119578985Y-77849500D01*
X119421015Y-77849500D01*
X119267635Y-77887303D01*
X119127761Y-77960716D01*
X119009515Y-78065471D01*
X118919780Y-78195476D01*
X118863763Y-78343181D01*
X118844721Y-78500000D01*
X111405500Y-78500000D01*
X111405500Y-77960716D01*
X111405500Y-76600000D01*
X118844721Y-76600000D01*
X118863763Y-76756818D01*
X118919780Y-76904523D01*
X119009515Y-77034528D01*
X119009516Y-77034529D01*
X119009517Y-77034530D01*
X119127760Y-77139283D01*
X119267635Y-77212696D01*
X119421015Y-77250500D01*
X119578985Y-77250500D01*
X119732365Y-77212696D01*
X119872240Y-77139283D01*
X119990483Y-77034530D01*
X120080220Y-76904523D01*
X120136237Y-76756818D01*
X120155278Y-76600000D01*
X120143136Y-76499999D01*
X131344721Y-76499999D01*
X131363763Y-76656818D01*
X131419780Y-76804523D01*
X131509515Y-76934528D01*
X131509516Y-76934529D01*
X131509517Y-76934530D01*
X131627760Y-77039283D01*
X131767635Y-77112696D01*
X131921015Y-77150500D01*
X132078985Y-77150500D01*
X132232365Y-77112696D01*
X132372240Y-77039283D01*
X132490483Y-76934530D01*
X132580220Y-76804523D01*
X132636237Y-76656818D01*
X132643136Y-76600000D01*
X136344721Y-76600000D01*
X136363763Y-76756818D01*
X136419780Y-76904523D01*
X136509515Y-77034528D01*
X136509516Y-77034529D01*
X136509517Y-77034530D01*
X136627760Y-77139283D01*
X136767635Y-77212696D01*
X136921015Y-77250500D01*
X137078985Y-77250500D01*
X137232365Y-77212696D01*
X137372240Y-77139283D01*
X137490483Y-77034530D01*
X137580220Y-76904523D01*
X137636237Y-76756818D01*
X137655278Y-76600000D01*
X137636237Y-76443182D01*
X137580220Y-76295477D01*
X137490483Y-76165470D01*
X137372240Y-76060717D01*
X137358994Y-76053764D01*
X137232364Y-75987303D01*
X137078985Y-75949500D01*
X136921015Y-75949500D01*
X136767635Y-75987303D01*
X136627761Y-76060716D01*
X136509515Y-76165471D01*
X136419780Y-76295476D01*
X136363763Y-76443181D01*
X136344721Y-76600000D01*
X132643136Y-76600000D01*
X132655278Y-76500000D01*
X132636237Y-76343182D01*
X132580220Y-76195477D01*
X132490483Y-76065470D01*
X132372240Y-75960717D01*
X132350868Y-75949500D01*
X132232364Y-75887303D01*
X132078985Y-75849500D01*
X131921015Y-75849500D01*
X131767635Y-75887303D01*
X131627761Y-75960716D01*
X131509515Y-76065471D01*
X131419780Y-76195476D01*
X131363763Y-76343181D01*
X131344721Y-76499999D01*
X120143136Y-76499999D01*
X120136237Y-76443182D01*
X120080220Y-76295477D01*
X119990483Y-76165470D01*
X119872240Y-76060717D01*
X119858994Y-76053764D01*
X119732364Y-75987303D01*
X119578985Y-75949500D01*
X119421015Y-75949500D01*
X119267635Y-75987303D01*
X119127761Y-76060716D01*
X119009515Y-76165471D01*
X118919780Y-76295476D01*
X118863763Y-76443181D01*
X118844721Y-76600000D01*
X111405500Y-76600000D01*
X111405500Y-73850000D01*
X117844721Y-73850000D01*
X117863763Y-74006818D01*
X117919780Y-74154523D01*
X118009515Y-74284528D01*
X118009516Y-74284529D01*
X118009517Y-74284530D01*
X118127760Y-74389283D01*
X118267635Y-74462696D01*
X118421015Y-74500500D01*
X118578985Y-74500500D01*
X118732365Y-74462696D01*
X118872240Y-74389283D01*
X118990483Y-74284530D01*
X119080220Y-74154523D01*
X119136237Y-74006818D01*
X119155278Y-73850000D01*
X119136237Y-73693182D01*
X119080220Y-73545477D01*
X119021714Y-73460716D01*
X118990484Y-73415471D01*
X118973021Y-73400000D01*
X124844721Y-73400000D01*
X124863763Y-73556818D01*
X124919780Y-73704523D01*
X125009515Y-73834528D01*
X125009516Y-73834529D01*
X125009517Y-73834530D01*
X125127760Y-73939283D01*
X125267635Y-74012696D01*
X125421015Y-74050500D01*
X125578985Y-74050500D01*
X125732365Y-74012696D01*
X125756557Y-73999999D01*
X135844721Y-73999999D01*
X135863763Y-74156818D01*
X135919780Y-74304523D01*
X136009515Y-74434528D01*
X136009516Y-74434529D01*
X136009517Y-74434530D01*
X136127760Y-74539283D01*
X136267635Y-74612696D01*
X136421015Y-74650500D01*
X136578985Y-74650500D01*
X136732365Y-74612696D01*
X136872240Y-74539283D01*
X136990483Y-74434530D01*
X137080220Y-74304523D01*
X137136237Y-74156818D01*
X137155278Y-74000000D01*
X137136237Y-73843182D01*
X137080220Y-73695477D01*
X137016168Y-73602681D01*
X136990484Y-73565471D01*
X136967914Y-73545476D01*
X136872240Y-73460717D01*
X136858994Y-73453765D01*
X136732364Y-73387303D01*
X136578985Y-73349500D01*
X136421015Y-73349500D01*
X136267635Y-73387303D01*
X136127761Y-73460716D01*
X136009515Y-73565471D01*
X135919780Y-73695476D01*
X135863763Y-73843181D01*
X135844721Y-73999999D01*
X125756557Y-73999999D01*
X125872240Y-73939283D01*
X125990483Y-73834530D01*
X126080220Y-73704523D01*
X126136237Y-73556818D01*
X126155278Y-73400000D01*
X126136237Y-73243182D01*
X126080220Y-73095477D01*
X125990483Y-72965470D01*
X125872240Y-72860717D01*
X125858994Y-72853764D01*
X125732364Y-72787303D01*
X125578985Y-72749500D01*
X125421015Y-72749500D01*
X125267635Y-72787303D01*
X125127761Y-72860716D01*
X125009515Y-72965471D01*
X124919780Y-73095476D01*
X124863763Y-73243181D01*
X124844721Y-73400000D01*
X118973021Y-73400000D01*
X118872240Y-73310717D01*
X118835643Y-73291509D01*
X118732364Y-73237303D01*
X118578985Y-73199500D01*
X118421015Y-73199500D01*
X118267635Y-73237303D01*
X118127761Y-73310716D01*
X118009515Y-73415471D01*
X117919780Y-73545476D01*
X117863763Y-73693181D01*
X117844721Y-73850000D01*
X111405500Y-73850000D01*
X111405500Y-72749999D01*
X111694721Y-72749999D01*
X111713763Y-72906818D01*
X111769780Y-73054523D01*
X111859515Y-73184528D01*
X111859516Y-73184529D01*
X111859517Y-73184530D01*
X111977760Y-73289283D01*
X112117635Y-73362696D01*
X112271015Y-73400500D01*
X112428985Y-73400500D01*
X112582365Y-73362696D01*
X112722240Y-73289283D01*
X112840483Y-73184530D01*
X112930220Y-73054523D01*
X112986237Y-72906818D01*
X113005278Y-72750000D01*
X112986237Y-72593182D01*
X112930220Y-72445477D01*
X112840483Y-72315470D01*
X112722240Y-72210717D01*
X112701821Y-72200000D01*
X117300000Y-72200000D01*
X118000000Y-72900000D01*
X123000000Y-72900000D01*
X123700000Y-72200000D01*
X123700000Y-67800000D01*
X123000000Y-67000000D01*
X122999999Y-67000000D01*
X121851362Y-67000000D01*
X121851359Y-66999999D01*
X129144721Y-66999999D01*
X129163763Y-67156818D01*
X129219780Y-67304523D01*
X129309515Y-67434528D01*
X129309516Y-67434529D01*
X129309517Y-67434530D01*
X129355932Y-67475649D01*
X129393058Y-67534838D01*
X129392290Y-67604703D01*
X129375756Y-67638902D01*
X129374420Y-67640836D01*
X129318404Y-67788540D01*
X129299362Y-67945359D01*
X129318404Y-68102177D01*
X129374421Y-68249882D01*
X129464156Y-68379887D01*
X129464157Y-68379888D01*
X129464158Y-68379889D01*
X129582401Y-68484642D01*
X129722276Y-68558055D01*
X129875656Y-68595859D01*
X130033626Y-68595859D01*
X130187006Y-68558055D01*
X130326881Y-68484642D01*
X130445026Y-68379975D01*
X130508256Y-68350256D01*
X130577520Y-68359440D01*
X130609476Y-68379977D01*
X130632077Y-68399999D01*
X130732860Y-68489284D01*
X130872735Y-68562697D01*
X131026115Y-68600501D01*
X131184085Y-68600501D01*
X131337465Y-68562697D01*
X131477340Y-68489284D01*
X131595583Y-68384531D01*
X131685320Y-68254524D01*
X131741337Y-68106819D01*
X131760378Y-67950001D01*
X131741337Y-67793183D01*
X131685320Y-67645478D01*
X131624043Y-67556703D01*
X131595584Y-67515472D01*
X131590343Y-67510829D01*
X131477340Y-67410718D01*
X131365706Y-67352127D01*
X131337464Y-67337304D01*
X131184085Y-67299501D01*
X131026115Y-67299501D01*
X130872735Y-67337304D01*
X130781005Y-67385449D01*
X130732860Y-67410718D01*
X130687955Y-67450500D01*
X130614715Y-67515383D01*
X130551481Y-67545103D01*
X130482218Y-67535919D01*
X130450262Y-67515381D01*
X130398709Y-67469709D01*
X130361582Y-67410520D01*
X130362350Y-67340654D01*
X130378887Y-67306454D01*
X130380220Y-67304523D01*
X130436237Y-67156818D01*
X130455278Y-67000000D01*
X130436237Y-66843182D01*
X130380220Y-66695477D01*
X130306919Y-66589282D01*
X130290484Y-66565471D01*
X130267160Y-66544808D01*
X130172240Y-66460717D01*
X130158994Y-66453765D01*
X130032364Y-66387303D01*
X129878985Y-66349500D01*
X129721015Y-66349500D01*
X129567635Y-66387303D01*
X129427761Y-66460716D01*
X129309515Y-66565471D01*
X129219780Y-66695476D01*
X129163763Y-66843181D01*
X129144721Y-66999999D01*
X121851359Y-66999999D01*
X121784323Y-66980315D01*
X121763681Y-66963681D01*
X121036319Y-66236319D01*
X121002834Y-66174996D01*
X121000000Y-66148638D01*
X121000000Y-64200000D01*
X120600000Y-63800000D01*
X119900000Y-63800000D01*
X119899999Y-63800000D01*
X119500000Y-64199999D01*
X119500000Y-66148637D01*
X119480315Y-66215676D01*
X119463681Y-66236318D01*
X118736319Y-66963681D01*
X118674996Y-66997166D01*
X118648638Y-67000000D01*
X118099999Y-67000000D01*
X117300000Y-67799999D01*
X117300000Y-67800000D01*
X117300000Y-72200000D01*
X112701821Y-72200000D01*
X112674133Y-72185468D01*
X112582364Y-72137303D01*
X112428985Y-72099500D01*
X112271015Y-72099500D01*
X112117635Y-72137303D01*
X111977761Y-72210716D01*
X111859515Y-72315471D01*
X111769780Y-72445476D01*
X111713763Y-72593181D01*
X111694721Y-72749999D01*
X111405500Y-72749999D01*
X111405500Y-72123307D01*
X111392300Y-72020687D01*
X111376417Y-71959969D01*
X111343204Y-71874209D01*
X111267416Y-71772465D01*
X111259212Y-71764454D01*
X111220272Y-71726430D01*
X111220271Y-71726429D01*
X111217426Y-71723651D01*
X111214251Y-71721262D01*
X111214240Y-71721253D01*
X111185326Y-71699501D01*
X111143588Y-71643468D01*
X111138769Y-71573765D01*
X111172399Y-71512522D01*
X111190158Y-71498453D01*
X111193053Y-71495944D01*
X111193057Y-71495942D01*
X111245861Y-71450187D01*
X111278728Y-71413332D01*
X111315041Y-71372617D01*
X111315042Y-71372615D01*
X111369389Y-71257977D01*
X111389074Y-71190938D01*
X111405500Y-71076692D01*
X111405500Y-66778114D01*
X111425185Y-66711075D01*
X111477989Y-66665320D01*
X111547147Y-66655376D01*
X111610703Y-66684401D01*
X111631547Y-66707671D01*
X111709517Y-66820630D01*
X111827760Y-66925383D01*
X111967635Y-66998796D01*
X112121015Y-67036600D01*
X112278985Y-67036600D01*
X112432365Y-66998796D01*
X112572240Y-66925383D01*
X112690483Y-66820630D01*
X112780220Y-66690623D01*
X112836237Y-66542918D01*
X112855278Y-66386100D01*
X112836237Y-66229282D01*
X112780220Y-66081577D01*
X112708245Y-65977303D01*
X112690484Y-65951571D01*
X112685355Y-65947027D01*
X112572240Y-65846817D01*
X112558994Y-65839865D01*
X112432364Y-65773403D01*
X112278985Y-65735600D01*
X112121015Y-65735600D01*
X111967635Y-65773403D01*
X111827761Y-65846816D01*
X111709515Y-65951571D01*
X111631550Y-66064525D01*
X111577267Y-66108515D01*
X111507819Y-66116175D01*
X111445254Y-66085072D01*
X111409436Y-66025081D01*
X111405500Y-65994085D01*
X111405500Y-64178114D01*
X111425185Y-64111075D01*
X111477989Y-64065320D01*
X111547147Y-64055376D01*
X111610703Y-64084401D01*
X111631547Y-64107671D01*
X111709517Y-64220630D01*
X111827760Y-64325383D01*
X111967635Y-64398796D01*
X112121015Y-64436600D01*
X112278985Y-64436600D01*
X112432365Y-64398796D01*
X112572240Y-64325383D01*
X112690483Y-64220630D01*
X112780220Y-64090623D01*
X112836237Y-63942918D01*
X112855278Y-63786100D01*
X112836237Y-63629282D01*
X112780220Y-63481577D01*
X112690483Y-63351570D01*
X112572240Y-63246817D01*
X112483039Y-63200000D01*
X112432364Y-63173403D01*
X112278985Y-63135600D01*
X112121015Y-63135600D01*
X111967635Y-63173403D01*
X111827761Y-63246816D01*
X111709515Y-63351571D01*
X111631550Y-63464525D01*
X111577267Y-63508515D01*
X111507819Y-63516175D01*
X111445254Y-63485072D01*
X111409436Y-63425081D01*
X111405500Y-63394085D01*
X111405500Y-63000000D01*
X118394721Y-63000000D01*
X118413763Y-63156818D01*
X118469780Y-63304523D01*
X118559515Y-63434528D01*
X118559516Y-63434529D01*
X118559517Y-63434530D01*
X118677760Y-63539283D01*
X118817635Y-63612696D01*
X118971015Y-63650500D01*
X119128985Y-63650500D01*
X119282365Y-63612696D01*
X119422240Y-63539283D01*
X119540483Y-63434530D01*
X119630220Y-63304523D01*
X119686237Y-63156818D01*
X119705278Y-63000000D01*
X119686237Y-62843182D01*
X119630220Y-62695477D01*
X119540483Y-62565470D01*
X119422240Y-62460717D01*
X119408994Y-62453765D01*
X119282364Y-62387303D01*
X119128985Y-62349500D01*
X118971015Y-62349500D01*
X118817635Y-62387303D01*
X118677761Y-62460716D01*
X118559515Y-62565471D01*
X118469780Y-62695476D01*
X118413763Y-62843181D01*
X118394721Y-63000000D01*
X111405500Y-63000000D01*
X111405500Y-61378114D01*
X111425185Y-61311075D01*
X111477989Y-61265320D01*
X111547147Y-61255376D01*
X111610703Y-61284401D01*
X111631547Y-61307671D01*
X111709517Y-61420630D01*
X111827760Y-61525383D01*
X111967635Y-61598796D01*
X112121015Y-61636600D01*
X112278985Y-61636600D01*
X112432365Y-61598796D01*
X112572240Y-61525383D01*
X112690483Y-61420630D01*
X112780220Y-61290623D01*
X112836237Y-61142918D01*
X112855278Y-60986100D01*
X112836237Y-60829282D01*
X112780220Y-60681577D01*
X112700078Y-60565471D01*
X112690484Y-60551571D01*
X112646534Y-60512635D01*
X112572240Y-60446817D01*
X112471291Y-60393834D01*
X112432364Y-60373403D01*
X112278985Y-60335600D01*
X112121015Y-60335600D01*
X111967635Y-60373403D01*
X111827761Y-60446816D01*
X111709515Y-60551571D01*
X111631550Y-60664525D01*
X111577267Y-60708515D01*
X111507819Y-60716175D01*
X111445254Y-60685072D01*
X111409436Y-60625081D01*
X111405500Y-60594085D01*
X111405500Y-58778114D01*
X111425185Y-58711075D01*
X111477989Y-58665320D01*
X111547147Y-58655376D01*
X111610703Y-58684401D01*
X111631547Y-58707671D01*
X111709517Y-58820630D01*
X111827760Y-58925383D01*
X111967635Y-58998796D01*
X112121015Y-59036600D01*
X112278985Y-59036600D01*
X112427480Y-59000000D01*
X114869221Y-59000000D01*
X114888263Y-59156818D01*
X114944280Y-59304523D01*
X115033526Y-59433819D01*
X115055409Y-59500174D01*
X115037943Y-59567825D01*
X115033526Y-59574698D01*
X114963263Y-59676491D01*
X114907246Y-59824198D01*
X114888204Y-59981017D01*
X114907246Y-60137835D01*
X114963263Y-60285540D01*
X115052998Y-60415545D01*
X115052999Y-60415546D01*
X115053000Y-60415547D01*
X115171243Y-60520300D01*
X115311118Y-60593713D01*
X115464498Y-60631517D01*
X115622465Y-60631517D01*
X115622468Y-60631517D01*
X115636704Y-60628008D01*
X115706503Y-60631075D01*
X115763566Y-60671393D01*
X115782321Y-60704433D01*
X115820280Y-60804523D01*
X115910015Y-60934528D01*
X115910016Y-60934529D01*
X115910017Y-60934530D01*
X116028260Y-61039283D01*
X116168135Y-61112696D01*
X116321515Y-61150500D01*
X116479485Y-61150500D01*
X116632865Y-61112696D01*
X116772740Y-61039283D01*
X116890983Y-60934530D01*
X116980720Y-60804523D01*
X117036737Y-60656818D01*
X117055778Y-60500000D01*
X117054794Y-60491900D01*
X117050957Y-60460296D01*
X117036737Y-60343182D01*
X116980720Y-60195477D01*
X116915611Y-60101150D01*
X116890984Y-60065471D01*
X116881734Y-60057276D01*
X116772740Y-59960717D01*
X116730842Y-59938727D01*
X116632864Y-59887303D01*
X116479485Y-59849500D01*
X116321515Y-59849500D01*
X116321512Y-59849500D01*
X116307273Y-59853009D01*
X116237471Y-59849937D01*
X116180410Y-59809615D01*
X116161661Y-59776582D01*
X116138485Y-59715471D01*
X116123703Y-59676494D01*
X116034455Y-59547195D01*
X116012573Y-59480844D01*
X116030038Y-59413192D01*
X116034456Y-59406318D01*
X116049698Y-59384237D01*
X116104720Y-59304523D01*
X116160737Y-59156818D01*
X116179778Y-59000000D01*
X116160737Y-58843182D01*
X116160736Y-58843181D01*
X116158922Y-58828236D01*
X116160483Y-58828046D01*
X116156517Y-58776536D01*
X116189666Y-58715031D01*
X116248148Y-58681836D01*
X116400865Y-58644196D01*
X116540740Y-58570783D01*
X116658983Y-58466030D01*
X116748720Y-58336023D01*
X116804737Y-58188318D01*
X116823778Y-58031500D01*
X116804737Y-57874682D01*
X116748720Y-57726977D01*
X116686723Y-57637158D01*
X116658984Y-57596971D01*
X116658983Y-57596970D01*
X116540740Y-57492217D01*
X116527494Y-57485264D01*
X116400864Y-57418803D01*
X116247485Y-57381000D01*
X116089515Y-57381000D01*
X115936135Y-57418803D01*
X115796261Y-57492216D01*
X115678015Y-57596971D01*
X115588280Y-57726976D01*
X115532263Y-57874681D01*
X115513221Y-58031499D01*
X115534078Y-58203264D01*
X115532515Y-58203453D01*
X115536481Y-58254969D01*
X115503329Y-58316472D01*
X115444849Y-58349664D01*
X115292135Y-58387303D01*
X115152261Y-58460716D01*
X115034015Y-58565471D01*
X114944280Y-58695476D01*
X114888263Y-58843181D01*
X114869221Y-59000000D01*
X112427480Y-59000000D01*
X112432365Y-58998796D01*
X112572240Y-58925383D01*
X112690483Y-58820630D01*
X112780220Y-58690623D01*
X112836237Y-58542918D01*
X112855278Y-58386100D01*
X112836237Y-58229282D01*
X112780220Y-58081577D01*
X112717274Y-57990383D01*
X112690484Y-57951571D01*
X112673498Y-57936523D01*
X112572240Y-57846817D01*
X112543824Y-57831903D01*
X112432364Y-57773403D01*
X112278985Y-57735600D01*
X112121015Y-57735600D01*
X111967635Y-57773403D01*
X111827761Y-57846816D01*
X111709515Y-57951571D01*
X111631550Y-58064525D01*
X111577267Y-58108515D01*
X111507819Y-58116175D01*
X111445254Y-58085072D01*
X111409436Y-58025081D01*
X111405500Y-57994085D01*
X111405500Y-55978114D01*
X111425185Y-55911075D01*
X111477989Y-55865320D01*
X111547147Y-55855376D01*
X111610703Y-55884401D01*
X111631547Y-55907671D01*
X111709517Y-56020630D01*
X111827760Y-56125383D01*
X111967635Y-56198796D01*
X112121015Y-56236600D01*
X112278985Y-56236600D01*
X112432365Y-56198796D01*
X112572240Y-56125383D01*
X112690483Y-56020630D01*
X112780220Y-55890623D01*
X112836237Y-55742918D01*
X112855278Y-55586100D01*
X112836237Y-55429282D01*
X112780220Y-55281577D01*
X112703789Y-55170847D01*
X112690484Y-55151571D01*
X112677913Y-55140434D01*
X112572240Y-55046817D01*
X112549647Y-55034959D01*
X112432364Y-54973403D01*
X112278985Y-54935600D01*
X112121015Y-54935600D01*
X111967635Y-54973403D01*
X111827761Y-55046816D01*
X111709515Y-55151571D01*
X111619779Y-55281576D01*
X111589166Y-55362299D01*
X111546988Y-55418002D01*
X111481391Y-55442059D01*
X111413200Y-55426832D01*
X111364067Y-55377156D01*
X111351607Y-55342519D01*
X111331145Y-55239650D01*
X111330697Y-55237654D01*
X111325118Y-55213803D01*
X111324612Y-55211853D01*
X111320920Y-55198137D01*
X111320344Y-55196180D01*
X111313219Y-55172752D01*
X111312589Y-55170847D01*
X111234351Y-54940413D01*
X111233650Y-54938503D01*
X111225008Y-54915586D01*
X111224246Y-54913704D01*
X111218801Y-54900600D01*
X111217975Y-54898736D01*
X111207846Y-54876421D01*
X111206966Y-54874599D01*
X111099327Y-54656367D01*
X111098384Y-54654567D01*
X111086812Y-54632956D01*
X111085816Y-54631199D01*
X111078702Y-54618910D01*
X111077635Y-54617162D01*
X111064697Y-54596387D01*
X111063598Y-54594714D01*
X110928384Y-54392379D01*
X110927204Y-54390703D01*
X110912936Y-54370821D01*
X110911709Y-54369194D01*
X110903062Y-54357952D01*
X110901798Y-54356387D01*
X110886218Y-54337428D01*
X110884889Y-54335888D01*
X110721757Y-54149897D01*
X110712747Y-54139955D01*
X110707148Y-54133981D01*
X110697980Y-54124513D01*
X110570704Y-53997240D01*
X109853849Y-53280385D01*
X109820388Y-53219104D01*
X109825372Y-53149412D01*
X109867244Y-53093479D01*
X109932708Y-53069062D01*
X109941554Y-53068746D01*
X110082231Y-53068746D01*
X110235611Y-53030942D01*
X110375486Y-52957529D01*
X110493729Y-52852776D01*
X110583466Y-52722769D01*
X110639483Y-52575064D01*
X110657643Y-52425500D01*
X112494152Y-52425500D01*
X112513194Y-52582318D01*
X112569211Y-52730023D01*
X112658946Y-52860028D01*
X112658947Y-52860029D01*
X112658948Y-52860030D01*
X112777191Y-52964783D01*
X112917066Y-53038196D01*
X113070446Y-53076000D01*
X113228416Y-53076000D01*
X113381796Y-53038196D01*
X113521671Y-52964783D01*
X113639914Y-52860030D01*
X113729651Y-52730023D01*
X113785668Y-52582318D01*
X113804709Y-52425500D01*
X113785668Y-52268682D01*
X113729651Y-52120977D01*
X113639914Y-51990970D01*
X113521671Y-51886217D01*
X113507848Y-51878962D01*
X113381795Y-51812803D01*
X113228416Y-51775000D01*
X113070446Y-51775000D01*
X112917066Y-51812803D01*
X112777192Y-51886216D01*
X112658946Y-51990971D01*
X112569211Y-52120976D01*
X112513194Y-52268681D01*
X112494152Y-52425500D01*
X110657643Y-52425500D01*
X110658524Y-52418246D01*
X110639483Y-52261428D01*
X110583466Y-52113723D01*
X110493729Y-51983716D01*
X110375486Y-51878963D01*
X110362240Y-51872011D01*
X110235610Y-51805549D01*
X110082231Y-51767746D01*
X109924261Y-51767746D01*
X109770881Y-51805549D01*
X109631007Y-51878962D01*
X109512761Y-51983717D01*
X109423026Y-52113722D01*
X109367009Y-52261427D01*
X109347967Y-52418246D01*
X109353892Y-52467038D01*
X109342431Y-52535961D01*
X109295527Y-52587747D01*
X109228072Y-52605954D01*
X109161481Y-52584801D01*
X109143194Y-52569730D01*
X107535963Y-50962499D01*
X114009721Y-50962499D01*
X114028763Y-51119318D01*
X114084780Y-51267023D01*
X114174515Y-51397028D01*
X114174516Y-51397029D01*
X114174517Y-51397030D01*
X114292760Y-51501783D01*
X114432635Y-51575196D01*
X114586015Y-51613000D01*
X114743985Y-51613000D01*
X114897365Y-51575196D01*
X115037240Y-51501783D01*
X115095693Y-51449999D01*
X135234721Y-51449999D01*
X135253763Y-51606818D01*
X135309780Y-51754523D01*
X135399515Y-51884528D01*
X135399516Y-51884529D01*
X135399517Y-51884530D01*
X135517760Y-51989283D01*
X135657635Y-52062696D01*
X135811015Y-52100500D01*
X135968985Y-52100500D01*
X136122365Y-52062696D01*
X136262240Y-51989283D01*
X136380483Y-51884530D01*
X136470220Y-51754523D01*
X136526237Y-51606818D01*
X136545278Y-51450000D01*
X136526237Y-51293182D01*
X136470220Y-51145477D01*
X136380483Y-51015470D01*
X136262240Y-50910717D01*
X136248994Y-50903765D01*
X136122364Y-50837303D01*
X135968985Y-50799500D01*
X135811015Y-50799500D01*
X135657635Y-50837303D01*
X135517761Y-50910716D01*
X135399515Y-51015471D01*
X135309780Y-51145476D01*
X135253763Y-51293181D01*
X135234721Y-51449999D01*
X115095693Y-51449999D01*
X115155483Y-51397030D01*
X115245220Y-51267023D01*
X115301237Y-51119318D01*
X115320278Y-50962500D01*
X115301237Y-50805682D01*
X115245220Y-50657977D01*
X115163292Y-50539283D01*
X115155484Y-50527971D01*
X115099536Y-50478406D01*
X115037240Y-50423217D01*
X114957796Y-50381521D01*
X114897364Y-50349803D01*
X114743985Y-50312000D01*
X114586015Y-50312000D01*
X114432635Y-50349803D01*
X114292761Y-50423216D01*
X114174515Y-50527971D01*
X114084780Y-50657976D01*
X114028763Y-50805681D01*
X114009721Y-50962499D01*
X107535963Y-50962499D01*
X106644594Y-50071130D01*
X106643499Y-50070075D01*
X106630186Y-50057413D01*
X106629063Y-50056383D01*
X106621170Y-50049241D01*
X106620027Y-50048243D01*
X106606093Y-50036235D01*
X106604912Y-50035253D01*
X106438495Y-49898690D01*
X106438487Y-49898684D01*
X106437320Y-49897726D01*
X106405366Y-49874026D01*
X106404112Y-49873188D01*
X106404102Y-49873181D01*
X106386462Y-49861394D01*
X106386461Y-49861393D01*
X106385163Y-49860526D01*
X106383850Y-49859739D01*
X106383839Y-49859732D01*
X106352312Y-49840835D01*
X106352299Y-49840827D01*
X106351020Y-49840061D01*
X106349679Y-49839344D01*
X106165220Y-49740749D01*
X106165203Y-49740740D01*
X106163857Y-49740021D01*
X106127870Y-49723001D01*
X106126465Y-49722419D01*
X106126449Y-49722412D01*
X106106822Y-49714283D01*
X106106798Y-49714274D01*
X106105420Y-49713703D01*
X106104019Y-49713201D01*
X106103986Y-49713189D01*
X106069401Y-49700816D01*
X106067970Y-49700304D01*
X105864893Y-49638700D01*
X105863419Y-49638330D01*
X105863409Y-49638328D01*
X105827763Y-49629399D01*
X105827754Y-49629397D01*
X105826301Y-49629033D01*
X105824839Y-49628742D01*
X105824825Y-49628739D01*
X105803952Y-49624586D01*
X105803919Y-49624580D01*
X105802465Y-49624291D01*
X105800989Y-49624072D01*
X105800960Y-49624067D01*
X105764600Y-49618674D01*
X105764594Y-49618673D01*
X105763089Y-49618450D01*
X105761566Y-49618300D01*
X105555689Y-49598023D01*
X105555676Y-49598022D01*
X105553939Y-49597851D01*
X105552208Y-49597780D01*
X105552178Y-49597778D01*
X105524424Y-49596642D01*
X105458246Y-49574230D01*
X105414691Y-49519598D01*
X105410846Y-49499999D01*
X117704722Y-49499999D01*
X117723792Y-49717974D01*
X117771956Y-49897726D01*
X117780425Y-49929330D01*
X117872898Y-50127639D01*
X117998402Y-50306877D01*
X118153123Y-50461598D01*
X118332361Y-50587102D01*
X118530670Y-50679575D01*
X118742023Y-50736207D01*
X118960000Y-50755277D01*
X119177977Y-50736207D01*
X119389330Y-50679575D01*
X119587639Y-50587102D01*
X119766877Y-50461598D01*
X119921598Y-50306877D01*
X120023928Y-50160734D01*
X120078502Y-50117112D01*
X120148000Y-50109918D01*
X120210355Y-50141441D01*
X120245769Y-50201670D01*
X120249500Y-50231859D01*
X120249500Y-50381514D01*
X120249501Y-50381518D01*
X120264354Y-50475304D01*
X120264354Y-50475305D01*
X120264355Y-50475306D01*
X120321949Y-50588342D01*
X120411656Y-50678049D01*
X120411658Y-50678050D01*
X120524696Y-50735646D01*
X120618481Y-50750500D01*
X122381518Y-50750499D01*
X122475304Y-50735646D01*
X122588342Y-50678050D01*
X122678050Y-50588342D01*
X122735646Y-50475304D01*
X122750500Y-50381519D01*
X122750500Y-50000000D01*
X126344721Y-50000000D01*
X126363763Y-50156818D01*
X126419780Y-50304523D01*
X126509515Y-50434528D01*
X126509516Y-50434529D01*
X126509517Y-50434530D01*
X126627760Y-50539283D01*
X126767635Y-50612696D01*
X126921015Y-50650500D01*
X127078985Y-50650500D01*
X127232365Y-50612696D01*
X127372240Y-50539283D01*
X127417774Y-50498943D01*
X127481006Y-50469222D01*
X127550269Y-50478406D01*
X127582224Y-50498942D01*
X127627760Y-50539283D01*
X127767635Y-50612696D01*
X127921015Y-50650500D01*
X128078985Y-50650500D01*
X128232365Y-50612696D01*
X128372240Y-50539283D01*
X128490483Y-50434530D01*
X128580220Y-50304523D01*
X128636237Y-50156818D01*
X128655278Y-50000000D01*
X128636237Y-49843182D01*
X128580220Y-49695477D01*
X128512784Y-49597778D01*
X128490484Y-49565471D01*
X128451322Y-49530777D01*
X128372240Y-49460717D01*
X128257508Y-49400500D01*
X128232364Y-49387303D01*
X128078985Y-49349500D01*
X127921015Y-49349500D01*
X127767635Y-49387303D01*
X127627758Y-49460718D01*
X127582226Y-49501056D01*
X127518993Y-49530777D01*
X127449729Y-49521593D01*
X127417774Y-49501056D01*
X127372241Y-49460718D01*
X127372240Y-49460717D01*
X127257508Y-49400500D01*
X127232364Y-49387303D01*
X127078985Y-49349500D01*
X126921015Y-49349500D01*
X126767635Y-49387303D01*
X126627761Y-49460716D01*
X126509515Y-49565471D01*
X126419780Y-49695476D01*
X126363763Y-49843181D01*
X126344721Y-50000000D01*
X122750500Y-50000000D01*
X122750499Y-48749999D01*
X130782221Y-48749999D01*
X130801263Y-48906818D01*
X130857280Y-49054523D01*
X130947015Y-49184528D01*
X130947016Y-49184529D01*
X130947017Y-49184530D01*
X131065260Y-49289283D01*
X131205135Y-49362696D01*
X131358515Y-49400500D01*
X131516485Y-49400500D01*
X131669865Y-49362696D01*
X131809740Y-49289283D01*
X131927983Y-49184530D01*
X132017720Y-49054523D01*
X132073737Y-48906818D01*
X132092778Y-48750000D01*
X132073737Y-48593182D01*
X132017720Y-48445477D01*
X131927983Y-48315470D01*
X131809740Y-48210717D01*
X131734705Y-48171335D01*
X131669864Y-48137303D01*
X131516485Y-48099500D01*
X131358515Y-48099500D01*
X131205135Y-48137303D01*
X131065261Y-48210716D01*
X130947015Y-48315471D01*
X130857280Y-48445476D01*
X130801263Y-48593181D01*
X130782221Y-48749999D01*
X122750499Y-48749999D01*
X122750499Y-48618482D01*
X122735646Y-48524696D01*
X122678682Y-48412898D01*
X122678050Y-48411657D01*
X122588343Y-48321950D01*
X122475302Y-48264353D01*
X122381521Y-48249500D01*
X120618485Y-48249500D01*
X120571589Y-48256927D01*
X120524696Y-48264354D01*
X120524694Y-48264354D01*
X120524693Y-48264355D01*
X120411657Y-48321949D01*
X120321950Y-48411656D01*
X120264353Y-48524697D01*
X120249499Y-48618478D01*
X120249500Y-48768138D01*
X120229815Y-48835177D01*
X120177011Y-48880932D01*
X120107853Y-48890876D01*
X120044297Y-48861851D01*
X120023925Y-48839262D01*
X120021065Y-48835177D01*
X119921598Y-48693123D01*
X119766877Y-48538402D01*
X119587639Y-48412898D01*
X119496205Y-48370261D01*
X119389331Y-48320425D01*
X119177974Y-48263792D01*
X118960000Y-48244722D01*
X118742025Y-48263792D01*
X118530668Y-48320425D01*
X118332361Y-48412898D01*
X118153122Y-48538402D01*
X117998402Y-48693122D01*
X117872898Y-48872361D01*
X117780425Y-49070668D01*
X117723792Y-49282025D01*
X117704722Y-49499999D01*
X105410846Y-49499999D01*
X105405499Y-49472749D01*
X105405499Y-49283098D01*
X105425184Y-49216061D01*
X105477988Y-49170306D01*
X105547146Y-49160362D01*
X105559160Y-49162700D01*
X105667390Y-49189376D01*
X105667391Y-49189376D01*
X105825360Y-49189376D01*
X105978740Y-49151572D01*
X106118615Y-49078159D01*
X106236858Y-48973406D01*
X106326595Y-48843399D01*
X106382612Y-48695694D01*
X106401653Y-48538876D01*
X106403468Y-48523929D01*
X106405695Y-48524199D01*
X106413793Y-48475518D01*
X106460699Y-48423734D01*
X106525426Y-48405500D01*
X113995572Y-48405500D01*
X114010048Y-48405242D01*
X114010072Y-48405241D01*
X114010192Y-48405239D01*
X114019120Y-48404918D01*
X114032919Y-48404173D01*
X114033347Y-48404151D01*
X114033354Y-48404150D01*
X114033493Y-48404143D01*
X114270193Y-48387211D01*
X114304714Y-48384742D01*
X114304726Y-48384740D01*
X114306911Y-48384525D01*
X114333497Y-48381647D01*
X114335706Y-48381350D01*
X114351009Y-48379129D01*
X114353190Y-48378756D01*
X114379492Y-48373990D01*
X114381645Y-48373541D01*
X114564305Y-48333786D01*
X114573695Y-48331744D01*
X114622398Y-48317915D01*
X114651545Y-48307633D01*
X114687730Y-48292871D01*
X114792964Y-48222010D01*
X114844101Y-48174399D01*
X114910470Y-48094405D01*
X114960689Y-47977899D01*
X114974563Y-47923539D01*
X115010212Y-47863453D01*
X115072691Y-47832177D01*
X115122792Y-47833427D01*
X115234779Y-47859468D01*
X115304471Y-47864452D01*
X115408242Y-47858518D01*
X115527732Y-47815884D01*
X115556823Y-47799999D01*
X127144721Y-47799999D01*
X127163763Y-47956818D01*
X127219780Y-48104523D01*
X127309515Y-48234528D01*
X127309516Y-48234529D01*
X127309517Y-48234530D01*
X127427760Y-48339283D01*
X127567635Y-48412696D01*
X127721015Y-48450500D01*
X127878985Y-48450500D01*
X128032365Y-48412696D01*
X128172240Y-48339283D01*
X128290483Y-48234530D01*
X128380220Y-48104523D01*
X128436237Y-47956818D01*
X128455278Y-47800000D01*
X128436237Y-47643182D01*
X128380220Y-47495477D01*
X128290483Y-47365470D01*
X128172240Y-47260717D01*
X128158994Y-47253765D01*
X128032364Y-47187303D01*
X127878985Y-47149500D01*
X127721015Y-47149500D01*
X127567635Y-47187303D01*
X127427761Y-47260716D01*
X127309515Y-47365471D01*
X127219780Y-47495476D01*
X127163763Y-47643181D01*
X127144721Y-47799999D01*
X115556823Y-47799999D01*
X115589055Y-47782399D01*
X115681451Y-47713232D01*
X115791957Y-47602726D01*
X115793488Y-47601111D01*
X115811672Y-47581551D01*
X115813131Y-47579897D01*
X115823258Y-47568181D01*
X115824663Y-47566469D01*
X115841430Y-47545632D01*
X115842778Y-47543865D01*
X116001812Y-47331388D01*
X116003079Y-47329596D01*
X116018325Y-47307604D01*
X116019554Y-47305730D01*
X116027890Y-47292720D01*
X116029020Y-47290852D01*
X116042657Y-47267831D01*
X116043741Y-47265888D01*
X116170910Y-47032952D01*
X116171917Y-47030985D01*
X116183862Y-47007079D01*
X116184805Y-47005064D01*
X116191212Y-46990986D01*
X116192074Y-46988957D01*
X116202294Y-46964233D01*
X116203092Y-46962152D01*
X116295821Y-46713479D01*
X116296541Y-46711380D01*
X116304966Y-46686000D01*
X116305602Y-46683902D01*
X116309950Y-46669024D01*
X116310520Y-46666872D01*
X116317105Y-46640989D01*
X116317591Y-46638845D01*
X116373990Y-46379492D01*
X116374405Y-46377304D01*
X116379129Y-46351009D01*
X116379464Y-46348821D01*
X116381647Y-46333497D01*
X116381901Y-46331315D01*
X116384742Y-46304713D01*
X116384920Y-46302499D01*
X116403834Y-46037773D01*
X116403933Y-46035560D01*
X116404867Y-46008845D01*
X116404887Y-46006632D01*
X116404867Y-45991153D01*
X116404808Y-45988941D01*
X116403834Y-45962225D01*
X116403696Y-45960017D01*
X116384742Y-45695286D01*
X116384525Y-45693089D01*
X116381647Y-45666502D01*
X116381350Y-45664293D01*
X116379129Y-45648990D01*
X116378756Y-45646809D01*
X116373990Y-45620507D01*
X116373541Y-45618354D01*
X116317105Y-45359010D01*
X116316574Y-45356848D01*
X116309950Y-45330975D01*
X116309349Y-45328860D01*
X116304966Y-45313999D01*
X116304280Y-45311872D01*
X116295821Y-45286520D01*
X116295067Y-45284441D01*
X116202294Y-45035766D01*
X116201470Y-45033726D01*
X116191212Y-45009013D01*
X116190307Y-45006982D01*
X116183862Y-44992920D01*
X116182894Y-44990942D01*
X116170910Y-44967047D01*
X116169867Y-44965095D01*
X116042657Y-44732168D01*
X116041551Y-44730266D01*
X116027890Y-44707279D01*
X116026695Y-44705381D01*
X116018325Y-44692395D01*
X116017094Y-44690589D01*
X116001812Y-44668611D01*
X116000489Y-44666810D01*
X115841430Y-44454367D01*
X115840061Y-44452637D01*
X115823258Y-44431818D01*
X115821823Y-44430132D01*
X115811672Y-44418448D01*
X115810175Y-44416811D01*
X115791957Y-44397273D01*
X115790415Y-44395704D01*
X115602726Y-44208042D01*
X115601111Y-44206511D01*
X115581551Y-44188327D01*
X115579897Y-44186868D01*
X115568181Y-44176741D01*
X115566469Y-44175336D01*
X115545632Y-44158569D01*
X115543865Y-44157221D01*
X115509477Y-44131482D01*
X118245500Y-44131482D01*
X118284691Y-44391507D01*
X118324560Y-44520756D01*
X118362202Y-44642788D01*
X118405245Y-44732168D01*
X118476296Y-44879707D01*
X118476297Y-44879709D01*
X118476298Y-44879710D01*
X118624430Y-45096980D01*
X118803290Y-45289746D01*
X119008883Y-45453701D01*
X119236616Y-45585183D01*
X119393637Y-45646809D01*
X119479944Y-45680682D01*
X119481402Y-45681254D01*
X119737772Y-45739769D01*
X119934346Y-45754500D01*
X119936663Y-45754500D01*
X120063337Y-45754500D01*
X120065654Y-45754500D01*
X120262228Y-45739769D01*
X120518598Y-45681254D01*
X120763384Y-45585183D01*
X120991117Y-45453701D01*
X121196710Y-45289746D01*
X121375570Y-45096980D01*
X121467257Y-44962500D01*
X127369678Y-44962500D01*
X127388923Y-45170198D01*
X127446005Y-45370819D01*
X127538978Y-45557535D01*
X127664682Y-45723994D01*
X127818826Y-45864514D01*
X127818828Y-45864515D01*
X127818829Y-45864516D01*
X127996172Y-45974323D01*
X128190673Y-46049673D01*
X128395707Y-46088000D01*
X128395709Y-46088000D01*
X128604291Y-46088000D01*
X128604293Y-46088000D01*
X128809327Y-46049673D01*
X129003828Y-45974323D01*
X129181171Y-45864516D01*
X129302044Y-45754326D01*
X129335317Y-45723994D01*
X129335318Y-45723993D01*
X129461019Y-45557538D01*
X129461019Y-45557536D01*
X129461021Y-45557535D01*
X129553994Y-45370819D01*
X129587780Y-45252075D01*
X130344721Y-45252075D01*
X130363763Y-45408893D01*
X130419780Y-45556598D01*
X130509515Y-45686603D01*
X130509516Y-45686604D01*
X130509517Y-45686605D01*
X130627760Y-45791358D01*
X130767635Y-45864771D01*
X130921015Y-45902575D01*
X130921018Y-45902575D01*
X130922036Y-45902826D01*
X130982417Y-45937981D01*
X131004724Y-45981643D01*
X131008424Y-45980240D01*
X131069780Y-46142023D01*
X131159515Y-46272028D01*
X131159516Y-46272029D01*
X131159517Y-46272030D01*
X131277760Y-46376783D01*
X131417635Y-46450196D01*
X131571015Y-46488000D01*
X131728985Y-46488000D01*
X131882365Y-46450196D01*
X132022240Y-46376783D01*
X132140483Y-46272030D01*
X132230220Y-46142023D01*
X132286237Y-45994318D01*
X132305278Y-45837500D01*
X132286237Y-45680682D01*
X132230220Y-45532977D01*
X132222998Y-45522514D01*
X132201116Y-45456159D01*
X132218582Y-45388508D01*
X132269850Y-45341039D01*
X132325049Y-45328075D01*
X132347944Y-45328075D01*
X132414983Y-45347760D01*
X132458944Y-45396803D01*
X132538980Y-45557537D01*
X132664682Y-45723994D01*
X132818826Y-45864514D01*
X132818828Y-45864515D01*
X132818829Y-45864516D01*
X132996172Y-45974323D01*
X133190673Y-46049673D01*
X133395707Y-46088000D01*
X133395709Y-46088000D01*
X133604291Y-46088000D01*
X133604293Y-46088000D01*
X133809327Y-46049673D01*
X134003828Y-45974323D01*
X134181171Y-45864516D01*
X134302044Y-45754326D01*
X134335317Y-45723994D01*
X134335318Y-45723993D01*
X134461019Y-45557538D01*
X134461019Y-45557536D01*
X134461021Y-45557535D01*
X134553994Y-45370819D01*
X134611076Y-45170198D01*
X134617860Y-45096981D01*
X134630322Y-44962500D01*
X134611076Y-44754804D01*
X134611076Y-44754801D01*
X134553994Y-44554180D01*
X134461021Y-44367464D01*
X134335317Y-44201005D01*
X134181173Y-44060485D01*
X134003827Y-43950676D01*
X133809328Y-43875327D01*
X133740982Y-43862551D01*
X133604293Y-43837000D01*
X133395707Y-43837000D01*
X133293189Y-43856163D01*
X133190671Y-43875327D01*
X132996172Y-43950676D01*
X132818826Y-44060485D01*
X132775320Y-44100146D01*
X132712515Y-44130763D01*
X132643128Y-44122564D01*
X132634161Y-44118306D01*
X132596396Y-44098485D01*
X132532364Y-44064878D01*
X132378985Y-44027075D01*
X132221015Y-44027075D01*
X132067635Y-44064878D01*
X131927761Y-44138291D01*
X131809515Y-44243046D01*
X131719780Y-44373051D01*
X131663763Y-44520756D01*
X131642907Y-44692522D01*
X131638135Y-44691942D01*
X131631390Y-44732075D01*
X131584395Y-44783778D01*
X131516907Y-44801866D01*
X131450354Y-44780596D01*
X131437635Y-44770726D01*
X131372240Y-44712792D01*
X131329936Y-44690589D01*
X131232364Y-44639378D01*
X131078985Y-44601575D01*
X130921015Y-44601575D01*
X130767635Y-44639378D01*
X130627761Y-44712791D01*
X130509515Y-44817546D01*
X130419780Y-44947551D01*
X130363763Y-45095256D01*
X130344721Y-45252075D01*
X129587780Y-45252075D01*
X129611076Y-45170198D01*
X129617860Y-45096981D01*
X129630322Y-44962500D01*
X129611076Y-44754804D01*
X129611076Y-44754801D01*
X129553994Y-44554180D01*
X129461021Y-44367464D01*
X129335317Y-44201005D01*
X129181173Y-44060485D01*
X129003827Y-43950676D01*
X128809328Y-43875327D01*
X128740982Y-43862551D01*
X128604293Y-43837000D01*
X128395707Y-43837000D01*
X128293189Y-43856163D01*
X128190671Y-43875327D01*
X127996172Y-43950676D01*
X127818826Y-44060485D01*
X127664682Y-44201005D01*
X127538978Y-44367464D01*
X127446005Y-44554180D01*
X127388923Y-44754801D01*
X127369678Y-44962500D01*
X121467257Y-44962500D01*
X121523702Y-44879710D01*
X121637798Y-44642788D01*
X121715308Y-44391508D01*
X121754500Y-44131482D01*
X121754500Y-43868518D01*
X121746750Y-43817102D01*
X121715308Y-43608492D01*
X121711408Y-43595849D01*
X121637798Y-43357212D01*
X121523702Y-43120290D01*
X121375570Y-42903020D01*
X121196710Y-42710254D01*
X121137759Y-42663242D01*
X126499500Y-42663242D01*
X126499816Y-42666353D01*
X126499817Y-42666365D01*
X126514926Y-42814940D01*
X126542561Y-42903018D01*
X126575841Y-43009088D01*
X126674591Y-43187002D01*
X126807134Y-43341395D01*
X126968042Y-43465948D01*
X127150729Y-43555560D01*
X127347715Y-43606563D01*
X127550936Y-43616869D01*
X127550936Y-43616868D01*
X127550937Y-43616869D01*
X127752071Y-43586056D01*
X127834413Y-43555560D01*
X127942887Y-43515386D01*
X128115571Y-43407752D01*
X128263053Y-43267559D01*
X128379295Y-43100549D01*
X128459540Y-42913558D01*
X128500500Y-42714241D01*
X128500500Y-42663242D01*
X133499500Y-42663242D01*
X133499816Y-42666353D01*
X133499817Y-42666365D01*
X133514926Y-42814940D01*
X133542561Y-42903018D01*
X133575841Y-43009088D01*
X133674591Y-43187002D01*
X133807134Y-43341395D01*
X133968042Y-43465948D01*
X134150729Y-43555560D01*
X134347715Y-43606563D01*
X134550936Y-43616869D01*
X134550936Y-43616868D01*
X134550937Y-43616869D01*
X134752071Y-43586056D01*
X134834413Y-43555560D01*
X134942887Y-43515386D01*
X135115571Y-43407752D01*
X135263053Y-43267559D01*
X135379295Y-43100549D01*
X135459540Y-42913558D01*
X135500500Y-42714241D01*
X135500500Y-41861758D01*
X135485074Y-41710062D01*
X135424159Y-41515912D01*
X135325409Y-41337998D01*
X135192866Y-41183605D01*
X135031958Y-41059052D01*
X135031957Y-41059051D01*
X134849272Y-40969440D01*
X134773428Y-40949803D01*
X134652285Y-40918437D01*
X134631670Y-40917391D01*
X134449062Y-40908130D01*
X134247928Y-40938943D01*
X134057113Y-41009613D01*
X133884431Y-41117245D01*
X133873148Y-41127971D01*
X133736947Y-41257441D01*
X133736946Y-41257443D01*
X133620705Y-41424450D01*
X133561463Y-41562500D01*
X133540460Y-41611442D01*
X133499500Y-41810759D01*
X133499500Y-42663242D01*
X128500500Y-42663242D01*
X128500500Y-41861758D01*
X128485074Y-41710062D01*
X128424159Y-41515912D01*
X128325409Y-41337998D01*
X128192866Y-41183605D01*
X128031958Y-41059052D01*
X128031957Y-41059051D01*
X127849272Y-40969440D01*
X127773428Y-40949803D01*
X127652285Y-40918437D01*
X127631671Y-40917391D01*
X127449062Y-40908130D01*
X127247928Y-40938943D01*
X127057113Y-41009613D01*
X126884431Y-41117245D01*
X126873148Y-41127971D01*
X126736947Y-41257441D01*
X126736946Y-41257443D01*
X126620705Y-41424450D01*
X126561463Y-41562500D01*
X126540460Y-41611442D01*
X126499500Y-41810759D01*
X126499500Y-42663242D01*
X121137759Y-42663242D01*
X120991117Y-42546299D01*
X120991116Y-42546298D01*
X120763382Y-42414816D01*
X120518600Y-42318746D01*
X120262225Y-42260230D01*
X120067968Y-42245673D01*
X120067957Y-42245672D01*
X120065654Y-42245500D01*
X119934346Y-42245500D01*
X119932043Y-42245672D01*
X119932031Y-42245673D01*
X119737774Y-42260230D01*
X119481399Y-42318746D01*
X119236617Y-42414816D01*
X119008883Y-42546298D01*
X118803290Y-42710253D01*
X118624431Y-42903018D01*
X118476296Y-43120292D01*
X118362202Y-43357212D01*
X118284691Y-43608492D01*
X118245500Y-43868517D01*
X118245500Y-44131482D01*
X115509477Y-44131482D01*
X115331383Y-43998183D01*
X115329573Y-43996902D01*
X115307590Y-43981664D01*
X115305752Y-43980460D01*
X115292716Y-43972106D01*
X115290811Y-43970952D01*
X115267837Y-43957345D01*
X115265915Y-43956273D01*
X115032952Y-43829088D01*
X115030983Y-43828081D01*
X115007067Y-43816131D01*
X115005061Y-43815193D01*
X114990975Y-43808782D01*
X114988934Y-43807915D01*
X114964233Y-43797705D01*
X114962158Y-43796909D01*
X114713471Y-43704175D01*
X114711372Y-43703455D01*
X114685992Y-43695030D01*
X114683894Y-43694394D01*
X114669033Y-43690051D01*
X114666881Y-43689481D01*
X114640998Y-43682896D01*
X114638854Y-43682410D01*
X114379486Y-43626008D01*
X114377320Y-43625598D01*
X114351016Y-43620871D01*
X114348819Y-43620535D01*
X114333515Y-43618354D01*
X114331314Y-43618098D01*
X114304717Y-43615257D01*
X114302508Y-43615079D01*
X114033345Y-43595849D01*
X114018748Y-43595066D01*
X114009825Y-43594750D01*
X113997203Y-43594529D01*
X113995572Y-43594500D01*
X113995542Y-43594500D01*
X113995428Y-43594498D01*
X102004428Y-43594500D01*
X101989953Y-43594758D01*
X101989928Y-43594758D01*
X101989809Y-43594761D01*
X101980881Y-43595082D01*
X101966908Y-43595835D01*
X101966655Y-43595849D01*
X101966650Y-43595849D01*
X101966508Y-43595857D01*
X101728955Y-43612848D01*
X101695281Y-43615257D01*
X101695271Y-43615258D01*
X101695272Y-43615258D01*
X101693066Y-43615475D01*
X101666491Y-43618352D01*
X101664295Y-43618647D01*
X101648994Y-43620868D01*
X101646833Y-43621239D01*
X101620514Y-43626007D01*
X101618345Y-43626459D01*
X101358996Y-43682897D01*
X101356846Y-43683425D01*
X101330955Y-43690054D01*
X101328812Y-43690662D01*
X101314004Y-43695031D01*
X101311901Y-43695710D01*
X101286533Y-43704174D01*
X101284447Y-43704931D01*
X101035762Y-43797707D01*
X101033718Y-43798532D01*
X101009008Y-43808789D01*
X101006980Y-43809693D01*
X100992926Y-43816134D01*
X100990948Y-43817102D01*
X100967053Y-43829086D01*
X100965101Y-43830129D01*
X100732156Y-43957349D01*
X100730228Y-43958469D01*
X100707271Y-43972114D01*
X100705411Y-43973286D01*
X100692410Y-43981664D01*
X100690580Y-43982910D01*
X100668622Y-43998179D01*
X100666831Y-43999494D01*
X100454358Y-44158576D01*
X100452625Y-44159947D01*
X100431811Y-44176746D01*
X100430112Y-44178191D01*
X100418457Y-44188318D01*
X100416836Y-44189801D01*
X100397280Y-44208035D01*
X100395711Y-44209577D01*
X100312180Y-44293135D01*
X100250856Y-44326619D01*
X100181165Y-44321635D01*
X100125231Y-44279763D01*
X100100815Y-44214298D01*
X100100499Y-44205470D01*
X100100499Y-44002827D01*
X100100630Y-43997187D01*
X100116870Y-43645914D01*
X100117927Y-43634519D01*
X100166106Y-43289131D01*
X100168206Y-43277896D01*
X100248052Y-42938416D01*
X100251175Y-42927437D01*
X100362011Y-42596748D01*
X100366134Y-42586108D01*
X100507003Y-42267068D01*
X100512086Y-42256859D01*
X100681789Y-41952184D01*
X100687815Y-41942452D01*
X100745232Y-41858634D01*
X100884905Y-41654736D01*
X100891787Y-41645623D01*
X100960811Y-41562500D01*
X103849721Y-41562500D01*
X103868763Y-41719318D01*
X103924780Y-41867023D01*
X104014515Y-41997028D01*
X104014516Y-41997029D01*
X104014517Y-41997030D01*
X104132760Y-42101783D01*
X104272635Y-42175196D01*
X104426015Y-42213000D01*
X104583985Y-42213000D01*
X104737365Y-42175196D01*
X104877240Y-42101783D01*
X104995483Y-41997030D01*
X105085220Y-41867023D01*
X105141237Y-41719318D01*
X105160278Y-41562500D01*
X107659721Y-41562500D01*
X107678763Y-41719318D01*
X107734780Y-41867023D01*
X107824515Y-41997028D01*
X107824516Y-41997029D01*
X107824517Y-41997030D01*
X107942760Y-42101783D01*
X108082635Y-42175196D01*
X108236015Y-42213000D01*
X108393985Y-42213000D01*
X108547365Y-42175196D01*
X108687240Y-42101783D01*
X108805483Y-41997030D01*
X108895220Y-41867023D01*
X108951237Y-41719318D01*
X108970278Y-41562500D01*
X112739721Y-41562500D01*
X112758763Y-41719318D01*
X112814780Y-41867023D01*
X112904515Y-41997028D01*
X112904516Y-41997029D01*
X112904517Y-41997030D01*
X113022760Y-42101783D01*
X113162635Y-42175196D01*
X113316015Y-42213000D01*
X113473985Y-42213000D01*
X113627365Y-42175196D01*
X113767240Y-42101783D01*
X113885483Y-41997030D01*
X113975220Y-41867023D01*
X114031237Y-41719318D01*
X114050278Y-41562500D01*
X114031237Y-41405682D01*
X113975220Y-41257977D01*
X113885483Y-41127970D01*
X113767240Y-41023217D01*
X113664778Y-40969440D01*
X113627364Y-40949803D01*
X113473985Y-40912000D01*
X113316015Y-40912000D01*
X113162635Y-40949803D01*
X113022761Y-41023216D01*
X112904515Y-41127971D01*
X112814780Y-41257976D01*
X112758763Y-41405681D01*
X112739721Y-41562500D01*
X108970278Y-41562500D01*
X108951237Y-41405682D01*
X108895220Y-41257977D01*
X108805483Y-41127970D01*
X108687240Y-41023217D01*
X108584778Y-40969440D01*
X108547364Y-40949803D01*
X108393985Y-40912000D01*
X108236015Y-40912000D01*
X108082635Y-40949803D01*
X107942761Y-41023216D01*
X107824515Y-41127971D01*
X107734780Y-41257976D01*
X107678763Y-41405681D01*
X107659721Y-41562500D01*
X105160278Y-41562500D01*
X105141237Y-41405682D01*
X105085220Y-41257977D01*
X104995483Y-41127970D01*
X104877240Y-41023217D01*
X104774778Y-40969440D01*
X104737364Y-40949803D01*
X104583985Y-40912000D01*
X104426015Y-40912000D01*
X104272635Y-40949803D01*
X104132761Y-41023216D01*
X104014515Y-41127971D01*
X103924780Y-41257976D01*
X103868763Y-41405681D01*
X103849721Y-41562500D01*
X100960811Y-41562500D01*
X101114582Y-41377321D01*
X101122277Y-41368881D01*
X101368881Y-41122277D01*
X101377321Y-41114582D01*
X101645623Y-40891787D01*
X101654736Y-40884905D01*
X101942457Y-40687811D01*
X101952184Y-40681789D01*
X102256859Y-40512086D01*
X102267068Y-40507003D01*
X102586108Y-40366134D01*
X102596748Y-40362011D01*
X102927437Y-40251175D01*
X102938416Y-40248052D01*
X103277896Y-40168206D01*
X103289131Y-40166106D01*
X103634528Y-40117926D01*
X103645914Y-40116870D01*
X103997144Y-40100632D01*
X104002872Y-40100500D01*
X104026929Y-40100500D01*
X135973071Y-40100500D01*
X135997128Y-40100500D01*
X136002855Y-40100632D01*
G37*
%TD.AperFunction*%
%TD*%
%TA.AperFunction,Conductor*%
%TO.N,GND1*%
G36*
X114004418Y-44000316D02*
G01*
X114275790Y-44019724D01*
X114293291Y-44022241D01*
X114554803Y-44079129D01*
X114571762Y-44084108D01*
X114822524Y-44177638D01*
X114838616Y-44184987D01*
X115073501Y-44313244D01*
X115088375Y-44322802D01*
X115302624Y-44483188D01*
X115315994Y-44494774D01*
X115505225Y-44684005D01*
X115516811Y-44697375D01*
X115673921Y-44907249D01*
X115677193Y-44911619D01*
X115686758Y-44926503D01*
X115815011Y-45161382D01*
X115822361Y-45177475D01*
X115915888Y-45428229D01*
X115920872Y-45445205D01*
X115977757Y-45706702D01*
X115980275Y-45724214D01*
X115999367Y-45991153D01*
X115999367Y-46008845D01*
X115980275Y-46275785D01*
X115977757Y-46293297D01*
X115920872Y-46554794D01*
X115915888Y-46571770D01*
X115822361Y-46822524D01*
X115815011Y-46838617D01*
X115686758Y-47073496D01*
X115677193Y-47088380D01*
X115516811Y-47302624D01*
X115505225Y-47315994D01*
X115394719Y-47426500D01*
X115333396Y-47459985D01*
X115263704Y-47455001D01*
X115207771Y-47413129D01*
X115183354Y-47347665D01*
X115187407Y-47322815D01*
X115184199Y-47322393D01*
X115205250Y-47162499D01*
X115195501Y-47088453D01*
X115186330Y-47018791D01*
X115130861Y-46884875D01*
X115042621Y-46769879D01*
X114927625Y-46681639D01*
X114927624Y-46681638D01*
X114927622Y-46681637D01*
X114793709Y-46626170D01*
X114650000Y-46607249D01*
X114506290Y-46626170D01*
X114372377Y-46681637D01*
X114257379Y-46769879D01*
X114169137Y-46884877D01*
X114113670Y-47018790D01*
X114094749Y-47162500D01*
X114113670Y-47306209D01*
X114169137Y-47440122D01*
X114169138Y-47440124D01*
X114169139Y-47440125D01*
X114257379Y-47555121D01*
X114372375Y-47643361D01*
X114372376Y-47643361D01*
X114372377Y-47643362D01*
X114508594Y-47699784D01*
X114562998Y-47743624D01*
X114585063Y-47809918D01*
X114567784Y-47877618D01*
X114516647Y-47925229D01*
X114487500Y-47935511D01*
X114293297Y-47977757D01*
X114275785Y-47980275D01*
X114004418Y-47999684D01*
X113995572Y-48000000D01*
X105870747Y-48000000D01*
X105746375Y-47983625D01*
X105622003Y-48000000D01*
X105000000Y-48000000D01*
X105000000Y-49847549D01*
X104989071Y-49876850D01*
X104971567Y-49895764D01*
X104944892Y-49919158D01*
X104943371Y-49920492D01*
X104941942Y-49921920D01*
X104941927Y-49921935D01*
X104921935Y-49941927D01*
X104921920Y-49941942D01*
X104920492Y-49943371D01*
X104919168Y-49944880D01*
X104919149Y-49944901D01*
X104895491Y-49971878D01*
X104895475Y-49971896D01*
X104894145Y-49973414D01*
X104892908Y-49975025D01*
X104892899Y-49975037D01*
X104835787Y-50049465D01*
X104835771Y-50049487D01*
X104834555Y-50051072D01*
X104833452Y-50052722D01*
X104833436Y-50052745D01*
X104813477Y-50082615D01*
X104813460Y-50082641D01*
X104812349Y-50084305D01*
X104811337Y-50086057D01*
X104811327Y-50086074D01*
X104797186Y-50110568D01*
X104797177Y-50110584D01*
X104796166Y-50112336D01*
X104795271Y-50114150D01*
X104795264Y-50114164D01*
X104781616Y-50141841D01*
X104778495Y-50148171D01*
X104777722Y-50150036D01*
X104777713Y-50150057D01*
X104741814Y-50236725D01*
X104741805Y-50236746D01*
X104741039Y-50238598D01*
X104740395Y-50240494D01*
X104740386Y-50240519D01*
X104728848Y-50274509D01*
X104728841Y-50274531D01*
X104728193Y-50276441D01*
X104727667Y-50278400D01*
X104727666Y-50278407D01*
X104720342Y-50305739D01*
X104720336Y-50305763D01*
X104719815Y-50307709D01*
X104719422Y-50309682D01*
X104719417Y-50309706D01*
X104712415Y-50344912D01*
X104712412Y-50344929D01*
X104712020Y-50346901D01*
X104711756Y-50348899D01*
X104711754Y-50348917D01*
X104698175Y-50452065D01*
X104697961Y-50454075D01*
X104696215Y-50471956D01*
X104696066Y-50473978D01*
X104695154Y-50488141D01*
X104695069Y-50490193D01*
X104694500Y-50508125D01*
X104694484Y-50510142D01*
X104694499Y-55214740D01*
X104694500Y-55214786D01*
X104694500Y-55216033D01*
X104694553Y-55217299D01*
X104694554Y-55217312D01*
X104695542Y-55240607D01*
X104695544Y-55240639D01*
X104695598Y-55241910D01*
X104695709Y-55243222D01*
X104695710Y-55243229D01*
X104697377Y-55262837D01*
X104697396Y-55263070D01*
X104727383Y-55371263D01*
X104756726Y-55431215D01*
X104756730Y-55431224D01*
X104758099Y-55434019D01*
X104759740Y-55436660D01*
X104759750Y-55436678D01*
X104790548Y-55486244D01*
X104805944Y-55500000D01*
X104874271Y-55561050D01*
X104927984Y-55593570D01*
X104975136Y-55645129D01*
X104986928Y-55713996D01*
X104982423Y-55735637D01*
X104964700Y-55794064D01*
X104944417Y-56000000D01*
X104964699Y-56205934D01*
X104982772Y-56265512D01*
X104983395Y-56335379D01*
X104946146Y-56394491D01*
X104926712Y-56408544D01*
X104872426Y-56440292D01*
X104821994Y-56483991D01*
X104821969Y-56484014D01*
X104819625Y-56486046D01*
X104817499Y-56488300D01*
X104817481Y-56488318D01*
X104777447Y-56530778D01*
X104726560Y-56630856D01*
X104706875Y-56697893D01*
X104695881Y-56774354D01*
X104694500Y-56783966D01*
X104694500Y-58216033D01*
X104694553Y-58217299D01*
X104694554Y-58217312D01*
X104695542Y-58240607D01*
X104695544Y-58240639D01*
X104695598Y-58241910D01*
X104695709Y-58243222D01*
X104695710Y-58243229D01*
X104697377Y-58262837D01*
X104697396Y-58263070D01*
X104727383Y-58371263D01*
X104756726Y-58431215D01*
X104756730Y-58431224D01*
X104758099Y-58434019D01*
X104759740Y-58436660D01*
X104759750Y-58436678D01*
X104790548Y-58486244D01*
X104839306Y-58529809D01*
X104874271Y-58561050D01*
X104927984Y-58593570D01*
X104975136Y-58645129D01*
X104986928Y-58713996D01*
X104982423Y-58735637D01*
X104964700Y-58794064D01*
X104944417Y-59000000D01*
X104964699Y-59205934D01*
X104982772Y-59265512D01*
X104983395Y-59335379D01*
X104946146Y-59394491D01*
X104926712Y-59408544D01*
X104872426Y-59440292D01*
X104821994Y-59483991D01*
X104821969Y-59484014D01*
X104819625Y-59486046D01*
X104817499Y-59488300D01*
X104817481Y-59488318D01*
X104777447Y-59530778D01*
X104726560Y-59630856D01*
X104706875Y-59697893D01*
X104699900Y-59746410D01*
X104694500Y-59783966D01*
X104694500Y-61216033D01*
X104694553Y-61217299D01*
X104694554Y-61217312D01*
X104695542Y-61240607D01*
X104695544Y-61240639D01*
X104695598Y-61241910D01*
X104695709Y-61243222D01*
X104695710Y-61243229D01*
X104697377Y-61262837D01*
X104697396Y-61263070D01*
X104727383Y-61371263D01*
X104756726Y-61431215D01*
X104756730Y-61431224D01*
X104758099Y-61434019D01*
X104759740Y-61436660D01*
X104759750Y-61436678D01*
X104790548Y-61486244D01*
X104852223Y-61541350D01*
X104874271Y-61561050D01*
X104927984Y-61593570D01*
X104975136Y-61645129D01*
X104986928Y-61713996D01*
X104982423Y-61735637D01*
X104964700Y-61794064D01*
X104944417Y-61999999D01*
X104964699Y-62205934D01*
X104982772Y-62265512D01*
X104983395Y-62335379D01*
X104946146Y-62394491D01*
X104926712Y-62408544D01*
X104872426Y-62440292D01*
X104821994Y-62483991D01*
X104821969Y-62484014D01*
X104819625Y-62486046D01*
X104817499Y-62488300D01*
X104817481Y-62488318D01*
X104777447Y-62530778D01*
X104726560Y-62630856D01*
X104706875Y-62697893D01*
X104696171Y-62772342D01*
X104694500Y-62783966D01*
X104694500Y-65026285D01*
X104694500Y-67026285D01*
X104694500Y-69216033D01*
X104694553Y-69217299D01*
X104694554Y-69217312D01*
X104695542Y-69240607D01*
X104695544Y-69240639D01*
X104695598Y-69241910D01*
X104695709Y-69243222D01*
X104695710Y-69243229D01*
X104697377Y-69262837D01*
X104697396Y-69263070D01*
X104727383Y-69371263D01*
X104756726Y-69431215D01*
X104756730Y-69431224D01*
X104758099Y-69434019D01*
X104759740Y-69436660D01*
X104759750Y-69436678D01*
X104790548Y-69486244D01*
X104805944Y-69500000D01*
X104874271Y-69561050D01*
X104927984Y-69593570D01*
X104975136Y-69645129D01*
X104986928Y-69713996D01*
X104982423Y-69735637D01*
X104964700Y-69794064D01*
X104944417Y-69999999D01*
X104964700Y-70205936D01*
X104974013Y-70236639D01*
X104976518Y-70298989D01*
X104968045Y-70337940D01*
X104934561Y-70399264D01*
X104909482Y-70418620D01*
X104872426Y-70440292D01*
X104821994Y-70483991D01*
X104821969Y-70484014D01*
X104819625Y-70486046D01*
X104817499Y-70488300D01*
X104817481Y-70488318D01*
X104777447Y-70530778D01*
X104726560Y-70630856D01*
X104706875Y-70697893D01*
X104694500Y-70783967D01*
X104694500Y-71023989D01*
X104674815Y-71091028D01*
X104669767Y-71098300D01*
X104516811Y-71302624D01*
X104505225Y-71315994D01*
X104315994Y-71505225D01*
X104302624Y-71516811D01*
X104088380Y-71677193D01*
X104073496Y-71686758D01*
X103838617Y-71815011D01*
X103822524Y-71822361D01*
X103571770Y-71915888D01*
X103554794Y-71920872D01*
X103298991Y-71976518D01*
X103236641Y-71974014D01*
X103205933Y-71964699D01*
X103000000Y-71944417D01*
X102794067Y-71964699D01*
X102695297Y-71994661D01*
X102659302Y-72000000D01*
X102004428Y-72000000D01*
X101995582Y-71999684D01*
X101724214Y-71980275D01*
X101706702Y-71977757D01*
X101445205Y-71920872D01*
X101428229Y-71915888D01*
X101177475Y-71822361D01*
X101161382Y-71815011D01*
X100926503Y-71686758D01*
X100911619Y-71677193D01*
X100697375Y-71516811D01*
X100684005Y-71505225D01*
X100494774Y-71315994D01*
X100483188Y-71302624D01*
X100322802Y-71088375D01*
X100313244Y-71073501D01*
X100184984Y-70838609D01*
X100177638Y-70822526D01*
X100108316Y-70636666D01*
X100100500Y-70593340D01*
X100100500Y-70000000D01*
X101944919Y-70000000D01*
X101965191Y-70205834D01*
X102025232Y-70403760D01*
X102100976Y-70545469D01*
X102516922Y-70129523D01*
X102540507Y-70209844D01*
X102618239Y-70330798D01*
X102726900Y-70424952D01*
X102857685Y-70484680D01*
X102867466Y-70486086D01*
X102454528Y-70899023D01*
X102596235Y-70974766D01*
X102794165Y-71034808D01*
X103000000Y-71055080D01*
X103205834Y-71034808D01*
X103403764Y-70974766D01*
X103545470Y-70899023D01*
X103132534Y-70486086D01*
X103142315Y-70484680D01*
X103273100Y-70424952D01*
X103381761Y-70330798D01*
X103459493Y-70209844D01*
X103483076Y-70129524D01*
X103899022Y-70545470D01*
X103899023Y-70545470D01*
X103974766Y-70403764D01*
X104034808Y-70205834D01*
X104055080Y-70000000D01*
X104034808Y-69794165D01*
X103974766Y-69596235D01*
X103899022Y-69454529D01*
X103483076Y-69870475D01*
X103459493Y-69790156D01*
X103381761Y-69669202D01*
X103273100Y-69575048D01*
X103142315Y-69515320D01*
X103132533Y-69513913D01*
X103545469Y-69100976D01*
X103403760Y-69025232D01*
X103205834Y-68965191D01*
X103000000Y-68944919D01*
X102794165Y-68965191D01*
X102596235Y-69025232D01*
X102454529Y-69100975D01*
X102454529Y-69100976D01*
X102867466Y-69513913D01*
X102857685Y-69515320D01*
X102726900Y-69575048D01*
X102618239Y-69669202D01*
X102540507Y-69790156D01*
X102516923Y-69870476D01*
X102100976Y-69454529D01*
X102100975Y-69454529D01*
X102025232Y-69596235D01*
X101965191Y-69794165D01*
X101944919Y-70000000D01*
X100100500Y-70000000D01*
X100100500Y-62539408D01*
X101949500Y-62539408D01*
X101949501Y-62543098D01*
X101949941Y-62546768D01*
X101949943Y-62546789D01*
X101960122Y-62631559D01*
X101960124Y-62631564D01*
X102015639Y-62772342D01*
X102015640Y-62772343D01*
X102107077Y-62892922D01*
X102180718Y-62948765D01*
X102227658Y-62984361D01*
X102368436Y-63039876D01*
X102368439Y-63039877D01*
X102446073Y-63049199D01*
X102456901Y-63050500D01*
X103543098Y-63050499D01*
X103546785Y-63050056D01*
X103546789Y-63050056D01*
X103631559Y-63039877D01*
X103631560Y-63039876D01*
X103631564Y-63039876D01*
X103772342Y-62984361D01*
X103892922Y-62892922D01*
X103984361Y-62772342D01*
X104039876Y-62631564D01*
X104039876Y-62631561D01*
X104039877Y-62631560D01*
X104050058Y-62546778D01*
X104050500Y-62543099D01*
X104050499Y-61456902D01*
X104048071Y-61436678D01*
X104039877Y-61368440D01*
X104039876Y-61368438D01*
X104039876Y-61368436D01*
X103984361Y-61227658D01*
X103910160Y-61129809D01*
X103892922Y-61107077D01*
X103772343Y-61015640D01*
X103772342Y-61015639D01*
X103684150Y-60980861D01*
X103631560Y-60960122D01*
X103546778Y-60949941D01*
X103546764Y-60949940D01*
X103543099Y-60949500D01*
X103539398Y-60949500D01*
X102460607Y-60949500D01*
X102460590Y-60949500D01*
X102456902Y-60949501D01*
X102453232Y-60949941D01*
X102453210Y-60949943D01*
X102368440Y-60960122D01*
X102274583Y-60997133D01*
X102227658Y-61015639D01*
X102227657Y-61015639D01*
X102227656Y-61015640D01*
X102107077Y-61107077D01*
X102015640Y-61227656D01*
X101960122Y-61368439D01*
X101949941Y-61453221D01*
X101949940Y-61453236D01*
X101949500Y-61456901D01*
X101949500Y-61460600D01*
X101949500Y-61460601D01*
X101949500Y-62539392D01*
X101949500Y-62539408D01*
X100100500Y-62539408D01*
X100100500Y-59000000D01*
X101944417Y-59000000D01*
X101964699Y-59205932D01*
X101986447Y-59277625D01*
X102024768Y-59403954D01*
X102122315Y-59586450D01*
X102158757Y-59630855D01*
X102253589Y-59746410D01*
X102333569Y-59812047D01*
X102413550Y-59877685D01*
X102596046Y-59975232D01*
X102794066Y-60035300D01*
X103000000Y-60055583D01*
X103205934Y-60035300D01*
X103403954Y-59975232D01*
X103586450Y-59877685D01*
X103746410Y-59746410D01*
X103877685Y-59586450D01*
X103975232Y-59403954D01*
X104035300Y-59205934D01*
X104055583Y-59000000D01*
X104035300Y-58794066D01*
X103975232Y-58596046D01*
X103877685Y-58413550D01*
X103791986Y-58309125D01*
X103746410Y-58253589D01*
X103648952Y-58173608D01*
X103586450Y-58122315D01*
X103403954Y-58024768D01*
X103300807Y-57993479D01*
X103205932Y-57964699D01*
X103000000Y-57944417D01*
X102794067Y-57964699D01*
X102596043Y-58024769D01*
X102413551Y-58122314D01*
X102253589Y-58253589D01*
X102122314Y-58413551D01*
X102024769Y-58596043D01*
X101964699Y-58794067D01*
X101944417Y-59000000D01*
X100100500Y-59000000D01*
X100100500Y-56000000D01*
X101944919Y-56000000D01*
X101965191Y-56205834D01*
X102025232Y-56403760D01*
X102100976Y-56545469D01*
X102516922Y-56129522D01*
X102540507Y-56209844D01*
X102618239Y-56330798D01*
X102726900Y-56424952D01*
X102857685Y-56484680D01*
X102867466Y-56486086D01*
X102454528Y-56899023D01*
X102596235Y-56974766D01*
X102794165Y-57034808D01*
X103000000Y-57055080D01*
X103205834Y-57034808D01*
X103403764Y-56974766D01*
X103545470Y-56899023D01*
X103132534Y-56486086D01*
X103142315Y-56484680D01*
X103273100Y-56424952D01*
X103381761Y-56330798D01*
X103459493Y-56209844D01*
X103483076Y-56129524D01*
X103899022Y-56545470D01*
X103899023Y-56545470D01*
X103974766Y-56403764D01*
X104034808Y-56205834D01*
X104055080Y-56000000D01*
X104034808Y-55794165D01*
X103974766Y-55596235D01*
X103899022Y-55454529D01*
X103483076Y-55870474D01*
X103459493Y-55790156D01*
X103381761Y-55669202D01*
X103273100Y-55575048D01*
X103142315Y-55515320D01*
X103132532Y-55513913D01*
X103545469Y-55100976D01*
X103403760Y-55025232D01*
X103205834Y-54965191D01*
X103000000Y-54944919D01*
X102794165Y-54965191D01*
X102596235Y-55025232D01*
X102454529Y-55100975D01*
X102454529Y-55100976D01*
X102867467Y-55513913D01*
X102857685Y-55515320D01*
X102726900Y-55575048D01*
X102618239Y-55669202D01*
X102540507Y-55790156D01*
X102516923Y-55870475D01*
X102100976Y-55454529D01*
X102100975Y-55454529D01*
X102025232Y-55596235D01*
X101965191Y-55794165D01*
X101944919Y-56000000D01*
X100100500Y-56000000D01*
X100100500Y-50962500D01*
X101944749Y-50962500D01*
X101963670Y-51106209D01*
X102019137Y-51240122D01*
X102019138Y-51240124D01*
X102019139Y-51240125D01*
X102107379Y-51355121D01*
X102222375Y-51443361D01*
X102356291Y-51498830D01*
X102500000Y-51517750D01*
X102643709Y-51498830D01*
X102777625Y-51443361D01*
X102892621Y-51355121D01*
X102980861Y-51240125D01*
X103036330Y-51106209D01*
X103055250Y-50962500D01*
X103036330Y-50818791D01*
X102980861Y-50684875D01*
X102892621Y-50569879D01*
X102777625Y-50481639D01*
X102777624Y-50481638D01*
X102777622Y-50481637D01*
X102643709Y-50426170D01*
X102499999Y-50407249D01*
X102356290Y-50426170D01*
X102222377Y-50481637D01*
X102107379Y-50569879D01*
X102019137Y-50684877D01*
X101963670Y-50818790D01*
X101944749Y-50962500D01*
X100100500Y-50962500D01*
X100100500Y-47162500D01*
X112194749Y-47162500D01*
X112213670Y-47306209D01*
X112269137Y-47440122D01*
X112269138Y-47440124D01*
X112269139Y-47440125D01*
X112357379Y-47555121D01*
X112472375Y-47643361D01*
X112606291Y-47698830D01*
X112750000Y-47717750D01*
X112893709Y-47698830D01*
X113027625Y-47643361D01*
X113142621Y-47555121D01*
X113230861Y-47440125D01*
X113286330Y-47306209D01*
X113305250Y-47162500D01*
X113286330Y-47018791D01*
X113230861Y-46884875D01*
X113142621Y-46769879D01*
X113027625Y-46681639D01*
X113027624Y-46681638D01*
X113027622Y-46681637D01*
X112893709Y-46626170D01*
X112750000Y-46607249D01*
X112606290Y-46626170D01*
X112472377Y-46681637D01*
X112357379Y-46769879D01*
X112269137Y-46884877D01*
X112213670Y-47018790D01*
X112194749Y-47162500D01*
X100100500Y-47162500D01*
X100100500Y-46533202D01*
X109443631Y-46533202D01*
X109462552Y-46676912D01*
X109518019Y-46810825D01*
X109518020Y-46810827D01*
X109518021Y-46810828D01*
X109606261Y-46925824D01*
X109721257Y-47014064D01*
X109721258Y-47014064D01*
X109721259Y-47014065D01*
X109732669Y-47018791D01*
X109855173Y-47069533D01*
X109998882Y-47088453D01*
X110142591Y-47069533D01*
X110276507Y-47014064D01*
X110391503Y-46925824D01*
X110479743Y-46810828D01*
X110535212Y-46676912D01*
X110554132Y-46533203D01*
X110535212Y-46389494D01*
X110479743Y-46255578D01*
X110391503Y-46140582D01*
X110276507Y-46052342D01*
X110276506Y-46052341D01*
X110276504Y-46052340D01*
X110142591Y-45996873D01*
X109998882Y-45977952D01*
X109855172Y-45996873D01*
X109721259Y-46052340D01*
X109606261Y-46140582D01*
X109518019Y-46255580D01*
X109462552Y-46389493D01*
X109443631Y-46533202D01*
X100100500Y-46533202D01*
X100100500Y-45462500D01*
X104644749Y-45462500D01*
X104663670Y-45606209D01*
X104719137Y-45740122D01*
X104719138Y-45740124D01*
X104719139Y-45740125D01*
X104807379Y-45855121D01*
X104922375Y-45943361D01*
X105056291Y-45998830D01*
X105200000Y-46017750D01*
X105343709Y-45998830D01*
X105477625Y-45943361D01*
X105592621Y-45855121D01*
X105680861Y-45740125D01*
X105736330Y-45606209D01*
X105740439Y-45574999D01*
X106644749Y-45574999D01*
X106663670Y-45718709D01*
X106719137Y-45852622D01*
X106719138Y-45852624D01*
X106719139Y-45852625D01*
X106807379Y-45967621D01*
X106922375Y-46055861D01*
X107056291Y-46111330D01*
X107200000Y-46130250D01*
X107343709Y-46111330D01*
X107477625Y-46055861D01*
X107592621Y-45967621D01*
X107680861Y-45852625D01*
X107736330Y-45718709D01*
X107755250Y-45575000D01*
X107736330Y-45431291D01*
X107680861Y-45297375D01*
X107592621Y-45182379D01*
X107477625Y-45094139D01*
X107477624Y-45094138D01*
X107477622Y-45094137D01*
X107343709Y-45038670D01*
X107200000Y-45019749D01*
X107056290Y-45038670D01*
X106922377Y-45094137D01*
X106807379Y-45182379D01*
X106719137Y-45297377D01*
X106663670Y-45431290D01*
X106644749Y-45574999D01*
X105740439Y-45574999D01*
X105755250Y-45462500D01*
X105736330Y-45318791D01*
X105680861Y-45184875D01*
X105592621Y-45069879D01*
X105477625Y-44981639D01*
X105477624Y-44981638D01*
X105477622Y-44981637D01*
X105343709Y-44926170D01*
X105200000Y-44907249D01*
X105056290Y-44926170D01*
X104922377Y-44981637D01*
X104807379Y-45069879D01*
X104719137Y-45184877D01*
X104663670Y-45318790D01*
X104644749Y-45462500D01*
X100100500Y-45462500D01*
X100100500Y-45406658D01*
X100108316Y-45363335D01*
X100177640Y-45177470D01*
X100184985Y-45161388D01*
X100313248Y-44926491D01*
X100322798Y-44911630D01*
X100483195Y-44697366D01*
X100494767Y-44684012D01*
X100684012Y-44494767D01*
X100697366Y-44483195D01*
X100911630Y-44322798D01*
X100926491Y-44313248D01*
X101161388Y-44184985D01*
X101177470Y-44177640D01*
X101428241Y-44084107D01*
X101445192Y-44079130D01*
X101706710Y-44022240D01*
X101724207Y-44019724D01*
X101995581Y-44000316D01*
X102004428Y-44000000D01*
X113995572Y-44000000D01*
X114004418Y-44000316D01*
G37*
%TD.AperFunction*%
%TD*%
%TA.AperFunction,Conductor*%
%TO.N,+5V*%
G36*
X105723344Y-50021997D02*
G01*
X105747180Y-50026739D01*
X105950257Y-50088343D01*
X105972707Y-50097641D01*
X106159870Y-50197681D01*
X106180073Y-50211181D01*
X106348846Y-50349690D01*
X106357862Y-50357862D01*
X110411340Y-54411340D01*
X110416887Y-54417262D01*
X110581348Y-54604793D01*
X110591222Y-54617662D01*
X110727535Y-54821670D01*
X110735645Y-54835716D01*
X110844164Y-55055770D01*
X110850371Y-55070756D01*
X110929239Y-55303095D01*
X110933437Y-55318761D01*
X110981303Y-55559396D01*
X110983421Y-55575478D01*
X110999735Y-55824383D01*
X111000000Y-55832493D01*
X111000000Y-71076692D01*
X110980315Y-71143731D01*
X110927511Y-71189486D01*
X110858353Y-71199430D01*
X110800514Y-71175068D01*
X110727624Y-71119138D01*
X110593709Y-71063670D01*
X110449999Y-71044749D01*
X110306290Y-71063670D01*
X110172377Y-71119137D01*
X110057379Y-71207379D01*
X109969137Y-71322377D01*
X109913670Y-71456290D01*
X109894749Y-71600000D01*
X109913670Y-71743709D01*
X109969137Y-71877622D01*
X109969138Y-71877624D01*
X109969139Y-71877625D01*
X110057379Y-71992621D01*
X110172375Y-72080861D01*
X110306291Y-72136330D01*
X110450000Y-72155250D01*
X110593709Y-72136330D01*
X110727625Y-72080861D01*
X110727624Y-72080860D01*
X110800513Y-72024932D01*
X110865682Y-71999737D01*
X110934127Y-72013775D01*
X110984117Y-72062589D01*
X111000000Y-72123307D01*
X111000000Y-84318579D01*
X110963670Y-84406290D01*
X110944749Y-84550000D01*
X110963670Y-84693709D01*
X111000000Y-84781419D01*
X111000000Y-85000000D01*
X111182156Y-85000000D01*
X111222375Y-85030861D01*
X111356291Y-85086330D01*
X111500000Y-85105250D01*
X111643709Y-85086330D01*
X111777625Y-85030861D01*
X111817844Y-85000000D01*
X112959711Y-85000000D01*
X113015614Y-85020851D01*
X113057486Y-85076784D01*
X113062470Y-85146476D01*
X113039681Y-85195603D01*
X113019138Y-85222375D01*
X112963670Y-85356290D01*
X112944749Y-85500000D01*
X112963670Y-85643709D01*
X113019137Y-85777622D01*
X113019138Y-85777624D01*
X113019139Y-85777625D01*
X113107379Y-85892621D01*
X113222375Y-85980861D01*
X113356291Y-86036330D01*
X113500000Y-86055250D01*
X113643709Y-86036330D01*
X113777625Y-85980861D01*
X113892621Y-85892621D01*
X113980861Y-85777625D01*
X114036330Y-85643709D01*
X114051805Y-85526165D01*
X114080070Y-85462271D01*
X114138395Y-85423800D01*
X114208259Y-85422968D01*
X114249053Y-85443086D01*
X114302623Y-85483188D01*
X114315994Y-85494774D01*
X114505225Y-85684005D01*
X114516811Y-85697375D01*
X114576883Y-85777622D01*
X114677193Y-85911619D01*
X114686758Y-85926503D01*
X114815011Y-86161382D01*
X114822361Y-86177475D01*
X114915888Y-86428229D01*
X114920872Y-86445205D01*
X114977757Y-86706702D01*
X114980275Y-86724214D01*
X114999684Y-86995581D01*
X115000000Y-87004427D01*
X115000000Y-87995572D01*
X114999684Y-88004418D01*
X114980275Y-88275785D01*
X114977757Y-88293297D01*
X114920872Y-88554794D01*
X114915888Y-88571770D01*
X114822361Y-88822524D01*
X114815011Y-88838617D01*
X114686758Y-89073496D01*
X114677193Y-89088380D01*
X114516811Y-89302624D01*
X114505225Y-89315994D01*
X114315994Y-89505225D01*
X114302624Y-89516811D01*
X114088380Y-89677193D01*
X114073496Y-89686758D01*
X113838617Y-89815011D01*
X113822524Y-89822361D01*
X113636670Y-89891682D01*
X113593336Y-89899500D01*
X113295598Y-89899500D01*
X113228559Y-89879815D01*
X113182804Y-89827011D01*
X113172860Y-89757853D01*
X113201885Y-89694297D01*
X113254644Y-89658458D01*
X113349303Y-89625335D01*
X113501950Y-89529421D01*
X113629421Y-89401950D01*
X113725335Y-89249303D01*
X113784877Y-89079140D01*
X113799609Y-88948390D01*
X113800000Y-88941442D01*
X113800000Y-88750000D01*
X113349607Y-88750000D01*
X113409238Y-88632969D01*
X113430298Y-88500000D01*
X113409238Y-88367031D01*
X113349607Y-88250000D01*
X113800000Y-88250000D01*
X113800000Y-88058558D01*
X113799609Y-88051609D01*
X113784877Y-87920859D01*
X113725335Y-87750696D01*
X113629421Y-87598049D01*
X113501950Y-87470578D01*
X113349300Y-87374662D01*
X113250000Y-87339916D01*
X113250000Y-88150392D01*
X113132969Y-88090762D01*
X113033451Y-88075000D01*
X112966549Y-88075000D01*
X112867031Y-88090762D01*
X112750000Y-88150392D01*
X112750000Y-87339916D01*
X112749999Y-87339916D01*
X112650699Y-87374662D01*
X112498049Y-87470578D01*
X112370578Y-87598049D01*
X112274664Y-87750696D01*
X112215122Y-87920859D01*
X112200390Y-88051609D01*
X112200000Y-88058558D01*
X112200000Y-88250000D01*
X112650393Y-88250000D01*
X112590762Y-88367031D01*
X112569702Y-88500000D01*
X112590762Y-88632969D01*
X112650393Y-88750000D01*
X112200000Y-88750000D01*
X112200000Y-88941442D01*
X112200390Y-88948390D01*
X112215122Y-89079140D01*
X112274664Y-89249303D01*
X112370578Y-89401950D01*
X112498049Y-89529421D01*
X112650696Y-89625335D01*
X112745356Y-89658458D01*
X112802132Y-89699180D01*
X112827880Y-89764133D01*
X112814424Y-89832694D01*
X112766037Y-89883097D01*
X112704402Y-89899500D01*
X110757112Y-89899500D01*
X110690073Y-89879815D01*
X110644318Y-89827011D01*
X110634374Y-89757853D01*
X110663399Y-89694297D01*
X110716156Y-89658458D01*
X110809522Y-89625789D01*
X110962262Y-89529816D01*
X111089816Y-89402262D01*
X111185789Y-89249522D01*
X111245368Y-89079255D01*
X111260500Y-88944954D01*
X111260500Y-88055046D01*
X111245368Y-87920745D01*
X111185789Y-87750478D01*
X111089816Y-87597738D01*
X111089815Y-87597737D01*
X111089814Y-87597735D01*
X110962264Y-87470185D01*
X110899867Y-87430978D01*
X110809522Y-87374211D01*
X110639255Y-87314632D01*
X110639253Y-87314631D01*
X110639251Y-87314631D01*
X110460000Y-87294434D01*
X110280748Y-87314631D01*
X110280745Y-87314631D01*
X110280745Y-87314632D01*
X110110478Y-87374211D01*
X110110476Y-87374211D01*
X110110476Y-87374212D01*
X109957735Y-87470185D01*
X109830185Y-87597735D01*
X109734212Y-87750476D01*
X109674631Y-87920749D01*
X109659890Y-88051579D01*
X109659889Y-88051590D01*
X109659500Y-88055046D01*
X109659500Y-88944954D01*
X109659889Y-88948410D01*
X109659890Y-88948420D01*
X109673983Y-89073496D01*
X109674632Y-89079255D01*
X109734211Y-89249522D01*
X109734212Y-89249523D01*
X109830185Y-89402264D01*
X109957735Y-89529814D01*
X109957737Y-89529815D01*
X109957738Y-89529816D01*
X110110478Y-89625789D01*
X110203843Y-89658458D01*
X110260619Y-89699180D01*
X110286366Y-89764133D01*
X110272910Y-89832694D01*
X110224523Y-89883097D01*
X110162888Y-89899500D01*
X108217112Y-89899500D01*
X108150073Y-89879815D01*
X108104318Y-89827011D01*
X108094374Y-89757853D01*
X108123399Y-89694297D01*
X108176156Y-89658458D01*
X108269522Y-89625789D01*
X108422262Y-89529816D01*
X108549816Y-89402262D01*
X108645789Y-89249522D01*
X108705368Y-89079255D01*
X108720500Y-88944954D01*
X108720500Y-88055046D01*
X108705368Y-87920745D01*
X108645789Y-87750478D01*
X108549816Y-87597738D01*
X108549815Y-87597737D01*
X108549814Y-87597735D01*
X108422264Y-87470185D01*
X108359867Y-87430978D01*
X108269522Y-87374211D01*
X108099255Y-87314632D01*
X108099253Y-87314631D01*
X108099251Y-87314631D01*
X107920000Y-87294434D01*
X107740748Y-87314631D01*
X107740745Y-87314631D01*
X107740745Y-87314632D01*
X107570478Y-87374211D01*
X107570476Y-87374211D01*
X107570476Y-87374212D01*
X107417735Y-87470185D01*
X107290185Y-87597735D01*
X107194212Y-87750476D01*
X107134631Y-87920749D01*
X107119890Y-88051579D01*
X107119889Y-88051590D01*
X107119500Y-88055046D01*
X107119500Y-88944954D01*
X107119889Y-88948410D01*
X107119890Y-88948420D01*
X107133983Y-89073496D01*
X107134632Y-89079255D01*
X107194211Y-89249522D01*
X107194212Y-89249523D01*
X107290185Y-89402264D01*
X107417735Y-89529814D01*
X107417737Y-89529815D01*
X107417738Y-89529816D01*
X107570478Y-89625789D01*
X107663843Y-89658458D01*
X107720619Y-89699180D01*
X107746366Y-89764133D01*
X107732910Y-89832694D01*
X107684523Y-89883097D01*
X107622888Y-89899500D01*
X106406664Y-89899500D01*
X106363330Y-89891682D01*
X106177475Y-89822361D01*
X106161382Y-89815011D01*
X105941758Y-89695087D01*
X105892353Y-89645682D01*
X105877501Y-89577409D01*
X105901918Y-89511944D01*
X105913497Y-89498580D01*
X106009816Y-89402262D01*
X106105789Y-89249522D01*
X106165368Y-89079255D01*
X106180500Y-88944954D01*
X106180500Y-88055046D01*
X106165368Y-87920745D01*
X106105789Y-87750478D01*
X106009816Y-87597738D01*
X106009815Y-87597737D01*
X106009814Y-87597735D01*
X105882264Y-87470185D01*
X105819867Y-87430979D01*
X105729522Y-87374211D01*
X105559255Y-87314632D01*
X105559253Y-87314631D01*
X105559251Y-87314631D01*
X105379999Y-87294434D01*
X105200747Y-87314631D01*
X105178714Y-87322340D01*
X105164953Y-87327156D01*
X105095175Y-87330717D01*
X105034548Y-87295988D01*
X105002321Y-87233995D01*
X105000000Y-87210114D01*
X105000000Y-84318582D01*
X105009439Y-84271130D01*
X105036330Y-84206209D01*
X105055250Y-84062500D01*
X105036330Y-83918791D01*
X105009439Y-83853869D01*
X105000000Y-83806417D01*
X105000000Y-82193582D01*
X105009439Y-82146130D01*
X105010442Y-82143709D01*
X105036330Y-82081209D01*
X105047022Y-82000000D01*
X105944749Y-82000000D01*
X105963670Y-82143709D01*
X106019137Y-82277622D01*
X106019138Y-82277624D01*
X106019139Y-82277625D01*
X106107379Y-82392621D01*
X106222375Y-82480861D01*
X106356291Y-82536330D01*
X106481079Y-82552758D01*
X106499999Y-82555250D01*
X106499999Y-82555249D01*
X106500000Y-82555250D01*
X106643709Y-82536330D01*
X106777625Y-82480861D01*
X106892621Y-82392621D01*
X106980861Y-82277625D01*
X107036330Y-82143709D01*
X107055250Y-82000000D01*
X108944749Y-82000000D01*
X108963670Y-82143709D01*
X109019137Y-82277622D01*
X109019138Y-82277624D01*
X109019139Y-82277625D01*
X109107379Y-82392621D01*
X109222375Y-82480861D01*
X109356291Y-82536330D01*
X109500000Y-82555250D01*
X109643709Y-82536330D01*
X109777625Y-82480861D01*
X109892621Y-82392621D01*
X109980861Y-82277625D01*
X110036330Y-82143709D01*
X110055250Y-82000000D01*
X110036330Y-81856291D01*
X109980861Y-81722375D01*
X109892621Y-81607379D01*
X109777625Y-81519139D01*
X109777624Y-81519138D01*
X109777622Y-81519137D01*
X109643709Y-81463670D01*
X109499999Y-81444749D01*
X109356290Y-81463670D01*
X109222377Y-81519137D01*
X109107379Y-81607379D01*
X109019137Y-81722377D01*
X108963670Y-81856290D01*
X108944749Y-82000000D01*
X107055250Y-82000000D01*
X107036330Y-81856291D01*
X106980861Y-81722375D01*
X106892621Y-81607379D01*
X106777625Y-81519139D01*
X106777624Y-81519138D01*
X106777622Y-81519137D01*
X106643709Y-81463670D01*
X106500000Y-81444749D01*
X106356290Y-81463670D01*
X106222377Y-81519137D01*
X106107379Y-81607379D01*
X106019137Y-81722377D01*
X105963670Y-81856290D01*
X105944749Y-82000000D01*
X105047022Y-82000000D01*
X105055250Y-81937500D01*
X105036330Y-81793791D01*
X105009439Y-81728869D01*
X105000000Y-81681417D01*
X105000000Y-79300879D01*
X105000000Y-79044168D01*
X106181648Y-79044168D01*
X106197120Y-79131907D01*
X106212277Y-79217866D01*
X106282135Y-79379818D01*
X106282136Y-79379818D01*
X106387461Y-79521294D01*
X106522570Y-79634665D01*
X106522571Y-79634665D01*
X106522573Y-79634667D01*
X106680189Y-79713824D01*
X106680190Y-79713824D01*
X106680192Y-79713825D01*
X106851810Y-79754500D01*
X106851812Y-79754500D01*
X106980342Y-79754500D01*
X106983941Y-79754500D01*
X107115184Y-79739160D01*
X107280924Y-79678836D01*
X107428285Y-79581915D01*
X107549322Y-79453623D01*
X107637510Y-79300876D01*
X107688095Y-79131909D01*
X107698351Y-78955831D01*
X107667723Y-78782134D01*
X107597864Y-78620182D01*
X107492539Y-78478706D01*
X107492538Y-78478705D01*
X107357429Y-78365334D01*
X107199807Y-78286174D01*
X107028190Y-78245500D01*
X107028188Y-78245500D01*
X106896059Y-78245500D01*
X106892492Y-78245916D01*
X106892490Y-78245917D01*
X106764813Y-78260840D01*
X106599074Y-78321164D01*
X106451715Y-78418084D01*
X106330676Y-78546377D01*
X106242491Y-78699120D01*
X106191905Y-78868092D01*
X106181648Y-79044168D01*
X105000000Y-79044168D01*
X105000000Y-76783962D01*
X105019684Y-76716927D01*
X105072488Y-76671172D01*
X105141646Y-76661228D01*
X105205202Y-76690253D01*
X105219853Y-76705302D01*
X105253589Y-76746410D01*
X105333570Y-76812047D01*
X105413550Y-76877685D01*
X105596046Y-76975232D01*
X105794066Y-77035300D01*
X106000000Y-77055583D01*
X106205934Y-77035300D01*
X106403954Y-76975232D01*
X106586450Y-76877685D01*
X106746410Y-76746410D01*
X106877685Y-76586450D01*
X106975232Y-76403954D01*
X107035300Y-76205934D01*
X107055583Y-76000000D01*
X107035300Y-75794066D01*
X106975232Y-75596046D01*
X106877685Y-75413550D01*
X106812047Y-75333569D01*
X106746410Y-75253589D01*
X106648952Y-75173608D01*
X106586450Y-75122315D01*
X106403954Y-75024768D01*
X106304944Y-74994733D01*
X106205932Y-74964699D01*
X106000000Y-74944417D01*
X105794067Y-74964699D01*
X105596043Y-75024769D01*
X105413551Y-75122314D01*
X105253589Y-75253589D01*
X105219854Y-75294697D01*
X105162108Y-75334032D01*
X105092264Y-75335903D01*
X105032495Y-75299716D01*
X105001779Y-75236960D01*
X105000000Y-75216033D01*
X105000000Y-73783966D01*
X105019685Y-73716927D01*
X105072489Y-73671172D01*
X105141647Y-73661228D01*
X105205203Y-73690253D01*
X105219855Y-73705303D01*
X105253590Y-73746411D01*
X105299352Y-73783966D01*
X105413550Y-73877685D01*
X105596046Y-73975232D01*
X105794066Y-74035300D01*
X106000000Y-74055583D01*
X106205934Y-74035300D01*
X106403954Y-73975232D01*
X106586450Y-73877685D01*
X106746410Y-73746410D01*
X106877685Y-73586450D01*
X106975232Y-73403954D01*
X107035300Y-73205934D01*
X107055583Y-73000000D01*
X107035300Y-72794066D01*
X106975232Y-72596046D01*
X106877685Y-72413550D01*
X106812047Y-72333569D01*
X106746410Y-72253589D01*
X106648952Y-72173608D01*
X106586450Y-72122315D01*
X106495201Y-72073541D01*
X106403956Y-72024769D01*
X106403955Y-72024768D01*
X106403954Y-72024768D01*
X106297975Y-71992620D01*
X106205932Y-71964699D01*
X106000000Y-71944417D01*
X105794067Y-71964699D01*
X105596043Y-72024769D01*
X105413551Y-72122314D01*
X105253589Y-72253589D01*
X105219854Y-72294697D01*
X105162108Y-72334032D01*
X105092264Y-72335903D01*
X105032495Y-72299716D01*
X105001779Y-72236960D01*
X105000000Y-72216033D01*
X105000000Y-70783966D01*
X105019685Y-70716927D01*
X105072489Y-70671172D01*
X105141647Y-70661228D01*
X105205203Y-70690253D01*
X105219855Y-70705303D01*
X105253590Y-70746411D01*
X105299352Y-70783966D01*
X105413550Y-70877685D01*
X105596046Y-70975232D01*
X105794066Y-71035300D01*
X106000000Y-71055583D01*
X106205934Y-71035300D01*
X106403954Y-70975232D01*
X106586450Y-70877685D01*
X106746410Y-70746410D01*
X106877685Y-70586450D01*
X106975232Y-70403954D01*
X107035300Y-70205934D01*
X107055583Y-70000000D01*
X107035300Y-69794066D01*
X106975232Y-69596046D01*
X106877685Y-69413550D01*
X106812047Y-69333569D01*
X106746410Y-69253589D01*
X106648952Y-69173608D01*
X106586450Y-69122315D01*
X106403954Y-69024768D01*
X106304944Y-68994733D01*
X106205932Y-68964699D01*
X106000000Y-68944417D01*
X105794067Y-68964699D01*
X105596043Y-69024769D01*
X105413551Y-69122314D01*
X105253589Y-69253589D01*
X105219854Y-69294697D01*
X105162108Y-69334032D01*
X105092264Y-69335903D01*
X105032495Y-69299716D01*
X105001779Y-69236960D01*
X105000000Y-69216033D01*
X105000000Y-67044168D01*
X106181648Y-67044168D01*
X106197120Y-67131907D01*
X106212277Y-67217866D01*
X106282135Y-67379818D01*
X106282136Y-67379818D01*
X106387461Y-67521294D01*
X106522570Y-67634665D01*
X106522571Y-67634665D01*
X106522573Y-67634667D01*
X106680189Y-67713824D01*
X106680190Y-67713824D01*
X106680192Y-67713825D01*
X106851810Y-67754500D01*
X106851812Y-67754500D01*
X106980342Y-67754500D01*
X106983941Y-67754500D01*
X107115184Y-67739160D01*
X107280924Y-67678836D01*
X107428285Y-67581915D01*
X107549322Y-67453623D01*
X107637510Y-67300876D01*
X107688095Y-67131909D01*
X107698351Y-66955831D01*
X107667723Y-66782134D01*
X107597864Y-66620182D01*
X107492539Y-66478706D01*
X107492538Y-66478705D01*
X107357429Y-66365334D01*
X107199807Y-66286174D01*
X107028190Y-66245500D01*
X107028188Y-66245500D01*
X106896059Y-66245500D01*
X106892492Y-66245916D01*
X106892490Y-66245917D01*
X106764813Y-66260840D01*
X106599074Y-66321164D01*
X106451715Y-66418084D01*
X106330676Y-66546377D01*
X106242491Y-66699120D01*
X106242489Y-66699124D01*
X106242490Y-66699124D01*
X106192244Y-66866961D01*
X106191905Y-66868092D01*
X106181648Y-67044168D01*
X105000000Y-67044168D01*
X105000000Y-65044168D01*
X106181648Y-65044168D01*
X106197120Y-65131907D01*
X106212277Y-65217866D01*
X106282135Y-65379818D01*
X106282136Y-65379818D01*
X106387461Y-65521294D01*
X106522570Y-65634665D01*
X106522571Y-65634665D01*
X106522573Y-65634667D01*
X106680189Y-65713824D01*
X106680190Y-65713824D01*
X106680192Y-65713825D01*
X106851810Y-65754500D01*
X106851812Y-65754500D01*
X106980342Y-65754500D01*
X106983941Y-65754500D01*
X107115184Y-65739160D01*
X107280924Y-65678836D01*
X107428285Y-65581915D01*
X107549322Y-65453623D01*
X107637510Y-65300876D01*
X107688095Y-65131909D01*
X107698351Y-64955831D01*
X107667723Y-64782134D01*
X107597864Y-64620182D01*
X107492539Y-64478706D01*
X107492538Y-64478705D01*
X107357429Y-64365334D01*
X107199807Y-64286174D01*
X107028190Y-64245500D01*
X107028188Y-64245500D01*
X106896059Y-64245500D01*
X106892492Y-64245916D01*
X106892490Y-64245917D01*
X106764813Y-64260840D01*
X106599074Y-64321164D01*
X106451715Y-64418084D01*
X106330676Y-64546377D01*
X106242491Y-64699120D01*
X106191905Y-64868092D01*
X106181648Y-65044168D01*
X105000000Y-65044168D01*
X105000000Y-62783966D01*
X105019685Y-62716927D01*
X105072489Y-62671172D01*
X105141647Y-62661228D01*
X105205203Y-62690253D01*
X105219855Y-62705303D01*
X105253590Y-62746411D01*
X105299352Y-62783966D01*
X105413550Y-62877685D01*
X105596046Y-62975232D01*
X105794066Y-63035300D01*
X106000000Y-63055583D01*
X106205934Y-63035300D01*
X106403954Y-62975232D01*
X106586450Y-62877685D01*
X106746410Y-62746410D01*
X106877685Y-62586450D01*
X106975232Y-62403954D01*
X107035300Y-62205934D01*
X107055583Y-62000000D01*
X107035300Y-61794066D01*
X106975232Y-61596046D01*
X106877685Y-61413550D01*
X106812047Y-61333569D01*
X106746410Y-61253589D01*
X106648952Y-61173608D01*
X106586450Y-61122315D01*
X106403954Y-61024768D01*
X106304944Y-60994733D01*
X106205932Y-60964699D01*
X106000000Y-60944417D01*
X105794067Y-60964699D01*
X105596043Y-61024769D01*
X105413551Y-61122314D01*
X105253589Y-61253589D01*
X105219854Y-61294697D01*
X105162108Y-61334032D01*
X105092264Y-61335903D01*
X105032495Y-61299716D01*
X105001779Y-61236960D01*
X105000000Y-61216033D01*
X105000000Y-59783966D01*
X105019685Y-59716927D01*
X105072489Y-59671172D01*
X105141647Y-59661228D01*
X105205203Y-59690253D01*
X105219855Y-59705303D01*
X105253590Y-59746411D01*
X105299352Y-59783966D01*
X105413550Y-59877685D01*
X105596046Y-59975232D01*
X105794066Y-60035300D01*
X106000000Y-60055583D01*
X106205934Y-60035300D01*
X106403954Y-59975232D01*
X106586450Y-59877685D01*
X106746410Y-59746410D01*
X106877685Y-59586450D01*
X106975232Y-59403954D01*
X107035300Y-59205934D01*
X107055583Y-59000000D01*
X107035300Y-58794066D01*
X106975232Y-58596046D01*
X106877685Y-58413550D01*
X106812047Y-58333569D01*
X106746410Y-58253589D01*
X106648952Y-58173608D01*
X106586450Y-58122315D01*
X106403954Y-58024768D01*
X106300807Y-57993479D01*
X106205932Y-57964699D01*
X106000000Y-57944417D01*
X105794067Y-57964699D01*
X105596043Y-58024769D01*
X105413551Y-58122314D01*
X105253589Y-58253589D01*
X105219854Y-58294697D01*
X105162108Y-58334032D01*
X105092264Y-58335903D01*
X105032495Y-58299716D01*
X105001779Y-58236960D01*
X105000000Y-58216033D01*
X105000000Y-56783966D01*
X105019685Y-56716927D01*
X105072489Y-56671172D01*
X105141647Y-56661228D01*
X105205203Y-56690253D01*
X105219855Y-56705303D01*
X105253590Y-56746411D01*
X105299352Y-56783966D01*
X105413550Y-56877685D01*
X105596046Y-56975232D01*
X105794066Y-57035300D01*
X106000000Y-57055583D01*
X106205934Y-57035300D01*
X106403954Y-56975232D01*
X106586450Y-56877685D01*
X106746410Y-56746410D01*
X106877685Y-56586450D01*
X106975232Y-56403954D01*
X107035300Y-56205934D01*
X107055583Y-56000000D01*
X107035300Y-55794066D01*
X106975232Y-55596046D01*
X106877685Y-55413550D01*
X106791453Y-55308475D01*
X106746410Y-55253589D01*
X106648952Y-55173608D01*
X106586450Y-55122315D01*
X106403954Y-55024768D01*
X106304944Y-54994733D01*
X106205932Y-54964699D01*
X106000000Y-54944417D01*
X105794067Y-54964699D01*
X105596043Y-55024769D01*
X105413551Y-55122314D01*
X105253589Y-55253589D01*
X105219854Y-55294697D01*
X105162108Y-55334032D01*
X105092264Y-55335903D01*
X105032495Y-55299716D01*
X105001779Y-55236960D01*
X105000000Y-55216033D01*
X105000000Y-53044168D01*
X106181648Y-53044168D01*
X106197120Y-53131907D01*
X106212277Y-53217866D01*
X106282135Y-53379818D01*
X106282136Y-53379818D01*
X106387461Y-53521294D01*
X106522570Y-53634665D01*
X106522571Y-53634665D01*
X106522573Y-53634667D01*
X106680189Y-53713824D01*
X106680190Y-53713824D01*
X106680192Y-53713825D01*
X106851810Y-53754500D01*
X106851812Y-53754500D01*
X106980342Y-53754500D01*
X106983941Y-53754500D01*
X107115184Y-53739160D01*
X107280924Y-53678836D01*
X107428285Y-53581915D01*
X107549322Y-53453623D01*
X107637510Y-53300876D01*
X107688095Y-53131909D01*
X107698351Y-52955831D01*
X107667723Y-52782134D01*
X107597864Y-52620182D01*
X107492539Y-52478706D01*
X107420486Y-52418246D01*
X107357429Y-52365334D01*
X107199807Y-52286174D01*
X107028190Y-52245500D01*
X107028188Y-52245500D01*
X106896059Y-52245500D01*
X106892492Y-52245916D01*
X106892490Y-52245917D01*
X106764813Y-52260840D01*
X106599074Y-52321164D01*
X106451715Y-52418084D01*
X106330676Y-52546377D01*
X106242491Y-52699120D01*
X106191905Y-52868092D01*
X106181648Y-53044168D01*
X105000000Y-53044168D01*
X105000000Y-50508125D01*
X105001061Y-50491940D01*
X105014906Y-50386776D01*
X105023284Y-50355508D01*
X105060740Y-50265081D01*
X105076923Y-50237050D01*
X105136513Y-50159392D01*
X105159392Y-50136513D01*
X105237050Y-50076923D01*
X105265079Y-50060740D01*
X105355509Y-50023283D01*
X105386775Y-50014906D01*
X105485856Y-50001861D01*
X105514194Y-50001398D01*
X105723344Y-50021997D01*
G37*
%TD.AperFunction*%
%TD*%
M02*
