M48
; DRILL file {KiCad 7.0.2} date Tue Nov 21 14:26:03 2023
; FORMAT={-:-/ absolute / metric / decimal}
; #@! TF.CreationDate,2023-11-21T14:26:03-06:00
; #@! TF.GenerationSoftware,Kicad,Pcbnew,7.0.2
; #@! TF.FileFunction,Plated,1,4,PTH
FMAT,2
METRIC
; #@! TA.AperFunction,Plated,PTH,ViaDrill
T1C0.300
; #@! TA.AperFunction,Plated,PTH,ComponentDrill
T2C0.600
; #@! TA.AperFunction,Plated,PTH,ComponentDrill
T3C0.850
; #@! TA.AperFunction,Plated,PTH,ComponentDrill
T4C1.000
; #@! TA.AperFunction,Plated,PTH,ComponentDrill
T5C1.020
%
G90
G05
T1
X108.0Y-80.0
X108.6Y-44.7
X108.6Y-49.7
X109.2Y-71.5
X109.9Y-82.4
X110.8Y-73.1
X111.05Y-77.5
X111.087Y-79.5
X112.1Y-62.0
X113.0Y-83.0
X114.9Y-61.0
X114.9Y-63.1
X115.9Y-81.2
X119.0Y-63.0
X119.8Y-73.9
X119.9Y-57.703
X120.5Y-59.0
X120.5Y-63.0
X121.1Y-73.9
X121.6Y-76.3
X121.7Y-59.7
X121.7Y-79.2
X122.0Y-66.2
X122.2Y-57.7
X123.0Y-59.0
X123.0Y-63.0
X123.3Y-57.7
X123.5Y-52.75
X123.969Y-69.0
X124.3Y-59.0
X124.4Y-61.0
X124.4Y-63.0
X125.4Y-78.3
X125.5Y-73.4
X125.8Y-52.7
X126.0Y-80.0
X126.0Y-87.5
X126.5Y-70.7
X126.7Y-88.5
X127.0Y-77.7
X127.193Y-59.507
X127.3Y-58.5
X127.4Y-60.6
X128.0Y-89.0
X128.3Y-84.7
X128.4Y-58.05
X128.4Y-66.05
X128.481Y-58.979
X128.588Y-62.0
X128.588Y-64.0
X128.7Y-78.3
X129.5Y-86.3
X129.8Y-67.0
X129.9Y-51.0
X129.955Y-67.945
X130.3Y-73.6
X130.4Y-52.2
X130.412Y-62.0
X130.5Y-78.0
X130.5Y-80.0
X130.5Y-82.0
X130.5Y-84.0
X130.5Y-86.0
X130.5Y-88.0
X131.0Y-55.912
X131.1Y-58.08
X131.105Y-67.95
X131.3Y-52.7
X131.5Y-72.6
X131.9Y-48.9
X132.0Y-70.425
X132.123Y-66.702
X132.4Y-52.7
X132.4Y-87.3
X132.7Y-88.7
X133.0Y-55.9
X133.1Y-64.0
X133.2Y-63.0
X133.4Y-62.2
X133.6Y-65.3
X133.7Y-51.0
X133.8Y-74.6
X133.932Y-47.144
X134.2Y-89.0
X135.0Y-49.912
X135.0Y-54.087
X135.0Y-81.5
X135.2Y-74.6
X135.9Y-47.05
X135.9Y-51.2
X136.3Y-63.9
X136.5Y-65.9
X136.5Y-66.8
X136.8Y-68.4
X136.9Y-87.7
X137.0Y-48.087
X137.0Y-54.1
X137.4Y-85.0
X137.5Y-66.0
X137.5Y-67.6
X137.5Y-75.412
X138.0Y-81.5
X138.429Y-65.2
X138.6Y-48.8
X138.8Y-61.2
X138.8Y-62.0
X138.8Y-62.8
X138.8Y-63.6
X138.8Y-64.4
X138.9Y-86.3
T3
X130.5Y-44.2
X135.5Y-44.2
T4
X103.0Y-45.5
X103.0Y-84.5
X105.5Y-43.0
X105.5Y-87.0
X111.46Y-87.0
X114.0Y-87.0
X118.2Y-50.0
X120.74Y-50.0
X123.28Y-50.0
X125.82Y-50.0
T5
X103.5Y-51.5
X103.5Y-54.5
X103.5Y-57.5
X103.5Y-60.5
X103.5Y-69.5
X103.5Y-72.5
X103.5Y-75.5
X103.5Y-78.5
T2
G00X129.5Y-41.85
M15
G01X129.5Y-41.15
M16
G05
G00X136.5Y-41.15
M15
G01X136.5Y-41.85
M16
G05
T0
M30
