%TF.GenerationSoftware,KiCad,Pcbnew,7.0.2*%
%TF.CreationDate,2023-09-23T11:43:56-05:00*%
%TF.ProjectId,BPS-PeripheralSOM,4250532d-5065-4726-9970-686572616c53,rev?*%
%TF.SameCoordinates,Original*%
%TF.FileFunction,Copper,L1,Top*%
%TF.FilePolarity,Positive*%
%FSLAX46Y46*%
G04 Gerber Fmt 4.6, Leading zero omitted, Abs format (unit mm)*
G04 Created by KiCad (PCBNEW 7.0.2) date 2023-09-23 11:43:56*
%MOMM*%
%LPD*%
G01*
G04 APERTURE LIST*
G04 Aperture macros list*
%AMRoundRect*
0 Rectangle with rounded corners*
0 $1 Rounding radius*
0 $2 $3 $4 $5 $6 $7 $8 $9 X,Y pos of 4 corners*
0 Add a 4 corners polygon primitive as box body*
4,1,4,$2,$3,$4,$5,$6,$7,$8,$9,$2,$3,0*
0 Add four circle primitives for the rounded corners*
1,1,$1+$1,$2,$3*
1,1,$1+$1,$4,$5*
1,1,$1+$1,$6,$7*
1,1,$1+$1,$8,$9*
0 Add four rect primitives between the rounded corners*
20,1,$1+$1,$2,$3,$4,$5,0*
20,1,$1+$1,$4,$5,$6,$7,0*
20,1,$1+$1,$6,$7,$8,$9,0*
20,1,$1+$1,$8,$9,$2,$3,0*%
G04 Aperture macros list end*
%TA.AperFunction,ComponentPad*%
%ADD10C,2.800000*%
%TD*%
%TA.AperFunction,SMDPad,CuDef*%
%ADD11R,2.750000X1.000000*%
%TD*%
%TA.AperFunction,SMDPad,CuDef*%
%ADD12RoundRect,0.250000X-0.475000X0.250000X-0.475000X-0.250000X0.475000X-0.250000X0.475000X0.250000X0*%
%TD*%
%TA.AperFunction,ComponentPad*%
%ADD13R,1.700000X1.700000*%
%TD*%
%TA.AperFunction,ComponentPad*%
%ADD14O,1.700000X1.700000*%
%TD*%
%TA.AperFunction,SMDPad,CuDef*%
%ADD15R,0.650000X1.528000*%
%TD*%
%TA.AperFunction,SMDPad,CuDef*%
%ADD16R,1.700000X2.400000*%
%TD*%
%TA.AperFunction,SMDPad,CuDef*%
%ADD17RoundRect,0.243750X-0.243750X-0.456250X0.243750X-0.456250X0.243750X0.456250X-0.243750X0.456250X0*%
%TD*%
%TA.AperFunction,SMDPad,CuDef*%
%ADD18RoundRect,0.075000X0.075000X-0.662500X0.075000X0.662500X-0.075000X0.662500X-0.075000X-0.662500X0*%
%TD*%
%TA.AperFunction,SMDPad,CuDef*%
%ADD19RoundRect,0.075000X0.662500X-0.075000X0.662500X0.075000X-0.662500X0.075000X-0.662500X-0.075000X0*%
%TD*%
%TA.AperFunction,SMDPad,CuDef*%
%ADD20R,0.600000X1.950000*%
%TD*%
%TA.AperFunction,SMDPad,CuDef*%
%ADD21R,0.762000X1.117600*%
%TD*%
%TA.AperFunction,SMDPad,CuDef*%
%ADD22RoundRect,0.250000X-0.250000X-0.475000X0.250000X-0.475000X0.250000X0.475000X-0.250000X0.475000X0*%
%TD*%
%TA.AperFunction,ComponentPad*%
%ADD23RoundRect,0.250001X0.499999X-0.499999X0.499999X0.499999X-0.499999X0.499999X-0.499999X-0.499999X0*%
%TD*%
%TA.AperFunction,ComponentPad*%
%ADD24C,1.500000*%
%TD*%
%TA.AperFunction,ComponentPad*%
%ADD25O,1.000000X1.800000*%
%TD*%
%TA.AperFunction,SMDPad,CuDef*%
%ADD26R,0.400000X1.350000*%
%TD*%
%TA.AperFunction,ComponentPad*%
%ADD27O,1.200000X1.900000*%
%TD*%
%TA.AperFunction,SMDPad,CuDef*%
%ADD28R,1.200000X1.900000*%
%TD*%
%TA.AperFunction,ComponentPad*%
%ADD29C,1.450000*%
%TD*%
%TA.AperFunction,SMDPad,CuDef*%
%ADD30R,1.500000X1.900000*%
%TD*%
%TA.AperFunction,SMDPad,CuDef*%
%ADD31R,0.558800X5.410200*%
%TD*%
%TA.AperFunction,SMDPad,CuDef*%
%ADD32R,1.003300X0.558800*%
%TD*%
%TA.AperFunction,ViaPad*%
%ADD33C,0.800000*%
%TD*%
%TA.AperFunction,ViaPad*%
%ADD34C,0.500000*%
%TD*%
%TA.AperFunction,Conductor*%
%ADD35C,1.000000*%
%TD*%
%TA.AperFunction,Conductor*%
%ADD36C,0.500000*%
%TD*%
%TA.AperFunction,Conductor*%
%ADD37C,0.250000*%
%TD*%
%TA.AperFunction,Conductor*%
%ADD38C,0.650000*%
%TD*%
G04 APERTURE END LIST*
D10*
%TO.P,TP4,1,1*%
%TO.N,GNDPWR*%
X137000000Y-84500000D03*
%TD*%
D11*
%TO.P,SW5,1,1*%
%TO.N,GND*%
X137375000Y-80500000D03*
X131625000Y-80500000D03*
%TO.P,SW5,2,2*%
%TO.N,Net-(C5-Pad1)*%
X137375000Y-76500000D03*
X131625000Y-76500000D03*
%TD*%
D12*
%TO.P,C22,1*%
%TO.N,/OSC_OUT*%
X122500000Y-71950000D03*
%TO.P,C22,2*%
%TO.N,GND*%
X122500000Y-73850000D03*
%TD*%
D13*
%TO.P,J1,1,Pin_1*%
%TO.N,+3.3V*%
X118950000Y-53350000D03*
D14*
%TO.P,J1,2,Pin_2*%
%TO.N,/SWCLK*%
X121490000Y-53350000D03*
%TO.P,J1,3,Pin_3*%
%TO.N,/SWDIO*%
X124030000Y-53350000D03*
%TO.P,J1,4,Pin_4*%
%TO.N,GND*%
X126570000Y-53350000D03*
%TD*%
D15*
%TO.P,IC1,1,1SOURCE*%
%TO.N,+3.3V*%
X134190000Y-58422000D03*
%TO.P,IC1,2,1GATE*%
%TO.N,Net-(IC1-1GATE)*%
X135460000Y-58422000D03*
%TO.P,IC1,3,2SOURCE*%
%TO.N,+3.3V*%
X136730000Y-58422000D03*
%TO.P,IC1,4,2GATE*%
%TO.N,Net-(IC1-1GATE)*%
X138000000Y-58422000D03*
%TO.P,IC1,5,2DRAIN_1*%
%TO.N,Net-(IC1-2DRAIN_1)*%
X138000000Y-53000000D03*
%TO.P,IC1,6,2DRAIN_2*%
X136730000Y-53000000D03*
%TO.P,IC1,7,1DRAIN_1*%
%TO.N,Net-(IC1-1DRAIN_1)*%
X135460000Y-53000000D03*
%TO.P,IC1,8,1DRAIN_2*%
X134190000Y-53000000D03*
%TD*%
D16*
%TO.P,Y1,1,1*%
%TO.N,/OSC_IN*%
X118650000Y-68900000D03*
%TO.P,Y1,2,2*%
%TO.N,/OSC_OUT*%
X122350000Y-68900000D03*
%TD*%
D17*
%TO.P,D14,1,K*%
%TO.N,GND*%
X110500000Y-58269450D03*
%TO.P,D14,2,A*%
%TO.N,Net-(D14-A)*%
X112375000Y-58269450D03*
%TD*%
D13*
%TO.P,JP1,1,1*%
%TO.N,/CAN_L*%
X121500000Y-49500000D03*
D14*
%TO.P,JP1,2,2*%
%TO.N,/CAN/TERM_H*%
X118960000Y-49500000D03*
%TD*%
D10*
%TO.P,TP6,1,1*%
%TO.N,GND*%
X130000000Y-84500000D03*
%TD*%
D18*
%TO.P,U1,1,VBAT*%
%TO.N,unconnected-(U1-VBAT-Pad1)*%
X119000000Y-64825000D03*
%TO.P,U1,2,PC13*%
%TO.N,unconnected-(U1-PC13-Pad2)*%
X119500000Y-64825000D03*
%TO.P,U1,3,PC14*%
%TO.N,/OSC_IN*%
X120000000Y-64825000D03*
%TO.P,U1,4,PC15*%
%TO.N,/OSC_OUT*%
X120500000Y-64825000D03*
%TO.P,U1,5,PH0*%
%TO.N,unconnected-(U1-PH0-Pad5)*%
X121000000Y-64825000D03*
%TO.P,U1,6,PH1*%
%TO.N,unconnected-(U1-PH1-Pad6)*%
X121500000Y-64825000D03*
%TO.P,U1,7,NRST*%
%TO.N,/NRST*%
X122000000Y-64825000D03*
%TO.P,U1,8,VSSA*%
%TO.N,GNDA*%
X122500000Y-64825000D03*
%TO.P,U1,9,VDDA*%
%TO.N,VDDA*%
X123000000Y-64825000D03*
%TO.P,U1,10,PA0*%
%TO.N,unconnected-(U1-PA0-Pad10)*%
X123500000Y-64825000D03*
%TO.P,U1,11,PA1*%
%TO.N,/PA1*%
X124000000Y-64825000D03*
%TO.P,U1,12,PA2*%
%TO.N,/PA2*%
X124500000Y-64825000D03*
D19*
%TO.P,U1,13,PA3*%
%TO.N,unconnected-(U1-PA3-Pad13)*%
X125912500Y-63412500D03*
%TO.P,U1,14,PA4*%
%TO.N,/SPI1_NSS*%
X125912500Y-62912500D03*
%TO.P,U1,15,PA5*%
%TO.N,Net-(U1-PA5)*%
X125912500Y-62412500D03*
%TO.P,U1,16,PA6*%
%TO.N,/SPI1_MISO*%
X125912500Y-61912500D03*
%TO.P,U1,17,PA7*%
%TO.N,Net-(U1-PA7)*%
X125912500Y-61412500D03*
%TO.P,U1,18,PB0*%
%TO.N,unconnected-(U1-PB0-Pad18)*%
X125912500Y-60912500D03*
%TO.P,U1,19,PB1*%
%TO.N,unconnected-(U1-PB1-Pad19)*%
X125912500Y-60412500D03*
%TO.P,U1,20,PB2*%
%TO.N,unconnected-(U1-PB2-Pad20)*%
X125912500Y-59912500D03*
%TO.P,U1,21,PB10*%
%TO.N,/I2C2_SCL*%
X125912500Y-59412500D03*
%TO.P,U1,22,PB11*%
%TO.N,/I2C2_SDA*%
X125912500Y-58912500D03*
%TO.P,U1,23,VSS*%
%TO.N,GND*%
X125912500Y-58412500D03*
%TO.P,U1,24,VDD*%
%TO.N,+3.3V*%
X125912500Y-57912500D03*
D18*
%TO.P,U1,25,PB12*%
%TO.N,/SPI2_NSS*%
X124500000Y-56500000D03*
%TO.P,U1,26,PB13*%
%TO.N,/SPI2_SCK*%
X124000000Y-56500000D03*
%TO.P,U1,27,PB14*%
%TO.N,/SPI2_MISO*%
X123500000Y-56500000D03*
%TO.P,U1,28,PB15*%
%TO.N,/SPI2_MOSI*%
X123000000Y-56500000D03*
%TO.P,U1,29,PA8*%
%TO.N,/PA8*%
X122500000Y-56500000D03*
%TO.P,U1,30,PA9*%
%TO.N,/USART1_TX*%
X122000000Y-56500000D03*
%TO.P,U1,31,PA10*%
%TO.N,/USART1_RX*%
X121500000Y-56500000D03*
%TO.P,U1,32,PA11*%
%TO.N,/SILENT*%
X121000000Y-56500000D03*
%TO.P,U1,33,PA12*%
%TO.N,/STDBY*%
X120500000Y-56500000D03*
%TO.P,U1,34,PA13*%
%TO.N,/SWDIO*%
X120000000Y-56500000D03*
%TO.P,U1,35,VSS*%
%TO.N,GND*%
X119500000Y-56500000D03*
%TO.P,U1,36,VDD*%
%TO.N,+3.3V*%
X119000000Y-56500000D03*
D19*
%TO.P,U1,37,PA14*%
%TO.N,/SWCLK*%
X117587500Y-57912500D03*
%TO.P,U1,38,PA15*%
%TO.N,/PA15*%
X117587500Y-58412500D03*
%TO.P,U1,39,PB3*%
%TO.N,/PB3*%
X117587500Y-58912500D03*
%TO.P,U1,40,PB4*%
%TO.N,/PB4*%
X117587500Y-59412500D03*
%TO.P,U1,41,PB5*%
%TO.N,/PB5*%
X117587500Y-59912500D03*
%TO.P,U1,42,PB6*%
%TO.N,/I2C1_SCL*%
X117587500Y-60412500D03*
%TO.P,U1,43,PB7*%
%TO.N,/I2C1_SDA*%
X117587500Y-60912500D03*
%TO.P,U1,44,PH3*%
%TO.N,unconnected-(U1-PH3-Pad44)*%
X117587500Y-61412500D03*
%TO.P,U1,45,PB8*%
%TO.N,/CAN_RX*%
X117587500Y-61912500D03*
%TO.P,U1,46,PB9*%
%TO.N,/CAN_TX*%
X117587500Y-62412500D03*
%TO.P,U1,47,VSS*%
%TO.N,GND*%
X117587500Y-62912500D03*
%TO.P,U1,48,VDD*%
%TO.N,+3.3V*%
X117587500Y-63412500D03*
%TD*%
D11*
%TO.P,SW1,1,1*%
%TO.N,/NRST*%
X119125000Y-76500000D03*
X124875000Y-76500000D03*
%TO.P,SW1,2,2*%
%TO.N,GND*%
X119125000Y-80500000D03*
X124875000Y-80500000D03*
%TD*%
D20*
%TO.P,U7,1,GND_In*%
%TO.N,GND*%
X103235000Y-50962500D03*
%TO.P,U7,2,GND_In*%
X104505000Y-50962500D03*
%TO.P,U7,3,V_In*%
%TO.N,+5V*%
X105775000Y-50962500D03*
%TO.P,U7,4,V_IO*%
%TO.N,+3.3V*%
X107045000Y-50962500D03*
%TO.P,U7,5,RX*%
%TO.N,/CAN_RX*%
X108315000Y-50962500D03*
%TO.P,U7,6,SILENT*%
%TO.N,/SILENT*%
X109585000Y-50962500D03*
%TO.P,U7,7,TX*%
%TO.N,/CAN_TX*%
X110855000Y-50962500D03*
%TO.P,U7,8,STDBY*%
%TO.N,/STDBY*%
X112125000Y-50962500D03*
%TO.P,U7,9,AUX_In*%
%TO.N,unconnected-(U7-AUX_In-Pad9)*%
X113395000Y-50962500D03*
%TO.P,U7,10,GND_In*%
%TO.N,GND*%
X114665000Y-50962500D03*
%TO.P,U7,11,GND_ISO_In*%
%TO.N,GND1*%
X114665000Y-41562500D03*
%TO.P,U7,12,RS*%
%TO.N,/CAN/RSlope*%
X113395000Y-41562500D03*
%TO.P,U7,13,CAN_L*%
%TO.N,/CAN_L*%
X112125000Y-41562500D03*
%TO.P,U7,14,CAN_H*%
%TO.N,/CAN_H*%
X110855000Y-41562500D03*
%TO.P,U7,15,GND_ISO_In*%
%TO.N,GND1*%
X109585000Y-41562500D03*
%TO.P,U7,16,V_ISO_In*%
%TO.N,/V_CAN_IN*%
X108315000Y-41562500D03*
%TO.P,U7,17,AUX_Out*%
%TO.N,unconnected-(U7-AUX_Out-Pad17)*%
X107045000Y-41562500D03*
%TO.P,U7,18,GND_ISO_Out*%
%TO.N,/CAN/GND_ISO_Out*%
X105775000Y-41562500D03*
%TO.P,U7,19,V_ISO_Out*%
%TO.N,/CAN/V_ISO_Out*%
X104505000Y-41562500D03*
%TO.P,U7,20,GND_ISO_Out*%
%TO.N,/CAN/GND_ISO_Out*%
X103235000Y-41562500D03*
%TD*%
D21*
%TO.P,SW2,1,A*%
%TO.N,unconnected-(SW2-A-Pad1)*%
X132749998Y-73892300D03*
%TO.P,SW2,2,B*%
%TO.N,/PA2*%
X134500000Y-70107700D03*
%TO.P,SW2,3,C*%
%TO.N,GND*%
X136250002Y-73892300D03*
%TD*%
D22*
%TO.P,C3,1*%
%TO.N,+3.3V*%
X110450000Y-71600000D03*
%TO.P,C3,2*%
%TO.N,GND*%
X112350000Y-71600000D03*
%TD*%
D17*
%TO.P,D12,1,K*%
%TO.N,GND*%
X110500000Y-63730550D03*
%TO.P,D12,2,A*%
%TO.N,Net-(D12-A)*%
X112375000Y-63730550D03*
%TD*%
D12*
%TO.P,C21,1*%
%TO.N,/OSC_IN*%
X118500000Y-71950000D03*
%TO.P,C21,2*%
%TO.N,GND*%
X118500000Y-73850000D03*
%TD*%
D23*
%TO.P,J2,1,Pin_1*%
%TO.N,GNDPWR*%
X103000000Y-62000000D03*
D24*
%TO.P,J2,2,Pin_2*%
%TO.N,/CAN_L*%
X103000000Y-59000000D03*
%TO.P,J2,3,Pin_3*%
%TO.N,GND1*%
X103000000Y-56000000D03*
%TO.P,J2,4,Pin_4*%
%TO.N,/V_CAN_IN*%
X106000000Y-62000000D03*
%TO.P,J2,5,Pin_5*%
%TO.N,/CAN_H*%
X106000000Y-59000000D03*
%TO.P,J2,6,Pin_6*%
%TO.N,/5V_Ext*%
X106000000Y-56000000D03*
%TD*%
D25*
%TO.P,U2,1,-Vin*%
%TO.N,GNDPWR*%
X105380000Y-88500000D03*
%TO.P,U2,2,+Vin*%
%TO.N,Net-(Q1-D)*%
X107920000Y-88500000D03*
%TO.P,U2,3,-Vout*%
%TO.N,GND*%
X110460000Y-88500000D03*
%TO.P,U2,4,+Vout*%
%TO.N,+5V*%
X113000000Y-88500000D03*
%TD*%
D17*
%TO.P,D2,1,K*%
%TO.N,GND*%
X110500000Y-66500000D03*
%TO.P,D2,2,A*%
%TO.N,Net-(D2-A)*%
X112375000Y-66500000D03*
%TD*%
D26*
%TO.P,J3,1,VBUS*%
%TO.N,Net-(J3-VBUS)*%
X132300000Y-44962500D03*
%TO.P,J3,2,D-*%
%TO.N,Net-(J3-D-)*%
X131650000Y-44962500D03*
%TO.P,J3,3,D+*%
%TO.N,Net-(J3-D+)*%
X131000000Y-44962500D03*
%TO.P,J3,4,ID*%
%TO.N,unconnected-(J3-ID-Pad4)*%
X130350000Y-44962500D03*
%TO.P,J3,5,GND*%
%TO.N,GND*%
X129700000Y-44962500D03*
D27*
%TO.P,J3,6,Shield*%
X134500000Y-42262500D03*
D28*
X133900000Y-42262500D03*
D29*
X133500000Y-44962500D03*
D30*
X132000000Y-42262500D03*
X130000000Y-42262500D03*
D29*
X128500000Y-44962500D03*
D28*
X128100000Y-42262500D03*
D27*
X127500000Y-42262500D03*
%TD*%
D17*
%TO.P,D4,1,K*%
%TO.N,GND*%
X110500000Y-55538900D03*
%TO.P,D4,2,A*%
%TO.N,Net-(D4-A)*%
X112375000Y-55538900D03*
%TD*%
D31*
%TO.P,C1,1*%
%TO.N,Net-(Q1-D)*%
X116000000Y-78500000D03*
%TO.P,C1,2*%
%TO.N,GNDPWR*%
X109751600Y-78500000D03*
%TD*%
D10*
%TO.P,TP5,1,1*%
%TO.N,+5V*%
X126500000Y-87500000D03*
%TD*%
%TO.P,TP3,1,1*%
%TO.N,Net-(Q1-D)*%
X133500000Y-87500000D03*
%TD*%
D32*
%TO.P,CR2,1,1*%
%TO.N,/SPI1_SCK*%
X128400000Y-66049999D03*
%TO.P,CR2,2,2*%
%TO.N,GND*%
X128400000Y-67000000D03*
%TO.P,CR2,3,3*%
%TO.N,/SPI1_NSS*%
X128400000Y-67950001D03*
%TO.P,CR2,4,4*%
%TO.N,/SPI1_MOSI*%
X131105100Y-67950001D03*
%TO.P,CR2,5,5*%
%TO.N,unconnected-(CR2-Pad5)*%
X131105100Y-67000000D03*
%TO.P,CR2,6,6*%
%TO.N,/SPI1_MISO*%
X131105100Y-66049999D03*
%TD*%
D23*
%TO.P,J5,1,Pin_1*%
%TO.N,GNDPWR*%
X103000000Y-76000000D03*
D24*
%TO.P,J5,2,Pin_2*%
%TO.N,/CAN_L*%
X103000000Y-73000000D03*
%TO.P,J5,3,Pin_3*%
%TO.N,GND1*%
X103000000Y-70000000D03*
%TO.P,J5,4,Pin_4*%
%TO.N,/V_CAN_IN*%
X106000000Y-76000000D03*
%TO.P,J5,5,Pin_5*%
%TO.N,/CAN_H*%
X106000000Y-73000000D03*
%TO.P,J5,6,Pin_6*%
%TO.N,/5V_Ext*%
X106000000Y-70000000D03*
%TD*%
D32*
%TO.P,CR1,1,1*%
%TO.N,/SPI2_MOSI*%
X128400000Y-58049999D03*
%TO.P,CR1,2,2*%
%TO.N,GND*%
X128400000Y-59000000D03*
%TO.P,CR1,3,3*%
%TO.N,/SPI2_NSS*%
X128400000Y-59950001D03*
%TO.P,CR1,4,4*%
%TO.N,/SPI2_SCK*%
X131105100Y-59950001D03*
%TO.P,CR1,5,5*%
%TO.N,unconnected-(CR1-Pad5)*%
X131105100Y-59000000D03*
%TO.P,CR1,6,6*%
%TO.N,/SPI2_MISO*%
X131105100Y-58049999D03*
%TD*%
D17*
%TO.P,D13,1,K*%
%TO.N,GND*%
X110500000Y-61000000D03*
%TO.P,D13,2,A*%
%TO.N,Net-(D13-A)*%
X112375000Y-61000000D03*
%TD*%
D22*
%TO.P,C2,1*%
%TO.N,+5V*%
X110500000Y-69100000D03*
%TO.P,C2,2*%
%TO.N,GND*%
X112400000Y-69100000D03*
%TD*%
D33*
%TO.N,+5V*%
X105775000Y-50962500D03*
D34*
X110000000Y-69200000D03*
X137200000Y-68050000D03*
%TO.N,GND*%
X129800000Y-67000000D03*
X135503987Y-65192160D03*
X114665000Y-50962500D03*
X134500000Y-80500000D03*
X135890000Y-51450000D03*
X124620326Y-62829674D03*
X131437500Y-48750000D03*
X119050000Y-63000000D03*
X136500000Y-74000000D03*
X137000000Y-78500000D03*
X112350000Y-72750000D03*
X128500000Y-59000000D03*
X119500000Y-78500000D03*
X138800000Y-62000000D03*
X118500000Y-73850000D03*
X119250000Y-57850500D03*
X121500000Y-80500000D03*
X102500000Y-50962500D03*
%TO.N,+3.3V*%
X118550000Y-55650000D03*
X110450000Y-71600000D03*
X120900000Y-63000000D03*
X133062035Y-47138988D03*
X138800000Y-61200000D03*
X116300000Y-68450000D03*
X137000000Y-64374500D03*
X131000000Y-55912500D03*
X136000000Y-48700000D03*
X116550500Y-63769712D03*
X123649502Y-69100000D03*
X120912500Y-59000000D03*
X107000000Y-49562500D03*
X116350000Y-73900000D03*
X116500000Y-71500000D03*
X127294543Y-57887678D03*
%TO.N,/NRST*%
X119500000Y-76600000D03*
%TO.N,GNDPWR*%
X109500000Y-82000000D03*
%TO.N,/PB4*%
X115543483Y-59981017D03*
%TO.N,/PB5*%
X116400500Y-60500000D03*
%TO.N,/SPI2_MOSI*%
X128400000Y-58049999D03*
%TO.N,/SPI2_NSS*%
X129131233Y-59818767D03*
%TO.N,/SPI2_SCK*%
X131105100Y-59950001D03*
%TO.N,/SPI2_MISO*%
X131100026Y-58079573D03*
%TO.N,/SPI1_SCK*%
X128400000Y-66049999D03*
%TO.N,/SPI1_NSS*%
X129954641Y-67945359D03*
%TO.N,/SPI1_MOSI*%
X131105100Y-67950001D03*
X130412500Y-62000000D03*
%TO.N,/SPI1_MISO*%
X132122872Y-66701627D03*
%TO.N,/5V_Ext*%
X104500000Y-81937500D03*
%TO.N,/PA1*%
X132000000Y-78325000D03*
%TO.N,Net-(D2-A)*%
X112200000Y-66386100D03*
%TO.N,/PB3*%
X115524500Y-59000000D03*
%TO.N,/SWCLK*%
X117587500Y-57300000D03*
%TO.N,/SWDIO*%
X120000000Y-57700000D03*
%TO.N,/I2C1_SCL*%
X119087500Y-59000000D03*
X137500000Y-66000000D03*
%TO.N,/I2C1_SDA*%
X136500000Y-67000000D03*
X119087500Y-61000000D03*
%TO.N,/I2C2_SCL*%
X138800000Y-63600000D03*
X127000000Y-59500000D03*
%TO.N,/CAN/RSlope*%
X113395000Y-41562500D03*
%TO.N,Net-(U1-PA5)*%
X128587500Y-64000000D03*
%TO.N,Net-(U1-PA7)*%
X128587500Y-62000000D03*
%TO.N,/USART1_TX*%
X128000000Y-50000000D03*
%TO.N,/USART1_RX*%
X127000000Y-50000000D03*
%TO.N,/SILENT*%
X110003246Y-52418246D03*
X113149431Y-52425500D03*
%TO.N,GNDA*%
X132000000Y-70425500D03*
X138429500Y-65200000D03*
X125500000Y-73400000D03*
%TO.N,VDDA*%
X126337500Y-70062500D03*
X138800000Y-64400000D03*
%TO.N,/PowerDist/5V_Ferrite*%
X104500000Y-84062500D03*
X106500000Y-82000000D03*
X111500000Y-84550000D03*
%TO.N,/V_CAN_IN*%
X108315000Y-41562500D03*
X107200000Y-45575000D03*
D33*
%TO.N,GND1*%
X110000000Y-45462500D03*
X114500000Y-45462500D03*
D34*
%TO.N,/CAN/V_ISO_Out*%
X104505000Y-41562500D03*
%TO.N,/CAN/GND_ISO_Out*%
X105746375Y-48538876D03*
D33*
X105200000Y-45462500D03*
D34*
%TO.N,/CAN_H*%
X112750000Y-47162500D03*
X109998882Y-46533203D03*
%TO.N,/CAN_L*%
X114650000Y-47162500D03*
%TO.N,/PA15*%
X116168500Y-58031500D03*
%TO.N,Net-(J3-VBUS)*%
X132300000Y-44677575D03*
%TO.N,Net-(J3-D-)*%
X127800000Y-47800000D03*
X131650000Y-45837500D03*
%TO.N,Net-(J3-D+)*%
X131000000Y-45252075D03*
%TO.N,Net-(D14-A)*%
X112200000Y-58386100D03*
%TO.N,Net-(D13-A)*%
X112200000Y-60986100D03*
%TO.N,Net-(D12-A)*%
X112200000Y-63786100D03*
%TO.N,Net-(C5-Pad1)*%
X132000000Y-76500000D03*
X137000000Y-76600000D03*
%TO.N,Net-(D4-A)*%
X112200000Y-55586100D03*
D33*
%TO.N,Net-(Q1-D)*%
X113500000Y-85500000D03*
D34*
%TO.N,/PA8*%
X122465423Y-57513610D03*
%TO.N,Net-(IC1-1GATE)*%
X133000000Y-55900000D03*
%TO.N,/I2C2_SDA*%
X127448848Y-58800497D03*
X138800000Y-62800000D03*
%TO.N,Net-(IC1-2DRAIN_1)*%
X137000000Y-54100000D03*
%TO.N,Net-(IC1-1DRAIN_1)*%
X135000000Y-54087500D03*
%TD*%
D35*
%TO.N,GND*%
X134500000Y-43962500D02*
X133500000Y-44962500D01*
D36*
X102500000Y-50962500D02*
X103235000Y-50962500D01*
D37*
X123837500Y-62046848D02*
X123837500Y-58761827D01*
D36*
X103235000Y-50962500D02*
X104505000Y-50962500D01*
D35*
X130000000Y-42262500D02*
X132000000Y-42262500D01*
X134500000Y-80500000D02*
X131625000Y-80500000D01*
D37*
X136392300Y-73892300D02*
X136500000Y-74000000D01*
D35*
X118500000Y-73850000D02*
X122500000Y-73850000D01*
D37*
X118962500Y-62912500D02*
X119050000Y-63000000D01*
X124186827Y-58412500D02*
X125912500Y-58412500D01*
D35*
X121500000Y-80500000D02*
X124875000Y-80500000D01*
X112350000Y-72750000D02*
X112350000Y-69150000D01*
X137375000Y-80500000D02*
X134500000Y-80500000D01*
D36*
X128400000Y-59000000D02*
X128500000Y-59000000D01*
D37*
X119250000Y-57636827D02*
X119500000Y-57386827D01*
D36*
X110500000Y-67200000D02*
X110500000Y-55538900D01*
D37*
X123837500Y-58761827D02*
X124186827Y-58412500D01*
X136250002Y-73892300D02*
X136392300Y-73892300D01*
D35*
X110500000Y-67031497D02*
X110500000Y-66500000D01*
X119125000Y-80500000D02*
X121500000Y-80500000D01*
X128500000Y-44962500D02*
X129450000Y-44962500D01*
X132000000Y-42262500D02*
X134500000Y-42262500D01*
D37*
X124620326Y-62829674D02*
X123837500Y-62046848D01*
D35*
X127500000Y-42262500D02*
X127500000Y-43962500D01*
D37*
X128400000Y-67000000D02*
X129800000Y-67000000D01*
D35*
X127500000Y-43962500D02*
X128500000Y-44962500D01*
X127500000Y-42262500D02*
X130000000Y-42262500D01*
D37*
X119250000Y-57850500D02*
X119250000Y-57636827D01*
X119500000Y-57386827D02*
X119500000Y-56500000D01*
X117587500Y-62912500D02*
X118962500Y-62912500D01*
D36*
X112400000Y-69100000D02*
X110500000Y-67200000D01*
D35*
X134500000Y-42262500D02*
X134500000Y-43962500D01*
D37*
%TO.N,+3.3V*%
X107045000Y-49607500D02*
X107000000Y-49562500D01*
X120337500Y-58425000D02*
X120912500Y-59000000D01*
X119000000Y-56100000D02*
X119000000Y-56500000D01*
X107045000Y-50962500D02*
X107045000Y-49607500D01*
X117587500Y-63412500D02*
X116907712Y-63412500D01*
X118675000Y-56825000D02*
X118675000Y-58088673D01*
X127269721Y-57912500D02*
X127294543Y-57887678D01*
D38*
X136730000Y-58422000D02*
X136730000Y-59870000D01*
D37*
X119011327Y-58425000D02*
X120337500Y-58425000D01*
X118675000Y-58088673D02*
X119011327Y-58425000D01*
X125912500Y-57912500D02*
X127269721Y-57912500D01*
X116907712Y-63412500D02*
X116550500Y-63769712D01*
X118550000Y-55650000D02*
X119000000Y-56100000D01*
X119000000Y-56500000D02*
X118675000Y-56825000D01*
D35*
%TO.N,/NRST*%
X119125000Y-76500000D02*
X124875000Y-76500000D01*
D37*
X122000000Y-64825000D02*
X122000000Y-66000000D01*
X122000000Y-66000000D02*
X124875000Y-68875000D01*
X124875000Y-68875000D02*
X124875000Y-76500000D01*
D36*
%TO.N,GNDPWR*%
X109500000Y-82000000D02*
X109751600Y-81748400D01*
X109751600Y-81748400D02*
X109751600Y-78500000D01*
D37*
%TO.N,/OSC_IN*%
X120000000Y-64825000D02*
X120000000Y-67550000D01*
D35*
X118500000Y-71950000D02*
X118500000Y-69050000D01*
D37*
X120000000Y-67550000D02*
X118650000Y-68900000D01*
%TO.N,/OSC_OUT*%
X120500000Y-64825000D02*
X120500000Y-67050000D01*
D35*
X122500000Y-71950000D02*
X122500000Y-69050000D01*
X122500000Y-68650000D02*
X122350000Y-68500000D01*
D37*
X122000000Y-68500000D02*
X122350000Y-68500000D01*
X120500000Y-67050000D02*
X122350000Y-68900000D01*
%TO.N,/PB4*%
X116112000Y-59412500D02*
X117587500Y-59412500D01*
X115543483Y-59981017D02*
X116112000Y-59412500D01*
%TO.N,/PB5*%
X116784315Y-59912500D02*
X117587500Y-59912500D01*
X116400500Y-60296315D02*
X116784315Y-59912500D01*
X116400500Y-60500000D02*
X116400500Y-60296315D01*
%TO.N,/SPI2_MOSI*%
X128400000Y-58049999D02*
X127662679Y-57312678D01*
X123259315Y-57562500D02*
X123000000Y-57303185D01*
X123000000Y-57303185D02*
X123000000Y-56500000D01*
X127662679Y-57312678D02*
X125174822Y-57312678D01*
X125174822Y-57312678D02*
X124925000Y-57562500D01*
X124925000Y-57562500D02*
X123259315Y-57562500D01*
%TO.N,/SPI2_NSS*%
X128263604Y-56500000D02*
X124500000Y-56500000D01*
X129382946Y-59950001D02*
X129382946Y-57619342D01*
X129382946Y-57619342D02*
X128263604Y-56500000D01*
X128400000Y-59950001D02*
X129382946Y-59950001D01*
%TO.N,/SPI2_SCK*%
X124259315Y-55437500D02*
X127837500Y-55437500D01*
X127837500Y-55437500D02*
X130000000Y-57600000D01*
X124000000Y-55696815D02*
X124259315Y-55437500D01*
X124000000Y-56500000D02*
X124000000Y-55696815D01*
X130000000Y-57600000D02*
X130000000Y-59596551D01*
X130353450Y-59950001D02*
X131105100Y-59950001D01*
X130000000Y-59596551D02*
X130353450Y-59950001D01*
%TO.N,/SPI2_MISO*%
X123500000Y-56500000D02*
X123500000Y-55560419D01*
X131100026Y-58044925D02*
X128042601Y-54987500D01*
X131100026Y-58079573D02*
X131100026Y-58044925D01*
X123530210Y-55530210D02*
X124072919Y-54987500D01*
X128042601Y-54987500D02*
X124072919Y-54987500D01*
%TO.N,/SPI1_NSS*%
X126715685Y-62912500D02*
X127500000Y-63696815D01*
X129954641Y-67945359D02*
X129949999Y-67950001D01*
X129949999Y-67950001D02*
X128400000Y-67950001D01*
X127500000Y-67500000D02*
X127950001Y-67950001D01*
X127500000Y-63696815D02*
X127500000Y-67500000D01*
X125912500Y-62912500D02*
X126715685Y-62912500D01*
X127950001Y-67950001D02*
X128400000Y-67950001D01*
%TO.N,/SPI1_MISO*%
X127412500Y-61912500D02*
X131105100Y-65605100D01*
X125912500Y-61912500D02*
X127412500Y-61912500D01*
X131105100Y-65605100D02*
X131105100Y-66049999D01*
X131471244Y-66049999D02*
X131105100Y-66049999D01*
X132122872Y-66701627D02*
X131471244Y-66049999D01*
%TO.N,/PA1*%
X126900000Y-70313173D02*
X126912500Y-70300673D01*
X126912500Y-68540685D02*
X124000000Y-65628185D01*
X124000000Y-65628185D02*
X124000000Y-64825000D01*
X132000000Y-78325000D02*
X130925000Y-78325000D01*
X126900000Y-74300000D02*
X126900000Y-70313173D01*
X130925000Y-78325000D02*
X126900000Y-74300000D01*
X126912500Y-70300673D02*
X126912500Y-68540685D01*
%TO.N,/PB3*%
X115524500Y-59000000D02*
X115612000Y-58912500D01*
X115612000Y-58912500D02*
X117587500Y-58912500D01*
%TO.N,/SWCLK*%
X117587500Y-57912500D02*
X117587500Y-57300000D01*
%TO.N,/SWDIO*%
X120000000Y-57700000D02*
X120000000Y-56500000D01*
%TO.N,/I2C1_SCL*%
X119087500Y-59715684D02*
X119087500Y-59000000D01*
X118390684Y-60412500D02*
X119087500Y-59715684D01*
X117587500Y-60412500D02*
X118390684Y-60412500D01*
%TO.N,/I2C1_SDA*%
X119000000Y-60912500D02*
X117587500Y-60912500D01*
X119087500Y-61000000D02*
X119000000Y-60912500D01*
%TO.N,/I2C2_SCL*%
X125912500Y-59412500D02*
X126912500Y-59412500D01*
X126912500Y-59412500D02*
X127000000Y-59500000D01*
%TO.N,Net-(U1-PA5)*%
X127000000Y-62412500D02*
X128587500Y-64000000D01*
X125912500Y-62412500D02*
X127000000Y-62412500D01*
%TO.N,Net-(U1-PA7)*%
X125912500Y-61412500D02*
X128000000Y-61412500D01*
X128000000Y-61412500D02*
X128587500Y-62000000D01*
%TO.N,/USART1_TX*%
X125205000Y-52795000D02*
X125205000Y-53836701D01*
X124504201Y-54537500D02*
X123159315Y-54537500D01*
X122000000Y-55696815D02*
X122000000Y-56500000D01*
X125205000Y-53836701D02*
X124504201Y-54537500D01*
X123159315Y-54537500D02*
X122000000Y-55696815D01*
X128000000Y-50000000D02*
X125205000Y-52795000D01*
%TO.N,/USART1_RX*%
X127000000Y-50060419D02*
X124885419Y-52175000D01*
X122855000Y-54205419D02*
X121500000Y-55560419D01*
X122855000Y-52863299D02*
X122855000Y-54205419D01*
X127000000Y-50000000D02*
X127000000Y-50060419D01*
X121500000Y-55560419D02*
X121500000Y-56500000D01*
X123543299Y-52175000D02*
X122855000Y-52863299D01*
X124885419Y-52175000D02*
X123543299Y-52175000D01*
%TO.N,/SILENT*%
X121000000Y-55351104D02*
X121000000Y-56500000D01*
X115248931Y-54525000D02*
X120173896Y-54525000D01*
X120173896Y-54525000D02*
X121000000Y-55351104D01*
X113149431Y-52425500D02*
X115248931Y-54525000D01*
X109585000Y-52000000D02*
X110003246Y-52418246D01*
X109585000Y-50962500D02*
X109585000Y-52000000D01*
%TO.N,/STDBY*%
X120500000Y-55487500D02*
X120500000Y-56500000D01*
X114861396Y-54975000D02*
X119987500Y-54975000D01*
X112125000Y-50962500D02*
X112125000Y-52238604D01*
X112125000Y-52238604D02*
X114861396Y-54975000D01*
X119987500Y-54975000D02*
X120500000Y-55487500D01*
%TO.N,/CAN_RX*%
X111480000Y-49662500D02*
X110817500Y-49000000D01*
X109000000Y-49000000D02*
X108315000Y-49685000D01*
X114950000Y-55700000D02*
X111480000Y-52230000D01*
X110817500Y-49000000D02*
X109000000Y-49000000D01*
X117587500Y-61912500D02*
X116662500Y-61912500D01*
X114950000Y-60200000D02*
X114950000Y-55700000D01*
X108315000Y-49685000D02*
X108315000Y-50962500D01*
X116662500Y-61912500D02*
X114950000Y-60200000D01*
X111480000Y-52230000D02*
X111480000Y-49662500D01*
%TO.N,/CAN_TX*%
X116526104Y-62412500D02*
X117587500Y-62412500D01*
X110855000Y-52241396D02*
X114500000Y-55886396D01*
X114500000Y-60386396D02*
X116526104Y-62412500D01*
X114500000Y-55886396D02*
X114500000Y-60386396D01*
X110855000Y-50962500D02*
X110855000Y-52241396D01*
%TO.N,GNDA*%
X125325000Y-68688604D02*
X122500000Y-65863604D01*
X122500000Y-65863604D02*
X122500000Y-64825000D01*
X125500000Y-73400000D02*
X125325000Y-73225000D01*
X125325000Y-73225000D02*
X125325000Y-68688604D01*
%TO.N,VDDA*%
X126337500Y-70062500D02*
X126337500Y-68965685D01*
X123000000Y-65628185D02*
X123000000Y-64825000D01*
X126337500Y-68965685D02*
X123000000Y-65628185D01*
D35*
%TO.N,/V_CAN_IN*%
X108315000Y-44460000D02*
X107200000Y-45575000D01*
X108315000Y-41562500D02*
X108315000Y-44460000D01*
%TO.N,GND1*%
X114665000Y-45297500D02*
X114500000Y-45462500D01*
X109585000Y-45047500D02*
X109585000Y-41562500D01*
X114665000Y-41562500D02*
X114665000Y-45297500D01*
X110000000Y-45462500D02*
X109585000Y-45047500D01*
D37*
%TO.N,/CAN/GND_ISO_Out*%
X105200000Y-47992501D02*
X105200000Y-45462500D01*
D35*
X103235000Y-43497500D02*
X103235000Y-41562500D01*
X105775000Y-44887500D02*
X105775000Y-41562500D01*
X105200000Y-45462500D02*
X105775000Y-44887500D01*
D37*
X105746375Y-48538876D02*
X105200000Y-47992501D01*
D35*
X105200000Y-45462500D02*
X103235000Y-43497500D01*
D37*
%TO.N,/CAN_H*%
X110855000Y-45267500D02*
X112087500Y-46500000D01*
D36*
X108000000Y-61000000D02*
X106000000Y-59000000D01*
D37*
X110855000Y-41562500D02*
X110855000Y-45267500D01*
D36*
X106000000Y-73000000D02*
X108000000Y-71000000D01*
D37*
X112120703Y-46533203D02*
X112543750Y-46956250D01*
X112087500Y-46500000D02*
X112543750Y-46956250D01*
X107690000Y-52262500D02*
X108000000Y-52572500D01*
D36*
X108000000Y-71000000D02*
X108000000Y-61000000D01*
D37*
X108000000Y-57000000D02*
X106000000Y-59000000D01*
X107690000Y-48842085D02*
X107690000Y-52262500D01*
X108000000Y-52572500D02*
X108000000Y-57000000D01*
X109998882Y-46533203D02*
X107690000Y-48842085D01*
X112543750Y-46956250D02*
X112750000Y-47162500D01*
X109998882Y-46533203D02*
X112120703Y-46533203D01*
%TO.N,/CAN_L*%
X112125000Y-44637500D02*
X114650000Y-47162500D01*
X112125000Y-41562500D02*
X112125000Y-44637500D01*
D36*
X104500000Y-71500000D02*
X103000000Y-73000000D01*
X104500000Y-60500000D02*
X104500000Y-71500000D01*
X103000000Y-59000000D02*
X104500000Y-60500000D01*
D37*
%TO.N,/PA15*%
X116549500Y-58412500D02*
X117587500Y-58412500D01*
X116168500Y-58031500D02*
X116549500Y-58412500D01*
%TO.N,/PA2*%
X124500000Y-64825000D02*
X124500000Y-65491789D01*
X134500000Y-70107700D02*
X134242800Y-69850500D01*
X134242800Y-69850500D02*
X129149500Y-69850500D01*
X129149500Y-69850500D02*
X129000000Y-70000000D01*
X127362500Y-68362500D02*
X129000000Y-70000000D01*
X127362500Y-68354289D02*
X127362500Y-68362500D01*
X124500000Y-65491789D02*
X127362500Y-68354289D01*
%TO.N,Net-(J3-D-)*%
X131337500Y-46150000D02*
X129450000Y-46150000D01*
X131650000Y-45837500D02*
X131337500Y-46150000D01*
X131650000Y-44962500D02*
X131650000Y-45837500D01*
X129450000Y-46150000D02*
X127800000Y-47800000D01*
D35*
%TO.N,Net-(C5-Pad1)*%
X136900000Y-76500000D02*
X137000000Y-76600000D01*
X131625000Y-76500000D02*
X132000000Y-76500000D01*
X132000000Y-76500000D02*
X136900000Y-76500000D01*
X137100000Y-76500000D02*
X137375000Y-76500000D01*
X137000000Y-76600000D02*
X137100000Y-76500000D01*
%TO.N,Net-(Q1-D)*%
X110920000Y-85500000D02*
X113500000Y-85500000D01*
X107920000Y-88500000D02*
X110920000Y-85500000D01*
D37*
X125000000Y-82500000D02*
X130000000Y-87500000D01*
D35*
X116000000Y-82500000D02*
X116000000Y-83000000D01*
X116000000Y-83000000D02*
X113500000Y-85500000D01*
X116000000Y-78500000D02*
X116000000Y-82500000D01*
D37*
X116000000Y-82500000D02*
X125000000Y-82500000D01*
X130000000Y-87500000D02*
X134000000Y-87500000D01*
%TO.N,/PA8*%
X122500000Y-56500000D02*
X122500000Y-57479033D01*
X122500000Y-57479033D02*
X122465423Y-57513610D01*
%TO.N,Net-(IC1-1GATE)*%
X136110000Y-57333000D02*
X137333000Y-57333000D01*
X135460000Y-58422000D02*
X135460000Y-57983000D01*
X137333000Y-57333000D02*
X138000000Y-58000000D01*
X133400000Y-55900000D02*
X133000000Y-55900000D01*
X138000000Y-58000000D02*
X138000000Y-58422000D01*
X135460000Y-57960000D02*
X133400000Y-55900000D01*
X135460000Y-57983000D02*
X136110000Y-57333000D01*
X135460000Y-57983000D02*
X135460000Y-57960000D01*
%TO.N,/I2C2_SDA*%
X127336845Y-58912500D02*
X125912500Y-58912500D01*
X127448848Y-58800497D02*
X127336845Y-58912500D01*
%TO.N,Net-(IC1-2DRAIN_1)*%
X137000000Y-54100000D02*
X136730000Y-53830000D01*
X136730000Y-53830000D02*
X136730000Y-53000000D01*
X136730000Y-53000000D02*
X138000000Y-53000000D01*
%TO.N,Net-(IC1-1DRAIN_1)*%
X135000000Y-54087500D02*
X135460000Y-53627500D01*
X135460000Y-53627500D02*
X135460000Y-53000000D01*
X134190000Y-53000000D02*
X135460000Y-53000000D01*
%TD*%
%TA.AperFunction,Conductor*%
%TO.N,+3.3V*%
G36*
X136002855Y-40100632D02*
G01*
X136354083Y-40116870D01*
X136365473Y-40117926D01*
X136710864Y-40166105D01*
X136722107Y-40168207D01*
X137061578Y-40248050D01*
X137072568Y-40251177D01*
X137403244Y-40362009D01*
X137413898Y-40366137D01*
X137732922Y-40506999D01*
X137743149Y-40512091D01*
X137925184Y-40613484D01*
X138047809Y-40681786D01*
X138057547Y-40687815D01*
X138329993Y-40874445D01*
X138345249Y-40884895D01*
X138354386Y-40891796D01*
X138574344Y-41074447D01*
X138622665Y-41114572D01*
X138631129Y-41122288D01*
X138877711Y-41368870D01*
X138885427Y-41377334D01*
X139108201Y-41645610D01*
X139115104Y-41654750D01*
X139312184Y-41942452D01*
X139318213Y-41952190D01*
X139346262Y-42002547D01*
X139481682Y-42245673D01*
X139487901Y-42256837D01*
X139493006Y-42267090D01*
X139633857Y-42586088D01*
X139637995Y-42596768D01*
X139748818Y-42927418D01*
X139751952Y-42938434D01*
X139831790Y-43277884D01*
X139833895Y-43289143D01*
X139882072Y-43634519D01*
X139883129Y-43645923D01*
X139899368Y-43997143D01*
X139899500Y-44002870D01*
X139899500Y-85997128D01*
X139899368Y-86002855D01*
X139883129Y-86354076D01*
X139882072Y-86365480D01*
X139833895Y-86710856D01*
X139831790Y-86722115D01*
X139751952Y-87061565D01*
X139748818Y-87072581D01*
X139637995Y-87403231D01*
X139633857Y-87413911D01*
X139493006Y-87732909D01*
X139487901Y-87743162D01*
X139318213Y-88047809D01*
X139312184Y-88057547D01*
X139115104Y-88345249D01*
X139108201Y-88354389D01*
X138885427Y-88622665D01*
X138877711Y-88631129D01*
X138631129Y-88877711D01*
X138622665Y-88885427D01*
X138354389Y-89108201D01*
X138345249Y-89115104D01*
X138057547Y-89312184D01*
X138047809Y-89318213D01*
X137743162Y-89487901D01*
X137732909Y-89493006D01*
X137413911Y-89633857D01*
X137403231Y-89637995D01*
X137072581Y-89748818D01*
X137061565Y-89751952D01*
X136722115Y-89831790D01*
X136710856Y-89833895D01*
X136365480Y-89882072D01*
X136354076Y-89883129D01*
X136002855Y-89899368D01*
X135997128Y-89899500D01*
X113711130Y-89899500D01*
X113644091Y-89879815D01*
X113598336Y-89827011D01*
X113588392Y-89757853D01*
X113617417Y-89694297D01*
X113625697Y-89685626D01*
X113763053Y-89555059D01*
X113879295Y-89388049D01*
X113959540Y-89201058D01*
X114000500Y-89001741D01*
X114000500Y-88049258D01*
X113985074Y-87897562D01*
X113924159Y-87703412D01*
X113825409Y-87525498D01*
X113692866Y-87371105D01*
X113531958Y-87246552D01*
X113531957Y-87246551D01*
X113349272Y-87156940D01*
X113283609Y-87139939D01*
X113152285Y-87105937D01*
X113131670Y-87104891D01*
X112949062Y-87095630D01*
X112747928Y-87126443D01*
X112557113Y-87197113D01*
X112384431Y-87304745D01*
X112314623Y-87371104D01*
X112236947Y-87444941D01*
X112236946Y-87444943D01*
X112120705Y-87611950D01*
X112052382Y-87771161D01*
X112040460Y-87798942D01*
X111999500Y-87998259D01*
X111999500Y-88950742D01*
X111999816Y-88953853D01*
X111999817Y-88953865D01*
X112014926Y-89102440D01*
X112032366Y-89158024D01*
X112075841Y-89296588D01*
X112174591Y-89474502D01*
X112307134Y-89628895D01*
X112369854Y-89677444D01*
X112410818Y-89734046D01*
X112414677Y-89803809D01*
X112380208Y-89864584D01*
X112318352Y-89897076D01*
X112293952Y-89899500D01*
X111171130Y-89899500D01*
X111104091Y-89879815D01*
X111058336Y-89827011D01*
X111048392Y-89757853D01*
X111077417Y-89694297D01*
X111085697Y-89685626D01*
X111223053Y-89555059D01*
X111339295Y-89388049D01*
X111419540Y-89201058D01*
X111460500Y-89001741D01*
X111460500Y-88049258D01*
X111445074Y-87897562D01*
X111384159Y-87703412D01*
X111285409Y-87525498D01*
X111152866Y-87371105D01*
X110991958Y-87246552D01*
X110991957Y-87246551D01*
X110876891Y-87190109D01*
X110825372Y-87142912D01*
X110807547Y-87075354D01*
X110829077Y-87008885D01*
X110843813Y-86991107D01*
X111298101Y-86536819D01*
X111359425Y-86503334D01*
X111385783Y-86500500D01*
X113485721Y-86500500D01*
X113488862Y-86500539D01*
X113576363Y-86502757D01*
X113634432Y-86492348D01*
X113643736Y-86491043D01*
X113702438Y-86485074D01*
X113731467Y-86475965D01*
X113746700Y-86472226D01*
X113776653Y-86466858D01*
X113831426Y-86444978D01*
X113840301Y-86441819D01*
X113857675Y-86436367D01*
X113896588Y-86424159D01*
X113923194Y-86409390D01*
X113937362Y-86402662D01*
X113965617Y-86391377D01*
X114014879Y-86358909D01*
X114022910Y-86354043D01*
X114074502Y-86325409D01*
X114097587Y-86305589D01*
X114110114Y-86296144D01*
X114135519Y-86279402D01*
X114177251Y-86237668D01*
X114184123Y-86231300D01*
X114228895Y-86192866D01*
X114247524Y-86168798D01*
X114257883Y-86157036D01*
X114283437Y-86131482D01*
X118245500Y-86131482D01*
X118284691Y-86391507D01*
X118362202Y-86642787D01*
X118476296Y-86879707D01*
X118476297Y-86879709D01*
X118476298Y-86879710D01*
X118624430Y-87096980D01*
X118803290Y-87289746D01*
X119008883Y-87453701D01*
X119236616Y-87585183D01*
X119481402Y-87681254D01*
X119737772Y-87739769D01*
X119934346Y-87754500D01*
X119936663Y-87754500D01*
X120063337Y-87754500D01*
X120065654Y-87754500D01*
X120262228Y-87739769D01*
X120518598Y-87681254D01*
X120763384Y-87585183D01*
X120991117Y-87453701D01*
X121196710Y-87289746D01*
X121375570Y-87096980D01*
X121523702Y-86879710D01*
X121637798Y-86642788D01*
X121715308Y-86391508D01*
X121754500Y-86131482D01*
X121754500Y-85868518D01*
X121715308Y-85608492D01*
X121637798Y-85357212D01*
X121523702Y-85120290D01*
X121375570Y-84903020D01*
X121196710Y-84710254D01*
X121124885Y-84652975D01*
X120991116Y-84546298D01*
X120824404Y-84450047D01*
X120763384Y-84414817D01*
X120763383Y-84414816D01*
X120763382Y-84414816D01*
X120518600Y-84318746D01*
X120262225Y-84260230D01*
X120067968Y-84245673D01*
X120067957Y-84245672D01*
X120065654Y-84245500D01*
X119934346Y-84245500D01*
X119932043Y-84245672D01*
X119932031Y-84245673D01*
X119737774Y-84260230D01*
X119481399Y-84318746D01*
X119236617Y-84414816D01*
X119008883Y-84546298D01*
X118803290Y-84710253D01*
X118624431Y-84903018D01*
X118476296Y-85120292D01*
X118362202Y-85357212D01*
X118284691Y-85608492D01*
X118245500Y-85868517D01*
X118245500Y-86131482D01*
X114283437Y-86131482D01*
X116697391Y-83717528D01*
X116699560Y-83715413D01*
X116763053Y-83655059D01*
X116796759Y-83606630D01*
X116802428Y-83599113D01*
X116839698Y-83553407D01*
X116853783Y-83526439D01*
X116861918Y-83513015D01*
X116868373Y-83503740D01*
X116879295Y-83488049D01*
X116902568Y-83433815D01*
X116906598Y-83425331D01*
X116933908Y-83373051D01*
X116933909Y-83373049D01*
X116942278Y-83343797D01*
X116947534Y-83329032D01*
X116959540Y-83301058D01*
X116971418Y-83243256D01*
X116973649Y-83234162D01*
X116979024Y-83215380D01*
X117016392Y-83156348D01*
X117079746Y-83126886D01*
X117098237Y-83125500D01*
X124689548Y-83125500D01*
X124756587Y-83145185D01*
X124777229Y-83161819D01*
X127058244Y-85442835D01*
X127091729Y-85504158D01*
X127086745Y-85573850D01*
X127044873Y-85629783D01*
X126979409Y-85654200D01*
X126944205Y-85651682D01*
X126771161Y-85614039D01*
X126500000Y-85594644D01*
X126228838Y-85614039D01*
X125963203Y-85671823D01*
X125818956Y-85725624D01*
X125708487Y-85766828D01*
X125708484Y-85766829D01*
X125708480Y-85766831D01*
X125469891Y-85897109D01*
X125252255Y-86060031D01*
X125060031Y-86252255D01*
X124897109Y-86469891D01*
X124766831Y-86708480D01*
X124766829Y-86708484D01*
X124766828Y-86708487D01*
X124763828Y-86716531D01*
X124671823Y-86963203D01*
X124614039Y-87228838D01*
X124594644Y-87499999D01*
X124614039Y-87771161D01*
X124671823Y-88036796D01*
X124679563Y-88057547D01*
X124766828Y-88291513D01*
X124766830Y-88291517D01*
X124766831Y-88291519D01*
X124897109Y-88530108D01*
X124918438Y-88558600D01*
X125060029Y-88747742D01*
X125252258Y-88939971D01*
X125334773Y-89001741D01*
X125469891Y-89102890D01*
X125570863Y-89158024D01*
X125708487Y-89233172D01*
X125963199Y-89328175D01*
X125963202Y-89328175D01*
X125963203Y-89328176D01*
X126012852Y-89338976D01*
X126228840Y-89385961D01*
X126500000Y-89405355D01*
X126771160Y-89385961D01*
X127036801Y-89328175D01*
X127291513Y-89233172D01*
X127507739Y-89115104D01*
X127530108Y-89102890D01*
X127530109Y-89102889D01*
X127530113Y-89102887D01*
X127747742Y-88939971D01*
X127939971Y-88747742D01*
X128102887Y-88530113D01*
X128233172Y-88291513D01*
X128328175Y-88036801D01*
X128385961Y-87771160D01*
X128405355Y-87500000D01*
X128385961Y-87228840D01*
X128348317Y-87055791D01*
X128353301Y-86986102D01*
X128395173Y-86930169D01*
X128460637Y-86905752D01*
X128528910Y-86920604D01*
X128557164Y-86941755D01*
X129499196Y-87883787D01*
X129512096Y-87899888D01*
X129563223Y-87947900D01*
X129566020Y-87950611D01*
X129585529Y-87970120D01*
X129588709Y-87972587D01*
X129597571Y-87980155D01*
X129629418Y-88010062D01*
X129646972Y-88019712D01*
X129663236Y-88030396D01*
X129671494Y-88036801D01*
X129679064Y-88042673D01*
X129702517Y-88052822D01*
X129719152Y-88060021D01*
X129729631Y-88065154D01*
X129767908Y-88086197D01*
X129787306Y-88091177D01*
X129805708Y-88097477D01*
X129824104Y-88105438D01*
X129867261Y-88112273D01*
X129878664Y-88114634D01*
X129920981Y-88125500D01*
X129941016Y-88125500D01*
X129960413Y-88127026D01*
X129980196Y-88130160D01*
X130023674Y-88126050D01*
X130035344Y-88125500D01*
X131618813Y-88125500D01*
X131685852Y-88145185D01*
X131731607Y-88197989D01*
X131734994Y-88206165D01*
X131766828Y-88291515D01*
X131897109Y-88530108D01*
X131918438Y-88558600D01*
X132060029Y-88747742D01*
X132252258Y-88939971D01*
X132334773Y-89001741D01*
X132469891Y-89102890D01*
X132570863Y-89158024D01*
X132708487Y-89233172D01*
X132963199Y-89328175D01*
X132963202Y-89328175D01*
X132963203Y-89328176D01*
X133012852Y-89338976D01*
X133228840Y-89385961D01*
X133500000Y-89405355D01*
X133771160Y-89385961D01*
X134036801Y-89328175D01*
X134291513Y-89233172D01*
X134507739Y-89115104D01*
X134530108Y-89102890D01*
X134530109Y-89102889D01*
X134530113Y-89102887D01*
X134747742Y-88939971D01*
X134939971Y-88747742D01*
X135102887Y-88530113D01*
X135233172Y-88291513D01*
X135328175Y-88036801D01*
X135385961Y-87771160D01*
X135405355Y-87500000D01*
X135385961Y-87228840D01*
X135328175Y-86963199D01*
X135233172Y-86708487D01*
X135197297Y-86642787D01*
X135102890Y-86469891D01*
X135057603Y-86409395D01*
X134939971Y-86252258D01*
X134747742Y-86060029D01*
X134530113Y-85897113D01*
X134530114Y-85897113D01*
X134530108Y-85897109D01*
X134291519Y-85766831D01*
X134291517Y-85766830D01*
X134291513Y-85766828D01*
X134036801Y-85671825D01*
X134036796Y-85671823D01*
X133771161Y-85614039D01*
X133500000Y-85594644D01*
X133228838Y-85614039D01*
X132963203Y-85671823D01*
X132818956Y-85725624D01*
X132708487Y-85766828D01*
X132708484Y-85766829D01*
X132708480Y-85766831D01*
X132469891Y-85897109D01*
X132252255Y-86060031D01*
X132060031Y-86252255D01*
X131897109Y-86469891D01*
X131766828Y-86708484D01*
X131734994Y-86793835D01*
X131693122Y-86849768D01*
X131627658Y-86874184D01*
X131618813Y-86874500D01*
X130310452Y-86874500D01*
X130243413Y-86854815D01*
X130222771Y-86838181D01*
X129995960Y-86611370D01*
X129962475Y-86550047D01*
X129967459Y-86480355D01*
X130009331Y-86424422D01*
X130074793Y-86400005D01*
X130271160Y-86385961D01*
X130536801Y-86328175D01*
X130791513Y-86233172D01*
X131030113Y-86102887D01*
X131247742Y-85939971D01*
X131439971Y-85747742D01*
X131602887Y-85530113D01*
X131617060Y-85504158D01*
X131650544Y-85442835D01*
X131733172Y-85291513D01*
X131828175Y-85036801D01*
X131885961Y-84771160D01*
X131905355Y-84500000D01*
X135094644Y-84500000D01*
X135114039Y-84771161D01*
X135171823Y-85036796D01*
X135171825Y-85036801D01*
X135266828Y-85291513D01*
X135266830Y-85291517D01*
X135266831Y-85291519D01*
X135397109Y-85530108D01*
X135397113Y-85530113D01*
X135560029Y-85747742D01*
X135752258Y-85939971D01*
X135968281Y-86101685D01*
X135969891Y-86102890D01*
X136090616Y-86168810D01*
X136208487Y-86233172D01*
X136463199Y-86328175D01*
X136463202Y-86328175D01*
X136463203Y-86328176D01*
X136512852Y-86338976D01*
X136728840Y-86385961D01*
X137000000Y-86405355D01*
X137271160Y-86385961D01*
X137536801Y-86328175D01*
X137791513Y-86233172D01*
X138030113Y-86102887D01*
X138247742Y-85939971D01*
X138439971Y-85747742D01*
X138602887Y-85530113D01*
X138617060Y-85504158D01*
X138650544Y-85442835D01*
X138733172Y-85291513D01*
X138828175Y-85036801D01*
X138885961Y-84771160D01*
X138905355Y-84500000D01*
X138885961Y-84228840D01*
X138828175Y-83963199D01*
X138733172Y-83708487D01*
X138675448Y-83602773D01*
X138602890Y-83469891D01*
X138572660Y-83429509D01*
X138439971Y-83252258D01*
X138247742Y-83060029D01*
X138030113Y-82897113D01*
X138030114Y-82897113D01*
X138030108Y-82897109D01*
X137791519Y-82766831D01*
X137791517Y-82766830D01*
X137791513Y-82766828D01*
X137536801Y-82671825D01*
X137536796Y-82671823D01*
X137271161Y-82614039D01*
X137000000Y-82594644D01*
X136728838Y-82614039D01*
X136463203Y-82671823D01*
X136359674Y-82710438D01*
X136208487Y-82766828D01*
X136208484Y-82766829D01*
X136208480Y-82766831D01*
X135969891Y-82897109D01*
X135752255Y-83060031D01*
X135560031Y-83252255D01*
X135397109Y-83469891D01*
X135266831Y-83708480D01*
X135266829Y-83708484D01*
X135266828Y-83708487D01*
X135234653Y-83794751D01*
X135171823Y-83963203D01*
X135114039Y-84228838D01*
X135094644Y-84500000D01*
X131905355Y-84500000D01*
X131885961Y-84228840D01*
X131828175Y-83963199D01*
X131733172Y-83708487D01*
X131675448Y-83602773D01*
X131602890Y-83469891D01*
X131572660Y-83429509D01*
X131439971Y-83252258D01*
X131247742Y-83060029D01*
X131030113Y-82897113D01*
X131030114Y-82897113D01*
X131030108Y-82897109D01*
X130791519Y-82766831D01*
X130791517Y-82766830D01*
X130791513Y-82766828D01*
X130536801Y-82671825D01*
X130536796Y-82671823D01*
X130271161Y-82614039D01*
X130000000Y-82594644D01*
X129728838Y-82614039D01*
X129463203Y-82671823D01*
X129359674Y-82710438D01*
X129208487Y-82766828D01*
X129208484Y-82766829D01*
X129208480Y-82766831D01*
X128969891Y-82897109D01*
X128752255Y-83060031D01*
X128560031Y-83252255D01*
X128397109Y-83469891D01*
X128266831Y-83708480D01*
X128266829Y-83708484D01*
X128266828Y-83708487D01*
X128234653Y-83794751D01*
X128171823Y-83963203D01*
X128114039Y-84228838D01*
X128099994Y-84425205D01*
X128075577Y-84490669D01*
X128019643Y-84532540D01*
X127949951Y-84537524D01*
X127888629Y-84504039D01*
X126766634Y-83382044D01*
X125500802Y-82116211D01*
X125487906Y-82100113D01*
X125436775Y-82052098D01*
X125433978Y-82049387D01*
X125417227Y-82032636D01*
X125414471Y-82029880D01*
X125411290Y-82027412D01*
X125402422Y-82019837D01*
X125370582Y-81989938D01*
X125353024Y-81980285D01*
X125336764Y-81969604D01*
X125320936Y-81957327D01*
X125280851Y-81939980D01*
X125270361Y-81934841D01*
X125232091Y-81913802D01*
X125212691Y-81908821D01*
X125194284Y-81902519D01*
X125175897Y-81894562D01*
X125132758Y-81887729D01*
X125121324Y-81885361D01*
X125079019Y-81874500D01*
X125058984Y-81874500D01*
X125039586Y-81872973D01*
X125032162Y-81871797D01*
X125019805Y-81869840D01*
X125019804Y-81869840D01*
X124986751Y-81872964D01*
X124976325Y-81873950D01*
X124964656Y-81874500D01*
X117124500Y-81874500D01*
X117057461Y-81854815D01*
X117011706Y-81802011D01*
X117000500Y-81750500D01*
X117000500Y-81044578D01*
X117249500Y-81044578D01*
X117249501Y-81047872D01*
X117255909Y-81107483D01*
X117306204Y-81242331D01*
X117392454Y-81357546D01*
X117507669Y-81443796D01*
X117642517Y-81494091D01*
X117702127Y-81500500D01*
X119003134Y-81500499D01*
X119003140Y-81500500D01*
X119023259Y-81500500D01*
X124938015Y-81500500D01*
X124938025Y-81500499D01*
X126294561Y-81500499D01*
X126297872Y-81500499D01*
X126357483Y-81494091D01*
X126492331Y-81443796D01*
X126607546Y-81357546D01*
X126693796Y-81242331D01*
X126744091Y-81107483D01*
X126750500Y-81047873D01*
X126750500Y-81044578D01*
X129749500Y-81044578D01*
X129749501Y-81047872D01*
X129755909Y-81107483D01*
X129806204Y-81242331D01*
X129892454Y-81357546D01*
X130007669Y-81443796D01*
X130142517Y-81494091D01*
X130202127Y-81500500D01*
X131503134Y-81500499D01*
X131503140Y-81500500D01*
X131523259Y-81500500D01*
X137438015Y-81500500D01*
X137438025Y-81500499D01*
X138794561Y-81500499D01*
X138797872Y-81500499D01*
X138857483Y-81494091D01*
X138992331Y-81443796D01*
X139107546Y-81357546D01*
X139193796Y-81242331D01*
X139244091Y-81107483D01*
X139250500Y-81047873D01*
X139250499Y-79952128D01*
X139244091Y-79892517D01*
X139193796Y-79757669D01*
X139107546Y-79642454D01*
X138992331Y-79556204D01*
X138857483Y-79505909D01*
X138797873Y-79499500D01*
X137476743Y-79499500D01*
X137476741Y-79499500D01*
X137040239Y-79499500D01*
X137000816Y-79487924D01*
X136981155Y-79497641D01*
X136959761Y-79499500D01*
X130205439Y-79499500D01*
X130205420Y-79499500D01*
X130202128Y-79499501D01*
X130198848Y-79499853D01*
X130198840Y-79499854D01*
X130142515Y-79505909D01*
X130007669Y-79556204D01*
X129892454Y-79642454D01*
X129806204Y-79757668D01*
X129755910Y-79892515D01*
X129755909Y-79892517D01*
X129749500Y-79952127D01*
X129749500Y-79955448D01*
X129749500Y-79955449D01*
X129749500Y-81044560D01*
X129749500Y-81044578D01*
X126750500Y-81044578D01*
X126750499Y-79952128D01*
X126744091Y-79892517D01*
X126693796Y-79757669D01*
X126607546Y-79642454D01*
X126492331Y-79556204D01*
X126357483Y-79505909D01*
X126297873Y-79499500D01*
X124976743Y-79499500D01*
X124976741Y-79499500D01*
X121601741Y-79499500D01*
X119540239Y-79499500D01*
X119500816Y-79487924D01*
X119481155Y-79497641D01*
X119459761Y-79499500D01*
X117705439Y-79499500D01*
X117705420Y-79499500D01*
X117702128Y-79499501D01*
X117698848Y-79499853D01*
X117698840Y-79499854D01*
X117642515Y-79505909D01*
X117507669Y-79556204D01*
X117392454Y-79642454D01*
X117306204Y-79757668D01*
X117255910Y-79892515D01*
X117255909Y-79892517D01*
X117249500Y-79952127D01*
X117249500Y-79955448D01*
X117249500Y-79955449D01*
X117249500Y-81044560D01*
X117249500Y-81044578D01*
X117000500Y-81044578D01*
X117000500Y-78500000D01*
X118744750Y-78500000D01*
X118763686Y-78668056D01*
X118763686Y-78668058D01*
X118763687Y-78668059D01*
X118819544Y-78827690D01*
X118909523Y-78970890D01*
X119029110Y-79090477D01*
X119172310Y-79180456D01*
X119331941Y-79236313D01*
X119373550Y-79241001D01*
X119473645Y-79252280D01*
X119496779Y-79262001D01*
X119505304Y-79256523D01*
X119526355Y-79252280D01*
X119613635Y-79242445D01*
X119668059Y-79236313D01*
X119827690Y-79180456D01*
X119970890Y-79090477D01*
X120090477Y-78970890D01*
X120180456Y-78827690D01*
X120236313Y-78668059D01*
X120255249Y-78500000D01*
X120236313Y-78331941D01*
X120180456Y-78172310D01*
X120090477Y-78029110D01*
X119970890Y-77909523D01*
X119827690Y-77819544D01*
X119668059Y-77763687D01*
X119668058Y-77763686D01*
X119668056Y-77763686D01*
X119526355Y-77747720D01*
X119503220Y-77737998D01*
X119494696Y-77743477D01*
X119473645Y-77747720D01*
X119331943Y-77763686D01*
X119172310Y-77819544D01*
X119029108Y-77909524D01*
X118909524Y-78029108D01*
X118819544Y-78172310D01*
X118763686Y-78331943D01*
X118744750Y-78500000D01*
X117000500Y-78500000D01*
X117000500Y-78452399D01*
X117000500Y-78449258D01*
X116985074Y-78297562D01*
X116924159Y-78103412D01*
X116825409Y-77925498D01*
X116809813Y-77907331D01*
X116781081Y-77843645D01*
X116779898Y-77826575D01*
X116779899Y-75747028D01*
X116773491Y-75687417D01*
X116723196Y-75552569D01*
X116636946Y-75437354D01*
X116521731Y-75351104D01*
X116386883Y-75300809D01*
X116327273Y-75294400D01*
X116323950Y-75294400D01*
X115676039Y-75294400D01*
X115676020Y-75294400D01*
X115672728Y-75294401D01*
X115669448Y-75294753D01*
X115669440Y-75294754D01*
X115613115Y-75300809D01*
X115478269Y-75351104D01*
X115363054Y-75437354D01*
X115276804Y-75552568D01*
X115226510Y-75687415D01*
X115226509Y-75687417D01*
X115220100Y-75747027D01*
X115220099Y-75750330D01*
X115220099Y-75750349D01*
X115220100Y-77830239D01*
X115200415Y-77897278D01*
X115197875Y-77901075D01*
X115120706Y-78011947D01*
X115040460Y-78198941D01*
X114999499Y-78398260D01*
X114999500Y-82534217D01*
X114979815Y-82601256D01*
X114963181Y-82621898D01*
X113121899Y-84463181D01*
X113060576Y-84496666D01*
X113034218Y-84499500D01*
X112360372Y-84499500D01*
X112293333Y-84479815D01*
X112247578Y-84427011D01*
X112237152Y-84389384D01*
X112236313Y-84381943D01*
X112236313Y-84381941D01*
X112180456Y-84222310D01*
X112090477Y-84079110D01*
X111970890Y-83959523D01*
X111827690Y-83869544D01*
X111668059Y-83813687D01*
X111668058Y-83813686D01*
X111668056Y-83813686D01*
X111499999Y-83794750D01*
X111331943Y-83813686D01*
X111172310Y-83869544D01*
X111029108Y-83959524D01*
X110909524Y-84079108D01*
X110909522Y-84079110D01*
X110909523Y-84079110D01*
X110819544Y-84222310D01*
X110806275Y-84260231D01*
X110763686Y-84381944D01*
X110759129Y-84422384D01*
X110732061Y-84486797D01*
X110674465Y-84526351D01*
X110657789Y-84530552D01*
X110643350Y-84533140D01*
X110588572Y-84555020D01*
X110579702Y-84558178D01*
X110523409Y-84575841D01*
X110496818Y-84590600D01*
X110482648Y-84597330D01*
X110454383Y-84608621D01*
X110405121Y-84641087D01*
X110397066Y-84645967D01*
X110345495Y-84674591D01*
X110322406Y-84694412D01*
X110309883Y-84703855D01*
X110284484Y-84720596D01*
X110242782Y-84762297D01*
X110235875Y-84768698D01*
X110191104Y-84807134D01*
X110172480Y-84831194D01*
X110162107Y-84842971D01*
X107945488Y-87059590D01*
X107884165Y-87093075D01*
X107876584Y-87094479D01*
X107667928Y-87126443D01*
X107477113Y-87197113D01*
X107304431Y-87304745D01*
X107234623Y-87371104D01*
X107156947Y-87444941D01*
X107156946Y-87444943D01*
X107040705Y-87611950D01*
X106960460Y-87798941D01*
X106919499Y-87998260D01*
X106919499Y-88457241D01*
X106919141Y-88466654D01*
X106914662Y-88525476D01*
X106918506Y-88555651D01*
X106919500Y-88571317D01*
X106919500Y-88950742D01*
X106919816Y-88953853D01*
X106919817Y-88953865D01*
X106934926Y-89102440D01*
X106952366Y-89158024D01*
X106995841Y-89296588D01*
X107094591Y-89474502D01*
X107227134Y-89628895D01*
X107289854Y-89677444D01*
X107330818Y-89734046D01*
X107334677Y-89803809D01*
X107300208Y-89864584D01*
X107238352Y-89897076D01*
X107213952Y-89899500D01*
X106091130Y-89899500D01*
X106024091Y-89879815D01*
X105978336Y-89827011D01*
X105968392Y-89757853D01*
X105997417Y-89694297D01*
X106005697Y-89685626D01*
X106143053Y-89555059D01*
X106259295Y-89388049D01*
X106339540Y-89201058D01*
X106380500Y-89001741D01*
X106380500Y-88049258D01*
X106365074Y-87897562D01*
X106304159Y-87703412D01*
X106205409Y-87525498D01*
X106072866Y-87371105D01*
X105911958Y-87246552D01*
X105911957Y-87246551D01*
X105729272Y-87156940D01*
X105663609Y-87139938D01*
X105532285Y-87105937D01*
X105511670Y-87104891D01*
X105329062Y-87095630D01*
X105127928Y-87126443D01*
X104937113Y-87197113D01*
X104764431Y-87304745D01*
X104694623Y-87371104D01*
X104616947Y-87444941D01*
X104616946Y-87444943D01*
X104500705Y-87611950D01*
X104432382Y-87771161D01*
X104420460Y-87798942D01*
X104379500Y-87998259D01*
X104379500Y-88950742D01*
X104379816Y-88953853D01*
X104379817Y-88953865D01*
X104394926Y-89102440D01*
X104412366Y-89158024D01*
X104455841Y-89296588D01*
X104554591Y-89474502D01*
X104687134Y-89628895D01*
X104749854Y-89677444D01*
X104790818Y-89734046D01*
X104794677Y-89803809D01*
X104760208Y-89864584D01*
X104698352Y-89897076D01*
X104673952Y-89899500D01*
X104002872Y-89899500D01*
X103997145Y-89899368D01*
X103645923Y-89883129D01*
X103634519Y-89882072D01*
X103289143Y-89833895D01*
X103277884Y-89831790D01*
X102938434Y-89751952D01*
X102927418Y-89748818D01*
X102596768Y-89637995D01*
X102586088Y-89633857D01*
X102574850Y-89628895D01*
X102267085Y-89493003D01*
X102256842Y-89487903D01*
X102077569Y-89388049D01*
X101952190Y-89318213D01*
X101942452Y-89312184D01*
X101654750Y-89115104D01*
X101645610Y-89108201D01*
X101377334Y-88885427D01*
X101368870Y-88877711D01*
X101122288Y-88631129D01*
X101114572Y-88622665D01*
X101071933Y-88571317D01*
X100891796Y-88354386D01*
X100884895Y-88345249D01*
X100848086Y-88291515D01*
X100735410Y-88127027D01*
X100687815Y-88057547D01*
X100681786Y-88047809D01*
X100590426Y-87883787D01*
X100512091Y-87743149D01*
X100506999Y-87732922D01*
X100366137Y-87413898D01*
X100362009Y-87403244D01*
X100251177Y-87072568D01*
X100248050Y-87061578D01*
X100168207Y-86722107D01*
X100166104Y-86710856D01*
X100165773Y-86708484D01*
X100117926Y-86365473D01*
X100116870Y-86354076D01*
X100114628Y-86305593D01*
X100100632Y-86002855D01*
X100100500Y-85997128D01*
X100100500Y-84062500D01*
X103744750Y-84062500D01*
X103763686Y-84230556D01*
X103763686Y-84230558D01*
X103763687Y-84230559D01*
X103819544Y-84390190D01*
X103909523Y-84533390D01*
X104029110Y-84652977D01*
X104172310Y-84742956D01*
X104331941Y-84798813D01*
X104405791Y-84807134D01*
X104499999Y-84817749D01*
X104499999Y-84817748D01*
X104500000Y-84817749D01*
X104668059Y-84798813D01*
X104827690Y-84742956D01*
X104970890Y-84652977D01*
X105090477Y-84533390D01*
X105180456Y-84390190D01*
X105236313Y-84230559D01*
X105255249Y-84062500D01*
X105236313Y-83894441D01*
X105180456Y-83734810D01*
X105090477Y-83591610D01*
X104970890Y-83472023D01*
X104827690Y-83382044D01*
X104668059Y-83326187D01*
X104668058Y-83326186D01*
X104668056Y-83326186D01*
X104500000Y-83307250D01*
X104331943Y-83326186D01*
X104172310Y-83382044D01*
X104029108Y-83472024D01*
X103909524Y-83591608D01*
X103819544Y-83734810D01*
X103763686Y-83894443D01*
X103744750Y-84062500D01*
X100100500Y-84062500D01*
X100100500Y-81937500D01*
X103744750Y-81937500D01*
X103763686Y-82105556D01*
X103763686Y-82105558D01*
X103763687Y-82105559D01*
X103819544Y-82265190D01*
X103909523Y-82408390D01*
X104029110Y-82527977D01*
X104172310Y-82617956D01*
X104331941Y-82673813D01*
X104500000Y-82692749D01*
X104668059Y-82673813D01*
X104827690Y-82617956D01*
X104970890Y-82527977D01*
X105090477Y-82408390D01*
X105180456Y-82265190D01*
X105236313Y-82105559D01*
X105248207Y-82000000D01*
X105744750Y-82000000D01*
X105763686Y-82168056D01*
X105763686Y-82168058D01*
X105763687Y-82168059D01*
X105819544Y-82327690D01*
X105909523Y-82470890D01*
X106029110Y-82590477D01*
X106172310Y-82680456D01*
X106331941Y-82736313D01*
X106424065Y-82746693D01*
X106499999Y-82755249D01*
X106499999Y-82755248D01*
X106500000Y-82755249D01*
X106668059Y-82736313D01*
X106827690Y-82680456D01*
X106970890Y-82590477D01*
X107090477Y-82470890D01*
X107180456Y-82327690D01*
X107236313Y-82168059D01*
X107255249Y-82000000D01*
X108744751Y-82000000D01*
X108750146Y-82047890D01*
X108750873Y-82058163D01*
X108752368Y-82109512D01*
X108758111Y-82130946D01*
X108761556Y-82149151D01*
X108763686Y-82168059D01*
X108780810Y-82216997D01*
X108783543Y-82225856D01*
X108797776Y-82278974D01*
X108806570Y-82295283D01*
X108814467Y-82313181D01*
X108819543Y-82327690D01*
X108849059Y-82374663D01*
X108853210Y-82381785D01*
X108881039Y-82433398D01*
X108890933Y-82444516D01*
X108903293Y-82460976D01*
X108909523Y-82470890D01*
X108951311Y-82512678D01*
X108956261Y-82517924D01*
X108997674Y-82564459D01*
X109006859Y-82570890D01*
X109023417Y-82584784D01*
X109029110Y-82590477D01*
X109072842Y-82617956D01*
X109082246Y-82623865D01*
X109087396Y-82627283D01*
X109141388Y-82665088D01*
X109148402Y-82667874D01*
X109168585Y-82678116D01*
X109172309Y-82680456D01*
X109234980Y-82702385D01*
X109239808Y-82704188D01*
X109304430Y-82729861D01*
X109304433Y-82729862D01*
X109308271Y-82730424D01*
X109331255Y-82736073D01*
X109331941Y-82736313D01*
X109401610Y-82744162D01*
X109405550Y-82744673D01*
X109478023Y-82755289D01*
X109478238Y-82755270D01*
X109497657Y-82755513D01*
X109500000Y-82755249D01*
X109573260Y-82746994D01*
X109576237Y-82746696D01*
X109652797Y-82739999D01*
X109652797Y-82739998D01*
X109655585Y-82739755D01*
X109662658Y-82738203D01*
X109742003Y-82710438D01*
X109766306Y-82702385D01*
X109819334Y-82684814D01*
X109819334Y-82684813D01*
X109822336Y-82683819D01*
X109827685Y-82680457D01*
X109827690Y-82680456D01*
X109896644Y-82637128D01*
X109968656Y-82592712D01*
X110237244Y-82324121D01*
X110250864Y-82312351D01*
X110270130Y-82298010D01*
X110301970Y-82260062D01*
X110309286Y-82252081D01*
X110309866Y-82251499D01*
X110313190Y-82248177D01*
X110332437Y-82223833D01*
X110334631Y-82221138D01*
X110382902Y-82163614D01*
X110382903Y-82163610D01*
X110383719Y-82162639D01*
X110394175Y-82146225D01*
X110394709Y-82145079D01*
X110394711Y-82145077D01*
X110426416Y-82077082D01*
X110427969Y-82073875D01*
X110461640Y-82006833D01*
X110461640Y-82006829D01*
X110462210Y-82005696D01*
X110468599Y-81987317D01*
X110470050Y-81980288D01*
X110484031Y-81912571D01*
X110484786Y-81909167D01*
X110502100Y-81836121D01*
X110502100Y-81836117D01*
X110502390Y-81834894D01*
X110504369Y-81815523D01*
X110504332Y-81814259D01*
X110504333Y-81814256D01*
X110502152Y-81739288D01*
X110502100Y-81735683D01*
X110502100Y-81396597D01*
X110509918Y-81353263D01*
X110512245Y-81347024D01*
X110525091Y-81312583D01*
X110531500Y-81252973D01*
X110531499Y-75747028D01*
X110525091Y-75687417D01*
X110474796Y-75552569D01*
X110388546Y-75437354D01*
X110273331Y-75351104D01*
X110138483Y-75300809D01*
X110078873Y-75294400D01*
X110075550Y-75294400D01*
X109427639Y-75294400D01*
X109427620Y-75294400D01*
X109424328Y-75294401D01*
X109421048Y-75294753D01*
X109421040Y-75294754D01*
X109364715Y-75300809D01*
X109229869Y-75351104D01*
X109114654Y-75437354D01*
X109028404Y-75552568D01*
X108978110Y-75687415D01*
X108978109Y-75687417D01*
X108971700Y-75747027D01*
X108971700Y-75750348D01*
X108971700Y-75750349D01*
X108971700Y-81249660D01*
X108971700Y-81249678D01*
X108971701Y-81252972D01*
X108972053Y-81256252D01*
X108972054Y-81256259D01*
X108978109Y-81312584D01*
X108990449Y-81345669D01*
X108995433Y-81415361D01*
X108961950Y-81476681D01*
X108938411Y-81500221D01*
X108909522Y-81529110D01*
X108889688Y-81560674D01*
X108881967Y-81571604D01*
X108856888Y-81603323D01*
X108842879Y-81633362D01*
X108835496Y-81646919D01*
X108819543Y-81672309D01*
X108806028Y-81710931D01*
X108801372Y-81722374D01*
X108782743Y-81762325D01*
X108776779Y-81791210D01*
X108772384Y-81807085D01*
X108763686Y-81831943D01*
X108758697Y-81876220D01*
X108756915Y-81887408D01*
X108747265Y-81934140D01*
X108748017Y-81959977D01*
X108747290Y-81977458D01*
X108744751Y-82000000D01*
X107255249Y-82000000D01*
X107236313Y-81831941D01*
X107180456Y-81672310D01*
X107090477Y-81529110D01*
X106970890Y-81409523D01*
X106827690Y-81319544D01*
X106668059Y-81263687D01*
X106668058Y-81263686D01*
X106668056Y-81263686D01*
X106499999Y-81244750D01*
X106331943Y-81263686D01*
X106172310Y-81319544D01*
X106029108Y-81409524D01*
X105909524Y-81529108D01*
X105819544Y-81672310D01*
X105763686Y-81831943D01*
X105744750Y-82000000D01*
X105248207Y-82000000D01*
X105255249Y-81937500D01*
X105254949Y-81934841D01*
X105241505Y-81815523D01*
X105236313Y-81769441D01*
X105180456Y-81609810D01*
X105090477Y-81466610D01*
X104970890Y-81347023D01*
X104827690Y-81257044D01*
X104668059Y-81201187D01*
X104668058Y-81201186D01*
X104668056Y-81201186D01*
X104499999Y-81182250D01*
X104331943Y-81201186D01*
X104172310Y-81257044D01*
X104029108Y-81347024D01*
X103909524Y-81466608D01*
X103819544Y-81609810D01*
X103763686Y-81769443D01*
X103744750Y-81937500D01*
X100100500Y-81937500D01*
X100100500Y-79044168D01*
X106181648Y-79044168D01*
X106189814Y-79090475D01*
X106212277Y-79217866D01*
X106282135Y-79379818D01*
X106282136Y-79379818D01*
X106387461Y-79521294D01*
X106522570Y-79634665D01*
X106522571Y-79634665D01*
X106522573Y-79634667D01*
X106680189Y-79713824D01*
X106680190Y-79713824D01*
X106680192Y-79713825D01*
X106851810Y-79754500D01*
X106851812Y-79754500D01*
X106980342Y-79754500D01*
X106983941Y-79754500D01*
X107115184Y-79739160D01*
X107280924Y-79678836D01*
X107428285Y-79581915D01*
X107549322Y-79453623D01*
X107637510Y-79300876D01*
X107688095Y-79131909D01*
X107698351Y-78955831D01*
X107667723Y-78782134D01*
X107597864Y-78620182D01*
X107492539Y-78478706D01*
X107461188Y-78452399D01*
X107357429Y-78365334D01*
X107199807Y-78286174D01*
X107028190Y-78245500D01*
X107028188Y-78245500D01*
X106896059Y-78245500D01*
X106892492Y-78245916D01*
X106892490Y-78245917D01*
X106764813Y-78260840D01*
X106599074Y-78321164D01*
X106451715Y-78418084D01*
X106330676Y-78546377D01*
X106242491Y-78699120D01*
X106234181Y-78726877D01*
X106204001Y-78827689D01*
X106191905Y-78868092D01*
X106181648Y-79044168D01*
X100100500Y-79044168D01*
X100100500Y-76550008D01*
X101749500Y-76550008D01*
X101749818Y-76553121D01*
X101749819Y-76553140D01*
X101760000Y-76652797D01*
X101815186Y-76819336D01*
X101907288Y-76968655D01*
X102031344Y-77092711D01*
X102180663Y-77184813D01*
X102347202Y-77239999D01*
X102446859Y-77250180D01*
X102446860Y-77250180D01*
X102449992Y-77250500D01*
X102453141Y-77250500D01*
X103546859Y-77250500D01*
X103550008Y-77250500D01*
X103652797Y-77239999D01*
X103819334Y-77184814D01*
X103827830Y-77179574D01*
X103968655Y-77092711D01*
X104092711Y-76968655D01*
X104184813Y-76819336D01*
X104239999Y-76652797D01*
X104250180Y-76553140D01*
X104250179Y-76553140D01*
X104250500Y-76550008D01*
X104250500Y-76000000D01*
X104744722Y-76000000D01*
X104763792Y-76217974D01*
X104763793Y-76217977D01*
X104820425Y-76429330D01*
X104912898Y-76627639D01*
X105038402Y-76806877D01*
X105193123Y-76961598D01*
X105372361Y-77087102D01*
X105570670Y-77179575D01*
X105782023Y-77236207D01*
X105927341Y-77248920D01*
X105999999Y-77255277D01*
X105999999Y-77255276D01*
X106000000Y-77255277D01*
X106217977Y-77236207D01*
X106429330Y-77179575D01*
X106627639Y-77087102D01*
X106806877Y-76961598D01*
X106961598Y-76806877D01*
X107087102Y-76627639D01*
X107179575Y-76429330D01*
X107236207Y-76217977D01*
X107255277Y-76000000D01*
X107236207Y-75782023D01*
X107179575Y-75570670D01*
X107087102Y-75372362D01*
X106961598Y-75193123D01*
X106806877Y-75038402D01*
X106627639Y-74912898D01*
X106471307Y-74839999D01*
X106429331Y-74820425D01*
X106217974Y-74763792D01*
X106000000Y-74744722D01*
X105782025Y-74763792D01*
X105570668Y-74820425D01*
X105372361Y-74912898D01*
X105193122Y-75038402D01*
X105038402Y-75193122D01*
X104912898Y-75372361D01*
X104820425Y-75570668D01*
X104763792Y-75782025D01*
X104744722Y-76000000D01*
X104250500Y-76000000D01*
X104250500Y-75449992D01*
X104239999Y-75347203D01*
X104184814Y-75180666D01*
X104184813Y-75180665D01*
X104184813Y-75180663D01*
X104092711Y-75031344D01*
X103968655Y-74907288D01*
X103819336Y-74815186D01*
X103652797Y-74760000D01*
X103553140Y-74749819D01*
X103553121Y-74749818D01*
X103550008Y-74749500D01*
X102449992Y-74749500D01*
X102446879Y-74749817D01*
X102446859Y-74749819D01*
X102347202Y-74760000D01*
X102180663Y-74815186D01*
X102031344Y-74907288D01*
X101907288Y-75031344D01*
X101815186Y-75180663D01*
X101760000Y-75347202D01*
X101749819Y-75446859D01*
X101749817Y-75446879D01*
X101749500Y-75449992D01*
X101749500Y-76550008D01*
X100100500Y-76550008D01*
X100100500Y-56000000D01*
X101744722Y-56000000D01*
X101763792Y-56217974D01*
X101820425Y-56429331D01*
X101837429Y-56465795D01*
X101912898Y-56627639D01*
X102038402Y-56806877D01*
X102193123Y-56961598D01*
X102372361Y-57087102D01*
X102570670Y-57179575D01*
X102782023Y-57236207D01*
X103000000Y-57255277D01*
X103217977Y-57236207D01*
X103429330Y-57179575D01*
X103627639Y-57087102D01*
X103806877Y-56961598D01*
X103961598Y-56806877D01*
X104087102Y-56627639D01*
X104179575Y-56429330D01*
X104236207Y-56217977D01*
X104255277Y-56000000D01*
X104236207Y-55782023D01*
X104179575Y-55570670D01*
X104087102Y-55372362D01*
X103961598Y-55193123D01*
X103806877Y-55038402D01*
X103627639Y-54912898D01*
X103536205Y-54870261D01*
X103429331Y-54820425D01*
X103217974Y-54763792D01*
X103000000Y-54744722D01*
X102782025Y-54763792D01*
X102570668Y-54820425D01*
X102372361Y-54912898D01*
X102193122Y-55038402D01*
X102038402Y-55193122D01*
X101912898Y-55372361D01*
X101820425Y-55570668D01*
X101763792Y-55782025D01*
X101744722Y-56000000D01*
X100100500Y-56000000D01*
X100100500Y-44002870D01*
X100100632Y-43997143D01*
X100109749Y-43799942D01*
X100116870Y-43645914D01*
X100117927Y-43634519D01*
X100118301Y-43631839D01*
X100166106Y-43289131D01*
X100168206Y-43277896D01*
X100248052Y-42938416D01*
X100251175Y-42927437D01*
X100362011Y-42596748D01*
X100366134Y-42586108D01*
X100507003Y-42267068D01*
X100512086Y-42256859D01*
X100681789Y-41952184D01*
X100687815Y-41942452D01*
X100742222Y-41863028D01*
X100884905Y-41654736D01*
X100891787Y-41645623D01*
X101114582Y-41377321D01*
X101122277Y-41368881D01*
X101368881Y-41122277D01*
X101377321Y-41114582D01*
X101645623Y-40891787D01*
X101654736Y-40884905D01*
X101942457Y-40687811D01*
X101952184Y-40681789D01*
X102250163Y-40515816D01*
X102318307Y-40500392D01*
X102383974Y-40524258D01*
X102426314Y-40579838D01*
X102434500Y-40624146D01*
X102434500Y-40922336D01*
X102414815Y-40989375D01*
X102412275Y-40993172D01*
X102355706Y-41074447D01*
X102289329Y-41229123D01*
X102275460Y-41261442D01*
X102245769Y-41405925D01*
X102234500Y-41460760D01*
X102234500Y-43483221D01*
X102234460Y-43486363D01*
X102232242Y-43573862D01*
X102242648Y-43631920D01*
X102243957Y-43641249D01*
X102249926Y-43699938D01*
X102259033Y-43728967D01*
X102262772Y-43744202D01*
X102268141Y-43774152D01*
X102290020Y-43828925D01*
X102293180Y-43837800D01*
X102310841Y-43894088D01*
X102325607Y-43920691D01*
X102332337Y-43934864D01*
X102343622Y-43963117D01*
X102376080Y-44012367D01*
X102380961Y-44020423D01*
X102409590Y-44072001D01*
X102429404Y-44095081D01*
X102438856Y-44107616D01*
X102455599Y-44133020D01*
X102497300Y-44174721D01*
X102503705Y-44181632D01*
X102542130Y-44226391D01*
X102542131Y-44226392D01*
X102542134Y-44226395D01*
X102566198Y-44245022D01*
X102577968Y-44255389D01*
X104472383Y-46149804D01*
X104476711Y-46154357D01*
X104534274Y-46218070D01*
X104532993Y-46219226D01*
X104566274Y-46262832D01*
X104574500Y-46307244D01*
X104574500Y-47909757D01*
X104572235Y-47930267D01*
X104574439Y-48000373D01*
X104574500Y-48004268D01*
X104574500Y-48031851D01*
X104574988Y-48035720D01*
X104574989Y-48035726D01*
X104575004Y-48035844D01*
X104575918Y-48047468D01*
X104577290Y-48091127D01*
X104582879Y-48110361D01*
X104586825Y-48129417D01*
X104589335Y-48149293D01*
X104605414Y-48189905D01*
X104609197Y-48200952D01*
X104621382Y-48242892D01*
X104631580Y-48260136D01*
X104640136Y-48277601D01*
X104647514Y-48296233D01*
X104647515Y-48296234D01*
X104673180Y-48331560D01*
X104679593Y-48341323D01*
X104701826Y-48378917D01*
X104701829Y-48378920D01*
X104701830Y-48378921D01*
X104715995Y-48393086D01*
X104728627Y-48407876D01*
X104740406Y-48424088D01*
X104774058Y-48451927D01*
X104782699Y-48459790D01*
X104979401Y-48656492D01*
X105008762Y-48703219D01*
X105010061Y-48706933D01*
X105010062Y-48706935D01*
X105065919Y-48866566D01*
X105155898Y-49009766D01*
X105275485Y-49129353D01*
X105418685Y-49219332D01*
X105494783Y-49245959D01*
X105551557Y-49286679D01*
X105577305Y-49351632D01*
X105563849Y-49420194D01*
X105515462Y-49470597D01*
X105453832Y-49487000D01*
X105430441Y-49487000D01*
X105430422Y-49487000D01*
X105427128Y-49487001D01*
X105423848Y-49487353D01*
X105423840Y-49487354D01*
X105367515Y-49493409D01*
X105232667Y-49543704D01*
X105214310Y-49557447D01*
X105148845Y-49581864D01*
X105080573Y-49567012D01*
X105065690Y-49557447D01*
X105047333Y-49543705D01*
X105047331Y-49543704D01*
X104912483Y-49493409D01*
X104860816Y-49487854D01*
X104856166Y-49487354D01*
X104856165Y-49487353D01*
X104852873Y-49487000D01*
X104849550Y-49487000D01*
X104160439Y-49487000D01*
X104160420Y-49487000D01*
X104157128Y-49487001D01*
X104153848Y-49487353D01*
X104153840Y-49487354D01*
X104097515Y-49493409D01*
X103962667Y-49543704D01*
X103944310Y-49557447D01*
X103878845Y-49581864D01*
X103810573Y-49567012D01*
X103795690Y-49557447D01*
X103777333Y-49543705D01*
X103777331Y-49543704D01*
X103642483Y-49493409D01*
X103590816Y-49487854D01*
X103586166Y-49487354D01*
X103586165Y-49487353D01*
X103582873Y-49487000D01*
X103579550Y-49487000D01*
X102890439Y-49487000D01*
X102890420Y-49487000D01*
X102887128Y-49487001D01*
X102883848Y-49487353D01*
X102883840Y-49487354D01*
X102827515Y-49493409D01*
X102692669Y-49543704D01*
X102577454Y-49629954D01*
X102491204Y-49745168D01*
X102440910Y-49880015D01*
X102440909Y-49880017D01*
X102434500Y-49939627D01*
X102434500Y-49942948D01*
X102434500Y-49942949D01*
X102434500Y-50103817D01*
X102414815Y-50170856D01*
X102362011Y-50216611D01*
X102344998Y-50221326D01*
X102345090Y-50221589D01*
X102343347Y-50222198D01*
X102334513Y-50224232D01*
X102332615Y-50224758D01*
X102247742Y-50255648D01*
X102165183Y-50284537D01*
X102164572Y-50284836D01*
X102095162Y-50330487D01*
X102092997Y-50331879D01*
X102025759Y-50374128D01*
X102015159Y-50382762D01*
X101962831Y-50438226D01*
X101960321Y-50440811D01*
X101908915Y-50492218D01*
X101895328Y-50509774D01*
X101893912Y-50511274D01*
X101858232Y-50573074D01*
X101855840Y-50577043D01*
X101819541Y-50634814D01*
X101818691Y-50637243D01*
X101809048Y-50658265D01*
X101806188Y-50663218D01*
X101786762Y-50728100D01*
X101785015Y-50733484D01*
X101763686Y-50794444D01*
X101762988Y-50800634D01*
X101758562Y-50822295D01*
X101755869Y-50831291D01*
X101752142Y-50895282D01*
X101751572Y-50901956D01*
X101744750Y-50962498D01*
X101745857Y-50972319D01*
X101746427Y-50993413D01*
X101745668Y-51006434D01*
X101756166Y-51065971D01*
X101757270Y-51073617D01*
X101763686Y-51130558D01*
X101768160Y-51143343D01*
X101773234Y-51162760D01*
X101776135Y-51179211D01*
X101798636Y-51231374D01*
X101801819Y-51239534D01*
X101819543Y-51290188D01*
X101828695Y-51304754D01*
X101837557Y-51321606D01*
X101845623Y-51340304D01*
X101877377Y-51382956D01*
X101882908Y-51391033D01*
X101909521Y-51433389D01*
X101924266Y-51448133D01*
X101936043Y-51461758D01*
X101950390Y-51481030D01*
X101988339Y-51512873D01*
X101996314Y-51520181D01*
X102029110Y-51552977D01*
X102049859Y-51566014D01*
X102063593Y-51576019D01*
X102084786Y-51593802D01*
X102125797Y-51614398D01*
X102136108Y-51620208D01*
X102172310Y-51642956D01*
X102198895Y-51652258D01*
X102213574Y-51658481D01*
X102241567Y-51672540D01*
X102282684Y-51682284D01*
X102295038Y-51685900D01*
X102345129Y-51703428D01*
X102344137Y-51706262D01*
X102388785Y-51725017D01*
X102428348Y-51782606D01*
X102434501Y-51821181D01*
X102434501Y-51985372D01*
X102434853Y-51988652D01*
X102434854Y-51988659D01*
X102440909Y-52044984D01*
X102466056Y-52112407D01*
X102491204Y-52179831D01*
X102577454Y-52295046D01*
X102692669Y-52381296D01*
X102827517Y-52431591D01*
X102887127Y-52438000D01*
X103582872Y-52437999D01*
X103642483Y-52431591D01*
X103777331Y-52381296D01*
X103795688Y-52367553D01*
X103861148Y-52343135D01*
X103929421Y-52357984D01*
X103944310Y-52367552D01*
X103962669Y-52381296D01*
X104097517Y-52431591D01*
X104157127Y-52438000D01*
X104852872Y-52437999D01*
X104912483Y-52431591D01*
X105047331Y-52381296D01*
X105065688Y-52367553D01*
X105131150Y-52343135D01*
X105199424Y-52357985D01*
X105214308Y-52367550D01*
X105214314Y-52367555D01*
X105232669Y-52381296D01*
X105331305Y-52418085D01*
X105367517Y-52431591D01*
X105427127Y-52438000D01*
X106122872Y-52437999D01*
X106168462Y-52433098D01*
X106237221Y-52445505D01*
X106288357Y-52493116D01*
X106305636Y-52560815D01*
X106289103Y-52618387D01*
X106242490Y-52699124D01*
X106191905Y-52868092D01*
X106181648Y-53044168D01*
X106198574Y-53140156D01*
X106212277Y-53217866D01*
X106269274Y-53350000D01*
X106282136Y-53379818D01*
X106387461Y-53521294D01*
X106522570Y-53634665D01*
X106522571Y-53634665D01*
X106522573Y-53634667D01*
X106680189Y-53713824D01*
X106680190Y-53713824D01*
X106680192Y-53713825D01*
X106851810Y-53754500D01*
X106851812Y-53754500D01*
X106980342Y-53754500D01*
X106983941Y-53754500D01*
X107115184Y-53739160D01*
X107208090Y-53705344D01*
X107277818Y-53700914D01*
X107338874Y-53734884D01*
X107371871Y-53796471D01*
X107374500Y-53821867D01*
X107374500Y-55429360D01*
X107354815Y-55496399D01*
X107302011Y-55542154D01*
X107232853Y-55552098D01*
X107169297Y-55523073D01*
X107138118Y-55481765D01*
X107109236Y-55419829D01*
X107087102Y-55372362D01*
X106961598Y-55193123D01*
X106806877Y-55038402D01*
X106627639Y-54912898D01*
X106536205Y-54870261D01*
X106429331Y-54820425D01*
X106217974Y-54763792D01*
X106000000Y-54744722D01*
X105782025Y-54763792D01*
X105570668Y-54820425D01*
X105372361Y-54912898D01*
X105193122Y-55038402D01*
X105038402Y-55193122D01*
X104912898Y-55372361D01*
X104820425Y-55570668D01*
X104763792Y-55782025D01*
X104744722Y-56000000D01*
X104763792Y-56217974D01*
X104820425Y-56429331D01*
X104837429Y-56465795D01*
X104912898Y-56627639D01*
X105038402Y-56806877D01*
X105193123Y-56961598D01*
X105372361Y-57087102D01*
X105570670Y-57179575D01*
X105782023Y-57236207D01*
X106000000Y-57255277D01*
X106217977Y-57236207D01*
X106429330Y-57179575D01*
X106627639Y-57087102D01*
X106803122Y-56964226D01*
X106869325Y-56941901D01*
X106937093Y-56958911D01*
X106984906Y-57009859D01*
X106997584Y-57078568D01*
X106971103Y-57143225D01*
X106961924Y-57153484D01*
X106373997Y-57741410D01*
X106312674Y-57774895D01*
X106254225Y-57773504D01*
X106217979Y-57763792D01*
X105999999Y-57744722D01*
X105782025Y-57763792D01*
X105570668Y-57820425D01*
X105372361Y-57912898D01*
X105193122Y-58038402D01*
X105038402Y-58193122D01*
X104912898Y-58372361D01*
X104820425Y-58570668D01*
X104763792Y-58782025D01*
X104744722Y-59000000D01*
X104763792Y-59217976D01*
X104821338Y-59432740D01*
X104819675Y-59502589D01*
X104780513Y-59560452D01*
X104716284Y-59587956D01*
X104647382Y-59576370D01*
X104613882Y-59552514D01*
X104280563Y-59219195D01*
X104247078Y-59157872D01*
X104244716Y-59120710D01*
X104255277Y-59000000D01*
X104236207Y-58782023D01*
X104179575Y-58570670D01*
X104087102Y-58372362D01*
X103961598Y-58193123D01*
X103806877Y-58038402D01*
X103627639Y-57912898D01*
X103474097Y-57841300D01*
X103429331Y-57820425D01*
X103217974Y-57763792D01*
X103000000Y-57744722D01*
X102782025Y-57763792D01*
X102570668Y-57820425D01*
X102372361Y-57912898D01*
X102193122Y-58038402D01*
X102038402Y-58193122D01*
X101912898Y-58372361D01*
X101820425Y-58570668D01*
X101763792Y-58782025D01*
X101744722Y-59000000D01*
X101763792Y-59217974D01*
X101820425Y-59429331D01*
X101839217Y-59469630D01*
X101912898Y-59627639D01*
X102038402Y-59806877D01*
X102193123Y-59961598D01*
X102372361Y-60087102D01*
X102570670Y-60179575D01*
X102782023Y-60236207D01*
X102860687Y-60243089D01*
X102999998Y-60255277D01*
X102999998Y-60255276D01*
X103000000Y-60255277D01*
X103120708Y-60244716D01*
X103189206Y-60258482D01*
X103219195Y-60280563D01*
X103448647Y-60510015D01*
X103476452Y-60537819D01*
X103509937Y-60599142D01*
X103504953Y-60668833D01*
X103463082Y-60724767D01*
X103397617Y-60749184D01*
X103388771Y-60749500D01*
X102449992Y-60749500D01*
X102446879Y-60749817D01*
X102446859Y-60749819D01*
X102347202Y-60760000D01*
X102180663Y-60815186D01*
X102031344Y-60907288D01*
X101907288Y-61031344D01*
X101815186Y-61180663D01*
X101760000Y-61347202D01*
X101749819Y-61446859D01*
X101749817Y-61446879D01*
X101749500Y-61449992D01*
X101749500Y-62550008D01*
X101749818Y-62553121D01*
X101749819Y-62553140D01*
X101760000Y-62652797D01*
X101815186Y-62819336D01*
X101907288Y-62968655D01*
X102031344Y-63092711D01*
X102180663Y-63184813D01*
X102347202Y-63239999D01*
X102446859Y-63250180D01*
X102446860Y-63250180D01*
X102449992Y-63250500D01*
X102453141Y-63250500D01*
X103546859Y-63250500D01*
X103550008Y-63250500D01*
X103612897Y-63244075D01*
X103681590Y-63256844D01*
X103732475Y-63304725D01*
X103749500Y-63367433D01*
X103749500Y-68775081D01*
X103729815Y-68842120D01*
X103677011Y-68887875D01*
X103607853Y-68897819D01*
X103573096Y-68887463D01*
X103429334Y-68820426D01*
X103217974Y-68763792D01*
X103000000Y-68744722D01*
X102782025Y-68763792D01*
X102570668Y-68820425D01*
X102372361Y-68912898D01*
X102193122Y-69038402D01*
X102038402Y-69193122D01*
X101912898Y-69372361D01*
X101820425Y-69570668D01*
X101763792Y-69782025D01*
X101744722Y-70000000D01*
X101763792Y-70217974D01*
X101820425Y-70429331D01*
X101862232Y-70518986D01*
X101912898Y-70627639D01*
X102038402Y-70806877D01*
X102193123Y-70961598D01*
X102372361Y-71087102D01*
X102570670Y-71179575D01*
X102782023Y-71236207D01*
X103000000Y-71255277D01*
X103217977Y-71236207D01*
X103429330Y-71179575D01*
X103429332Y-71179573D01*
X103432739Y-71178661D01*
X103502589Y-71180324D01*
X103560452Y-71219486D01*
X103587956Y-71283714D01*
X103576370Y-71352617D01*
X103552514Y-71386117D01*
X103219195Y-71719435D01*
X103157872Y-71752920D01*
X103120708Y-71755282D01*
X103000000Y-71744722D01*
X102782025Y-71763792D01*
X102570668Y-71820425D01*
X102372361Y-71912898D01*
X102193122Y-72038402D01*
X102038402Y-72193122D01*
X101912898Y-72372361D01*
X101820425Y-72570668D01*
X101763792Y-72782025D01*
X101744722Y-73000000D01*
X101763792Y-73217974D01*
X101820425Y-73429331D01*
X101870261Y-73536205D01*
X101912898Y-73627639D01*
X102038402Y-73806877D01*
X102193123Y-73961598D01*
X102372361Y-74087102D01*
X102570670Y-74179575D01*
X102782023Y-74236207D01*
X103000000Y-74255277D01*
X103217977Y-74236207D01*
X103429330Y-74179575D01*
X103627639Y-74087102D01*
X103806877Y-73961598D01*
X103961598Y-73806877D01*
X104087102Y-73627639D01*
X104179575Y-73429330D01*
X104236207Y-73217977D01*
X104255277Y-73000000D01*
X104244716Y-72879290D01*
X104258482Y-72810792D01*
X104280560Y-72780806D01*
X104613884Y-72447482D01*
X104675206Y-72413998D01*
X104744898Y-72418982D01*
X104800831Y-72460854D01*
X104825248Y-72526318D01*
X104821339Y-72567258D01*
X104763792Y-72782025D01*
X104744722Y-73000000D01*
X104763792Y-73217974D01*
X104820425Y-73429331D01*
X104870261Y-73536205D01*
X104912898Y-73627639D01*
X105038402Y-73806877D01*
X105193123Y-73961598D01*
X105372361Y-74087102D01*
X105570670Y-74179575D01*
X105782023Y-74236207D01*
X105927341Y-74248920D01*
X105999999Y-74255277D01*
X105999999Y-74255276D01*
X106000000Y-74255277D01*
X106217977Y-74236207D01*
X106429330Y-74179575D01*
X106627639Y-74087102D01*
X106806877Y-73961598D01*
X106961598Y-73806877D01*
X107087102Y-73627639D01*
X107179575Y-73429330D01*
X107236207Y-73217977D01*
X107255277Y-73000000D01*
X107244716Y-72879290D01*
X107258482Y-72810792D01*
X107280560Y-72780806D01*
X108211365Y-71850000D01*
X109450001Y-71850000D01*
X109450001Y-72121829D01*
X109450321Y-72128111D01*
X109460493Y-72227695D01*
X109515642Y-72394122D01*
X109607683Y-72543345D01*
X109731654Y-72667316D01*
X109880877Y-72759357D01*
X110047303Y-72814506D01*
X110146891Y-72824680D01*
X110153167Y-72824999D01*
X110199999Y-72824999D01*
X110200000Y-72824998D01*
X110200000Y-71850000D01*
X109450001Y-71850000D01*
X108211365Y-71850000D01*
X108485638Y-71575727D01*
X108499256Y-71563957D01*
X108518530Y-71549610D01*
X108550372Y-71511661D01*
X108557686Y-71503681D01*
X108558267Y-71503099D01*
X108561590Y-71499777D01*
X108580837Y-71475433D01*
X108583031Y-71472738D01*
X108631302Y-71415214D01*
X108631303Y-71415210D01*
X108632118Y-71414240D01*
X108642573Y-71397827D01*
X108643106Y-71396682D01*
X108643111Y-71396677D01*
X108674833Y-71328646D01*
X108676362Y-71325488D01*
X108710040Y-71258433D01*
X108710040Y-71258432D01*
X108710612Y-71257294D01*
X108717000Y-71238914D01*
X108717255Y-71237675D01*
X108717257Y-71237673D01*
X108732441Y-71164131D01*
X108733194Y-71160734D01*
X108750500Y-71087721D01*
X108750500Y-71087716D01*
X108750790Y-71086493D01*
X108752769Y-71067123D01*
X108752732Y-71065859D01*
X108752733Y-71065856D01*
X108750552Y-70990888D01*
X108750500Y-70987283D01*
X108750500Y-61063705D01*
X108751809Y-61045735D01*
X108752883Y-61038402D01*
X108755289Y-61021977D01*
X108750971Y-60972633D01*
X108750500Y-60961827D01*
X108750500Y-60959901D01*
X108750500Y-60956291D01*
X108746894Y-60925443D01*
X108746537Y-60921956D01*
X108739998Y-60847203D01*
X108739888Y-60845943D01*
X108735674Y-60826935D01*
X108731398Y-60815186D01*
X108709567Y-60755207D01*
X108708399Y-60751844D01*
X108707728Y-60749819D01*
X108684814Y-60680666D01*
X108684811Y-60680662D01*
X108684416Y-60679468D01*
X108675929Y-60661936D01*
X108675237Y-60660884D01*
X108675237Y-60660883D01*
X108633999Y-60598184D01*
X108632087Y-60595181D01*
X108592050Y-60530270D01*
X108579750Y-60515172D01*
X108524290Y-60462848D01*
X108521703Y-60460335D01*
X107280563Y-59219195D01*
X107247078Y-59157872D01*
X107244716Y-59120710D01*
X107255277Y-59000000D01*
X107236207Y-58782023D01*
X107236207Y-58782021D01*
X107226495Y-58745776D01*
X107228157Y-58675926D01*
X107258586Y-58626002D01*
X108383788Y-57500801D01*
X108399885Y-57487906D01*
X108401873Y-57485787D01*
X108401877Y-57485786D01*
X108447949Y-57436723D01*
X108450534Y-57434055D01*
X108470120Y-57414471D01*
X108472585Y-57411292D01*
X108480167Y-57402416D01*
X108510062Y-57370582D01*
X108519717Y-57353018D01*
X108530394Y-57336764D01*
X108542673Y-57320936D01*
X108560018Y-57280852D01*
X108565160Y-57270356D01*
X108586197Y-57232092D01*
X108591179Y-57212684D01*
X108597481Y-57194280D01*
X108605437Y-57175896D01*
X108612269Y-57132752D01*
X108614633Y-57121338D01*
X108625500Y-57079019D01*
X108625500Y-57058982D01*
X108627027Y-57039584D01*
X108628115Y-57032713D01*
X108630160Y-57019804D01*
X108626050Y-56976324D01*
X108625500Y-56964655D01*
X108625500Y-54810149D01*
X108625500Y-52655229D01*
X108627763Y-52634742D01*
X108627249Y-52618387D01*
X108625561Y-52564644D01*
X108625500Y-52560750D01*
X108625500Y-52553401D01*
X108645185Y-52486362D01*
X108697989Y-52440607D01*
X108708180Y-52437811D01*
X108707890Y-52437034D01*
X108729445Y-52428994D01*
X108857331Y-52381296D01*
X108875688Y-52367553D01*
X108941150Y-52343135D01*
X109009424Y-52357985D01*
X109024304Y-52367548D01*
X109042669Y-52381296D01*
X109071022Y-52391870D01*
X109112342Y-52422802D01*
X109113336Y-52421602D01*
X109159058Y-52459426D01*
X109167699Y-52467289D01*
X109236272Y-52535862D01*
X109265633Y-52582589D01*
X109266932Y-52586303D01*
X109266933Y-52586305D01*
X109322790Y-52745936D01*
X109412769Y-52889136D01*
X109532356Y-53008723D01*
X109675556Y-53098702D01*
X109835187Y-53154559D01*
X109947226Y-53167183D01*
X110003245Y-53173495D01*
X110003245Y-53173494D01*
X110003246Y-53173495D01*
X110171305Y-53154559D01*
X110330936Y-53098702D01*
X110474136Y-53008723D01*
X110518256Y-52964602D01*
X110579577Y-52931118D01*
X110649268Y-52936102D01*
X110693617Y-52964603D01*
X111911257Y-54182243D01*
X111944742Y-54243566D01*
X111939758Y-54313258D01*
X111897886Y-54369191D01*
X111862581Y-54387630D01*
X111814575Y-54403538D01*
X111666494Y-54494875D01*
X111543474Y-54617895D01*
X111543038Y-54618603D01*
X111540343Y-54621026D01*
X111533225Y-54628145D01*
X111532848Y-54627768D01*
X111491089Y-54665327D01*
X111422127Y-54676548D01*
X111358045Y-54648704D01*
X111331962Y-54618603D01*
X111331525Y-54617895D01*
X111208505Y-54494875D01*
X111090909Y-54422341D01*
X111060425Y-54403538D01*
X111060424Y-54403537D01*
X111060423Y-54403537D01*
X110895275Y-54348812D01*
X110796480Y-54338719D01*
X110796461Y-54338718D01*
X110793348Y-54338400D01*
X110206652Y-54338400D01*
X110203539Y-54338717D01*
X110203519Y-54338719D01*
X110104724Y-54348812D01*
X109939576Y-54403537D01*
X109791494Y-54494875D01*
X109668475Y-54617894D01*
X109577137Y-54765976D01*
X109522412Y-54931124D01*
X109512319Y-55029919D01*
X109512317Y-55029939D01*
X109512000Y-55033052D01*
X109512000Y-56044748D01*
X109512318Y-56047861D01*
X109512319Y-56047880D01*
X109522412Y-56146675D01*
X109577137Y-56311823D01*
X109668475Y-56459905D01*
X109713180Y-56504609D01*
X109746666Y-56565932D01*
X109749500Y-56592291D01*
X109749500Y-57216058D01*
X109729815Y-57283097D01*
X109713181Y-57303739D01*
X109668475Y-57348444D01*
X109577137Y-57496526D01*
X109522412Y-57661674D01*
X109512319Y-57760469D01*
X109512317Y-57760489D01*
X109512000Y-57763602D01*
X109512000Y-58775298D01*
X109512318Y-58778411D01*
X109512319Y-58778430D01*
X109522412Y-58877225D01*
X109577137Y-59042373D01*
X109668475Y-59190455D01*
X109713180Y-59235159D01*
X109746666Y-59296482D01*
X109749500Y-59322841D01*
X109749500Y-59946608D01*
X109729815Y-60013647D01*
X109713181Y-60034289D01*
X109668475Y-60078994D01*
X109577137Y-60227076D01*
X109522412Y-60392224D01*
X109512319Y-60491019D01*
X109512317Y-60491039D01*
X109512000Y-60494152D01*
X109512000Y-61505848D01*
X109512318Y-61508961D01*
X109512319Y-61508980D01*
X109522412Y-61607775D01*
X109577137Y-61772923D01*
X109577138Y-61772925D01*
X109613540Y-61831941D01*
X109668475Y-61921005D01*
X109713180Y-61965709D01*
X109746666Y-62027032D01*
X109749500Y-62053391D01*
X109749500Y-62677158D01*
X109729815Y-62744197D01*
X109713181Y-62764839D01*
X109668475Y-62809544D01*
X109577137Y-62957626D01*
X109522412Y-63122774D01*
X109512319Y-63221569D01*
X109512317Y-63221589D01*
X109512000Y-63224702D01*
X109512000Y-64236398D01*
X109512318Y-64239511D01*
X109512319Y-64239530D01*
X109522412Y-64338325D01*
X109577137Y-64503473D01*
X109668475Y-64651555D01*
X109713180Y-64696259D01*
X109746666Y-64757582D01*
X109749500Y-64783941D01*
X109749500Y-65446608D01*
X109729815Y-65513647D01*
X109713181Y-65534289D01*
X109668475Y-65578994D01*
X109577137Y-65727076D01*
X109522412Y-65892224D01*
X109512319Y-65991019D01*
X109512317Y-65991039D01*
X109512000Y-65994152D01*
X109512000Y-65997300D01*
X109512000Y-66324821D01*
X109509462Y-66349781D01*
X109499500Y-66398259D01*
X109499500Y-67082239D01*
X109499816Y-67085350D01*
X109499817Y-67085362D01*
X109514926Y-67233937D01*
X109544342Y-67327690D01*
X109575841Y-67428085D01*
X109601881Y-67475000D01*
X109665975Y-67590477D01*
X109674591Y-67605999D01*
X109807134Y-67760392D01*
X109849597Y-67793261D01*
X109890559Y-67849860D01*
X109894420Y-67919623D01*
X109859951Y-67980398D01*
X109838791Y-67996853D01*
X109781343Y-68032287D01*
X109657288Y-68156342D01*
X109565186Y-68305665D01*
X109510000Y-68472202D01*
X109499819Y-68571858D01*
X109499817Y-68571878D01*
X109499500Y-68574991D01*
X109499500Y-68578138D01*
X109499500Y-68578139D01*
X109499500Y-68587769D01*
X109479815Y-68654808D01*
X109463182Y-68675450D01*
X109409522Y-68729110D01*
X109319544Y-68872309D01*
X109263686Y-69031943D01*
X109244750Y-69200000D01*
X109263686Y-69368056D01*
X109263686Y-69368058D01*
X109263687Y-69368059D01*
X109319544Y-69527690D01*
X109386514Y-69634271D01*
X109409524Y-69670891D01*
X109510812Y-69772179D01*
X109540837Y-69820855D01*
X109565186Y-69894336D01*
X109657288Y-70043657D01*
X109781342Y-70167711D01*
X109881250Y-70229334D01*
X109927975Y-70281281D01*
X109939198Y-70350244D01*
X109911355Y-70414326D01*
X109881251Y-70440412D01*
X109731653Y-70532684D01*
X109607683Y-70656654D01*
X109515642Y-70805877D01*
X109460493Y-70972303D01*
X109450319Y-71071890D01*
X109450000Y-71078168D01*
X109450000Y-71350000D01*
X110576000Y-71350000D01*
X110643039Y-71369685D01*
X110688794Y-71422489D01*
X110700000Y-71474000D01*
X110700000Y-72824999D01*
X110746829Y-72824999D01*
X110753111Y-72824678D01*
X110852695Y-72814506D01*
X111019120Y-72759358D01*
X111160403Y-72672214D01*
X111227795Y-72653774D01*
X111294459Y-72674696D01*
X111339229Y-72728338D01*
X111349500Y-72777752D01*
X111349500Y-72800742D01*
X111349816Y-72803853D01*
X111349817Y-72803865D01*
X111364926Y-72952440D01*
X111382135Y-73007288D01*
X111425841Y-73146588D01*
X111469927Y-73226016D01*
X111504857Y-73288949D01*
X111524591Y-73324502D01*
X111657134Y-73478895D01*
X111818042Y-73603448D01*
X112000729Y-73693060D01*
X112197715Y-73744063D01*
X112400936Y-73754369D01*
X112400936Y-73754368D01*
X112400937Y-73754369D01*
X112602071Y-73723556D01*
X112684413Y-73693060D01*
X112792887Y-73652886D01*
X112952914Y-73553141D01*
X112965568Y-73545254D01*
X112965568Y-73545253D01*
X112965571Y-73545252D01*
X113113053Y-73405059D01*
X113229295Y-73238049D01*
X113309540Y-73051058D01*
X113350500Y-72851741D01*
X113350500Y-69867006D01*
X113356794Y-69828001D01*
X113359162Y-69820855D01*
X113389999Y-69727797D01*
X113400500Y-69625009D01*
X113400499Y-68574992D01*
X113389999Y-68472203D01*
X113334814Y-68305666D01*
X113242712Y-68156344D01*
X113242711Y-68156342D01*
X113118657Y-68032288D01*
X112996075Y-67956680D01*
X112969334Y-67940186D01*
X112900911Y-67917513D01*
X112847643Y-67899861D01*
X112790199Y-67860088D01*
X112763376Y-67795572D01*
X112775691Y-67726796D01*
X112823235Y-67675596D01*
X112847642Y-67664449D01*
X112935425Y-67635362D01*
X113083503Y-67544026D01*
X113206526Y-67421003D01*
X113297862Y-67272925D01*
X113352587Y-67107775D01*
X113363000Y-67005848D01*
X113363000Y-65994152D01*
X113352587Y-65892225D01*
X113346089Y-65872616D01*
X113318871Y-65790477D01*
X113297862Y-65727075D01*
X113206526Y-65578997D01*
X113206525Y-65578996D01*
X113206524Y-65578994D01*
X113083505Y-65455975D01*
X112935423Y-65364637D01*
X112770275Y-65309912D01*
X112671480Y-65299819D01*
X112671461Y-65299818D01*
X112668348Y-65299500D01*
X112081652Y-65299500D01*
X112078539Y-65299817D01*
X112078519Y-65299819D01*
X111979724Y-65309912D01*
X111814576Y-65364637D01*
X111666494Y-65455975D01*
X111543474Y-65578995D01*
X111543038Y-65579703D01*
X111540343Y-65582126D01*
X111533225Y-65589245D01*
X111532848Y-65588868D01*
X111491089Y-65626427D01*
X111422127Y-65637648D01*
X111358045Y-65609804D01*
X111331962Y-65579703D01*
X111331525Y-65578995D01*
X111286819Y-65534289D01*
X111253334Y-65472966D01*
X111250500Y-65446608D01*
X111250500Y-64783941D01*
X111270185Y-64716902D01*
X111286820Y-64696259D01*
X111302624Y-64680455D01*
X111331526Y-64651553D01*
X111331958Y-64650851D01*
X111334642Y-64648437D01*
X111341776Y-64641304D01*
X111342153Y-64641681D01*
X111383900Y-64604127D01*
X111452861Y-64592899D01*
X111516946Y-64620738D01*
X111543035Y-64650844D01*
X111543471Y-64651551D01*
X111666494Y-64774574D01*
X111666496Y-64774575D01*
X111666497Y-64774576D01*
X111814575Y-64865912D01*
X111897150Y-64893274D01*
X111979724Y-64920637D01*
X112078519Y-64930730D01*
X112078520Y-64930730D01*
X112081652Y-64931050D01*
X112084801Y-64931050D01*
X112665199Y-64931050D01*
X112668348Y-64931050D01*
X112770275Y-64920637D01*
X112935425Y-64865912D01*
X113083503Y-64774576D01*
X113206526Y-64651553D01*
X113297862Y-64503475D01*
X113352587Y-64338325D01*
X113363000Y-64236398D01*
X113363000Y-63224702D01*
X113355187Y-63148228D01*
X113352587Y-63122774D01*
X113317746Y-63017631D01*
X113297862Y-62957625D01*
X113206526Y-62809547D01*
X113206525Y-62809546D01*
X113206524Y-62809544D01*
X113083505Y-62686525D01*
X112988036Y-62627639D01*
X112935425Y-62595188D01*
X112935424Y-62595187D01*
X112935423Y-62595187D01*
X112770275Y-62540462D01*
X112671480Y-62530369D01*
X112671461Y-62530368D01*
X112668348Y-62530050D01*
X112081652Y-62530050D01*
X112078539Y-62530367D01*
X112078519Y-62530369D01*
X111979724Y-62540462D01*
X111814576Y-62595187D01*
X111666494Y-62686525D01*
X111543474Y-62809545D01*
X111543038Y-62810253D01*
X111540343Y-62812676D01*
X111533225Y-62819795D01*
X111532848Y-62819418D01*
X111491089Y-62856977D01*
X111422127Y-62868198D01*
X111358045Y-62840354D01*
X111331962Y-62810253D01*
X111331525Y-62809545D01*
X111286819Y-62764839D01*
X111253334Y-62703516D01*
X111250500Y-62677158D01*
X111250500Y-62053391D01*
X111270185Y-61986352D01*
X111286820Y-61965709D01*
X111331524Y-61921005D01*
X111331526Y-61921003D01*
X111331960Y-61920298D01*
X111334654Y-61917875D01*
X111341776Y-61910754D01*
X111342152Y-61911130D01*
X111383907Y-61873574D01*
X111452869Y-61862350D01*
X111516952Y-61890192D01*
X111543040Y-61920299D01*
X111543476Y-61921006D01*
X111666494Y-62044024D01*
X111666496Y-62044025D01*
X111666497Y-62044026D01*
X111814575Y-62135362D01*
X111896473Y-62162500D01*
X111979724Y-62190087D01*
X112078519Y-62200180D01*
X112078520Y-62200180D01*
X112081652Y-62200500D01*
X112084801Y-62200500D01*
X112665199Y-62200500D01*
X112668348Y-62200500D01*
X112770275Y-62190087D01*
X112935425Y-62135362D01*
X113083503Y-62044026D01*
X113206526Y-61921003D01*
X113297862Y-61772925D01*
X113352587Y-61607775D01*
X113363000Y-61505848D01*
X113363000Y-60494152D01*
X113360710Y-60471732D01*
X113352587Y-60392224D01*
X113307202Y-60255262D01*
X113297862Y-60227075D01*
X113206526Y-60078997D01*
X113206525Y-60078996D01*
X113206524Y-60078994D01*
X113083505Y-59955975D01*
X113008903Y-59909960D01*
X112935425Y-59864638D01*
X112935424Y-59864637D01*
X112935423Y-59864637D01*
X112770275Y-59809912D01*
X112671480Y-59799819D01*
X112671461Y-59799818D01*
X112668348Y-59799500D01*
X112081652Y-59799500D01*
X112078539Y-59799817D01*
X112078519Y-59799819D01*
X111979724Y-59809912D01*
X111814576Y-59864637D01*
X111666494Y-59955975D01*
X111543470Y-60078999D01*
X111543033Y-60079709D01*
X111540331Y-60082138D01*
X111533225Y-60089245D01*
X111532848Y-60088868D01*
X111491082Y-60126430D01*
X111422119Y-60137647D01*
X111358039Y-60109800D01*
X111331960Y-60079701D01*
X111331527Y-60078999D01*
X111331526Y-60078997D01*
X111286817Y-60034287D01*
X111253333Y-59972963D01*
X111250500Y-59946607D01*
X111250500Y-59322841D01*
X111270185Y-59255802D01*
X111286820Y-59235159D01*
X111331524Y-59190455D01*
X111331526Y-59190453D01*
X111331960Y-59189748D01*
X111334654Y-59187325D01*
X111341776Y-59180204D01*
X111342152Y-59180580D01*
X111383907Y-59143024D01*
X111452869Y-59131800D01*
X111516952Y-59159642D01*
X111543040Y-59189749D01*
X111543476Y-59190456D01*
X111666494Y-59313474D01*
X111666496Y-59313475D01*
X111666497Y-59313476D01*
X111814575Y-59404812D01*
X111884821Y-59428089D01*
X111979724Y-59459537D01*
X112078519Y-59469630D01*
X112078520Y-59469630D01*
X112081652Y-59469950D01*
X112084801Y-59469950D01*
X112665199Y-59469950D01*
X112668348Y-59469950D01*
X112770275Y-59459537D01*
X112935425Y-59404812D01*
X113083503Y-59313476D01*
X113206526Y-59190453D01*
X113297862Y-59042375D01*
X113352587Y-58877225D01*
X113363000Y-58775298D01*
X113363000Y-57763602D01*
X113360733Y-57741410D01*
X113352587Y-57661674D01*
X113320428Y-57564625D01*
X113297862Y-57496525D01*
X113206526Y-57348447D01*
X113206525Y-57348446D01*
X113206524Y-57348444D01*
X113083505Y-57225425D01*
X112973955Y-57157854D01*
X112935425Y-57134088D01*
X112935424Y-57134087D01*
X112935423Y-57134087D01*
X112770275Y-57079362D01*
X112671480Y-57069269D01*
X112671461Y-57069268D01*
X112668348Y-57068950D01*
X112081652Y-57068950D01*
X112078539Y-57069267D01*
X112078519Y-57069269D01*
X111979724Y-57079362D01*
X111814576Y-57134087D01*
X111666494Y-57225425D01*
X111543474Y-57348445D01*
X111543038Y-57349153D01*
X111540343Y-57351576D01*
X111533225Y-57358695D01*
X111532848Y-57358318D01*
X111491089Y-57395877D01*
X111422127Y-57407098D01*
X111358045Y-57379254D01*
X111331962Y-57349153D01*
X111331525Y-57348445D01*
X111286819Y-57303739D01*
X111253334Y-57242416D01*
X111250500Y-57216058D01*
X111250500Y-56592291D01*
X111270185Y-56525252D01*
X111286820Y-56504609D01*
X111300954Y-56490475D01*
X111331526Y-56459903D01*
X111331958Y-56459201D01*
X111334642Y-56456787D01*
X111341776Y-56449654D01*
X111342153Y-56450031D01*
X111383900Y-56412477D01*
X111452861Y-56401249D01*
X111516946Y-56429088D01*
X111543035Y-56459194D01*
X111543471Y-56459901D01*
X111666494Y-56582924D01*
X111666496Y-56582925D01*
X111666497Y-56582926D01*
X111814575Y-56674262D01*
X111897150Y-56701624D01*
X111979724Y-56728987D01*
X112078519Y-56739080D01*
X112078520Y-56739080D01*
X112081652Y-56739400D01*
X112084801Y-56739400D01*
X112665199Y-56739400D01*
X112668348Y-56739400D01*
X112770275Y-56728987D01*
X112935425Y-56674262D01*
X113083503Y-56582926D01*
X113206526Y-56459903D01*
X113297862Y-56311825D01*
X113352587Y-56146675D01*
X113363000Y-56044748D01*
X113363000Y-55933344D01*
X113382683Y-55866308D01*
X113435487Y-55820553D01*
X113504645Y-55810609D01*
X113568201Y-55839633D01*
X113574680Y-55845666D01*
X113838181Y-56109167D01*
X113871666Y-56170490D01*
X113874500Y-56196848D01*
X113874499Y-60303652D01*
X113872235Y-60324159D01*
X113874439Y-60394268D01*
X113874500Y-60398163D01*
X113874500Y-60425746D01*
X113874988Y-60429615D01*
X113874989Y-60429621D01*
X113875004Y-60429739D01*
X113875918Y-60441363D01*
X113877290Y-60485022D01*
X113882879Y-60504256D01*
X113886825Y-60523312D01*
X113889335Y-60543188D01*
X113905414Y-60583800D01*
X113909197Y-60594847D01*
X113921382Y-60636787D01*
X113931580Y-60654031D01*
X113940136Y-60671496D01*
X113947514Y-60690128D01*
X113947515Y-60690129D01*
X113973180Y-60725455D01*
X113979593Y-60735218D01*
X114001826Y-60772812D01*
X114001829Y-60772815D01*
X114001830Y-60772816D01*
X114015995Y-60786981D01*
X114028627Y-60801771D01*
X114040406Y-60817983D01*
X114074058Y-60845822D01*
X114082699Y-60853685D01*
X116025301Y-62796287D01*
X116038202Y-62812389D01*
X116040316Y-62814374D01*
X116040318Y-62814377D01*
X116085682Y-62856977D01*
X116089344Y-62860416D01*
X116092140Y-62863126D01*
X116111634Y-62882620D01*
X116114719Y-62885013D01*
X116114805Y-62885080D01*
X116123677Y-62892658D01*
X116155522Y-62922562D01*
X116173078Y-62932214D01*
X116189335Y-62942892D01*
X116205168Y-62955174D01*
X116210835Y-62957626D01*
X116245260Y-62972523D01*
X116255747Y-62977660D01*
X116294012Y-62998697D01*
X116294013Y-62998697D01*
X116295057Y-62999271D01*
X116344321Y-63048818D01*
X116358258Y-63091747D01*
X116365694Y-63148228D01*
X116365694Y-63180599D01*
X116354911Y-63262499D01*
X116356801Y-63264654D01*
X116416502Y-63282185D01*
X116447839Y-63311014D01*
X116487740Y-63363014D01*
X116512934Y-63428183D01*
X116498896Y-63496628D01*
X116450082Y-63546617D01*
X116389364Y-63562500D01*
X116354912Y-63562500D01*
X116364800Y-63637605D01*
X116422736Y-63777478D01*
X116514905Y-63897594D01*
X116635021Y-63989763D01*
X116774894Y-64047699D01*
X116883291Y-64061970D01*
X116891363Y-64062500D01*
X117437500Y-64062500D01*
X117437500Y-63687000D01*
X117457185Y-63619961D01*
X117509989Y-63574206D01*
X117561500Y-63563000D01*
X117613500Y-63563000D01*
X117680539Y-63582685D01*
X117726294Y-63635489D01*
X117737500Y-63687000D01*
X117737500Y-64062500D01*
X118225500Y-64062500D01*
X118292539Y-64082185D01*
X118338294Y-64134989D01*
X118349500Y-64186500D01*
X118349500Y-65525220D01*
X118364313Y-65637736D01*
X118378634Y-65672310D01*
X118421753Y-65776409D01*
X118422302Y-65777733D01*
X118514549Y-65897951D01*
X118634767Y-65990198D01*
X118774764Y-66048187D01*
X118887280Y-66063000D01*
X118891333Y-66063000D01*
X119108667Y-66063000D01*
X119112720Y-66063000D01*
X119225236Y-66048187D01*
X119225238Y-66048185D01*
X119233814Y-66047057D01*
X119266227Y-66047062D01*
X119266727Y-66047128D01*
X119330614Y-66075417D01*
X119369065Y-66133754D01*
X119374500Y-66170062D01*
X119374500Y-67075500D01*
X119354815Y-67142539D01*
X119302011Y-67188294D01*
X119250500Y-67199500D01*
X117755439Y-67199500D01*
X117755420Y-67199500D01*
X117752128Y-67199501D01*
X117748848Y-67199853D01*
X117748840Y-67199854D01*
X117692515Y-67205909D01*
X117557669Y-67256204D01*
X117442454Y-67342454D01*
X117356204Y-67457668D01*
X117306670Y-67590477D01*
X117305909Y-67592517D01*
X117299500Y-67652127D01*
X117299500Y-67655448D01*
X117299500Y-67655449D01*
X117299500Y-70144560D01*
X117299500Y-70144578D01*
X117299501Y-70147872D01*
X117299853Y-70151152D01*
X117299854Y-70151159D01*
X117305909Y-70207483D01*
X117356204Y-70342331D01*
X117442454Y-70457546D01*
X117449811Y-70463053D01*
X117491681Y-70518986D01*
X117499500Y-70562320D01*
X117499500Y-71112768D01*
X117479815Y-71179807D01*
X117463183Y-71200447D01*
X117432289Y-71231342D01*
X117340186Y-71380665D01*
X117285000Y-71547202D01*
X117274819Y-71646858D01*
X117274817Y-71646878D01*
X117274500Y-71649991D01*
X117274500Y-71653138D01*
X117274500Y-71653139D01*
X117274500Y-72246858D01*
X117274500Y-72246877D01*
X117274501Y-72250008D01*
X117274820Y-72253140D01*
X117274821Y-72253141D01*
X117285000Y-72352796D01*
X117340186Y-72519334D01*
X117432288Y-72668657D01*
X117556344Y-72792713D01*
X117559181Y-72794463D01*
X117605905Y-72846412D01*
X117617125Y-72915374D01*
X117589280Y-72979456D01*
X117559181Y-73005537D01*
X117556344Y-73007286D01*
X117432288Y-73131342D01*
X117340186Y-73280665D01*
X117285000Y-73447202D01*
X117274819Y-73546858D01*
X117274817Y-73546878D01*
X117274500Y-73549991D01*
X117274500Y-73553138D01*
X117274500Y-73553139D01*
X117274500Y-74146858D01*
X117274500Y-74146877D01*
X117274501Y-74150008D01*
X117274820Y-74153140D01*
X117274821Y-74153141D01*
X117285000Y-74252796D01*
X117340186Y-74419334D01*
X117432288Y-74568657D01*
X117556342Y-74692711D01*
X117580293Y-74707484D01*
X117705666Y-74784814D01*
X117813133Y-74820425D01*
X117872202Y-74839999D01*
X117971858Y-74850180D01*
X117971859Y-74850180D01*
X117974991Y-74850500D01*
X118383816Y-74850499D01*
X118383826Y-74850500D01*
X118398259Y-74850500D01*
X122563015Y-74850500D01*
X122563025Y-74850499D01*
X123021859Y-74850499D01*
X123025008Y-74850499D01*
X123127797Y-74839999D01*
X123294334Y-74784814D01*
X123443656Y-74692712D01*
X123567712Y-74568656D01*
X123659814Y-74419334D01*
X123714999Y-74252797D01*
X123725500Y-74150009D01*
X123725499Y-73549992D01*
X123714999Y-73447203D01*
X123659814Y-73280666D01*
X123567712Y-73131344D01*
X123567711Y-73131342D01*
X123443657Y-73007288D01*
X123440821Y-73005539D01*
X123394096Y-72953592D01*
X123382873Y-72884629D01*
X123410716Y-72820547D01*
X123440821Y-72794461D01*
X123443654Y-72792713D01*
X123443656Y-72792712D01*
X123567712Y-72668656D01*
X123659814Y-72519334D01*
X123714999Y-72352797D01*
X123725500Y-72250009D01*
X123725499Y-71649992D01*
X123714999Y-71547203D01*
X123659814Y-71380666D01*
X123567712Y-71231344D01*
X123561286Y-71224918D01*
X123536817Y-71200447D01*
X123503333Y-71139123D01*
X123500500Y-71112768D01*
X123500500Y-70562320D01*
X123520185Y-70495281D01*
X123550188Y-70463054D01*
X123557546Y-70457546D01*
X123643796Y-70342331D01*
X123694091Y-70207483D01*
X123700500Y-70147873D01*
X123700499Y-68884451D01*
X123720184Y-68817413D01*
X123772987Y-68771658D01*
X123842146Y-68761714D01*
X123905702Y-68790739D01*
X123912180Y-68796771D01*
X124213180Y-69097771D01*
X124246665Y-69159094D01*
X124249499Y-69185452D01*
X124249500Y-75375500D01*
X124229815Y-75442539D01*
X124177011Y-75488294D01*
X124125500Y-75499500D01*
X117705439Y-75499500D01*
X117705420Y-75499500D01*
X117702128Y-75499501D01*
X117698848Y-75499853D01*
X117698840Y-75499854D01*
X117642515Y-75505909D01*
X117507669Y-75556204D01*
X117392454Y-75642454D01*
X117306204Y-75757668D01*
X117255910Y-75892515D01*
X117255909Y-75892517D01*
X117249500Y-75952127D01*
X117249500Y-75955448D01*
X117249500Y-75955449D01*
X117249500Y-77044560D01*
X117249500Y-77044578D01*
X117249501Y-77047872D01*
X117255909Y-77107483D01*
X117306204Y-77242331D01*
X117392454Y-77357546D01*
X117507669Y-77443796D01*
X117642517Y-77494091D01*
X117702127Y-77500500D01*
X119003134Y-77500499D01*
X119003140Y-77500500D01*
X119459761Y-77500500D01*
X119499183Y-77512075D01*
X119518845Y-77502359D01*
X119540239Y-77500500D01*
X124938015Y-77500500D01*
X124938025Y-77500499D01*
X126294561Y-77500499D01*
X126297872Y-77500499D01*
X126357483Y-77494091D01*
X126492331Y-77443796D01*
X126607546Y-77357546D01*
X126693796Y-77242331D01*
X126744091Y-77107483D01*
X126750500Y-77047873D01*
X126750499Y-75952128D01*
X126744091Y-75892517D01*
X126693796Y-75757669D01*
X126607546Y-75642454D01*
X126492331Y-75556204D01*
X126357483Y-75505909D01*
X126297873Y-75499500D01*
X126294551Y-75499500D01*
X125624500Y-75499500D01*
X125557461Y-75479815D01*
X125511706Y-75427011D01*
X125500500Y-75375500D01*
X125500500Y-74266005D01*
X125520185Y-74198966D01*
X125572989Y-74153211D01*
X125610617Y-74142785D01*
X125668059Y-74136313D01*
X125827690Y-74080456D01*
X125970890Y-73990477D01*
X126062818Y-73898548D01*
X126124142Y-73865063D01*
X126193834Y-73870047D01*
X126249767Y-73911919D01*
X126274184Y-73977383D01*
X126274500Y-73986229D01*
X126274500Y-74217255D01*
X126272235Y-74237766D01*
X126274438Y-74307874D01*
X126274499Y-74311763D01*
X126274499Y-74335461D01*
X126274499Y-74335474D01*
X126274500Y-74339350D01*
X126274986Y-74343202D01*
X126274987Y-74343211D01*
X126275004Y-74343343D01*
X126275918Y-74354967D01*
X126277290Y-74398626D01*
X126282879Y-74417860D01*
X126286825Y-74436916D01*
X126289335Y-74456792D01*
X126305414Y-74497404D01*
X126309197Y-74508451D01*
X126321382Y-74550391D01*
X126331580Y-74567635D01*
X126340136Y-74585100D01*
X126347514Y-74603732D01*
X126347515Y-74603733D01*
X126373180Y-74639059D01*
X126379593Y-74648822D01*
X126401826Y-74686416D01*
X126401829Y-74686419D01*
X126401830Y-74686420D01*
X126415995Y-74700585D01*
X126428627Y-74715375D01*
X126440406Y-74731587D01*
X126474058Y-74759426D01*
X126482699Y-74767289D01*
X130424197Y-78708787D01*
X130437098Y-78724889D01*
X130439212Y-78726874D01*
X130439214Y-78726877D01*
X130486561Y-78771339D01*
X130488240Y-78772916D01*
X130491036Y-78775626D01*
X130510530Y-78795120D01*
X130513615Y-78797513D01*
X130513701Y-78797580D01*
X130522573Y-78805158D01*
X130554418Y-78835062D01*
X130571974Y-78844714D01*
X130588231Y-78855392D01*
X130604064Y-78867674D01*
X130620185Y-78874649D01*
X130644156Y-78885023D01*
X130654643Y-78890160D01*
X130692908Y-78911197D01*
X130712316Y-78916180D01*
X130730710Y-78922478D01*
X130749105Y-78930438D01*
X130792254Y-78937271D01*
X130803680Y-78939638D01*
X130819222Y-78943629D01*
X130845980Y-78950500D01*
X130845981Y-78950500D01*
X130866016Y-78950500D01*
X130885413Y-78952026D01*
X130905196Y-78955160D01*
X130948674Y-78951050D01*
X130960344Y-78950500D01*
X131549124Y-78950500D01*
X131615095Y-78969505D01*
X131672310Y-79005456D01*
X131831941Y-79061313D01*
X132000000Y-79080249D01*
X132168059Y-79061313D01*
X132327690Y-79005456D01*
X132470890Y-78915477D01*
X132590477Y-78795890D01*
X132680456Y-78652690D01*
X132736313Y-78493059D01*
X132755249Y-78325000D01*
X132736313Y-78156941D01*
X132680456Y-77997310D01*
X132590477Y-77854110D01*
X132470890Y-77734523D01*
X132462885Y-77729493D01*
X132416594Y-77677160D01*
X132405945Y-77608106D01*
X132434320Y-77544258D01*
X132492710Y-77505886D01*
X132528857Y-77500500D01*
X135952127Y-77500500D01*
X136532557Y-77500500D01*
X136589968Y-77514591D01*
X136626951Y-77533909D01*
X136642431Y-77538338D01*
X136660092Y-77544877D01*
X136674732Y-77551605D01*
X136717239Y-77561469D01*
X136778093Y-77595799D01*
X136810727Y-77657579D01*
X136804779Y-77727195D01*
X136762139Y-77782544D01*
X136730166Y-77799299D01*
X136672310Y-77819544D01*
X136672308Y-77819544D01*
X136672308Y-77819545D01*
X136529108Y-77909524D01*
X136409524Y-78029108D01*
X136319544Y-78172310D01*
X136263686Y-78331943D01*
X136244750Y-78500000D01*
X136263686Y-78668056D01*
X136263686Y-78668058D01*
X136263687Y-78668059D01*
X136319544Y-78827690D01*
X136409523Y-78970890D01*
X136529110Y-79090477D01*
X136672310Y-79180456D01*
X136831941Y-79236313D01*
X136873550Y-79241001D01*
X136973645Y-79252280D01*
X136996779Y-79262001D01*
X137005304Y-79256523D01*
X137026355Y-79252280D01*
X137113635Y-79242445D01*
X137168059Y-79236313D01*
X137327690Y-79180456D01*
X137470890Y-79090477D01*
X137590477Y-78970890D01*
X137680456Y-78827690D01*
X137736313Y-78668059D01*
X137755249Y-78500000D01*
X137736313Y-78331941D01*
X137680456Y-78172310D01*
X137590477Y-78029110D01*
X137470890Y-77909523D01*
X137327690Y-77819544D01*
X137275825Y-77801395D01*
X137219051Y-77760675D01*
X137193303Y-77695723D01*
X137206759Y-77627161D01*
X137255146Y-77576758D01*
X137270783Y-77569202D01*
X137276649Y-77566858D01*
X137276653Y-77566858D01*
X137344693Y-77539678D01*
X137350543Y-77537512D01*
X137419872Y-77513816D01*
X137419871Y-77513816D01*
X137431806Y-77509737D01*
X137432706Y-77512372D01*
X137476282Y-77500499D01*
X138794561Y-77500499D01*
X138797872Y-77500499D01*
X138857483Y-77494091D01*
X138992331Y-77443796D01*
X139107546Y-77357546D01*
X139193796Y-77242331D01*
X139244091Y-77107483D01*
X139250500Y-77047873D01*
X139250499Y-75952128D01*
X139244091Y-75892517D01*
X139193796Y-75757669D01*
X139107546Y-75642454D01*
X138992331Y-75556204D01*
X138857483Y-75505909D01*
X138797873Y-75499500D01*
X138794551Y-75499500D01*
X137114238Y-75499500D01*
X137111096Y-75499460D01*
X137023641Y-75497243D01*
X137023380Y-75497289D01*
X137021891Y-75497556D01*
X137000024Y-75499500D01*
X136942758Y-75499500D01*
X136933344Y-75499142D01*
X136924198Y-75498445D01*
X136874524Y-75494663D01*
X136874523Y-75494663D01*
X136874522Y-75494663D01*
X136844349Y-75498506D01*
X136828683Y-75499500D01*
X130205439Y-75499500D01*
X130205420Y-75499500D01*
X130202128Y-75499501D01*
X130198848Y-75499853D01*
X130198840Y-75499854D01*
X130142515Y-75505909D01*
X130007669Y-75556204D01*
X129892454Y-75642454D01*
X129806204Y-75757668D01*
X129755910Y-75892515D01*
X129755909Y-75892517D01*
X129749500Y-75952127D01*
X129749500Y-75955449D01*
X129749500Y-75965547D01*
X129729815Y-76032586D01*
X129677011Y-76078341D01*
X129607853Y-76088285D01*
X129544297Y-76059260D01*
X129537819Y-76053228D01*
X127980269Y-74495678D01*
X131868498Y-74495678D01*
X131868499Y-74498972D01*
X131868851Y-74502252D01*
X131868852Y-74502259D01*
X131874907Y-74558584D01*
X131891746Y-74603732D01*
X131925202Y-74693431D01*
X132011452Y-74808646D01*
X132126667Y-74894896D01*
X132261515Y-74945191D01*
X132321125Y-74951600D01*
X133178870Y-74951599D01*
X133238481Y-74945191D01*
X133373329Y-74894896D01*
X133488544Y-74808646D01*
X133574794Y-74693431D01*
X133625089Y-74558583D01*
X133631498Y-74498973D01*
X133631498Y-74495678D01*
X135368502Y-74495678D01*
X135368503Y-74498972D01*
X135368855Y-74502252D01*
X135368856Y-74502259D01*
X135374911Y-74558584D01*
X135391750Y-74603732D01*
X135425206Y-74693431D01*
X135511456Y-74808646D01*
X135626671Y-74894896D01*
X135761519Y-74945191D01*
X135821129Y-74951600D01*
X136678874Y-74951599D01*
X136738485Y-74945191D01*
X136873333Y-74894896D01*
X136988548Y-74808646D01*
X137074798Y-74693431D01*
X137125093Y-74558583D01*
X137131502Y-74498973D01*
X137131501Y-74441323D01*
X137150509Y-74375349D01*
X137180455Y-74327692D01*
X137186711Y-74309814D01*
X137236313Y-74168059D01*
X137255249Y-74000000D01*
X137236313Y-73831941D01*
X137180456Y-73672310D01*
X137168251Y-73652886D01*
X137150507Y-73624645D01*
X137131501Y-73558674D01*
X137131501Y-73288939D01*
X137131501Y-73285628D01*
X137125093Y-73226017D01*
X137074798Y-73091169D01*
X136988548Y-72975954D01*
X136873333Y-72889704D01*
X136738485Y-72839409D01*
X136678875Y-72833000D01*
X136675552Y-72833000D01*
X135824441Y-72833000D01*
X135824422Y-72833000D01*
X135821130Y-72833001D01*
X135817850Y-72833353D01*
X135817842Y-72833354D01*
X135761517Y-72839409D01*
X135626671Y-72889704D01*
X135511456Y-72975954D01*
X135425206Y-73091168D01*
X135374912Y-73226015D01*
X135374911Y-73226017D01*
X135368502Y-73285627D01*
X135368502Y-73288948D01*
X135368502Y-73288949D01*
X135368502Y-74495660D01*
X135368502Y-74495678D01*
X133631498Y-74495678D01*
X133631497Y-73285628D01*
X133625089Y-73226017D01*
X133574794Y-73091169D01*
X133488544Y-72975954D01*
X133373329Y-72889704D01*
X133238481Y-72839409D01*
X133178871Y-72833000D01*
X133175548Y-72833000D01*
X132324437Y-72833000D01*
X132324418Y-72833000D01*
X132321126Y-72833001D01*
X132317846Y-72833353D01*
X132317838Y-72833354D01*
X132261513Y-72839409D01*
X132126667Y-72889704D01*
X132011452Y-72975954D01*
X131925202Y-73091168D01*
X131874908Y-73226015D01*
X131874907Y-73226017D01*
X131868498Y-73285627D01*
X131868498Y-73288948D01*
X131868498Y-73288949D01*
X131868498Y-74495660D01*
X131868498Y-74495678D01*
X127980269Y-74495678D01*
X127561819Y-74077228D01*
X127528334Y-74015905D01*
X127525500Y-73989547D01*
X127525500Y-70444038D01*
X127529396Y-70413198D01*
X127538000Y-70379692D01*
X127538000Y-70359655D01*
X127539527Y-70340257D01*
X127541864Y-70325500D01*
X127542660Y-70320477D01*
X127538550Y-70276997D01*
X127538000Y-70265328D01*
X127538000Y-69721952D01*
X127557685Y-69654913D01*
X127610489Y-69609158D01*
X127679647Y-69599214D01*
X127743203Y-69628239D01*
X127749681Y-69634271D01*
X128507604Y-70392194D01*
X128522481Y-70410176D01*
X128527076Y-70416938D01*
X128568703Y-70453637D01*
X128574364Y-70458954D01*
X128585530Y-70470120D01*
X128596259Y-70478442D01*
X128598009Y-70479800D01*
X128604007Y-70484763D01*
X128645621Y-70521450D01*
X128652896Y-70525157D01*
X128672602Y-70537662D01*
X128679062Y-70542673D01*
X128679063Y-70542673D01*
X128679064Y-70542674D01*
X128729543Y-70564518D01*
X128729982Y-70564708D01*
X128737027Y-70568023D01*
X128786435Y-70593198D01*
X128794419Y-70594982D01*
X128816596Y-70602188D01*
X128824105Y-70605438D01*
X128878925Y-70614120D01*
X128886518Y-70615568D01*
X128940667Y-70627673D01*
X128948836Y-70627416D01*
X128972126Y-70628881D01*
X128980196Y-70630160D01*
X129035431Y-70624937D01*
X129043178Y-70624450D01*
X129098627Y-70622709D01*
X129106473Y-70620428D01*
X129129405Y-70616054D01*
X129137533Y-70615287D01*
X129189751Y-70596486D01*
X129197118Y-70594094D01*
X129250390Y-70578618D01*
X129257417Y-70574461D01*
X129278544Y-70564519D01*
X129286229Y-70561754D01*
X129332122Y-70530563D01*
X129338675Y-70526405D01*
X129386420Y-70498170D01*
X129386419Y-70498170D01*
X129394711Y-70493267D01*
X129457830Y-70476000D01*
X131139628Y-70476000D01*
X131206667Y-70495685D01*
X131252422Y-70548489D01*
X131262848Y-70586116D01*
X131263686Y-70593556D01*
X131263686Y-70593558D01*
X131263687Y-70593559D01*
X131319544Y-70753190D01*
X131409523Y-70896390D01*
X131529110Y-71015977D01*
X131672310Y-71105956D01*
X131831941Y-71161813D01*
X132000000Y-71180749D01*
X132168059Y-71161813D01*
X132327690Y-71105956D01*
X132470890Y-71015977D01*
X132590477Y-70896390D01*
X132680456Y-70753190D01*
X132736313Y-70593559D01*
X132737152Y-70586116D01*
X132764219Y-70521702D01*
X132821814Y-70482147D01*
X132860372Y-70476000D01*
X133494501Y-70476000D01*
X133561540Y-70495685D01*
X133607295Y-70548489D01*
X133618501Y-70600000D01*
X133618501Y-70714372D01*
X133618853Y-70717652D01*
X133618854Y-70717659D01*
X133624909Y-70773984D01*
X133637179Y-70806880D01*
X133675204Y-70908831D01*
X133761454Y-71024046D01*
X133876669Y-71110296D01*
X134011517Y-71160591D01*
X134071127Y-71167000D01*
X134928872Y-71166999D01*
X134988483Y-71160591D01*
X135123331Y-71110296D01*
X135238546Y-71024046D01*
X135324796Y-70908831D01*
X135375091Y-70773983D01*
X135381500Y-70714373D01*
X135381499Y-69501028D01*
X135375091Y-69441417D01*
X135324796Y-69306569D01*
X135238546Y-69191354D01*
X135123331Y-69105104D01*
X134988483Y-69054809D01*
X134928873Y-69048400D01*
X134925550Y-69048400D01*
X134074439Y-69048400D01*
X134074420Y-69048400D01*
X134071128Y-69048401D01*
X134067848Y-69048753D01*
X134067840Y-69048754D01*
X134011515Y-69054809D01*
X133896330Y-69097771D01*
X133876669Y-69105104D01*
X133765971Y-69187973D01*
X133749548Y-69200267D01*
X133684083Y-69224684D01*
X133675237Y-69225000D01*
X129232244Y-69225000D01*
X129211736Y-69222735D01*
X129164139Y-69224231D01*
X129096514Y-69206661D01*
X129072564Y-69187973D01*
X128982362Y-69097771D01*
X128826170Y-68941580D01*
X128792686Y-68880258D01*
X128797670Y-68810567D01*
X128839541Y-68754633D01*
X128905006Y-68730216D01*
X128913852Y-68729900D01*
X128946211Y-68729900D01*
X128949522Y-68729900D01*
X129009133Y-68723492D01*
X129143981Y-68673197D01*
X129241447Y-68600233D01*
X129306910Y-68575817D01*
X129315757Y-68575501D01*
X129511153Y-68575501D01*
X129577124Y-68594506D01*
X129626951Y-68625815D01*
X129786582Y-68681672D01*
X129954641Y-68700608D01*
X130122700Y-68681672D01*
X130230521Y-68643943D01*
X130300299Y-68640382D01*
X130345783Y-68661716D01*
X130361119Y-68673197D01*
X130495967Y-68723492D01*
X130555577Y-68729901D01*
X131654622Y-68729900D01*
X131714233Y-68723492D01*
X131849081Y-68673197D01*
X131964296Y-68586947D01*
X132050546Y-68471732D01*
X132100841Y-68336884D01*
X132107250Y-68277274D01*
X132107249Y-67622729D01*
X132103006Y-67583259D01*
X132115413Y-67514501D01*
X132163023Y-67463365D01*
X132212413Y-67446787D01*
X132213937Y-67446615D01*
X132290931Y-67437940D01*
X132450562Y-67382083D01*
X132593762Y-67292104D01*
X132713349Y-67172517D01*
X132803328Y-67029317D01*
X132813587Y-66999999D01*
X135744750Y-66999999D01*
X135763686Y-67168056D01*
X135763686Y-67168058D01*
X135763687Y-67168059D01*
X135819544Y-67327690D01*
X135909523Y-67470890D01*
X136029110Y-67590477D01*
X136172310Y-67680456D01*
X136331941Y-67736313D01*
X136352230Y-67738599D01*
X136355016Y-67738913D01*
X136419431Y-67765979D01*
X136458986Y-67823573D01*
X136464354Y-67876017D01*
X136444750Y-68049999D01*
X136463686Y-68218056D01*
X136463686Y-68218058D01*
X136463687Y-68218059D01*
X136519544Y-68377690D01*
X136609523Y-68520890D01*
X136729110Y-68640477D01*
X136872310Y-68730456D01*
X137031941Y-68786313D01*
X137124757Y-68796771D01*
X137199999Y-68805249D01*
X137199999Y-68805248D01*
X137200000Y-68805249D01*
X137368059Y-68786313D01*
X137480412Y-68746998D01*
X137550191Y-68743437D01*
X137610818Y-68778165D01*
X137643046Y-68840159D01*
X137636641Y-68909734D01*
X137631163Y-68921666D01*
X137559990Y-69057273D01*
X137520500Y-69217494D01*
X137520500Y-69382505D01*
X137559990Y-69542725D01*
X137627257Y-69670891D01*
X137636675Y-69688835D01*
X137719234Y-69782025D01*
X137746100Y-69812350D01*
X137881900Y-69906087D01*
X137940413Y-69928277D01*
X138036191Y-69964601D01*
X138158895Y-69979500D01*
X138162644Y-69979500D01*
X138237356Y-69979500D01*
X138241105Y-69979500D01*
X138363809Y-69964601D01*
X138518099Y-69906087D01*
X138653901Y-69812349D01*
X138763325Y-69688835D01*
X138840010Y-69542724D01*
X138879500Y-69382506D01*
X138879500Y-69217494D01*
X138840010Y-69057276D01*
X138763325Y-68911165D01*
X138653901Y-68787651D01*
X138653900Y-68787650D01*
X138653899Y-68787649D01*
X138518099Y-68693912D01*
X138363809Y-68635399D01*
X138244825Y-68620951D01*
X138244813Y-68620950D01*
X138241105Y-68620500D01*
X138158895Y-68620500D01*
X138155187Y-68620950D01*
X138155174Y-68620951D01*
X138036188Y-68635399D01*
X137964776Y-68662482D01*
X137895113Y-68667849D01*
X137833607Y-68634701D01*
X137799786Y-68573562D01*
X137804388Y-68503844D01*
X137815810Y-68480572D01*
X137880456Y-68377690D01*
X137936313Y-68218059D01*
X137955249Y-68050000D01*
X137936313Y-67881941D01*
X137880456Y-67722310D01*
X137790477Y-67579110D01*
X137670890Y-67459523D01*
X137527690Y-67369544D01*
X137368059Y-67313687D01*
X137368058Y-67313686D01*
X137368056Y-67313686D01*
X137344980Y-67311086D01*
X137280566Y-67284018D01*
X137241012Y-67226423D01*
X137235645Y-67173981D01*
X137236311Y-67168062D01*
X137236313Y-67168059D01*
X137255249Y-67000000D01*
X137241579Y-66878684D01*
X137253634Y-66809862D01*
X137300983Y-66758483D01*
X137368593Y-66740858D01*
X137378684Y-66741580D01*
X137500000Y-66755249D01*
X137668059Y-66736313D01*
X137827690Y-66680456D01*
X137970890Y-66590477D01*
X138090477Y-66470890D01*
X138180456Y-66327690D01*
X138236313Y-66168059D01*
X138246751Y-66075417D01*
X138248529Y-66059642D01*
X138275596Y-65995228D01*
X138333190Y-65955673D01*
X138385632Y-65950306D01*
X138429500Y-65955249D01*
X138429500Y-65955248D01*
X138429501Y-65955249D01*
X138473370Y-65950306D01*
X138597559Y-65936313D01*
X138757190Y-65880456D01*
X138900390Y-65790477D01*
X139019977Y-65670890D01*
X139109956Y-65527690D01*
X139165813Y-65368059D01*
X139184749Y-65200000D01*
X139177121Y-65132302D01*
X139189175Y-65063481D01*
X139234368Y-65013424D01*
X139270890Y-64990477D01*
X139390477Y-64870890D01*
X139480456Y-64727690D01*
X139536313Y-64568059D01*
X139555249Y-64400000D01*
X139536313Y-64231941D01*
X139480456Y-64072310D01*
X139476471Y-64065969D01*
X139457473Y-63998733D01*
X139476475Y-63934024D01*
X139480456Y-63927690D01*
X139536313Y-63768059D01*
X139555249Y-63600000D01*
X139536313Y-63431941D01*
X139480456Y-63272310D01*
X139476471Y-63265969D01*
X139457473Y-63198733D01*
X139476475Y-63134024D01*
X139480456Y-63127690D01*
X139536313Y-62968059D01*
X139555249Y-62800000D01*
X139536313Y-62631941D01*
X139480456Y-62472310D01*
X139476471Y-62465969D01*
X139457473Y-62398733D01*
X139476475Y-62334024D01*
X139480456Y-62327690D01*
X139536313Y-62168059D01*
X139555249Y-62000000D01*
X139536313Y-61831941D01*
X139480456Y-61672310D01*
X139390477Y-61529110D01*
X139270890Y-61409523D01*
X139127690Y-61319544D01*
X138968059Y-61263687D01*
X138968058Y-61263686D01*
X138968056Y-61263686D01*
X138800000Y-61244750D01*
X138631943Y-61263686D01*
X138472310Y-61319544D01*
X138329108Y-61409524D01*
X138209524Y-61529108D01*
X138119544Y-61672310D01*
X138063686Y-61831943D01*
X138044750Y-61999999D01*
X138063686Y-62168056D01*
X138119544Y-62327691D01*
X138123528Y-62334031D01*
X138142526Y-62401268D01*
X138123529Y-62465966D01*
X138119547Y-62472303D01*
X138119545Y-62472308D01*
X138119544Y-62472310D01*
X138063687Y-62631941D01*
X138063686Y-62631945D01*
X138044750Y-62800000D01*
X138063686Y-62968056D01*
X138119544Y-63127691D01*
X138123528Y-63134031D01*
X138142526Y-63201268D01*
X138123529Y-63265966D01*
X138119547Y-63272303D01*
X138119545Y-63272308D01*
X138119544Y-63272310D01*
X138065002Y-63428183D01*
X138063686Y-63431945D01*
X138044750Y-63599999D01*
X138063686Y-63768056D01*
X138119544Y-63927691D01*
X138123528Y-63934031D01*
X138142526Y-64001268D01*
X138123529Y-64065966D01*
X138119547Y-64072303D01*
X138119545Y-64072308D01*
X138119544Y-64072310D01*
X138072006Y-64208167D01*
X138063686Y-64231945D01*
X138044750Y-64400000D01*
X138052378Y-64467697D01*
X138040324Y-64536519D01*
X137995133Y-64586573D01*
X137958609Y-64609523D01*
X137839024Y-64729108D01*
X137749044Y-64872310D01*
X137693186Y-65031943D01*
X137680970Y-65140358D01*
X137653903Y-65204771D01*
X137596307Y-65244326D01*
X137543866Y-65249693D01*
X137500000Y-65244750D01*
X137331943Y-65263686D01*
X137172310Y-65319544D01*
X137029108Y-65409524D01*
X136909524Y-65529108D01*
X136819544Y-65672310D01*
X136763686Y-65831943D01*
X136744750Y-66000000D01*
X136758419Y-66121316D01*
X136746364Y-66190138D01*
X136699015Y-66241517D01*
X136631405Y-66259141D01*
X136621316Y-66258419D01*
X136500000Y-66244750D01*
X136331943Y-66263686D01*
X136172310Y-66319544D01*
X136029108Y-66409524D01*
X135909524Y-66529108D01*
X135819544Y-66672310D01*
X135763686Y-66831943D01*
X135744750Y-66999999D01*
X132813587Y-66999999D01*
X132859185Y-66869686D01*
X132878121Y-66701627D01*
X132875735Y-66680455D01*
X132859185Y-66533570D01*
X132859185Y-66533568D01*
X132803328Y-66373937D01*
X132713349Y-66230737D01*
X132593762Y-66111150D01*
X132450562Y-66021171D01*
X132290931Y-65965314D01*
X132290929Y-65965313D01*
X132287215Y-65964014D01*
X132240489Y-65934653D01*
X132143568Y-65837732D01*
X132110083Y-65776409D01*
X132107249Y-65750051D01*
X132107249Y-65726038D01*
X132107249Y-65722727D01*
X132100841Y-65663116D01*
X132050546Y-65528268D01*
X131964296Y-65413053D01*
X131849081Y-65326803D01*
X131803794Y-65309912D01*
X131714229Y-65276506D01*
X131694079Y-65274340D01*
X131629528Y-65247601D01*
X131612427Y-65227837D01*
X131589106Y-65204516D01*
X131578553Y-65192160D01*
X134748737Y-65192160D01*
X134767673Y-65360216D01*
X134767673Y-65360218D01*
X134767674Y-65360219D01*
X134823531Y-65519850D01*
X134913510Y-65663050D01*
X135033097Y-65782637D01*
X135176297Y-65872616D01*
X135335928Y-65928473D01*
X135447967Y-65941096D01*
X135503986Y-65947409D01*
X135503986Y-65947408D01*
X135503987Y-65947409D01*
X135672046Y-65928473D01*
X135831677Y-65872616D01*
X135974877Y-65782637D01*
X136094464Y-65663050D01*
X136184443Y-65519850D01*
X136240300Y-65360219D01*
X136259236Y-65192160D01*
X136240300Y-65024101D01*
X136184443Y-64864470D01*
X136094464Y-64721270D01*
X135974877Y-64601683D01*
X135831677Y-64511704D01*
X135672046Y-64455847D01*
X135672045Y-64455846D01*
X135672043Y-64455846D01*
X135503987Y-64436910D01*
X135335930Y-64455846D01*
X135176297Y-64511704D01*
X135033095Y-64601684D01*
X134913511Y-64721268D01*
X134823531Y-64864470D01*
X134767673Y-65024103D01*
X134748737Y-65192160D01*
X131578553Y-65192160D01*
X131576467Y-65189717D01*
X131564695Y-65173513D01*
X131531041Y-65145673D01*
X131522399Y-65137809D01*
X129104410Y-62719819D01*
X129070925Y-62658496D01*
X129075909Y-62588804D01*
X129104410Y-62544457D01*
X129138867Y-62510000D01*
X129177977Y-62470890D01*
X129267956Y-62327690D01*
X129323813Y-62168059D01*
X129342749Y-62000000D01*
X129342749Y-61999999D01*
X129657250Y-61999999D01*
X129676186Y-62168056D01*
X129676186Y-62168058D01*
X129676187Y-62168059D01*
X129732044Y-62327690D01*
X129822023Y-62470890D01*
X129941610Y-62590477D01*
X130084810Y-62680456D01*
X130244441Y-62736313D01*
X130356480Y-62748936D01*
X130412499Y-62755249D01*
X130412499Y-62755248D01*
X130412500Y-62755249D01*
X130580559Y-62736313D01*
X130740190Y-62680456D01*
X130883390Y-62590477D01*
X131002977Y-62470890D01*
X131092956Y-62327690D01*
X131148813Y-62168059D01*
X131167749Y-62000000D01*
X131148813Y-61831941D01*
X131092956Y-61672310D01*
X131002977Y-61529110D01*
X130883390Y-61409523D01*
X130740190Y-61319544D01*
X130580559Y-61263687D01*
X130580558Y-61263686D01*
X130580556Y-61263686D01*
X130412500Y-61244750D01*
X130244443Y-61263686D01*
X130084810Y-61319544D01*
X129941608Y-61409524D01*
X129822024Y-61529108D01*
X129732044Y-61672310D01*
X129676186Y-61831943D01*
X129657250Y-61999999D01*
X129342749Y-61999999D01*
X129323813Y-61831941D01*
X129267956Y-61672310D01*
X129177977Y-61529110D01*
X129058390Y-61409523D01*
X128915190Y-61319544D01*
X128755559Y-61263687D01*
X128755557Y-61263686D01*
X128751843Y-61262387D01*
X128705117Y-61233026D01*
X128500802Y-61028711D01*
X128487906Y-61012613D01*
X128436775Y-60964598D01*
X128433978Y-60961887D01*
X128414471Y-60942380D01*
X128419148Y-60946773D01*
X128381969Y-60887795D01*
X128382578Y-60817928D01*
X128420864Y-60759482D01*
X128484671Y-60731013D01*
X128501239Y-60729900D01*
X128949522Y-60729900D01*
X129009133Y-60723492D01*
X129143981Y-60673197D01*
X129240705Y-60600789D01*
X129306167Y-60576373D01*
X129338250Y-60578254D01*
X129343357Y-60579228D01*
X129343357Y-60579227D01*
X129343358Y-60579228D01*
X129386030Y-60576543D01*
X129398705Y-60575746D01*
X129406491Y-60575501D01*
X129418404Y-60575501D01*
X129422296Y-60575501D01*
X129437988Y-60573518D01*
X129445684Y-60572789D01*
X129501084Y-60569305D01*
X129508848Y-60566782D01*
X129531622Y-60561690D01*
X129539738Y-60560665D01*
X129591342Y-60540232D01*
X129598617Y-60537613D01*
X129651387Y-60520468D01*
X129658283Y-60516091D01*
X129679078Y-60505495D01*
X129686678Y-60502487D01*
X129731570Y-60469870D01*
X129737972Y-60465518D01*
X129784823Y-60435787D01*
X129784823Y-60435786D01*
X129798053Y-60427391D01*
X129799266Y-60429303D01*
X129840859Y-60404861D01*
X129910673Y-60407646D01*
X129955906Y-60434744D01*
X129982868Y-60460063D01*
X130000420Y-60469712D01*
X130016688Y-60480398D01*
X130030380Y-60491019D01*
X130032514Y-60492674D01*
X130072598Y-60510019D01*
X130083078Y-60515153D01*
X130121358Y-60536198D01*
X130126204Y-60537442D01*
X130140763Y-60541181D01*
X130159166Y-60547481D01*
X130177555Y-60555439D01*
X130180527Y-60555909D01*
X130235443Y-60579116D01*
X130245903Y-60586946D01*
X130245904Y-60586947D01*
X130361119Y-60673197D01*
X130495967Y-60723492D01*
X130555577Y-60729901D01*
X131654622Y-60729900D01*
X131714233Y-60723492D01*
X131849081Y-60673197D01*
X131964296Y-60586947D01*
X132050546Y-60471732D01*
X132100841Y-60336884D01*
X132107250Y-60277274D01*
X132107249Y-59622729D01*
X132100841Y-59563118D01*
X132084136Y-59518332D01*
X132079153Y-59448642D01*
X132084138Y-59431665D01*
X132085472Y-59428089D01*
X132100841Y-59386883D01*
X132107250Y-59327273D01*
X132107249Y-58672728D01*
X132107171Y-58672000D01*
X133365000Y-58672000D01*
X133365000Y-59230518D01*
X133365354Y-59237132D01*
X133371400Y-59293371D01*
X133421647Y-59428089D01*
X133507811Y-59543188D01*
X133622910Y-59629352D01*
X133757628Y-59679599D01*
X133813867Y-59685645D01*
X133820482Y-59686000D01*
X133939999Y-59686000D01*
X133940000Y-58672000D01*
X133365000Y-58672000D01*
X132107171Y-58672000D01*
X132100841Y-58613117D01*
X132084136Y-58568331D01*
X132079153Y-58498641D01*
X132084138Y-58481664D01*
X132093990Y-58455249D01*
X132100841Y-58436882D01*
X132107250Y-58377272D01*
X132107249Y-57722727D01*
X132100841Y-57663116D01*
X132050546Y-57528268D01*
X131964296Y-57413053D01*
X131849081Y-57326803D01*
X131714233Y-57276508D01*
X131654623Y-57270099D01*
X131651301Y-57270099D01*
X131261152Y-57270099D01*
X131194113Y-57250414D01*
X131173471Y-57233780D01*
X129839691Y-55899999D01*
X132244750Y-55899999D01*
X132263686Y-56068056D01*
X132263686Y-56068058D01*
X132263687Y-56068059D01*
X132319544Y-56227690D01*
X132409523Y-56370890D01*
X132529110Y-56490477D01*
X132672310Y-56580456D01*
X132831941Y-56636313D01*
X133000000Y-56655249D01*
X133181943Y-56634749D01*
X133182426Y-56639037D01*
X133226244Y-56636791D01*
X133285130Y-56669720D01*
X133640185Y-57024776D01*
X133673670Y-57086099D01*
X133668686Y-57155791D01*
X133626815Y-57211723D01*
X133507812Y-57300808D01*
X133421647Y-57415910D01*
X133371400Y-57550628D01*
X133365354Y-57606867D01*
X133365000Y-57613481D01*
X133365000Y-58172000D01*
X134316000Y-58172000D01*
X134383039Y-58191685D01*
X134428794Y-58244489D01*
X134440000Y-58296000D01*
X134440000Y-59686000D01*
X134559518Y-59686000D01*
X134566132Y-59685645D01*
X134622373Y-59679599D01*
X134773795Y-59623122D01*
X134774633Y-59625369D01*
X134815724Y-59610039D01*
X134883998Y-59624883D01*
X134890223Y-59628883D01*
X134892667Y-59629794D01*
X134892669Y-59629796D01*
X135027517Y-59680091D01*
X135087127Y-59686500D01*
X135832872Y-59686499D01*
X135892483Y-59680091D01*
X136027331Y-59629796D01*
X136027331Y-59629795D01*
X136044037Y-59623565D01*
X136044802Y-59625617D01*
X136086560Y-59610039D01*
X136154834Y-59624885D01*
X136160230Y-59628352D01*
X136297628Y-59679599D01*
X136353867Y-59685645D01*
X136360482Y-59686000D01*
X136480000Y-59686000D01*
X136480000Y-58296000D01*
X136499685Y-58228961D01*
X136552489Y-58183206D01*
X136604000Y-58172000D01*
X136856000Y-58172000D01*
X136923039Y-58191685D01*
X136968794Y-58244489D01*
X136980000Y-58296000D01*
X136980000Y-59686000D01*
X137099518Y-59686000D01*
X137106132Y-59685645D01*
X137162373Y-59679599D01*
X137313795Y-59623122D01*
X137314633Y-59625369D01*
X137355724Y-59610039D01*
X137423998Y-59624883D01*
X137430223Y-59628883D01*
X137432667Y-59629794D01*
X137432669Y-59629796D01*
X137567517Y-59680091D01*
X137578690Y-59681292D01*
X137643242Y-59708029D01*
X137683091Y-59765421D01*
X137685586Y-59835246D01*
X137658253Y-59886808D01*
X137636675Y-59911164D01*
X137559990Y-60057274D01*
X137523134Y-60206807D01*
X137520500Y-60217494D01*
X137520500Y-60382506D01*
X137533568Y-60435526D01*
X137559990Y-60542725D01*
X137635850Y-60687264D01*
X137636675Y-60688835D01*
X137746099Y-60812349D01*
X137746100Y-60812350D01*
X137881900Y-60906087D01*
X137928356Y-60923705D01*
X138036191Y-60964601D01*
X138158895Y-60979500D01*
X138162644Y-60979500D01*
X138237356Y-60979500D01*
X138241105Y-60979500D01*
X138363809Y-60964601D01*
X138518099Y-60906087D01*
X138653901Y-60812349D01*
X138763325Y-60688835D01*
X138840010Y-60542724D01*
X138879500Y-60382506D01*
X138879500Y-60217494D01*
X138840010Y-60057276D01*
X138827945Y-60034289D01*
X138763326Y-59911167D01*
X138763325Y-59911165D01*
X138653901Y-59787651D01*
X138653900Y-59787650D01*
X138653898Y-59787648D01*
X138641079Y-59778800D01*
X138597089Y-59724517D01*
X138589430Y-59655068D01*
X138620534Y-59592504D01*
X138637199Y-59577492D01*
X138682546Y-59543546D01*
X138768796Y-59428331D01*
X138819091Y-59293483D01*
X138825500Y-59233873D01*
X138825499Y-57610128D01*
X138819091Y-57550517D01*
X138768796Y-57415669D01*
X138682546Y-57300454D01*
X138567331Y-57214204D01*
X138432483Y-57163909D01*
X138372873Y-57157500D01*
X138369551Y-57157500D01*
X138093453Y-57157500D01*
X138026414Y-57137815D01*
X138005772Y-57121181D01*
X137833802Y-56949211D01*
X137820906Y-56933113D01*
X137769775Y-56885098D01*
X137766978Y-56882387D01*
X137750227Y-56865636D01*
X137747471Y-56862880D01*
X137744290Y-56860412D01*
X137735422Y-56852837D01*
X137703582Y-56822938D01*
X137686024Y-56813285D01*
X137669764Y-56802604D01*
X137653936Y-56790327D01*
X137613851Y-56772980D01*
X137603361Y-56767841D01*
X137565091Y-56746802D01*
X137545691Y-56741821D01*
X137527284Y-56735519D01*
X137508897Y-56727562D01*
X137465758Y-56720729D01*
X137454324Y-56718361D01*
X137412019Y-56707500D01*
X137391984Y-56707500D01*
X137372586Y-56705973D01*
X137365162Y-56704797D01*
X137352805Y-56702840D01*
X137352804Y-56702840D01*
X137327468Y-56705235D01*
X137309325Y-56706950D01*
X137297656Y-56707500D01*
X136192744Y-56707500D01*
X136172237Y-56705235D01*
X136102127Y-56707439D01*
X136098232Y-56707500D01*
X136070650Y-56707500D01*
X136066805Y-56707985D01*
X136066780Y-56707987D01*
X136066653Y-56708004D01*
X136055033Y-56708918D01*
X136011369Y-56710290D01*
X135992129Y-56715880D01*
X135973081Y-56719825D01*
X135953209Y-56722335D01*
X135912599Y-56738413D01*
X135901554Y-56742194D01*
X135859610Y-56754381D01*
X135842365Y-56764579D01*
X135824904Y-56773133D01*
X135806267Y-56780512D01*
X135770931Y-56806185D01*
X135761174Y-56812595D01*
X135723580Y-56834829D01*
X135709413Y-56848996D01*
X135694624Y-56861626D01*
X135678413Y-56873404D01*
X135650572Y-56907058D01*
X135642711Y-56915697D01*
X135559180Y-56999228D01*
X135497857Y-57032713D01*
X135428165Y-57027729D01*
X135383818Y-56999228D01*
X134652240Y-56267650D01*
X133900802Y-55516211D01*
X133887906Y-55500113D01*
X133836775Y-55452098D01*
X133833978Y-55449387D01*
X133817227Y-55432636D01*
X133814471Y-55429880D01*
X133811290Y-55427412D01*
X133802422Y-55419837D01*
X133770582Y-55389938D01*
X133753024Y-55380285D01*
X133736764Y-55369604D01*
X133720936Y-55357327D01*
X133680851Y-55339980D01*
X133670361Y-55334841D01*
X133632091Y-55313802D01*
X133612691Y-55308821D01*
X133594284Y-55302519D01*
X133575897Y-55294562D01*
X133532758Y-55287729D01*
X133521324Y-55285361D01*
X133479019Y-55274500D01*
X133458983Y-55274500D01*
X133439587Y-55272973D01*
X133428743Y-55271255D01*
X133382172Y-55253777D01*
X133327690Y-55219544D01*
X133168059Y-55163687D01*
X133168058Y-55163686D01*
X133168056Y-55163686D01*
X133000000Y-55144750D01*
X132831943Y-55163686D01*
X132672310Y-55219544D01*
X132529108Y-55309524D01*
X132409524Y-55429108D01*
X132319544Y-55572310D01*
X132263686Y-55731943D01*
X132244750Y-55899999D01*
X129839691Y-55899999D01*
X128543403Y-54603711D01*
X128530507Y-54587613D01*
X128479376Y-54539598D01*
X128476579Y-54536887D01*
X128459828Y-54520136D01*
X128457072Y-54517380D01*
X128453891Y-54514912D01*
X128445023Y-54507337D01*
X128413183Y-54477438D01*
X128395625Y-54467785D01*
X128379365Y-54457104D01*
X128363537Y-54444827D01*
X128323452Y-54427480D01*
X128312962Y-54422341D01*
X128274692Y-54401302D01*
X128255292Y-54396321D01*
X128236885Y-54390019D01*
X128218498Y-54382062D01*
X128175359Y-54375229D01*
X128163925Y-54372861D01*
X128121620Y-54362000D01*
X128101585Y-54362000D01*
X128082187Y-54360473D01*
X128074763Y-54359297D01*
X128062406Y-54357340D01*
X128062405Y-54357340D01*
X128029352Y-54360464D01*
X128018926Y-54361450D01*
X128007257Y-54362000D01*
X127748248Y-54362000D01*
X127681209Y-54342315D01*
X127635454Y-54289511D01*
X127625510Y-54220353D01*
X127646671Y-54166878D01*
X127744035Y-54027830D01*
X127843903Y-53813663D01*
X127845266Y-53808578D01*
X133364500Y-53808578D01*
X133364501Y-53811872D01*
X133364853Y-53815152D01*
X133364854Y-53815159D01*
X133370909Y-53871484D01*
X133381707Y-53900435D01*
X133421204Y-54006331D01*
X133507454Y-54121546D01*
X133622669Y-54207796D01*
X133757517Y-54258091D01*
X133817127Y-54264500D01*
X134178832Y-54264499D01*
X134245871Y-54284183D01*
X134291626Y-54336987D01*
X134295873Y-54347544D01*
X134319542Y-54415187D01*
X134319544Y-54415190D01*
X134409523Y-54558390D01*
X134529110Y-54677977D01*
X134672310Y-54767956D01*
X134831941Y-54823813D01*
X135000000Y-54842749D01*
X135168059Y-54823813D01*
X135327690Y-54767956D01*
X135470890Y-54677977D01*
X135590477Y-54558390D01*
X135680456Y-54415190D01*
X135704126Y-54347543D01*
X135744846Y-54290769D01*
X135809799Y-54265021D01*
X135821167Y-54264499D01*
X135829561Y-54264499D01*
X135832872Y-54264499D01*
X135892483Y-54258091D01*
X136027331Y-54207796D01*
X136027331Y-54207795D01*
X136044037Y-54201565D01*
X136044853Y-54203754D01*
X136086151Y-54188351D01*
X136154425Y-54203202D01*
X136160056Y-54206820D01*
X136162665Y-54207793D01*
X136162669Y-54207796D01*
X136200102Y-54221757D01*
X136256033Y-54263626D01*
X136273806Y-54296979D01*
X136319544Y-54427690D01*
X136409523Y-54570890D01*
X136529110Y-54690477D01*
X136672310Y-54780456D01*
X136831941Y-54836313D01*
X137000000Y-54855249D01*
X137168059Y-54836313D01*
X137327690Y-54780456D01*
X137470890Y-54690477D01*
X137590477Y-54570890D01*
X137680456Y-54427690D01*
X137688907Y-54403538D01*
X137708501Y-54347544D01*
X137749222Y-54290768D01*
X137814175Y-54265021D01*
X137825542Y-54264499D01*
X138369561Y-54264499D01*
X138372872Y-54264499D01*
X138432483Y-54258091D01*
X138567331Y-54207796D01*
X138682546Y-54121546D01*
X138768796Y-54006331D01*
X138819091Y-53871483D01*
X138825500Y-53811873D01*
X138825499Y-52188128D01*
X138819091Y-52128517D01*
X138768796Y-51993669D01*
X138682546Y-51878454D01*
X138567331Y-51792204D01*
X138432483Y-51741909D01*
X138372873Y-51735500D01*
X138369550Y-51735500D01*
X137630439Y-51735500D01*
X137630420Y-51735500D01*
X137627128Y-51735501D01*
X137623848Y-51735853D01*
X137623840Y-51735854D01*
X137567515Y-51741909D01*
X137472535Y-51777334D01*
X137432669Y-51792204D01*
X137432668Y-51792204D01*
X137415964Y-51798435D01*
X137415147Y-51796244D01*
X137373841Y-51811649D01*
X137305569Y-51796795D01*
X137299941Y-51793178D01*
X137297332Y-51792205D01*
X137297331Y-51792204D01*
X137162483Y-51741909D01*
X137102873Y-51735500D01*
X137099551Y-51735500D01*
X136751837Y-51735500D01*
X136684798Y-51715815D01*
X136639043Y-51663011D01*
X136628617Y-51597616D01*
X136645249Y-51450000D01*
X136630782Y-51321606D01*
X136626313Y-51281941D01*
X136570456Y-51122310D01*
X136480477Y-50979110D01*
X136360890Y-50859523D01*
X136217690Y-50769544D01*
X136058059Y-50713687D01*
X136058058Y-50713686D01*
X136058056Y-50713686D01*
X135890000Y-50694750D01*
X135721943Y-50713686D01*
X135562310Y-50769544D01*
X135419108Y-50859524D01*
X135299524Y-50979108D01*
X135209544Y-51122310D01*
X135153686Y-51281943D01*
X135134750Y-51450000D01*
X135152009Y-51603173D01*
X135139955Y-51671995D01*
X135092606Y-51723375D01*
X135042046Y-51740346D01*
X135027519Y-51741907D01*
X134918403Y-51782606D01*
X134892669Y-51792204D01*
X134892668Y-51792204D01*
X134875964Y-51798435D01*
X134875147Y-51796244D01*
X134833841Y-51811649D01*
X134765569Y-51796795D01*
X134759941Y-51793178D01*
X134757332Y-51792205D01*
X134757331Y-51792204D01*
X134622483Y-51741909D01*
X134562873Y-51735500D01*
X134559550Y-51735500D01*
X133820439Y-51735500D01*
X133820420Y-51735500D01*
X133817128Y-51735501D01*
X133813848Y-51735853D01*
X133813840Y-51735854D01*
X133757515Y-51741909D01*
X133622669Y-51792204D01*
X133507454Y-51878454D01*
X133421204Y-51993668D01*
X133370909Y-52128516D01*
X133365808Y-52175965D01*
X133364500Y-52188127D01*
X133364500Y-52191448D01*
X133364500Y-52191449D01*
X133364500Y-53808560D01*
X133364500Y-53808578D01*
X127845266Y-53808578D01*
X127905063Y-53585408D01*
X127925659Y-53350000D01*
X127905063Y-53114592D01*
X127843903Y-52886337D01*
X127744035Y-52672171D01*
X127608495Y-52478599D01*
X127441401Y-52311505D01*
X127247830Y-52175965D01*
X127142588Y-52126889D01*
X127040597Y-52079330D01*
X126988158Y-52033157D01*
X126969006Y-51965964D01*
X126989222Y-51899083D01*
X127005316Y-51879272D01*
X128117617Y-50766972D01*
X128164342Y-50737613D01*
X128168056Y-50736313D01*
X128168059Y-50736313D01*
X128327690Y-50680456D01*
X128470890Y-50590477D01*
X128590477Y-50470890D01*
X128680456Y-50327690D01*
X128736313Y-50168059D01*
X128755249Y-50000000D01*
X128736313Y-49831941D01*
X128680456Y-49672310D01*
X128590477Y-49529110D01*
X128470890Y-49409523D01*
X128327690Y-49319544D01*
X128168059Y-49263687D01*
X128168058Y-49263686D01*
X128168056Y-49263686D01*
X128000000Y-49244750D01*
X127831943Y-49263686D01*
X127672309Y-49319544D01*
X127565972Y-49386361D01*
X127498735Y-49405361D01*
X127434028Y-49386361D01*
X127361004Y-49340477D01*
X127327690Y-49319544D01*
X127168059Y-49263687D01*
X127168058Y-49263686D01*
X127168056Y-49263686D01*
X126999999Y-49244750D01*
X126831943Y-49263686D01*
X126672310Y-49319544D01*
X126529108Y-49409524D01*
X126409524Y-49529108D01*
X126319544Y-49672310D01*
X126263686Y-49831943D01*
X126258361Y-49879207D01*
X126231294Y-49943621D01*
X126222822Y-49953004D01*
X124662647Y-51513181D01*
X124601324Y-51546666D01*
X124574966Y-51549500D01*
X123626043Y-51549500D01*
X123605536Y-51547235D01*
X123535426Y-51549439D01*
X123531531Y-51549500D01*
X123503949Y-51549500D01*
X123500104Y-51549985D01*
X123500079Y-51549987D01*
X123499952Y-51550004D01*
X123488332Y-51550918D01*
X123444668Y-51552290D01*
X123425428Y-51557880D01*
X123406380Y-51561825D01*
X123386508Y-51564335D01*
X123345898Y-51580413D01*
X123334853Y-51584194D01*
X123292909Y-51596381D01*
X123275664Y-51606579D01*
X123258203Y-51615133D01*
X123239566Y-51622512D01*
X123204230Y-51648185D01*
X123194473Y-51654595D01*
X123156879Y-51676829D01*
X123142712Y-51690996D01*
X123127923Y-51703626D01*
X123111712Y-51715404D01*
X123083871Y-51749058D01*
X123076010Y-51757697D01*
X122529482Y-52304224D01*
X122468159Y-52337709D01*
X122398467Y-52332725D01*
X122371790Y-52315580D01*
X122370287Y-52317728D01*
X122361404Y-52311508D01*
X122361401Y-52311505D01*
X122167830Y-52175965D01*
X121953663Y-52076097D01*
X121881074Y-52056647D01*
X121725407Y-52014936D01*
X121489999Y-51994340D01*
X121254592Y-52014936D01*
X121026336Y-52076097D01*
X120812170Y-52175965D01*
X120618601Y-52311503D01*
X120496285Y-52433819D01*
X120434962Y-52467303D01*
X120365270Y-52462319D01*
X120309337Y-52420447D01*
X120292422Y-52389471D01*
X120243352Y-52257911D01*
X120157188Y-52142811D01*
X120042089Y-52056647D01*
X119907371Y-52006400D01*
X119851132Y-52000354D01*
X119844518Y-52000000D01*
X119200000Y-52000000D01*
X119200000Y-52914498D01*
X119092315Y-52865320D01*
X118985763Y-52850000D01*
X118914237Y-52850000D01*
X118807685Y-52865320D01*
X118700000Y-52914498D01*
X118700000Y-52000000D01*
X118055482Y-52000000D01*
X118048867Y-52000354D01*
X117992628Y-52006400D01*
X117857910Y-52056647D01*
X117742811Y-52142811D01*
X117656647Y-52257910D01*
X117606400Y-52392628D01*
X117600354Y-52448867D01*
X117600000Y-52455481D01*
X117600000Y-53100000D01*
X118516314Y-53100000D01*
X118490507Y-53140156D01*
X118450000Y-53278111D01*
X118450000Y-53421889D01*
X118490507Y-53559844D01*
X118516314Y-53600000D01*
X117600000Y-53600000D01*
X117600000Y-53775500D01*
X117580315Y-53842539D01*
X117527511Y-53888294D01*
X117476000Y-53899500D01*
X115559384Y-53899500D01*
X115492345Y-53879815D01*
X115471703Y-53863181D01*
X114258202Y-52649680D01*
X114224717Y-52588357D01*
X114229701Y-52518665D01*
X114271573Y-52462732D01*
X114337037Y-52438315D01*
X114345856Y-52437999D01*
X115012872Y-52437999D01*
X115072483Y-52431591D01*
X115207331Y-52381296D01*
X115322546Y-52295046D01*
X115408796Y-52179831D01*
X115459091Y-52044983D01*
X115465500Y-51985373D01*
X115465499Y-49939628D01*
X115459091Y-49880017D01*
X115408796Y-49745169D01*
X115322546Y-49629954D01*
X115207331Y-49543704D01*
X115090152Y-49499999D01*
X117604340Y-49499999D01*
X117624936Y-49735407D01*
X117650803Y-49831943D01*
X117686097Y-49963663D01*
X117785965Y-50177830D01*
X117921505Y-50371401D01*
X118088599Y-50538495D01*
X118282170Y-50674035D01*
X118496337Y-50773903D01*
X118724592Y-50835063D01*
X118960000Y-50855659D01*
X119195408Y-50835063D01*
X119423663Y-50773903D01*
X119637830Y-50674035D01*
X119831401Y-50538495D01*
X119953329Y-50416566D01*
X120014648Y-50383084D01*
X120084340Y-50388068D01*
X120140274Y-50429939D01*
X120157189Y-50460916D01*
X120175412Y-50509774D01*
X120206204Y-50592331D01*
X120292454Y-50707546D01*
X120407669Y-50793796D01*
X120542517Y-50844091D01*
X120602127Y-50850500D01*
X122397872Y-50850499D01*
X122457483Y-50844091D01*
X122592331Y-50793796D01*
X122707546Y-50707546D01*
X122793796Y-50592331D01*
X122844091Y-50457483D01*
X122850500Y-50397873D01*
X122850499Y-48749999D01*
X130682250Y-48749999D01*
X130701186Y-48918056D01*
X130701186Y-48918058D01*
X130701187Y-48918059D01*
X130757044Y-49077690D01*
X130847023Y-49220890D01*
X130966610Y-49340477D01*
X131109810Y-49430456D01*
X131269441Y-49486313D01*
X131437500Y-49505249D01*
X131605559Y-49486313D01*
X131765190Y-49430456D01*
X131908390Y-49340477D01*
X132027977Y-49220890D01*
X132117956Y-49077690D01*
X132173813Y-48918059D01*
X132192749Y-48750000D01*
X132173813Y-48581941D01*
X132117956Y-48422310D01*
X132027977Y-48279110D01*
X131908390Y-48159523D01*
X131765190Y-48069544D01*
X131605559Y-48013687D01*
X131605558Y-48013686D01*
X131605556Y-48013686D01*
X131437499Y-47994750D01*
X131269443Y-48013686D01*
X131109810Y-48069544D01*
X130966608Y-48159524D01*
X130847024Y-48279108D01*
X130757044Y-48422310D01*
X130701186Y-48581943D01*
X130682250Y-48749999D01*
X122850499Y-48749999D01*
X122850499Y-48602128D01*
X122844091Y-48542517D01*
X122793796Y-48407669D01*
X122707546Y-48292454D01*
X122592331Y-48206204D01*
X122457483Y-48155909D01*
X122397873Y-48149500D01*
X122394550Y-48149500D01*
X120605439Y-48149500D01*
X120605420Y-48149500D01*
X120602128Y-48149501D01*
X120598848Y-48149853D01*
X120598840Y-48149854D01*
X120542515Y-48155909D01*
X120407669Y-48206204D01*
X120292454Y-48292454D01*
X120206204Y-48407669D01*
X120157189Y-48539083D01*
X120115317Y-48595016D01*
X120049852Y-48619433D01*
X119981580Y-48604581D01*
X119953326Y-48583430D01*
X119831404Y-48461508D01*
X119831404Y-48461507D01*
X119831401Y-48461505D01*
X119637830Y-48325965D01*
X119423663Y-48226097D01*
X119362502Y-48209709D01*
X119195407Y-48164936D01*
X118959999Y-48144340D01*
X118724592Y-48164936D01*
X118496336Y-48226097D01*
X118282170Y-48325965D01*
X118088598Y-48461505D01*
X117921505Y-48628598D01*
X117785965Y-48822170D01*
X117686097Y-49036336D01*
X117624936Y-49264592D01*
X117604340Y-49499999D01*
X115090152Y-49499999D01*
X115072483Y-49493409D01*
X115020816Y-49487854D01*
X115016166Y-49487354D01*
X115016165Y-49487353D01*
X115012873Y-49487000D01*
X115009550Y-49487000D01*
X114320439Y-49487000D01*
X114320420Y-49487000D01*
X114317128Y-49487001D01*
X114313848Y-49487353D01*
X114313840Y-49487354D01*
X114257515Y-49493409D01*
X114122667Y-49543704D01*
X114104310Y-49557447D01*
X114038845Y-49581864D01*
X113970573Y-49567012D01*
X113955690Y-49557447D01*
X113937333Y-49543705D01*
X113937331Y-49543704D01*
X113802483Y-49493409D01*
X113750816Y-49487854D01*
X113746166Y-49487354D01*
X113746165Y-49487353D01*
X113742873Y-49487000D01*
X113739550Y-49487000D01*
X113050439Y-49487000D01*
X113050420Y-49487000D01*
X113047128Y-49487001D01*
X113043848Y-49487353D01*
X113043840Y-49487354D01*
X112987515Y-49493409D01*
X112852667Y-49543704D01*
X112834307Y-49557449D01*
X112768843Y-49581864D01*
X112700570Y-49567011D01*
X112685688Y-49557446D01*
X112667333Y-49543705D01*
X112667331Y-49543704D01*
X112532483Y-49493409D01*
X112480816Y-49487854D01*
X112476166Y-49487354D01*
X112476165Y-49487353D01*
X112472873Y-49487000D01*
X112469551Y-49487000D01*
X112173476Y-49487000D01*
X112106437Y-49467315D01*
X112069033Y-49424148D01*
X112066591Y-49425593D01*
X112048421Y-49394869D01*
X112039863Y-49377402D01*
X112032486Y-49358768D01*
X112006798Y-49323412D01*
X112000409Y-49313684D01*
X111978170Y-49276079D01*
X111964006Y-49261915D01*
X111951369Y-49247120D01*
X111939595Y-49230914D01*
X111927478Y-49220890D01*
X111905935Y-49203068D01*
X111897305Y-49195214D01*
X111318302Y-48616211D01*
X111305406Y-48600113D01*
X111254275Y-48552098D01*
X111251478Y-48549387D01*
X111234727Y-48532636D01*
X111231971Y-48529880D01*
X111228790Y-48527412D01*
X111219922Y-48519837D01*
X111188082Y-48489938D01*
X111170524Y-48480285D01*
X111154264Y-48469604D01*
X111138436Y-48457327D01*
X111098351Y-48439980D01*
X111087861Y-48434841D01*
X111049591Y-48413802D01*
X111030191Y-48408821D01*
X111011784Y-48402519D01*
X110993397Y-48394562D01*
X110950258Y-48387729D01*
X110938824Y-48385361D01*
X110896519Y-48374500D01*
X110876484Y-48374500D01*
X110857086Y-48372973D01*
X110849662Y-48371797D01*
X110837305Y-48369840D01*
X110837304Y-48369840D01*
X110810984Y-48372328D01*
X110793825Y-48373950D01*
X110782156Y-48374500D01*
X109341537Y-48374500D01*
X109274498Y-48354815D01*
X109228743Y-48302011D01*
X109218799Y-48232853D01*
X109247824Y-48169297D01*
X109253856Y-48162819D01*
X109683265Y-47733410D01*
X110116499Y-47300175D01*
X110163224Y-47270816D01*
X110166938Y-47269516D01*
X110166941Y-47269516D01*
X110326572Y-47213659D01*
X110383786Y-47177708D01*
X110449758Y-47158703D01*
X111810249Y-47158703D01*
X111877288Y-47178388D01*
X111897930Y-47195021D01*
X111983026Y-47280116D01*
X112012387Y-47326843D01*
X112013686Y-47330557D01*
X112013687Y-47330559D01*
X112069544Y-47490190D01*
X112159523Y-47633390D01*
X112279110Y-47752977D01*
X112422310Y-47842956D01*
X112581941Y-47898813D01*
X112750000Y-47917749D01*
X112918059Y-47898813D01*
X113077690Y-47842956D01*
X113220890Y-47752977D01*
X113340477Y-47633390D01*
X113430456Y-47490190D01*
X113486313Y-47330559D01*
X113502764Y-47184553D01*
X113529830Y-47120140D01*
X113587425Y-47080584D01*
X113657262Y-47078447D01*
X113713665Y-47110756D01*
X113883027Y-47280118D01*
X113912387Y-47326843D01*
X113913686Y-47330557D01*
X113913687Y-47330559D01*
X113969544Y-47490190D01*
X114059523Y-47633390D01*
X114179110Y-47752977D01*
X114322310Y-47842956D01*
X114481941Y-47898813D01*
X114650000Y-47917749D01*
X114818059Y-47898813D01*
X114977690Y-47842956D01*
X115120890Y-47752977D01*
X115240477Y-47633390D01*
X115330456Y-47490190D01*
X115386313Y-47330559D01*
X115405249Y-47162500D01*
X115386313Y-46994441D01*
X115330456Y-46834810D01*
X115240477Y-46691610D01*
X115120890Y-46572023D01*
X115120889Y-46572023D01*
X115120889Y-46572022D01*
X115035091Y-46518111D01*
X114988800Y-46465777D01*
X114978152Y-46396723D01*
X115006527Y-46332875D01*
X115032827Y-46309582D01*
X115090013Y-46271893D01*
X115135519Y-46241902D01*
X115362410Y-46015008D01*
X115364582Y-46012891D01*
X115428053Y-45952559D01*
X115461759Y-45904130D01*
X115467428Y-45896613D01*
X115504698Y-45850907D01*
X115518783Y-45823939D01*
X115526918Y-45810515D01*
X115534356Y-45799828D01*
X115544295Y-45785549D01*
X115567568Y-45731315D01*
X115571588Y-45722850D01*
X115598909Y-45670549D01*
X115607275Y-45641308D01*
X115612539Y-45626519D01*
X115624540Y-45598558D01*
X115636417Y-45540756D01*
X115638652Y-45531648D01*
X115654886Y-45474918D01*
X115657196Y-45444578D01*
X115659376Y-45429040D01*
X115665500Y-45399242D01*
X115665500Y-45340254D01*
X115665858Y-45330839D01*
X115668987Y-45289746D01*
X115670337Y-45272024D01*
X115666493Y-45241839D01*
X115665500Y-45226176D01*
X115665500Y-44131482D01*
X118245500Y-44131482D01*
X118284691Y-44391507D01*
X118310604Y-44475513D01*
X118362202Y-44642788D01*
X118385608Y-44691391D01*
X118476296Y-44879707D01*
X118476297Y-44879709D01*
X118476298Y-44879710D01*
X118624430Y-45096980D01*
X118803290Y-45289746D01*
X119008883Y-45453701D01*
X119236616Y-45585183D01*
X119481402Y-45681254D01*
X119737772Y-45739769D01*
X119934346Y-45754500D01*
X119936663Y-45754500D01*
X120063337Y-45754500D01*
X120065654Y-45754500D01*
X120262228Y-45739769D01*
X120518598Y-45681254D01*
X120763384Y-45585183D01*
X120991117Y-45453701D01*
X121196710Y-45289746D01*
X121375570Y-45096980D01*
X121523702Y-44879710D01*
X121637798Y-44642788D01*
X121715308Y-44391508D01*
X121754500Y-44131482D01*
X121754500Y-43868518D01*
X121748532Y-43828925D01*
X121715308Y-43608492D01*
X121677636Y-43486363D01*
X121637798Y-43357212D01*
X121523702Y-43120290D01*
X121375570Y-42903020D01*
X121196710Y-42710254D01*
X121139870Y-42664925D01*
X121136166Y-42661971D01*
X126399499Y-42661971D01*
X126399500Y-42661991D01*
X126399500Y-42664925D01*
X126399779Y-42667855D01*
X126399781Y-42667880D01*
X126414471Y-42821715D01*
X126473683Y-43023373D01*
X126485716Y-43046713D01*
X126499500Y-43103533D01*
X126499500Y-43948221D01*
X126499460Y-43951363D01*
X126497242Y-44038862D01*
X126507648Y-44096920D01*
X126508957Y-44106249D01*
X126514926Y-44164938D01*
X126524033Y-44193967D01*
X126527772Y-44209202D01*
X126533141Y-44239152D01*
X126555020Y-44293925D01*
X126558180Y-44302800D01*
X126574057Y-44353404D01*
X126575841Y-44359088D01*
X126590607Y-44385691D01*
X126597337Y-44399864D01*
X126608622Y-44428117D01*
X126641080Y-44477367D01*
X126645961Y-44485423D01*
X126674590Y-44537001D01*
X126694404Y-44560081D01*
X126703856Y-44572616D01*
X126720599Y-44598020D01*
X126762300Y-44639721D01*
X126768705Y-44646632D01*
X126807130Y-44691391D01*
X126807131Y-44691392D01*
X126807134Y-44691395D01*
X126831198Y-44710022D01*
X126842968Y-44720389D01*
X127261283Y-45138704D01*
X127293377Y-45194291D01*
X127344008Y-45383248D01*
X127372612Y-45444588D01*
X127434632Y-45577591D01*
X127557627Y-45753245D01*
X127709255Y-45904873D01*
X127884909Y-46027868D01*
X128079253Y-46118492D01*
X128280065Y-46172299D01*
X128339725Y-46208664D01*
X128370254Y-46271511D01*
X128361959Y-46340886D01*
X128335652Y-46379755D01*
X127682381Y-47033026D01*
X127635655Y-47062386D01*
X127472312Y-47119542D01*
X127329108Y-47209524D01*
X127209524Y-47329108D01*
X127119544Y-47472310D01*
X127063686Y-47631943D01*
X127044750Y-47800000D01*
X127063686Y-47968056D01*
X127063686Y-47968058D01*
X127063687Y-47968059D01*
X127119544Y-48127690D01*
X127209523Y-48270890D01*
X127329110Y-48390477D01*
X127472310Y-48480456D01*
X127631941Y-48536313D01*
X127743980Y-48548936D01*
X127799999Y-48555249D01*
X127799999Y-48555248D01*
X127800000Y-48555249D01*
X127968059Y-48536313D01*
X128127690Y-48480456D01*
X128270890Y-48390477D01*
X128390477Y-48270890D01*
X128480456Y-48127690D01*
X128536313Y-47968059D01*
X128536313Y-47968054D01*
X128537613Y-47964341D01*
X128566972Y-47917616D01*
X129672771Y-46811819D01*
X129734095Y-46778334D01*
X129760453Y-46775500D01*
X131254756Y-46775500D01*
X131275262Y-46777764D01*
X131278165Y-46777672D01*
X131278167Y-46777673D01*
X131345372Y-46775561D01*
X131349268Y-46775500D01*
X131372948Y-46775500D01*
X131376850Y-46775500D01*
X131380813Y-46774999D01*
X131392462Y-46774080D01*
X131436127Y-46772709D01*
X131455359Y-46767120D01*
X131474418Y-46763174D01*
X131480696Y-46762381D01*
X131494292Y-46760664D01*
X131534907Y-46744582D01*
X131545944Y-46740803D01*
X131587890Y-46728618D01*
X131605129Y-46718422D01*
X131622602Y-46709862D01*
X131641232Y-46702486D01*
X131676564Y-46676814D01*
X131686330Y-46670400D01*
X131686769Y-46670140D01*
X131723920Y-46648170D01*
X131738087Y-46634002D01*
X131752876Y-46621371D01*
X131769087Y-46609594D01*
X131769088Y-46609592D01*
X131781762Y-46600385D01*
X131782021Y-46600741D01*
X131823376Y-46571952D01*
X131977690Y-46517956D01*
X132120890Y-46427977D01*
X132240477Y-46308390D01*
X132303109Y-46208713D01*
X132311081Y-46196026D01*
X132363416Y-46149735D01*
X132416074Y-46137999D01*
X132544561Y-46137999D01*
X132547872Y-46137999D01*
X132607483Y-46131591D01*
X132742331Y-46081296D01*
X132781601Y-46051898D01*
X132847064Y-46027481D01*
X132908316Y-46038783D01*
X133079250Y-46118491D01*
X133079252Y-46118491D01*
X133079253Y-46118492D01*
X133286381Y-46173992D01*
X133500000Y-46192681D01*
X133713619Y-46173992D01*
X133920747Y-46118492D01*
X134115091Y-46027868D01*
X134290745Y-45904873D01*
X134442373Y-45753245D01*
X134565368Y-45577591D01*
X134655992Y-45383247D01*
X134706623Y-45194288D01*
X134738714Y-45138705D01*
X135197409Y-44680010D01*
X135199579Y-44677894D01*
X135263053Y-44617559D01*
X135296765Y-44569122D01*
X135302408Y-44561638D01*
X135339698Y-44515907D01*
X135353786Y-44488935D01*
X135361911Y-44475524D01*
X135379295Y-44450549D01*
X135402568Y-44396315D01*
X135406598Y-44387831D01*
X135407721Y-44385683D01*
X135433909Y-44335549D01*
X135442278Y-44306297D01*
X135447534Y-44291532D01*
X135459540Y-44263558D01*
X135471418Y-44205756D01*
X135473651Y-44196656D01*
X135489887Y-44139918D01*
X135492197Y-44109577D01*
X135494376Y-44094035D01*
X135500500Y-44064241D01*
X135500500Y-44005256D01*
X135500858Y-43995842D01*
X135501753Y-43984083D01*
X135505337Y-43937023D01*
X135501493Y-43906838D01*
X135500500Y-43891175D01*
X135500500Y-43098291D01*
X135509382Y-43052205D01*
X135515069Y-43038000D01*
X135560725Y-42923957D01*
X135600500Y-42717585D01*
X135600500Y-41860075D01*
X135585528Y-41703282D01*
X135526316Y-41501625D01*
X135430011Y-41314818D01*
X135388035Y-41261442D01*
X135300093Y-41149615D01*
X135141254Y-41011979D01*
X134959245Y-40906896D01*
X134760633Y-40838155D01*
X134552603Y-40808246D01*
X134552602Y-40808246D01*
X134516558Y-40809962D01*
X134476730Y-40811860D01*
X134470831Y-40812000D01*
X133255439Y-40812000D01*
X133255420Y-40812000D01*
X133252128Y-40812001D01*
X133248848Y-40812353D01*
X133248840Y-40812354D01*
X133192515Y-40818409D01*
X133068333Y-40864726D01*
X132998641Y-40869710D01*
X132981667Y-40864726D01*
X132857485Y-40818409D01*
X132801166Y-40812354D01*
X132801165Y-40812353D01*
X132797873Y-40812000D01*
X132794550Y-40812000D01*
X131205439Y-40812000D01*
X131205420Y-40812000D01*
X131202128Y-40812001D01*
X131198848Y-40812353D01*
X131198840Y-40812354D01*
X131142515Y-40818409D01*
X131043333Y-40855402D01*
X130973641Y-40860386D01*
X130956667Y-40855402D01*
X130857485Y-40818409D01*
X130801166Y-40812354D01*
X130801165Y-40812353D01*
X130797873Y-40812000D01*
X130794550Y-40812000D01*
X129205439Y-40812000D01*
X129205420Y-40812000D01*
X129202128Y-40812001D01*
X129198848Y-40812353D01*
X129198840Y-40812354D01*
X129142515Y-40818409D01*
X129018333Y-40864726D01*
X128948641Y-40869710D01*
X128931667Y-40864726D01*
X128807485Y-40818409D01*
X128751166Y-40812354D01*
X128751165Y-40812353D01*
X128747873Y-40812000D01*
X128744551Y-40812000D01*
X127587583Y-40812000D01*
X127569938Y-40810738D01*
X127552603Y-40808245D01*
X127476709Y-40811860D01*
X127470818Y-40812000D01*
X127455442Y-40812000D01*
X127455426Y-40812000D01*
X127452128Y-40812001D01*
X127448838Y-40812354D01*
X127448829Y-40812355D01*
X127438578Y-40813457D01*
X127431230Y-40814026D01*
X127342674Y-40818245D01*
X127138419Y-40867797D01*
X126947247Y-40955102D01*
X126776050Y-41077012D01*
X126631013Y-41229123D01*
X126517387Y-41405925D01*
X126439274Y-41601045D01*
X126399500Y-41807413D01*
X126399499Y-42661971D01*
X121136166Y-42661971D01*
X120991116Y-42546298D01*
X120763382Y-42414816D01*
X120518600Y-42318746D01*
X120262225Y-42260230D01*
X120067968Y-42245673D01*
X120067957Y-42245672D01*
X120065654Y-42245500D01*
X119934346Y-42245500D01*
X119932043Y-42245672D01*
X119932031Y-42245673D01*
X119737774Y-42260230D01*
X119481399Y-42318746D01*
X119236617Y-42414816D01*
X119008883Y-42546298D01*
X118803290Y-42710253D01*
X118624431Y-42903018D01*
X118476296Y-43120292D01*
X118362202Y-43357212D01*
X118284691Y-43608492D01*
X118245500Y-43868517D01*
X118245500Y-44131482D01*
X115665500Y-44131482D01*
X115665500Y-41514899D01*
X115665500Y-41514898D01*
X115665500Y-41511758D01*
X115650074Y-41360062D01*
X115589159Y-41165912D01*
X115503721Y-41011981D01*
X115484290Y-40976973D01*
X115487103Y-40975411D01*
X115466679Y-40930125D01*
X115465499Y-40913056D01*
X115465499Y-40542939D01*
X115465499Y-40539628D01*
X115459091Y-40480017D01*
X115408796Y-40345169D01*
X115374091Y-40298809D01*
X115349675Y-40233346D01*
X115364527Y-40165073D01*
X115413932Y-40115668D01*
X115473359Y-40100500D01*
X135973071Y-40100500D01*
X135997128Y-40100500D01*
X136002855Y-40100632D01*
G37*
%TD.AperFunction*%
%TA.AperFunction,Conductor*%
G36*
X121274761Y-57723185D02*
G01*
X121274764Y-57723187D01*
X121387280Y-57738000D01*
X121391333Y-57738000D01*
X121608667Y-57738000D01*
X121612720Y-57738000D01*
X121642892Y-57734027D01*
X121711923Y-57744791D01*
X121764180Y-57791169D01*
X121776117Y-57816010D01*
X121784966Y-57841298D01*
X121784967Y-57841300D01*
X121874946Y-57984500D01*
X121994533Y-58104087D01*
X122137733Y-58194066D01*
X122297364Y-58249923D01*
X122465423Y-58268859D01*
X122633482Y-58249923D01*
X122793113Y-58194066D01*
X122879095Y-58140039D01*
X122946330Y-58121039D01*
X123004802Y-58136371D01*
X123027223Y-58148697D01*
X123027225Y-58148697D01*
X123027226Y-58148698D01*
X123046628Y-58153680D01*
X123065031Y-58159980D01*
X123083420Y-58167938D01*
X123126569Y-58174771D01*
X123137995Y-58177138D01*
X123153537Y-58181129D01*
X123180295Y-58188000D01*
X123180296Y-58188000D01*
X123200331Y-58188000D01*
X123219728Y-58189527D01*
X123247080Y-58193859D01*
X123310215Y-58223788D01*
X123347147Y-58283099D01*
X123346149Y-58352962D01*
X123332619Y-58376224D01*
X123334982Y-58377523D01*
X123317785Y-58408801D01*
X123307109Y-58425055D01*
X123294826Y-58440890D01*
X123277475Y-58480985D01*
X123272338Y-58491471D01*
X123251302Y-58529734D01*
X123246321Y-58549136D01*
X123240020Y-58567538D01*
X123232061Y-58585929D01*
X123225228Y-58629069D01*
X123222860Y-58640501D01*
X123212000Y-58682804D01*
X123212000Y-58702843D01*
X123210472Y-58722241D01*
X123207340Y-58742023D01*
X123211450Y-58785500D01*
X123212000Y-58797170D01*
X123212000Y-61964104D01*
X123209735Y-61984614D01*
X123211939Y-62054720D01*
X123212000Y-62058615D01*
X123212000Y-62086198D01*
X123212488Y-62090067D01*
X123212489Y-62090073D01*
X123212504Y-62090191D01*
X123213418Y-62101815D01*
X123214790Y-62145474D01*
X123220379Y-62164708D01*
X123224325Y-62183764D01*
X123226835Y-62203640D01*
X123242914Y-62244252D01*
X123246697Y-62255299D01*
X123258882Y-62297239D01*
X123269080Y-62314483D01*
X123277636Y-62331948D01*
X123285014Y-62350580D01*
X123285015Y-62350581D01*
X123310680Y-62385907D01*
X123317093Y-62395670D01*
X123339326Y-62433264D01*
X123339329Y-62433267D01*
X123339330Y-62433268D01*
X123353495Y-62447433D01*
X123366127Y-62462223D01*
X123377906Y-62478435D01*
X123411558Y-62506274D01*
X123420199Y-62514137D01*
X123853352Y-62947290D01*
X123882713Y-62994017D01*
X123884012Y-62997731D01*
X123884013Y-62997733D01*
X123939870Y-63157364D01*
X124018301Y-63282185D01*
X124029850Y-63300565D01*
X124104604Y-63375319D01*
X124138089Y-63436642D01*
X124133105Y-63506334D01*
X124091233Y-63562267D01*
X124025769Y-63586684D01*
X124016923Y-63587000D01*
X123887280Y-63587000D01*
X123883266Y-63587528D01*
X123883257Y-63587529D01*
X123766184Y-63602941D01*
X123733816Y-63602941D01*
X123616742Y-63587529D01*
X123616734Y-63587528D01*
X123612720Y-63587000D01*
X123387280Y-63587000D01*
X123383266Y-63587528D01*
X123383257Y-63587529D01*
X123266184Y-63602941D01*
X123233816Y-63602941D01*
X123116742Y-63587529D01*
X123116734Y-63587528D01*
X123112720Y-63587000D01*
X122887280Y-63587000D01*
X122883266Y-63587528D01*
X122883257Y-63587529D01*
X122766184Y-63602941D01*
X122733816Y-63602941D01*
X122616742Y-63587529D01*
X122616734Y-63587528D01*
X122612720Y-63587000D01*
X122387280Y-63587000D01*
X122383266Y-63587528D01*
X122383257Y-63587529D01*
X122266184Y-63602941D01*
X122233816Y-63602941D01*
X122116742Y-63587529D01*
X122116734Y-63587528D01*
X122112720Y-63587000D01*
X121887280Y-63587000D01*
X121883266Y-63587528D01*
X121883257Y-63587529D01*
X121766184Y-63602941D01*
X121733816Y-63602941D01*
X121616742Y-63587529D01*
X121616734Y-63587528D01*
X121612720Y-63587000D01*
X121387280Y-63587000D01*
X121383266Y-63587528D01*
X121383257Y-63587529D01*
X121266181Y-63602942D01*
X121233812Y-63602942D01*
X121116740Y-63587529D01*
X121116736Y-63587528D01*
X121112720Y-63587000D01*
X120887280Y-63587000D01*
X120883266Y-63587528D01*
X120883257Y-63587529D01*
X120766184Y-63602941D01*
X120733816Y-63602941D01*
X120616742Y-63587529D01*
X120616734Y-63587528D01*
X120612720Y-63587000D01*
X120387280Y-63587000D01*
X120383266Y-63587528D01*
X120383257Y-63587529D01*
X120266184Y-63602941D01*
X120233816Y-63602941D01*
X120116742Y-63587529D01*
X120116734Y-63587528D01*
X120112720Y-63587000D01*
X119887280Y-63587000D01*
X119883266Y-63587528D01*
X119883257Y-63587529D01*
X119800195Y-63598464D01*
X119731160Y-63587698D01*
X119678905Y-63541317D01*
X119660020Y-63474048D01*
X119679018Y-63409552D01*
X119686308Y-63397951D01*
X119730456Y-63327690D01*
X119786313Y-63168059D01*
X119805249Y-63000000D01*
X119802414Y-62974843D01*
X119786313Y-62831943D01*
X119786313Y-62831941D01*
X119730456Y-62672310D01*
X119640477Y-62529110D01*
X119520890Y-62409523D01*
X119377690Y-62319544D01*
X119218059Y-62263687D01*
X119218058Y-62263686D01*
X119218056Y-62263686D01*
X119049999Y-62244750D01*
X118950294Y-62255984D01*
X118881472Y-62243929D01*
X118830093Y-62196580D01*
X118812469Y-62128970D01*
X118813471Y-62116587D01*
X118825500Y-62025220D01*
X118825500Y-61864484D01*
X118845185Y-61797445D01*
X118897989Y-61751690D01*
X118963383Y-61741264D01*
X119087500Y-61755249D01*
X119255559Y-61736313D01*
X119415190Y-61680456D01*
X119558390Y-61590477D01*
X119677977Y-61470890D01*
X119767956Y-61327690D01*
X119823813Y-61168059D01*
X119842749Y-61000000D01*
X119823813Y-60831941D01*
X119767956Y-60672310D01*
X119677977Y-60529110D01*
X119558390Y-60409523D01*
X119519609Y-60385155D01*
X119473318Y-60332820D01*
X119462671Y-60263767D01*
X119491046Y-60199919D01*
X119495156Y-60195315D01*
X119535463Y-60152392D01*
X119538049Y-60149723D01*
X119557620Y-60130154D01*
X119560065Y-60127000D01*
X119567654Y-60118113D01*
X119597562Y-60086266D01*
X119607213Y-60068710D01*
X119617893Y-60052451D01*
X119630174Y-60036620D01*
X119647518Y-59996535D01*
X119652660Y-59986040D01*
X119673697Y-59947776D01*
X119678678Y-59928372D01*
X119684980Y-59909967D01*
X119692938Y-59891579D01*
X119699770Y-59848432D01*
X119702139Y-59837000D01*
X119713000Y-59794704D01*
X119713000Y-59774667D01*
X119714527Y-59755268D01*
X119717660Y-59735488D01*
X119713550Y-59692008D01*
X119713000Y-59680339D01*
X119713000Y-59450874D01*
X119732006Y-59384902D01*
X119767956Y-59327690D01*
X119823813Y-59168059D01*
X119842749Y-59000000D01*
X119823813Y-58831941D01*
X119767956Y-58672310D01*
X119740487Y-58628594D01*
X119721487Y-58561359D01*
X119741854Y-58494524D01*
X119795122Y-58449310D01*
X119859365Y-58439403D01*
X120000000Y-58455249D01*
X120168059Y-58436313D01*
X120327690Y-58380456D01*
X120470890Y-58290477D01*
X120590477Y-58170890D01*
X120680456Y-58027690D01*
X120736313Y-57868059D01*
X120738813Y-57845863D01*
X120765880Y-57781449D01*
X120823475Y-57741894D01*
X120878219Y-57736807D01*
X120887280Y-57738000D01*
X120891333Y-57738000D01*
X121108667Y-57738000D01*
X121112720Y-57738000D01*
X121225236Y-57723187D01*
X121225238Y-57723185D01*
X121233814Y-57722057D01*
X121266186Y-57722057D01*
X121274761Y-57723185D01*
G37*
%TD.AperFunction*%
%TA.AperFunction,Conductor*%
G36*
X118301884Y-55620185D02*
G01*
X118347639Y-55672989D01*
X118357784Y-55740686D01*
X118350529Y-55795790D01*
X118350000Y-55803863D01*
X118349999Y-56349999D01*
X118350000Y-56350000D01*
X118725500Y-56350000D01*
X118792539Y-56369685D01*
X118838294Y-56422489D01*
X118849500Y-56474000D01*
X118849500Y-56526000D01*
X118829815Y-56593039D01*
X118777011Y-56638794D01*
X118725500Y-56650000D01*
X118350000Y-56650000D01*
X118350000Y-56701770D01*
X118330315Y-56768809D01*
X118277511Y-56814564D01*
X118208353Y-56824508D01*
X118144797Y-56795483D01*
X118138319Y-56789452D01*
X118103248Y-56754381D01*
X118058390Y-56709523D01*
X117915190Y-56619544D01*
X117755559Y-56563687D01*
X117755558Y-56563686D01*
X117755556Y-56563686D01*
X117587500Y-56544750D01*
X117419443Y-56563686D01*
X117259810Y-56619544D01*
X117116608Y-56709524D01*
X116997024Y-56829108D01*
X116907044Y-56972310D01*
X116851186Y-57131943D01*
X116845995Y-57178015D01*
X116818928Y-57242428D01*
X116770228Y-57278691D01*
X116634764Y-57334802D01*
X116629165Y-57339099D01*
X116563995Y-57364291D01*
X116510217Y-57353259D01*
X116509378Y-57355659D01*
X116496191Y-57351044D01*
X116496190Y-57351044D01*
X116336559Y-57295187D01*
X116336558Y-57295186D01*
X116336556Y-57295186D01*
X116168500Y-57276250D01*
X116000443Y-57295186D01*
X115840809Y-57351044D01*
X115765472Y-57398382D01*
X115698235Y-57417382D01*
X115631400Y-57397014D01*
X115586186Y-57343746D01*
X115575500Y-57293388D01*
X115575500Y-55782739D01*
X115577763Y-55762241D01*
X115577672Y-55759333D01*
X115576699Y-55728395D01*
X115594267Y-55660772D01*
X115645607Y-55613380D01*
X115700638Y-55600500D01*
X118234845Y-55600500D01*
X118301884Y-55620185D01*
G37*
%TD.AperFunction*%
%TA.AperFunction,Conductor*%
G36*
X108707454Y-45584978D02*
G01*
X108758206Y-45620388D01*
X108759589Y-45621999D01*
X108759591Y-45622002D01*
X108779410Y-45645088D01*
X108788856Y-45657616D01*
X108805599Y-45683020D01*
X108847300Y-45724721D01*
X108853705Y-45731632D01*
X108892130Y-45776391D01*
X108892131Y-45776392D01*
X108892134Y-45776395D01*
X108916198Y-45795022D01*
X108927968Y-45805389D01*
X109265837Y-46143258D01*
X109299322Y-46204581D01*
X109295198Y-46271893D01*
X109261269Y-46368857D01*
X109231908Y-46415584D01*
X107306208Y-48341284D01*
X107290110Y-48354181D01*
X107242096Y-48405310D01*
X107239392Y-48408101D01*
X107222628Y-48424865D01*
X107222621Y-48424872D01*
X107219880Y-48427614D01*
X107217499Y-48430682D01*
X107217490Y-48430693D01*
X107217411Y-48430796D01*
X107209842Y-48439657D01*
X107179935Y-48471505D01*
X107170285Y-48489059D01*
X107159609Y-48505313D01*
X107147326Y-48521148D01*
X107129975Y-48561243D01*
X107124838Y-48571729D01*
X107103802Y-48609992D01*
X107098821Y-48629394D01*
X107092520Y-48647796D01*
X107084561Y-48666187D01*
X107077728Y-48709327D01*
X107075360Y-48720759D01*
X107064499Y-48763062D01*
X107064500Y-48783101D01*
X107062973Y-48802499D01*
X107059840Y-48822279D01*
X107063950Y-48865758D01*
X107064500Y-48877428D01*
X107064500Y-49363500D01*
X107044815Y-49430539D01*
X106992011Y-49476294D01*
X106940500Y-49487500D01*
X106700482Y-49487500D01*
X106693867Y-49487854D01*
X106637628Y-49493900D01*
X106502908Y-49544148D01*
X106484724Y-49557761D01*
X106419260Y-49582176D01*
X106350987Y-49567323D01*
X106336112Y-49557763D01*
X106317331Y-49543704D01*
X106182483Y-49493409D01*
X106130816Y-49487854D01*
X106126166Y-49487354D01*
X106126165Y-49487353D01*
X106122873Y-49487000D01*
X106119551Y-49487000D01*
X106038924Y-49487000D01*
X105971885Y-49467315D01*
X105926130Y-49414511D01*
X105916186Y-49345353D01*
X105945211Y-49281797D01*
X105997968Y-49245959D01*
X106074065Y-49219332D01*
X106217265Y-49129353D01*
X106336852Y-49009766D01*
X106426831Y-48866566D01*
X106482688Y-48706935D01*
X106501624Y-48538876D01*
X106482688Y-48370817D01*
X106426831Y-48211186D01*
X106336852Y-48067986D01*
X106217265Y-47948399D01*
X106074065Y-47858420D01*
X105914434Y-47802563D01*
X105914432Y-47802562D01*
X105910718Y-47801263D01*
X105863991Y-47771902D01*
X105861818Y-47769729D01*
X105828333Y-47708406D01*
X105825499Y-47682048D01*
X105825499Y-46994441D01*
X105825499Y-46303278D01*
X105845184Y-46236243D01*
X105861811Y-46215608D01*
X105887324Y-46190095D01*
X105891835Y-46185807D01*
X105946214Y-46136679D01*
X105955751Y-46123690D01*
X105968005Y-46109414D01*
X106097457Y-45979961D01*
X106158775Y-45946480D01*
X106228467Y-45951464D01*
X106284401Y-45993335D01*
X106291990Y-46004735D01*
X106389410Y-46170227D01*
X106514236Y-46308390D01*
X106525823Y-46321215D01*
X106689833Y-46441650D01*
X106874730Y-46526605D01*
X107072946Y-46572603D01*
X107276361Y-46577757D01*
X107276361Y-46577756D01*
X107276363Y-46577757D01*
X107476653Y-46541858D01*
X107665617Y-46466377D01*
X107665619Y-46466376D01*
X107835518Y-46354403D01*
X108019695Y-46170226D01*
X108576442Y-45613477D01*
X108637763Y-45579994D01*
X108707454Y-45584978D01*
G37*
%TD.AperFunction*%
%TD*%
M02*
