%TF.GenerationSoftware,KiCad,Pcbnew,7.0.2*%
%TF.CreationDate,2023-11-21T14:26:12-06:00*%
%TF.ProjectId,BPS-PeripheralSOM,4250532d-5065-4726-9970-686572616c53,rev?*%
%TF.SameCoordinates,Original*%
%TF.FileFunction,Copper,L3,Inr*%
%TF.FilePolarity,Positive*%
%FSLAX46Y46*%
G04 Gerber Fmt 4.6, Leading zero omitted, Abs format (unit mm)*
G04 Created by KiCad (PCBNEW 7.0.2) date 2023-11-21 14:26:12*
%MOMM*%
%LPD*%
G01*
G04 APERTURE LIST*
G04 Aperture macros list*
%AMRotRect*
0 Rectangle, with rotation*
0 The origin of the aperture is its center*
0 $1 length*
0 $2 width*
0 $3 Rotation angle, in degrees counterclockwise*
0 Add horizontal line*
21,1,$1,$2,0,0,$3*%
G04 Aperture macros list end*
%TA.AperFunction,ComponentPad*%
%ADD10RotRect,1.700000X1.700000X45.000000*%
%TD*%
%TA.AperFunction,ComponentPad*%
%ADD11R,1.700000X1.700000*%
%TD*%
%TA.AperFunction,ComponentPad*%
%ADD12O,1.700000X1.700000*%
%TD*%
%TA.AperFunction,ComponentPad*%
%ADD13C,1.700000*%
%TD*%
%TA.AperFunction,ComponentPad*%
%ADD14RotRect,1.700000X1.700000X315.000000*%
%TD*%
%TA.AperFunction,ComponentPad*%
%ADD15O,1.200000X1.900000*%
%TD*%
%TA.AperFunction,ComponentPad*%
%ADD16C,1.450000*%
%TD*%
%TA.AperFunction,ViaPad*%
%ADD17C,0.500000*%
%TD*%
%TA.AperFunction,Conductor*%
%ADD18C,0.250000*%
%TD*%
%TA.AperFunction,Conductor*%
%ADD19C,0.500000*%
%TD*%
G04 APERTURE END LIST*
D10*
%TO.N,GNDPWR*%
%TO.C,TP4*%
X103000000Y-84500000D03*
%TD*%
D11*
%TO.N,+3.3V*%
%TO.C,J1*%
X118200000Y-50000000D03*
D12*
%TO.N,/SWCLK*%
X120740000Y-50000000D03*
%TO.N,/SWDIO*%
X123280000Y-50000000D03*
%TO.N,GND*%
X125820000Y-50000000D03*
%TD*%
D13*
%TO.N,/5V_Ext*%
%TO.C,J4*%
X103500000Y-78500000D03*
%TO.N,GNDPWR*%
X103500000Y-75500000D03*
%TO.N,/CAN_H*%
X103500000Y-72500000D03*
%TO.N,/CAN_L*%
X103500000Y-69500000D03*
%TD*%
D14*
%TO.N,GND*%
%TO.C,TP6*%
X103000000Y-45500000D03*
%TD*%
D11*
%TO.N,/CAN_L*%
%TO.C,JP2*%
X111460000Y-87000000D03*
D12*
%TO.N,/CAN/TERM_H*%
X114000000Y-87000000D03*
%TD*%
D14*
%TO.N,+3.3V*%
%TO.C,TP1*%
X105500000Y-43000000D03*
%TD*%
D15*
%TO.N,GND*%
%TO.C,J3*%
X136500000Y-41500000D03*
D16*
X135500000Y-44200000D03*
X130500000Y-44200000D03*
D15*
X129500000Y-41500000D03*
%TD*%
D13*
%TO.N,/5V_Ext*%
%TO.C,J2*%
X103500000Y-60500000D03*
%TO.N,GNDPWR*%
X103500000Y-57500000D03*
%TO.N,/CAN_H*%
X103500000Y-54500000D03*
%TO.N,/CAN_L*%
X103500000Y-51500000D03*
%TD*%
D10*
%TO.N,+5V_ISO*%
%TO.C,TP3*%
X105500000Y-87000000D03*
%TD*%
D17*
%TO.N,+5V*%
X135000000Y-81500000D03*
X136900000Y-87700000D03*
X138000000Y-81500000D03*
X137400000Y-85000000D03*
X138900000Y-86300000D03*
%TO.N,GND*%
X119000000Y-63000000D03*
X129800000Y-67000000D03*
X108600000Y-49700000D03*
X119800000Y-73900000D03*
X111050000Y-77500000D03*
X135200000Y-74600000D03*
X119900000Y-57703185D03*
X132700000Y-88700000D03*
X128480585Y-58978793D03*
X121700000Y-79200000D03*
X132400000Y-87300000D03*
X130400000Y-52200000D03*
X134200000Y-89000000D03*
X124300000Y-59000000D03*
X136500000Y-65900000D03*
X138800000Y-62000000D03*
X121100000Y-73900000D03*
X112100000Y-62000000D03*
X131900000Y-48900000D03*
X133800000Y-74600000D03*
X138600000Y-48800000D03*
X108600000Y-44700000D03*
X133600000Y-65300000D03*
%TO.N,+3.3V*%
X130300000Y-73600000D03*
X138800000Y-61200000D03*
X129900000Y-51000000D03*
X131500000Y-72600000D03*
X133100000Y-64000000D03*
X136300000Y-63900000D03*
X131000000Y-55912500D03*
X120500000Y-59000000D03*
X123000000Y-63000000D03*
X115900000Y-81200000D03*
X123968518Y-69000000D03*
X120500000Y-63000000D03*
X123000000Y-59000000D03*
X133700000Y-51000000D03*
%TO.N,/NRST*%
X122000000Y-66200000D03*
X114900000Y-63100000D03*
%TO.N,GNDPWR*%
X109200000Y-71500000D03*
X130500000Y-88000000D03*
X108000000Y-80000000D03*
X128000000Y-89000000D03*
X130500000Y-84000000D03*
X128700000Y-78300000D03*
X125400000Y-78300000D03*
X130500000Y-80000000D03*
X110800000Y-73100000D03*
%TO.N,/SPI2_MOSI*%
X128400000Y-58049999D03*
X123300000Y-57700000D03*
%TO.N,/SPI2_NSS*%
X133200000Y-63000000D03*
%TO.N,/SPI2_SCK*%
X133400000Y-62200000D03*
%TO.N,/SPI2_MISO*%
X131100026Y-58079573D03*
%TO.N,/SPI1_SCK*%
X128400000Y-66049999D03*
%TO.N,/SPI1_NSS*%
X129954641Y-67945359D03*
%TO.N,/SPI1_MOSI*%
X131105100Y-67950001D03*
X130412500Y-62000000D03*
%TO.N,/SPI1_MISO*%
X132122872Y-66701627D03*
%TO.N,/5V_Ext*%
X126700000Y-88500000D03*
X126000000Y-87500000D03*
%TO.N,/PA1*%
X136800000Y-68400000D03*
%TO.N,Net-(D2-A)*%
X137500000Y-75412500D03*
%TO.N,/I2C1_SCL*%
X124400000Y-61000000D03*
X137500000Y-66000000D03*
%TO.N,/I2C1_SDA*%
X136500000Y-66800000D03*
X124400000Y-63000000D03*
%TO.N,/I2C2_SCL*%
X138800000Y-63600000D03*
X127193413Y-59506587D03*
%TO.N,Net-(U4-VBUS)*%
X135000000Y-49912500D03*
%TO.N,Net-(U1-PA5)*%
X128587500Y-64000000D03*
%TO.N,Net-(U1-PA7)*%
X128587500Y-62000000D03*
%TO.N,/USART1_RX*%
X123500000Y-52750000D03*
X125800000Y-52700000D03*
%TO.N,GNDA*%
X132000000Y-70425500D03*
X138429500Y-65200000D03*
X125500000Y-73400000D03*
%TO.N,VDDA*%
X138800000Y-64400000D03*
X126500000Y-70700000D03*
%TO.N,+5V_ISO*%
X126000000Y-80000000D03*
X109900000Y-82400000D03*
X128300000Y-84700000D03*
X130500000Y-78000000D03*
X113000000Y-83000000D03*
X127000000Y-77700000D03*
X130500000Y-82000000D03*
X130500000Y-86000000D03*
X129500000Y-86300000D03*
%TO.N,/CAN_H*%
X111087500Y-79500000D03*
%TO.N,/PB1*%
X121700000Y-59700000D03*
X114900000Y-61000000D03*
%TO.N,/I2C2_PU_EN*%
X122200000Y-57700000D03*
%TO.N,/PA2*%
X137500000Y-67600000D03*
%TO.N,Net-(J3-VBUS)*%
X137000000Y-48087500D03*
%TO.N,Net-(J3-D-)*%
X135900000Y-47050000D03*
X132400000Y-52700000D03*
%TO.N,Net-(J3-D+)*%
X131300000Y-52700000D03*
X135900000Y-51200000D03*
%TO.N,/PB2*%
X127400000Y-60600000D03*
X121600000Y-76300000D03*
%TO.N,Net-(IC1-1GATE)*%
X133000000Y-55900000D03*
%TO.N,/I2C2_SDA*%
X127300000Y-58500000D03*
X138800000Y-62800000D03*
%TO.N,Net-(IC1-2DRAIN_1)*%
X137000000Y-54100000D03*
%TO.N,Net-(IC1-1DRAIN_1)*%
X135000000Y-54087500D03*
%TO.N,Net-(U4-~{RST})*%
X133931802Y-47144268D03*
%TD*%
D18*
%TO.N,/NRST*%
X122000000Y-62900000D02*
X122000000Y-66200000D01*
X116400000Y-61600000D02*
X120700000Y-61600000D01*
X120700000Y-61600000D02*
X122000000Y-62900000D01*
X114900000Y-63100000D02*
X116400000Y-61600000D01*
%TO.N,/I2C1_SCL*%
X128017194Y-64617194D02*
X128500000Y-64617194D01*
X136117194Y-64617194D02*
X128500000Y-64617194D01*
X124400000Y-61000000D02*
X128017194Y-64617194D01*
X137500000Y-66000000D02*
X136117194Y-64617194D01*
%TO.N,/I2C1_SDA*%
X134000000Y-66800000D02*
X132300000Y-65100000D01*
X136500000Y-66800000D02*
X134000000Y-66800000D01*
X126500000Y-65100000D02*
X124400000Y-63000000D01*
X132300000Y-65100000D02*
X126500000Y-65100000D01*
%TO.N,/I2C2_SCL*%
X127406587Y-59506587D02*
X128050000Y-60150000D01*
X134875000Y-60150000D02*
X138325000Y-63600000D01*
X128050000Y-60150000D02*
X134875000Y-60150000D01*
X138325000Y-63600000D02*
X138800000Y-63600000D01*
X127193413Y-59506587D02*
X127406587Y-59506587D01*
D19*
%TO.N,GNDA*%
X135764450Y-70425500D02*
X132000000Y-70425500D01*
X137500000Y-68686196D02*
X137500000Y-68689950D01*
X138429500Y-67756696D02*
X137500000Y-68686196D01*
X137500000Y-68689950D02*
X135764450Y-70425500D01*
X138429500Y-65200000D02*
X138429500Y-67756696D01*
%TO.N,VDDA*%
X139129500Y-64729500D02*
X139129500Y-69870500D01*
X137874500Y-71125500D02*
X126925500Y-71125500D01*
X126925500Y-71125500D02*
X126500000Y-70700000D01*
X139129500Y-69870500D02*
X137874500Y-71125500D01*
X138800000Y-64400000D02*
X139129500Y-64729500D01*
D18*
%TO.N,/PB1*%
X115700000Y-60200000D02*
X114900000Y-61000000D01*
X121200000Y-60200000D02*
X115700000Y-60200000D01*
X121700000Y-59700000D02*
X121200000Y-60200000D01*
%TO.N,Net-(J3-D-)*%
X135400000Y-52700000D02*
X136500000Y-51600000D01*
X136200000Y-47350000D02*
X135900000Y-47050000D01*
X132400000Y-52700000D02*
X135400000Y-52700000D01*
X136500000Y-51600000D02*
X136500000Y-50700000D01*
X136500000Y-50700000D02*
X136200000Y-50400000D01*
X136200000Y-50400000D02*
X136200000Y-47350000D01*
%TO.N,Net-(J3-D+)*%
X131900000Y-52100000D02*
X135000000Y-52100000D01*
X135000000Y-52100000D02*
X135900000Y-51200000D01*
X131300000Y-52700000D02*
X131900000Y-52100000D01*
%TO.N,/I2C2_SDA*%
X127300000Y-58613173D02*
X128386827Y-59700000D01*
X138300000Y-62800000D02*
X138800000Y-62800000D01*
X135200000Y-59700000D02*
X138300000Y-62800000D01*
X127300000Y-58500000D02*
X127300000Y-58613173D01*
X128386827Y-59700000D02*
X135200000Y-59700000D01*
%TD*%
%TA.AperFunction,Conductor*%
%TO.N,+5V*%
G36*
X139007279Y-80500717D02*
G01*
X139021029Y-80502071D01*
X139180496Y-80517777D01*
X139209126Y-80523472D01*
X139368641Y-80571860D01*
X139395619Y-80583034D01*
X139542635Y-80661616D01*
X139566911Y-80677837D01*
X139645025Y-80741944D01*
X139689950Y-80804635D01*
X139699500Y-80857121D01*
X139699500Y-85996332D01*
X139699321Y-86003643D01*
X139682044Y-86355310D01*
X139680610Y-86369862D01*
X139629489Y-86714490D01*
X139626637Y-86728831D01*
X139541979Y-87066809D01*
X139537734Y-87080802D01*
X139420358Y-87408843D01*
X139414762Y-87422352D01*
X139265796Y-87737315D01*
X139258904Y-87750210D01*
X139079784Y-88049055D01*
X139071660Y-88061214D01*
X138864112Y-88341058D01*
X138854836Y-88352360D01*
X138620858Y-88610518D01*
X138610518Y-88620858D01*
X138352360Y-88854836D01*
X138341058Y-88864112D01*
X138159347Y-88998879D01*
X138061208Y-89071663D01*
X138049055Y-89079784D01*
X137750210Y-89258904D01*
X137737315Y-89265796D01*
X137422352Y-89414762D01*
X137408843Y-89420358D01*
X137080802Y-89537734D01*
X137066809Y-89541979D01*
X136728831Y-89626637D01*
X136714490Y-89629489D01*
X136369862Y-89680610D01*
X136355310Y-89682044D01*
X136003644Y-89699321D01*
X135996333Y-89699500D01*
X134844757Y-89699500D01*
X134770257Y-89679538D01*
X134715719Y-89625000D01*
X134695757Y-89550500D01*
X134707099Y-89493481D01*
X134707220Y-89493186D01*
X134710386Y-89485545D01*
X134720484Y-89457322D01*
X134768869Y-89297819D01*
X134776155Y-89268733D01*
X134781853Y-89240085D01*
X134786251Y-89210434D01*
X134803311Y-89037224D01*
X134803461Y-89035360D01*
X134804413Y-89022280D01*
X134804512Y-89020490D01*
X134805131Y-89007675D01*
X134805188Y-89005835D01*
X134805500Y-88992674D01*
X134805511Y-88990844D01*
X134805500Y-88007325D01*
X134805466Y-88005491D01*
X134805131Y-87992324D01*
X134805053Y-87990512D01*
X134804413Y-87977719D01*
X134804289Y-87975867D01*
X134803311Y-87962775D01*
X134803146Y-87960992D01*
X134786432Y-87791406D01*
X134786251Y-87789565D01*
X134781853Y-87759914D01*
X134776155Y-87731266D01*
X134768869Y-87702180D01*
X134720484Y-87542677D01*
X134710383Y-87514445D01*
X134699205Y-87487460D01*
X134686388Y-87460362D01*
X134607816Y-87313364D01*
X134592408Y-87287657D01*
X134576181Y-87263370D01*
X134558317Y-87239282D01*
X134533821Y-87209433D01*
X134501990Y-87139179D01*
X134500000Y-87114909D01*
X134500000Y-81507325D01*
X134500717Y-81492721D01*
X134501934Y-81480362D01*
X134517777Y-81319502D01*
X134523472Y-81290875D01*
X134571861Y-81131354D01*
X134583038Y-81104374D01*
X134661610Y-80957376D01*
X134677837Y-80933089D01*
X134740183Y-80857121D01*
X134783584Y-80804235D01*
X134804237Y-80783583D01*
X134933089Y-80677837D01*
X134957376Y-80661610D01*
X135104374Y-80583038D01*
X135131354Y-80571861D01*
X135290875Y-80523472D01*
X135319502Y-80517777D01*
X135480362Y-80501934D01*
X135492721Y-80500717D01*
X135507325Y-80500000D01*
X138992675Y-80500000D01*
X139007279Y-80500717D01*
G37*
%TD.AperFunction*%
%TD*%
%TA.AperFunction,Conductor*%
%TO.N,GND*%
G36*
X127593065Y-86000717D02*
G01*
X127598731Y-86001275D01*
X127766283Y-86017777D01*
X127794913Y-86023472D01*
X127954428Y-86071860D01*
X127981406Y-86083034D01*
X128128422Y-86161616D01*
X128152700Y-86177839D01*
X128287232Y-86288247D01*
X128298066Y-86298066D01*
X129000000Y-87000000D01*
X133492675Y-87000000D01*
X133507279Y-87000717D01*
X133521029Y-87002071D01*
X133680496Y-87017777D01*
X133709126Y-87023472D01*
X133868641Y-87071860D01*
X133895625Y-87083038D01*
X134042623Y-87161610D01*
X134066910Y-87177837D01*
X134195762Y-87283583D01*
X134216416Y-87304237D01*
X134322162Y-87433089D01*
X134338389Y-87457376D01*
X134416961Y-87604374D01*
X134428139Y-87631359D01*
X134476524Y-87790862D01*
X134482222Y-87819510D01*
X134499282Y-87992720D01*
X134500000Y-88007325D01*
X134500000Y-88992674D01*
X134499282Y-89007279D01*
X134482222Y-89180489D01*
X134476524Y-89209137D01*
X134428139Y-89368640D01*
X134416962Y-89395625D01*
X134338389Y-89542626D01*
X134322161Y-89566912D01*
X134258057Y-89645024D01*
X134195364Y-89689950D01*
X134142878Y-89699500D01*
X128431628Y-89699500D01*
X128357128Y-89679538D01*
X128302590Y-89625000D01*
X128282628Y-89550500D01*
X128302590Y-89476000D01*
X128340921Y-89432291D01*
X128392621Y-89392621D01*
X128480861Y-89277625D01*
X128536330Y-89143709D01*
X128555250Y-89000000D01*
X128554285Y-88992674D01*
X128536330Y-88856291D01*
X128522655Y-88823277D01*
X128480861Y-88722375D01*
X128445816Y-88676704D01*
X128392621Y-88607378D01*
X128277625Y-88519139D01*
X128143708Y-88463669D01*
X128000000Y-88444749D01*
X127856291Y-88463669D01*
X127722374Y-88519139D01*
X127607378Y-88607378D01*
X127507197Y-88737938D01*
X127505399Y-88736558D01*
X127475526Y-88775485D01*
X127447844Y-88786948D01*
X127462894Y-88823277D01*
X127462894Y-88862180D01*
X127444749Y-88999999D01*
X127463669Y-89143708D01*
X127519139Y-89277625D01*
X127588977Y-89368640D01*
X127607379Y-89392621D01*
X127659077Y-89432291D01*
X127706030Y-89493480D01*
X127716097Y-89569948D01*
X127686582Y-89641205D01*
X127625392Y-89688158D01*
X127568372Y-89699500D01*
X127357122Y-89699500D01*
X127282622Y-89679538D01*
X127241944Y-89645025D01*
X127177839Y-89566913D01*
X127161616Y-89542635D01*
X127083034Y-89395619D01*
X127071860Y-89368640D01*
X127044251Y-89277625D01*
X127023472Y-89209126D01*
X127017777Y-89180496D01*
X127004791Y-89048645D01*
X127017355Y-88972549D01*
X127062366Y-88915835D01*
X127092621Y-88892621D01*
X127180861Y-88777625D01*
X127180861Y-88777624D01*
X127192803Y-88762062D01*
X127194600Y-88763441D01*
X127224459Y-88724525D01*
X127252155Y-88713051D01*
X127237103Y-88676704D01*
X127237104Y-88637822D01*
X127255250Y-88500000D01*
X127236330Y-88356291D01*
X127180861Y-88222375D01*
X127092621Y-88107379D01*
X127058293Y-88081038D01*
X127011341Y-88019847D01*
X127007393Y-87999999D01*
X129944749Y-87999999D01*
X129963669Y-88143708D01*
X130019139Y-88277625D01*
X130107378Y-88392621D01*
X130175313Y-88444749D01*
X130222375Y-88480861D01*
X130356291Y-88536330D01*
X130500000Y-88555250D01*
X130643709Y-88536330D01*
X130777625Y-88480861D01*
X130892621Y-88392621D01*
X130980861Y-88277625D01*
X131036330Y-88143709D01*
X131055250Y-88000000D01*
X131036330Y-87856291D01*
X130980861Y-87722375D01*
X130960329Y-87695618D01*
X130892621Y-87607378D01*
X130777625Y-87519139D01*
X130643708Y-87463669D01*
X130500000Y-87444749D01*
X130356291Y-87463669D01*
X130222374Y-87519139D01*
X130107378Y-87607378D01*
X130019139Y-87722374D01*
X129963669Y-87856291D01*
X129944749Y-87999999D01*
X127007393Y-87999999D01*
X127000000Y-87962829D01*
X127000000Y-87504881D01*
X127000000Y-87504880D01*
X127000000Y-87500000D01*
X127000000Y-87499999D01*
X127000000Y-87000000D01*
X126500000Y-87000000D01*
X126390038Y-86985523D01*
X126352467Y-86975456D01*
X126268122Y-86940519D01*
X126234437Y-86921071D01*
X126162005Y-86865491D01*
X126134508Y-86837994D01*
X126078927Y-86765560D01*
X126059480Y-86731877D01*
X126024543Y-86647532D01*
X126014476Y-86609960D01*
X126002560Y-86519448D01*
X126002560Y-86480552D01*
X126014477Y-86390035D01*
X126024541Y-86352472D01*
X126059482Y-86268118D01*
X126078924Y-86234442D01*
X126134511Y-86162001D01*
X126162001Y-86134511D01*
X126234442Y-86078924D01*
X126268118Y-86059482D01*
X126352472Y-86024541D01*
X126390035Y-86014477D01*
X126490315Y-86001274D01*
X126509763Y-86000000D01*
X127578461Y-86000000D01*
X127593065Y-86000717D01*
G37*
%TD.AperFunction*%
%TD*%
%TA.AperFunction,Conductor*%
%TO.N,+3.3V*%
G36*
X128701936Y-40320185D02*
G01*
X128747691Y-40372989D01*
X128757635Y-40442147D01*
X128736672Y-40495334D01*
X128681888Y-40574045D01*
X128620705Y-40661950D01*
X128540460Y-40848941D01*
X128499499Y-41048260D01*
X128499500Y-41492814D01*
X128499500Y-41900742D01*
X128499816Y-41903853D01*
X128499817Y-41903865D01*
X128514926Y-42052440D01*
X128545868Y-42151058D01*
X128575841Y-42246588D01*
X128674591Y-42424502D01*
X128807134Y-42578895D01*
X128968042Y-42703448D01*
X129150729Y-42793060D01*
X129347715Y-42844063D01*
X129550936Y-42854369D01*
X129550936Y-42854368D01*
X129550937Y-42854369D01*
X129752071Y-42823556D01*
X129834413Y-42793060D01*
X129942887Y-42752886D01*
X130085748Y-42663840D01*
X130115568Y-42645254D01*
X130115568Y-42645253D01*
X130115571Y-42645252D01*
X130263053Y-42505059D01*
X130379295Y-42338049D01*
X130459540Y-42151058D01*
X130500500Y-41951741D01*
X130500500Y-41099258D01*
X130485074Y-40947562D01*
X130424159Y-40753412D01*
X130325409Y-40575498D01*
X130265120Y-40505270D01*
X130236388Y-40441582D01*
X130246650Y-40372470D01*
X130292648Y-40319877D01*
X130359206Y-40300500D01*
X135634897Y-40300500D01*
X135701936Y-40320185D01*
X135747691Y-40372989D01*
X135757635Y-40442147D01*
X135736672Y-40495334D01*
X135681888Y-40574045D01*
X135620705Y-40661950D01*
X135579724Y-40757448D01*
X135540460Y-40848942D01*
X135499500Y-41048259D01*
X135499500Y-41900742D01*
X135499816Y-41903853D01*
X135499817Y-41903865D01*
X135514926Y-42052440D01*
X135545868Y-42151058D01*
X135575841Y-42246588D01*
X135674591Y-42424502D01*
X135807134Y-42578895D01*
X135968042Y-42703448D01*
X136150729Y-42793060D01*
X136347715Y-42844063D01*
X136550936Y-42854369D01*
X136550936Y-42854368D01*
X136550937Y-42854369D01*
X136752071Y-42823556D01*
X136834413Y-42793060D01*
X136942887Y-42752886D01*
X137085748Y-42663840D01*
X137115568Y-42645254D01*
X137115568Y-42645253D01*
X137115571Y-42645252D01*
X137263053Y-42505059D01*
X137379295Y-42338049D01*
X137459540Y-42151058D01*
X137500500Y-41951741D01*
X137500500Y-41099258D01*
X137485074Y-40947562D01*
X137447342Y-40827304D01*
X137446055Y-40757448D01*
X137482740Y-40697983D01*
X137545750Y-40667792D01*
X137615080Y-40676460D01*
X137618672Y-40678089D01*
X137660735Y-40697983D01*
X137738433Y-40734731D01*
X137749150Y-40740459D01*
X138050102Y-40920843D01*
X138060217Y-40927601D01*
X138295905Y-41102399D01*
X138342049Y-41136622D01*
X138351455Y-41144342D01*
X138611436Y-41379974D01*
X138620025Y-41388563D01*
X138714515Y-41492817D01*
X138855657Y-41648544D01*
X138863377Y-41657950D01*
X139072396Y-41939779D01*
X139079156Y-41949897D01*
X139256985Y-42246587D01*
X139259533Y-42250837D01*
X139265270Y-42261570D01*
X139415289Y-42578762D01*
X139419945Y-42590003D01*
X139538147Y-42920353D01*
X139541680Y-42931998D01*
X139626934Y-43272351D01*
X139629308Y-43284287D01*
X139680791Y-43631359D01*
X139681984Y-43643468D01*
X139699351Y-43996965D01*
X139699500Y-44003050D01*
X139699500Y-61961382D01*
X139688471Y-61998940D01*
X139697821Y-62018278D01*
X139699500Y-62038617D01*
X139699500Y-62761382D01*
X139688471Y-62798940D01*
X139697821Y-62818278D01*
X139699500Y-62838617D01*
X139699500Y-63561382D01*
X139688471Y-63598940D01*
X139697821Y-63618278D01*
X139699500Y-63638617D01*
X139699500Y-64080191D01*
X139679815Y-64147230D01*
X139627011Y-64192985D01*
X139557853Y-64202929D01*
X139494297Y-64173904D01*
X139487819Y-64167873D01*
X139440110Y-64120164D01*
X139389686Y-64069740D01*
X139356203Y-64008420D01*
X139361187Y-63938728D01*
X139375317Y-63911624D01*
X139380220Y-63904523D01*
X139436237Y-63756818D01*
X139452403Y-63623670D01*
X139461106Y-63603449D01*
X139456523Y-63596317D01*
X139452404Y-63576329D01*
X139447906Y-63539283D01*
X139436237Y-63443182D01*
X139380220Y-63295477D01*
X139362937Y-63270438D01*
X139341055Y-63204086D01*
X139358520Y-63136435D01*
X139362925Y-63129577D01*
X139380220Y-63104523D01*
X139436237Y-62956818D01*
X139452403Y-62823670D01*
X139461106Y-62803449D01*
X139456523Y-62796317D01*
X139452404Y-62776329D01*
X139447184Y-62733342D01*
X139436237Y-62643182D01*
X139380220Y-62495477D01*
X139362937Y-62470438D01*
X139341055Y-62404086D01*
X139358520Y-62336435D01*
X139362925Y-62329577D01*
X139380220Y-62304523D01*
X139436237Y-62156818D01*
X139452403Y-62023670D01*
X139461106Y-62003449D01*
X139456523Y-61996317D01*
X139452404Y-61976329D01*
X139449956Y-61956171D01*
X139436237Y-61843182D01*
X139380220Y-61695477D01*
X139304763Y-61586158D01*
X139290484Y-61565471D01*
X139272456Y-61549500D01*
X139172240Y-61460717D01*
X139158994Y-61453764D01*
X139032364Y-61387303D01*
X138878985Y-61349500D01*
X138721015Y-61349500D01*
X138567635Y-61387303D01*
X138427761Y-61460716D01*
X138309515Y-61565471D01*
X138219779Y-61695477D01*
X138210484Y-61719986D01*
X138168305Y-61775687D01*
X138102707Y-61799743D01*
X138034517Y-61784515D01*
X138006862Y-61763693D01*
X136625675Y-60382506D01*
X137520500Y-60382506D01*
X137521683Y-60387304D01*
X137559990Y-60542725D01*
X137636673Y-60688832D01*
X137636675Y-60688835D01*
X137746099Y-60812349D01*
X137746100Y-60812350D01*
X137881900Y-60906087D01*
X137940414Y-60928277D01*
X138036191Y-60964601D01*
X138158895Y-60979500D01*
X138162644Y-60979500D01*
X138237356Y-60979500D01*
X138241105Y-60979500D01*
X138363809Y-60964601D01*
X138518099Y-60906087D01*
X138653901Y-60812349D01*
X138763325Y-60688835D01*
X138840010Y-60542724D01*
X138879500Y-60382506D01*
X138879500Y-60217494D01*
X138840010Y-60057276D01*
X138839333Y-60055987D01*
X138763326Y-59911167D01*
X138763325Y-59911165D01*
X138653901Y-59787651D01*
X138653900Y-59787650D01*
X138653899Y-59787649D01*
X138518099Y-59693912D01*
X138363809Y-59635399D01*
X138244825Y-59620951D01*
X138244813Y-59620950D01*
X138241105Y-59620500D01*
X138158895Y-59620500D01*
X138155187Y-59620950D01*
X138155174Y-59620951D01*
X138036190Y-59635399D01*
X137881900Y-59693912D01*
X137746100Y-59787649D01*
X137636673Y-59911167D01*
X137559990Y-60057274D01*
X137533866Y-60163266D01*
X137520500Y-60217494D01*
X137520500Y-60382506D01*
X136625675Y-60382506D01*
X135579441Y-59336272D01*
X135576498Y-59333227D01*
X135534753Y-59288529D01*
X135501488Y-59268300D01*
X135490992Y-59261157D01*
X135459975Y-59237636D01*
X135459973Y-59237635D01*
X135444488Y-59231528D01*
X135425556Y-59222125D01*
X135411327Y-59213473D01*
X135373843Y-59202970D01*
X135361810Y-59198924D01*
X135325586Y-59184639D01*
X135309021Y-59182936D01*
X135288255Y-59178990D01*
X135272228Y-59174500D01*
X135233296Y-59174500D01*
X135220616Y-59173850D01*
X135217031Y-59173481D01*
X135181890Y-59169868D01*
X135166842Y-59172463D01*
X135165486Y-59172697D01*
X135144419Y-59174500D01*
X129252067Y-59174500D01*
X129185028Y-59154815D01*
X129139273Y-59102011D01*
X129128971Y-59035553D01*
X129135863Y-58978792D01*
X129130815Y-58937221D01*
X129116822Y-58821975D01*
X129060805Y-58674270D01*
X128971068Y-58544263D01*
X128971067Y-58544262D01*
X128962515Y-58531872D01*
X128965117Y-58530075D01*
X128940577Y-58490955D01*
X128941343Y-58421090D01*
X128957881Y-58386885D01*
X128980220Y-58354522D01*
X129036237Y-58206817D01*
X129051687Y-58079573D01*
X130444747Y-58079573D01*
X130463789Y-58236391D01*
X130519806Y-58384096D01*
X130609541Y-58514101D01*
X130609542Y-58514102D01*
X130609543Y-58514103D01*
X130727786Y-58618856D01*
X130867661Y-58692269D01*
X131021041Y-58730073D01*
X131179011Y-58730073D01*
X131332391Y-58692269D01*
X131472266Y-58618856D01*
X131590509Y-58514103D01*
X131680246Y-58384096D01*
X131736263Y-58236391D01*
X131755304Y-58079573D01*
X131736263Y-57922755D01*
X131680246Y-57775050D01*
X131590509Y-57645043D01*
X131472266Y-57540290D01*
X131415918Y-57510716D01*
X131332390Y-57466876D01*
X131179011Y-57429073D01*
X131021041Y-57429073D01*
X130867661Y-57466876D01*
X130727787Y-57540289D01*
X130609541Y-57645044D01*
X130519806Y-57775049D01*
X130463789Y-57922754D01*
X130444747Y-58079573D01*
X129051687Y-58079573D01*
X129055278Y-58049999D01*
X129036237Y-57893181D01*
X128980220Y-57745476D01*
X128910897Y-57645044D01*
X128890484Y-57615470D01*
X128890483Y-57615469D01*
X128772240Y-57510716D01*
X128688711Y-57466876D01*
X128632364Y-57437302D01*
X128478985Y-57399499D01*
X128321015Y-57399499D01*
X128167635Y-57437302D01*
X128027761Y-57510715D01*
X127909515Y-57615470D01*
X127819780Y-57745475D01*
X127776841Y-57858695D01*
X127734662Y-57914397D01*
X127669065Y-57938454D01*
X127603273Y-57924519D01*
X127532366Y-57887303D01*
X127378985Y-57849500D01*
X127221015Y-57849500D01*
X127067635Y-57887303D01*
X126927761Y-57960716D01*
X126809515Y-58065471D01*
X126719780Y-58195476D01*
X126663763Y-58343181D01*
X126644721Y-58500000D01*
X126663763Y-58656818D01*
X126719780Y-58804523D01*
X126765573Y-58870866D01*
X126787456Y-58937221D01*
X126769991Y-59004872D01*
X126745751Y-59034121D01*
X126702929Y-59072057D01*
X126613193Y-59202063D01*
X126557176Y-59349768D01*
X126538134Y-59506586D01*
X126557176Y-59663405D01*
X126613193Y-59811110D01*
X126702928Y-59941115D01*
X126702929Y-59941116D01*
X126702930Y-59941117D01*
X126821173Y-60045870D01*
X126822688Y-60046665D01*
X126829376Y-60053136D01*
X126832443Y-60055853D01*
X126832323Y-60055987D01*
X126872900Y-60095247D01*
X126888876Y-60163266D01*
X126867114Y-60226900D01*
X126819779Y-60295477D01*
X126763763Y-60443181D01*
X126744721Y-60600000D01*
X126763763Y-60756818D01*
X126819780Y-60904523D01*
X126909515Y-61034528D01*
X126909516Y-61034529D01*
X126909517Y-61034530D01*
X127027760Y-61139283D01*
X127167635Y-61212696D01*
X127321015Y-61250500D01*
X127478985Y-61250500D01*
X127632365Y-61212696D01*
X127772240Y-61139283D01*
X127890483Y-61034530D01*
X127980220Y-60904523D01*
X128036237Y-60756818D01*
X128036236Y-60756818D01*
X128036726Y-60755529D01*
X128078904Y-60699826D01*
X128144501Y-60675769D01*
X128152668Y-60675500D01*
X134605968Y-60675500D01*
X134673007Y-60695185D01*
X134693649Y-60711819D01*
X137945557Y-63963727D01*
X137948500Y-63966772D01*
X137990243Y-64011468D01*
X137990245Y-64011469D01*
X138023505Y-64031694D01*
X138033985Y-64038827D01*
X138065025Y-64062365D01*
X138080521Y-64068475D01*
X138099446Y-64077875D01*
X138113672Y-64086526D01*
X138113673Y-64086526D01*
X138114592Y-64087085D01*
X138161644Y-64138737D01*
X138173301Y-64207628D01*
X138166107Y-64236999D01*
X138163763Y-64243179D01*
X138158869Y-64283481D01*
X138156787Y-64295580D01*
X138147239Y-64338295D01*
X138147965Y-64361389D01*
X138147122Y-64380226D01*
X138144721Y-64399998D01*
X138150067Y-64444021D01*
X138150910Y-64455072D01*
X138152895Y-64518225D01*
X138151358Y-64518273D01*
X138151212Y-64569033D01*
X138113269Y-64627702D01*
X138089965Y-64643551D01*
X138057258Y-64660717D01*
X138044460Y-64672055D01*
X138028686Y-64683928D01*
X138011560Y-64694797D01*
X137979666Y-64728759D01*
X137971506Y-64736686D01*
X137939015Y-64765470D01*
X137927166Y-64782638D01*
X137915511Y-64797079D01*
X137899051Y-64814607D01*
X137878417Y-64852138D01*
X137871810Y-64862833D01*
X137849280Y-64895475D01*
X137840546Y-64918504D01*
X137833269Y-64934263D01*
X137819872Y-64958632D01*
X137810150Y-64996494D01*
X137805991Y-65009618D01*
X137793261Y-65043185D01*
X137789840Y-65071360D01*
X137786850Y-65087243D01*
X137779000Y-65117820D01*
X137779000Y-65153147D01*
X137778096Y-65168096D01*
X137773877Y-65202837D01*
X137746254Y-65267014D01*
X137688319Y-65306070D01*
X137618466Y-65307603D01*
X137588194Y-65294934D01*
X137481384Y-65232485D01*
X137456290Y-65213120D01*
X136496635Y-64253466D01*
X136493692Y-64250421D01*
X136451947Y-64205723D01*
X136418682Y-64185494D01*
X136408186Y-64178351D01*
X136402322Y-64173904D01*
X136377169Y-64154830D01*
X136377167Y-64154829D01*
X136361682Y-64148722D01*
X136342750Y-64139319D01*
X136328521Y-64130667D01*
X136291037Y-64120164D01*
X136279004Y-64116118D01*
X136242780Y-64101833D01*
X136226215Y-64100130D01*
X136205449Y-64096184D01*
X136189422Y-64091694D01*
X136150490Y-64091694D01*
X136137810Y-64091044D01*
X136134225Y-64090675D01*
X136099084Y-64087062D01*
X136084036Y-64089657D01*
X136082680Y-64089891D01*
X136061613Y-64091694D01*
X129363766Y-64091694D01*
X129296727Y-64072009D01*
X129250972Y-64019205D01*
X129240670Y-63982640D01*
X129238558Y-63965243D01*
X129223737Y-63843182D01*
X129167720Y-63695477D01*
X129092263Y-63586158D01*
X129077984Y-63565471D01*
X129077983Y-63565470D01*
X128959740Y-63460717D01*
X128926330Y-63443182D01*
X128819864Y-63387303D01*
X128666485Y-63349500D01*
X128508515Y-63349500D01*
X128355135Y-63387303D01*
X128215261Y-63460716D01*
X128097015Y-63565471D01*
X128022936Y-63672794D01*
X127968653Y-63716785D01*
X127899204Y-63724444D01*
X127836639Y-63693340D01*
X127833205Y-63690035D01*
X127143169Y-62999999D01*
X132544721Y-62999999D01*
X132563763Y-63156818D01*
X132619780Y-63304523D01*
X132709515Y-63434528D01*
X132709516Y-63434529D01*
X132709517Y-63434530D01*
X132827760Y-63539283D01*
X132967635Y-63612696D01*
X133121015Y-63650500D01*
X133278985Y-63650500D01*
X133432365Y-63612696D01*
X133572240Y-63539283D01*
X133690483Y-63434530D01*
X133780220Y-63304523D01*
X133836237Y-63156818D01*
X133855278Y-63000000D01*
X133836237Y-62843182D01*
X133820998Y-62803002D01*
X133815632Y-62733342D01*
X133848779Y-62671835D01*
X133854716Y-62666216D01*
X133890483Y-62634530D01*
X133918459Y-62593999D01*
X133980220Y-62504523D01*
X134036237Y-62356818D01*
X134055278Y-62200000D01*
X134036237Y-62043182D01*
X133980220Y-61895477D01*
X133903629Y-61784515D01*
X133890484Y-61765471D01*
X133888477Y-61763693D01*
X133772240Y-61660717D01*
X133680745Y-61612696D01*
X133632364Y-61587303D01*
X133478985Y-61549500D01*
X133321015Y-61549500D01*
X133167635Y-61587303D01*
X133027761Y-61660716D01*
X132909515Y-61765471D01*
X132819780Y-61895476D01*
X132763763Y-62043181D01*
X132744721Y-62200000D01*
X132763763Y-62356818D01*
X132779000Y-62396995D01*
X132784367Y-62466659D01*
X132751219Y-62528165D01*
X132745286Y-62533780D01*
X132709518Y-62565467D01*
X132619780Y-62695476D01*
X132563763Y-62843181D01*
X132544721Y-62999999D01*
X127143169Y-62999999D01*
X126143168Y-61999999D01*
X127932221Y-61999999D01*
X127951263Y-62156818D01*
X128007280Y-62304523D01*
X128097015Y-62434528D01*
X128097016Y-62434529D01*
X128097017Y-62434530D01*
X128215260Y-62539283D01*
X128355135Y-62612696D01*
X128508515Y-62650500D01*
X128666485Y-62650500D01*
X128819865Y-62612696D01*
X128959740Y-62539283D01*
X129077983Y-62434530D01*
X129167720Y-62304523D01*
X129223737Y-62156818D01*
X129242778Y-62000000D01*
X129242778Y-61999999D01*
X129757221Y-61999999D01*
X129776263Y-62156818D01*
X129832280Y-62304523D01*
X129922015Y-62434528D01*
X129922016Y-62434529D01*
X129922017Y-62434530D01*
X130040260Y-62539283D01*
X130180135Y-62612696D01*
X130333515Y-62650500D01*
X130491485Y-62650500D01*
X130644865Y-62612696D01*
X130784740Y-62539283D01*
X130902983Y-62434530D01*
X130992720Y-62304523D01*
X131048737Y-62156818D01*
X131067778Y-62000000D01*
X131048737Y-61843182D01*
X130992720Y-61695477D01*
X130917263Y-61586158D01*
X130902984Y-61565471D01*
X130884956Y-61549500D01*
X130784740Y-61460717D01*
X130771494Y-61453765D01*
X130644864Y-61387303D01*
X130491485Y-61349500D01*
X130333515Y-61349500D01*
X130180135Y-61387303D01*
X130040261Y-61460716D01*
X129922015Y-61565471D01*
X129832280Y-61695476D01*
X129776263Y-61843181D01*
X129757221Y-61999999D01*
X129242778Y-61999999D01*
X129223737Y-61843182D01*
X129167720Y-61695477D01*
X129092263Y-61586158D01*
X129077984Y-61565471D01*
X129059956Y-61549500D01*
X128959740Y-61460717D01*
X128946494Y-61453764D01*
X128819864Y-61387303D01*
X128666485Y-61349500D01*
X128508515Y-61349500D01*
X128355135Y-61387303D01*
X128215261Y-61460716D01*
X128097015Y-61565471D01*
X128007280Y-61695476D01*
X127951263Y-61843181D01*
X127932221Y-61999999D01*
X126143168Y-61999999D01*
X125186878Y-61043709D01*
X125167513Y-61018615D01*
X125156629Y-61000000D01*
X124988465Y-60712380D01*
X124980768Y-60696271D01*
X124890484Y-60565471D01*
X124864809Y-60542725D01*
X124772240Y-60460717D01*
X124738830Y-60443182D01*
X124632364Y-60387303D01*
X124478985Y-60349500D01*
X124321015Y-60349500D01*
X124167635Y-60387303D01*
X124027761Y-60460716D01*
X123909515Y-60565471D01*
X123819780Y-60695476D01*
X123763763Y-60843181D01*
X123744721Y-60999999D01*
X123763763Y-61156818D01*
X123819780Y-61304523D01*
X123909515Y-61434528D01*
X123909516Y-61434529D01*
X123909517Y-61434530D01*
X124027760Y-61539283D01*
X124081843Y-61567668D01*
X124102778Y-61581527D01*
X124108433Y-61586158D01*
X124418614Y-61767513D01*
X124443708Y-61786878D01*
X124922857Y-62266027D01*
X124956342Y-62327350D01*
X124951358Y-62397042D01*
X124909486Y-62452975D01*
X124844022Y-62477392D01*
X124777549Y-62463504D01*
X124772241Y-62460718D01*
X124772240Y-62460717D01*
X124656555Y-62400000D01*
X124632364Y-62387303D01*
X124478985Y-62349500D01*
X124321015Y-62349500D01*
X124167635Y-62387303D01*
X124027761Y-62460716D01*
X123909515Y-62565471D01*
X123819780Y-62695476D01*
X123763763Y-62843181D01*
X123744721Y-62999999D01*
X123763763Y-63156818D01*
X123819780Y-63304523D01*
X123909515Y-63434528D01*
X123909516Y-63434529D01*
X123909517Y-63434530D01*
X124027760Y-63539283D01*
X124081843Y-63567668D01*
X124102778Y-63581527D01*
X124108433Y-63586158D01*
X124418614Y-63767513D01*
X124443708Y-63786878D01*
X126120544Y-65463713D01*
X126123486Y-65466757D01*
X126165243Y-65511467D01*
X126165245Y-65511469D01*
X126198507Y-65531695D01*
X126208998Y-65538836D01*
X126231342Y-65555779D01*
X126240025Y-65562364D01*
X126255512Y-65568471D01*
X126274443Y-65577873D01*
X126288672Y-65586526D01*
X126326165Y-65597031D01*
X126338179Y-65601071D01*
X126374410Y-65615359D01*
X126381359Y-65616073D01*
X126390966Y-65617061D01*
X126411747Y-65621010D01*
X126427771Y-65625500D01*
X126427772Y-65625500D01*
X126466703Y-65625500D01*
X126479382Y-65626149D01*
X126490599Y-65627303D01*
X126518108Y-65630131D01*
X126518108Y-65630130D01*
X126518109Y-65630131D01*
X126534512Y-65627302D01*
X126555580Y-65625500D01*
X127685636Y-65625500D01*
X127752675Y-65645185D01*
X127798430Y-65697989D01*
X127808374Y-65767147D01*
X127801578Y-65793471D01*
X127763763Y-65893180D01*
X127744721Y-66049999D01*
X127763763Y-66206817D01*
X127819780Y-66354522D01*
X127909515Y-66484527D01*
X127909516Y-66484528D01*
X127909517Y-66484529D01*
X128027760Y-66589282D01*
X128167635Y-66662695D01*
X128321015Y-66700499D01*
X128478985Y-66700499D01*
X128632365Y-66662695D01*
X128772240Y-66589282D01*
X128890483Y-66484529D01*
X128980220Y-66354522D01*
X129036237Y-66206817D01*
X129055278Y-66049999D01*
X129036237Y-65893181D01*
X128998421Y-65793470D01*
X128993055Y-65723808D01*
X129026203Y-65662302D01*
X129087341Y-65628480D01*
X129114364Y-65625500D01*
X132030968Y-65625500D01*
X132098007Y-65645185D01*
X132118649Y-65661819D01*
X132296276Y-65839446D01*
X132329761Y-65900769D01*
X132324777Y-65970461D01*
X132282905Y-66026394D01*
X132217441Y-66050811D01*
X132208595Y-66051127D01*
X132043887Y-66051127D01*
X131890507Y-66088930D01*
X131750633Y-66162343D01*
X131632387Y-66267098D01*
X131542652Y-66397103D01*
X131486635Y-66544808D01*
X131467593Y-66701627D01*
X131486635Y-66858445D01*
X131542652Y-67006150D01*
X131632387Y-67136155D01*
X131632388Y-67136156D01*
X131632389Y-67136157D01*
X131750632Y-67240910D01*
X131890507Y-67314323D01*
X132043887Y-67352127D01*
X132201857Y-67352127D01*
X132355237Y-67314323D01*
X132495112Y-67240910D01*
X132613355Y-67136157D01*
X132703092Y-67006150D01*
X132759109Y-66858445D01*
X132778150Y-66701627D01*
X132768903Y-66625475D01*
X132780363Y-66556555D01*
X132827266Y-66504769D01*
X132894722Y-66486561D01*
X132961313Y-66507713D01*
X132979680Y-66522850D01*
X133620544Y-67163713D01*
X133623486Y-67166757D01*
X133665243Y-67211467D01*
X133665245Y-67211469D01*
X133698507Y-67231695D01*
X133708998Y-67238836D01*
X133731342Y-67255779D01*
X133740025Y-67262364D01*
X133755510Y-67268470D01*
X133774444Y-67277874D01*
X133788672Y-67286526D01*
X133826156Y-67297028D01*
X133838186Y-67301073D01*
X133874411Y-67315359D01*
X133890972Y-67317061D01*
X133911733Y-67321005D01*
X133927772Y-67325500D01*
X133966704Y-67325500D01*
X133979383Y-67326149D01*
X133990600Y-67327303D01*
X134018109Y-67330131D01*
X134018109Y-67330130D01*
X134018110Y-67330131D01*
X134034513Y-67327302D01*
X134055581Y-67325500D01*
X135912687Y-67325500D01*
X135944123Y-67329550D01*
X136291691Y-67420644D01*
X136295038Y-67421506D01*
X136298912Y-67421858D01*
X136317356Y-67424950D01*
X136421015Y-67450500D01*
X136421016Y-67450500D01*
X136578984Y-67450500D01*
X136578985Y-67450500D01*
X136697208Y-67421361D01*
X136767009Y-67424430D01*
X136824071Y-67464750D01*
X136850277Y-67529519D01*
X136849978Y-67556703D01*
X136844721Y-67599999D01*
X136846003Y-67610555D01*
X136834542Y-67679478D01*
X136787638Y-67731264D01*
X136722907Y-67749500D01*
X136721015Y-67749500D01*
X136567635Y-67787303D01*
X136427761Y-67860716D01*
X136309515Y-67965471D01*
X136219780Y-68095476D01*
X136163763Y-68243181D01*
X136144721Y-68399999D01*
X136163763Y-68556818D01*
X136219780Y-68704523D01*
X136302249Y-68824001D01*
X136324132Y-68890356D01*
X136306666Y-68958007D01*
X136287880Y-68982122D01*
X135531323Y-69738681D01*
X135470000Y-69772166D01*
X135443642Y-69775000D01*
X131921013Y-69775000D01*
X131887978Y-69783141D01*
X131873852Y-69785765D01*
X131836940Y-69790428D01*
X131809340Y-69801356D01*
X131793373Y-69806459D01*
X131767638Y-69812802D01*
X131734188Y-69830358D01*
X131722214Y-69835851D01*
X131684130Y-69850930D01*
X131663153Y-69866171D01*
X131647899Y-69875646D01*
X131627760Y-69886216D01*
X131596675Y-69913754D01*
X131587339Y-69921252D01*
X131551162Y-69947537D01*
X131537033Y-69964615D01*
X131523725Y-69978381D01*
X131509515Y-69990970D01*
X131483794Y-70028233D01*
X131477292Y-70036828D01*
X131446400Y-70074172D01*
X131438567Y-70090818D01*
X131428423Y-70108453D01*
X131419781Y-70120974D01*
X131402391Y-70166825D01*
X131398649Y-70175646D01*
X131376421Y-70222884D01*
X131373680Y-70237252D01*
X131367822Y-70257977D01*
X131363762Y-70268684D01*
X131357397Y-70321089D01*
X131356107Y-70329368D01*
X131355347Y-70333353D01*
X131347550Y-70374231D01*
X131315655Y-70436395D01*
X131255214Y-70471448D01*
X131225746Y-70475000D01*
X127246308Y-70475000D01*
X127179269Y-70455315D01*
X127158627Y-70438681D01*
X127009743Y-70289797D01*
X126995374Y-70272556D01*
X126990483Y-70265470D01*
X126948864Y-70228599D01*
X126943411Y-70223465D01*
X126933787Y-70213841D01*
X126931035Y-70211089D01*
X126918661Y-70201490D01*
X126912461Y-70196349D01*
X126872240Y-70160717D01*
X126862938Y-70155835D01*
X126844576Y-70144025D01*
X126833764Y-70135638D01*
X126833763Y-70135637D01*
X126833761Y-70135636D01*
X126784993Y-70114532D01*
X126776614Y-70110527D01*
X126732364Y-70087302D01*
X126718501Y-70083885D01*
X126698941Y-70077294D01*
X126682926Y-70070364D01*
X126634133Y-70062636D01*
X126623863Y-70060561D01*
X126578985Y-70049500D01*
X126560955Y-70049500D01*
X126541556Y-70047973D01*
X126520596Y-70044653D01*
X126520595Y-70044653D01*
X126498558Y-70046736D01*
X126475139Y-70048950D01*
X126463470Y-70049500D01*
X126421014Y-70049500D01*
X126399838Y-70054718D01*
X126381846Y-70057768D01*
X126356970Y-70060120D01*
X126317552Y-70074311D01*
X126305230Y-70078037D01*
X126267632Y-70087304D01*
X126244997Y-70099184D01*
X126229382Y-70106054D01*
X126202333Y-70115792D01*
X126170781Y-70137235D01*
X126158715Y-70144469D01*
X126127763Y-70160715D01*
X126127761Y-70160716D01*
X126127760Y-70160717D01*
X126105803Y-70180167D01*
X126093287Y-70189900D01*
X126066397Y-70208174D01*
X126043657Y-70233967D01*
X126032877Y-70244772D01*
X126009519Y-70265465D01*
X125990721Y-70292700D01*
X125981687Y-70304259D01*
X125957708Y-70331457D01*
X125943804Y-70358746D01*
X125935372Y-70372887D01*
X125919777Y-70395480D01*
X125906718Y-70429915D01*
X125901263Y-70442235D01*
X125883092Y-70477899D01*
X125877230Y-70504123D01*
X125872160Y-70521038D01*
X125863763Y-70543179D01*
X125858869Y-70583481D01*
X125856787Y-70595580D01*
X125847239Y-70638295D01*
X125847965Y-70661389D01*
X125847122Y-70680226D01*
X125844721Y-70699998D01*
X125850067Y-70744021D01*
X125850910Y-70755072D01*
X125852402Y-70802571D01*
X125857796Y-70821136D01*
X125861814Y-70840778D01*
X125863761Y-70856814D01*
X125880821Y-70901798D01*
X125883952Y-70911166D01*
X125898256Y-70960398D01*
X125905170Y-70972090D01*
X125906181Y-70973799D01*
X125915388Y-70992942D01*
X125919780Y-71004524D01*
X125949231Y-71047190D01*
X125953913Y-71054509D01*
X125981919Y-71101865D01*
X125990257Y-71110203D01*
X126004625Y-71127443D01*
X126009517Y-71134530D01*
X126051133Y-71171399D01*
X126056587Y-71176533D01*
X126405064Y-71525010D01*
X126418411Y-71541669D01*
X126471332Y-71591364D01*
X126474129Y-71594075D01*
X126494465Y-71614411D01*
X126497536Y-71616793D01*
X126497937Y-71617104D01*
X126506823Y-71624692D01*
X126540107Y-71655948D01*
X126558699Y-71666169D01*
X126574962Y-71676852D01*
X126591734Y-71689862D01*
X126591735Y-71689862D01*
X126591736Y-71689863D01*
X126633647Y-71707999D01*
X126644128Y-71713134D01*
X126684132Y-71735127D01*
X126704683Y-71740403D01*
X126723094Y-71746706D01*
X126742574Y-71755136D01*
X126787678Y-71762279D01*
X126799097Y-71764644D01*
X126843323Y-71776000D01*
X126864545Y-71776000D01*
X126883943Y-71777526D01*
X126904905Y-71780847D01*
X126946819Y-71776884D01*
X126950361Y-71776550D01*
X126962030Y-71776000D01*
X137788995Y-71776000D01*
X137810204Y-71778341D01*
X137812794Y-71778259D01*
X137812796Y-71778260D01*
X137882762Y-71776060D01*
X137886657Y-71776000D01*
X137911525Y-71776000D01*
X137915425Y-71776000D01*
X137919794Y-71775447D01*
X137931439Y-71774530D01*
X137977069Y-71773097D01*
X137997449Y-71767175D01*
X138016489Y-71763232D01*
X138037558Y-71760571D01*
X138080020Y-71743758D01*
X138091057Y-71739980D01*
X138134898Y-71727244D01*
X138153170Y-71716436D01*
X138170636Y-71707880D01*
X138190371Y-71700068D01*
X138227316Y-71673225D01*
X138237048Y-71666832D01*
X138276365Y-71643581D01*
X138291374Y-71628571D01*
X138306163Y-71615939D01*
X138323337Y-71603463D01*
X138352446Y-71568274D01*
X138360290Y-71559654D01*
X139487821Y-70432123D01*
X139549142Y-70398640D01*
X139618834Y-70403624D01*
X139674767Y-70445496D01*
X139699184Y-70510960D01*
X139699500Y-70519806D01*
X139699500Y-80084417D01*
X139679815Y-80151456D01*
X139627011Y-80197211D01*
X139557853Y-80207155D01*
X139528067Y-80198986D01*
X139525223Y-80197808D01*
X139525193Y-80197796D01*
X139523811Y-80197224D01*
X139522403Y-80196720D01*
X139522387Y-80196714D01*
X139487765Y-80184326D01*
X139487766Y-80184326D01*
X139486351Y-80183820D01*
X139484941Y-80183392D01*
X139484916Y-80183384D01*
X139328272Y-80135867D01*
X139328249Y-80135860D01*
X139326836Y-80135432D01*
X139325390Y-80135069D01*
X139325369Y-80135064D01*
X139289723Y-80126136D01*
X139289715Y-80126134D01*
X139288237Y-80125764D01*
X139286734Y-80125465D01*
X139261102Y-80120366D01*
X139261086Y-80120363D01*
X139259607Y-80120069D01*
X139258118Y-80119848D01*
X139258100Y-80119845D01*
X139221745Y-80114453D01*
X139221741Y-80114452D01*
X139220241Y-80114230D01*
X139218742Y-80114082D01*
X139218731Y-80114081D01*
X139047024Y-80097170D01*
X139045511Y-80097049D01*
X139027164Y-80095705D01*
X139025634Y-80095620D01*
X139012560Y-80094988D01*
X139011035Y-80094941D01*
X138992675Y-80094500D01*
X138991167Y-80094491D01*
X135507325Y-80094500D01*
X135505791Y-80094528D01*
X135487440Y-80094988D01*
X135485926Y-80095053D01*
X135472836Y-80095705D01*
X135471346Y-80095806D01*
X135452976Y-80097169D01*
X135451436Y-80097311D01*
X135281257Y-80114081D01*
X135281246Y-80114082D01*
X135279757Y-80114229D01*
X135278289Y-80114446D01*
X135278263Y-80114450D01*
X135241886Y-80119847D01*
X135241846Y-80119853D01*
X135240383Y-80120071D01*
X135238940Y-80120358D01*
X135238900Y-80120365D01*
X135213240Y-80125470D01*
X135213209Y-80125476D01*
X135211756Y-80125766D01*
X135210311Y-80126127D01*
X135210284Y-80126134D01*
X135174640Y-80135062D01*
X135174600Y-80135072D01*
X135173167Y-80135432D01*
X135171738Y-80135865D01*
X135171718Y-80135871D01*
X135015079Y-80183386D01*
X135015067Y-80183389D01*
X135013646Y-80183821D01*
X135012242Y-80184323D01*
X135012231Y-80184327D01*
X134977603Y-80196717D01*
X134977569Y-80196730D01*
X134976158Y-80197235D01*
X134974775Y-80197808D01*
X134974739Y-80197822D01*
X134950559Y-80207839D01*
X134950528Y-80207852D01*
X134949178Y-80208412D01*
X134947846Y-80209041D01*
X134947828Y-80209050D01*
X134914603Y-80224765D01*
X134914562Y-80224785D01*
X134913223Y-80225419D01*
X134911893Y-80226129D01*
X134911865Y-80226144D01*
X134800501Y-80285670D01*
X134766225Y-80303991D01*
X134764933Y-80304764D01*
X134764900Y-80304784D01*
X134733432Y-80323644D01*
X134733405Y-80323660D01*
X134732102Y-80324442D01*
X134730835Y-80325288D01*
X134730820Y-80325298D01*
X134709070Y-80339830D01*
X134709056Y-80339839D01*
X134707815Y-80340669D01*
X134706620Y-80341554D01*
X134706609Y-80341563D01*
X134677049Y-80363486D01*
X134677034Y-80363497D01*
X134675843Y-80364381D01*
X134674683Y-80365332D01*
X134674674Y-80365340D01*
X134548189Y-80469143D01*
X134548169Y-80469159D01*
X134546991Y-80470127D01*
X134545853Y-80471158D01*
X134545843Y-80471167D01*
X134538527Y-80477798D01*
X134517512Y-80496844D01*
X134516443Y-80497912D01*
X134516424Y-80497931D01*
X134497953Y-80516401D01*
X134497931Y-80516423D01*
X134496859Y-80517496D01*
X134495853Y-80518605D01*
X134495831Y-80518629D01*
X134480392Y-80535664D01*
X134470127Y-80546990D01*
X134469186Y-80548136D01*
X134469171Y-80548154D01*
X134365352Y-80674658D01*
X134365326Y-80674690D01*
X134364380Y-80675844D01*
X134363469Y-80677071D01*
X134363463Y-80677080D01*
X134341594Y-80706566D01*
X134341569Y-80706601D01*
X134340669Y-80707815D01*
X134339835Y-80709063D01*
X134339807Y-80709103D01*
X134325298Y-80730820D01*
X134325288Y-80730835D01*
X134324442Y-80732102D01*
X134323660Y-80733405D01*
X134323644Y-80733432D01*
X134304784Y-80764900D01*
X134304764Y-80764933D01*
X134303991Y-80766225D01*
X134303267Y-80767578D01*
X134303265Y-80767583D01*
X134226144Y-80911865D01*
X134226129Y-80911893D01*
X134225419Y-80913223D01*
X134224785Y-80914562D01*
X134224765Y-80914603D01*
X134209050Y-80947828D01*
X134209041Y-80947846D01*
X134208412Y-80949178D01*
X134207852Y-80950528D01*
X134207839Y-80950559D01*
X134197822Y-80974739D01*
X134197810Y-80974768D01*
X134197235Y-80976158D01*
X134196730Y-80977569D01*
X134196717Y-80977603D01*
X134184327Y-81012231D01*
X134183821Y-81013646D01*
X134183389Y-81015067D01*
X134183386Y-81015079D01*
X134135871Y-81171718D01*
X134135865Y-81171738D01*
X134135432Y-81173167D01*
X134135072Y-81174600D01*
X134135062Y-81174640D01*
X134126134Y-81210284D01*
X134126127Y-81210311D01*
X134125766Y-81211756D01*
X134125476Y-81213209D01*
X134125470Y-81213240D01*
X134120365Y-81238900D01*
X134120358Y-81238940D01*
X134120071Y-81240383D01*
X134119853Y-81241846D01*
X134119847Y-81241886D01*
X134114450Y-81278263D01*
X134114446Y-81278289D01*
X134114229Y-81279757D01*
X134114084Y-81281226D01*
X134114081Y-81281253D01*
X134097169Y-81452976D01*
X134097050Y-81454474D01*
X134095705Y-81472836D01*
X134095619Y-81474381D01*
X134094988Y-81487440D01*
X134094941Y-81488965D01*
X134094500Y-81507325D01*
X134094491Y-81508833D01*
X134094499Y-86549431D01*
X134074814Y-86616470D01*
X134022010Y-86662225D01*
X133952852Y-86672169D01*
X133934504Y-86668092D01*
X133828272Y-86635867D01*
X133828249Y-86635860D01*
X133826836Y-86635432D01*
X133825390Y-86635069D01*
X133825369Y-86635064D01*
X133789723Y-86626136D01*
X133789715Y-86626134D01*
X133788237Y-86625764D01*
X133786734Y-86625465D01*
X133761102Y-86620366D01*
X133761086Y-86620363D01*
X133759607Y-86620069D01*
X133758118Y-86619848D01*
X133758100Y-86619845D01*
X133721745Y-86614453D01*
X133721741Y-86614452D01*
X133720241Y-86614230D01*
X133718742Y-86614082D01*
X133718731Y-86614081D01*
X133547024Y-86597170D01*
X133545511Y-86597049D01*
X133527164Y-86595705D01*
X133525634Y-86595620D01*
X133512560Y-86594988D01*
X133511035Y-86594941D01*
X133492675Y-86594500D01*
X133491167Y-86594491D01*
X131175928Y-86594500D01*
X131108889Y-86574815D01*
X131063134Y-86522011D01*
X131053190Y-86452853D01*
X131080075Y-86391835D01*
X131134659Y-86325324D01*
X131135618Y-86324156D01*
X131159330Y-86292184D01*
X131175557Y-86267897D01*
X131196008Y-86233774D01*
X131274580Y-86086776D01*
X131291592Y-86050808D01*
X131302770Y-86023823D01*
X131316178Y-85986351D01*
X131364563Y-85826848D01*
X131374231Y-85788251D01*
X131379930Y-85759602D01*
X131385771Y-85720232D01*
X131402830Y-85547022D01*
X131402949Y-85545522D01*
X131404294Y-85527163D01*
X131404380Y-85525621D01*
X131405011Y-85512559D01*
X131405058Y-85511034D01*
X131405499Y-85492674D01*
X131405508Y-85491166D01*
X131405499Y-84614793D01*
X131405498Y-84614792D01*
X131405499Y-84611744D01*
X131397707Y-84532635D01*
X131386365Y-84475615D01*
X131385778Y-84473480D01*
X131385773Y-84473459D01*
X131370898Y-84419365D01*
X131370898Y-84419364D01*
X131310361Y-84307870D01*
X131265387Y-84249258D01*
X131265378Y-84249248D01*
X131263408Y-84246680D01*
X131261175Y-84244327D01*
X131261170Y-84244321D01*
X131193815Y-84173345D01*
X131194252Y-84172929D01*
X131158825Y-84133768D01*
X131147396Y-84064910D01*
X131155278Y-83999999D01*
X131146819Y-83930334D01*
X131158279Y-83861410D01*
X131197031Y-83815067D01*
X131212231Y-83804025D01*
X131266769Y-83749487D01*
X131320119Y-83683605D01*
X131371720Y-83567705D01*
X131391682Y-83493205D01*
X131405499Y-83388255D01*
X131405499Y-80611744D01*
X131397707Y-80532635D01*
X131386365Y-80475615D01*
X131385778Y-80473480D01*
X131385773Y-80473459D01*
X131370898Y-80419365D01*
X131370898Y-80419364D01*
X131310361Y-80307870D01*
X131307385Y-80303991D01*
X131265387Y-80249258D01*
X131265378Y-80249248D01*
X131263408Y-80246680D01*
X131261175Y-80244327D01*
X131261170Y-80244321D01*
X131193815Y-80173345D01*
X131194252Y-80172929D01*
X131158825Y-80133768D01*
X131147396Y-80064910D01*
X131155278Y-79999999D01*
X131146819Y-79930334D01*
X131158279Y-79861410D01*
X131197031Y-79815067D01*
X131212231Y-79804025D01*
X131266769Y-79749487D01*
X131320119Y-79683605D01*
X131371720Y-79567705D01*
X131391682Y-79493205D01*
X131405499Y-79388255D01*
X131405499Y-78507325D01*
X131405471Y-78505791D01*
X131405011Y-78487440D01*
X131404946Y-78485926D01*
X131404294Y-78472836D01*
X131404193Y-78471342D01*
X131402830Y-78452977D01*
X131402688Y-78451440D01*
X131385920Y-78281283D01*
X131385919Y-78281272D01*
X131385771Y-78279767D01*
X131379930Y-78240397D01*
X131374231Y-78211748D01*
X131364563Y-78173151D01*
X131316178Y-78013648D01*
X131302770Y-77976176D01*
X131291592Y-77949191D01*
X131274580Y-77913223D01*
X131196008Y-77766225D01*
X131175557Y-77732102D01*
X131159330Y-77707815D01*
X131135618Y-77675843D01*
X131029872Y-77546991D01*
X131003148Y-77517505D01*
X130982494Y-77496851D01*
X130981367Y-77495830D01*
X130981357Y-77495820D01*
X130961668Y-77477976D01*
X130953008Y-77470127D01*
X130824156Y-77364381D01*
X130792184Y-77340669D01*
X130767897Y-77324442D01*
X130766566Y-77323644D01*
X130735098Y-77304784D01*
X130735082Y-77304775D01*
X130733774Y-77303991D01*
X130653462Y-77261063D01*
X130588133Y-77226144D01*
X130588122Y-77226138D01*
X130586776Y-77225419D01*
X130585405Y-77224770D01*
X130585396Y-77224766D01*
X130552159Y-77209045D01*
X130552137Y-77209035D01*
X130550813Y-77208409D01*
X130549456Y-77207846D01*
X130549436Y-77207838D01*
X130528327Y-77199094D01*
X130523829Y-77197231D01*
X130522389Y-77196715D01*
X130522382Y-77196713D01*
X130487785Y-77184333D01*
X130487779Y-77184331D01*
X130486351Y-77183820D01*
X130484918Y-77183385D01*
X130484902Y-77183380D01*
X130328272Y-77135867D01*
X130328249Y-77135860D01*
X130326836Y-77135432D01*
X130325390Y-77135069D01*
X130325369Y-77135064D01*
X130289723Y-77126136D01*
X130289715Y-77126134D01*
X130288237Y-77125764D01*
X130286734Y-77125465D01*
X130261102Y-77120366D01*
X130261086Y-77120363D01*
X130259607Y-77120069D01*
X130258118Y-77119848D01*
X130258100Y-77119845D01*
X130221745Y-77114453D01*
X130221741Y-77114452D01*
X130220241Y-77114230D01*
X130218742Y-77114082D01*
X130218731Y-77114081D01*
X130047024Y-77097170D01*
X130045511Y-77097049D01*
X130027164Y-77095705D01*
X130025634Y-77095620D01*
X130012560Y-77094988D01*
X130011035Y-77094941D01*
X129992675Y-77094500D01*
X129991167Y-77094491D01*
X128956228Y-77094500D01*
X128954183Y-77094550D01*
X128929702Y-77095369D01*
X128927703Y-77095484D01*
X128910253Y-77096644D01*
X128904965Y-77097025D01*
X128781602Y-77126641D01*
X128746865Y-77141029D01*
X128677396Y-77148496D01*
X128648981Y-77139747D01*
X128623224Y-77128279D01*
X128552645Y-77109368D01*
X128552642Y-77109367D01*
X128548722Y-77108317D01*
X128544698Y-77107787D01*
X128544692Y-77107786D01*
X128447791Y-77095029D01*
X128447789Y-77095028D01*
X128443772Y-77094500D01*
X128439719Y-77094500D01*
X127276617Y-77094500D01*
X127246942Y-77090897D01*
X127232365Y-77087304D01*
X127078985Y-77049500D01*
X126921015Y-77049500D01*
X126767635Y-77087304D01*
X126767634Y-77087304D01*
X126753058Y-77090897D01*
X126723383Y-77094500D01*
X125656228Y-77094500D01*
X125654183Y-77094550D01*
X125629702Y-77095369D01*
X125627703Y-77095484D01*
X125610253Y-77096644D01*
X125604965Y-77097025D01*
X125481602Y-77126641D01*
X125446865Y-77141029D01*
X125377396Y-77148496D01*
X125348981Y-77139747D01*
X125323224Y-77128279D01*
X125252645Y-77109368D01*
X125252642Y-77109367D01*
X125248722Y-77108317D01*
X125244698Y-77107787D01*
X125244692Y-77107786D01*
X125147791Y-77095029D01*
X125147789Y-77095028D01*
X125143772Y-77094500D01*
X124507325Y-77094500D01*
X124505791Y-77094528D01*
X124487440Y-77094988D01*
X124485926Y-77095053D01*
X124472836Y-77095705D01*
X124471346Y-77095806D01*
X124452976Y-77097169D01*
X124451436Y-77097311D01*
X124281257Y-77114081D01*
X124281246Y-77114082D01*
X124279757Y-77114229D01*
X124278289Y-77114446D01*
X124278263Y-77114450D01*
X124241886Y-77119847D01*
X124241846Y-77119853D01*
X124240383Y-77120071D01*
X124238940Y-77120358D01*
X124238900Y-77120365D01*
X124213240Y-77125470D01*
X124213209Y-77125476D01*
X124211756Y-77125766D01*
X124210311Y-77126127D01*
X124210284Y-77126134D01*
X124174640Y-77135062D01*
X124174600Y-77135072D01*
X124173167Y-77135432D01*
X124171738Y-77135865D01*
X124171718Y-77135871D01*
X124015079Y-77183386D01*
X124015067Y-77183389D01*
X124013646Y-77183821D01*
X124012242Y-77184323D01*
X124012231Y-77184327D01*
X123977603Y-77196717D01*
X123977569Y-77196730D01*
X123976158Y-77197235D01*
X123974768Y-77197810D01*
X123974739Y-77197822D01*
X123950559Y-77207839D01*
X123950528Y-77207852D01*
X123949178Y-77208412D01*
X123947846Y-77209041D01*
X123947828Y-77209050D01*
X123914603Y-77224765D01*
X123914562Y-77224785D01*
X123913223Y-77225419D01*
X123911893Y-77226129D01*
X123911865Y-77226144D01*
X123767559Y-77303277D01*
X123767528Y-77303294D01*
X123766225Y-77303991D01*
X123764948Y-77304756D01*
X123764938Y-77304762D01*
X123733402Y-77323662D01*
X123733382Y-77323674D01*
X123732115Y-77324434D01*
X123730886Y-77325255D01*
X123730864Y-77325269D01*
X123709104Y-77339806D01*
X123709071Y-77339829D01*
X123707829Y-77340659D01*
X123706610Y-77341563D01*
X123706582Y-77341583D01*
X123677066Y-77363472D01*
X123677033Y-77363497D01*
X123675842Y-77364381D01*
X123674696Y-77365321D01*
X123674671Y-77365341D01*
X123548187Y-77469145D01*
X123548167Y-77469161D01*
X123546989Y-77470129D01*
X123545870Y-77471142D01*
X123545840Y-77471169D01*
X123518646Y-77495815D01*
X123518618Y-77495841D01*
X123517512Y-77496844D01*
X123516443Y-77497912D01*
X123516424Y-77497931D01*
X123497953Y-77516401D01*
X123497939Y-77516416D01*
X123496859Y-77517496D01*
X123495853Y-77518605D01*
X123495831Y-77518629D01*
X123471145Y-77545867D01*
X123470127Y-77546990D01*
X123469186Y-77548136D01*
X123469171Y-77548154D01*
X123365352Y-77674658D01*
X123365340Y-77674674D01*
X123364380Y-77675844D01*
X123363469Y-77677071D01*
X123363463Y-77677080D01*
X123341594Y-77706566D01*
X123341569Y-77706601D01*
X123340669Y-77707815D01*
X123339835Y-77709063D01*
X123339807Y-77709103D01*
X123325298Y-77730820D01*
X123325288Y-77730835D01*
X123324442Y-77732102D01*
X123323660Y-77733405D01*
X123323644Y-77733432D01*
X123304784Y-77764900D01*
X123304764Y-77764933D01*
X123303991Y-77766225D01*
X123303267Y-77767578D01*
X123303265Y-77767583D01*
X123226144Y-77911865D01*
X123226129Y-77911893D01*
X123225419Y-77913223D01*
X123224785Y-77914562D01*
X123224765Y-77914603D01*
X123209050Y-77947828D01*
X123209041Y-77947846D01*
X123208412Y-77949178D01*
X123207852Y-77950528D01*
X123207839Y-77950559D01*
X123197822Y-77974739D01*
X123197810Y-77974768D01*
X123197235Y-77976158D01*
X123196730Y-77977569D01*
X123196717Y-77977603D01*
X123184327Y-78012231D01*
X123183821Y-78013646D01*
X123183389Y-78015067D01*
X123183386Y-78015079D01*
X123135871Y-78171718D01*
X123135869Y-78171725D01*
X123135432Y-78173167D01*
X123135072Y-78174600D01*
X123135062Y-78174640D01*
X123126134Y-78210284D01*
X123126127Y-78210311D01*
X123125766Y-78211756D01*
X123125476Y-78213209D01*
X123125470Y-78213240D01*
X123120365Y-78238900D01*
X123120358Y-78238940D01*
X123120071Y-78240383D01*
X123119853Y-78241846D01*
X123119847Y-78241886D01*
X123114453Y-78278240D01*
X123114447Y-78278283D01*
X123114229Y-78279757D01*
X123114082Y-78281241D01*
X123114079Y-78281272D01*
X123112235Y-78299999D01*
X123097169Y-78452976D01*
X123097050Y-78454477D01*
X123095705Y-78472836D01*
X123095619Y-78474381D01*
X123094988Y-78487440D01*
X123094941Y-78488965D01*
X123094500Y-78507325D01*
X123094491Y-78508833D01*
X123094500Y-81470500D01*
X123074815Y-81537539D01*
X123022011Y-81583294D01*
X122970500Y-81594500D01*
X112529500Y-81594500D01*
X112462461Y-81574815D01*
X112416706Y-81522011D01*
X112405500Y-81470500D01*
X112405500Y-79200000D01*
X121044721Y-79200000D01*
X121063763Y-79356818D01*
X121119780Y-79504523D01*
X121209515Y-79634528D01*
X121209516Y-79634529D01*
X121209517Y-79634530D01*
X121327760Y-79739283D01*
X121467635Y-79812696D01*
X121621015Y-79850500D01*
X121778985Y-79850500D01*
X121932365Y-79812696D01*
X122072240Y-79739283D01*
X122190483Y-79634530D01*
X122280220Y-79504523D01*
X122336237Y-79356818D01*
X122355278Y-79200000D01*
X122336237Y-79043182D01*
X122280220Y-78895477D01*
X122190483Y-78765470D01*
X122072240Y-78660717D01*
X122058994Y-78653765D01*
X121932364Y-78587303D01*
X121778985Y-78549500D01*
X121621015Y-78549500D01*
X121467635Y-78587303D01*
X121327761Y-78660716D01*
X121209515Y-78765471D01*
X121119780Y-78895476D01*
X121063763Y-79043181D01*
X121044721Y-79200000D01*
X112405500Y-79200000D01*
X112405500Y-76300000D01*
X120944721Y-76300000D01*
X120963763Y-76456818D01*
X121019780Y-76604523D01*
X121109515Y-76734528D01*
X121109516Y-76734529D01*
X121109517Y-76734530D01*
X121227760Y-76839283D01*
X121367635Y-76912696D01*
X121521015Y-76950500D01*
X121678985Y-76950500D01*
X121832365Y-76912696D01*
X121972240Y-76839283D01*
X122090483Y-76734530D01*
X122180220Y-76604523D01*
X122236237Y-76456818D01*
X122255278Y-76300000D01*
X122236237Y-76143182D01*
X122180220Y-75995477D01*
X122090483Y-75865470D01*
X121972240Y-75760717D01*
X121958994Y-75753764D01*
X121832364Y-75687303D01*
X121678985Y-75649500D01*
X121521015Y-75649500D01*
X121367635Y-75687303D01*
X121227761Y-75760716D01*
X121109515Y-75865471D01*
X121019780Y-75995476D01*
X120963763Y-76143181D01*
X120944721Y-76300000D01*
X112405500Y-76300000D01*
X112405500Y-75412499D01*
X136844721Y-75412499D01*
X136863763Y-75569318D01*
X136919780Y-75717023D01*
X137009515Y-75847028D01*
X137009516Y-75847029D01*
X137009517Y-75847030D01*
X137127760Y-75951783D01*
X137267635Y-76025196D01*
X137421015Y-76063000D01*
X137578985Y-76063000D01*
X137732365Y-76025196D01*
X137872240Y-75951783D01*
X137990483Y-75847030D01*
X138080220Y-75717023D01*
X138136237Y-75569318D01*
X138155278Y-75412500D01*
X138136237Y-75255682D01*
X138080220Y-75107977D01*
X137990483Y-74977970D01*
X137872240Y-74873217D01*
X137858994Y-74866265D01*
X137732364Y-74799803D01*
X137578985Y-74762000D01*
X137421015Y-74762000D01*
X137267635Y-74799803D01*
X137127761Y-74873216D01*
X137009515Y-74977971D01*
X136919780Y-75107976D01*
X136863763Y-75255681D01*
X136844721Y-75412499D01*
X112405500Y-75412499D01*
X112405500Y-74600000D01*
X133144721Y-74600000D01*
X133163763Y-74756818D01*
X133219780Y-74904523D01*
X133309515Y-75034528D01*
X133309516Y-75034529D01*
X133309517Y-75034530D01*
X133427760Y-75139283D01*
X133567635Y-75212696D01*
X133721015Y-75250500D01*
X133878985Y-75250500D01*
X134032365Y-75212696D01*
X134172240Y-75139283D01*
X134290483Y-75034530D01*
X134380220Y-74904523D01*
X134384058Y-74894402D01*
X134426236Y-74838700D01*
X134491833Y-74814643D01*
X134560023Y-74829870D01*
X134609157Y-74879545D01*
X134615942Y-74894403D01*
X134619780Y-74904523D01*
X134709515Y-75034528D01*
X134709516Y-75034529D01*
X134709517Y-75034530D01*
X134827760Y-75139283D01*
X134967635Y-75212696D01*
X135121015Y-75250500D01*
X135278985Y-75250500D01*
X135432365Y-75212696D01*
X135572240Y-75139283D01*
X135690483Y-75034530D01*
X135780220Y-74904523D01*
X135836237Y-74756818D01*
X135855278Y-74600000D01*
X135836237Y-74443182D01*
X135780220Y-74295477D01*
X135690483Y-74165470D01*
X135572240Y-74060717D01*
X135480745Y-74012696D01*
X135432364Y-73987303D01*
X135278985Y-73949500D01*
X135121015Y-73949500D01*
X134967635Y-73987303D01*
X134827761Y-74060716D01*
X134709515Y-74165471D01*
X134619780Y-74295476D01*
X134615942Y-74305597D01*
X134573763Y-74361300D01*
X134508165Y-74385356D01*
X134439975Y-74370129D01*
X134390842Y-74320452D01*
X134384058Y-74305597D01*
X134380220Y-74295477D01*
X134290483Y-74165470D01*
X134172240Y-74060717D01*
X134080745Y-74012696D01*
X134032364Y-73987303D01*
X133878985Y-73949500D01*
X133721015Y-73949500D01*
X133567635Y-73987303D01*
X133427761Y-74060716D01*
X133309515Y-74165471D01*
X133219780Y-74295476D01*
X133163763Y-74443181D01*
X133144721Y-74600000D01*
X112405500Y-74600000D01*
X112405500Y-73900000D01*
X119144721Y-73900000D01*
X119163763Y-74056818D01*
X119219780Y-74204523D01*
X119309515Y-74334528D01*
X119309516Y-74334529D01*
X119309517Y-74334530D01*
X119427760Y-74439283D01*
X119567635Y-74512696D01*
X119721015Y-74550500D01*
X119878985Y-74550500D01*
X120032365Y-74512696D01*
X120172240Y-74439283D01*
X120290483Y-74334530D01*
X120347950Y-74251273D01*
X120402233Y-74207284D01*
X120471681Y-74199624D01*
X120534246Y-74230727D01*
X120552050Y-74251274D01*
X120609515Y-74334528D01*
X120609516Y-74334529D01*
X120609517Y-74334530D01*
X120727760Y-74439283D01*
X120867635Y-74512696D01*
X121021015Y-74550500D01*
X121178985Y-74550500D01*
X121332365Y-74512696D01*
X121472240Y-74439283D01*
X121590483Y-74334530D01*
X121680220Y-74204523D01*
X121736237Y-74056818D01*
X121755278Y-73900000D01*
X121736237Y-73743182D01*
X121680220Y-73595477D01*
X121590483Y-73465470D01*
X121516582Y-73400000D01*
X124844721Y-73400000D01*
X124863763Y-73556818D01*
X124919780Y-73704523D01*
X125009515Y-73834528D01*
X125009516Y-73834529D01*
X125009517Y-73834530D01*
X125127760Y-73939283D01*
X125267635Y-74012696D01*
X125421015Y-74050500D01*
X125578985Y-74050500D01*
X125732365Y-74012696D01*
X125872240Y-73939283D01*
X125990483Y-73834530D01*
X126080220Y-73704523D01*
X126136237Y-73556818D01*
X126155278Y-73400000D01*
X126136237Y-73243182D01*
X126080220Y-73095477D01*
X125990483Y-72965470D01*
X125872240Y-72860717D01*
X125858994Y-72853764D01*
X125732364Y-72787303D01*
X125578985Y-72749500D01*
X125421015Y-72749500D01*
X125267635Y-72787303D01*
X125127761Y-72860716D01*
X125009515Y-72965471D01*
X124919780Y-73095476D01*
X124863763Y-73243181D01*
X124844721Y-73400000D01*
X121516582Y-73400000D01*
X121472240Y-73360717D01*
X121458994Y-73353764D01*
X121332364Y-73287303D01*
X121178985Y-73249500D01*
X121021015Y-73249500D01*
X120867635Y-73287303D01*
X120727761Y-73360716D01*
X120609515Y-73465471D01*
X120552050Y-73548725D01*
X120497767Y-73592715D01*
X120428318Y-73600375D01*
X120365754Y-73569271D01*
X120347950Y-73548725D01*
X120290484Y-73465471D01*
X120240893Y-73421538D01*
X120172240Y-73360717D01*
X120158994Y-73353764D01*
X120032364Y-73287303D01*
X119878985Y-73249500D01*
X119721015Y-73249500D01*
X119567635Y-73287303D01*
X119427761Y-73360716D01*
X119309515Y-73465471D01*
X119219780Y-73595476D01*
X119163763Y-73743181D01*
X119144721Y-73900000D01*
X112405500Y-73900000D01*
X112405500Y-73421538D01*
X112405472Y-73420004D01*
X112405012Y-73401653D01*
X112404947Y-73400139D01*
X112404295Y-73387049D01*
X112404193Y-73385538D01*
X112402830Y-73367188D01*
X112402690Y-73365669D01*
X112385918Y-73195478D01*
X112385917Y-73195471D01*
X112385770Y-73193977D01*
X112379930Y-73154606D01*
X112374231Y-73125958D01*
X112364563Y-73087364D01*
X112316178Y-72927861D01*
X112302775Y-72890400D01*
X112291598Y-72863415D01*
X112274580Y-72827435D01*
X112196002Y-72680427D01*
X112175541Y-72646289D01*
X112159317Y-72622009D01*
X112158415Y-72620794D01*
X112158406Y-72620780D01*
X112136518Y-72591270D01*
X112135615Y-72590052D01*
X112025207Y-72455520D01*
X112024234Y-72454379D01*
X112012213Y-72440455D01*
X112011185Y-72439306D01*
X112002394Y-72429621D01*
X112001342Y-72428502D01*
X111988665Y-72415201D01*
X111987612Y-72414136D01*
X107441818Y-67868354D01*
X107408333Y-67807031D01*
X107405499Y-67780673D01*
X107405499Y-63100000D01*
X114244721Y-63100000D01*
X114263763Y-63256818D01*
X114319780Y-63404523D01*
X114409515Y-63534528D01*
X114409516Y-63534529D01*
X114409517Y-63534530D01*
X114527760Y-63639283D01*
X114667635Y-63712696D01*
X114821015Y-63750500D01*
X114978985Y-63750500D01*
X115132365Y-63712696D01*
X115272240Y-63639283D01*
X115390483Y-63534530D01*
X115480220Y-63404523D01*
X115480222Y-63404517D01*
X115480765Y-63403731D01*
X115488468Y-63387613D01*
X115667515Y-63081379D01*
X115686872Y-63056295D01*
X116581349Y-62161819D01*
X116642673Y-62128334D01*
X116669031Y-62125500D01*
X118808584Y-62125500D01*
X118875623Y-62145185D01*
X118921378Y-62197989D01*
X118931322Y-62267147D01*
X118902297Y-62330703D01*
X118843519Y-62368477D01*
X118838258Y-62369897D01*
X118767636Y-62387303D01*
X118627761Y-62460716D01*
X118509515Y-62565471D01*
X118419780Y-62695476D01*
X118363763Y-62843181D01*
X118344721Y-63000000D01*
X118363763Y-63156818D01*
X118419780Y-63304523D01*
X118509515Y-63434528D01*
X118509516Y-63434529D01*
X118509517Y-63434530D01*
X118627760Y-63539283D01*
X118767635Y-63612696D01*
X118921015Y-63650500D01*
X119078985Y-63650500D01*
X119232365Y-63612696D01*
X119372240Y-63539283D01*
X119490483Y-63434530D01*
X119580220Y-63304523D01*
X119636237Y-63156818D01*
X119655278Y-63000000D01*
X119636237Y-62843182D01*
X119580220Y-62695477D01*
X119490483Y-62565470D01*
X119372240Y-62460717D01*
X119232365Y-62387304D01*
X119232364Y-62387303D01*
X119232363Y-62387303D01*
X119161742Y-62369897D01*
X119101361Y-62334741D01*
X119069572Y-62272522D01*
X119076468Y-62202993D01*
X119119859Y-62148230D01*
X119185969Y-62125620D01*
X119191416Y-62125500D01*
X120430968Y-62125500D01*
X120498007Y-62145185D01*
X120518649Y-62161819D01*
X121438181Y-63081350D01*
X121471666Y-63142673D01*
X121474500Y-63169031D01*
X121474500Y-65612684D01*
X121470449Y-65644121D01*
X121379355Y-65991690D01*
X121375995Y-66004743D01*
X121375629Y-66004648D01*
X121371369Y-66023123D01*
X121363763Y-66043178D01*
X121344721Y-66200000D01*
X121349050Y-66235645D01*
X121337590Y-66304569D01*
X121290686Y-66356355D01*
X121223230Y-66374562D01*
X121156639Y-66353410D01*
X121138273Y-66338273D01*
X121036319Y-66236319D01*
X121002834Y-66174996D01*
X121000000Y-66148638D01*
X121000000Y-64200000D01*
X120600000Y-63800000D01*
X119900000Y-63800000D01*
X119899999Y-63800000D01*
X119500000Y-64199999D01*
X119500000Y-66148637D01*
X119480315Y-66215676D01*
X119463681Y-66236318D01*
X118736319Y-66963681D01*
X118674996Y-66997166D01*
X118648638Y-67000000D01*
X118099999Y-67000000D01*
X117300000Y-67799999D01*
X117300000Y-67800000D01*
X117300000Y-72200000D01*
X118000000Y-72900000D01*
X123000000Y-72900000D01*
X123700000Y-72200000D01*
X123700000Y-67800000D01*
X123000000Y-67000000D01*
X122999999Y-67000000D01*
X122378573Y-67000000D01*
X122378570Y-66999999D01*
X129144721Y-66999999D01*
X129163763Y-67156818D01*
X129219780Y-67304523D01*
X129309515Y-67434528D01*
X129309516Y-67434529D01*
X129309517Y-67434530D01*
X129355932Y-67475649D01*
X129393058Y-67534838D01*
X129392290Y-67604703D01*
X129375756Y-67638902D01*
X129374420Y-67640836D01*
X129318404Y-67788540D01*
X129299362Y-67945359D01*
X129318404Y-68102177D01*
X129374421Y-68249882D01*
X129464156Y-68379887D01*
X129464157Y-68379888D01*
X129464158Y-68379889D01*
X129582401Y-68484642D01*
X129722276Y-68558055D01*
X129875656Y-68595859D01*
X130033626Y-68595859D01*
X130187006Y-68558055D01*
X130326881Y-68484642D01*
X130445026Y-68379975D01*
X130508256Y-68350256D01*
X130577520Y-68359440D01*
X130609476Y-68379977D01*
X130632077Y-68399999D01*
X130732860Y-68489284D01*
X130872735Y-68562697D01*
X131026115Y-68600501D01*
X131184085Y-68600501D01*
X131337465Y-68562697D01*
X131477340Y-68489284D01*
X131595583Y-68384531D01*
X131685320Y-68254524D01*
X131741337Y-68106819D01*
X131760378Y-67950001D01*
X131741337Y-67793183D01*
X131685320Y-67645478D01*
X131624043Y-67556703D01*
X131595584Y-67515472D01*
X131590343Y-67510829D01*
X131477340Y-67410718D01*
X131365706Y-67352127D01*
X131337464Y-67337304D01*
X131184085Y-67299501D01*
X131026115Y-67299501D01*
X130872735Y-67337304D01*
X130781005Y-67385449D01*
X130732860Y-67410718D01*
X130687955Y-67450500D01*
X130614715Y-67515383D01*
X130551481Y-67545103D01*
X130482218Y-67535919D01*
X130450262Y-67515381D01*
X130398709Y-67469709D01*
X130361582Y-67410520D01*
X130362350Y-67340654D01*
X130378887Y-67306454D01*
X130380220Y-67304523D01*
X130436237Y-67156818D01*
X130455278Y-67000000D01*
X130436237Y-66843182D01*
X130380220Y-66695477D01*
X130306919Y-66589282D01*
X130290484Y-66565471D01*
X130267160Y-66544808D01*
X130172240Y-66460717D01*
X130158994Y-66453765D01*
X130032364Y-66387303D01*
X129878985Y-66349500D01*
X129721015Y-66349500D01*
X129567635Y-66387303D01*
X129427761Y-66460716D01*
X129309515Y-66565471D01*
X129219780Y-66695476D01*
X129163763Y-66843181D01*
X129144721Y-66999999D01*
X122378570Y-66999999D01*
X122311534Y-66980315D01*
X122265779Y-66927511D01*
X122255835Y-66858353D01*
X122284860Y-66794797D01*
X122320944Y-66766205D01*
X122372240Y-66739283D01*
X122490483Y-66634530D01*
X122580220Y-66504523D01*
X122636237Y-66356818D01*
X122655278Y-66200000D01*
X122636237Y-66043182D01*
X122627866Y-66021112D01*
X122623168Y-66001121D01*
X122623119Y-66001135D01*
X122529551Y-65644122D01*
X122525500Y-65612685D01*
X122525500Y-64280663D01*
X122525500Y-62911050D01*
X122525569Y-62906935D01*
X122527660Y-62845755D01*
X122518438Y-62807917D01*
X122516072Y-62795468D01*
X122510771Y-62756889D01*
X122504138Y-62741619D01*
X122497400Y-62721583D01*
X122493458Y-62705406D01*
X122493005Y-62704601D01*
X122474379Y-62671475D01*
X122468729Y-62660101D01*
X122464559Y-62650500D01*
X122453219Y-62624391D01*
X122442713Y-62611478D01*
X122430817Y-62593999D01*
X122422658Y-62579489D01*
X122395133Y-62551964D01*
X122386626Y-62542538D01*
X122374250Y-62527326D01*
X122362054Y-62512335D01*
X122348450Y-62502732D01*
X122332278Y-62489109D01*
X121079441Y-61236272D01*
X121076498Y-61233227D01*
X121054210Y-61209362D01*
X121034755Y-61188531D01*
X121034754Y-61188530D01*
X121034753Y-61188529D01*
X121001488Y-61168300D01*
X120990992Y-61161157D01*
X120985270Y-61156818D01*
X120959975Y-61137636D01*
X120959973Y-61137635D01*
X120944488Y-61131528D01*
X120925556Y-61122125D01*
X120911327Y-61113473D01*
X120873843Y-61102970D01*
X120861810Y-61098924D01*
X120825586Y-61084639D01*
X120809021Y-61082936D01*
X120788255Y-61078990D01*
X120772228Y-61074500D01*
X120733296Y-61074500D01*
X120720616Y-61073850D01*
X120717031Y-61073481D01*
X120681890Y-61069868D01*
X120667564Y-61072339D01*
X120665486Y-61072697D01*
X120644419Y-61074500D01*
X116411110Y-61074500D01*
X116406876Y-61074428D01*
X116345753Y-61072339D01*
X116307931Y-61081556D01*
X116295463Y-61083926D01*
X116256885Y-61089229D01*
X116241610Y-61095864D01*
X116221576Y-61102601D01*
X116205405Y-61106542D01*
X116171470Y-61125622D01*
X116160103Y-61131268D01*
X116124389Y-61146781D01*
X116111466Y-61157294D01*
X116094003Y-61169179D01*
X116079490Y-61177340D01*
X116051959Y-61204870D01*
X116042540Y-61213370D01*
X116012334Y-61237946D01*
X116002728Y-61251554D01*
X115989109Y-61267720D01*
X114943711Y-62313118D01*
X114918617Y-62332483D01*
X114608433Y-62513841D01*
X114605440Y-62515608D01*
X114601480Y-62518908D01*
X114579736Y-62533436D01*
X114527761Y-62560716D01*
X114490192Y-62593999D01*
X114415578Y-62660101D01*
X114409516Y-62665471D01*
X114319780Y-62795476D01*
X114263763Y-62943181D01*
X114244721Y-63100000D01*
X107405499Y-63100000D01*
X107405499Y-62000000D01*
X111444721Y-62000000D01*
X111463763Y-62156818D01*
X111519780Y-62304523D01*
X111609515Y-62434528D01*
X111609516Y-62434529D01*
X111609517Y-62434530D01*
X111727760Y-62539283D01*
X111867635Y-62612696D01*
X112021015Y-62650500D01*
X112178985Y-62650500D01*
X112332365Y-62612696D01*
X112472240Y-62539283D01*
X112590483Y-62434530D01*
X112680220Y-62304523D01*
X112736237Y-62156818D01*
X112755278Y-62000000D01*
X112736237Y-61843182D01*
X112680220Y-61695477D01*
X112604763Y-61586158D01*
X112590484Y-61565471D01*
X112572456Y-61549500D01*
X112472240Y-61460717D01*
X112458994Y-61453765D01*
X112332364Y-61387303D01*
X112178985Y-61349500D01*
X112021015Y-61349500D01*
X111867635Y-61387303D01*
X111727761Y-61460716D01*
X111609515Y-61565471D01*
X111519780Y-61695476D01*
X111463763Y-61843181D01*
X111444721Y-62000000D01*
X107405499Y-62000000D01*
X107405499Y-60999999D01*
X114244721Y-60999999D01*
X114263763Y-61156818D01*
X114319780Y-61304523D01*
X114409515Y-61434528D01*
X114409516Y-61434529D01*
X114409517Y-61434530D01*
X114527760Y-61539283D01*
X114667635Y-61612696D01*
X114821015Y-61650500D01*
X114978985Y-61650500D01*
X115132365Y-61612696D01*
X115272240Y-61539283D01*
X115390483Y-61434530D01*
X115480220Y-61304523D01*
X115480221Y-61304518D01*
X115480764Y-61303733D01*
X115488463Y-61287622D01*
X115667515Y-60981380D01*
X115686869Y-60956299D01*
X115881352Y-60761816D01*
X115942675Y-60728334D01*
X115969032Y-60725500D01*
X121188890Y-60725500D01*
X121193123Y-60725571D01*
X121254245Y-60727660D01*
X121254245Y-60727659D01*
X121254246Y-60727660D01*
X121268706Y-60724135D01*
X121292070Y-60718441D01*
X121304532Y-60716073D01*
X121343111Y-60710771D01*
X121358392Y-60704132D01*
X121378421Y-60697397D01*
X121394594Y-60693457D01*
X121428531Y-60674374D01*
X121439879Y-60668737D01*
X121475609Y-60653219D01*
X121488521Y-60642713D01*
X121506008Y-60630813D01*
X121512291Y-60627279D01*
X121520512Y-60622658D01*
X121548043Y-60595125D01*
X121557458Y-60586628D01*
X121587665Y-60562054D01*
X121597269Y-60548447D01*
X121610881Y-60532287D01*
X121656296Y-60486872D01*
X121681380Y-60467515D01*
X121991565Y-60286158D01*
X121994511Y-60284419D01*
X121998488Y-60281104D01*
X122020226Y-60266581D01*
X122072240Y-60239283D01*
X122190483Y-60134530D01*
X122280220Y-60004523D01*
X122336237Y-59856818D01*
X122355278Y-59700000D01*
X122336237Y-59543182D01*
X122280220Y-59395477D01*
X122206401Y-59288531D01*
X122190484Y-59265471D01*
X122189952Y-59265000D01*
X122072240Y-59160717D01*
X122024405Y-59135611D01*
X121932364Y-59087303D01*
X121778985Y-59049500D01*
X121621015Y-59049500D01*
X121467635Y-59087303D01*
X121327761Y-59160716D01*
X121209515Y-59265471D01*
X121119230Y-59396273D01*
X121111534Y-59412377D01*
X121037336Y-59539283D01*
X120994414Y-59612696D01*
X120994185Y-59613087D01*
X120943355Y-59661025D01*
X120887139Y-59674500D01*
X115711110Y-59674500D01*
X115706876Y-59674428D01*
X115645753Y-59672339D01*
X115607931Y-59681556D01*
X115595464Y-59683925D01*
X115556891Y-59689227D01*
X115541615Y-59695863D01*
X115521583Y-59702599D01*
X115505408Y-59706541D01*
X115471475Y-59725620D01*
X115460110Y-59731265D01*
X115424391Y-59746780D01*
X115411473Y-59757290D01*
X115394002Y-59769180D01*
X115379488Y-59777341D01*
X115351953Y-59804875D01*
X115342534Y-59813375D01*
X115312334Y-59837946D01*
X115302734Y-59851546D01*
X115289114Y-59867714D01*
X114943710Y-60213118D01*
X114918616Y-60232483D01*
X114608433Y-60413841D01*
X114607088Y-60414634D01*
X114605438Y-60415609D01*
X114601480Y-60418908D01*
X114579736Y-60433436D01*
X114527761Y-60460716D01*
X114409516Y-60565471D01*
X114319780Y-60695476D01*
X114263763Y-60843181D01*
X114244721Y-60999999D01*
X107405499Y-60999999D01*
X107405499Y-59000000D01*
X123644721Y-59000000D01*
X123663763Y-59156818D01*
X123719780Y-59304523D01*
X123809515Y-59434528D01*
X123809516Y-59434529D01*
X123809517Y-59434530D01*
X123927760Y-59539283D01*
X124067635Y-59612696D01*
X124221015Y-59650500D01*
X124378985Y-59650500D01*
X124532365Y-59612696D01*
X124672240Y-59539283D01*
X124790483Y-59434530D01*
X124880220Y-59304523D01*
X124936237Y-59156818D01*
X124955278Y-59000000D01*
X124936237Y-58843182D01*
X124880220Y-58695477D01*
X124790483Y-58565470D01*
X124672240Y-58460717D01*
X124596738Y-58421090D01*
X124532364Y-58387303D01*
X124378985Y-58349500D01*
X124221015Y-58349500D01*
X124067635Y-58387303D01*
X123927761Y-58460716D01*
X123809515Y-58565471D01*
X123719780Y-58695476D01*
X123663763Y-58843181D01*
X123644721Y-59000000D01*
X107405499Y-59000000D01*
X107405499Y-57703185D01*
X119244721Y-57703185D01*
X119263763Y-57860003D01*
X119319780Y-58007708D01*
X119409515Y-58137713D01*
X119409516Y-58137714D01*
X119409517Y-58137715D01*
X119527760Y-58242468D01*
X119667635Y-58315881D01*
X119821015Y-58353685D01*
X119978985Y-58353685D01*
X120132365Y-58315881D01*
X120272240Y-58242468D01*
X120390483Y-58137715D01*
X120480220Y-58007708D01*
X120536237Y-57860003D01*
X120555278Y-57703185D01*
X120554891Y-57699999D01*
X121544721Y-57699999D01*
X121563763Y-57856818D01*
X121619780Y-58004523D01*
X121709515Y-58134528D01*
X121709516Y-58134529D01*
X121709517Y-58134530D01*
X121827760Y-58239283D01*
X121967635Y-58312696D01*
X122121015Y-58350500D01*
X122278985Y-58350500D01*
X122432365Y-58312696D01*
X122572240Y-58239283D01*
X122667775Y-58154646D01*
X122731007Y-58124927D01*
X122800270Y-58134111D01*
X122832222Y-58154645D01*
X122927760Y-58239283D01*
X123067635Y-58312696D01*
X123221015Y-58350500D01*
X123378985Y-58350500D01*
X123532365Y-58312696D01*
X123672240Y-58239283D01*
X123790483Y-58134530D01*
X123880220Y-58004523D01*
X123936237Y-57856818D01*
X123955278Y-57700000D01*
X123936237Y-57543182D01*
X123880220Y-57395477D01*
X123792682Y-57268656D01*
X123790484Y-57265471D01*
X123767773Y-57245351D01*
X123672240Y-57160717D01*
X123658994Y-57153764D01*
X123532364Y-57087303D01*
X123378985Y-57049500D01*
X123221015Y-57049500D01*
X123067635Y-57087303D01*
X122927758Y-57160718D01*
X122832226Y-57245351D01*
X122768993Y-57275072D01*
X122699729Y-57265888D01*
X122667774Y-57245351D01*
X122572241Y-57160718D01*
X122572240Y-57160717D01*
X122502302Y-57124010D01*
X122432364Y-57087303D01*
X122278985Y-57049500D01*
X122121015Y-57049500D01*
X121967635Y-57087303D01*
X121827761Y-57160716D01*
X121709515Y-57265471D01*
X121619780Y-57395476D01*
X121563763Y-57543181D01*
X121544721Y-57699999D01*
X120554891Y-57699999D01*
X120536237Y-57546367D01*
X120480220Y-57398662D01*
X120435351Y-57333658D01*
X120390484Y-57268656D01*
X120364178Y-57245351D01*
X120272240Y-57163902D01*
X120258994Y-57156950D01*
X120132364Y-57090488D01*
X119978985Y-57052685D01*
X119821015Y-57052685D01*
X119667635Y-57090488D01*
X119527761Y-57163901D01*
X119409515Y-57268656D01*
X119319780Y-57398661D01*
X119263763Y-57546366D01*
X119244721Y-57703185D01*
X107405499Y-57703185D01*
X107405499Y-55899999D01*
X132344721Y-55899999D01*
X132363763Y-56056818D01*
X132419780Y-56204523D01*
X132509515Y-56334528D01*
X132509516Y-56334529D01*
X132509517Y-56334530D01*
X132627760Y-56439283D01*
X132767635Y-56512696D01*
X132921015Y-56550500D01*
X133078985Y-56550500D01*
X133232365Y-56512696D01*
X133372240Y-56439283D01*
X133490483Y-56334530D01*
X133580220Y-56204523D01*
X133636237Y-56056818D01*
X133655278Y-55900000D01*
X133636237Y-55743182D01*
X133580220Y-55595477D01*
X133490483Y-55465470D01*
X133372240Y-55360717D01*
X133358994Y-55353765D01*
X133232364Y-55287303D01*
X133078985Y-55249500D01*
X132921015Y-55249500D01*
X132767635Y-55287303D01*
X132627761Y-55360716D01*
X132509515Y-55465471D01*
X132419780Y-55595476D01*
X132363763Y-55743181D01*
X132344721Y-55899999D01*
X107405499Y-55899999D01*
X107405499Y-52749999D01*
X122844721Y-52749999D01*
X122863763Y-52906818D01*
X122919780Y-53054523D01*
X123009515Y-53184528D01*
X123009516Y-53184529D01*
X123009517Y-53184530D01*
X123127760Y-53289283D01*
X123267635Y-53362696D01*
X123421015Y-53400500D01*
X123578985Y-53400500D01*
X123732365Y-53362696D01*
X123872240Y-53289283D01*
X123990483Y-53184530D01*
X124080220Y-53054523D01*
X124136237Y-52906818D01*
X124155278Y-52750000D01*
X124149207Y-52699999D01*
X125144721Y-52699999D01*
X125163763Y-52856818D01*
X125219780Y-53004523D01*
X125309515Y-53134528D01*
X125309516Y-53134529D01*
X125309517Y-53134530D01*
X125427760Y-53239283D01*
X125567635Y-53312696D01*
X125721015Y-53350500D01*
X125878985Y-53350500D01*
X126032365Y-53312696D01*
X126172240Y-53239283D01*
X126290483Y-53134530D01*
X126380220Y-53004523D01*
X126436237Y-52856818D01*
X126455278Y-52700000D01*
X126436237Y-52543182D01*
X126380220Y-52395477D01*
X126290483Y-52265470D01*
X126216581Y-52199999D01*
X129744721Y-52199999D01*
X129763763Y-52356818D01*
X129819780Y-52504523D01*
X129909515Y-52634528D01*
X129909516Y-52634529D01*
X129909517Y-52634530D01*
X130027760Y-52739283D01*
X130167635Y-52812696D01*
X130321015Y-52850500D01*
X130478983Y-52850500D01*
X130478985Y-52850500D01*
X130539116Y-52835679D01*
X130608914Y-52838748D01*
X130665977Y-52879067D01*
X130684730Y-52912105D01*
X130719779Y-53004522D01*
X130809515Y-53134528D01*
X130809516Y-53134529D01*
X130809517Y-53134530D01*
X130927760Y-53239283D01*
X131067635Y-53312696D01*
X131221015Y-53350500D01*
X131378985Y-53350500D01*
X131532365Y-53312696D01*
X131672240Y-53239283D01*
X131767774Y-53154647D01*
X131831005Y-53124927D01*
X131900269Y-53134111D01*
X131932225Y-53154648D01*
X131983315Y-53199909D01*
X132027760Y-53239283D01*
X132167635Y-53312696D01*
X132321015Y-53350500D01*
X132478984Y-53350500D01*
X132478985Y-53350500D01*
X132585988Y-53324126D01*
X132603371Y-53321135D01*
X132608308Y-53320644D01*
X132955876Y-53229550D01*
X132987313Y-53225500D01*
X134757868Y-53225500D01*
X134824907Y-53245185D01*
X134870662Y-53297989D01*
X134880606Y-53367147D01*
X134851581Y-53430703D01*
X134792803Y-53468477D01*
X134787543Y-53469897D01*
X134767635Y-53474803D01*
X134627761Y-53548216D01*
X134509515Y-53652971D01*
X134419780Y-53782976D01*
X134363763Y-53930681D01*
X134344721Y-54087499D01*
X134363763Y-54244318D01*
X134419780Y-54392023D01*
X134509515Y-54522028D01*
X134509516Y-54522029D01*
X134509517Y-54522030D01*
X134627760Y-54626783D01*
X134767635Y-54700196D01*
X134921015Y-54738000D01*
X135078985Y-54738000D01*
X135232365Y-54700196D01*
X135372240Y-54626783D01*
X135490483Y-54522030D01*
X135580220Y-54392023D01*
X135636237Y-54244318D01*
X135653760Y-54099999D01*
X136344721Y-54099999D01*
X136363763Y-54256818D01*
X136419780Y-54404523D01*
X136509515Y-54534528D01*
X136509516Y-54534529D01*
X136509517Y-54534530D01*
X136627760Y-54639283D01*
X136767635Y-54712696D01*
X136921015Y-54750500D01*
X137078985Y-54750500D01*
X137232365Y-54712696D01*
X137372240Y-54639283D01*
X137490483Y-54534530D01*
X137580220Y-54404523D01*
X137636237Y-54256818D01*
X137655278Y-54100000D01*
X137636237Y-53943182D01*
X137580220Y-53795477D01*
X137490483Y-53665470D01*
X137372240Y-53560717D01*
X137348422Y-53548216D01*
X137232364Y-53487303D01*
X137078985Y-53449500D01*
X136921015Y-53449500D01*
X136767635Y-53487303D01*
X136627761Y-53560716D01*
X136509515Y-53665471D01*
X136419780Y-53795476D01*
X136363763Y-53943181D01*
X136344721Y-54099999D01*
X135653760Y-54099999D01*
X135655278Y-54087500D01*
X135636237Y-53930682D01*
X135580220Y-53782977D01*
X135490483Y-53652970D01*
X135372240Y-53548217D01*
X135358994Y-53541264D01*
X135232364Y-53474803D01*
X135212457Y-53469897D01*
X135152077Y-53434741D01*
X135120288Y-53372522D01*
X135127184Y-53302993D01*
X135170575Y-53248230D01*
X135236685Y-53225620D01*
X135242132Y-53225500D01*
X135388890Y-53225500D01*
X135393123Y-53225571D01*
X135454245Y-53227660D01*
X135454245Y-53227659D01*
X135454246Y-53227660D01*
X135468706Y-53224135D01*
X135492070Y-53218441D01*
X135504532Y-53216073D01*
X135543111Y-53210771D01*
X135558392Y-53204132D01*
X135578421Y-53197397D01*
X135594594Y-53193457D01*
X135628531Y-53174374D01*
X135639879Y-53168737D01*
X135675609Y-53153219D01*
X135688521Y-53142713D01*
X135706008Y-53130813D01*
X135716476Y-53124927D01*
X135720512Y-53122658D01*
X135748043Y-53095125D01*
X135757458Y-53086628D01*
X135787665Y-53062054D01*
X135797269Y-53048447D01*
X135810881Y-53032287D01*
X136863754Y-51979413D01*
X136866740Y-51976527D01*
X136911469Y-51934755D01*
X136931697Y-51901490D01*
X136938833Y-51891004D01*
X136962364Y-51859975D01*
X136968475Y-51844477D01*
X136977876Y-51825552D01*
X136986526Y-51811328D01*
X136997030Y-51773835D01*
X137001071Y-51761818D01*
X137015359Y-51725589D01*
X137017061Y-51709027D01*
X137021008Y-51688256D01*
X137025500Y-51672228D01*
X137025500Y-51633296D01*
X137026150Y-51620615D01*
X137028260Y-51600090D01*
X137030131Y-51581890D01*
X137030073Y-51581556D01*
X137027303Y-51565487D01*
X137025500Y-51544418D01*
X137025500Y-50711109D01*
X137025572Y-50706875D01*
X137027660Y-50645754D01*
X137018443Y-50607935D01*
X137016072Y-50595458D01*
X137014951Y-50587304D01*
X137010771Y-50556889D01*
X137004137Y-50541616D01*
X136997397Y-50521573D01*
X136993457Y-50505408D01*
X136993457Y-50505406D01*
X136974375Y-50471470D01*
X136968732Y-50460107D01*
X136966186Y-50454245D01*
X136953219Y-50424391D01*
X136942708Y-50411472D01*
X136930809Y-50393988D01*
X136930559Y-50393544D01*
X136922657Y-50379488D01*
X136922656Y-50379486D01*
X136895134Y-50351965D01*
X136886626Y-50342538D01*
X136862053Y-50312334D01*
X136848450Y-50302732D01*
X136832283Y-50289114D01*
X136761818Y-50218649D01*
X136728334Y-50157325D01*
X136725500Y-50130968D01*
X136725500Y-48848084D01*
X136739619Y-48800000D01*
X137944721Y-48800000D01*
X137963763Y-48956818D01*
X138019780Y-49104523D01*
X138109515Y-49234528D01*
X138109516Y-49234529D01*
X138109517Y-49234530D01*
X138227760Y-49339283D01*
X138367635Y-49412696D01*
X138521015Y-49450500D01*
X138678985Y-49450500D01*
X138832365Y-49412696D01*
X138972240Y-49339283D01*
X139090483Y-49234530D01*
X139180220Y-49104523D01*
X139236237Y-48956818D01*
X139255278Y-48800000D01*
X139236237Y-48643182D01*
X139180220Y-48495477D01*
X139090483Y-48365470D01*
X138972240Y-48260717D01*
X138940995Y-48244318D01*
X138832364Y-48187303D01*
X138678985Y-48149500D01*
X138521015Y-48149500D01*
X138367635Y-48187303D01*
X138227761Y-48260716D01*
X138109515Y-48365471D01*
X138019780Y-48495476D01*
X137963763Y-48643181D01*
X137944721Y-48800000D01*
X136739619Y-48800000D01*
X136745185Y-48781045D01*
X136797989Y-48735290D01*
X136867147Y-48725346D01*
X136879163Y-48727684D01*
X136921015Y-48738000D01*
X136921016Y-48738000D01*
X137078985Y-48738000D01*
X137232365Y-48700196D01*
X137372240Y-48626783D01*
X137490483Y-48522030D01*
X137580220Y-48392023D01*
X137636237Y-48244318D01*
X137655278Y-48087500D01*
X137636237Y-47930682D01*
X137580220Y-47782977D01*
X137524281Y-47701935D01*
X137490484Y-47652971D01*
X137463038Y-47628656D01*
X137372240Y-47548217D01*
X137303647Y-47512216D01*
X137232364Y-47474803D01*
X137078985Y-47437000D01*
X136921015Y-47437000D01*
X136921014Y-47437000D01*
X136880352Y-47447022D01*
X136810550Y-47443952D01*
X136753488Y-47403632D01*
X136727283Y-47338863D01*
X136726750Y-47322391D01*
X136727660Y-47295754D01*
X136720463Y-47266225D01*
X136718442Y-47257932D01*
X136716072Y-47245458D01*
X136714060Y-47230820D01*
X136710771Y-47206889D01*
X136704137Y-47191616D01*
X136697397Y-47171573D01*
X136693457Y-47155408D01*
X136693457Y-47155406D01*
X136674375Y-47121470D01*
X136668732Y-47110107D01*
X136653219Y-47074392D01*
X136653219Y-47074391D01*
X136642708Y-47061472D01*
X136630809Y-47043988D01*
X136622657Y-47029488D01*
X136602388Y-47009219D01*
X136575403Y-46968735D01*
X136532846Y-46865340D01*
X136510395Y-46810792D01*
X136509409Y-46808581D01*
X136493010Y-46772820D01*
X136484820Y-46757607D01*
X136480220Y-46745477D01*
X136397590Y-46625766D01*
X136390484Y-46615471D01*
X136378648Y-46604985D01*
X136272240Y-46510717D01*
X136145394Y-46444142D01*
X136132364Y-46437303D01*
X135978985Y-46399500D01*
X135821015Y-46399500D01*
X135667635Y-46437303D01*
X135527761Y-46510716D01*
X135409515Y-46615471D01*
X135319780Y-46745476D01*
X135263763Y-46893181D01*
X135244721Y-47049999D01*
X135259860Y-47174674D01*
X135263763Y-47206818D01*
X135319780Y-47354523D01*
X135409517Y-47484530D01*
X135527760Y-47589283D01*
X135593708Y-47623895D01*
X135610944Y-47634840D01*
X135622417Y-47643530D01*
X135622420Y-47643531D01*
X135625370Y-47645766D01*
X135666925Y-47701935D01*
X135674500Y-47744612D01*
X135674500Y-49365478D01*
X135654815Y-49432517D01*
X135602011Y-49478272D01*
X135532853Y-49488216D01*
X135469297Y-49459191D01*
X135468274Y-49458294D01*
X135372241Y-49373218D01*
X135372240Y-49373217D01*
X135298525Y-49334528D01*
X135232364Y-49299803D01*
X135078985Y-49262000D01*
X134921015Y-49262000D01*
X134767635Y-49299803D01*
X134627761Y-49373216D01*
X134509515Y-49477971D01*
X134419780Y-49607976D01*
X134363763Y-49755681D01*
X134344721Y-49912500D01*
X134363763Y-50069318D01*
X134419780Y-50217023D01*
X134509515Y-50347028D01*
X134509516Y-50347029D01*
X134509517Y-50347030D01*
X134627760Y-50451783D01*
X134767635Y-50525196D01*
X134921015Y-50563000D01*
X135078985Y-50563000D01*
X135232365Y-50525196D01*
X135372240Y-50451783D01*
X135465786Y-50368908D01*
X135529017Y-50339188D01*
X135598280Y-50348372D01*
X135651584Y-50393544D01*
X135665298Y-50438420D01*
X135668305Y-50437688D01*
X135677616Y-50475898D01*
X135674362Y-50545692D01*
X135633892Y-50602647D01*
X135614768Y-50615051D01*
X135527761Y-50660716D01*
X135409515Y-50765471D01*
X135319230Y-50896273D01*
X135311534Y-50912377D01*
X135132482Y-51218618D01*
X135113117Y-51243712D01*
X134818648Y-51538182D01*
X134757328Y-51571666D01*
X134730969Y-51574500D01*
X131911110Y-51574500D01*
X131906876Y-51574428D01*
X131845753Y-51572339D01*
X131807931Y-51581556D01*
X131795464Y-51583925D01*
X131756891Y-51589227D01*
X131741615Y-51595863D01*
X131721583Y-51602599D01*
X131705408Y-51606541D01*
X131671477Y-51625619D01*
X131660112Y-51631264D01*
X131624391Y-51646780D01*
X131611469Y-51657293D01*
X131593993Y-51669187D01*
X131579487Y-51677343D01*
X131551959Y-51704870D01*
X131542540Y-51713370D01*
X131512334Y-51737946D01*
X131502728Y-51751554D01*
X131489109Y-51767720D01*
X131343712Y-51913117D01*
X131318618Y-51932482D01*
X131179671Y-52013721D01*
X131111862Y-52030565D01*
X131045711Y-52008075D01*
X131002221Y-51953391D01*
X131001180Y-51950745D01*
X130980220Y-51895477D01*
X130931948Y-51825542D01*
X130890484Y-51765471D01*
X130845465Y-51725588D01*
X130772240Y-51660717D01*
X130745686Y-51646780D01*
X130632364Y-51587303D01*
X130478985Y-51549500D01*
X130321015Y-51549500D01*
X130167635Y-51587303D01*
X130027761Y-51660716D01*
X129909515Y-51765471D01*
X129819780Y-51895476D01*
X129763763Y-52043181D01*
X129744721Y-52199999D01*
X126216581Y-52199999D01*
X126172240Y-52160717D01*
X126127629Y-52137303D01*
X126032364Y-52087303D01*
X125878985Y-52049500D01*
X125721015Y-52049500D01*
X125567635Y-52087303D01*
X125427761Y-52160716D01*
X125309515Y-52265471D01*
X125219780Y-52395476D01*
X125163763Y-52543181D01*
X125144721Y-52699999D01*
X124149207Y-52699999D01*
X124136237Y-52593182D01*
X124080220Y-52445477D01*
X123990483Y-52315470D01*
X123872240Y-52210717D01*
X123851819Y-52199999D01*
X123732364Y-52137303D01*
X123578985Y-52099500D01*
X123421015Y-52099500D01*
X123267635Y-52137303D01*
X123127761Y-52210716D01*
X123009515Y-52315471D01*
X122919780Y-52445476D01*
X122863763Y-52593181D01*
X122844721Y-52749999D01*
X107405499Y-52749999D01*
X107405499Y-49700000D01*
X107944721Y-49700000D01*
X107963763Y-49856818D01*
X108019780Y-50004523D01*
X108109515Y-50134528D01*
X108109516Y-50134529D01*
X108109517Y-50134530D01*
X108227760Y-50239283D01*
X108367635Y-50312696D01*
X108521015Y-50350500D01*
X108678985Y-50350500D01*
X108832365Y-50312696D01*
X108972240Y-50239283D01*
X109090483Y-50134530D01*
X109180220Y-50004523D01*
X109236237Y-49856818D01*
X109249207Y-49750000D01*
X116950000Y-49750000D01*
X117766314Y-49750000D01*
X117740507Y-49790156D01*
X117700000Y-49928111D01*
X117700000Y-50071889D01*
X117740507Y-50209844D01*
X117766314Y-50250000D01*
X116950001Y-50250000D01*
X116950001Y-50881477D01*
X116964836Y-50975149D01*
X117022358Y-51088045D01*
X117111953Y-51177640D01*
X117224853Y-51235165D01*
X117318515Y-51249999D01*
X117949999Y-51249999D01*
X117950000Y-51249998D01*
X117950000Y-50435501D01*
X118057685Y-50484680D01*
X118164237Y-50500000D01*
X118235763Y-50500000D01*
X118342315Y-50484680D01*
X118449999Y-50435501D01*
X118449999Y-51249998D01*
X118450000Y-51249999D01*
X119081478Y-51249999D01*
X119175149Y-51235163D01*
X119288045Y-51177641D01*
X119377640Y-51088046D01*
X119435165Y-50975146D01*
X119449999Y-50881484D01*
X119449999Y-50731148D01*
X119469683Y-50664108D01*
X119522487Y-50618353D01*
X119591645Y-50608409D01*
X119655201Y-50637434D01*
X119675572Y-50660020D01*
X119778402Y-50806877D01*
X119933123Y-50961598D01*
X120112361Y-51087102D01*
X120310670Y-51179575D01*
X120522023Y-51236207D01*
X120740000Y-51255277D01*
X120957977Y-51236207D01*
X121169330Y-51179575D01*
X121367639Y-51087102D01*
X121546877Y-50961598D01*
X121701598Y-50806877D01*
X121827102Y-50627639D01*
X121897617Y-50476417D01*
X121943790Y-50423978D01*
X122010984Y-50404826D01*
X122077865Y-50425042D01*
X122122382Y-50476417D01*
X122192898Y-50627639D01*
X122318402Y-50806877D01*
X122473123Y-50961598D01*
X122652361Y-51087102D01*
X122850670Y-51179575D01*
X123062023Y-51236207D01*
X123280000Y-51255277D01*
X123497977Y-51236207D01*
X123709330Y-51179575D01*
X123907639Y-51087102D01*
X124086877Y-50961598D01*
X124241598Y-50806877D01*
X124367102Y-50627639D01*
X124437617Y-50476417D01*
X124483790Y-50423978D01*
X124550984Y-50404826D01*
X124617865Y-50425042D01*
X124662382Y-50476417D01*
X124732898Y-50627639D01*
X124858402Y-50806877D01*
X125013123Y-50961598D01*
X125192361Y-51087102D01*
X125390670Y-51179575D01*
X125602023Y-51236207D01*
X125820000Y-51255277D01*
X126037977Y-51236207D01*
X126249330Y-51179575D01*
X126447639Y-51087102D01*
X126626877Y-50961598D01*
X126781598Y-50806877D01*
X126907102Y-50627639D01*
X126999575Y-50429330D01*
X127056207Y-50217977D01*
X127075277Y-50000000D01*
X127056207Y-49782023D01*
X126999575Y-49570670D01*
X126907102Y-49372362D01*
X126781598Y-49193123D01*
X126626877Y-49038402D01*
X126447639Y-48912898D01*
X126419977Y-48899999D01*
X131244721Y-48899999D01*
X131263763Y-49056818D01*
X131319780Y-49204523D01*
X131409515Y-49334528D01*
X131409516Y-49334529D01*
X131409517Y-49334530D01*
X131527760Y-49439283D01*
X131667635Y-49512696D01*
X131821015Y-49550500D01*
X131978985Y-49550500D01*
X132132365Y-49512696D01*
X132272240Y-49439283D01*
X132390483Y-49334530D01*
X132480220Y-49204523D01*
X132536237Y-49056818D01*
X132555278Y-48900000D01*
X132536237Y-48743182D01*
X132480220Y-48595477D01*
X132390483Y-48465470D01*
X132272240Y-48360717D01*
X132258994Y-48353765D01*
X132132364Y-48287303D01*
X131978985Y-48249500D01*
X131821015Y-48249500D01*
X131667635Y-48287303D01*
X131527761Y-48360716D01*
X131409515Y-48465471D01*
X131319780Y-48595476D01*
X131263763Y-48743181D01*
X131244721Y-48899999D01*
X126419977Y-48899999D01*
X126308645Y-48848084D01*
X126249331Y-48820425D01*
X126037974Y-48763792D01*
X125820000Y-48744722D01*
X125602025Y-48763792D01*
X125390668Y-48820425D01*
X125192361Y-48912898D01*
X125013122Y-49038402D01*
X124858402Y-49193122D01*
X124732898Y-49372361D01*
X124662382Y-49523583D01*
X124616209Y-49576022D01*
X124549016Y-49595174D01*
X124482135Y-49574958D01*
X124437618Y-49523583D01*
X124416489Y-49478272D01*
X124367102Y-49372362D01*
X124241598Y-49193123D01*
X124086877Y-49038402D01*
X123907639Y-48912898D01*
X123768645Y-48848084D01*
X123709331Y-48820425D01*
X123497974Y-48763792D01*
X123280000Y-48744722D01*
X123062025Y-48763792D01*
X122850668Y-48820425D01*
X122652361Y-48912898D01*
X122473122Y-49038402D01*
X122318402Y-49193122D01*
X122192898Y-49372361D01*
X122122382Y-49523583D01*
X122076209Y-49576022D01*
X122009016Y-49595174D01*
X121942135Y-49574958D01*
X121897618Y-49523583D01*
X121876489Y-49478272D01*
X121827102Y-49372362D01*
X121701598Y-49193123D01*
X121546877Y-49038402D01*
X121367639Y-48912898D01*
X121228645Y-48848084D01*
X121169331Y-48820425D01*
X120957974Y-48763792D01*
X120740000Y-48744722D01*
X120522025Y-48763792D01*
X120310668Y-48820425D01*
X120112361Y-48912898D01*
X119933122Y-49038402D01*
X119778402Y-49193122D01*
X119675574Y-49339977D01*
X119620997Y-49383602D01*
X119551499Y-49390795D01*
X119489144Y-49359273D01*
X119453730Y-49299043D01*
X119449999Y-49268854D01*
X119449999Y-49118522D01*
X119435163Y-49024850D01*
X119377641Y-48911954D01*
X119288046Y-48822359D01*
X119175146Y-48764834D01*
X119081484Y-48750000D01*
X118449999Y-48750000D01*
X118449999Y-49564498D01*
X118342315Y-49515320D01*
X118235763Y-49500000D01*
X118164237Y-49500000D01*
X118057685Y-49515320D01*
X117950000Y-49564498D01*
X117950000Y-48750000D01*
X117318522Y-48750000D01*
X117224850Y-48764836D01*
X117111954Y-48822358D01*
X117022359Y-48911953D01*
X116964834Y-49024853D01*
X116950000Y-49118515D01*
X116950000Y-49750000D01*
X109249207Y-49750000D01*
X109255278Y-49700000D01*
X109236237Y-49543182D01*
X109180220Y-49395477D01*
X109090483Y-49265470D01*
X108972240Y-49160717D01*
X108958994Y-49153764D01*
X108832364Y-49087303D01*
X108678985Y-49049500D01*
X108521015Y-49049500D01*
X108367635Y-49087303D01*
X108227761Y-49160716D01*
X108109515Y-49265471D01*
X108019780Y-49395476D01*
X107963763Y-49543181D01*
X107944721Y-49700000D01*
X107405499Y-49700000D01*
X107405499Y-48007304D01*
X107405471Y-48005767D01*
X107405010Y-47987392D01*
X107404945Y-47985901D01*
X107404293Y-47972808D01*
X107404189Y-47971259D01*
X107402829Y-47952973D01*
X107402690Y-47951471D01*
X107386967Y-47791932D01*
X107385769Y-47779763D01*
X107379932Y-47740407D01*
X107374234Y-47711759D01*
X107364563Y-47673151D01*
X107358441Y-47652971D01*
X107335941Y-47578798D01*
X107316178Y-47513648D01*
X107302770Y-47476176D01*
X107291592Y-47449191D01*
X107274580Y-47413223D01*
X107196008Y-47266225D01*
X107175557Y-47232102D01*
X107159330Y-47207815D01*
X107135618Y-47175843D01*
X107109705Y-47144268D01*
X133276523Y-47144268D01*
X133295565Y-47301086D01*
X133351582Y-47448791D01*
X133441317Y-47578796D01*
X133441318Y-47578797D01*
X133441319Y-47578798D01*
X133559562Y-47683551D01*
X133699437Y-47756964D01*
X133852817Y-47794768D01*
X134010787Y-47794768D01*
X134164167Y-47756964D01*
X134304042Y-47683551D01*
X134422285Y-47578798D01*
X134512022Y-47448791D01*
X134568039Y-47301086D01*
X134587080Y-47144268D01*
X134568039Y-46987450D01*
X134512022Y-46839745D01*
X134446953Y-46745476D01*
X134422286Y-46709739D01*
X134410140Y-46698979D01*
X134304042Y-46604985D01*
X134236941Y-46569767D01*
X134164166Y-46531571D01*
X134010787Y-46493768D01*
X133852817Y-46493768D01*
X133699437Y-46531571D01*
X133559563Y-46604984D01*
X133441317Y-46709739D01*
X133351582Y-46839744D01*
X133295565Y-46987449D01*
X133276523Y-47144268D01*
X107109705Y-47144268D01*
X107029872Y-47046991D01*
X107003148Y-47017505D01*
X106982494Y-46996851D01*
X106981367Y-46995830D01*
X106981357Y-46995820D01*
X106954131Y-46971145D01*
X106953008Y-46970127D01*
X106824156Y-46864381D01*
X106792184Y-46840669D01*
X106767897Y-46824442D01*
X106741433Y-46808581D01*
X106735098Y-46804784D01*
X106735082Y-46804775D01*
X106733774Y-46803991D01*
X106624298Y-46745475D01*
X106588133Y-46726144D01*
X106588122Y-46726138D01*
X106586776Y-46725419D01*
X106585405Y-46724770D01*
X106585396Y-46724766D01*
X106552159Y-46709045D01*
X106552137Y-46709035D01*
X106550813Y-46708409D01*
X106549456Y-46707846D01*
X106549436Y-46707838D01*
X106525241Y-46697816D01*
X106523829Y-46697231D01*
X106522389Y-46696715D01*
X106522382Y-46696713D01*
X106487785Y-46684333D01*
X106487776Y-46684330D01*
X106486351Y-46683820D01*
X106484918Y-46683385D01*
X106484902Y-46683380D01*
X106328272Y-46635867D01*
X106328249Y-46635860D01*
X106326836Y-46635432D01*
X106325390Y-46635069D01*
X106325369Y-46635064D01*
X106289723Y-46626136D01*
X106289715Y-46626134D01*
X106288237Y-46625764D01*
X106286734Y-46625465D01*
X106261102Y-46620366D01*
X106261086Y-46620363D01*
X106259607Y-46620069D01*
X106258118Y-46619848D01*
X106258100Y-46619845D01*
X106221745Y-46614453D01*
X106221741Y-46614452D01*
X106220241Y-46614230D01*
X106218742Y-46614082D01*
X106218731Y-46614081D01*
X106047024Y-46597170D01*
X106045511Y-46597049D01*
X106027164Y-46595705D01*
X106025634Y-46595620D01*
X106012560Y-46594988D01*
X106011035Y-46594941D01*
X105992675Y-46594500D01*
X105991167Y-46594491D01*
X103973336Y-46594500D01*
X103906297Y-46574815D01*
X103860542Y-46522011D01*
X103850598Y-46452853D01*
X103879623Y-46389297D01*
X103885655Y-46382819D01*
X104011599Y-46256874D01*
X104507564Y-45760909D01*
X104563378Y-45684090D01*
X104602581Y-45563433D01*
X104602581Y-45436567D01*
X104563378Y-45315910D01*
X104507565Y-45239091D01*
X104507563Y-45239089D01*
X104507562Y-45239087D01*
X103968473Y-44699999D01*
X107944721Y-44699999D01*
X107963763Y-44856818D01*
X108019780Y-45004523D01*
X108109515Y-45134528D01*
X108109516Y-45134529D01*
X108109517Y-45134530D01*
X108227760Y-45239283D01*
X108367635Y-45312696D01*
X108521015Y-45350500D01*
X108678985Y-45350500D01*
X108832365Y-45312696D01*
X108972240Y-45239283D01*
X109090483Y-45134530D01*
X109180220Y-45004523D01*
X109236237Y-44856818D01*
X109255278Y-44700000D01*
X109236237Y-44543182D01*
X109180220Y-44395477D01*
X109090483Y-44265470D01*
X108972240Y-44160717D01*
X108916538Y-44131482D01*
X118245500Y-44131482D01*
X118284691Y-44391507D01*
X118320373Y-44507182D01*
X118362202Y-44642788D01*
X118389754Y-44700000D01*
X118476296Y-44879707D01*
X118476297Y-44879709D01*
X118476298Y-44879710D01*
X118624430Y-45096980D01*
X118803290Y-45289746D01*
X119008883Y-45453701D01*
X119236616Y-45585183D01*
X119481402Y-45681254D01*
X119737772Y-45739769D01*
X119934346Y-45754500D01*
X119936663Y-45754500D01*
X120063337Y-45754500D01*
X120065654Y-45754500D01*
X120262228Y-45739769D01*
X120518598Y-45681254D01*
X120763384Y-45585183D01*
X120991117Y-45453701D01*
X121196710Y-45289746D01*
X121375570Y-45096980D01*
X121523702Y-44879710D01*
X121637798Y-44642788D01*
X121715308Y-44391508D01*
X121744173Y-44199999D01*
X129369678Y-44199999D01*
X129388923Y-44407698D01*
X129446005Y-44608319D01*
X129538978Y-44795035D01*
X129664682Y-44961494D01*
X129818826Y-45102014D01*
X129818828Y-45102015D01*
X129818829Y-45102016D01*
X129996172Y-45211823D01*
X130190673Y-45287173D01*
X130395707Y-45325500D01*
X130395709Y-45325500D01*
X130604291Y-45325500D01*
X130604293Y-45325500D01*
X130809327Y-45287173D01*
X131003828Y-45211823D01*
X131181171Y-45102016D01*
X131335318Y-44961493D01*
X131461019Y-44795038D01*
X131461019Y-44795036D01*
X131461021Y-44795035D01*
X131553994Y-44608319D01*
X131611076Y-44407698D01*
X131624255Y-44265470D01*
X131630322Y-44200000D01*
X131630322Y-44199999D01*
X134369678Y-44199999D01*
X134388923Y-44407698D01*
X134446005Y-44608319D01*
X134538978Y-44795035D01*
X134664682Y-44961494D01*
X134818826Y-45102014D01*
X134818828Y-45102015D01*
X134818829Y-45102016D01*
X134996172Y-45211823D01*
X135190673Y-45287173D01*
X135395707Y-45325500D01*
X135395709Y-45325500D01*
X135604291Y-45325500D01*
X135604293Y-45325500D01*
X135809327Y-45287173D01*
X136003828Y-45211823D01*
X136181171Y-45102016D01*
X136335318Y-44961493D01*
X136461019Y-44795038D01*
X136461019Y-44795036D01*
X136461021Y-44795035D01*
X136553994Y-44608319D01*
X136611076Y-44407698D01*
X136613866Y-44377578D01*
X136630322Y-44200000D01*
X136611508Y-43996965D01*
X136611076Y-43992301D01*
X136553994Y-43791680D01*
X136461021Y-43604964D01*
X136335317Y-43438505D01*
X136181173Y-43297985D01*
X136003827Y-43188176D01*
X135809328Y-43112827D01*
X135740982Y-43100051D01*
X135604293Y-43074500D01*
X135395707Y-43074500D01*
X135293190Y-43093663D01*
X135190671Y-43112827D01*
X134996172Y-43188176D01*
X134818826Y-43297985D01*
X134664682Y-43438505D01*
X134538978Y-43604964D01*
X134446005Y-43791680D01*
X134388923Y-43992301D01*
X134369678Y-44199999D01*
X131630322Y-44199999D01*
X131611508Y-43996965D01*
X131611076Y-43992301D01*
X131553994Y-43791680D01*
X131461021Y-43604964D01*
X131335317Y-43438505D01*
X131181173Y-43297985D01*
X131003827Y-43188176D01*
X130809328Y-43112827D01*
X130740982Y-43100051D01*
X130604293Y-43074500D01*
X130395707Y-43074500D01*
X130293190Y-43093663D01*
X130190671Y-43112827D01*
X129996172Y-43188176D01*
X129818826Y-43297985D01*
X129664682Y-43438505D01*
X129538978Y-43604964D01*
X129446005Y-43791680D01*
X129388923Y-43992301D01*
X129369678Y-44199999D01*
X121744173Y-44199999D01*
X121754500Y-44131482D01*
X121754500Y-43868518D01*
X121715308Y-43608492D01*
X121637798Y-43357212D01*
X121523702Y-43120290D01*
X121375570Y-42903020D01*
X121196710Y-42710254D01*
X121145233Y-42669202D01*
X120991116Y-42546298D01*
X120780159Y-42424502D01*
X120763384Y-42414817D01*
X120763383Y-42414816D01*
X120763382Y-42414816D01*
X120518600Y-42318746D01*
X120262225Y-42260230D01*
X120067968Y-42245673D01*
X120067957Y-42245672D01*
X120065654Y-42245500D01*
X119934346Y-42245500D01*
X119932043Y-42245672D01*
X119932031Y-42245673D01*
X119737774Y-42260230D01*
X119481399Y-42318746D01*
X119236617Y-42414816D01*
X119008883Y-42546298D01*
X118803290Y-42710253D01*
X118624431Y-42903018D01*
X118476296Y-43120292D01*
X118362202Y-43357212D01*
X118284691Y-43608492D01*
X118245500Y-43868517D01*
X118245500Y-44131482D01*
X108916538Y-44131482D01*
X108832364Y-44087303D01*
X108678985Y-44049500D01*
X108521015Y-44049500D01*
X108367635Y-44087303D01*
X108227761Y-44160716D01*
X108109515Y-44265471D01*
X108019780Y-44395476D01*
X107963763Y-44543181D01*
X107944721Y-44699999D01*
X103968473Y-44699999D01*
X103260910Y-43992437D01*
X103260909Y-43992436D01*
X103184090Y-43936622D01*
X103184088Y-43936621D01*
X103063434Y-43897419D01*
X103063433Y-43897419D01*
X102936567Y-43897419D01*
X102936566Y-43897419D01*
X102815911Y-43936621D01*
X102739087Y-43992437D01*
X101492437Y-45239089D01*
X101436621Y-45315911D01*
X101397419Y-45436566D01*
X101397419Y-45563433D01*
X101436621Y-45684088D01*
X101492437Y-45760912D01*
X102114345Y-46382819D01*
X102147830Y-46444142D01*
X102142846Y-46513833D01*
X102100975Y-46569767D01*
X102035510Y-46594184D01*
X102026664Y-46594500D01*
X101007325Y-46594500D01*
X101005791Y-46594528D01*
X100987440Y-46594988D01*
X100985926Y-46595053D01*
X100972836Y-46595705D01*
X100971346Y-46595806D01*
X100952976Y-46597169D01*
X100951436Y-46597311D01*
X100781257Y-46614081D01*
X100781246Y-46614082D01*
X100779757Y-46614229D01*
X100778289Y-46614446D01*
X100778263Y-46614450D01*
X100741886Y-46619847D01*
X100741846Y-46619853D01*
X100740383Y-46620071D01*
X100738940Y-46620358D01*
X100738900Y-46620365D01*
X100713240Y-46625470D01*
X100713209Y-46625476D01*
X100711756Y-46625766D01*
X100710311Y-46626127D01*
X100710284Y-46626134D01*
X100674640Y-46635062D01*
X100674600Y-46635072D01*
X100673167Y-46635432D01*
X100671738Y-46635865D01*
X100671718Y-46635871D01*
X100515082Y-46683385D01*
X100515066Y-46683389D01*
X100513646Y-46683821D01*
X100512251Y-46684319D01*
X100512221Y-46684330D01*
X100477640Y-46696703D01*
X100477624Y-46696708D01*
X100476185Y-46697224D01*
X100474796Y-46697798D01*
X100474763Y-46697812D01*
X100471948Y-46698979D01*
X100402479Y-46706445D01*
X100340001Y-46675168D01*
X100304351Y-46615077D01*
X100300500Y-46584416D01*
X100300500Y-44003050D01*
X100300649Y-43996966D01*
X100303260Y-43943826D01*
X100318015Y-43643465D01*
X100319208Y-43631359D01*
X100347815Y-43438505D01*
X100370692Y-43284278D01*
X100373061Y-43272367D01*
X100425416Y-43063354D01*
X103897918Y-43063354D01*
X103937073Y-43183861D01*
X103992814Y-43260582D01*
X104439340Y-43707106D01*
X104439341Y-43707106D01*
X105016923Y-43129523D01*
X105040507Y-43209844D01*
X105118239Y-43330798D01*
X105226900Y-43424952D01*
X105357685Y-43484680D01*
X105367466Y-43486086D01*
X104792893Y-44060658D01*
X104792893Y-44060659D01*
X105239417Y-44507182D01*
X105316139Y-44562927D01*
X105436645Y-44602082D01*
X105563354Y-44602082D01*
X105683861Y-44562926D01*
X105760578Y-44507187D01*
X106207106Y-44060658D01*
X105632533Y-43486086D01*
X105642315Y-43484680D01*
X105773100Y-43424952D01*
X105881761Y-43330798D01*
X105959493Y-43209844D01*
X105983076Y-43129523D01*
X106560659Y-43707106D01*
X107007182Y-43260582D01*
X107062927Y-43183860D01*
X107102082Y-43063354D01*
X107102082Y-42936645D01*
X107062926Y-42816138D01*
X107007185Y-42739417D01*
X106560659Y-42292893D01*
X106560658Y-42292893D01*
X105983076Y-42870475D01*
X105959493Y-42790156D01*
X105881761Y-42669202D01*
X105773100Y-42575048D01*
X105642315Y-42515320D01*
X105632531Y-42513913D01*
X106207106Y-41939339D01*
X105760582Y-41492817D01*
X105683860Y-41437072D01*
X105563355Y-41397918D01*
X105436646Y-41397918D01*
X105316138Y-41437073D01*
X105239417Y-41492814D01*
X104792893Y-41939339D01*
X104792893Y-41939340D01*
X105367466Y-42513913D01*
X105357685Y-42515320D01*
X105226900Y-42575048D01*
X105118239Y-42669202D01*
X105040507Y-42790156D01*
X105016923Y-42870474D01*
X104439340Y-42292893D01*
X103992814Y-42739421D01*
X103937072Y-42816139D01*
X103897918Y-42936645D01*
X103897918Y-43063354D01*
X100425416Y-43063354D01*
X100458322Y-42931986D01*
X100461852Y-42920353D01*
X100489150Y-42844063D01*
X100580055Y-42589999D01*
X100584710Y-42578762D01*
X100657670Y-42424499D01*
X100734735Y-42261557D01*
X100740454Y-42250857D01*
X100920851Y-41949884D01*
X100927594Y-41939791D01*
X101136630Y-41657939D01*
X101144333Y-41648554D01*
X101379983Y-41388553D01*
X101388553Y-41379983D01*
X101648554Y-41144333D01*
X101657939Y-41136630D01*
X101939791Y-40927594D01*
X101949884Y-40920851D01*
X102250857Y-40740454D01*
X102261557Y-40734735D01*
X102578762Y-40584710D01*
X102589999Y-40580055D01*
X102920361Y-40461849D01*
X102931986Y-40458322D01*
X103272367Y-40373061D01*
X103284278Y-40370692D01*
X103631359Y-40319207D01*
X103643465Y-40318015D01*
X103996967Y-40300648D01*
X104003051Y-40300500D01*
X104047595Y-40300500D01*
X128634897Y-40300500D01*
X128701936Y-40320185D01*
G37*
%TD.AperFunction*%
%TD*%
%TA.AperFunction,Conductor*%
%TO.N,+5V_ISO*%
G36*
X125218272Y-77519962D02*
G01*
X125272810Y-77574500D01*
X125292772Y-77649000D01*
X125272810Y-77723500D01*
X125218272Y-77778038D01*
X125200792Y-77786658D01*
X125122374Y-77819139D01*
X125007378Y-77907378D01*
X124919139Y-78022374D01*
X124863669Y-78156291D01*
X124844749Y-78300000D01*
X124863669Y-78443708D01*
X124919139Y-78577625D01*
X125007378Y-78692621D01*
X125095618Y-78760329D01*
X125122375Y-78780861D01*
X125256291Y-78836329D01*
X125256291Y-78836330D01*
X125399999Y-78855250D01*
X125399999Y-78855249D01*
X125400000Y-78855250D01*
X125543709Y-78836330D01*
X125677625Y-78780861D01*
X125792621Y-78692621D01*
X125880861Y-78577625D01*
X125936330Y-78443709D01*
X125955250Y-78300000D01*
X125936330Y-78156291D01*
X125880861Y-78022375D01*
X125860329Y-77995618D01*
X125792621Y-77907378D01*
X125677625Y-77819139D01*
X125599208Y-77786658D01*
X125538018Y-77739706D01*
X125508503Y-77668449D01*
X125518570Y-77591980D01*
X125565522Y-77530790D01*
X125636779Y-77501275D01*
X125656228Y-77500000D01*
X128443772Y-77500000D01*
X128518272Y-77519962D01*
X128572810Y-77574500D01*
X128592772Y-77649000D01*
X128572810Y-77723500D01*
X128518272Y-77778038D01*
X128500792Y-77786658D01*
X128422374Y-77819139D01*
X128307378Y-77907378D01*
X128219139Y-78022374D01*
X128163669Y-78156291D01*
X128144749Y-78299999D01*
X128163669Y-78443708D01*
X128219139Y-78577625D01*
X128307378Y-78692621D01*
X128395618Y-78760329D01*
X128422375Y-78780861D01*
X128556291Y-78836330D01*
X128700000Y-78855250D01*
X128843709Y-78836330D01*
X128977625Y-78780861D01*
X129092621Y-78692621D01*
X129180861Y-78577625D01*
X129236330Y-78443709D01*
X129255250Y-78300000D01*
X129236330Y-78156291D01*
X129180861Y-78022375D01*
X129160329Y-77995618D01*
X129092621Y-77907378D01*
X128977625Y-77819139D01*
X128899208Y-77786658D01*
X128838018Y-77739706D01*
X128808503Y-77668449D01*
X128818570Y-77591980D01*
X128865522Y-77530790D01*
X128936779Y-77501275D01*
X128956228Y-77500000D01*
X129992675Y-77500000D01*
X130007279Y-77500717D01*
X130012945Y-77501275D01*
X130180496Y-77517777D01*
X130209126Y-77523472D01*
X130368641Y-77571860D01*
X130395625Y-77583038D01*
X130542623Y-77661610D01*
X130566910Y-77677837D01*
X130695762Y-77783583D01*
X130716416Y-77804237D01*
X130822162Y-77933089D01*
X130838389Y-77957376D01*
X130916961Y-78104374D01*
X130928139Y-78131359D01*
X130976524Y-78290862D01*
X130982223Y-78319511D01*
X130999282Y-78492721D01*
X130999999Y-78507325D01*
X130999999Y-79388255D01*
X130980037Y-79462755D01*
X130925499Y-79517293D01*
X130850999Y-79537255D01*
X130793980Y-79525913D01*
X130643709Y-79463669D01*
X130500000Y-79444749D01*
X130356291Y-79463669D01*
X130222374Y-79519139D01*
X130107378Y-79607378D01*
X130019139Y-79722374D01*
X129963669Y-79856291D01*
X129944749Y-79999999D01*
X129963669Y-80143708D01*
X130019139Y-80277625D01*
X130107378Y-80392621D01*
X130195618Y-80460329D01*
X130222375Y-80480861D01*
X130356291Y-80536330D01*
X130500000Y-80555250D01*
X130643709Y-80536330D01*
X130777625Y-80480861D01*
X130777627Y-80480858D01*
X130793979Y-80474086D01*
X130870447Y-80464019D01*
X130941704Y-80493534D01*
X130988657Y-80554724D01*
X130999999Y-80611744D01*
X130999999Y-83388255D01*
X130980037Y-83462755D01*
X130925499Y-83517293D01*
X130850999Y-83537255D01*
X130793980Y-83525913D01*
X130643709Y-83463669D01*
X130500000Y-83444749D01*
X130356291Y-83463669D01*
X130222374Y-83519139D01*
X130107378Y-83607378D01*
X130019139Y-83722374D01*
X129963669Y-83856291D01*
X129944749Y-84000000D01*
X129963669Y-84143708D01*
X130019139Y-84277625D01*
X130107378Y-84392621D01*
X130195618Y-84460329D01*
X130222375Y-84480861D01*
X130356291Y-84536330D01*
X130500000Y-84555250D01*
X130643709Y-84536330D01*
X130777625Y-84480861D01*
X130777627Y-84480858D01*
X130793979Y-84474086D01*
X130870447Y-84464019D01*
X130941704Y-84493534D01*
X130988657Y-84554724D01*
X130999999Y-84611744D01*
X130999999Y-85492674D01*
X130999282Y-85507278D01*
X130982223Y-85680488D01*
X130976524Y-85709137D01*
X130928139Y-85868640D01*
X130916961Y-85895625D01*
X130838389Y-86042623D01*
X130822162Y-86066910D01*
X130716416Y-86195762D01*
X130695762Y-86216416D01*
X130566910Y-86322162D01*
X130542623Y-86338389D01*
X130395625Y-86416961D01*
X130368640Y-86428139D01*
X130209137Y-86476524D01*
X130180489Y-86482222D01*
X130007280Y-86499282D01*
X129992675Y-86500000D01*
X128993760Y-86500000D01*
X128919260Y-86480038D01*
X128888401Y-86456359D01*
X128514087Y-86082045D01*
X128512758Y-86080764D01*
X128503223Y-86071702D01*
X128501886Y-86070476D01*
X128492389Y-86061883D01*
X128491019Y-86060687D01*
X128481040Y-86052093D01*
X128479638Y-86050928D01*
X128347921Y-85942844D01*
X128347905Y-85942831D01*
X128346508Y-85941685D01*
X128345060Y-85940611D01*
X128345051Y-85940604D01*
X128323898Y-85924915D01*
X128323876Y-85924899D01*
X128322434Y-85923830D01*
X128320930Y-85922825D01*
X128320913Y-85922813D01*
X128299655Y-85908608D01*
X128299636Y-85908596D01*
X128298156Y-85907607D01*
X128296630Y-85906692D01*
X128296609Y-85906679D01*
X128274013Y-85893135D01*
X128273998Y-85893126D01*
X128272434Y-85892189D01*
X128125418Y-85813607D01*
X128123787Y-85812835D01*
X128123766Y-85812825D01*
X128099970Y-85801571D01*
X128099966Y-85801569D01*
X128098310Y-85800786D01*
X128096632Y-85800091D01*
X128096605Y-85800079D01*
X128073012Y-85790308D01*
X128071332Y-85789612D01*
X128069630Y-85789003D01*
X128069622Y-85789000D01*
X128044838Y-85780133D01*
X128044817Y-85780126D01*
X128043109Y-85779515D01*
X128041377Y-85778989D01*
X128041348Y-85778980D01*
X127885342Y-85731657D01*
X127885332Y-85731654D01*
X127883594Y-85731127D01*
X127881854Y-85730691D01*
X127881832Y-85730685D01*
X127856274Y-85724283D01*
X127856277Y-85724283D01*
X127854514Y-85723842D01*
X127852765Y-85723494D01*
X127852729Y-85723486D01*
X127827655Y-85718499D01*
X127827643Y-85718497D01*
X127825884Y-85718147D01*
X127824135Y-85717887D01*
X127824103Y-85717882D01*
X127798033Y-85714016D01*
X127798032Y-85714015D01*
X127796226Y-85713748D01*
X127794440Y-85713572D01*
X127794407Y-85713568D01*
X127623008Y-85696688D01*
X127621189Y-85696542D01*
X127608046Y-85695585D01*
X127606221Y-85695484D01*
X127593442Y-85694868D01*
X127591632Y-85694813D01*
X127578461Y-85694500D01*
X127576629Y-85694489D01*
X127256218Y-85694500D01*
X127181718Y-85674538D01*
X127150859Y-85650859D01*
X123798066Y-82298066D01*
X123788247Y-82287232D01*
X123677839Y-82152700D01*
X123661616Y-82128422D01*
X123583034Y-81981406D01*
X123571860Y-81954427D01*
X123523472Y-81794913D01*
X123517777Y-81766283D01*
X123500717Y-81593064D01*
X123500000Y-81578460D01*
X123500000Y-78507325D01*
X123500717Y-78492721D01*
X123505544Y-78443708D01*
X123517777Y-78319502D01*
X123523472Y-78290875D01*
X123571861Y-78131354D01*
X123583038Y-78104374D01*
X123661610Y-77957376D01*
X123677837Y-77933089D01*
X123698938Y-77907378D01*
X123783584Y-77804235D01*
X123804237Y-77783583D01*
X123810994Y-77778038D01*
X123933090Y-77677835D01*
X123957376Y-77661610D01*
X124104374Y-77583038D01*
X124131354Y-77571861D01*
X124290875Y-77523472D01*
X124319502Y-77517777D01*
X124487055Y-77501275D01*
X124492721Y-77500717D01*
X124507325Y-77500000D01*
X125143772Y-77500000D01*
X125218272Y-77519962D01*
G37*
%TD.AperFunction*%
%TD*%
%TA.AperFunction,Conductor*%
%TO.N,/I2C2_SCL*%
G36*
X127378403Y-59337123D02*
G01*
X127693209Y-59617446D01*
X127697108Y-59625507D01*
X127694166Y-59633965D01*
X127693701Y-59634457D01*
X127529803Y-59798355D01*
X127521530Y-59801782D01*
X127519930Y-59801672D01*
X127203484Y-59757977D01*
X127195757Y-59753451D01*
X127193384Y-59746420D01*
X127192719Y-59510770D01*
X127196122Y-59502491D01*
X127362383Y-59337554D01*
X127370669Y-59334161D01*
X127378403Y-59337123D01*
G37*
%TD.AperFunction*%
%TD*%
%TA.AperFunction,Conductor*%
%TO.N,/I2C2_SDA*%
G36*
X127528540Y-58409027D02*
G01*
X127534849Y-58415382D01*
X127535058Y-58415931D01*
X127671650Y-58803545D01*
X127671168Y-58812487D01*
X127668888Y-58815707D01*
X127504862Y-58979733D01*
X127496589Y-58983160D01*
X127489118Y-58980463D01*
X127133061Y-58684942D01*
X127128883Y-58677021D01*
X127131530Y-58668467D01*
X127132208Y-58667718D01*
X127297624Y-58500975D01*
X127301483Y-58498395D01*
X127519589Y-58408994D01*
X127528540Y-58409027D01*
G37*
%TD.AperFunction*%
%TD*%
%TA.AperFunction,Conductor*%
%TO.N,/5V_Ext*%
G36*
X102923117Y-47002581D02*
G01*
X102943827Y-47002581D01*
X103076883Y-47002581D01*
X103090689Y-47000000D01*
X105992675Y-47000000D01*
X106007279Y-47000717D01*
X106021029Y-47002071D01*
X106180496Y-47017777D01*
X106209126Y-47023472D01*
X106368641Y-47071860D01*
X106395625Y-47083038D01*
X106542623Y-47161610D01*
X106566910Y-47177837D01*
X106695762Y-47283583D01*
X106716416Y-47304237D01*
X106822162Y-47433089D01*
X106838389Y-47457376D01*
X106916961Y-47604374D01*
X106928139Y-47631359D01*
X106943781Y-47682924D01*
X106972141Y-47776415D01*
X106976524Y-47790862D01*
X106982222Y-47819510D01*
X106999282Y-47992720D01*
X106999999Y-48007304D01*
X107000000Y-68000000D01*
X107292892Y-68292892D01*
X107292893Y-68292893D01*
X107295479Y-68295479D01*
X107295480Y-68295480D01*
X111701933Y-72701933D01*
X111711752Y-72712767D01*
X111822160Y-72847299D01*
X111838384Y-72871579D01*
X111883664Y-72956291D01*
X111916962Y-73018587D01*
X111928139Y-73045572D01*
X111976524Y-73205075D01*
X111982223Y-73233723D01*
X111999283Y-73406934D01*
X112000000Y-73421538D01*
X112000000Y-82000000D01*
X123078462Y-82000000D01*
X123093065Y-82000716D01*
X123178665Y-82009147D01*
X123250847Y-82036315D01*
X123299777Y-82095936D01*
X123300122Y-82096707D01*
X123300785Y-82098306D01*
X123313607Y-82125418D01*
X123314465Y-82127024D01*
X123314474Y-82127041D01*
X123383560Y-82256291D01*
X123392189Y-82272434D01*
X123393126Y-82273998D01*
X123393135Y-82274013D01*
X123406679Y-82296609D01*
X123406692Y-82296630D01*
X123407607Y-82298156D01*
X123408596Y-82299636D01*
X123408608Y-82299655D01*
X123422813Y-82320913D01*
X123422825Y-82320930D01*
X123423830Y-82322434D01*
X123424899Y-82323876D01*
X123424915Y-82323898D01*
X123440604Y-82345051D01*
X123441685Y-82346508D01*
X123442834Y-82347908D01*
X123442841Y-82347917D01*
X123552093Y-82481040D01*
X123553283Y-82482437D01*
X123561883Y-82492389D01*
X123563106Y-82493755D01*
X123571702Y-82503223D01*
X123572965Y-82504566D01*
X123582045Y-82514087D01*
X123583320Y-82515377D01*
X126515947Y-85447989D01*
X126554511Y-85514784D01*
X126554511Y-85591912D01*
X126515947Y-85658707D01*
X126449152Y-85697271D01*
X126430039Y-85701073D01*
X126352579Y-85711272D01*
X126352575Y-85711272D01*
X126350157Y-85711591D01*
X126347773Y-85712065D01*
X126347756Y-85712068D01*
X126313359Y-85718910D01*
X126313347Y-85718912D01*
X126310973Y-85719385D01*
X126308642Y-85720009D01*
X126308627Y-85720013D01*
X126275754Y-85728820D01*
X126275726Y-85728828D01*
X126273410Y-85729449D01*
X126271120Y-85730226D01*
X126271111Y-85730229D01*
X126237874Y-85741510D01*
X126237849Y-85741519D01*
X126235561Y-85742296D01*
X126233330Y-85743219D01*
X126233301Y-85743231D01*
X126153441Y-85776311D01*
X126153424Y-85776318D01*
X126151207Y-85777237D01*
X126149071Y-85778290D01*
X126149043Y-85778303D01*
X126117557Y-85793830D01*
X126117533Y-85793842D01*
X126115373Y-85794908D01*
X126113282Y-85796114D01*
X126113258Y-85796128D01*
X126083800Y-85813135D01*
X126083780Y-85813147D01*
X126081697Y-85814350D01*
X126079691Y-85815689D01*
X126079669Y-85815704D01*
X126050494Y-85835198D01*
X126050474Y-85835212D01*
X126048463Y-85836556D01*
X126046563Y-85838013D01*
X126046535Y-85838034D01*
X125977945Y-85890667D01*
X125977937Y-85890673D01*
X125976022Y-85892143D01*
X125974217Y-85893725D01*
X125974195Y-85893744D01*
X125947809Y-85916885D01*
X125947792Y-85916900D01*
X125945980Y-85918490D01*
X125944274Y-85920195D01*
X125944259Y-85920210D01*
X125920210Y-85944259D01*
X125920195Y-85944274D01*
X125918490Y-85945980D01*
X125916900Y-85947792D01*
X125916885Y-85947809D01*
X125893744Y-85974195D01*
X125893725Y-85974217D01*
X125892143Y-85976022D01*
X125890673Y-85977937D01*
X125890667Y-85977945D01*
X125838034Y-86046535D01*
X125838013Y-86046563D01*
X125836556Y-86048463D01*
X125835212Y-86050474D01*
X125835198Y-86050494D01*
X125815704Y-86079669D01*
X125815689Y-86079691D01*
X125814350Y-86081697D01*
X125813147Y-86083780D01*
X125813135Y-86083800D01*
X125796128Y-86113258D01*
X125796114Y-86113282D01*
X125794908Y-86115373D01*
X125793842Y-86117533D01*
X125793830Y-86117557D01*
X125778303Y-86149043D01*
X125778290Y-86149071D01*
X125777237Y-86151207D01*
X125776318Y-86153424D01*
X125776311Y-86153441D01*
X125743231Y-86233301D01*
X125743219Y-86233330D01*
X125742296Y-86235561D01*
X125741519Y-86237849D01*
X125741510Y-86237874D01*
X125733757Y-86260717D01*
X125729449Y-86273410D01*
X125728828Y-86275726D01*
X125728820Y-86275754D01*
X125720017Y-86308613D01*
X125719385Y-86310973D01*
X125718909Y-86313365D01*
X125718906Y-86313379D01*
X125712067Y-86347763D01*
X125712064Y-86347779D01*
X125711591Y-86350159D01*
X125711276Y-86352547D01*
X125711272Y-86352575D01*
X125699993Y-86438251D01*
X125699674Y-86440676D01*
X125699515Y-86443093D01*
X125699514Y-86443109D01*
X125697218Y-86478129D01*
X125697217Y-86478154D01*
X125697060Y-86480552D01*
X125697060Y-86519448D01*
X125697217Y-86521846D01*
X125697218Y-86521870D01*
X125699513Y-86556882D01*
X125699515Y-86556911D01*
X125699674Y-86559323D01*
X125699993Y-86561749D01*
X125699994Y-86561755D01*
X125704029Y-86592408D01*
X125711590Y-86649835D01*
X125712066Y-86652229D01*
X125712069Y-86652246D01*
X125718860Y-86686388D01*
X125719385Y-86689026D01*
X125720019Y-86691392D01*
X125728713Y-86723842D01*
X125729452Y-86726598D01*
X125730234Y-86728902D01*
X125730235Y-86728905D01*
X125741511Y-86762126D01*
X125741519Y-86762148D01*
X125742298Y-86764442D01*
X125743233Y-86766699D01*
X125776299Y-86846529D01*
X125776307Y-86846546D01*
X125777235Y-86848787D01*
X125794910Y-86884628D01*
X125796118Y-86886720D01*
X125796128Y-86886739D01*
X125808168Y-86907591D01*
X125814357Y-86918311D01*
X125836558Y-86951538D01*
X125838046Y-86953477D01*
X125890652Y-87022035D01*
X125890662Y-87022047D01*
X125892139Y-87023972D01*
X125893737Y-87025795D01*
X125893746Y-87025805D01*
X125912710Y-87047428D01*
X125918487Y-87054015D01*
X125945984Y-87081512D01*
X125976026Y-87107859D01*
X125977967Y-87109349D01*
X125977969Y-87109350D01*
X125993519Y-87121282D01*
X126048458Y-87163439D01*
X126050484Y-87164792D01*
X126050483Y-87164792D01*
X126079660Y-87184288D01*
X126079668Y-87184293D01*
X126081687Y-87185642D01*
X126115372Y-87205090D01*
X126151212Y-87222764D01*
X126235557Y-87257701D01*
X126273399Y-87270547D01*
X126310970Y-87280614D01*
X126350162Y-87288409D01*
X126460124Y-87302886D01*
X126500000Y-87305500D01*
X126545500Y-87305500D01*
X126620000Y-87325462D01*
X126674538Y-87380000D01*
X126694500Y-87454500D01*
X126694499Y-87959166D01*
X126694500Y-87959186D01*
X126694500Y-87962829D01*
X126694857Y-87966457D01*
X126694858Y-87966472D01*
X126695966Y-87977719D01*
X126698160Y-87999999D01*
X126700369Y-88022425D01*
X126701078Y-88025991D01*
X126701081Y-88026009D01*
X126705666Y-88049055D01*
X126707763Y-88059599D01*
X126711711Y-88079447D01*
X126712101Y-88081037D01*
X126712104Y-88081050D01*
X126718154Y-88105707D01*
X126768968Y-88205819D01*
X126800654Y-88247114D01*
X126815921Y-88267011D01*
X126819364Y-88270454D01*
X126869693Y-88320785D01*
X126882542Y-88335437D01*
X126902065Y-88360880D01*
X126921513Y-88394566D01*
X126931186Y-88417919D01*
X126941253Y-88455489D01*
X126944552Y-88480547D01*
X126944552Y-88519446D01*
X126939544Y-88557483D01*
X126910029Y-88628738D01*
X126879931Y-88667963D01*
X126866215Y-88683475D01*
X126826331Y-88722711D01*
X126826323Y-88722719D01*
X126823071Y-88725919D01*
X126820230Y-88729498D01*
X126820227Y-88729502D01*
X126779658Y-88780618D01*
X126779641Y-88780639D01*
X126778060Y-88782633D01*
X126776611Y-88784742D01*
X126754267Y-88817260D01*
X126715936Y-88922780D01*
X126704163Y-88994085D01*
X126704162Y-88994092D01*
X126703372Y-88998879D01*
X126703335Y-88999999D01*
X126703213Y-89003712D01*
X126703213Y-89003717D01*
X126700989Y-89071660D01*
X126700762Y-89078589D01*
X126701238Y-89083431D01*
X126701239Y-89083433D01*
X126713571Y-89208648D01*
X126713573Y-89208668D01*
X126713748Y-89210440D01*
X126714011Y-89212215D01*
X126714014Y-89212237D01*
X126717877Y-89238282D01*
X126717882Y-89238313D01*
X126718147Y-89240097D01*
X126718497Y-89241858D01*
X126718502Y-89241885D01*
X126719383Y-89246312D01*
X126723842Y-89268727D01*
X126724277Y-89270465D01*
X126724283Y-89270490D01*
X126730677Y-89296015D01*
X126730685Y-89296046D01*
X126731127Y-89297808D01*
X126731663Y-89299576D01*
X126731665Y-89299582D01*
X126766604Y-89414762D01*
X126779515Y-89457322D01*
X126789611Y-89485540D01*
X126790158Y-89486862D01*
X126798335Y-89563520D01*
X126767073Y-89634029D01*
X126766322Y-89634951D01*
X126758066Y-89645013D01*
X126695377Y-89689945D01*
X126642878Y-89699500D01*
X104003667Y-89699500D01*
X103996356Y-89699321D01*
X103644689Y-89682044D01*
X103630137Y-89680610D01*
X103285509Y-89629489D01*
X103271168Y-89626637D01*
X102933190Y-89541979D01*
X102919197Y-89537734D01*
X102591156Y-89420358D01*
X102577647Y-89414762D01*
X102262684Y-89265796D01*
X102249789Y-89258904D01*
X102023972Y-89123555D01*
X101950939Y-89079780D01*
X101938800Y-89071670D01*
X101658941Y-88864112D01*
X101647639Y-88854836D01*
X101450538Y-88676196D01*
X101389471Y-88620848D01*
X101379151Y-88610528D01*
X101244531Y-88461997D01*
X101145163Y-88352360D01*
X101135887Y-88341058D01*
X101122796Y-88323407D01*
X100928326Y-88061195D01*
X100920221Y-88049065D01*
X100741095Y-87750210D01*
X100734203Y-87737315D01*
X100585237Y-87422352D01*
X100579641Y-87408843D01*
X100462260Y-87080788D01*
X100458024Y-87066824D01*
X100455356Y-87056174D01*
X103997419Y-87056174D01*
X104038002Y-87160933D01*
X104051034Y-87177385D01*
X104051036Y-87177387D01*
X104053709Y-87180761D01*
X105319239Y-88446290D01*
X105322611Y-88448961D01*
X105322612Y-88448962D01*
X105339067Y-88461997D01*
X105443826Y-88502581D01*
X105443827Y-88502581D01*
X105556174Y-88502581D01*
X105660933Y-88461997D01*
X105677385Y-88448965D01*
X105680761Y-88446291D01*
X106236494Y-87890558D01*
X110309500Y-87890558D01*
X110309501Y-87890568D01*
X110309501Y-87894864D01*
X110309996Y-87899132D01*
X110309997Y-87899143D01*
X110312414Y-87919992D01*
X110357793Y-88022764D01*
X110357794Y-88022764D01*
X110357794Y-88022765D01*
X110437235Y-88102206D01*
X110540009Y-88147585D01*
X110565135Y-88150500D01*
X112354864Y-88150499D01*
X112377233Y-88147904D01*
X112379992Y-88147585D01*
X112462121Y-88111321D01*
X112482765Y-88102206D01*
X112562206Y-88022765D01*
X112607585Y-87919991D01*
X112610500Y-87894865D01*
X112610499Y-87388632D01*
X112630461Y-87314135D01*
X112684999Y-87259597D01*
X112759499Y-87239635D01*
X112833999Y-87259597D01*
X112888537Y-87314135D01*
X112902811Y-87347858D01*
X112922595Y-87417392D01*
X113017633Y-87608254D01*
X113146127Y-87778406D01*
X113303699Y-87922053D01*
X113484975Y-88034295D01*
X113484978Y-88034296D01*
X113484981Y-88034298D01*
X113683802Y-88111321D01*
X113893390Y-88150500D01*
X114106610Y-88150500D01*
X114316198Y-88111321D01*
X114515019Y-88034298D01*
X114534195Y-88022425D01*
X114696300Y-87922053D01*
X114696299Y-87922053D01*
X114696302Y-87922052D01*
X114853872Y-87778407D01*
X114982366Y-87608255D01*
X115077405Y-87417389D01*
X115135756Y-87212310D01*
X115155429Y-87000000D01*
X115135756Y-86787690D01*
X115077405Y-86582611D01*
X115077403Y-86582607D01*
X114982366Y-86391745D01*
X114853872Y-86221593D01*
X114755026Y-86131482D01*
X118245500Y-86131482D01*
X118258563Y-86218157D01*
X118284692Y-86391510D01*
X118362201Y-86642788D01*
X118476295Y-86879705D01*
X118476297Y-86879707D01*
X118476298Y-86879710D01*
X118624430Y-87096980D01*
X118802345Y-87288728D01*
X118803291Y-87289747D01*
X118823045Y-87305500D01*
X119008883Y-87453701D01*
X119122749Y-87519441D01*
X119236617Y-87585184D01*
X119481401Y-87681254D01*
X119573084Y-87702180D01*
X119737772Y-87739769D01*
X119934346Y-87754500D01*
X119937145Y-87754500D01*
X120062855Y-87754500D01*
X120065654Y-87754500D01*
X120262228Y-87739769D01*
X120518598Y-87681254D01*
X120518597Y-87681254D01*
X120763382Y-87585184D01*
X120837006Y-87542677D01*
X120991117Y-87453701D01*
X121196710Y-87289746D01*
X121375570Y-87096980D01*
X121523702Y-86879710D01*
X121637798Y-86642788D01*
X121715308Y-86391508D01*
X121754500Y-86131482D01*
X121754500Y-85868518D01*
X121715308Y-85608492D01*
X121637798Y-85357212D01*
X121523702Y-85120290D01*
X121375570Y-84903020D01*
X121196710Y-84710254D01*
X121196709Y-84710253D01*
X121196708Y-84710252D01*
X120991117Y-84546299D01*
X120763382Y-84414815D01*
X120518598Y-84318745D01*
X120262227Y-84260230D01*
X120068452Y-84245709D01*
X120068433Y-84245708D01*
X120065654Y-84245500D01*
X119934346Y-84245500D01*
X119931567Y-84245708D01*
X119931547Y-84245709D01*
X119737772Y-84260230D01*
X119481401Y-84318745D01*
X119236617Y-84414815D01*
X119008882Y-84546299D01*
X118803291Y-84710252D01*
X118624430Y-84903019D01*
X118476295Y-85120294D01*
X118362201Y-85357211D01*
X118284692Y-85608489D01*
X118253664Y-85814350D01*
X118245500Y-85868518D01*
X118245500Y-86131482D01*
X114755026Y-86131482D01*
X114696300Y-86077946D01*
X114515024Y-85965704D01*
X114505455Y-85961997D01*
X114316198Y-85888679D01*
X114316195Y-85888678D01*
X114316194Y-85888678D01*
X114106610Y-85849500D01*
X113893390Y-85849500D01*
X113683805Y-85888678D01*
X113683802Y-85888678D01*
X113683802Y-85888679D01*
X113660271Y-85897795D01*
X113484975Y-85965704D01*
X113303699Y-86077946D01*
X113146127Y-86221593D01*
X113017633Y-86391745D01*
X112922595Y-86582607D01*
X112902811Y-86652142D01*
X112863222Y-86718334D01*
X112795841Y-86755865D01*
X112718722Y-86754677D01*
X112652530Y-86715088D01*
X112614999Y-86647707D01*
X112610499Y-86611365D01*
X112610499Y-86109441D01*
X112610499Y-86105136D01*
X112607585Y-86080009D01*
X112607585Y-86080007D01*
X112562206Y-85977235D01*
X112482766Y-85897795D01*
X112482765Y-85897794D01*
X112379991Y-85852415D01*
X112379990Y-85852414D01*
X112379988Y-85852414D01*
X112359132Y-85849995D01*
X112359131Y-85849994D01*
X112354865Y-85849500D01*
X112350568Y-85849500D01*
X110569441Y-85849500D01*
X110569423Y-85849500D01*
X110565136Y-85849501D01*
X110560862Y-85849996D01*
X110560856Y-85849997D01*
X110540007Y-85852414D01*
X110437235Y-85897793D01*
X110357795Y-85977233D01*
X110312414Y-86080011D01*
X110311975Y-86083800D01*
X110309500Y-86105135D01*
X110309500Y-86109430D01*
X110309500Y-86109431D01*
X110309500Y-87890558D01*
X106236494Y-87890558D01*
X106946290Y-87180761D01*
X106961997Y-87160933D01*
X106993040Y-87080802D01*
X107002581Y-87056174D01*
X107002581Y-86943825D01*
X106961997Y-86839066D01*
X106948965Y-86822614D01*
X106948959Y-86822607D01*
X106946291Y-86819239D01*
X105680761Y-85553710D01*
X105660933Y-85538003D01*
X105660932Y-85538002D01*
X105556174Y-85497419D01*
X105556173Y-85497419D01*
X105443827Y-85497419D01*
X105443826Y-85497419D01*
X105339066Y-85538002D01*
X105322614Y-85551034D01*
X105322597Y-85551048D01*
X105319239Y-85553709D01*
X105316207Y-85556740D01*
X105316198Y-85556749D01*
X104056752Y-86816196D01*
X104056743Y-86816205D01*
X104053710Y-86819239D01*
X104051046Y-86822601D01*
X104051037Y-86822612D01*
X104038002Y-86839067D01*
X103997419Y-86943825D01*
X103997419Y-87056174D01*
X100455356Y-87056174D01*
X100373937Y-86731127D01*
X100373362Y-86728831D01*
X100370510Y-86714490D01*
X100361277Y-86652246D01*
X100319388Y-86369859D01*
X100317955Y-86355310D01*
X100310267Y-86198824D01*
X100300679Y-86003643D01*
X100300500Y-85996332D01*
X100300500Y-84556174D01*
X101497419Y-84556174D01*
X101538002Y-84660933D01*
X101551034Y-84677385D01*
X101551036Y-84677387D01*
X101553709Y-84680761D01*
X102819239Y-85946290D01*
X102822611Y-85948961D01*
X102822612Y-85948962D01*
X102839067Y-85961997D01*
X102943826Y-86002581D01*
X102943827Y-86002581D01*
X103056174Y-86002581D01*
X103160933Y-85961997D01*
X103177385Y-85948965D01*
X103180761Y-85946291D01*
X104446290Y-84680761D01*
X104461997Y-84660933D01*
X104502581Y-84556173D01*
X104502581Y-84443827D01*
X104502581Y-84443826D01*
X104502581Y-84443825D01*
X104461997Y-84339066D01*
X104448965Y-84322614D01*
X104448959Y-84322607D01*
X104446291Y-84319239D01*
X103180761Y-83053710D01*
X103160933Y-83038003D01*
X103160932Y-83038002D01*
X103062834Y-82999999D01*
X112444749Y-82999999D01*
X112463669Y-83143708D01*
X112519139Y-83277625D01*
X112607378Y-83392621D01*
X112695618Y-83460329D01*
X112722375Y-83480861D01*
X112856291Y-83536330D01*
X113000000Y-83555250D01*
X113143709Y-83536330D01*
X113277625Y-83480861D01*
X113392621Y-83392621D01*
X113480861Y-83277625D01*
X113536330Y-83143709D01*
X113555250Y-83000000D01*
X113549358Y-82955250D01*
X113536330Y-82856291D01*
X113509957Y-82792621D01*
X113480861Y-82722375D01*
X113446523Y-82677625D01*
X113392621Y-82607378D01*
X113277625Y-82519139D01*
X113143708Y-82463669D01*
X113000000Y-82444749D01*
X112856291Y-82463669D01*
X112722374Y-82519139D01*
X112607378Y-82607378D01*
X112519139Y-82722374D01*
X112463669Y-82856291D01*
X112444749Y-82999999D01*
X103062834Y-82999999D01*
X103056174Y-82997419D01*
X103056173Y-82997419D01*
X102943827Y-82997419D01*
X102943826Y-82997419D01*
X102839066Y-83038002D01*
X102822614Y-83051034D01*
X102822597Y-83051048D01*
X102819239Y-83053709D01*
X102816207Y-83056740D01*
X102816198Y-83056749D01*
X101556752Y-84316196D01*
X101556743Y-84316205D01*
X101553710Y-84319239D01*
X101551046Y-84322601D01*
X101551037Y-84322612D01*
X101538002Y-84339067D01*
X101497419Y-84443825D01*
X101497419Y-84556174D01*
X100300500Y-84556174D01*
X100300500Y-82400000D01*
X109344749Y-82400000D01*
X109363669Y-82543708D01*
X109419139Y-82677625D01*
X109507378Y-82792621D01*
X109590355Y-82856291D01*
X109622375Y-82880861D01*
X109756291Y-82936330D01*
X109900000Y-82955250D01*
X110043709Y-82936330D01*
X110177625Y-82880861D01*
X110292621Y-82792621D01*
X110380861Y-82677625D01*
X110436330Y-82543709D01*
X110455250Y-82400000D01*
X110436330Y-82256291D01*
X110380861Y-82122375D01*
X110320038Y-82043109D01*
X110292621Y-82007378D01*
X110177625Y-81919139D01*
X110043708Y-81863669D01*
X109900000Y-81844749D01*
X109756291Y-81863669D01*
X109622374Y-81919139D01*
X109507378Y-82007378D01*
X109419139Y-82122374D01*
X109363669Y-82256291D01*
X109344749Y-82400000D01*
X100300500Y-82400000D01*
X100300500Y-81593490D01*
X100650500Y-81593490D01*
X100689374Y-81776385D01*
X100765425Y-81947197D01*
X100875331Y-82098471D01*
X101001698Y-82212252D01*
X101014285Y-82223585D01*
X101176215Y-82317075D01*
X101354044Y-82374855D01*
X101493380Y-82389500D01*
X101497282Y-82389500D01*
X101582718Y-82389500D01*
X101586620Y-82389500D01*
X101725956Y-82374855D01*
X101903785Y-82317075D01*
X102065715Y-82223585D01*
X102204669Y-82098470D01*
X102314573Y-81947200D01*
X102390625Y-81776385D01*
X102429500Y-81593490D01*
X102429500Y-81406510D01*
X102416152Y-81343709D01*
X102390625Y-81223614D01*
X102314574Y-81052802D01*
X102204668Y-80901528D01*
X102065715Y-80776415D01*
X101903785Y-80682925D01*
X101903782Y-80682924D01*
X101725958Y-80625145D01*
X101590498Y-80610907D01*
X101590486Y-80610906D01*
X101586620Y-80610500D01*
X101493380Y-80610500D01*
X101489514Y-80610906D01*
X101489501Y-80610907D01*
X101354041Y-80625145D01*
X101176217Y-80682924D01*
X101014284Y-80776415D01*
X100875331Y-80901528D01*
X100765425Y-81052802D01*
X100689374Y-81223614D01*
X100650500Y-81406509D01*
X100650500Y-81593490D01*
X100300500Y-81593490D01*
X100300500Y-80000000D01*
X107444749Y-80000000D01*
X107463669Y-80143708D01*
X107519139Y-80277625D01*
X107607378Y-80392621D01*
X107695618Y-80460329D01*
X107722375Y-80480861D01*
X107856291Y-80536329D01*
X107856291Y-80536330D01*
X107999999Y-80555250D01*
X107999999Y-80555249D01*
X108000000Y-80555250D01*
X108143709Y-80536330D01*
X108277625Y-80480861D01*
X108392621Y-80392621D01*
X108480861Y-80277625D01*
X108536330Y-80143709D01*
X108555250Y-80000000D01*
X108536330Y-79856291D01*
X108480861Y-79722375D01*
X108447406Y-79678776D01*
X108392621Y-79607378D01*
X108277625Y-79519139D01*
X108231417Y-79499999D01*
X110532249Y-79499999D01*
X110551169Y-79643708D01*
X110606639Y-79777625D01*
X110694878Y-79892621D01*
X110783118Y-79960329D01*
X110809875Y-79980861D01*
X110943791Y-80036330D01*
X111087500Y-80055250D01*
X111231209Y-80036330D01*
X111365125Y-79980861D01*
X111480121Y-79892621D01*
X111568361Y-79777625D01*
X111623830Y-79643709D01*
X111642750Y-79500000D01*
X111623830Y-79356291D01*
X111568361Y-79222375D01*
X111533986Y-79177577D01*
X111480121Y-79107378D01*
X111365125Y-79019139D01*
X111231208Y-78963669D01*
X111087500Y-78944749D01*
X110943791Y-78963669D01*
X110809874Y-79019139D01*
X110694878Y-79107378D01*
X110606639Y-79222374D01*
X110551169Y-79356291D01*
X110532249Y-79499999D01*
X108231417Y-79499999D01*
X108143708Y-79463669D01*
X108000000Y-79444749D01*
X107856291Y-79463669D01*
X107722374Y-79519139D01*
X107607378Y-79607378D01*
X107519139Y-79722374D01*
X107463669Y-79856291D01*
X107444749Y-80000000D01*
X100300500Y-80000000D01*
X100300500Y-78499999D01*
X102144843Y-78499999D01*
X102165430Y-78735320D01*
X102226569Y-78963491D01*
X102326399Y-79177577D01*
X102385073Y-79261372D01*
X103008866Y-78637578D01*
X103031318Y-78714040D01*
X103110605Y-78837413D01*
X103221438Y-78933451D01*
X103354839Y-78994373D01*
X103358633Y-78994918D01*
X102738625Y-79614926D01*
X102822421Y-79673600D01*
X103036508Y-79773430D01*
X103264679Y-79834569D01*
X103499999Y-79855156D01*
X103735320Y-79834569D01*
X103963490Y-79773431D01*
X104177581Y-79673598D01*
X104261373Y-79614926D01*
X103641365Y-78994918D01*
X103645161Y-78994373D01*
X103778562Y-78933451D01*
X103889395Y-78837413D01*
X103968682Y-78714040D01*
X103991133Y-78637579D01*
X104614926Y-79261372D01*
X104673598Y-79177581D01*
X104773431Y-78963490D01*
X104834569Y-78735320D01*
X104855156Y-78499999D01*
X104834569Y-78264679D01*
X104773431Y-78036509D01*
X104673600Y-77822423D01*
X104614925Y-77738626D01*
X103991132Y-78362418D01*
X103968682Y-78285960D01*
X103889395Y-78162587D01*
X103778562Y-78066549D01*
X103645161Y-78005627D01*
X103641363Y-78005081D01*
X104146446Y-77499999D01*
X110494749Y-77499999D01*
X110513669Y-77643708D01*
X110569139Y-77777625D01*
X110657378Y-77892621D01*
X110745618Y-77960329D01*
X110772375Y-77980861D01*
X110888665Y-78029029D01*
X110906291Y-78036330D01*
X111049999Y-78055250D01*
X111049999Y-78055249D01*
X111050000Y-78055250D01*
X111193709Y-78036330D01*
X111327625Y-77980861D01*
X111442621Y-77892621D01*
X111530861Y-77777625D01*
X111586330Y-77643709D01*
X111605250Y-77500000D01*
X111586330Y-77356291D01*
X111530861Y-77222375D01*
X111509472Y-77194500D01*
X111442621Y-77107378D01*
X111327625Y-77019139D01*
X111193708Y-76963669D01*
X111049999Y-76944749D01*
X110906291Y-76963669D01*
X110772374Y-77019139D01*
X110657378Y-77107378D01*
X110569139Y-77222374D01*
X110513669Y-77356291D01*
X110494749Y-77499999D01*
X104146446Y-77499999D01*
X104261372Y-77385073D01*
X104177577Y-77326399D01*
X103963491Y-77226569D01*
X103735320Y-77165430D01*
X103500000Y-77144843D01*
X103264679Y-77165430D01*
X103036509Y-77226568D01*
X102822421Y-77326400D01*
X102738625Y-77385073D01*
X103358634Y-78005081D01*
X103354839Y-78005627D01*
X103221438Y-78066549D01*
X103110605Y-78162587D01*
X103031318Y-78285960D01*
X103008866Y-78362419D01*
X102385073Y-77738626D01*
X102326400Y-77822421D01*
X102226568Y-78036509D01*
X102165430Y-78264679D01*
X102144843Y-78499999D01*
X100300500Y-78499999D01*
X100300500Y-75500000D01*
X102344570Y-75500000D01*
X102364243Y-75712307D01*
X102422595Y-75917391D01*
X102517633Y-76108254D01*
X102646127Y-76278406D01*
X102803699Y-76422053D01*
X102984975Y-76534295D01*
X102984978Y-76534296D01*
X102984981Y-76534298D01*
X103183802Y-76611321D01*
X103393390Y-76650500D01*
X103606610Y-76650500D01*
X103816198Y-76611321D01*
X104015019Y-76534298D01*
X104196302Y-76422052D01*
X104353872Y-76278407D01*
X104482366Y-76108255D01*
X104577405Y-75917389D01*
X104635756Y-75712310D01*
X104655429Y-75500000D01*
X104635756Y-75287690D01*
X104577405Y-75082611D01*
X104482366Y-74891745D01*
X104353872Y-74721593D01*
X104196302Y-74577948D01*
X104196300Y-74577946D01*
X104015024Y-74465704D01*
X103939200Y-74436330D01*
X103816198Y-74388679D01*
X103816195Y-74388678D01*
X103816194Y-74388678D01*
X103606610Y-74349500D01*
X103393390Y-74349500D01*
X103183805Y-74388678D01*
X102984975Y-74465704D01*
X102803699Y-74577946D01*
X102646127Y-74721593D01*
X102517633Y-74891745D01*
X102422595Y-75082608D01*
X102364243Y-75287692D01*
X102344570Y-75500000D01*
X100300500Y-75500000D01*
X100300500Y-72500000D01*
X102344570Y-72500000D01*
X102364243Y-72712307D01*
X102422595Y-72917391D01*
X102517633Y-73108254D01*
X102646127Y-73278406D01*
X102803699Y-73422053D01*
X102984975Y-73534295D01*
X102984978Y-73534296D01*
X102984981Y-73534298D01*
X103183802Y-73611321D01*
X103393390Y-73650500D01*
X103606610Y-73650500D01*
X103816198Y-73611321D01*
X104015019Y-73534298D01*
X104196302Y-73422052D01*
X104353872Y-73278407D01*
X104482366Y-73108255D01*
X104486476Y-73100000D01*
X110244749Y-73100000D01*
X110263669Y-73243708D01*
X110319139Y-73377625D01*
X110407378Y-73492621D01*
X110461689Y-73534295D01*
X110522375Y-73580861D01*
X110656291Y-73636330D01*
X110800000Y-73655250D01*
X110943709Y-73636330D01*
X111077625Y-73580861D01*
X111192621Y-73492621D01*
X111280861Y-73377625D01*
X111336330Y-73243709D01*
X111355250Y-73100000D01*
X111336330Y-72956291D01*
X111280861Y-72822375D01*
X111260329Y-72795618D01*
X111192621Y-72707378D01*
X111077625Y-72619139D01*
X110943708Y-72563669D01*
X110800000Y-72544749D01*
X110656291Y-72563669D01*
X110522374Y-72619139D01*
X110407378Y-72707378D01*
X110319139Y-72822374D01*
X110263669Y-72956291D01*
X110244749Y-73100000D01*
X104486476Y-73100000D01*
X104577405Y-72917389D01*
X104635756Y-72712310D01*
X104655429Y-72500000D01*
X104635756Y-72287690D01*
X104577405Y-72082611D01*
X104482366Y-71891745D01*
X104353872Y-71721593D01*
X104220799Y-71600280D01*
X104196300Y-71577946D01*
X104070414Y-71500000D01*
X108644749Y-71500000D01*
X108663669Y-71643708D01*
X108719139Y-71777625D01*
X108807378Y-71892621D01*
X108895618Y-71960329D01*
X108922375Y-71980861D01*
X109056291Y-72036330D01*
X109200000Y-72055250D01*
X109343709Y-72036330D01*
X109477625Y-71980861D01*
X109592621Y-71892621D01*
X109680861Y-71777625D01*
X109736330Y-71643709D01*
X109755250Y-71500000D01*
X109736330Y-71356291D01*
X109680861Y-71222375D01*
X109598295Y-71114773D01*
X109592621Y-71107378D01*
X109477625Y-71019139D01*
X109343708Y-70963669D01*
X109200000Y-70944749D01*
X109056291Y-70963669D01*
X108922374Y-71019139D01*
X108807378Y-71107378D01*
X108719139Y-71222374D01*
X108663669Y-71356291D01*
X108644749Y-71500000D01*
X104070414Y-71500000D01*
X104015024Y-71465704D01*
X104015019Y-71465702D01*
X103816198Y-71388679D01*
X103816195Y-71388678D01*
X103816194Y-71388678D01*
X103606610Y-71349500D01*
X103393390Y-71349500D01*
X103183805Y-71388678D01*
X102984975Y-71465704D01*
X102803699Y-71577946D01*
X102646127Y-71721593D01*
X102517633Y-71891745D01*
X102422595Y-72082608D01*
X102364243Y-72287692D01*
X102344570Y-72500000D01*
X100300500Y-72500000D01*
X100300500Y-69499999D01*
X102344570Y-69499999D01*
X102364243Y-69712307D01*
X102422595Y-69917391D01*
X102517633Y-70108254D01*
X102646127Y-70278406D01*
X102803699Y-70422053D01*
X102984975Y-70534295D01*
X102984978Y-70534296D01*
X102984981Y-70534298D01*
X103183802Y-70611321D01*
X103393390Y-70650500D01*
X103606610Y-70650500D01*
X103816198Y-70611321D01*
X104015019Y-70534298D01*
X104196302Y-70422052D01*
X104353872Y-70278407D01*
X104482366Y-70108255D01*
X104577405Y-69917389D01*
X104635756Y-69712310D01*
X104655429Y-69500000D01*
X104635756Y-69287690D01*
X104577405Y-69082611D01*
X104482366Y-68891745D01*
X104353872Y-68721593D01*
X104196302Y-68577948D01*
X104196300Y-68577946D01*
X104015024Y-68465704D01*
X103960935Y-68444750D01*
X103816198Y-68388679D01*
X103816195Y-68388678D01*
X103816194Y-68388678D01*
X103606610Y-68349500D01*
X103393390Y-68349500D01*
X103183805Y-68388678D01*
X102984975Y-68465704D01*
X102803699Y-68577946D01*
X102646127Y-68721593D01*
X102517633Y-68891745D01*
X102422595Y-69082608D01*
X102364243Y-69287692D01*
X102344570Y-69499999D01*
X100300500Y-69499999D01*
X100300500Y-66593490D01*
X100650500Y-66593490D01*
X100689374Y-66776385D01*
X100765425Y-66947197D01*
X100875331Y-67098471D01*
X101001698Y-67212252D01*
X101014285Y-67223585D01*
X101176215Y-67317075D01*
X101354044Y-67374855D01*
X101493380Y-67389500D01*
X101497282Y-67389500D01*
X101582718Y-67389500D01*
X101586620Y-67389500D01*
X101725956Y-67374855D01*
X101903785Y-67317075D01*
X102065715Y-67223585D01*
X102204669Y-67098470D01*
X102314573Y-66947200D01*
X102390625Y-66776385D01*
X102429500Y-66593490D01*
X102429500Y-66406510D01*
X102416152Y-66343709D01*
X102390625Y-66223614D01*
X102314574Y-66052802D01*
X102297338Y-66029079D01*
X102204669Y-65901530D01*
X102204668Y-65901528D01*
X102065715Y-65776415D01*
X102065714Y-65776414D01*
X101903785Y-65682925D01*
X101903782Y-65682924D01*
X101725958Y-65625145D01*
X101590498Y-65610907D01*
X101590486Y-65610906D01*
X101586620Y-65610500D01*
X101493380Y-65610500D01*
X101489514Y-65610906D01*
X101489501Y-65610907D01*
X101354041Y-65625145D01*
X101176217Y-65682924D01*
X101014284Y-65776415D01*
X100875331Y-65901528D01*
X100765425Y-66052802D01*
X100689374Y-66223614D01*
X100650500Y-66406509D01*
X100650500Y-66593490D01*
X100300500Y-66593490D01*
X100300500Y-63593490D01*
X100650500Y-63593490D01*
X100689374Y-63776385D01*
X100765425Y-63947197D01*
X100875331Y-64098471D01*
X100988091Y-64200000D01*
X101014285Y-64223585D01*
X101176215Y-64317075D01*
X101354044Y-64374855D01*
X101493380Y-64389500D01*
X101497282Y-64389500D01*
X101582718Y-64389500D01*
X101586620Y-64389500D01*
X101725956Y-64374855D01*
X101903785Y-64317075D01*
X102065715Y-64223585D01*
X102204669Y-64098470D01*
X102314573Y-63947200D01*
X102390625Y-63776385D01*
X102429500Y-63593490D01*
X102429500Y-63406510D01*
X102423361Y-63377625D01*
X102390625Y-63223614D01*
X102314574Y-63052802D01*
X102276211Y-63000000D01*
X102204669Y-62901530D01*
X102204668Y-62901528D01*
X102065715Y-62776415D01*
X101996869Y-62736667D01*
X101903785Y-62682925D01*
X101885507Y-62676986D01*
X101725958Y-62625145D01*
X101590498Y-62610907D01*
X101590486Y-62610906D01*
X101586620Y-62610500D01*
X101493380Y-62610500D01*
X101489514Y-62610906D01*
X101489501Y-62610907D01*
X101354041Y-62625145D01*
X101176217Y-62682924D01*
X101014284Y-62776415D01*
X100875331Y-62901528D01*
X100765425Y-63052802D01*
X100689374Y-63223614D01*
X100650500Y-63406509D01*
X100650500Y-63593490D01*
X100300500Y-63593490D01*
X100300500Y-60500000D01*
X102144843Y-60500000D01*
X102165430Y-60735320D01*
X102226569Y-60963491D01*
X102326399Y-61177577D01*
X102385073Y-61261372D01*
X103008866Y-60637578D01*
X103031318Y-60714040D01*
X103110605Y-60837413D01*
X103221438Y-60933451D01*
X103354839Y-60994373D01*
X103358633Y-60994918D01*
X102738625Y-61614926D01*
X102822421Y-61673600D01*
X103036508Y-61773430D01*
X103264679Y-61834569D01*
X103499999Y-61855156D01*
X103735320Y-61834569D01*
X103963490Y-61773431D01*
X104177581Y-61673598D01*
X104261373Y-61614926D01*
X103641365Y-60994918D01*
X103645161Y-60994373D01*
X103778562Y-60933451D01*
X103889395Y-60837413D01*
X103968682Y-60714040D01*
X103991133Y-60637579D01*
X104614926Y-61261372D01*
X104673598Y-61177581D01*
X104773431Y-60963490D01*
X104834569Y-60735320D01*
X104855156Y-60500000D01*
X104834569Y-60264679D01*
X104773431Y-60036509D01*
X104673600Y-59822423D01*
X104614925Y-59738626D01*
X103991132Y-60362418D01*
X103968682Y-60285960D01*
X103889395Y-60162587D01*
X103778562Y-60066549D01*
X103645161Y-60005627D01*
X103641363Y-60005081D01*
X104261372Y-59385073D01*
X104177577Y-59326399D01*
X103963491Y-59226569D01*
X103735320Y-59165430D01*
X103499999Y-59144843D01*
X103264679Y-59165430D01*
X103036509Y-59226568D01*
X102822421Y-59326400D01*
X102738625Y-59385073D01*
X103358634Y-60005081D01*
X103354839Y-60005627D01*
X103221438Y-60066549D01*
X103110605Y-60162587D01*
X103031318Y-60285960D01*
X103008866Y-60362420D01*
X102385072Y-59738626D01*
X102326400Y-59822421D01*
X102226568Y-60036509D01*
X102165430Y-60264679D01*
X102144843Y-60500000D01*
X100300500Y-60500000D01*
X100300500Y-57499999D01*
X102344570Y-57499999D01*
X102364243Y-57712307D01*
X102422595Y-57917391D01*
X102517633Y-58108254D01*
X102646127Y-58278406D01*
X102803699Y-58422053D01*
X102984975Y-58534295D01*
X102984978Y-58534296D01*
X102984981Y-58534298D01*
X103183802Y-58611321D01*
X103393390Y-58650500D01*
X103606610Y-58650500D01*
X103816198Y-58611321D01*
X104015019Y-58534298D01*
X104196302Y-58422052D01*
X104353872Y-58278407D01*
X104482366Y-58108255D01*
X104577405Y-57917389D01*
X104635756Y-57712310D01*
X104655429Y-57500000D01*
X104635756Y-57287690D01*
X104577405Y-57082611D01*
X104482366Y-56891745D01*
X104353872Y-56721593D01*
X104196302Y-56577948D01*
X104196300Y-56577946D01*
X104015024Y-56465704D01*
X104015019Y-56465702D01*
X103816198Y-56388679D01*
X103816195Y-56388678D01*
X103816194Y-56388678D01*
X103606610Y-56349500D01*
X103393390Y-56349500D01*
X103183805Y-56388678D01*
X102984975Y-56465704D01*
X102803699Y-56577946D01*
X102646127Y-56721593D01*
X102517633Y-56891745D01*
X102422595Y-57082608D01*
X102364243Y-57287692D01*
X102344570Y-57499999D01*
X100300500Y-57499999D01*
X100300500Y-54500000D01*
X102344570Y-54500000D01*
X102364243Y-54712307D01*
X102422595Y-54917391D01*
X102517633Y-55108254D01*
X102646127Y-55278406D01*
X102803699Y-55422053D01*
X102984975Y-55534295D01*
X102984978Y-55534296D01*
X102984981Y-55534298D01*
X103183802Y-55611321D01*
X103393390Y-55650500D01*
X103606610Y-55650500D01*
X103816198Y-55611321D01*
X104015019Y-55534298D01*
X104196302Y-55422052D01*
X104353872Y-55278407D01*
X104482366Y-55108255D01*
X104577405Y-54917389D01*
X104635756Y-54712310D01*
X104655429Y-54500000D01*
X104635756Y-54287690D01*
X104577405Y-54082611D01*
X104482366Y-53891745D01*
X104353872Y-53721593D01*
X104196302Y-53577948D01*
X104196300Y-53577946D01*
X104015024Y-53465704D01*
X104015019Y-53465702D01*
X103816198Y-53388679D01*
X103816195Y-53388678D01*
X103816194Y-53388678D01*
X103606610Y-53349500D01*
X103393390Y-53349500D01*
X103183805Y-53388678D01*
X102984975Y-53465704D01*
X102803699Y-53577946D01*
X102646127Y-53721593D01*
X102517633Y-53891745D01*
X102422595Y-54082608D01*
X102364243Y-54287692D01*
X102344570Y-54500000D01*
X100300500Y-54500000D01*
X100300500Y-51500000D01*
X102344570Y-51500000D01*
X102364243Y-51712307D01*
X102422595Y-51917391D01*
X102517633Y-52108254D01*
X102646127Y-52278406D01*
X102803699Y-52422053D01*
X102984975Y-52534295D01*
X102984978Y-52534296D01*
X102984981Y-52534298D01*
X103183802Y-52611321D01*
X103393390Y-52650500D01*
X103606610Y-52650500D01*
X103816198Y-52611321D01*
X104015019Y-52534298D01*
X104196302Y-52422052D01*
X104353872Y-52278407D01*
X104482366Y-52108255D01*
X104577405Y-51917389D01*
X104635756Y-51712310D01*
X104655429Y-51500000D01*
X104635756Y-51287690D01*
X104577405Y-51082611D01*
X104553348Y-51034298D01*
X104482366Y-50891745D01*
X104353872Y-50721593D01*
X104196300Y-50577946D01*
X104015024Y-50465704D01*
X104015019Y-50465702D01*
X103816198Y-50388679D01*
X103816195Y-50388678D01*
X103816194Y-50388678D01*
X103606610Y-50349500D01*
X103393390Y-50349500D01*
X103183805Y-50388678D01*
X102984975Y-50465704D01*
X102803699Y-50577946D01*
X102646127Y-50721593D01*
X102517633Y-50891745D01*
X102422595Y-51082608D01*
X102364243Y-51287692D01*
X102344570Y-51500000D01*
X100300500Y-51500000D01*
X100300500Y-48593490D01*
X100650500Y-48593490D01*
X100689374Y-48776385D01*
X100765425Y-48947197D01*
X100765426Y-48947199D01*
X100765427Y-48947200D01*
X100787211Y-48977183D01*
X100875331Y-49098471D01*
X101001698Y-49212252D01*
X101014285Y-49223585D01*
X101176215Y-49317075D01*
X101354044Y-49374855D01*
X101493380Y-49389500D01*
X101497282Y-49389500D01*
X101582718Y-49389500D01*
X101586620Y-49389500D01*
X101725956Y-49374855D01*
X101903785Y-49317075D01*
X102065715Y-49223585D01*
X102204669Y-49098470D01*
X102314573Y-48947200D01*
X102390625Y-48776385D01*
X102429500Y-48593490D01*
X102429500Y-48406510D01*
X102390625Y-48223615D01*
X102314573Y-48052800D01*
X102204669Y-47901530D01*
X102204668Y-47901528D01*
X102065715Y-47776415D01*
X101903785Y-47682925D01*
X101903782Y-47682924D01*
X101725958Y-47625145D01*
X101590498Y-47610907D01*
X101590486Y-47610906D01*
X101586620Y-47610500D01*
X101493380Y-47610500D01*
X101489514Y-47610906D01*
X101489501Y-47610907D01*
X101354041Y-47625145D01*
X101176217Y-47682924D01*
X101014284Y-47776415D01*
X100875331Y-47901528D01*
X100765425Y-48052802D01*
X100689374Y-48223614D01*
X100650500Y-48406509D01*
X100650500Y-48593490D01*
X100300500Y-48593490D01*
X100300500Y-47357121D01*
X100320462Y-47282621D01*
X100354970Y-47241947D01*
X100433097Y-47177830D01*
X100457359Y-47161619D01*
X100604383Y-47083032D01*
X100631354Y-47071861D01*
X100790875Y-47023472D01*
X100819502Y-47017777D01*
X100980362Y-47001934D01*
X100992721Y-47000717D01*
X101007325Y-47000000D01*
X102909311Y-47000000D01*
X102923117Y-47002581D01*
G37*
%TD.AperFunction*%
%TD*%
%TA.AperFunction,Conductor*%
%TO.N,Net-(J3-D-)*%
G36*
X132891267Y-52572711D02*
G01*
X132898400Y-52578123D01*
X132900000Y-52584028D01*
X132900000Y-52815971D01*
X132896573Y-52824244D01*
X132891266Y-52827289D01*
X132505504Y-52928392D01*
X132496633Y-52927174D01*
X132491745Y-52921591D01*
X132400889Y-52704515D01*
X132400857Y-52695563D01*
X132491746Y-52478406D01*
X132498101Y-52472099D01*
X132505504Y-52471607D01*
X132891267Y-52572711D01*
G37*
%TD.AperFunction*%
%TD*%
%TA.AperFunction,Conductor*%
%TO.N,/NRST*%
G36*
X115171548Y-62664441D02*
G01*
X115335558Y-62828451D01*
X115338985Y-62836724D01*
X115337385Y-62842629D01*
X115136101Y-63186894D01*
X115128967Y-63192307D01*
X115121564Y-63191815D01*
X114903824Y-63102564D01*
X114897468Y-63096255D01*
X114897435Y-63096175D01*
X114808184Y-62878435D01*
X114808217Y-62869481D01*
X114813103Y-62863899D01*
X115157373Y-62662613D01*
X115166241Y-62661396D01*
X115171548Y-62664441D01*
G37*
%TD.AperFunction*%
%TD*%
%TA.AperFunction,Conductor*%
%TO.N,/I2C2_SDA*%
G36*
X138703366Y-62572825D02*
G01*
X138708254Y-62578408D01*
X138799109Y-62795482D01*
X138799142Y-62804436D01*
X138799109Y-62804516D01*
X138708254Y-63021591D01*
X138701898Y-63027900D01*
X138694495Y-63028392D01*
X138308734Y-62927289D01*
X138301600Y-62921876D01*
X138300000Y-62915971D01*
X138300000Y-62684028D01*
X138303427Y-62675755D01*
X138308731Y-62672711D01*
X138694495Y-62571607D01*
X138703366Y-62572825D01*
G37*
%TD.AperFunction*%
%TD*%
%TA.AperFunction,Conductor*%
%TO.N,/I2C1_SCL*%
G36*
X137242625Y-65562613D02*
G01*
X137586894Y-65763898D01*
X137592307Y-65771032D01*
X137591815Y-65778435D01*
X137502564Y-65996175D01*
X137496255Y-66002531D01*
X137496175Y-66002564D01*
X137278435Y-66091815D01*
X137269481Y-66091782D01*
X137263898Y-66086894D01*
X137062613Y-65742626D01*
X137061396Y-65733758D01*
X137064439Y-65728453D01*
X137228452Y-65564440D01*
X137236724Y-65561014D01*
X137242625Y-65562613D01*
G37*
%TD.AperFunction*%
%TD*%
%TA.AperFunction,Conductor*%
%TO.N,/I2C2_SCL*%
G36*
X138702541Y-63373449D02*
G01*
X138708779Y-63379728D01*
X138798831Y-63596199D01*
X138798844Y-63605154D01*
X138798821Y-63605210D01*
X138708509Y-63820982D01*
X138702153Y-63827291D01*
X138694048Y-63827575D01*
X138236967Y-63676664D01*
X138230185Y-63670816D01*
X138229525Y-63661886D01*
X138232360Y-63657283D01*
X138394032Y-63495611D01*
X138397910Y-63493043D01*
X138693588Y-63373377D01*
X138702541Y-63373449D01*
G37*
%TD.AperFunction*%
%TD*%
%TA.AperFunction,Conductor*%
%TO.N,/I2C1_SCL*%
G36*
X124630518Y-60908217D02*
G01*
X124636101Y-60913105D01*
X124837385Y-61257371D01*
X124838603Y-61266241D01*
X124835558Y-61271548D01*
X124671548Y-61435558D01*
X124663275Y-61438985D01*
X124657371Y-61437385D01*
X124313105Y-61236101D01*
X124307692Y-61228967D01*
X124308183Y-61221565D01*
X124397436Y-61003822D01*
X124403743Y-60997468D01*
X124621565Y-60908184D01*
X124630518Y-60908217D01*
G37*
%TD.AperFunction*%
%TD*%
%TA.AperFunction,Conductor*%
%TO.N,/I2C1_SDA*%
G36*
X124630518Y-62908217D02*
G01*
X124636101Y-62913105D01*
X124837385Y-63257371D01*
X124838603Y-63266241D01*
X124835558Y-63271548D01*
X124671548Y-63435558D01*
X124663275Y-63438985D01*
X124657371Y-63437385D01*
X124313105Y-63236101D01*
X124307692Y-63228967D01*
X124308183Y-63221565D01*
X124397436Y-63003822D01*
X124403743Y-62997468D01*
X124621565Y-62908184D01*
X124630518Y-62908217D01*
G37*
%TD.AperFunction*%
%TD*%
%TA.AperFunction,Conductor*%
%TO.N,Net-(J3-D-)*%
G36*
X136129114Y-46958792D02*
G01*
X136135416Y-46965132D01*
X136318351Y-47409584D01*
X136318331Y-47418539D01*
X136311985Y-47424856D01*
X136307532Y-47425737D01*
X136077932Y-47425737D01*
X136072414Y-47424354D01*
X136061542Y-47418539D01*
X135813661Y-47285961D01*
X135807983Y-47279038D01*
X135808363Y-47271186D01*
X135898139Y-47053511D01*
X135904458Y-47047172D01*
X136120162Y-46958759D01*
X136129114Y-46958792D01*
G37*
%TD.AperFunction*%
%TD*%
%TA.AperFunction,Conductor*%
%TO.N,Net-(J3-D+)*%
G36*
X135678434Y-51108183D02*
G01*
X135896175Y-51197435D01*
X135902531Y-51203744D01*
X135902564Y-51203824D01*
X135991815Y-51421564D01*
X135991782Y-51430518D01*
X135986894Y-51436101D01*
X135642629Y-51637385D01*
X135633758Y-51638603D01*
X135628451Y-51635558D01*
X135464441Y-51471548D01*
X135461014Y-51463275D01*
X135462612Y-51457374D01*
X135663899Y-51113103D01*
X135671032Y-51107692D01*
X135678434Y-51108183D01*
G37*
%TD.AperFunction*%
%TD*%
%TA.AperFunction,Conductor*%
%TO.N,/I2C1_SDA*%
G36*
X136403366Y-66572825D02*
G01*
X136408254Y-66578408D01*
X136499109Y-66795482D01*
X136499142Y-66804436D01*
X136499109Y-66804516D01*
X136408254Y-67021591D01*
X136401898Y-67027900D01*
X136394495Y-67028392D01*
X136008734Y-66927289D01*
X136001600Y-66921876D01*
X136000000Y-66915971D01*
X136000000Y-66684028D01*
X136003427Y-66675755D01*
X136008731Y-66672711D01*
X136394495Y-66571607D01*
X136403366Y-66572825D01*
G37*
%TD.AperFunction*%
%TD*%
%TA.AperFunction,Conductor*%
%TO.N,/NRST*%
G36*
X122124244Y-65703427D02*
G01*
X122127289Y-65708734D01*
X122228392Y-66094495D01*
X122227174Y-66103366D01*
X122221591Y-66108254D01*
X122004516Y-66199109D01*
X121995562Y-66199142D01*
X121995482Y-66199109D01*
X121778408Y-66108254D01*
X121772099Y-66101898D01*
X121771607Y-66094495D01*
X121872711Y-65708734D01*
X121878124Y-65701600D01*
X121884029Y-65700000D01*
X122115971Y-65700000D01*
X122124244Y-65703427D01*
G37*
%TD.AperFunction*%
%TD*%
%TA.AperFunction,Conductor*%
%TO.N,/PB1*%
G36*
X115171548Y-60564441D02*
G01*
X115335558Y-60728451D01*
X115338985Y-60736724D01*
X115337385Y-60742629D01*
X115136101Y-61086894D01*
X115128967Y-61092307D01*
X115121564Y-61091815D01*
X114903824Y-61002564D01*
X114897468Y-60996255D01*
X114897435Y-60996175D01*
X114808184Y-60778435D01*
X114808217Y-60769481D01*
X114813103Y-60763899D01*
X115157373Y-60562613D01*
X115166241Y-60561396D01*
X115171548Y-60564441D01*
G37*
%TD.AperFunction*%
%TD*%
%TA.AperFunction,Conductor*%
%TO.N,/PB1*%
G36*
X121478434Y-59608183D02*
G01*
X121696175Y-59697435D01*
X121702531Y-59703744D01*
X121702564Y-59703824D01*
X121791815Y-59921564D01*
X121791782Y-59930518D01*
X121786894Y-59936101D01*
X121442629Y-60137385D01*
X121433758Y-60138603D01*
X121428451Y-60135558D01*
X121264441Y-59971548D01*
X121261014Y-59963275D01*
X121262612Y-59957374D01*
X121463899Y-59613103D01*
X121471032Y-59607692D01*
X121478434Y-59608183D01*
G37*
%TD.AperFunction*%
%TD*%
%TA.AperFunction,Conductor*%
%TO.N,Net-(J3-D+)*%
G36*
X131571548Y-52264441D02*
G01*
X131735558Y-52428451D01*
X131738985Y-52436724D01*
X131737385Y-52442629D01*
X131536101Y-52786894D01*
X131528967Y-52792307D01*
X131521564Y-52791815D01*
X131303824Y-52702564D01*
X131297468Y-52696255D01*
X131297435Y-52696175D01*
X131208184Y-52478435D01*
X131208217Y-52469481D01*
X131213103Y-52463899D01*
X131557373Y-52262613D01*
X131566241Y-52261396D01*
X131571548Y-52264441D01*
G37*
%TD.AperFunction*%
%TD*%
M02*
