%TF.GenerationSoftware,KiCad,Pcbnew,7.0.2*%
%TF.CreationDate,2023-11-20T18:08:14-06:00*%
%TF.ProjectId,BPS-PeripheralSOM,4250532d-5065-4726-9970-686572616c53,rev?*%
%TF.SameCoordinates,Original*%
%TF.FileFunction,Drillmap*%
%TF.FilePolarity,Positive*%
%FSLAX45Y45*%
G04 Gerber Fmt 4.5, Leading zero omitted, Abs format (unit mm)*
G04 Created by KiCad (PCBNEW 7.0.2) date 2023-11-20 18:08:14*
%MOMM*%
%LPD*%
G01*
G04 APERTURE LIST*
%ADD10C,0.100000*%
%ADD11C,0.200000*%
%ADD12C,0.085000*%
%ADD13C,0.127000*%
%ADD14C,0.300000*%
G04 APERTURE END LIST*
D10*
X14000000Y-4400000D02*
G75*
G03*
X13600000Y-4000000I-400000J0D01*
G01*
X13600000Y-9000000D02*
X10400000Y-9000000D01*
X13600000Y-9000000D02*
G75*
G03*
X14000000Y-8600000I0J400000D01*
G01*
X10400000Y-4000000D02*
G75*
G03*
X10000000Y-4400000I0J-400000D01*
G01*
X10400000Y-4000000D02*
X13600000Y-4000000D01*
X10000000Y-8600000D02*
X10000000Y-4400000D01*
X10000000Y-8600000D02*
G75*
G03*
X10400000Y-9000000I400000J0D01*
G01*
X14000000Y-4400000D02*
X14000000Y-8600000D01*
D11*
D12*
X13777500Y-5987500D02*
X13862500Y-6072500D01*
X13862500Y-5987500D02*
X13777500Y-6072500D01*
X13777500Y-6887500D02*
X13862500Y-6972500D01*
X13862500Y-6887500D02*
X13777500Y-6972500D01*
D13*
X10217500Y-4850000D02*
G75*
G03*
X10217500Y-4850000I-63500J0D01*
G01*
X10217500Y-6350000D02*
G75*
G03*
X10217500Y-6350000I-63500J0D01*
G01*
X10217500Y-6650000D02*
G75*
G03*
X10217500Y-6650000I-63500J0D01*
G01*
X10217500Y-8150000D02*
G75*
G03*
X10217500Y-8150000I-63500J0D01*
G01*
D14*
X12000000Y-4250000D02*
X12000000Y-4550000D01*
X11850000Y-4400000D02*
X12150000Y-4400000D01*
X12000000Y-8450000D02*
X12000000Y-8750000D01*
X11850000Y-8600000D02*
X12150000Y-8600000D01*
D11*
X10242619Y-9317524D02*
X10242619Y-9117524D01*
X10242619Y-9117524D02*
X10290238Y-9117524D01*
X10290238Y-9117524D02*
X10318810Y-9127048D01*
X10318810Y-9127048D02*
X10337857Y-9146095D01*
X10337857Y-9146095D02*
X10347381Y-9165143D01*
X10347381Y-9165143D02*
X10356905Y-9203238D01*
X10356905Y-9203238D02*
X10356905Y-9231810D01*
X10356905Y-9231810D02*
X10347381Y-9269905D01*
X10347381Y-9269905D02*
X10337857Y-9288952D01*
X10337857Y-9288952D02*
X10318810Y-9308000D01*
X10318810Y-9308000D02*
X10290238Y-9317524D01*
X10290238Y-9317524D02*
X10242619Y-9317524D01*
X10442619Y-9317524D02*
X10442619Y-9184190D01*
X10442619Y-9222286D02*
X10452143Y-9203238D01*
X10452143Y-9203238D02*
X10461667Y-9193714D01*
X10461667Y-9193714D02*
X10480714Y-9184190D01*
X10480714Y-9184190D02*
X10499762Y-9184190D01*
X10566429Y-9317524D02*
X10566429Y-9184190D01*
X10566429Y-9117524D02*
X10556905Y-9127048D01*
X10556905Y-9127048D02*
X10566429Y-9136571D01*
X10566429Y-9136571D02*
X10575952Y-9127048D01*
X10575952Y-9127048D02*
X10566429Y-9117524D01*
X10566429Y-9117524D02*
X10566429Y-9136571D01*
X10690238Y-9317524D02*
X10671190Y-9308000D01*
X10671190Y-9308000D02*
X10661667Y-9288952D01*
X10661667Y-9288952D02*
X10661667Y-9117524D01*
X10795000Y-9317524D02*
X10775952Y-9308000D01*
X10775952Y-9308000D02*
X10766429Y-9288952D01*
X10766429Y-9288952D02*
X10766429Y-9117524D01*
X11023571Y-9317524D02*
X11023571Y-9117524D01*
X11023571Y-9117524D02*
X11090238Y-9260381D01*
X11090238Y-9260381D02*
X11156905Y-9117524D01*
X11156905Y-9117524D02*
X11156905Y-9317524D01*
X11337857Y-9317524D02*
X11337857Y-9212762D01*
X11337857Y-9212762D02*
X11328333Y-9193714D01*
X11328333Y-9193714D02*
X11309286Y-9184190D01*
X11309286Y-9184190D02*
X11271190Y-9184190D01*
X11271190Y-9184190D02*
X11252143Y-9193714D01*
X11337857Y-9308000D02*
X11318809Y-9317524D01*
X11318809Y-9317524D02*
X11271190Y-9317524D01*
X11271190Y-9317524D02*
X11252143Y-9308000D01*
X11252143Y-9308000D02*
X11242619Y-9288952D01*
X11242619Y-9288952D02*
X11242619Y-9269905D01*
X11242619Y-9269905D02*
X11252143Y-9250857D01*
X11252143Y-9250857D02*
X11271190Y-9241333D01*
X11271190Y-9241333D02*
X11318809Y-9241333D01*
X11318809Y-9241333D02*
X11337857Y-9231810D01*
X11433095Y-9184190D02*
X11433095Y-9384190D01*
X11433095Y-9193714D02*
X11452143Y-9184190D01*
X11452143Y-9184190D02*
X11490238Y-9184190D01*
X11490238Y-9184190D02*
X11509286Y-9193714D01*
X11509286Y-9193714D02*
X11518809Y-9203238D01*
X11518809Y-9203238D02*
X11528333Y-9222286D01*
X11528333Y-9222286D02*
X11528333Y-9279429D01*
X11528333Y-9279429D02*
X11518809Y-9298476D01*
X11518809Y-9298476D02*
X11509286Y-9308000D01*
X11509286Y-9308000D02*
X11490238Y-9317524D01*
X11490238Y-9317524D02*
X11452143Y-9317524D01*
X11452143Y-9317524D02*
X11433095Y-9308000D01*
X11614048Y-9298476D02*
X11623571Y-9308000D01*
X11623571Y-9308000D02*
X11614048Y-9317524D01*
X11614048Y-9317524D02*
X11604524Y-9308000D01*
X11604524Y-9308000D02*
X11614048Y-9298476D01*
X11614048Y-9298476D02*
X11614048Y-9317524D01*
X11614048Y-9193714D02*
X11623571Y-9203238D01*
X11623571Y-9203238D02*
X11614048Y-9212762D01*
X11614048Y-9212762D02*
X11604524Y-9203238D01*
X11604524Y-9203238D02*
X11614048Y-9193714D01*
X11614048Y-9193714D02*
X11614048Y-9212762D01*
D12*
X9910000Y-9602500D02*
X9995000Y-9687500D01*
X9995000Y-9602500D02*
X9910000Y-9687500D01*
D11*
X10280714Y-9537524D02*
X10299762Y-9537524D01*
X10299762Y-9537524D02*
X10318810Y-9547048D01*
X10318810Y-9547048D02*
X10328333Y-9556571D01*
X10328333Y-9556571D02*
X10337857Y-9575619D01*
X10337857Y-9575619D02*
X10347381Y-9613714D01*
X10347381Y-9613714D02*
X10347381Y-9661333D01*
X10347381Y-9661333D02*
X10337857Y-9699429D01*
X10337857Y-9699429D02*
X10328333Y-9718476D01*
X10328333Y-9718476D02*
X10318810Y-9728000D01*
X10318810Y-9728000D02*
X10299762Y-9737524D01*
X10299762Y-9737524D02*
X10280714Y-9737524D01*
X10280714Y-9737524D02*
X10261667Y-9728000D01*
X10261667Y-9728000D02*
X10252143Y-9718476D01*
X10252143Y-9718476D02*
X10242619Y-9699429D01*
X10242619Y-9699429D02*
X10233095Y-9661333D01*
X10233095Y-9661333D02*
X10233095Y-9613714D01*
X10233095Y-9613714D02*
X10242619Y-9575619D01*
X10242619Y-9575619D02*
X10252143Y-9556571D01*
X10252143Y-9556571D02*
X10261667Y-9547048D01*
X10261667Y-9547048D02*
X10280714Y-9537524D01*
X10433095Y-9718476D02*
X10442619Y-9728000D01*
X10442619Y-9728000D02*
X10433095Y-9737524D01*
X10433095Y-9737524D02*
X10423571Y-9728000D01*
X10423571Y-9728000D02*
X10433095Y-9718476D01*
X10433095Y-9718476D02*
X10433095Y-9737524D01*
X10556905Y-9623238D02*
X10537857Y-9613714D01*
X10537857Y-9613714D02*
X10528333Y-9604190D01*
X10528333Y-9604190D02*
X10518810Y-9585143D01*
X10518810Y-9585143D02*
X10518810Y-9575619D01*
X10518810Y-9575619D02*
X10528333Y-9556571D01*
X10528333Y-9556571D02*
X10537857Y-9547048D01*
X10537857Y-9547048D02*
X10556905Y-9537524D01*
X10556905Y-9537524D02*
X10595000Y-9537524D01*
X10595000Y-9537524D02*
X10614048Y-9547048D01*
X10614048Y-9547048D02*
X10623571Y-9556571D01*
X10623571Y-9556571D02*
X10633095Y-9575619D01*
X10633095Y-9575619D02*
X10633095Y-9585143D01*
X10633095Y-9585143D02*
X10623571Y-9604190D01*
X10623571Y-9604190D02*
X10614048Y-9613714D01*
X10614048Y-9613714D02*
X10595000Y-9623238D01*
X10595000Y-9623238D02*
X10556905Y-9623238D01*
X10556905Y-9623238D02*
X10537857Y-9632762D01*
X10537857Y-9632762D02*
X10528333Y-9642286D01*
X10528333Y-9642286D02*
X10518810Y-9661333D01*
X10518810Y-9661333D02*
X10518810Y-9699429D01*
X10518810Y-9699429D02*
X10528333Y-9718476D01*
X10528333Y-9718476D02*
X10537857Y-9728000D01*
X10537857Y-9728000D02*
X10556905Y-9737524D01*
X10556905Y-9737524D02*
X10595000Y-9737524D01*
X10595000Y-9737524D02*
X10614048Y-9728000D01*
X10614048Y-9728000D02*
X10623571Y-9718476D01*
X10623571Y-9718476D02*
X10633095Y-9699429D01*
X10633095Y-9699429D02*
X10633095Y-9661333D01*
X10633095Y-9661333D02*
X10623571Y-9642286D01*
X10623571Y-9642286D02*
X10614048Y-9632762D01*
X10614048Y-9632762D02*
X10595000Y-9623238D01*
X10814048Y-9537524D02*
X10718810Y-9537524D01*
X10718810Y-9537524D02*
X10709286Y-9632762D01*
X10709286Y-9632762D02*
X10718810Y-9623238D01*
X10718810Y-9623238D02*
X10737857Y-9613714D01*
X10737857Y-9613714D02*
X10785476Y-9613714D01*
X10785476Y-9613714D02*
X10804524Y-9623238D01*
X10804524Y-9623238D02*
X10814048Y-9632762D01*
X10814048Y-9632762D02*
X10823571Y-9651810D01*
X10823571Y-9651810D02*
X10823571Y-9699429D01*
X10823571Y-9699429D02*
X10814048Y-9718476D01*
X10814048Y-9718476D02*
X10804524Y-9728000D01*
X10804524Y-9728000D02*
X10785476Y-9737524D01*
X10785476Y-9737524D02*
X10737857Y-9737524D01*
X10737857Y-9737524D02*
X10718810Y-9728000D01*
X10718810Y-9728000D02*
X10709286Y-9718476D01*
X10947381Y-9537524D02*
X10966429Y-9537524D01*
X10966429Y-9537524D02*
X10985476Y-9547048D01*
X10985476Y-9547048D02*
X10995000Y-9556571D01*
X10995000Y-9556571D02*
X11004524Y-9575619D01*
X11004524Y-9575619D02*
X11014048Y-9613714D01*
X11014048Y-9613714D02*
X11014048Y-9661333D01*
X11014048Y-9661333D02*
X11004524Y-9699429D01*
X11004524Y-9699429D02*
X10995000Y-9718476D01*
X10995000Y-9718476D02*
X10985476Y-9728000D01*
X10985476Y-9728000D02*
X10966429Y-9737524D01*
X10966429Y-9737524D02*
X10947381Y-9737524D01*
X10947381Y-9737524D02*
X10928333Y-9728000D01*
X10928333Y-9728000D02*
X10918810Y-9718476D01*
X10918810Y-9718476D02*
X10909286Y-9699429D01*
X10909286Y-9699429D02*
X10899762Y-9661333D01*
X10899762Y-9661333D02*
X10899762Y-9613714D01*
X10899762Y-9613714D02*
X10909286Y-9575619D01*
X10909286Y-9575619D02*
X10918810Y-9556571D01*
X10918810Y-9556571D02*
X10928333Y-9547048D01*
X10928333Y-9547048D02*
X10947381Y-9537524D01*
X11099762Y-9737524D02*
X11099762Y-9604190D01*
X11099762Y-9623238D02*
X11109286Y-9613714D01*
X11109286Y-9613714D02*
X11128333Y-9604190D01*
X11128333Y-9604190D02*
X11156905Y-9604190D01*
X11156905Y-9604190D02*
X11175952Y-9613714D01*
X11175952Y-9613714D02*
X11185476Y-9632762D01*
X11185476Y-9632762D02*
X11185476Y-9737524D01*
X11185476Y-9632762D02*
X11195000Y-9613714D01*
X11195000Y-9613714D02*
X11214048Y-9604190D01*
X11214048Y-9604190D02*
X11242619Y-9604190D01*
X11242619Y-9604190D02*
X11261667Y-9613714D01*
X11261667Y-9613714D02*
X11271190Y-9632762D01*
X11271190Y-9632762D02*
X11271190Y-9737524D01*
X11366429Y-9737524D02*
X11366429Y-9604190D01*
X11366429Y-9623238D02*
X11375952Y-9613714D01*
X11375952Y-9613714D02*
X11395000Y-9604190D01*
X11395000Y-9604190D02*
X11423571Y-9604190D01*
X11423571Y-9604190D02*
X11442619Y-9613714D01*
X11442619Y-9613714D02*
X11452143Y-9632762D01*
X11452143Y-9632762D02*
X11452143Y-9737524D01*
X11452143Y-9632762D02*
X11461667Y-9613714D01*
X11461667Y-9613714D02*
X11480714Y-9604190D01*
X11480714Y-9604190D02*
X11509286Y-9604190D01*
X11509286Y-9604190D02*
X11528333Y-9613714D01*
X11528333Y-9613714D02*
X11537857Y-9632762D01*
X11537857Y-9632762D02*
X11537857Y-9737524D01*
X11928333Y-9528000D02*
X11756905Y-9785143D01*
X12185476Y-9537524D02*
X12204524Y-9537524D01*
X12204524Y-9537524D02*
X12223572Y-9547048D01*
X12223572Y-9547048D02*
X12233095Y-9556571D01*
X12233095Y-9556571D02*
X12242619Y-9575619D01*
X12242619Y-9575619D02*
X12252143Y-9613714D01*
X12252143Y-9613714D02*
X12252143Y-9661333D01*
X12252143Y-9661333D02*
X12242619Y-9699429D01*
X12242619Y-9699429D02*
X12233095Y-9718476D01*
X12233095Y-9718476D02*
X12223572Y-9728000D01*
X12223572Y-9728000D02*
X12204524Y-9737524D01*
X12204524Y-9737524D02*
X12185476Y-9737524D01*
X12185476Y-9737524D02*
X12166429Y-9728000D01*
X12166429Y-9728000D02*
X12156905Y-9718476D01*
X12156905Y-9718476D02*
X12147381Y-9699429D01*
X12147381Y-9699429D02*
X12137857Y-9661333D01*
X12137857Y-9661333D02*
X12137857Y-9613714D01*
X12137857Y-9613714D02*
X12147381Y-9575619D01*
X12147381Y-9575619D02*
X12156905Y-9556571D01*
X12156905Y-9556571D02*
X12166429Y-9547048D01*
X12166429Y-9547048D02*
X12185476Y-9537524D01*
X12337857Y-9718476D02*
X12347381Y-9728000D01*
X12347381Y-9728000D02*
X12337857Y-9737524D01*
X12337857Y-9737524D02*
X12328333Y-9728000D01*
X12328333Y-9728000D02*
X12337857Y-9718476D01*
X12337857Y-9718476D02*
X12337857Y-9737524D01*
X12471191Y-9537524D02*
X12490238Y-9537524D01*
X12490238Y-9537524D02*
X12509286Y-9547048D01*
X12509286Y-9547048D02*
X12518810Y-9556571D01*
X12518810Y-9556571D02*
X12528333Y-9575619D01*
X12528333Y-9575619D02*
X12537857Y-9613714D01*
X12537857Y-9613714D02*
X12537857Y-9661333D01*
X12537857Y-9661333D02*
X12528333Y-9699429D01*
X12528333Y-9699429D02*
X12518810Y-9718476D01*
X12518810Y-9718476D02*
X12509286Y-9728000D01*
X12509286Y-9728000D02*
X12490238Y-9737524D01*
X12490238Y-9737524D02*
X12471191Y-9737524D01*
X12471191Y-9737524D02*
X12452143Y-9728000D01*
X12452143Y-9728000D02*
X12442619Y-9718476D01*
X12442619Y-9718476D02*
X12433095Y-9699429D01*
X12433095Y-9699429D02*
X12423572Y-9661333D01*
X12423572Y-9661333D02*
X12423572Y-9613714D01*
X12423572Y-9613714D02*
X12433095Y-9575619D01*
X12433095Y-9575619D02*
X12442619Y-9556571D01*
X12442619Y-9556571D02*
X12452143Y-9547048D01*
X12452143Y-9547048D02*
X12471191Y-9537524D01*
X12604524Y-9537524D02*
X12728333Y-9537524D01*
X12728333Y-9537524D02*
X12661667Y-9613714D01*
X12661667Y-9613714D02*
X12690238Y-9613714D01*
X12690238Y-9613714D02*
X12709286Y-9623238D01*
X12709286Y-9623238D02*
X12718810Y-9632762D01*
X12718810Y-9632762D02*
X12728333Y-9651810D01*
X12728333Y-9651810D02*
X12728333Y-9699429D01*
X12728333Y-9699429D02*
X12718810Y-9718476D01*
X12718810Y-9718476D02*
X12709286Y-9728000D01*
X12709286Y-9728000D02*
X12690238Y-9737524D01*
X12690238Y-9737524D02*
X12633095Y-9737524D01*
X12633095Y-9737524D02*
X12614048Y-9728000D01*
X12614048Y-9728000D02*
X12604524Y-9718476D01*
X12795000Y-9537524D02*
X12918810Y-9537524D01*
X12918810Y-9537524D02*
X12852143Y-9613714D01*
X12852143Y-9613714D02*
X12880714Y-9613714D01*
X12880714Y-9613714D02*
X12899762Y-9623238D01*
X12899762Y-9623238D02*
X12909286Y-9632762D01*
X12909286Y-9632762D02*
X12918810Y-9651810D01*
X12918810Y-9651810D02*
X12918810Y-9699429D01*
X12918810Y-9699429D02*
X12909286Y-9718476D01*
X12909286Y-9718476D02*
X12899762Y-9728000D01*
X12899762Y-9728000D02*
X12880714Y-9737524D01*
X12880714Y-9737524D02*
X12823572Y-9737524D01*
X12823572Y-9737524D02*
X12804524Y-9728000D01*
X12804524Y-9728000D02*
X12795000Y-9718476D01*
X13099762Y-9537524D02*
X13004524Y-9537524D01*
X13004524Y-9537524D02*
X12995000Y-9632762D01*
X12995000Y-9632762D02*
X13004524Y-9623238D01*
X13004524Y-9623238D02*
X13023572Y-9613714D01*
X13023572Y-9613714D02*
X13071191Y-9613714D01*
X13071191Y-9613714D02*
X13090238Y-9623238D01*
X13090238Y-9623238D02*
X13099762Y-9632762D01*
X13099762Y-9632762D02*
X13109286Y-9651810D01*
X13109286Y-9651810D02*
X13109286Y-9699429D01*
X13109286Y-9699429D02*
X13099762Y-9718476D01*
X13099762Y-9718476D02*
X13090238Y-9728000D01*
X13090238Y-9728000D02*
X13071191Y-9737524D01*
X13071191Y-9737524D02*
X13023572Y-9737524D01*
X13023572Y-9737524D02*
X13004524Y-9728000D01*
X13004524Y-9728000D02*
X12995000Y-9718476D01*
X13185476Y-9537524D02*
X13185476Y-9575619D01*
X13261667Y-9537524D02*
X13261667Y-9575619D01*
X13556905Y-9813714D02*
X13547381Y-9804190D01*
X13547381Y-9804190D02*
X13528334Y-9775619D01*
X13528334Y-9775619D02*
X13518810Y-9756571D01*
X13518810Y-9756571D02*
X13509286Y-9728000D01*
X13509286Y-9728000D02*
X13499762Y-9680381D01*
X13499762Y-9680381D02*
X13499762Y-9642286D01*
X13499762Y-9642286D02*
X13509286Y-9594667D01*
X13509286Y-9594667D02*
X13518810Y-9566095D01*
X13518810Y-9566095D02*
X13528334Y-9547048D01*
X13528334Y-9547048D02*
X13547381Y-9518476D01*
X13547381Y-9518476D02*
X13556905Y-9508952D01*
X13623572Y-9556571D02*
X13633095Y-9547048D01*
X13633095Y-9547048D02*
X13652143Y-9537524D01*
X13652143Y-9537524D02*
X13699762Y-9537524D01*
X13699762Y-9537524D02*
X13718810Y-9547048D01*
X13718810Y-9547048D02*
X13728334Y-9556571D01*
X13728334Y-9556571D02*
X13737857Y-9575619D01*
X13737857Y-9575619D02*
X13737857Y-9594667D01*
X13737857Y-9594667D02*
X13728334Y-9623238D01*
X13728334Y-9623238D02*
X13614048Y-9737524D01*
X13614048Y-9737524D02*
X13737857Y-9737524D01*
X13975953Y-9737524D02*
X13975953Y-9537524D01*
X14061667Y-9737524D02*
X14061667Y-9632762D01*
X14061667Y-9632762D02*
X14052143Y-9613714D01*
X14052143Y-9613714D02*
X14033096Y-9604190D01*
X14033096Y-9604190D02*
X14004524Y-9604190D01*
X14004524Y-9604190D02*
X13985476Y-9613714D01*
X13985476Y-9613714D02*
X13975953Y-9623238D01*
X14185476Y-9737524D02*
X14166429Y-9728000D01*
X14166429Y-9728000D02*
X14156905Y-9718476D01*
X14156905Y-9718476D02*
X14147381Y-9699429D01*
X14147381Y-9699429D02*
X14147381Y-9642286D01*
X14147381Y-9642286D02*
X14156905Y-9623238D01*
X14156905Y-9623238D02*
X14166429Y-9613714D01*
X14166429Y-9613714D02*
X14185476Y-9604190D01*
X14185476Y-9604190D02*
X14214048Y-9604190D01*
X14214048Y-9604190D02*
X14233096Y-9613714D01*
X14233096Y-9613714D02*
X14242619Y-9623238D01*
X14242619Y-9623238D02*
X14252143Y-9642286D01*
X14252143Y-9642286D02*
X14252143Y-9699429D01*
X14252143Y-9699429D02*
X14242619Y-9718476D01*
X14242619Y-9718476D02*
X14233096Y-9728000D01*
X14233096Y-9728000D02*
X14214048Y-9737524D01*
X14214048Y-9737524D02*
X14185476Y-9737524D01*
X14366429Y-9737524D02*
X14347381Y-9728000D01*
X14347381Y-9728000D02*
X14337857Y-9708952D01*
X14337857Y-9708952D02*
X14337857Y-9537524D01*
X14518810Y-9728000D02*
X14499762Y-9737524D01*
X14499762Y-9737524D02*
X14461667Y-9737524D01*
X14461667Y-9737524D02*
X14442619Y-9728000D01*
X14442619Y-9728000D02*
X14433096Y-9708952D01*
X14433096Y-9708952D02*
X14433096Y-9632762D01*
X14433096Y-9632762D02*
X14442619Y-9613714D01*
X14442619Y-9613714D02*
X14461667Y-9604190D01*
X14461667Y-9604190D02*
X14499762Y-9604190D01*
X14499762Y-9604190D02*
X14518810Y-9613714D01*
X14518810Y-9613714D02*
X14528334Y-9632762D01*
X14528334Y-9632762D02*
X14528334Y-9651810D01*
X14528334Y-9651810D02*
X14433096Y-9670857D01*
X14604524Y-9728000D02*
X14623572Y-9737524D01*
X14623572Y-9737524D02*
X14661667Y-9737524D01*
X14661667Y-9737524D02*
X14680715Y-9728000D01*
X14680715Y-9728000D02*
X14690238Y-9708952D01*
X14690238Y-9708952D02*
X14690238Y-9699429D01*
X14690238Y-9699429D02*
X14680715Y-9680381D01*
X14680715Y-9680381D02*
X14661667Y-9670857D01*
X14661667Y-9670857D02*
X14633096Y-9670857D01*
X14633096Y-9670857D02*
X14614048Y-9661333D01*
X14614048Y-9661333D02*
X14604524Y-9642286D01*
X14604524Y-9642286D02*
X14604524Y-9632762D01*
X14604524Y-9632762D02*
X14614048Y-9613714D01*
X14614048Y-9613714D02*
X14633096Y-9604190D01*
X14633096Y-9604190D02*
X14661667Y-9604190D01*
X14661667Y-9604190D02*
X14680715Y-9613714D01*
X14756905Y-9813714D02*
X14766429Y-9804190D01*
X14766429Y-9804190D02*
X14785477Y-9775619D01*
X14785477Y-9775619D02*
X14795000Y-9756571D01*
X14795000Y-9756571D02*
X14804524Y-9728000D01*
X14804524Y-9728000D02*
X14814048Y-9680381D01*
X14814048Y-9680381D02*
X14814048Y-9642286D01*
X14814048Y-9642286D02*
X14804524Y-9594667D01*
X14804524Y-9594667D02*
X14795000Y-9566095D01*
X14795000Y-9566095D02*
X14785477Y-9547048D01*
X14785477Y-9547048D02*
X14766429Y-9518476D01*
X14766429Y-9518476D02*
X14756905Y-9508952D01*
X15118810Y-9813714D02*
X15109286Y-9804190D01*
X15109286Y-9804190D02*
X15090238Y-9775619D01*
X15090238Y-9775619D02*
X15080715Y-9756571D01*
X15080715Y-9756571D02*
X15071191Y-9728000D01*
X15071191Y-9728000D02*
X15061667Y-9680381D01*
X15061667Y-9680381D02*
X15061667Y-9642286D01*
X15061667Y-9642286D02*
X15071191Y-9594667D01*
X15071191Y-9594667D02*
X15080715Y-9566095D01*
X15080715Y-9566095D02*
X15090238Y-9547048D01*
X15090238Y-9547048D02*
X15109286Y-9518476D01*
X15109286Y-9518476D02*
X15118810Y-9508952D01*
X15195000Y-9604190D02*
X15195000Y-9737524D01*
X15195000Y-9623238D02*
X15204524Y-9613714D01*
X15204524Y-9613714D02*
X15223572Y-9604190D01*
X15223572Y-9604190D02*
X15252143Y-9604190D01*
X15252143Y-9604190D02*
X15271191Y-9613714D01*
X15271191Y-9613714D02*
X15280715Y-9632762D01*
X15280715Y-9632762D02*
X15280715Y-9737524D01*
X15404524Y-9737524D02*
X15385477Y-9728000D01*
X15385477Y-9728000D02*
X15375953Y-9718476D01*
X15375953Y-9718476D02*
X15366429Y-9699429D01*
X15366429Y-9699429D02*
X15366429Y-9642286D01*
X15366429Y-9642286D02*
X15375953Y-9623238D01*
X15375953Y-9623238D02*
X15385477Y-9613714D01*
X15385477Y-9613714D02*
X15404524Y-9604190D01*
X15404524Y-9604190D02*
X15433096Y-9604190D01*
X15433096Y-9604190D02*
X15452143Y-9613714D01*
X15452143Y-9613714D02*
X15461667Y-9623238D01*
X15461667Y-9623238D02*
X15471191Y-9642286D01*
X15471191Y-9642286D02*
X15471191Y-9699429D01*
X15471191Y-9699429D02*
X15461667Y-9718476D01*
X15461667Y-9718476D02*
X15452143Y-9728000D01*
X15452143Y-9728000D02*
X15433096Y-9737524D01*
X15433096Y-9737524D02*
X15404524Y-9737524D01*
X15528334Y-9604190D02*
X15604524Y-9604190D01*
X15556905Y-9537524D02*
X15556905Y-9708952D01*
X15556905Y-9708952D02*
X15566429Y-9728000D01*
X15566429Y-9728000D02*
X15585477Y-9737524D01*
X15585477Y-9737524D02*
X15604524Y-9737524D01*
X15823572Y-9604190D02*
X15823572Y-9804190D01*
X15823572Y-9613714D02*
X15842619Y-9604190D01*
X15842619Y-9604190D02*
X15880715Y-9604190D01*
X15880715Y-9604190D02*
X15899762Y-9613714D01*
X15899762Y-9613714D02*
X15909286Y-9623238D01*
X15909286Y-9623238D02*
X15918810Y-9642286D01*
X15918810Y-9642286D02*
X15918810Y-9699429D01*
X15918810Y-9699429D02*
X15909286Y-9718476D01*
X15909286Y-9718476D02*
X15899762Y-9728000D01*
X15899762Y-9728000D02*
X15880715Y-9737524D01*
X15880715Y-9737524D02*
X15842619Y-9737524D01*
X15842619Y-9737524D02*
X15823572Y-9728000D01*
X16033096Y-9737524D02*
X16014048Y-9728000D01*
X16014048Y-9728000D02*
X16004524Y-9708952D01*
X16004524Y-9708952D02*
X16004524Y-9537524D01*
X16195000Y-9737524D02*
X16195000Y-9632762D01*
X16195000Y-9632762D02*
X16185477Y-9613714D01*
X16185477Y-9613714D02*
X16166429Y-9604190D01*
X16166429Y-9604190D02*
X16128334Y-9604190D01*
X16128334Y-9604190D02*
X16109286Y-9613714D01*
X16195000Y-9728000D02*
X16175953Y-9737524D01*
X16175953Y-9737524D02*
X16128334Y-9737524D01*
X16128334Y-9737524D02*
X16109286Y-9728000D01*
X16109286Y-9728000D02*
X16099762Y-9708952D01*
X16099762Y-9708952D02*
X16099762Y-9689905D01*
X16099762Y-9689905D02*
X16109286Y-9670857D01*
X16109286Y-9670857D02*
X16128334Y-9661333D01*
X16128334Y-9661333D02*
X16175953Y-9661333D01*
X16175953Y-9661333D02*
X16195000Y-9651810D01*
X16261667Y-9604190D02*
X16337858Y-9604190D01*
X16290239Y-9537524D02*
X16290239Y-9708952D01*
X16290239Y-9708952D02*
X16299762Y-9728000D01*
X16299762Y-9728000D02*
X16318810Y-9737524D01*
X16318810Y-9737524D02*
X16337858Y-9737524D01*
X16480715Y-9728000D02*
X16461667Y-9737524D01*
X16461667Y-9737524D02*
X16423572Y-9737524D01*
X16423572Y-9737524D02*
X16404524Y-9728000D01*
X16404524Y-9728000D02*
X16395000Y-9708952D01*
X16395000Y-9708952D02*
X16395000Y-9632762D01*
X16395000Y-9632762D02*
X16404524Y-9613714D01*
X16404524Y-9613714D02*
X16423572Y-9604190D01*
X16423572Y-9604190D02*
X16461667Y-9604190D01*
X16461667Y-9604190D02*
X16480715Y-9613714D01*
X16480715Y-9613714D02*
X16490239Y-9632762D01*
X16490239Y-9632762D02*
X16490239Y-9651810D01*
X16490239Y-9651810D02*
X16395000Y-9670857D01*
X16661667Y-9737524D02*
X16661667Y-9537524D01*
X16661667Y-9728000D02*
X16642620Y-9737524D01*
X16642620Y-9737524D02*
X16604524Y-9737524D01*
X16604524Y-9737524D02*
X16585477Y-9728000D01*
X16585477Y-9728000D02*
X16575953Y-9718476D01*
X16575953Y-9718476D02*
X16566429Y-9699429D01*
X16566429Y-9699429D02*
X16566429Y-9642286D01*
X16566429Y-9642286D02*
X16575953Y-9623238D01*
X16575953Y-9623238D02*
X16585477Y-9613714D01*
X16585477Y-9613714D02*
X16604524Y-9604190D01*
X16604524Y-9604190D02*
X16642620Y-9604190D01*
X16642620Y-9604190D02*
X16661667Y-9613714D01*
X16737858Y-9813714D02*
X16747381Y-9804190D01*
X16747381Y-9804190D02*
X16766429Y-9775619D01*
X16766429Y-9775619D02*
X16775953Y-9756571D01*
X16775953Y-9756571D02*
X16785477Y-9728000D01*
X16785477Y-9728000D02*
X16795001Y-9680381D01*
X16795001Y-9680381D02*
X16795001Y-9642286D01*
X16795001Y-9642286D02*
X16785477Y-9594667D01*
X16785477Y-9594667D02*
X16775953Y-9566095D01*
X16775953Y-9566095D02*
X16766429Y-9547048D01*
X16766429Y-9547048D02*
X16747381Y-9518476D01*
X16747381Y-9518476D02*
X16737858Y-9508952D01*
D13*
X9995000Y-9909000D02*
G75*
G03*
X9995000Y-9909000I-63500J0D01*
G01*
D11*
X10347381Y-10001524D02*
X10233095Y-10001524D01*
X10290238Y-10001524D02*
X10290238Y-9801524D01*
X10290238Y-9801524D02*
X10271190Y-9830095D01*
X10271190Y-9830095D02*
X10252143Y-9849143D01*
X10252143Y-9849143D02*
X10233095Y-9858667D01*
X10433095Y-9982476D02*
X10442619Y-9992000D01*
X10442619Y-9992000D02*
X10433095Y-10001524D01*
X10433095Y-10001524D02*
X10423571Y-9992000D01*
X10423571Y-9992000D02*
X10433095Y-9982476D01*
X10433095Y-9982476D02*
X10433095Y-10001524D01*
X10518810Y-9820571D02*
X10528333Y-9811048D01*
X10528333Y-9811048D02*
X10547381Y-9801524D01*
X10547381Y-9801524D02*
X10595000Y-9801524D01*
X10595000Y-9801524D02*
X10614048Y-9811048D01*
X10614048Y-9811048D02*
X10623571Y-9820571D01*
X10623571Y-9820571D02*
X10633095Y-9839619D01*
X10633095Y-9839619D02*
X10633095Y-9858667D01*
X10633095Y-9858667D02*
X10623571Y-9887238D01*
X10623571Y-9887238D02*
X10509286Y-10001524D01*
X10509286Y-10001524D02*
X10633095Y-10001524D01*
X10699762Y-9801524D02*
X10833095Y-9801524D01*
X10833095Y-9801524D02*
X10747381Y-10001524D01*
X10947381Y-9801524D02*
X10966429Y-9801524D01*
X10966429Y-9801524D02*
X10985476Y-9811048D01*
X10985476Y-9811048D02*
X10995000Y-9820571D01*
X10995000Y-9820571D02*
X11004524Y-9839619D01*
X11004524Y-9839619D02*
X11014048Y-9877714D01*
X11014048Y-9877714D02*
X11014048Y-9925333D01*
X11014048Y-9925333D02*
X11004524Y-9963429D01*
X11004524Y-9963429D02*
X10995000Y-9982476D01*
X10995000Y-9982476D02*
X10985476Y-9992000D01*
X10985476Y-9992000D02*
X10966429Y-10001524D01*
X10966429Y-10001524D02*
X10947381Y-10001524D01*
X10947381Y-10001524D02*
X10928333Y-9992000D01*
X10928333Y-9992000D02*
X10918810Y-9982476D01*
X10918810Y-9982476D02*
X10909286Y-9963429D01*
X10909286Y-9963429D02*
X10899762Y-9925333D01*
X10899762Y-9925333D02*
X10899762Y-9877714D01*
X10899762Y-9877714D02*
X10909286Y-9839619D01*
X10909286Y-9839619D02*
X10918810Y-9820571D01*
X10918810Y-9820571D02*
X10928333Y-9811048D01*
X10928333Y-9811048D02*
X10947381Y-9801524D01*
X11099762Y-10001524D02*
X11099762Y-9868190D01*
X11099762Y-9887238D02*
X11109286Y-9877714D01*
X11109286Y-9877714D02*
X11128333Y-9868190D01*
X11128333Y-9868190D02*
X11156905Y-9868190D01*
X11156905Y-9868190D02*
X11175952Y-9877714D01*
X11175952Y-9877714D02*
X11185476Y-9896762D01*
X11185476Y-9896762D02*
X11185476Y-10001524D01*
X11185476Y-9896762D02*
X11195000Y-9877714D01*
X11195000Y-9877714D02*
X11214048Y-9868190D01*
X11214048Y-9868190D02*
X11242619Y-9868190D01*
X11242619Y-9868190D02*
X11261667Y-9877714D01*
X11261667Y-9877714D02*
X11271190Y-9896762D01*
X11271190Y-9896762D02*
X11271190Y-10001524D01*
X11366429Y-10001524D02*
X11366429Y-9868190D01*
X11366429Y-9887238D02*
X11375952Y-9877714D01*
X11375952Y-9877714D02*
X11395000Y-9868190D01*
X11395000Y-9868190D02*
X11423571Y-9868190D01*
X11423571Y-9868190D02*
X11442619Y-9877714D01*
X11442619Y-9877714D02*
X11452143Y-9896762D01*
X11452143Y-9896762D02*
X11452143Y-10001524D01*
X11452143Y-9896762D02*
X11461667Y-9877714D01*
X11461667Y-9877714D02*
X11480714Y-9868190D01*
X11480714Y-9868190D02*
X11509286Y-9868190D01*
X11509286Y-9868190D02*
X11528333Y-9877714D01*
X11528333Y-9877714D02*
X11537857Y-9896762D01*
X11537857Y-9896762D02*
X11537857Y-10001524D01*
X11928333Y-9792000D02*
X11756905Y-10049143D01*
X12185476Y-9801524D02*
X12204524Y-9801524D01*
X12204524Y-9801524D02*
X12223572Y-9811048D01*
X12223572Y-9811048D02*
X12233095Y-9820571D01*
X12233095Y-9820571D02*
X12242619Y-9839619D01*
X12242619Y-9839619D02*
X12252143Y-9877714D01*
X12252143Y-9877714D02*
X12252143Y-9925333D01*
X12252143Y-9925333D02*
X12242619Y-9963429D01*
X12242619Y-9963429D02*
X12233095Y-9982476D01*
X12233095Y-9982476D02*
X12223572Y-9992000D01*
X12223572Y-9992000D02*
X12204524Y-10001524D01*
X12204524Y-10001524D02*
X12185476Y-10001524D01*
X12185476Y-10001524D02*
X12166429Y-9992000D01*
X12166429Y-9992000D02*
X12156905Y-9982476D01*
X12156905Y-9982476D02*
X12147381Y-9963429D01*
X12147381Y-9963429D02*
X12137857Y-9925333D01*
X12137857Y-9925333D02*
X12137857Y-9877714D01*
X12137857Y-9877714D02*
X12147381Y-9839619D01*
X12147381Y-9839619D02*
X12156905Y-9820571D01*
X12156905Y-9820571D02*
X12166429Y-9811048D01*
X12166429Y-9811048D02*
X12185476Y-9801524D01*
X12337857Y-9982476D02*
X12347381Y-9992000D01*
X12347381Y-9992000D02*
X12337857Y-10001524D01*
X12337857Y-10001524D02*
X12328333Y-9992000D01*
X12328333Y-9992000D02*
X12337857Y-9982476D01*
X12337857Y-9982476D02*
X12337857Y-10001524D01*
X12471191Y-9801524D02*
X12490238Y-9801524D01*
X12490238Y-9801524D02*
X12509286Y-9811048D01*
X12509286Y-9811048D02*
X12518810Y-9820571D01*
X12518810Y-9820571D02*
X12528333Y-9839619D01*
X12528333Y-9839619D02*
X12537857Y-9877714D01*
X12537857Y-9877714D02*
X12537857Y-9925333D01*
X12537857Y-9925333D02*
X12528333Y-9963429D01*
X12528333Y-9963429D02*
X12518810Y-9982476D01*
X12518810Y-9982476D02*
X12509286Y-9992000D01*
X12509286Y-9992000D02*
X12490238Y-10001524D01*
X12490238Y-10001524D02*
X12471191Y-10001524D01*
X12471191Y-10001524D02*
X12452143Y-9992000D01*
X12452143Y-9992000D02*
X12442619Y-9982476D01*
X12442619Y-9982476D02*
X12433095Y-9963429D01*
X12433095Y-9963429D02*
X12423572Y-9925333D01*
X12423572Y-9925333D02*
X12423572Y-9877714D01*
X12423572Y-9877714D02*
X12433095Y-9839619D01*
X12433095Y-9839619D02*
X12442619Y-9820571D01*
X12442619Y-9820571D02*
X12452143Y-9811048D01*
X12452143Y-9811048D02*
X12471191Y-9801524D01*
X12718810Y-9801524D02*
X12623572Y-9801524D01*
X12623572Y-9801524D02*
X12614048Y-9896762D01*
X12614048Y-9896762D02*
X12623572Y-9887238D01*
X12623572Y-9887238D02*
X12642619Y-9877714D01*
X12642619Y-9877714D02*
X12690238Y-9877714D01*
X12690238Y-9877714D02*
X12709286Y-9887238D01*
X12709286Y-9887238D02*
X12718810Y-9896762D01*
X12718810Y-9896762D02*
X12728333Y-9915810D01*
X12728333Y-9915810D02*
X12728333Y-9963429D01*
X12728333Y-9963429D02*
X12718810Y-9982476D01*
X12718810Y-9982476D02*
X12709286Y-9992000D01*
X12709286Y-9992000D02*
X12690238Y-10001524D01*
X12690238Y-10001524D02*
X12642619Y-10001524D01*
X12642619Y-10001524D02*
X12623572Y-9992000D01*
X12623572Y-9992000D02*
X12614048Y-9982476D01*
X12852143Y-9801524D02*
X12871191Y-9801524D01*
X12871191Y-9801524D02*
X12890238Y-9811048D01*
X12890238Y-9811048D02*
X12899762Y-9820571D01*
X12899762Y-9820571D02*
X12909286Y-9839619D01*
X12909286Y-9839619D02*
X12918810Y-9877714D01*
X12918810Y-9877714D02*
X12918810Y-9925333D01*
X12918810Y-9925333D02*
X12909286Y-9963429D01*
X12909286Y-9963429D02*
X12899762Y-9982476D01*
X12899762Y-9982476D02*
X12890238Y-9992000D01*
X12890238Y-9992000D02*
X12871191Y-10001524D01*
X12871191Y-10001524D02*
X12852143Y-10001524D01*
X12852143Y-10001524D02*
X12833095Y-9992000D01*
X12833095Y-9992000D02*
X12823572Y-9982476D01*
X12823572Y-9982476D02*
X12814048Y-9963429D01*
X12814048Y-9963429D02*
X12804524Y-9925333D01*
X12804524Y-9925333D02*
X12804524Y-9877714D01*
X12804524Y-9877714D02*
X12814048Y-9839619D01*
X12814048Y-9839619D02*
X12823572Y-9820571D01*
X12823572Y-9820571D02*
X12833095Y-9811048D01*
X12833095Y-9811048D02*
X12852143Y-9801524D01*
X13042619Y-9801524D02*
X13061667Y-9801524D01*
X13061667Y-9801524D02*
X13080714Y-9811048D01*
X13080714Y-9811048D02*
X13090238Y-9820571D01*
X13090238Y-9820571D02*
X13099762Y-9839619D01*
X13099762Y-9839619D02*
X13109286Y-9877714D01*
X13109286Y-9877714D02*
X13109286Y-9925333D01*
X13109286Y-9925333D02*
X13099762Y-9963429D01*
X13099762Y-9963429D02*
X13090238Y-9982476D01*
X13090238Y-9982476D02*
X13080714Y-9992000D01*
X13080714Y-9992000D02*
X13061667Y-10001524D01*
X13061667Y-10001524D02*
X13042619Y-10001524D01*
X13042619Y-10001524D02*
X13023572Y-9992000D01*
X13023572Y-9992000D02*
X13014048Y-9982476D01*
X13014048Y-9982476D02*
X13004524Y-9963429D01*
X13004524Y-9963429D02*
X12995000Y-9925333D01*
X12995000Y-9925333D02*
X12995000Y-9877714D01*
X12995000Y-9877714D02*
X13004524Y-9839619D01*
X13004524Y-9839619D02*
X13014048Y-9820571D01*
X13014048Y-9820571D02*
X13023572Y-9811048D01*
X13023572Y-9811048D02*
X13042619Y-9801524D01*
X13185476Y-9801524D02*
X13185476Y-9839619D01*
X13261667Y-9801524D02*
X13261667Y-9839619D01*
X13556905Y-10077714D02*
X13547381Y-10068190D01*
X13547381Y-10068190D02*
X13528334Y-10039619D01*
X13528334Y-10039619D02*
X13518810Y-10020571D01*
X13518810Y-10020571D02*
X13509286Y-9992000D01*
X13509286Y-9992000D02*
X13499762Y-9944381D01*
X13499762Y-9944381D02*
X13499762Y-9906286D01*
X13499762Y-9906286D02*
X13509286Y-9858667D01*
X13509286Y-9858667D02*
X13518810Y-9830095D01*
X13518810Y-9830095D02*
X13528334Y-9811048D01*
X13528334Y-9811048D02*
X13547381Y-9782476D01*
X13547381Y-9782476D02*
X13556905Y-9772952D01*
X13718810Y-9868190D02*
X13718810Y-10001524D01*
X13671191Y-9792000D02*
X13623572Y-9934857D01*
X13623572Y-9934857D02*
X13747381Y-9934857D01*
X13975953Y-10001524D02*
X13975953Y-9801524D01*
X14061667Y-10001524D02*
X14061667Y-9896762D01*
X14061667Y-9896762D02*
X14052143Y-9877714D01*
X14052143Y-9877714D02*
X14033096Y-9868190D01*
X14033096Y-9868190D02*
X14004524Y-9868190D01*
X14004524Y-9868190D02*
X13985476Y-9877714D01*
X13985476Y-9877714D02*
X13975953Y-9887238D01*
X14185476Y-10001524D02*
X14166429Y-9992000D01*
X14166429Y-9992000D02*
X14156905Y-9982476D01*
X14156905Y-9982476D02*
X14147381Y-9963429D01*
X14147381Y-9963429D02*
X14147381Y-9906286D01*
X14147381Y-9906286D02*
X14156905Y-9887238D01*
X14156905Y-9887238D02*
X14166429Y-9877714D01*
X14166429Y-9877714D02*
X14185476Y-9868190D01*
X14185476Y-9868190D02*
X14214048Y-9868190D01*
X14214048Y-9868190D02*
X14233096Y-9877714D01*
X14233096Y-9877714D02*
X14242619Y-9887238D01*
X14242619Y-9887238D02*
X14252143Y-9906286D01*
X14252143Y-9906286D02*
X14252143Y-9963429D01*
X14252143Y-9963429D02*
X14242619Y-9982476D01*
X14242619Y-9982476D02*
X14233096Y-9992000D01*
X14233096Y-9992000D02*
X14214048Y-10001524D01*
X14214048Y-10001524D02*
X14185476Y-10001524D01*
X14366429Y-10001524D02*
X14347381Y-9992000D01*
X14347381Y-9992000D02*
X14337857Y-9972952D01*
X14337857Y-9972952D02*
X14337857Y-9801524D01*
X14518810Y-9992000D02*
X14499762Y-10001524D01*
X14499762Y-10001524D02*
X14461667Y-10001524D01*
X14461667Y-10001524D02*
X14442619Y-9992000D01*
X14442619Y-9992000D02*
X14433096Y-9972952D01*
X14433096Y-9972952D02*
X14433096Y-9896762D01*
X14433096Y-9896762D02*
X14442619Y-9877714D01*
X14442619Y-9877714D02*
X14461667Y-9868190D01*
X14461667Y-9868190D02*
X14499762Y-9868190D01*
X14499762Y-9868190D02*
X14518810Y-9877714D01*
X14518810Y-9877714D02*
X14528334Y-9896762D01*
X14528334Y-9896762D02*
X14528334Y-9915810D01*
X14528334Y-9915810D02*
X14433096Y-9934857D01*
X14604524Y-9992000D02*
X14623572Y-10001524D01*
X14623572Y-10001524D02*
X14661667Y-10001524D01*
X14661667Y-10001524D02*
X14680715Y-9992000D01*
X14680715Y-9992000D02*
X14690238Y-9972952D01*
X14690238Y-9972952D02*
X14690238Y-9963429D01*
X14690238Y-9963429D02*
X14680715Y-9944381D01*
X14680715Y-9944381D02*
X14661667Y-9934857D01*
X14661667Y-9934857D02*
X14633096Y-9934857D01*
X14633096Y-9934857D02*
X14614048Y-9925333D01*
X14614048Y-9925333D02*
X14604524Y-9906286D01*
X14604524Y-9906286D02*
X14604524Y-9896762D01*
X14604524Y-9896762D02*
X14614048Y-9877714D01*
X14614048Y-9877714D02*
X14633096Y-9868190D01*
X14633096Y-9868190D02*
X14661667Y-9868190D01*
X14661667Y-9868190D02*
X14680715Y-9877714D01*
X14756905Y-10077714D02*
X14766429Y-10068190D01*
X14766429Y-10068190D02*
X14785477Y-10039619D01*
X14785477Y-10039619D02*
X14795000Y-10020571D01*
X14795000Y-10020571D02*
X14804524Y-9992000D01*
X14804524Y-9992000D02*
X14814048Y-9944381D01*
X14814048Y-9944381D02*
X14814048Y-9906286D01*
X14814048Y-9906286D02*
X14804524Y-9858667D01*
X14804524Y-9858667D02*
X14795000Y-9830095D01*
X14795000Y-9830095D02*
X14785477Y-9811048D01*
X14785477Y-9811048D02*
X14766429Y-9782476D01*
X14766429Y-9782476D02*
X14756905Y-9772952D01*
X15118810Y-10077714D02*
X15109286Y-10068190D01*
X15109286Y-10068190D02*
X15090238Y-10039619D01*
X15090238Y-10039619D02*
X15080715Y-10020571D01*
X15080715Y-10020571D02*
X15071191Y-9992000D01*
X15071191Y-9992000D02*
X15061667Y-9944381D01*
X15061667Y-9944381D02*
X15061667Y-9906286D01*
X15061667Y-9906286D02*
X15071191Y-9858667D01*
X15071191Y-9858667D02*
X15080715Y-9830095D01*
X15080715Y-9830095D02*
X15090238Y-9811048D01*
X15090238Y-9811048D02*
X15109286Y-9782476D01*
X15109286Y-9782476D02*
X15118810Y-9772952D01*
X15195000Y-9868190D02*
X15195000Y-10001524D01*
X15195000Y-9887238D02*
X15204524Y-9877714D01*
X15204524Y-9877714D02*
X15223572Y-9868190D01*
X15223572Y-9868190D02*
X15252143Y-9868190D01*
X15252143Y-9868190D02*
X15271191Y-9877714D01*
X15271191Y-9877714D02*
X15280715Y-9896762D01*
X15280715Y-9896762D02*
X15280715Y-10001524D01*
X15404524Y-10001524D02*
X15385477Y-9992000D01*
X15385477Y-9992000D02*
X15375953Y-9982476D01*
X15375953Y-9982476D02*
X15366429Y-9963429D01*
X15366429Y-9963429D02*
X15366429Y-9906286D01*
X15366429Y-9906286D02*
X15375953Y-9887238D01*
X15375953Y-9887238D02*
X15385477Y-9877714D01*
X15385477Y-9877714D02*
X15404524Y-9868190D01*
X15404524Y-9868190D02*
X15433096Y-9868190D01*
X15433096Y-9868190D02*
X15452143Y-9877714D01*
X15452143Y-9877714D02*
X15461667Y-9887238D01*
X15461667Y-9887238D02*
X15471191Y-9906286D01*
X15471191Y-9906286D02*
X15471191Y-9963429D01*
X15471191Y-9963429D02*
X15461667Y-9982476D01*
X15461667Y-9982476D02*
X15452143Y-9992000D01*
X15452143Y-9992000D02*
X15433096Y-10001524D01*
X15433096Y-10001524D02*
X15404524Y-10001524D01*
X15528334Y-9868190D02*
X15604524Y-9868190D01*
X15556905Y-9801524D02*
X15556905Y-9972952D01*
X15556905Y-9972952D02*
X15566429Y-9992000D01*
X15566429Y-9992000D02*
X15585477Y-10001524D01*
X15585477Y-10001524D02*
X15604524Y-10001524D01*
X15823572Y-9868190D02*
X15823572Y-10068190D01*
X15823572Y-9877714D02*
X15842619Y-9868190D01*
X15842619Y-9868190D02*
X15880715Y-9868190D01*
X15880715Y-9868190D02*
X15899762Y-9877714D01*
X15899762Y-9877714D02*
X15909286Y-9887238D01*
X15909286Y-9887238D02*
X15918810Y-9906286D01*
X15918810Y-9906286D02*
X15918810Y-9963429D01*
X15918810Y-9963429D02*
X15909286Y-9982476D01*
X15909286Y-9982476D02*
X15899762Y-9992000D01*
X15899762Y-9992000D02*
X15880715Y-10001524D01*
X15880715Y-10001524D02*
X15842619Y-10001524D01*
X15842619Y-10001524D02*
X15823572Y-9992000D01*
X16033096Y-10001524D02*
X16014048Y-9992000D01*
X16014048Y-9992000D02*
X16004524Y-9972952D01*
X16004524Y-9972952D02*
X16004524Y-9801524D01*
X16195000Y-10001524D02*
X16195000Y-9896762D01*
X16195000Y-9896762D02*
X16185477Y-9877714D01*
X16185477Y-9877714D02*
X16166429Y-9868190D01*
X16166429Y-9868190D02*
X16128334Y-9868190D01*
X16128334Y-9868190D02*
X16109286Y-9877714D01*
X16195000Y-9992000D02*
X16175953Y-10001524D01*
X16175953Y-10001524D02*
X16128334Y-10001524D01*
X16128334Y-10001524D02*
X16109286Y-9992000D01*
X16109286Y-9992000D02*
X16099762Y-9972952D01*
X16099762Y-9972952D02*
X16099762Y-9953905D01*
X16099762Y-9953905D02*
X16109286Y-9934857D01*
X16109286Y-9934857D02*
X16128334Y-9925333D01*
X16128334Y-9925333D02*
X16175953Y-9925333D01*
X16175953Y-9925333D02*
X16195000Y-9915810D01*
X16261667Y-9868190D02*
X16337858Y-9868190D01*
X16290239Y-9801524D02*
X16290239Y-9972952D01*
X16290239Y-9972952D02*
X16299762Y-9992000D01*
X16299762Y-9992000D02*
X16318810Y-10001524D01*
X16318810Y-10001524D02*
X16337858Y-10001524D01*
X16480715Y-9992000D02*
X16461667Y-10001524D01*
X16461667Y-10001524D02*
X16423572Y-10001524D01*
X16423572Y-10001524D02*
X16404524Y-9992000D01*
X16404524Y-9992000D02*
X16395000Y-9972952D01*
X16395000Y-9972952D02*
X16395000Y-9896762D01*
X16395000Y-9896762D02*
X16404524Y-9877714D01*
X16404524Y-9877714D02*
X16423572Y-9868190D01*
X16423572Y-9868190D02*
X16461667Y-9868190D01*
X16461667Y-9868190D02*
X16480715Y-9877714D01*
X16480715Y-9877714D02*
X16490239Y-9896762D01*
X16490239Y-9896762D02*
X16490239Y-9915810D01*
X16490239Y-9915810D02*
X16395000Y-9934857D01*
X16661667Y-10001524D02*
X16661667Y-9801524D01*
X16661667Y-9992000D02*
X16642620Y-10001524D01*
X16642620Y-10001524D02*
X16604524Y-10001524D01*
X16604524Y-10001524D02*
X16585477Y-9992000D01*
X16585477Y-9992000D02*
X16575953Y-9982476D01*
X16575953Y-9982476D02*
X16566429Y-9963429D01*
X16566429Y-9963429D02*
X16566429Y-9906286D01*
X16566429Y-9906286D02*
X16575953Y-9887238D01*
X16575953Y-9887238D02*
X16585477Y-9877714D01*
X16585477Y-9877714D02*
X16604524Y-9868190D01*
X16604524Y-9868190D02*
X16642620Y-9868190D01*
X16642620Y-9868190D02*
X16661667Y-9877714D01*
X16737858Y-10077714D02*
X16747381Y-10068190D01*
X16747381Y-10068190D02*
X16766429Y-10039619D01*
X16766429Y-10039619D02*
X16775953Y-10020571D01*
X16775953Y-10020571D02*
X16785477Y-9992000D01*
X16785477Y-9992000D02*
X16795001Y-9944381D01*
X16795001Y-9944381D02*
X16795001Y-9906286D01*
X16795001Y-9906286D02*
X16785477Y-9858667D01*
X16785477Y-9858667D02*
X16775953Y-9830095D01*
X16775953Y-9830095D02*
X16766429Y-9811048D01*
X16766429Y-9811048D02*
X16747381Y-9782476D01*
X16747381Y-9782476D02*
X16737858Y-9772952D01*
X9895000Y-10073000D02*
X9895000Y-10273000D01*
X9795000Y-10173000D02*
X9995000Y-10173000D01*
X10223571Y-10065524D02*
X10347381Y-10065524D01*
X10347381Y-10065524D02*
X10280714Y-10141714D01*
X10280714Y-10141714D02*
X10309286Y-10141714D01*
X10309286Y-10141714D02*
X10328333Y-10151238D01*
X10328333Y-10151238D02*
X10337857Y-10160762D01*
X10337857Y-10160762D02*
X10347381Y-10179810D01*
X10347381Y-10179810D02*
X10347381Y-10227429D01*
X10347381Y-10227429D02*
X10337857Y-10246476D01*
X10337857Y-10246476D02*
X10328333Y-10256000D01*
X10328333Y-10256000D02*
X10309286Y-10265524D01*
X10309286Y-10265524D02*
X10252143Y-10265524D01*
X10252143Y-10265524D02*
X10233095Y-10256000D01*
X10233095Y-10256000D02*
X10223571Y-10246476D01*
X10433095Y-10246476D02*
X10442619Y-10256000D01*
X10442619Y-10256000D02*
X10433095Y-10265524D01*
X10433095Y-10265524D02*
X10423571Y-10256000D01*
X10423571Y-10256000D02*
X10433095Y-10246476D01*
X10433095Y-10246476D02*
X10433095Y-10265524D01*
X10566429Y-10065524D02*
X10585476Y-10065524D01*
X10585476Y-10065524D02*
X10604524Y-10075048D01*
X10604524Y-10075048D02*
X10614048Y-10084571D01*
X10614048Y-10084571D02*
X10623571Y-10103619D01*
X10623571Y-10103619D02*
X10633095Y-10141714D01*
X10633095Y-10141714D02*
X10633095Y-10189333D01*
X10633095Y-10189333D02*
X10623571Y-10227429D01*
X10623571Y-10227429D02*
X10614048Y-10246476D01*
X10614048Y-10246476D02*
X10604524Y-10256000D01*
X10604524Y-10256000D02*
X10585476Y-10265524D01*
X10585476Y-10265524D02*
X10566429Y-10265524D01*
X10566429Y-10265524D02*
X10547381Y-10256000D01*
X10547381Y-10256000D02*
X10537857Y-10246476D01*
X10537857Y-10246476D02*
X10528333Y-10227429D01*
X10528333Y-10227429D02*
X10518810Y-10189333D01*
X10518810Y-10189333D02*
X10518810Y-10141714D01*
X10518810Y-10141714D02*
X10528333Y-10103619D01*
X10528333Y-10103619D02*
X10537857Y-10084571D01*
X10537857Y-10084571D02*
X10547381Y-10075048D01*
X10547381Y-10075048D02*
X10566429Y-10065524D01*
X10756905Y-10065524D02*
X10775952Y-10065524D01*
X10775952Y-10065524D02*
X10795000Y-10075048D01*
X10795000Y-10075048D02*
X10804524Y-10084571D01*
X10804524Y-10084571D02*
X10814048Y-10103619D01*
X10814048Y-10103619D02*
X10823571Y-10141714D01*
X10823571Y-10141714D02*
X10823571Y-10189333D01*
X10823571Y-10189333D02*
X10814048Y-10227429D01*
X10814048Y-10227429D02*
X10804524Y-10246476D01*
X10804524Y-10246476D02*
X10795000Y-10256000D01*
X10795000Y-10256000D02*
X10775952Y-10265524D01*
X10775952Y-10265524D02*
X10756905Y-10265524D01*
X10756905Y-10265524D02*
X10737857Y-10256000D01*
X10737857Y-10256000D02*
X10728333Y-10246476D01*
X10728333Y-10246476D02*
X10718810Y-10227429D01*
X10718810Y-10227429D02*
X10709286Y-10189333D01*
X10709286Y-10189333D02*
X10709286Y-10141714D01*
X10709286Y-10141714D02*
X10718810Y-10103619D01*
X10718810Y-10103619D02*
X10728333Y-10084571D01*
X10728333Y-10084571D02*
X10737857Y-10075048D01*
X10737857Y-10075048D02*
X10756905Y-10065524D01*
X10947381Y-10065524D02*
X10966429Y-10065524D01*
X10966429Y-10065524D02*
X10985476Y-10075048D01*
X10985476Y-10075048D02*
X10995000Y-10084571D01*
X10995000Y-10084571D02*
X11004524Y-10103619D01*
X11004524Y-10103619D02*
X11014048Y-10141714D01*
X11014048Y-10141714D02*
X11014048Y-10189333D01*
X11014048Y-10189333D02*
X11004524Y-10227429D01*
X11004524Y-10227429D02*
X10995000Y-10246476D01*
X10995000Y-10246476D02*
X10985476Y-10256000D01*
X10985476Y-10256000D02*
X10966429Y-10265524D01*
X10966429Y-10265524D02*
X10947381Y-10265524D01*
X10947381Y-10265524D02*
X10928333Y-10256000D01*
X10928333Y-10256000D02*
X10918810Y-10246476D01*
X10918810Y-10246476D02*
X10909286Y-10227429D01*
X10909286Y-10227429D02*
X10899762Y-10189333D01*
X10899762Y-10189333D02*
X10899762Y-10141714D01*
X10899762Y-10141714D02*
X10909286Y-10103619D01*
X10909286Y-10103619D02*
X10918810Y-10084571D01*
X10918810Y-10084571D02*
X10928333Y-10075048D01*
X10928333Y-10075048D02*
X10947381Y-10065524D01*
X11099762Y-10265524D02*
X11099762Y-10132190D01*
X11099762Y-10151238D02*
X11109286Y-10141714D01*
X11109286Y-10141714D02*
X11128333Y-10132190D01*
X11128333Y-10132190D02*
X11156905Y-10132190D01*
X11156905Y-10132190D02*
X11175952Y-10141714D01*
X11175952Y-10141714D02*
X11185476Y-10160762D01*
X11185476Y-10160762D02*
X11185476Y-10265524D01*
X11185476Y-10160762D02*
X11195000Y-10141714D01*
X11195000Y-10141714D02*
X11214048Y-10132190D01*
X11214048Y-10132190D02*
X11242619Y-10132190D01*
X11242619Y-10132190D02*
X11261667Y-10141714D01*
X11261667Y-10141714D02*
X11271190Y-10160762D01*
X11271190Y-10160762D02*
X11271190Y-10265524D01*
X11366429Y-10265524D02*
X11366429Y-10132190D01*
X11366429Y-10151238D02*
X11375952Y-10141714D01*
X11375952Y-10141714D02*
X11395000Y-10132190D01*
X11395000Y-10132190D02*
X11423571Y-10132190D01*
X11423571Y-10132190D02*
X11442619Y-10141714D01*
X11442619Y-10141714D02*
X11452143Y-10160762D01*
X11452143Y-10160762D02*
X11452143Y-10265524D01*
X11452143Y-10160762D02*
X11461667Y-10141714D01*
X11461667Y-10141714D02*
X11480714Y-10132190D01*
X11480714Y-10132190D02*
X11509286Y-10132190D01*
X11509286Y-10132190D02*
X11528333Y-10141714D01*
X11528333Y-10141714D02*
X11537857Y-10160762D01*
X11537857Y-10160762D02*
X11537857Y-10265524D01*
X11928333Y-10056000D02*
X11756905Y-10313143D01*
X12185476Y-10065524D02*
X12204524Y-10065524D01*
X12204524Y-10065524D02*
X12223572Y-10075048D01*
X12223572Y-10075048D02*
X12233095Y-10084571D01*
X12233095Y-10084571D02*
X12242619Y-10103619D01*
X12242619Y-10103619D02*
X12252143Y-10141714D01*
X12252143Y-10141714D02*
X12252143Y-10189333D01*
X12252143Y-10189333D02*
X12242619Y-10227429D01*
X12242619Y-10227429D02*
X12233095Y-10246476D01*
X12233095Y-10246476D02*
X12223572Y-10256000D01*
X12223572Y-10256000D02*
X12204524Y-10265524D01*
X12204524Y-10265524D02*
X12185476Y-10265524D01*
X12185476Y-10265524D02*
X12166429Y-10256000D01*
X12166429Y-10256000D02*
X12156905Y-10246476D01*
X12156905Y-10246476D02*
X12147381Y-10227429D01*
X12147381Y-10227429D02*
X12137857Y-10189333D01*
X12137857Y-10189333D02*
X12137857Y-10141714D01*
X12137857Y-10141714D02*
X12147381Y-10103619D01*
X12147381Y-10103619D02*
X12156905Y-10084571D01*
X12156905Y-10084571D02*
X12166429Y-10075048D01*
X12166429Y-10075048D02*
X12185476Y-10065524D01*
X12337857Y-10246476D02*
X12347381Y-10256000D01*
X12347381Y-10256000D02*
X12337857Y-10265524D01*
X12337857Y-10265524D02*
X12328333Y-10256000D01*
X12328333Y-10256000D02*
X12337857Y-10246476D01*
X12337857Y-10246476D02*
X12337857Y-10265524D01*
X12537857Y-10265524D02*
X12423572Y-10265524D01*
X12480714Y-10265524D02*
X12480714Y-10065524D01*
X12480714Y-10065524D02*
X12461667Y-10094095D01*
X12461667Y-10094095D02*
X12442619Y-10113143D01*
X12442619Y-10113143D02*
X12423572Y-10122667D01*
X12728333Y-10265524D02*
X12614048Y-10265524D01*
X12671191Y-10265524D02*
X12671191Y-10065524D01*
X12671191Y-10065524D02*
X12652143Y-10094095D01*
X12652143Y-10094095D02*
X12633095Y-10113143D01*
X12633095Y-10113143D02*
X12614048Y-10122667D01*
X12842619Y-10151238D02*
X12823572Y-10141714D01*
X12823572Y-10141714D02*
X12814048Y-10132190D01*
X12814048Y-10132190D02*
X12804524Y-10113143D01*
X12804524Y-10113143D02*
X12804524Y-10103619D01*
X12804524Y-10103619D02*
X12814048Y-10084571D01*
X12814048Y-10084571D02*
X12823572Y-10075048D01*
X12823572Y-10075048D02*
X12842619Y-10065524D01*
X12842619Y-10065524D02*
X12880714Y-10065524D01*
X12880714Y-10065524D02*
X12899762Y-10075048D01*
X12899762Y-10075048D02*
X12909286Y-10084571D01*
X12909286Y-10084571D02*
X12918810Y-10103619D01*
X12918810Y-10103619D02*
X12918810Y-10113143D01*
X12918810Y-10113143D02*
X12909286Y-10132190D01*
X12909286Y-10132190D02*
X12899762Y-10141714D01*
X12899762Y-10141714D02*
X12880714Y-10151238D01*
X12880714Y-10151238D02*
X12842619Y-10151238D01*
X12842619Y-10151238D02*
X12823572Y-10160762D01*
X12823572Y-10160762D02*
X12814048Y-10170286D01*
X12814048Y-10170286D02*
X12804524Y-10189333D01*
X12804524Y-10189333D02*
X12804524Y-10227429D01*
X12804524Y-10227429D02*
X12814048Y-10246476D01*
X12814048Y-10246476D02*
X12823572Y-10256000D01*
X12823572Y-10256000D02*
X12842619Y-10265524D01*
X12842619Y-10265524D02*
X12880714Y-10265524D01*
X12880714Y-10265524D02*
X12899762Y-10256000D01*
X12899762Y-10256000D02*
X12909286Y-10246476D01*
X12909286Y-10246476D02*
X12918810Y-10227429D01*
X12918810Y-10227429D02*
X12918810Y-10189333D01*
X12918810Y-10189333D02*
X12909286Y-10170286D01*
X12909286Y-10170286D02*
X12899762Y-10160762D01*
X12899762Y-10160762D02*
X12880714Y-10151238D01*
X13109286Y-10265524D02*
X12995000Y-10265524D01*
X13052143Y-10265524D02*
X13052143Y-10065524D01*
X13052143Y-10065524D02*
X13033095Y-10094095D01*
X13033095Y-10094095D02*
X13014048Y-10113143D01*
X13014048Y-10113143D02*
X12995000Y-10122667D01*
X13185476Y-10065524D02*
X13185476Y-10103619D01*
X13261667Y-10065524D02*
X13261667Y-10103619D01*
X13556905Y-10341714D02*
X13547381Y-10332190D01*
X13547381Y-10332190D02*
X13528334Y-10303619D01*
X13528334Y-10303619D02*
X13518810Y-10284571D01*
X13518810Y-10284571D02*
X13509286Y-10256000D01*
X13509286Y-10256000D02*
X13499762Y-10208381D01*
X13499762Y-10208381D02*
X13499762Y-10170286D01*
X13499762Y-10170286D02*
X13509286Y-10122667D01*
X13509286Y-10122667D02*
X13518810Y-10094095D01*
X13518810Y-10094095D02*
X13528334Y-10075048D01*
X13528334Y-10075048D02*
X13547381Y-10046476D01*
X13547381Y-10046476D02*
X13556905Y-10036952D01*
X13623572Y-10084571D02*
X13633095Y-10075048D01*
X13633095Y-10075048D02*
X13652143Y-10065524D01*
X13652143Y-10065524D02*
X13699762Y-10065524D01*
X13699762Y-10065524D02*
X13718810Y-10075048D01*
X13718810Y-10075048D02*
X13728334Y-10084571D01*
X13728334Y-10084571D02*
X13737857Y-10103619D01*
X13737857Y-10103619D02*
X13737857Y-10122667D01*
X13737857Y-10122667D02*
X13728334Y-10151238D01*
X13728334Y-10151238D02*
X13614048Y-10265524D01*
X13614048Y-10265524D02*
X13737857Y-10265524D01*
X13975953Y-10265524D02*
X13975953Y-10065524D01*
X14061667Y-10265524D02*
X14061667Y-10160762D01*
X14061667Y-10160762D02*
X14052143Y-10141714D01*
X14052143Y-10141714D02*
X14033096Y-10132190D01*
X14033096Y-10132190D02*
X14004524Y-10132190D01*
X14004524Y-10132190D02*
X13985476Y-10141714D01*
X13985476Y-10141714D02*
X13975953Y-10151238D01*
X14185476Y-10265524D02*
X14166429Y-10256000D01*
X14166429Y-10256000D02*
X14156905Y-10246476D01*
X14156905Y-10246476D02*
X14147381Y-10227429D01*
X14147381Y-10227429D02*
X14147381Y-10170286D01*
X14147381Y-10170286D02*
X14156905Y-10151238D01*
X14156905Y-10151238D02*
X14166429Y-10141714D01*
X14166429Y-10141714D02*
X14185476Y-10132190D01*
X14185476Y-10132190D02*
X14214048Y-10132190D01*
X14214048Y-10132190D02*
X14233096Y-10141714D01*
X14233096Y-10141714D02*
X14242619Y-10151238D01*
X14242619Y-10151238D02*
X14252143Y-10170286D01*
X14252143Y-10170286D02*
X14252143Y-10227429D01*
X14252143Y-10227429D02*
X14242619Y-10246476D01*
X14242619Y-10246476D02*
X14233096Y-10256000D01*
X14233096Y-10256000D02*
X14214048Y-10265524D01*
X14214048Y-10265524D02*
X14185476Y-10265524D01*
X14366429Y-10265524D02*
X14347381Y-10256000D01*
X14347381Y-10256000D02*
X14337857Y-10236952D01*
X14337857Y-10236952D02*
X14337857Y-10065524D01*
X14518810Y-10256000D02*
X14499762Y-10265524D01*
X14499762Y-10265524D02*
X14461667Y-10265524D01*
X14461667Y-10265524D02*
X14442619Y-10256000D01*
X14442619Y-10256000D02*
X14433096Y-10236952D01*
X14433096Y-10236952D02*
X14433096Y-10160762D01*
X14433096Y-10160762D02*
X14442619Y-10141714D01*
X14442619Y-10141714D02*
X14461667Y-10132190D01*
X14461667Y-10132190D02*
X14499762Y-10132190D01*
X14499762Y-10132190D02*
X14518810Y-10141714D01*
X14518810Y-10141714D02*
X14528334Y-10160762D01*
X14528334Y-10160762D02*
X14528334Y-10179810D01*
X14528334Y-10179810D02*
X14433096Y-10198857D01*
X14604524Y-10256000D02*
X14623572Y-10265524D01*
X14623572Y-10265524D02*
X14661667Y-10265524D01*
X14661667Y-10265524D02*
X14680715Y-10256000D01*
X14680715Y-10256000D02*
X14690238Y-10236952D01*
X14690238Y-10236952D02*
X14690238Y-10227429D01*
X14690238Y-10227429D02*
X14680715Y-10208381D01*
X14680715Y-10208381D02*
X14661667Y-10198857D01*
X14661667Y-10198857D02*
X14633096Y-10198857D01*
X14633096Y-10198857D02*
X14614048Y-10189333D01*
X14614048Y-10189333D02*
X14604524Y-10170286D01*
X14604524Y-10170286D02*
X14604524Y-10160762D01*
X14604524Y-10160762D02*
X14614048Y-10141714D01*
X14614048Y-10141714D02*
X14633096Y-10132190D01*
X14633096Y-10132190D02*
X14661667Y-10132190D01*
X14661667Y-10132190D02*
X14680715Y-10141714D01*
X14756905Y-10341714D02*
X14766429Y-10332190D01*
X14766429Y-10332190D02*
X14785477Y-10303619D01*
X14785477Y-10303619D02*
X14795000Y-10284571D01*
X14795000Y-10284571D02*
X14804524Y-10256000D01*
X14804524Y-10256000D02*
X14814048Y-10208381D01*
X14814048Y-10208381D02*
X14814048Y-10170286D01*
X14814048Y-10170286D02*
X14804524Y-10122667D01*
X14804524Y-10122667D02*
X14795000Y-10094095D01*
X14795000Y-10094095D02*
X14785477Y-10075048D01*
X14785477Y-10075048D02*
X14766429Y-10046476D01*
X14766429Y-10046476D02*
X14756905Y-10036952D01*
X15118810Y-10341714D02*
X15109286Y-10332190D01*
X15109286Y-10332190D02*
X15090238Y-10303619D01*
X15090238Y-10303619D02*
X15080715Y-10284571D01*
X15080715Y-10284571D02*
X15071191Y-10256000D01*
X15071191Y-10256000D02*
X15061667Y-10208381D01*
X15061667Y-10208381D02*
X15061667Y-10170286D01*
X15061667Y-10170286D02*
X15071191Y-10122667D01*
X15071191Y-10122667D02*
X15080715Y-10094095D01*
X15080715Y-10094095D02*
X15090238Y-10075048D01*
X15090238Y-10075048D02*
X15109286Y-10046476D01*
X15109286Y-10046476D02*
X15118810Y-10036952D01*
X15195000Y-10132190D02*
X15195000Y-10265524D01*
X15195000Y-10151238D02*
X15204524Y-10141714D01*
X15204524Y-10141714D02*
X15223572Y-10132190D01*
X15223572Y-10132190D02*
X15252143Y-10132190D01*
X15252143Y-10132190D02*
X15271191Y-10141714D01*
X15271191Y-10141714D02*
X15280715Y-10160762D01*
X15280715Y-10160762D02*
X15280715Y-10265524D01*
X15404524Y-10265524D02*
X15385477Y-10256000D01*
X15385477Y-10256000D02*
X15375953Y-10246476D01*
X15375953Y-10246476D02*
X15366429Y-10227429D01*
X15366429Y-10227429D02*
X15366429Y-10170286D01*
X15366429Y-10170286D02*
X15375953Y-10151238D01*
X15375953Y-10151238D02*
X15385477Y-10141714D01*
X15385477Y-10141714D02*
X15404524Y-10132190D01*
X15404524Y-10132190D02*
X15433096Y-10132190D01*
X15433096Y-10132190D02*
X15452143Y-10141714D01*
X15452143Y-10141714D02*
X15461667Y-10151238D01*
X15461667Y-10151238D02*
X15471191Y-10170286D01*
X15471191Y-10170286D02*
X15471191Y-10227429D01*
X15471191Y-10227429D02*
X15461667Y-10246476D01*
X15461667Y-10246476D02*
X15452143Y-10256000D01*
X15452143Y-10256000D02*
X15433096Y-10265524D01*
X15433096Y-10265524D02*
X15404524Y-10265524D01*
X15528334Y-10132190D02*
X15604524Y-10132190D01*
X15556905Y-10065524D02*
X15556905Y-10236952D01*
X15556905Y-10236952D02*
X15566429Y-10256000D01*
X15566429Y-10256000D02*
X15585477Y-10265524D01*
X15585477Y-10265524D02*
X15604524Y-10265524D01*
X15823572Y-10132190D02*
X15823572Y-10332190D01*
X15823572Y-10141714D02*
X15842619Y-10132190D01*
X15842619Y-10132190D02*
X15880715Y-10132190D01*
X15880715Y-10132190D02*
X15899762Y-10141714D01*
X15899762Y-10141714D02*
X15909286Y-10151238D01*
X15909286Y-10151238D02*
X15918810Y-10170286D01*
X15918810Y-10170286D02*
X15918810Y-10227429D01*
X15918810Y-10227429D02*
X15909286Y-10246476D01*
X15909286Y-10246476D02*
X15899762Y-10256000D01*
X15899762Y-10256000D02*
X15880715Y-10265524D01*
X15880715Y-10265524D02*
X15842619Y-10265524D01*
X15842619Y-10265524D02*
X15823572Y-10256000D01*
X16033096Y-10265524D02*
X16014048Y-10256000D01*
X16014048Y-10256000D02*
X16004524Y-10236952D01*
X16004524Y-10236952D02*
X16004524Y-10065524D01*
X16195000Y-10265524D02*
X16195000Y-10160762D01*
X16195000Y-10160762D02*
X16185477Y-10141714D01*
X16185477Y-10141714D02*
X16166429Y-10132190D01*
X16166429Y-10132190D02*
X16128334Y-10132190D01*
X16128334Y-10132190D02*
X16109286Y-10141714D01*
X16195000Y-10256000D02*
X16175953Y-10265524D01*
X16175953Y-10265524D02*
X16128334Y-10265524D01*
X16128334Y-10265524D02*
X16109286Y-10256000D01*
X16109286Y-10256000D02*
X16099762Y-10236952D01*
X16099762Y-10236952D02*
X16099762Y-10217905D01*
X16099762Y-10217905D02*
X16109286Y-10198857D01*
X16109286Y-10198857D02*
X16128334Y-10189333D01*
X16128334Y-10189333D02*
X16175953Y-10189333D01*
X16175953Y-10189333D02*
X16195000Y-10179810D01*
X16261667Y-10132190D02*
X16337858Y-10132190D01*
X16290239Y-10065524D02*
X16290239Y-10236952D01*
X16290239Y-10236952D02*
X16299762Y-10256000D01*
X16299762Y-10256000D02*
X16318810Y-10265524D01*
X16318810Y-10265524D02*
X16337858Y-10265524D01*
X16480715Y-10256000D02*
X16461667Y-10265524D01*
X16461667Y-10265524D02*
X16423572Y-10265524D01*
X16423572Y-10265524D02*
X16404524Y-10256000D01*
X16404524Y-10256000D02*
X16395000Y-10236952D01*
X16395000Y-10236952D02*
X16395000Y-10160762D01*
X16395000Y-10160762D02*
X16404524Y-10141714D01*
X16404524Y-10141714D02*
X16423572Y-10132190D01*
X16423572Y-10132190D02*
X16461667Y-10132190D01*
X16461667Y-10132190D02*
X16480715Y-10141714D01*
X16480715Y-10141714D02*
X16490239Y-10160762D01*
X16490239Y-10160762D02*
X16490239Y-10179810D01*
X16490239Y-10179810D02*
X16395000Y-10198857D01*
X16661667Y-10265524D02*
X16661667Y-10065524D01*
X16661667Y-10256000D02*
X16642620Y-10265524D01*
X16642620Y-10265524D02*
X16604524Y-10265524D01*
X16604524Y-10265524D02*
X16585477Y-10256000D01*
X16585477Y-10256000D02*
X16575953Y-10246476D01*
X16575953Y-10246476D02*
X16566429Y-10227429D01*
X16566429Y-10227429D02*
X16566429Y-10170286D01*
X16566429Y-10170286D02*
X16575953Y-10151238D01*
X16575953Y-10151238D02*
X16585477Y-10141714D01*
X16585477Y-10141714D02*
X16604524Y-10132190D01*
X16604524Y-10132190D02*
X16642620Y-10132190D01*
X16642620Y-10132190D02*
X16661667Y-10141714D01*
X16737858Y-10341714D02*
X16747381Y-10332190D01*
X16747381Y-10332190D02*
X16766429Y-10303619D01*
X16766429Y-10303619D02*
X16775953Y-10284571D01*
X16775953Y-10284571D02*
X16785477Y-10256000D01*
X16785477Y-10256000D02*
X16795001Y-10208381D01*
X16795001Y-10208381D02*
X16795001Y-10170286D01*
X16795001Y-10170286D02*
X16785477Y-10122667D01*
X16785477Y-10122667D02*
X16775953Y-10094095D01*
X16775953Y-10094095D02*
X16766429Y-10075048D01*
X16766429Y-10075048D02*
X16747381Y-10046476D01*
X16747381Y-10046476D02*
X16737858Y-10036952D01*
M02*
