%TF.GenerationSoftware,KiCad,Pcbnew,7.0.2*%
%TF.CreationDate,2023-11-21T14:26:12-06:00*%
%TF.ProjectId,BPS-PeripheralSOM,4250532d-5065-4726-9970-686572616c53,rev?*%
%TF.SameCoordinates,Original*%
%TF.FileFunction,Paste,Top*%
%TF.FilePolarity,Positive*%
%FSLAX46Y46*%
G04 Gerber Fmt 4.6, Leading zero omitted, Abs format (unit mm)*
G04 Created by KiCad (PCBNEW 7.0.2) date 2023-11-21 14:26:12*
%MOMM*%
%LPD*%
G01*
G04 APERTURE LIST*
G04 Aperture macros list*
%AMRoundRect*
0 Rectangle with rounded corners*
0 $1 Rounding radius*
0 $2 $3 $4 $5 $6 $7 $8 $9 X,Y pos of 4 corners*
0 Add a 4 corners polygon primitive as box body*
4,1,4,$2,$3,$4,$5,$6,$7,$8,$9,$2,$3,0*
0 Add four circle primitives for the rounded corners*
1,1,$1+$1,$2,$3*
1,1,$1+$1,$4,$5*
1,1,$1+$1,$6,$7*
1,1,$1+$1,$8,$9*
0 Add four rect primitives between the rounded corners*
20,1,$1+$1,$2,$3,$4,$5,0*
20,1,$1+$1,$4,$5,$6,$7,0*
20,1,$1+$1,$6,$7,$8,$9,0*
20,1,$1+$1,$8,$9,$2,$3,0*%
G04 Aperture macros list end*
%ADD10R,1.000000X2.750000*%
%ADD11RoundRect,0.250000X-0.475000X0.250000X-0.475000X-0.250000X0.475000X-0.250000X0.475000X0.250000X0*%
%ADD12R,0.700000X1.000000*%
%ADD13R,0.700000X0.600000*%
%ADD14R,0.650000X1.528000*%
%ADD15R,2.100000X1.000000*%
%ADD16R,1.700000X2.400000*%
%ADD17RoundRect,0.243750X-0.243750X-0.456250X0.243750X-0.456250X0.243750X0.456250X-0.243750X0.456250X0*%
%ADD18RoundRect,0.250000X0.262500X0.450000X-0.262500X0.450000X-0.262500X-0.450000X0.262500X-0.450000X0*%
%ADD19RoundRect,0.075000X0.075000X-0.662500X0.075000X0.662500X-0.075000X0.662500X-0.075000X-0.662500X0*%
%ADD20RoundRect,0.075000X0.662500X-0.075000X0.662500X0.075000X-0.662500X0.075000X-0.662500X-0.075000X0*%
%ADD21RoundRect,0.250000X0.275000X-0.275000X0.275000X0.275000X-0.275000X0.275000X-0.275000X-0.275000X0*%
%ADD22RoundRect,0.062500X0.062500X-0.350000X0.062500X0.350000X-0.062500X0.350000X-0.062500X-0.350000X0*%
%ADD23RoundRect,0.062500X0.350000X-0.062500X0.350000X0.062500X-0.350000X0.062500X-0.350000X-0.062500X0*%
%ADD24R,0.400000X1.350000*%
%ADD25R,1.500000X1.900000*%
%ADD26R,0.762000X1.117600*%
%ADD27RoundRect,0.150000X0.625000X0.150000X-0.625000X0.150000X-0.625000X-0.150000X0.625000X-0.150000X0*%
%ADD28R,1.003300X0.558800*%
G04 APERTURE END LIST*
D10*
%TO.C,SW5*%
X110000000Y-59875000D03*
X110000000Y-54125000D03*
X114000000Y-59875000D03*
X114000000Y-54125000D03*
%TD*%
D11*
%TO.C,C22*%
X122500000Y-71950000D03*
X122500000Y-73850000D03*
%TD*%
D12*
%TO.C,D1*%
X137900000Y-48750000D03*
D13*
X137900000Y-47050000D03*
X135900000Y-47050000D03*
X135900000Y-48950000D03*
%TD*%
D14*
%TO.C,IC1*%
X134190000Y-58422000D03*
X135460000Y-58422000D03*
X136730000Y-58422000D03*
X138000000Y-58422000D03*
X138000000Y-53000000D03*
X136730000Y-53000000D03*
X135460000Y-53000000D03*
X134190000Y-53000000D03*
%TD*%
D15*
%TO.C,P2*%
X127060000Y-78740000D03*
X127060000Y-81280000D03*
X127060000Y-86360000D03*
X137160000Y-86360000D03*
X137160000Y-78740000D03*
%TD*%
D16*
%TO.C,Y1*%
X118650000Y-68900000D03*
X122350000Y-68900000D03*
%TD*%
D17*
%TO.C,D14*%
X108562500Y-46000000D03*
X110437500Y-46000000D03*
%TD*%
D12*
%TO.C,U5*%
X109050000Y-74700000D03*
X110950000Y-74700000D03*
X110000000Y-72300000D03*
%TD*%
D18*
%TO.C,R17*%
X114412500Y-48500000D03*
X112587500Y-48500000D03*
%TD*%
%TO.C,R6*%
X114412500Y-51000000D03*
X112587500Y-51000000D03*
%TD*%
D19*
%TO.C,U1*%
X119000000Y-64825000D03*
X119500000Y-64825000D03*
X120000000Y-64825000D03*
X120500000Y-64825000D03*
X121000000Y-64825000D03*
X121500000Y-64825000D03*
X122000000Y-64825000D03*
X122500000Y-64825000D03*
X123000000Y-64825000D03*
X123500000Y-64825000D03*
X124000000Y-64825000D03*
X124500000Y-64825000D03*
D20*
X125912500Y-63412500D03*
X125912500Y-62912500D03*
X125912500Y-62412500D03*
X125912500Y-61912500D03*
X125912500Y-61412500D03*
X125912500Y-60912500D03*
X125912500Y-60412500D03*
X125912500Y-59912500D03*
X125912500Y-59412500D03*
X125912500Y-58912500D03*
X125912500Y-58412500D03*
X125912500Y-57912500D03*
D19*
X124500000Y-56500000D03*
X124000000Y-56500000D03*
X123500000Y-56500000D03*
X123000000Y-56500000D03*
X122500000Y-56500000D03*
X122000000Y-56500000D03*
X121500000Y-56500000D03*
X121000000Y-56500000D03*
X120500000Y-56500000D03*
X120000000Y-56500000D03*
X119500000Y-56500000D03*
X119000000Y-56500000D03*
D20*
X117587500Y-57912500D03*
X117587500Y-58412500D03*
X117587500Y-58912500D03*
X117587500Y-59412500D03*
X117587500Y-59912500D03*
X117587500Y-60412500D03*
X117587500Y-60912500D03*
X117587500Y-61412500D03*
X117587500Y-61912500D03*
X117587500Y-62412500D03*
X117587500Y-62912500D03*
X117587500Y-63412500D03*
%TD*%
D10*
%TO.C,SW1*%
X114000000Y-63625000D03*
X114000000Y-69375000D03*
X110000000Y-63625000D03*
X110000000Y-69375000D03*
%TD*%
D21*
%TO.C,U4*%
X131200000Y-49800000D03*
X132500000Y-49800000D03*
X131200000Y-48500000D03*
X132500000Y-48500000D03*
D22*
X130600000Y-51087500D03*
X131100000Y-51087500D03*
X131600000Y-51087500D03*
X132100000Y-51087500D03*
X132600000Y-51087500D03*
X133100000Y-51087500D03*
D23*
X133787500Y-50400000D03*
X133787500Y-49900000D03*
X133787500Y-49400000D03*
X133787500Y-48900000D03*
X133787500Y-48400000D03*
X133787500Y-47900000D03*
D22*
X133100000Y-47212500D03*
X132600000Y-47212500D03*
X132100000Y-47212500D03*
X131600000Y-47212500D03*
X131100000Y-47212500D03*
X130600000Y-47212500D03*
D23*
X129912500Y-47900000D03*
X129912500Y-48400000D03*
X129912500Y-48900000D03*
X129912500Y-49400000D03*
X129912500Y-49900000D03*
X129912500Y-50400000D03*
%TD*%
D24*
%TO.C,J3*%
X134300000Y-44200000D03*
X133650000Y-44200000D03*
X133000000Y-44200000D03*
X132350000Y-44200000D03*
X131700000Y-44200000D03*
D25*
X134000000Y-41500000D03*
X132000000Y-41500000D03*
%TD*%
D18*
%TO.C,R11*%
X114412500Y-43500000D03*
X112587500Y-43500000D03*
%TD*%
D26*
%TO.C,SW2*%
X118249998Y-80392300D03*
X120000000Y-76607700D03*
X121750002Y-80392300D03*
%TD*%
D17*
%TO.C,D12*%
X108562500Y-51000000D03*
X110437500Y-51000000D03*
%TD*%
D11*
%TO.C,C21*%
X118500000Y-71950000D03*
X118500000Y-73850000D03*
%TD*%
D17*
%TO.C,D2*%
X133562500Y-73000000D03*
X135437500Y-73000000D03*
%TD*%
D27*
%TO.C,U2*%
X114625000Y-81270000D03*
X114625000Y-80000000D03*
X114625000Y-78730000D03*
X114625000Y-77460000D03*
X109275000Y-77460000D03*
X109275000Y-78730000D03*
X109275000Y-80000000D03*
X109275000Y-81270000D03*
%TD*%
D17*
%TO.C,D4*%
X108562500Y-43500000D03*
X110437500Y-43500000D03*
%TD*%
D18*
%TO.C,R18*%
X114412500Y-46000000D03*
X112587500Y-46000000D03*
%TD*%
D28*
%TO.C,CR2*%
X128400000Y-66049999D03*
X128400000Y-67000000D03*
X128400000Y-67950001D03*
X131105100Y-67950001D03*
X131105100Y-67000000D03*
X131105100Y-66049999D03*
%TD*%
%TO.C,CR1*%
X128400000Y-58049999D03*
X128400000Y-59000000D03*
X128400000Y-59950001D03*
X131105100Y-59950001D03*
X131105100Y-59000000D03*
X131105100Y-58049999D03*
%TD*%
D17*
%TO.C,D13*%
X108562500Y-48500000D03*
X110437500Y-48500000D03*
%TD*%
M02*
