%TF.GenerationSoftware,KiCad,Pcbnew,7.0.2*%
%TF.CreationDate,2023-11-21T14:16:57-06:00*%
%TF.ProjectId,BPS-PeripheralSOM,4250532d-5065-4726-9970-686572616c53,rev?*%
%TF.SameCoordinates,Original*%
%TF.FileFunction,Paste,Bot*%
%TF.FilePolarity,Positive*%
%FSLAX46Y46*%
G04 Gerber Fmt 4.6, Leading zero omitted, Abs format (unit mm)*
G04 Created by KiCad (PCBNEW 7.0.2) date 2023-11-21 14:16:57*
%MOMM*%
%LPD*%
G01*
G04 APERTURE LIST*
G04 Aperture macros list*
%AMRoundRect*
0 Rectangle with rounded corners*
0 $1 Rounding radius*
0 $2 $3 $4 $5 $6 $7 $8 $9 X,Y pos of 4 corners*
0 Add a 4 corners polygon primitive as box body*
4,1,4,$2,$3,$4,$5,$6,$7,$8,$9,$2,$3,0*
0 Add four circle primitives for the rounded corners*
1,1,$1+$1,$2,$3*
1,1,$1+$1,$4,$5*
1,1,$1+$1,$6,$7*
1,1,$1+$1,$8,$9*
0 Add four rect primitives between the rounded corners*
20,1,$1+$1,$2,$3,$4,$5,0*
20,1,$1+$1,$4,$5,$6,$7,0*
20,1,$1+$1,$6,$7,$8,$9,0*
20,1,$1+$1,$8,$9,$2,$3,0*%
%AMFreePoly0*
4,1,9,3.862500,-0.866500,0.737500,-0.866500,0.737500,-0.450000,-0.737500,-0.450000,-0.737500,0.450000,0.737500,0.450000,0.737500,0.866500,3.862500,0.866500,3.862500,-0.866500,3.862500,-0.866500,$1*%
G04 Aperture macros list end*
%ADD10R,1.500000X0.550000*%
%ADD11R,1.400000X1.000000*%
%ADD12RoundRect,0.250000X0.250000X0.475000X-0.250000X0.475000X-0.250000X-0.475000X0.250000X-0.475000X0*%
%ADD13RoundRect,0.112500X0.187500X0.112500X-0.187500X0.112500X-0.187500X-0.112500X0.187500X-0.112500X0*%
%ADD14RoundRect,0.250000X-0.475000X0.250000X-0.475000X-0.250000X0.475000X-0.250000X0.475000X0.250000X0*%
%ADD15RoundRect,0.250000X-0.450000X0.262500X-0.450000X-0.262500X0.450000X-0.262500X0.450000X0.262500X0*%
%ADD16RoundRect,0.250000X-0.262500X-0.450000X0.262500X-0.450000X0.262500X0.450000X-0.262500X0.450000X0*%
%ADD17RoundRect,0.250000X0.450000X-0.262500X0.450000X0.262500X-0.450000X0.262500X-0.450000X-0.262500X0*%
%ADD18RoundRect,0.250000X0.475000X-0.250000X0.475000X0.250000X-0.475000X0.250000X-0.475000X-0.250000X0*%
%ADD19RoundRect,0.160000X-0.160000X0.245000X-0.160000X-0.245000X0.160000X-0.245000X0.160000X0.245000X0*%
%ADD20RoundRect,0.093750X-0.106250X0.093750X-0.106250X-0.093750X0.106250X-0.093750X0.106250X0.093750X0*%
%ADD21R,1.300000X0.900000*%
%ADD22FreePoly0,180.000000*%
%ADD23RoundRect,0.218750X-0.381250X0.218750X-0.381250X-0.218750X0.381250X-0.218750X0.381250X0.218750X0*%
%ADD24RoundRect,0.250000X0.262500X0.450000X-0.262500X0.450000X-0.262500X-0.450000X0.262500X-0.450000X0*%
%ADD25RoundRect,0.250000X-0.250000X-0.475000X0.250000X-0.475000X0.250000X0.475000X-0.250000X0.475000X0*%
%ADD26RoundRect,0.218750X0.381250X-0.218750X0.381250X0.218750X-0.381250X0.218750X-0.381250X-0.218750X0*%
G04 APERTURE END LIST*
D10*
%TO.C,J6*%
X135000000Y-61200000D03*
X138800000Y-61200000D03*
X135000000Y-62000000D03*
X138800000Y-62000000D03*
X135000000Y-62800000D03*
X138800000Y-62800000D03*
X135000000Y-63600000D03*
X138800000Y-63600000D03*
X135000000Y-64400000D03*
X138800000Y-64400000D03*
X135000000Y-65200000D03*
X138800000Y-65200000D03*
X135000000Y-66000000D03*
X138800000Y-66000000D03*
X135000000Y-66800000D03*
X138800000Y-66800000D03*
X135000000Y-67600000D03*
X138800000Y-67600000D03*
X135000000Y-68400000D03*
X138800000Y-68400000D03*
%TD*%
D11*
%TO.C,Q1*%
X129100000Y-83550000D03*
X129100000Y-85450000D03*
X126900000Y-84500000D03*
%TD*%
D12*
%TO.C,C2*%
X113950000Y-61000000D03*
X112050000Y-61000000D03*
%TD*%
D13*
%TO.C,D3*%
X129050000Y-87500000D03*
X126950000Y-87500000D03*
%TD*%
D12*
%TO.C,C6*%
X112950000Y-81500000D03*
X111050000Y-81500000D03*
%TD*%
D14*
%TO.C,C7*%
X124500000Y-71600000D03*
X124500000Y-73500000D03*
%TD*%
D12*
%TO.C,C8*%
X135450000Y-85500000D03*
X133550000Y-85500000D03*
%TD*%
D15*
%TO.C,R10*%
X135000000Y-54087500D03*
X135000000Y-55912500D03*
%TD*%
D12*
%TO.C,C17*%
X120500000Y-61000000D03*
X118600000Y-61000000D03*
%TD*%
D15*
%TO.C,R12*%
X133000000Y-54087500D03*
X133000000Y-55912500D03*
%TD*%
D12*
%TO.C,C11*%
X113950000Y-63000000D03*
X112050000Y-63000000D03*
%TD*%
D16*
%TO.C,R2*%
X123087500Y-63000000D03*
X124912500Y-63000000D03*
%TD*%
D17*
%TO.C,R9*%
X131000000Y-55912500D03*
X131000000Y-54087500D03*
%TD*%
D12*
%TO.C,C16*%
X120500000Y-59000000D03*
X118600000Y-59000000D03*
%TD*%
D18*
%TO.C,C10*%
X131000000Y-49900000D03*
X131000000Y-48000000D03*
%TD*%
D14*
%TO.C,C19*%
X131500000Y-73550000D03*
X131500000Y-75450000D03*
%TD*%
D19*
%TO.C,U6*%
X134900000Y-74612500D03*
X134100000Y-74612500D03*
D20*
X133850000Y-73725000D03*
X134500000Y-73725000D03*
X135150000Y-73725000D03*
X135150000Y-75500000D03*
X134500000Y-75500000D03*
X133850000Y-75500000D03*
%TD*%
D12*
%TO.C,C4*%
X112950000Y-77500000D03*
X111050000Y-77500000D03*
%TD*%
D15*
%TO.C,R1*%
X137500000Y-73587500D03*
X137500000Y-75412500D03*
%TD*%
D21*
%TO.C,Q2*%
X136950000Y-80000000D03*
D22*
X136862500Y-81500000D03*
D21*
X136950000Y-83000000D03*
%TD*%
D18*
%TO.C,C9*%
X129000000Y-49950000D03*
X129000000Y-48050000D03*
%TD*%
D17*
%TO.C,R5*%
X133000000Y-49912500D03*
X133000000Y-48087500D03*
%TD*%
%TO.C,R4*%
X135000000Y-49912500D03*
X135000000Y-48087500D03*
%TD*%
%TO.C,R13*%
X137000000Y-55912500D03*
X137000000Y-54087500D03*
%TD*%
D12*
%TO.C,C18*%
X135450000Y-77500000D03*
X133550000Y-77500000D03*
%TD*%
D23*
%TO.C,FB4*%
X124500000Y-67937500D03*
X124500000Y-70062500D03*
%TD*%
D24*
%TO.C,R14*%
X135412500Y-87500000D03*
X133587500Y-87500000D03*
%TD*%
%TO.C,R16*%
X112912500Y-79500000D03*
X111087500Y-79500000D03*
%TD*%
D14*
%TO.C,C12*%
X126500000Y-71550000D03*
X126500000Y-73450000D03*
%TD*%
D25*
%TO.C,C1*%
X127050000Y-79500000D03*
X128950000Y-79500000D03*
%TD*%
D16*
%TO.C,R7*%
X127087500Y-81500000D03*
X128912500Y-81500000D03*
%TD*%
D25*
%TO.C,C13*%
X123050000Y-59000000D03*
X124950000Y-59000000D03*
%TD*%
D16*
%TO.C,R20*%
X128587500Y-62000000D03*
X130412500Y-62000000D03*
%TD*%
D26*
%TO.C,FB1*%
X128500000Y-73562500D03*
X128500000Y-71437500D03*
%TD*%
D12*
%TO.C,C14*%
X120500000Y-63000000D03*
X118600000Y-63000000D03*
%TD*%
D17*
%TO.C,R3*%
X137000000Y-49912500D03*
X137000000Y-48087500D03*
%TD*%
D16*
%TO.C,R15*%
X128587500Y-64000000D03*
X130412500Y-64000000D03*
%TD*%
D18*
%TO.C,C15*%
X126500000Y-69900000D03*
X126500000Y-68000000D03*
%TD*%
D16*
%TO.C,R8*%
X123087500Y-61000000D03*
X124912500Y-61000000D03*
%TD*%
M02*
