%TF.GenerationSoftware,KiCad,Pcbnew,7.0.2*%
%TF.CreationDate,2023-11-20T18:08:22-06:00*%
%TF.ProjectId,BPS-PeripheralSOM,4250532d-5065-4726-9970-686572616c53,rev?*%
%TF.SameCoordinates,Original*%
%TF.FileFunction,Soldermask,Bot*%
%TF.FilePolarity,Negative*%
%FSLAX46Y46*%
G04 Gerber Fmt 4.6, Leading zero omitted, Abs format (unit mm)*
G04 Created by KiCad (PCBNEW 7.0.2) date 2023-11-20 18:08:22*
%MOMM*%
%LPD*%
G01*
G04 APERTURE LIST*
G04 Aperture macros list*
%AMRoundRect*
0 Rectangle with rounded corners*
0 $1 Rounding radius*
0 $2 $3 $4 $5 $6 $7 $8 $9 X,Y pos of 4 corners*
0 Add a 4 corners polygon primitive as box body*
4,1,4,$2,$3,$4,$5,$6,$7,$8,$9,$2,$3,0*
0 Add four circle primitives for the rounded corners*
1,1,$1+$1,$2,$3*
1,1,$1+$1,$4,$5*
1,1,$1+$1,$6,$7*
1,1,$1+$1,$8,$9*
0 Add four rect primitives between the rounded corners*
20,1,$1+$1,$2,$3,$4,$5,0*
20,1,$1+$1,$4,$5,$6,$7,0*
20,1,$1+$1,$6,$7,$8,$9,0*
20,1,$1+$1,$8,$9,$2,$3,0*%
%AMRotRect*
0 Rectangle, with rotation*
0 The origin of the aperture is its center*
0 $1 length*
0 $2 width*
0 $3 Rotation angle, in degrees counterclockwise*
0 Add horizontal line*
21,1,$1,$2,0,0,$3*%
%AMFreePoly0*
4,1,9,3.862500,-0.866500,0.737500,-0.866500,0.737500,-0.450000,-0.737500,-0.450000,-0.737500,0.450000,0.737500,0.450000,0.737500,0.866500,3.862500,0.866500,3.862500,-0.866500,3.862500,-0.866500,$1*%
G04 Aperture macros list end*
%ADD10RotRect,1.700000X1.700000X315.000000*%
%ADD11RotRect,1.700000X1.700000X45.000000*%
%ADD12R,1.700000X1.700000*%
%ADD13O,1.700000X1.700000*%
%ADD14C,1.270000*%
%ADD15C,1.700000*%
%ADD16C,3.000000*%
%ADD17O,1.200000X1.900000*%
%ADD18C,1.450000*%
%ADD19C,0.850000*%
%ADD20R,1.500000X0.550000*%
%ADD21R,1.400000X1.000000*%
%ADD22RoundRect,0.250000X0.250000X0.475000X-0.250000X0.475000X-0.250000X-0.475000X0.250000X-0.475000X0*%
%ADD23RoundRect,0.112500X0.187500X0.112500X-0.187500X0.112500X-0.187500X-0.112500X0.187500X-0.112500X0*%
%ADD24RoundRect,0.250000X-0.475000X0.250000X-0.475000X-0.250000X0.475000X-0.250000X0.475000X0.250000X0*%
%ADD25RoundRect,0.250000X-0.450000X0.262500X-0.450000X-0.262500X0.450000X-0.262500X0.450000X0.262500X0*%
%ADD26RoundRect,0.250000X-0.262500X-0.450000X0.262500X-0.450000X0.262500X0.450000X-0.262500X0.450000X0*%
%ADD27RoundRect,0.250000X0.450000X-0.262500X0.450000X0.262500X-0.450000X0.262500X-0.450000X-0.262500X0*%
%ADD28RoundRect,0.250000X0.475000X-0.250000X0.475000X0.250000X-0.475000X0.250000X-0.475000X-0.250000X0*%
%ADD29RoundRect,0.093750X-0.106250X0.093750X-0.106250X-0.093750X0.106250X-0.093750X0.106250X0.093750X0*%
%ADD30R,1.600000X1.000000*%
%ADD31R,1.300000X0.900000*%
%ADD32FreePoly0,180.000000*%
%ADD33RoundRect,0.218750X-0.381250X0.218750X-0.381250X-0.218750X0.381250X-0.218750X0.381250X0.218750X0*%
%ADD34RoundRect,0.250000X0.262500X0.450000X-0.262500X0.450000X-0.262500X-0.450000X0.262500X-0.450000X0*%
%ADD35RoundRect,0.250000X-0.250000X-0.475000X0.250000X-0.475000X0.250000X0.475000X-0.250000X0.475000X0*%
%ADD36RoundRect,0.218750X0.381250X-0.218750X0.381250X0.218750X-0.381250X0.218750X-0.381250X-0.218750X0*%
G04 APERTURE END LIST*
D10*
%TO.C,TP1*%
X105500000Y-43000000D03*
%TD*%
D11*
%TO.C,TP4*%
X103000000Y-84500000D03*
%TD*%
D12*
%TO.C,J1*%
X118200000Y-50000000D03*
D13*
X120740000Y-50000000D03*
X123280000Y-50000000D03*
X125820000Y-50000000D03*
%TD*%
D14*
%TO.C,J4*%
X101540000Y-81500000D03*
X101540000Y-66500000D03*
D15*
X103500000Y-78500000D03*
X103500000Y-75500000D03*
X103500000Y-72500000D03*
X103500000Y-69500000D03*
%TD*%
D10*
%TO.C,TP6*%
X103000000Y-45500000D03*
%TD*%
D12*
%TO.C,JP2*%
X111460000Y-87000000D03*
D13*
X114000000Y-87000000D03*
%TD*%
D16*
%TO.C,MH1*%
X120000000Y-86000000D03*
%TD*%
D17*
%TO.C,J3*%
X136500000Y-41500000D03*
D18*
X135500000Y-44200000D03*
X130500000Y-44200000D03*
D17*
X129500000Y-41500000D03*
%TD*%
D14*
%TO.C,J2*%
X101540000Y-63500000D03*
X101540000Y-48500000D03*
D15*
X103500000Y-60500000D03*
X103500000Y-57500000D03*
X103500000Y-54500000D03*
X103500000Y-51500000D03*
%TD*%
D16*
%TO.C,MH2*%
X120000000Y-44000000D03*
%TD*%
D11*
%TO.C,TP3*%
X105500000Y-87000000D03*
%TD*%
D19*
%TO.C,J6*%
X138200000Y-69300000D03*
X138200000Y-60300000D03*
D20*
X135000000Y-61200000D03*
X138800000Y-61200000D03*
X135000000Y-62000000D03*
X138800000Y-62000000D03*
X135000000Y-62800000D03*
X138800000Y-62800000D03*
X135000000Y-63600000D03*
X138800000Y-63600000D03*
X135000000Y-64400000D03*
X138800000Y-64400000D03*
X135000000Y-65200000D03*
X138800000Y-65200000D03*
X135000000Y-66000000D03*
X138800000Y-66000000D03*
X135000000Y-66800000D03*
X138800000Y-66800000D03*
X135000000Y-67600000D03*
X138800000Y-67600000D03*
X135000000Y-68400000D03*
X138800000Y-68400000D03*
%TD*%
D21*
%TO.C,Q1*%
X129100000Y-83550000D03*
X129100000Y-85450000D03*
X126900000Y-84500000D03*
%TD*%
D22*
%TO.C,C2*%
X113950000Y-61000000D03*
X112050000Y-61000000D03*
%TD*%
D23*
%TO.C,D3*%
X129050000Y-87500000D03*
X126950000Y-87500000D03*
%TD*%
D22*
%TO.C,C6*%
X112950000Y-81500000D03*
X111050000Y-81500000D03*
%TD*%
D24*
%TO.C,C7*%
X124500000Y-71600000D03*
X124500000Y-73500000D03*
%TD*%
D22*
%TO.C,C8*%
X135450000Y-85500000D03*
X133550000Y-85500000D03*
%TD*%
D25*
%TO.C,R10*%
X135000000Y-54087500D03*
X135000000Y-55912500D03*
%TD*%
D22*
%TO.C,C17*%
X120500000Y-61000000D03*
X118600000Y-61000000D03*
%TD*%
D25*
%TO.C,R12*%
X133000000Y-54087500D03*
X133000000Y-55912500D03*
%TD*%
D22*
%TO.C,C11*%
X113950000Y-63000000D03*
X112050000Y-63000000D03*
%TD*%
D26*
%TO.C,R2*%
X123087500Y-63000000D03*
X124912500Y-63000000D03*
%TD*%
D27*
%TO.C,R9*%
X131000000Y-55912500D03*
X131000000Y-54087500D03*
%TD*%
D22*
%TO.C,C16*%
X120500000Y-59000000D03*
X118600000Y-59000000D03*
%TD*%
D28*
%TO.C,C10*%
X131000000Y-49900000D03*
X131000000Y-48000000D03*
%TD*%
D24*
%TO.C,C19*%
X131500000Y-73550000D03*
X131500000Y-75450000D03*
%TD*%
D29*
%TO.C,U6*%
X133850000Y-73725000D03*
X134500000Y-73725000D03*
X135150000Y-73725000D03*
X135150000Y-75500000D03*
X134500000Y-75500000D03*
X133850000Y-75500000D03*
D30*
X134500000Y-74612500D03*
%TD*%
D22*
%TO.C,C4*%
X112950000Y-77500000D03*
X111050000Y-77500000D03*
%TD*%
D25*
%TO.C,R1*%
X137500000Y-73587500D03*
X137500000Y-75412500D03*
%TD*%
D31*
%TO.C,Q2*%
X136950000Y-80000000D03*
D32*
X136862500Y-81500000D03*
D31*
X136950000Y-83000000D03*
%TD*%
D28*
%TO.C,C9*%
X129000000Y-49950000D03*
X129000000Y-48050000D03*
%TD*%
D27*
%TO.C,R5*%
X133000000Y-49912500D03*
X133000000Y-48087500D03*
%TD*%
%TO.C,R4*%
X135000000Y-49912500D03*
X135000000Y-48087500D03*
%TD*%
%TO.C,R13*%
X137000000Y-55912500D03*
X137000000Y-54087500D03*
%TD*%
D22*
%TO.C,C18*%
X135450000Y-77500000D03*
X133550000Y-77500000D03*
%TD*%
D33*
%TO.C,FB4*%
X124500000Y-67937500D03*
X124500000Y-70062500D03*
%TD*%
D34*
%TO.C,R14*%
X135412500Y-87500000D03*
X133587500Y-87500000D03*
%TD*%
%TO.C,R16*%
X112912500Y-79500000D03*
X111087500Y-79500000D03*
%TD*%
D24*
%TO.C,C12*%
X126500000Y-71550000D03*
X126500000Y-73450000D03*
%TD*%
D35*
%TO.C,C1*%
X127050000Y-79500000D03*
X128950000Y-79500000D03*
%TD*%
D26*
%TO.C,R7*%
X127087500Y-81500000D03*
X128912500Y-81500000D03*
%TD*%
D35*
%TO.C,C13*%
X123050000Y-59000000D03*
X124950000Y-59000000D03*
%TD*%
D26*
%TO.C,R20*%
X128587500Y-62000000D03*
X130412500Y-62000000D03*
%TD*%
D36*
%TO.C,FB1*%
X128500000Y-73562500D03*
X128500000Y-71437500D03*
%TD*%
D22*
%TO.C,C14*%
X120500000Y-63000000D03*
X118600000Y-63000000D03*
%TD*%
D27*
%TO.C,R3*%
X137000000Y-49912500D03*
X137000000Y-48087500D03*
%TD*%
D26*
%TO.C,R15*%
X128587500Y-64000000D03*
X130412500Y-64000000D03*
%TD*%
D28*
%TO.C,C15*%
X126500000Y-69900000D03*
X126500000Y-68000000D03*
%TD*%
D26*
%TO.C,R8*%
X123087500Y-61000000D03*
X124912500Y-61000000D03*
%TD*%
M02*
