%TF.GenerationSoftware,KiCad,Pcbnew,7.0.2*%
%TF.CreationDate,2023-09-23T15:20:02-05:00*%
%TF.ProjectId,BPS-PeripheralSOM,4250532d-5065-4726-9970-686572616c53,rev?*%
%TF.SameCoordinates,Original*%
%TF.FileFunction,Paste,Top*%
%TF.FilePolarity,Positive*%
%FSLAX46Y46*%
G04 Gerber Fmt 4.6, Leading zero omitted, Abs format (unit mm)*
G04 Created by KiCad (PCBNEW 7.0.2) date 2023-09-23 15:20:02*
%MOMM*%
%LPD*%
G01*
G04 APERTURE LIST*
G04 Aperture macros list*
%AMRoundRect*
0 Rectangle with rounded corners*
0 $1 Rounding radius*
0 $2 $3 $4 $5 $6 $7 $8 $9 X,Y pos of 4 corners*
0 Add a 4 corners polygon primitive as box body*
4,1,4,$2,$3,$4,$5,$6,$7,$8,$9,$2,$3,0*
0 Add four circle primitives for the rounded corners*
1,1,$1+$1,$2,$3*
1,1,$1+$1,$4,$5*
1,1,$1+$1,$6,$7*
1,1,$1+$1,$8,$9*
0 Add four rect primitives between the rounded corners*
20,1,$1+$1,$2,$3,$4,$5,0*
20,1,$1+$1,$4,$5,$6,$7,0*
20,1,$1+$1,$6,$7,$8,$9,0*
20,1,$1+$1,$8,$9,$2,$3,0*%
G04 Aperture macros list end*
%ADD10R,2.750000X1.000000*%
%ADD11RoundRect,0.250000X-0.475000X0.250000X-0.475000X-0.250000X0.475000X-0.250000X0.475000X0.250000X0*%
%ADD12R,0.650000X1.528000*%
%ADD13R,1.700000X2.400000*%
%ADD14RoundRect,0.243750X-0.243750X-0.456250X0.243750X-0.456250X0.243750X0.456250X-0.243750X0.456250X0*%
%ADD15RoundRect,0.075000X0.075000X-0.662500X0.075000X0.662500X-0.075000X0.662500X-0.075000X-0.662500X0*%
%ADD16RoundRect,0.075000X0.662500X-0.075000X0.662500X0.075000X-0.662500X0.075000X-0.662500X-0.075000X0*%
%ADD17R,0.600000X1.950000*%
%ADD18R,0.762000X1.117600*%
%ADD19RoundRect,0.250000X-0.250000X-0.475000X0.250000X-0.475000X0.250000X0.475000X-0.250000X0.475000X0*%
%ADD20R,0.400000X1.350000*%
%ADD21R,1.500000X1.900000*%
%ADD22R,0.558800X5.410200*%
%ADD23R,1.003300X0.558800*%
G04 APERTURE END LIST*
D10*
%TO.C,SW5*%
X137375000Y-80500000D03*
X131625000Y-80500000D03*
X137375000Y-76500000D03*
X131625000Y-76500000D03*
%TD*%
D11*
%TO.C,C22*%
X122500000Y-71950000D03*
X122500000Y-73850000D03*
%TD*%
D12*
%TO.C,IC1*%
X134190000Y-58422000D03*
X135460000Y-58422000D03*
X136730000Y-58422000D03*
X138000000Y-58422000D03*
X138000000Y-53000000D03*
X136730000Y-53000000D03*
X135460000Y-53000000D03*
X134190000Y-53000000D03*
%TD*%
D13*
%TO.C,Y1*%
X118650000Y-68900000D03*
X122350000Y-68900000D03*
%TD*%
D14*
%TO.C,D14*%
X110500000Y-58269450D03*
X112375000Y-58269450D03*
%TD*%
D15*
%TO.C,U1*%
X119000000Y-64825000D03*
X119500000Y-64825000D03*
X120000000Y-64825000D03*
X120500000Y-64825000D03*
X121000000Y-64825000D03*
X121500000Y-64825000D03*
X122000000Y-64825000D03*
X122500000Y-64825000D03*
X123000000Y-64825000D03*
X123500000Y-64825000D03*
X124000000Y-64825000D03*
X124500000Y-64825000D03*
D16*
X125912500Y-63412500D03*
X125912500Y-62912500D03*
X125912500Y-62412500D03*
X125912500Y-61912500D03*
X125912500Y-61412500D03*
X125912500Y-60912500D03*
X125912500Y-60412500D03*
X125912500Y-59912500D03*
X125912500Y-59412500D03*
X125912500Y-58912500D03*
X125912500Y-58412500D03*
X125912500Y-57912500D03*
D15*
X124500000Y-56500000D03*
X124000000Y-56500000D03*
X123500000Y-56500000D03*
X123000000Y-56500000D03*
X122500000Y-56500000D03*
X122000000Y-56500000D03*
X121500000Y-56500000D03*
X121000000Y-56500000D03*
X120500000Y-56500000D03*
X120000000Y-56500000D03*
X119500000Y-56500000D03*
X119000000Y-56500000D03*
D16*
X117587500Y-57912500D03*
X117587500Y-58412500D03*
X117587500Y-58912500D03*
X117587500Y-59412500D03*
X117587500Y-59912500D03*
X117587500Y-60412500D03*
X117587500Y-60912500D03*
X117587500Y-61412500D03*
X117587500Y-61912500D03*
X117587500Y-62412500D03*
X117587500Y-62912500D03*
X117587500Y-63412500D03*
%TD*%
D10*
%TO.C,SW1*%
X119125000Y-76500000D03*
X124875000Y-76500000D03*
X119125000Y-80500000D03*
X124875000Y-80500000D03*
%TD*%
D17*
%TO.C,U7*%
X103235000Y-50962500D03*
X104505000Y-50962500D03*
X105775000Y-50962500D03*
X107045000Y-50962500D03*
X108315000Y-50962500D03*
X109585000Y-50962500D03*
X110855000Y-50962500D03*
X112125000Y-50962500D03*
X113395000Y-50962500D03*
X114665000Y-50962500D03*
X114665000Y-41562500D03*
X113395000Y-41562500D03*
X112125000Y-41562500D03*
X110855000Y-41562500D03*
X109585000Y-41562500D03*
X108315000Y-41562500D03*
X107045000Y-41562500D03*
X105775000Y-41562500D03*
X104505000Y-41562500D03*
X103235000Y-41562500D03*
%TD*%
D18*
%TO.C,SW2*%
X132749998Y-73892300D03*
X134500000Y-70107700D03*
X136250002Y-73892300D03*
%TD*%
D19*
%TO.C,C3*%
X110450000Y-71600000D03*
X112350000Y-71600000D03*
%TD*%
D14*
%TO.C,D12*%
X110500000Y-63730550D03*
X112375000Y-63730550D03*
%TD*%
D11*
%TO.C,C21*%
X118500000Y-71950000D03*
X118500000Y-73850000D03*
%TD*%
D14*
%TO.C,D2*%
X110500000Y-66500000D03*
X112375000Y-66500000D03*
%TD*%
D20*
%TO.C,J3*%
X132300000Y-44962500D03*
X131650000Y-44962500D03*
X131000000Y-44962500D03*
X130350000Y-44962500D03*
X129700000Y-44962500D03*
D21*
X132000000Y-42262500D03*
X130000000Y-42262500D03*
%TD*%
D14*
%TO.C,D4*%
X110500000Y-55538900D03*
X112375000Y-55538900D03*
%TD*%
D22*
%TO.C,C1*%
X116000000Y-78500000D03*
X109751600Y-78500000D03*
%TD*%
D23*
%TO.C,CR2*%
X128400000Y-66049999D03*
X128400000Y-67000000D03*
X128400000Y-67950001D03*
X131105100Y-67950001D03*
X131105100Y-67000000D03*
X131105100Y-66049999D03*
%TD*%
%TO.C,CR1*%
X128400000Y-58049999D03*
X128400000Y-59000000D03*
X128400000Y-59950001D03*
X131105100Y-59950001D03*
X131105100Y-59000000D03*
X131105100Y-58049999D03*
%TD*%
D14*
%TO.C,D13*%
X110500000Y-61000000D03*
X112375000Y-61000000D03*
%TD*%
D19*
%TO.C,C2*%
X110500000Y-69100000D03*
X112400000Y-69100000D03*
%TD*%
M02*
