%TF.GenerationSoftware,KiCad,Pcbnew,7.0.2*%
%TF.CreationDate,2023-09-23T15:20:02-05:00*%
%TF.ProjectId,BPS-PeripheralSOM,4250532d-5065-4726-9970-686572616c53,rev?*%
%TF.SameCoordinates,Original*%
%TF.FileFunction,Copper,L2,Inr*%
%TF.FilePolarity,Positive*%
%FSLAX46Y46*%
G04 Gerber Fmt 4.6, Leading zero omitted, Abs format (unit mm)*
G04 Created by KiCad (PCBNEW 7.0.2) date 2023-09-23 15:20:02*
%MOMM*%
%LPD*%
G01*
G04 APERTURE LIST*
G04 Aperture macros list*
%AMRoundRect*
0 Rectangle with rounded corners*
0 $1 Rounding radius*
0 $2 $3 $4 $5 $6 $7 $8 $9 X,Y pos of 4 corners*
0 Add a 4 corners polygon primitive as box body*
4,1,4,$2,$3,$4,$5,$6,$7,$8,$9,$2,$3,0*
0 Add four circle primitives for the rounded corners*
1,1,$1+$1,$2,$3*
1,1,$1+$1,$4,$5*
1,1,$1+$1,$6,$7*
1,1,$1+$1,$8,$9*
0 Add four rect primitives between the rounded corners*
20,1,$1+$1,$2,$3,$4,$5,0*
20,1,$1+$1,$4,$5,$6,$7,0*
20,1,$1+$1,$6,$7,$8,$9,0*
20,1,$1+$1,$8,$9,$2,$3,0*%
G04 Aperture macros list end*
%TA.AperFunction,ComponentPad*%
%ADD10C,2.800000*%
%TD*%
%TA.AperFunction,ComponentPad*%
%ADD11R,1.700000X1.700000*%
%TD*%
%TA.AperFunction,ComponentPad*%
%ADD12O,1.700000X1.700000*%
%TD*%
%TA.AperFunction,ComponentPad*%
%ADD13RoundRect,0.250001X0.499999X-0.499999X0.499999X0.499999X-0.499999X0.499999X-0.499999X-0.499999X0*%
%TD*%
%TA.AperFunction,ComponentPad*%
%ADD14C,1.500000*%
%TD*%
%TA.AperFunction,ComponentPad*%
%ADD15O,1.000000X1.800000*%
%TD*%
%TA.AperFunction,ComponentPad*%
%ADD16O,1.200000X1.900000*%
%TD*%
%TA.AperFunction,ComponentPad*%
%ADD17C,1.450000*%
%TD*%
%TA.AperFunction,ViaPad*%
%ADD18C,0.800000*%
%TD*%
%TA.AperFunction,ViaPad*%
%ADD19C,0.500000*%
%TD*%
%TA.AperFunction,Conductor*%
%ADD20C,0.500000*%
%TD*%
%TA.AperFunction,Conductor*%
%ADD21C,0.250000*%
%TD*%
G04 APERTURE END LIST*
D10*
%TO.N,GNDPWR*%
%TO.C,TP4*%
X137000000Y-84500000D03*
%TD*%
D11*
%TO.N,+3.3V*%
%TO.C,J1*%
X118950000Y-53350000D03*
D12*
%TO.N,/SWCLK*%
X121490000Y-53350000D03*
%TO.N,/SWDIO*%
X124030000Y-53350000D03*
%TO.N,GND*%
X126570000Y-53350000D03*
%TD*%
D11*
%TO.N,/CAN_L*%
%TO.C,JP1*%
X121500000Y-49500000D03*
D12*
%TO.N,/CAN/TERM_H*%
X118960000Y-49500000D03*
%TD*%
D10*
%TO.N,GND*%
%TO.C,TP6*%
X130000000Y-84500000D03*
%TD*%
D13*
%TO.N,GNDPWR*%
%TO.C,J2*%
X103000000Y-62000000D03*
D14*
%TO.N,/CAN_L*%
X103000000Y-59000000D03*
%TO.N,GND1*%
X103000000Y-56000000D03*
%TO.N,/V_CAN_IN*%
X106000000Y-62000000D03*
%TO.N,/CAN_H*%
X106000000Y-59000000D03*
%TO.N,/5V_Ext*%
X106000000Y-56000000D03*
%TD*%
D15*
%TO.N,GNDPWR*%
%TO.C,U2*%
X105380000Y-88500000D03*
%TO.N,Net-(Q1-D)*%
X107920000Y-88500000D03*
%TO.N,GND*%
X110460000Y-88500000D03*
%TO.N,+5V*%
X113000000Y-88500000D03*
%TD*%
D16*
%TO.N,GND*%
%TO.C,J3*%
X134500000Y-42262500D03*
D17*
X133500000Y-44962500D03*
X128500000Y-44962500D03*
D16*
X127500000Y-42262500D03*
%TD*%
D10*
%TO.N,+5V*%
%TO.C,TP5*%
X126500000Y-87500000D03*
%TD*%
%TO.N,Net-(Q1-D)*%
%TO.C,TP3*%
X133500000Y-87500000D03*
%TD*%
D13*
%TO.N,GNDPWR*%
%TO.C,J5*%
X103000000Y-76000000D03*
D14*
%TO.N,/CAN_L*%
X103000000Y-73000000D03*
%TO.N,GND1*%
X103000000Y-70000000D03*
%TO.N,/V_CAN_IN*%
X106000000Y-76000000D03*
%TO.N,/CAN_H*%
X106000000Y-73000000D03*
%TO.N,/5V_Ext*%
X106000000Y-70000000D03*
%TD*%
D18*
%TO.N,+5V*%
X105775000Y-50962500D03*
D19*
X110000000Y-69200000D03*
X137200000Y-68050000D03*
%TO.N,GND*%
X129800000Y-67000000D03*
X135503987Y-65192160D03*
X114665000Y-50962500D03*
X134500000Y-80500000D03*
X135890000Y-51450000D03*
X124620326Y-62829674D03*
X131437500Y-48750000D03*
X119050000Y-63000000D03*
X136500000Y-74000000D03*
X137000000Y-78500000D03*
X112350000Y-72750000D03*
X128500000Y-59000000D03*
X119500000Y-78500000D03*
X138800000Y-62000000D03*
X118500000Y-73850000D03*
X119250000Y-57850500D03*
X121500000Y-80500000D03*
X102500000Y-50962500D03*
%TO.N,+3.3V*%
X118550000Y-55650000D03*
X110450000Y-71600000D03*
X120900000Y-63000000D03*
X133062035Y-47138988D03*
X138800000Y-61200000D03*
X116300000Y-68450000D03*
X137000000Y-64374500D03*
X131000000Y-55912500D03*
X136000000Y-48700000D03*
X116550500Y-63769712D03*
X123968518Y-69000000D03*
X120912500Y-59000000D03*
X107000000Y-49562500D03*
X116350000Y-73900000D03*
X116500000Y-71500000D03*
X127294543Y-57887678D03*
%TO.N,/NRST*%
X119500000Y-76600000D03*
%TO.N,GNDPWR*%
X109500000Y-82000000D03*
%TO.N,/PB4*%
X115543483Y-59981017D03*
%TO.N,/PB5*%
X116400500Y-60500000D03*
%TO.N,/SPI2_MOSI*%
X128400000Y-58049999D03*
%TO.N,/SPI2_NSS*%
X129131233Y-59818767D03*
%TO.N,/SPI2_SCK*%
X131105100Y-59950001D03*
%TO.N,/SPI2_MISO*%
X131100026Y-58079573D03*
%TO.N,/SPI1_SCK*%
X128400000Y-66049999D03*
%TO.N,/SPI1_NSS*%
X129954641Y-67945359D03*
%TO.N,/SPI1_MOSI*%
X131105100Y-67950001D03*
X130412500Y-62000000D03*
%TO.N,/SPI1_MISO*%
X132122872Y-66701627D03*
%TO.N,/5V_Ext*%
X104500000Y-81937500D03*
%TO.N,/PA1*%
X132000000Y-78325000D03*
%TO.N,Net-(D2-A)*%
X112200000Y-66386100D03*
%TO.N,/PB3*%
X115524500Y-59000000D03*
%TO.N,/SWCLK*%
X117587500Y-57300000D03*
%TO.N,/SWDIO*%
X120000000Y-57700000D03*
%TO.N,/I2C1_SCL*%
X119087500Y-59000000D03*
X137500000Y-66000000D03*
%TO.N,/I2C1_SDA*%
X136500000Y-67000000D03*
X119087500Y-61000000D03*
%TO.N,/I2C2_SCL*%
X138800000Y-63600000D03*
X127000000Y-59500000D03*
%TO.N,/CAN/RSlope*%
X113395000Y-41562500D03*
%TO.N,Net-(U1-PA5)*%
X128587500Y-64000000D03*
%TO.N,Net-(U1-PA7)*%
X128587500Y-62000000D03*
%TO.N,/USART1_TX*%
X128000000Y-50000000D03*
%TO.N,/USART1_RX*%
X127000000Y-50000000D03*
%TO.N,/SILENT*%
X110003246Y-52418246D03*
X113149431Y-52425500D03*
%TO.N,GNDA*%
X132000000Y-70425500D03*
X138429500Y-65200000D03*
X125500000Y-73400000D03*
%TO.N,VDDA*%
X126337500Y-70062500D03*
X138800000Y-64400000D03*
%TO.N,/PowerDist/5V_Ferrite*%
X104500000Y-84062500D03*
X106500000Y-82000000D03*
X111500000Y-84550000D03*
%TO.N,/V_CAN_IN*%
X108315000Y-41562500D03*
X107200000Y-45575000D03*
D18*
%TO.N,GND1*%
X110000000Y-45462500D03*
X114500000Y-45462500D03*
D19*
%TO.N,/CAN/V_ISO_Out*%
X104505000Y-41562500D03*
%TO.N,/CAN/GND_ISO_Out*%
X105746375Y-48538876D03*
D18*
X105200000Y-45462500D03*
D19*
%TO.N,/CAN_H*%
X112750000Y-47162500D03*
X109998882Y-46533203D03*
%TO.N,/CAN_L*%
X114650000Y-47162500D03*
%TO.N,/PA15*%
X116168500Y-58031500D03*
%TO.N,Net-(J3-VBUS)*%
X132300000Y-44677575D03*
%TO.N,Net-(J3-D-)*%
X127800000Y-47800000D03*
X131650000Y-45837500D03*
%TO.N,Net-(J3-D+)*%
X131000000Y-45252075D03*
%TO.N,Net-(D14-A)*%
X112200000Y-58386100D03*
%TO.N,Net-(D13-A)*%
X112200000Y-60986100D03*
%TO.N,Net-(D12-A)*%
X112200000Y-63786100D03*
%TO.N,Net-(C5-Pad1)*%
X132000000Y-76500000D03*
X137000000Y-76600000D03*
%TO.N,Net-(D4-A)*%
X112200000Y-55586100D03*
D18*
%TO.N,Net-(Q1-D)*%
X113500000Y-85500000D03*
D19*
%TO.N,/PA8*%
X122465423Y-57513610D03*
%TO.N,Net-(IC1-1GATE)*%
X133000000Y-55900000D03*
%TO.N,/I2C2_SDA*%
X127448848Y-58800497D03*
X138800000Y-62800000D03*
%TO.N,Net-(IC1-2DRAIN_1)*%
X137000000Y-54100000D03*
%TO.N,Net-(IC1-1DRAIN_1)*%
X135000000Y-54087500D03*
%TD*%
D20*
%TO.N,+3.3V*%
X118550000Y-55650000D02*
X118762750Y-55437250D01*
X118762750Y-55437250D02*
X118762750Y-53537250D01*
D21*
X118762750Y-53537250D02*
X118950000Y-53350000D01*
%TO.N,/SPI1_MOSI*%
X130412500Y-62000000D02*
X131105100Y-62692600D01*
X131105100Y-62692600D02*
X131105100Y-67950001D01*
%TO.N,GNDA*%
X132000000Y-70425500D02*
X135937472Y-70425500D01*
X135937472Y-70425500D02*
X138429500Y-67933472D01*
X138429500Y-67933472D02*
X138429500Y-65200000D01*
%TO.N,VDDA*%
X127275500Y-71000500D02*
X137724500Y-71000500D01*
X139004500Y-64604500D02*
X138800000Y-64400000D01*
X137724500Y-71000500D02*
X139004500Y-69720500D01*
X126337500Y-70062500D02*
X127275500Y-71000500D01*
X139004500Y-69720500D02*
X139004500Y-64604500D01*
D20*
%TO.N,/V_CAN_IN*%
X108500000Y-59500000D02*
X108500000Y-46875000D01*
X106000000Y-62000000D02*
X108500000Y-59500000D01*
X108500000Y-46875000D02*
X107200000Y-45575000D01*
%TD*%
%TA.AperFunction,Conductor*%
%TO.N,/5V_Ext*%
G36*
X106934484Y-52019685D02*
G01*
X106960386Y-52049577D01*
X106980770Y-52023374D01*
X107046675Y-52000173D01*
X107053230Y-52000000D01*
X107625500Y-52000000D01*
X107692539Y-52019685D01*
X107738294Y-52072489D01*
X107749500Y-52124000D01*
X107749500Y-52449654D01*
X107729815Y-52516693D01*
X107677011Y-52562448D01*
X107607853Y-52572392D01*
X107544297Y-52543367D01*
X107526037Y-52523702D01*
X107492538Y-52478705D01*
X107357429Y-52365334D01*
X107199807Y-52286174D01*
X107024633Y-52244657D01*
X106963940Y-52210043D01*
X106961276Y-52204943D01*
X106961158Y-52205203D01*
X106902380Y-52242977D01*
X106881842Y-52247161D01*
X106844286Y-52251551D01*
X106764813Y-52260840D01*
X106599074Y-52321164D01*
X106451715Y-52418084D01*
X106330676Y-52546377D01*
X106242491Y-52699120D01*
X106191905Y-52868092D01*
X106181648Y-53044168D01*
X106197120Y-53131909D01*
X106212277Y-53217866D01*
X106248084Y-53300876D01*
X106282136Y-53379818D01*
X106387461Y-53521294D01*
X106522570Y-53634665D01*
X106522571Y-53634665D01*
X106522573Y-53634667D01*
X106680189Y-53713824D01*
X106680190Y-53713824D01*
X106680192Y-53713825D01*
X106851810Y-53754500D01*
X106851812Y-53754500D01*
X106980342Y-53754500D01*
X106983941Y-53754500D01*
X107115184Y-53739160D01*
X107280924Y-53678836D01*
X107428285Y-53581915D01*
X107527826Y-53476408D01*
X107535306Y-53468480D01*
X107595629Y-53433226D01*
X107665436Y-53436181D01*
X107722564Y-53476408D01*
X107748874Y-53541135D01*
X107749500Y-53553574D01*
X107749499Y-59137769D01*
X107729814Y-59204808D01*
X107713180Y-59225450D01*
X107386117Y-59552514D01*
X107324794Y-59585999D01*
X107255103Y-59581015D01*
X107199169Y-59539144D01*
X107174752Y-59473679D01*
X107178661Y-59432739D01*
X107179573Y-59429332D01*
X107179575Y-59429330D01*
X107236207Y-59217977D01*
X107255277Y-59000000D01*
X107236207Y-58782023D01*
X107179575Y-58570670D01*
X107087102Y-58372362D01*
X106961598Y-58193123D01*
X106806877Y-58038402D01*
X106627639Y-57912898D01*
X106536205Y-57870261D01*
X106429331Y-57820425D01*
X106217974Y-57763792D01*
X106000000Y-57744722D01*
X105782025Y-57763792D01*
X105570668Y-57820425D01*
X105372361Y-57912898D01*
X105193122Y-58038402D01*
X105038402Y-58193122D01*
X104912898Y-58372361D01*
X104820425Y-58570668D01*
X104763792Y-58782025D01*
X104744722Y-59000000D01*
X104763792Y-59217974D01*
X104820425Y-59429331D01*
X104841105Y-59473679D01*
X104912898Y-59627639D01*
X105038402Y-59806877D01*
X105193123Y-59961598D01*
X105372361Y-60087102D01*
X105570670Y-60179575D01*
X105782023Y-60236207D01*
X106000000Y-60255277D01*
X106217977Y-60236207D01*
X106429330Y-60179575D01*
X106429334Y-60179573D01*
X106432738Y-60178661D01*
X106502588Y-60180324D01*
X106560450Y-60219486D01*
X106587955Y-60283714D01*
X106576369Y-60352617D01*
X106552513Y-60386117D01*
X106219195Y-60719435D01*
X106157872Y-60752920D01*
X106120708Y-60755282D01*
X106000000Y-60744722D01*
X105782025Y-60763792D01*
X105570668Y-60820425D01*
X105372361Y-60912898D01*
X105193122Y-61038402D01*
X105038402Y-61193122D01*
X104912898Y-61372361D01*
X104820425Y-61570668D01*
X104763792Y-61782025D01*
X104744722Y-62000000D01*
X104763792Y-62217974D01*
X104763793Y-62217977D01*
X104820425Y-62429330D01*
X104912898Y-62627639D01*
X105038402Y-62806877D01*
X105193123Y-62961598D01*
X105372361Y-63087102D01*
X105570670Y-63179575D01*
X105782023Y-63236207D01*
X106000000Y-63255277D01*
X106217977Y-63236207D01*
X106429330Y-63179575D01*
X106627639Y-63087102D01*
X106806877Y-62961598D01*
X106961598Y-62806877D01*
X107087102Y-62627639D01*
X107179575Y-62429330D01*
X107236207Y-62217977D01*
X107255277Y-62000000D01*
X107244716Y-61879290D01*
X107258482Y-61810792D01*
X107280560Y-61780806D01*
X108788319Y-60273048D01*
X108849642Y-60239563D01*
X108919334Y-60244547D01*
X108975267Y-60286419D01*
X108999684Y-60351883D01*
X109000000Y-60360729D01*
X109000000Y-80894370D01*
X108980315Y-80961409D01*
X108927511Y-81007164D01*
X108858353Y-81017108D01*
X108852115Y-81016048D01*
X108849181Y-81015472D01*
X108847496Y-81014977D01*
X108847492Y-81014976D01*
X108844369Y-81014527D01*
X108844359Y-81014525D01*
X108705076Y-80994500D01*
X106074000Y-80994500D01*
X106070706Y-80994854D01*
X106070690Y-80994855D01*
X105969854Y-81005697D01*
X105969851Y-81005697D01*
X105966544Y-81006053D01*
X105963309Y-81006756D01*
X105963295Y-81006759D01*
X105918277Y-81016553D01*
X105918272Y-81016554D01*
X105915033Y-81017259D01*
X105911893Y-81018303D01*
X105911875Y-81018309D01*
X105812496Y-81051385D01*
X105691458Y-81129173D01*
X105638652Y-81174931D01*
X105544432Y-81283664D01*
X105484662Y-81414539D01*
X105465474Y-81479886D01*
X105464977Y-81481580D01*
X105464976Y-81481584D01*
X105464527Y-81484706D01*
X105464524Y-81484722D01*
X105444500Y-81624000D01*
X105444500Y-82270500D01*
X105424815Y-82337539D01*
X105372011Y-82383294D01*
X105320500Y-82394500D01*
X103672016Y-82394500D01*
X103668862Y-82394826D01*
X103668847Y-82394827D01*
X103571719Y-82404874D01*
X103571702Y-82404876D01*
X103568547Y-82405203D01*
X103565438Y-82405853D01*
X103565426Y-82405855D01*
X103521983Y-82414939D01*
X103521961Y-82414944D01*
X103518861Y-82415593D01*
X103515827Y-82416561D01*
X103515820Y-82416564D01*
X103419782Y-82447242D01*
X103364727Y-82481383D01*
X103299378Y-82500000D01*
X101124000Y-82500000D01*
X101056961Y-82480315D01*
X101011206Y-82427511D01*
X101000000Y-82376000D01*
X101000000Y-79044168D01*
X106181648Y-79044168D01*
X106197120Y-79131907D01*
X106212277Y-79217866D01*
X106282135Y-79379818D01*
X106282136Y-79379818D01*
X106387461Y-79521294D01*
X106522570Y-79634665D01*
X106522571Y-79634665D01*
X106522573Y-79634667D01*
X106680189Y-79713824D01*
X106680190Y-79713824D01*
X106680192Y-79713825D01*
X106851810Y-79754500D01*
X106851812Y-79754500D01*
X106980342Y-79754500D01*
X106983941Y-79754500D01*
X107115184Y-79739160D01*
X107280924Y-79678836D01*
X107428285Y-79581915D01*
X107549322Y-79453623D01*
X107637510Y-79300876D01*
X107688095Y-79131909D01*
X107698351Y-78955831D01*
X107667723Y-78782134D01*
X107597864Y-78620182D01*
X107492539Y-78478706D01*
X107492538Y-78478705D01*
X107357429Y-78365334D01*
X107199807Y-78286174D01*
X107028190Y-78245500D01*
X107028188Y-78245500D01*
X106896059Y-78245500D01*
X106892492Y-78245916D01*
X106892490Y-78245917D01*
X106764813Y-78260840D01*
X106599074Y-78321164D01*
X106451715Y-78418084D01*
X106330676Y-78546377D01*
X106242491Y-78699120D01*
X106191905Y-78868092D01*
X106181648Y-79044168D01*
X101000000Y-79044168D01*
X101000000Y-76550008D01*
X101749500Y-76550008D01*
X101749818Y-76553121D01*
X101749819Y-76553140D01*
X101760000Y-76652797D01*
X101815186Y-76819336D01*
X101907288Y-76968655D01*
X102031344Y-77092711D01*
X102180663Y-77184813D01*
X102347202Y-77239999D01*
X102446859Y-77250180D01*
X102446860Y-77250180D01*
X102449992Y-77250500D01*
X102453141Y-77250500D01*
X103546859Y-77250500D01*
X103550008Y-77250500D01*
X103652797Y-77239999D01*
X103819334Y-77184814D01*
X103827830Y-77179574D01*
X103968655Y-77092711D01*
X104092711Y-76968655D01*
X104184813Y-76819336D01*
X104239999Y-76652797D01*
X104250180Y-76553140D01*
X104250179Y-76553140D01*
X104250500Y-76550008D01*
X104250500Y-76000000D01*
X104744722Y-76000000D01*
X104763792Y-76217974D01*
X104763793Y-76217977D01*
X104820425Y-76429330D01*
X104912898Y-76627639D01*
X105038402Y-76806877D01*
X105193123Y-76961598D01*
X105372361Y-77087102D01*
X105570670Y-77179575D01*
X105782023Y-77236207D01*
X105927341Y-77248920D01*
X105999999Y-77255277D01*
X105999999Y-77255276D01*
X106000000Y-77255277D01*
X106217977Y-77236207D01*
X106429330Y-77179575D01*
X106627639Y-77087102D01*
X106806877Y-76961598D01*
X106961598Y-76806877D01*
X107087102Y-76627639D01*
X107179575Y-76429330D01*
X107236207Y-76217977D01*
X107255277Y-76000000D01*
X107236207Y-75782023D01*
X107179575Y-75570670D01*
X107087102Y-75372362D01*
X106961598Y-75193123D01*
X106806877Y-75038402D01*
X106627639Y-74912898D01*
X106536205Y-74870261D01*
X106429331Y-74820425D01*
X106217974Y-74763792D01*
X106000000Y-74744722D01*
X105782025Y-74763792D01*
X105570668Y-74820425D01*
X105372361Y-74912898D01*
X105193122Y-75038402D01*
X105038402Y-75193122D01*
X104912898Y-75372361D01*
X104820425Y-75570668D01*
X104763792Y-75782025D01*
X104744722Y-76000000D01*
X104250500Y-76000000D01*
X104250500Y-75449992D01*
X104239999Y-75347203D01*
X104184814Y-75180666D01*
X104184813Y-75180665D01*
X104184813Y-75180663D01*
X104092711Y-75031344D01*
X103968655Y-74907288D01*
X103819336Y-74815186D01*
X103652797Y-74760000D01*
X103553140Y-74749819D01*
X103553121Y-74749818D01*
X103550008Y-74749500D01*
X102449992Y-74749500D01*
X102446879Y-74749817D01*
X102446859Y-74749819D01*
X102347202Y-74760000D01*
X102180663Y-74815186D01*
X102031344Y-74907288D01*
X101907288Y-75031344D01*
X101815186Y-75180663D01*
X101760000Y-75347202D01*
X101749819Y-75446859D01*
X101749817Y-75446879D01*
X101749500Y-75449992D01*
X101749500Y-76550008D01*
X101000000Y-76550008D01*
X101000000Y-73000000D01*
X101744722Y-73000000D01*
X101763792Y-73217974D01*
X101763793Y-73217977D01*
X101820425Y-73429330D01*
X101912898Y-73627639D01*
X102038402Y-73806877D01*
X102193123Y-73961598D01*
X102372361Y-74087102D01*
X102570670Y-74179575D01*
X102782023Y-74236207D01*
X103000000Y-74255277D01*
X103217977Y-74236207D01*
X103429330Y-74179575D01*
X103627639Y-74087102D01*
X103806877Y-73961598D01*
X103961598Y-73806877D01*
X104087102Y-73627639D01*
X104179575Y-73429330D01*
X104236207Y-73217977D01*
X104255277Y-73000000D01*
X104744722Y-73000000D01*
X104763792Y-73217974D01*
X104763793Y-73217977D01*
X104820425Y-73429330D01*
X104912898Y-73627639D01*
X105038402Y-73806877D01*
X105193123Y-73961598D01*
X105372361Y-74087102D01*
X105570670Y-74179575D01*
X105782023Y-74236207D01*
X105927341Y-74248920D01*
X105999999Y-74255277D01*
X105999999Y-74255276D01*
X106000000Y-74255277D01*
X106217977Y-74236207D01*
X106429330Y-74179575D01*
X106627639Y-74087102D01*
X106806877Y-73961598D01*
X106961598Y-73806877D01*
X107087102Y-73627639D01*
X107179575Y-73429330D01*
X107236207Y-73217977D01*
X107255277Y-73000000D01*
X107236207Y-72782023D01*
X107179575Y-72570670D01*
X107087102Y-72372362D01*
X106961598Y-72193123D01*
X106806877Y-72038402D01*
X106627639Y-71912898D01*
X106536205Y-71870261D01*
X106429331Y-71820425D01*
X106217974Y-71763792D01*
X106000000Y-71744722D01*
X105782025Y-71763792D01*
X105570668Y-71820425D01*
X105372361Y-71912898D01*
X105193122Y-72038402D01*
X105038402Y-72193122D01*
X104912898Y-72372361D01*
X104820425Y-72570668D01*
X104763792Y-72782025D01*
X104744722Y-73000000D01*
X104255277Y-73000000D01*
X104236207Y-72782023D01*
X104179575Y-72570670D01*
X104087102Y-72372362D01*
X103961598Y-72193123D01*
X103806877Y-72038402D01*
X103627639Y-71912898D01*
X103536205Y-71870261D01*
X103429331Y-71820425D01*
X103217974Y-71763792D01*
X103000000Y-71744722D01*
X102782025Y-71763792D01*
X102570668Y-71820425D01*
X102372361Y-71912898D01*
X102193122Y-72038402D01*
X102038402Y-72193122D01*
X101912898Y-72372361D01*
X101820425Y-72570668D01*
X101763792Y-72782025D01*
X101744722Y-73000000D01*
X101000000Y-73000000D01*
X101000000Y-70000000D01*
X101744722Y-70000000D01*
X101763792Y-70217974D01*
X101820379Y-70429161D01*
X101820425Y-70429330D01*
X101912898Y-70627639D01*
X102038402Y-70806877D01*
X102193123Y-70961598D01*
X102372361Y-71087102D01*
X102570670Y-71179575D01*
X102782023Y-71236207D01*
X103000000Y-71255277D01*
X103217977Y-71236207D01*
X103429330Y-71179575D01*
X103627639Y-71087102D01*
X103806877Y-70961598D01*
X103961598Y-70806877D01*
X104087102Y-70627639D01*
X104179575Y-70429330D01*
X104236207Y-70217977D01*
X104255277Y-70000000D01*
X104745224Y-70000000D01*
X104764287Y-70217886D01*
X104820898Y-70429161D01*
X104913331Y-70627386D01*
X104956873Y-70689571D01*
X104956875Y-70689572D01*
X105516923Y-70129523D01*
X105540507Y-70209844D01*
X105618239Y-70330798D01*
X105726900Y-70424952D01*
X105857685Y-70484680D01*
X105867466Y-70486086D01*
X105310426Y-71043124D01*
X105310427Y-71043125D01*
X105372610Y-71086666D01*
X105570840Y-71179102D01*
X105782113Y-71235712D01*
X106000000Y-71254775D01*
X106217886Y-71235712D01*
X106429159Y-71179102D01*
X106627385Y-71086667D01*
X106689572Y-71043124D01*
X106132534Y-70486086D01*
X106142315Y-70484680D01*
X106273100Y-70424952D01*
X106381761Y-70330798D01*
X106459493Y-70209844D01*
X106483076Y-70129524D01*
X107043124Y-70689572D01*
X107086667Y-70627385D01*
X107179102Y-70429159D01*
X107235712Y-70217886D01*
X107254775Y-70000000D01*
X107235712Y-69782113D01*
X107179102Y-69570840D01*
X107086667Y-69372615D01*
X107043123Y-69310428D01*
X106483076Y-69870475D01*
X106459493Y-69790156D01*
X106381761Y-69669202D01*
X106273100Y-69575048D01*
X106142315Y-69515320D01*
X106132534Y-69513913D01*
X106689572Y-68956875D01*
X106689571Y-68956873D01*
X106627386Y-68913331D01*
X106429161Y-68820898D01*
X106217886Y-68764287D01*
X106000000Y-68745224D01*
X105782113Y-68764287D01*
X105570840Y-68820897D01*
X105372611Y-68913333D01*
X105310428Y-68956874D01*
X105310427Y-68956875D01*
X105867466Y-69513913D01*
X105857685Y-69515320D01*
X105726900Y-69575048D01*
X105618239Y-69669202D01*
X105540507Y-69790156D01*
X105516923Y-69870475D01*
X104956875Y-69310427D01*
X104956874Y-69310428D01*
X104913333Y-69372611D01*
X104820897Y-69570840D01*
X104764287Y-69782113D01*
X104745224Y-70000000D01*
X104255277Y-70000000D01*
X104236207Y-69782023D01*
X104179575Y-69570670D01*
X104087102Y-69372362D01*
X103961598Y-69193123D01*
X103806877Y-69038402D01*
X103627639Y-68912898D01*
X103536205Y-68870261D01*
X103429331Y-68820425D01*
X103217974Y-68763792D01*
X103000000Y-68744722D01*
X102782025Y-68763792D01*
X102570668Y-68820425D01*
X102372361Y-68912898D01*
X102193122Y-69038402D01*
X102038402Y-69193122D01*
X101912898Y-69372361D01*
X101820425Y-69570668D01*
X101763792Y-69782025D01*
X101744722Y-70000000D01*
X101000000Y-70000000D01*
X101000000Y-67044168D01*
X106181648Y-67044168D01*
X106197120Y-67131907D01*
X106212277Y-67217866D01*
X106282135Y-67379818D01*
X106282136Y-67379818D01*
X106387461Y-67521294D01*
X106522570Y-67634665D01*
X106522571Y-67634665D01*
X106522573Y-67634667D01*
X106680189Y-67713824D01*
X106680190Y-67713824D01*
X106680192Y-67713825D01*
X106851810Y-67754500D01*
X106851812Y-67754500D01*
X106980342Y-67754500D01*
X106983941Y-67754500D01*
X107115184Y-67739160D01*
X107280924Y-67678836D01*
X107428285Y-67581915D01*
X107549322Y-67453623D01*
X107637510Y-67300876D01*
X107688095Y-67131909D01*
X107698351Y-66955831D01*
X107667723Y-66782134D01*
X107597864Y-66620182D01*
X107492539Y-66478706D01*
X107492538Y-66478705D01*
X107357429Y-66365334D01*
X107199807Y-66286174D01*
X107028190Y-66245500D01*
X107028188Y-66245500D01*
X106896059Y-66245500D01*
X106892492Y-66245916D01*
X106892490Y-66245917D01*
X106764813Y-66260840D01*
X106599074Y-66321164D01*
X106451715Y-66418084D01*
X106330676Y-66546377D01*
X106242491Y-66699120D01*
X106191905Y-66868092D01*
X106181648Y-67044168D01*
X101000000Y-67044168D01*
X101000000Y-65044168D01*
X106181648Y-65044168D01*
X106197120Y-65131907D01*
X106212277Y-65217866D01*
X106282135Y-65379818D01*
X106282136Y-65379818D01*
X106387461Y-65521294D01*
X106522570Y-65634665D01*
X106522571Y-65634665D01*
X106522573Y-65634667D01*
X106680189Y-65713824D01*
X106680190Y-65713824D01*
X106680192Y-65713825D01*
X106851810Y-65754500D01*
X106851812Y-65754500D01*
X106980342Y-65754500D01*
X106983941Y-65754500D01*
X107115184Y-65739160D01*
X107280924Y-65678836D01*
X107428285Y-65581915D01*
X107549322Y-65453623D01*
X107637510Y-65300876D01*
X107688095Y-65131909D01*
X107698351Y-64955831D01*
X107667723Y-64782134D01*
X107597864Y-64620182D01*
X107492539Y-64478706D01*
X107492538Y-64478705D01*
X107357429Y-64365334D01*
X107199807Y-64286174D01*
X107028190Y-64245500D01*
X107028188Y-64245500D01*
X106896059Y-64245500D01*
X106892492Y-64245916D01*
X106892490Y-64245917D01*
X106764813Y-64260840D01*
X106599074Y-64321164D01*
X106451715Y-64418084D01*
X106330676Y-64546377D01*
X106242491Y-64699120D01*
X106191905Y-64868092D01*
X106181648Y-65044168D01*
X101000000Y-65044168D01*
X101000000Y-62550008D01*
X101749500Y-62550008D01*
X101749818Y-62553121D01*
X101749819Y-62553140D01*
X101760000Y-62652797D01*
X101815186Y-62819336D01*
X101907288Y-62968655D01*
X102031344Y-63092711D01*
X102180663Y-63184813D01*
X102347202Y-63239999D01*
X102446859Y-63250180D01*
X102446860Y-63250180D01*
X102449992Y-63250500D01*
X102453141Y-63250500D01*
X103546859Y-63250500D01*
X103550008Y-63250500D01*
X103652797Y-63239999D01*
X103819334Y-63184814D01*
X103827830Y-63179574D01*
X103968655Y-63092711D01*
X104092711Y-62968655D01*
X104184813Y-62819336D01*
X104239999Y-62652797D01*
X104250180Y-62553140D01*
X104250179Y-62553140D01*
X104250500Y-62550008D01*
X104250500Y-61449992D01*
X104239999Y-61347203D01*
X104184814Y-61180666D01*
X104184813Y-61180665D01*
X104184813Y-61180663D01*
X104092711Y-61031344D01*
X103968655Y-60907288D01*
X103819336Y-60815186D01*
X103652797Y-60760000D01*
X103553140Y-60749819D01*
X103553121Y-60749818D01*
X103550008Y-60749500D01*
X102449992Y-60749500D01*
X102446879Y-60749817D01*
X102446859Y-60749819D01*
X102347202Y-60760000D01*
X102180663Y-60815186D01*
X102031344Y-60907288D01*
X101907288Y-61031344D01*
X101815186Y-61180663D01*
X101760000Y-61347202D01*
X101749819Y-61446859D01*
X101749817Y-61446879D01*
X101749500Y-61449992D01*
X101749500Y-62550008D01*
X101000000Y-62550008D01*
X101000000Y-59000000D01*
X101744722Y-59000000D01*
X101763792Y-59217974D01*
X101820425Y-59429331D01*
X101841105Y-59473679D01*
X101912898Y-59627639D01*
X102038402Y-59806877D01*
X102193123Y-59961598D01*
X102372361Y-60087102D01*
X102570670Y-60179575D01*
X102782023Y-60236207D01*
X103000000Y-60255277D01*
X103217977Y-60236207D01*
X103429330Y-60179575D01*
X103627639Y-60087102D01*
X103806877Y-59961598D01*
X103961598Y-59806877D01*
X104087102Y-59627639D01*
X104179575Y-59429330D01*
X104236207Y-59217977D01*
X104255277Y-59000000D01*
X104236207Y-58782023D01*
X104179575Y-58570670D01*
X104087102Y-58372362D01*
X103961598Y-58193123D01*
X103806877Y-58038402D01*
X103627639Y-57912898D01*
X103536205Y-57870261D01*
X103429331Y-57820425D01*
X103217974Y-57763792D01*
X103000000Y-57744722D01*
X102782025Y-57763792D01*
X102570668Y-57820425D01*
X102372361Y-57912898D01*
X102193122Y-58038402D01*
X102038402Y-58193122D01*
X101912898Y-58372361D01*
X101820425Y-58570668D01*
X101763792Y-58782025D01*
X101744722Y-59000000D01*
X101000000Y-59000000D01*
X101000000Y-56000000D01*
X101744722Y-56000000D01*
X101763792Y-56217974D01*
X101820379Y-56429161D01*
X101820425Y-56429330D01*
X101912898Y-56627639D01*
X102038402Y-56806877D01*
X102193123Y-56961598D01*
X102372361Y-57087102D01*
X102570670Y-57179575D01*
X102782023Y-57236207D01*
X103000000Y-57255277D01*
X103217977Y-57236207D01*
X103429330Y-57179575D01*
X103627639Y-57087102D01*
X103806877Y-56961598D01*
X103961598Y-56806877D01*
X104087102Y-56627639D01*
X104179575Y-56429330D01*
X104236207Y-56217977D01*
X104255277Y-56000000D01*
X104745224Y-56000000D01*
X104764287Y-56217886D01*
X104820898Y-56429161D01*
X104913331Y-56627386D01*
X104956873Y-56689571D01*
X104956875Y-56689572D01*
X105516923Y-56129523D01*
X105540507Y-56209844D01*
X105618239Y-56330798D01*
X105726900Y-56424952D01*
X105857685Y-56484680D01*
X105867466Y-56486086D01*
X105310426Y-57043124D01*
X105310427Y-57043125D01*
X105372610Y-57086666D01*
X105570840Y-57179102D01*
X105782113Y-57235712D01*
X106000000Y-57254775D01*
X106217886Y-57235712D01*
X106429159Y-57179102D01*
X106627385Y-57086667D01*
X106689572Y-57043124D01*
X106132534Y-56486086D01*
X106142315Y-56484680D01*
X106273100Y-56424952D01*
X106381761Y-56330798D01*
X106459493Y-56209844D01*
X106483076Y-56129524D01*
X107043124Y-56689572D01*
X107086667Y-56627385D01*
X107179102Y-56429159D01*
X107235712Y-56217886D01*
X107254775Y-56000000D01*
X107235712Y-55782113D01*
X107179102Y-55570840D01*
X107086667Y-55372615D01*
X107043123Y-55310428D01*
X106483076Y-55870475D01*
X106459493Y-55790156D01*
X106381761Y-55669202D01*
X106273100Y-55575048D01*
X106142315Y-55515320D01*
X106132533Y-55513913D01*
X106689572Y-54956874D01*
X106689571Y-54956873D01*
X106627386Y-54913331D01*
X106429161Y-54820898D01*
X106217886Y-54764287D01*
X106000000Y-54745224D01*
X105782113Y-54764287D01*
X105570840Y-54820897D01*
X105372611Y-54913333D01*
X105310428Y-54956874D01*
X105310427Y-54956875D01*
X105867467Y-55513913D01*
X105857685Y-55515320D01*
X105726900Y-55575048D01*
X105618239Y-55669202D01*
X105540507Y-55790156D01*
X105516923Y-55870475D01*
X104956875Y-55310427D01*
X104956874Y-55310428D01*
X104913333Y-55372611D01*
X104820897Y-55570840D01*
X104764287Y-55782113D01*
X104745224Y-56000000D01*
X104255277Y-56000000D01*
X104236207Y-55782023D01*
X104179575Y-55570670D01*
X104087102Y-55372362D01*
X103961598Y-55193123D01*
X103806877Y-55038402D01*
X103627639Y-54912898D01*
X103536205Y-54870261D01*
X103429331Y-54820425D01*
X103217974Y-54763792D01*
X103000000Y-54744722D01*
X102782025Y-54763792D01*
X102570668Y-54820425D01*
X102372361Y-54912898D01*
X102193122Y-55038402D01*
X102038402Y-55193122D01*
X101912898Y-55372361D01*
X101820425Y-55570668D01*
X101763792Y-55782025D01*
X101744722Y-56000000D01*
X101000000Y-56000000D01*
X101000000Y-52124000D01*
X101019685Y-52056961D01*
X101072489Y-52011206D01*
X101124000Y-52000000D01*
X106867445Y-52000000D01*
X106934484Y-52019685D01*
G37*
%TD.AperFunction*%
%TD*%
%TA.AperFunction,Conductor*%
%TO.N,/PowerDist/5V_Ferrite*%
G36*
X108772115Y-81519685D02*
G01*
X108817870Y-81572489D01*
X108827814Y-81641647D01*
X108822118Y-81664954D01*
X108763686Y-81831943D01*
X108744750Y-82000000D01*
X108763686Y-82168056D01*
X108763686Y-82168058D01*
X108763687Y-82168059D01*
X108819544Y-82327690D01*
X108909523Y-82470890D01*
X109029110Y-82590477D01*
X109172310Y-82680456D01*
X109331941Y-82736313D01*
X109500000Y-82755249D01*
X109668059Y-82736313D01*
X109827690Y-82680456D01*
X109970890Y-82590477D01*
X110090477Y-82470890D01*
X110180456Y-82327690D01*
X110236313Y-82168059D01*
X110255249Y-82000000D01*
X110236313Y-81831941D01*
X110180456Y-81672310D01*
X110180455Y-81672309D01*
X110177882Y-81664954D01*
X110174321Y-81595175D01*
X110209050Y-81534548D01*
X110271043Y-81502321D01*
X110294924Y-81500000D01*
X114876000Y-81500000D01*
X114943039Y-81519685D01*
X114988794Y-81572489D01*
X115000000Y-81624000D01*
X115000000Y-85876000D01*
X114980315Y-85943039D01*
X114927511Y-85988794D01*
X114876000Y-86000000D01*
X114455053Y-86000000D01*
X114388014Y-85980315D01*
X114342259Y-85927511D01*
X114332315Y-85858353D01*
X114337122Y-85837682D01*
X114385674Y-85688256D01*
X114405460Y-85500000D01*
X114385674Y-85311744D01*
X114327179Y-85131716D01*
X114327179Y-85131715D01*
X114232533Y-84967783D01*
X114105870Y-84827110D01*
X113952730Y-84715848D01*
X113779802Y-84638855D01*
X113594648Y-84599500D01*
X113594646Y-84599500D01*
X113405354Y-84599500D01*
X113405352Y-84599500D01*
X113220197Y-84638855D01*
X113047269Y-84715848D01*
X112894129Y-84827110D01*
X112767466Y-84967783D01*
X112672820Y-85131715D01*
X112614326Y-85311742D01*
X112594540Y-85500000D01*
X112614326Y-85688257D01*
X112662878Y-85837682D01*
X112664873Y-85907523D01*
X112628793Y-85967356D01*
X112566092Y-85998184D01*
X112544947Y-86000000D01*
X103626016Y-86000000D01*
X103558977Y-85980315D01*
X103513222Y-85927511D01*
X103502032Y-85874000D01*
X103502285Y-85858353D01*
X103548032Y-83021999D01*
X103568795Y-82955287D01*
X103622330Y-82910390D01*
X103672016Y-82900000D01*
X105949999Y-82900000D01*
X105950000Y-82900000D01*
X105950000Y-81624000D01*
X105969685Y-81556961D01*
X106022489Y-81511206D01*
X106074000Y-81500000D01*
X108705076Y-81500000D01*
X108772115Y-81519685D01*
G37*
%TD.AperFunction*%
%TD*%
%TA.AperFunction,Conductor*%
%TO.N,GND*%
G36*
X136002855Y-40100632D02*
G01*
X136354083Y-40116870D01*
X136365473Y-40117926D01*
X136710864Y-40166105D01*
X136722107Y-40168207D01*
X137061578Y-40248050D01*
X137072568Y-40251177D01*
X137403244Y-40362009D01*
X137413898Y-40366137D01*
X137732922Y-40506999D01*
X137743149Y-40512091D01*
X137925184Y-40613484D01*
X138047809Y-40681786D01*
X138057547Y-40687815D01*
X138320976Y-40868268D01*
X138345249Y-40884895D01*
X138354386Y-40891796D01*
X138595013Y-41091610D01*
X138622665Y-41114572D01*
X138631129Y-41122288D01*
X138877711Y-41368870D01*
X138885427Y-41377334D01*
X139108201Y-41645610D01*
X139115104Y-41654750D01*
X139312184Y-41942452D01*
X139318213Y-41952190D01*
X139363442Y-42033391D01*
X139481682Y-42245673D01*
X139487901Y-42256837D01*
X139493006Y-42267090D01*
X139633857Y-42586088D01*
X139637995Y-42596768D01*
X139748818Y-42927418D01*
X139751952Y-42938434D01*
X139831790Y-43277884D01*
X139833895Y-43289143D01*
X139882072Y-43634519D01*
X139883129Y-43645923D01*
X139899368Y-43997143D01*
X139899500Y-44002870D01*
X139899500Y-85997128D01*
X139899368Y-86002855D01*
X139883129Y-86354076D01*
X139882072Y-86365480D01*
X139833895Y-86710856D01*
X139831790Y-86722115D01*
X139751952Y-87061565D01*
X139748818Y-87072581D01*
X139637995Y-87403231D01*
X139633857Y-87413911D01*
X139493006Y-87732909D01*
X139487901Y-87743162D01*
X139318213Y-88047809D01*
X139312184Y-88057547D01*
X139115104Y-88345249D01*
X139108201Y-88354389D01*
X138885427Y-88622665D01*
X138877711Y-88631129D01*
X138631129Y-88877711D01*
X138622665Y-88885427D01*
X138354389Y-89108201D01*
X138345249Y-89115104D01*
X138057547Y-89312184D01*
X138047809Y-89318213D01*
X137743162Y-89487901D01*
X137732909Y-89493006D01*
X137413911Y-89633857D01*
X137403231Y-89637995D01*
X137072581Y-89748818D01*
X137061565Y-89751952D01*
X136722115Y-89831790D01*
X136710856Y-89833895D01*
X136365480Y-89882072D01*
X136354076Y-89883129D01*
X136002855Y-89899368D01*
X135997128Y-89899500D01*
X113711130Y-89899500D01*
X113644091Y-89879815D01*
X113598336Y-89827011D01*
X113588392Y-89757853D01*
X113617417Y-89694297D01*
X113625697Y-89685626D01*
X113763053Y-89555059D01*
X113879295Y-89388049D01*
X113959540Y-89201058D01*
X114000500Y-89001741D01*
X114000500Y-88049258D01*
X113985074Y-87897562D01*
X113924159Y-87703412D01*
X113825409Y-87525498D01*
X113692866Y-87371105D01*
X113578923Y-87282906D01*
X113531957Y-87246551D01*
X113349272Y-87156940D01*
X113283609Y-87139939D01*
X113152285Y-87105937D01*
X113131670Y-87104891D01*
X112949062Y-87095630D01*
X112747928Y-87126443D01*
X112557113Y-87197113D01*
X112384431Y-87304745D01*
X112314623Y-87371104D01*
X112236947Y-87444941D01*
X112236946Y-87444943D01*
X112120705Y-87611950D01*
X112052382Y-87771161D01*
X112040460Y-87798942D01*
X111999500Y-87998259D01*
X111999500Y-88950742D01*
X111999815Y-88953835D01*
X111999817Y-88953865D01*
X112014926Y-89102440D01*
X112032366Y-89158024D01*
X112075841Y-89296588D01*
X112174591Y-89474502D01*
X112307134Y-89628895D01*
X112369854Y-89677444D01*
X112410818Y-89734046D01*
X112414677Y-89803809D01*
X112380208Y-89864584D01*
X112318352Y-89897076D01*
X112293952Y-89899500D01*
X111170404Y-89899500D01*
X111103365Y-89879815D01*
X111057610Y-89827011D01*
X111047666Y-89757853D01*
X111076691Y-89694297D01*
X111084972Y-89685626D01*
X111222669Y-89554733D01*
X111338855Y-89387805D01*
X111419059Y-89200907D01*
X111460000Y-89001688D01*
X111460000Y-88750000D01*
X110809607Y-88750000D01*
X110869238Y-88632969D01*
X110890298Y-88500000D01*
X110869238Y-88367031D01*
X110809607Y-88250000D01*
X111460000Y-88250000D01*
X111460000Y-88052429D01*
X111459682Y-88046164D01*
X111444580Y-87897660D01*
X111383696Y-87703610D01*
X111284996Y-87525785D01*
X111152520Y-87371468D01*
X110991692Y-87246978D01*
X110809094Y-87157410D01*
X110710000Y-87131753D01*
X110710000Y-88150392D01*
X110592969Y-88090762D01*
X110493451Y-88075000D01*
X110426549Y-88075000D01*
X110327031Y-88090762D01*
X110210000Y-88150392D01*
X110210000Y-87126633D01*
X110208051Y-87126932D01*
X110017336Y-87197564D01*
X109844736Y-87305145D01*
X109697330Y-87445266D01*
X109581144Y-87612194D01*
X109500940Y-87799092D01*
X109460000Y-87998311D01*
X109460000Y-88250000D01*
X110110393Y-88250000D01*
X110050762Y-88367031D01*
X110029702Y-88500000D01*
X110050762Y-88632969D01*
X110110393Y-88750000D01*
X109460000Y-88750000D01*
X109460000Y-88947570D01*
X109460317Y-88953835D01*
X109475419Y-89102339D01*
X109536303Y-89296389D01*
X109635003Y-89474214D01*
X109767479Y-89628531D01*
X109830669Y-89677444D01*
X109871633Y-89734045D01*
X109875493Y-89803808D01*
X109841024Y-89864584D01*
X109779169Y-89897075D01*
X109754768Y-89899500D01*
X108631130Y-89899500D01*
X108564091Y-89879815D01*
X108518336Y-89827011D01*
X108508392Y-89757853D01*
X108537417Y-89694297D01*
X108545697Y-89685626D01*
X108683053Y-89555059D01*
X108799295Y-89388049D01*
X108879540Y-89201058D01*
X108920500Y-89001741D01*
X108920500Y-88049258D01*
X108905074Y-87897562D01*
X108844159Y-87703412D01*
X108745409Y-87525498D01*
X108612866Y-87371105D01*
X108498923Y-87282905D01*
X108451957Y-87246551D01*
X108269272Y-87156940D01*
X108203609Y-87139939D01*
X108072285Y-87105937D01*
X108051671Y-87104891D01*
X107869062Y-87095630D01*
X107667928Y-87126443D01*
X107477113Y-87197113D01*
X107304431Y-87304745D01*
X107234623Y-87371104D01*
X107156947Y-87444941D01*
X107156946Y-87444943D01*
X107040705Y-87611950D01*
X106960460Y-87798941D01*
X106919499Y-87998260D01*
X106919500Y-88500000D01*
X106919500Y-88950742D01*
X106919815Y-88953835D01*
X106919817Y-88953865D01*
X106934926Y-89102440D01*
X106952366Y-89158024D01*
X106995841Y-89296588D01*
X107094591Y-89474502D01*
X107227134Y-89628895D01*
X107289854Y-89677444D01*
X107330818Y-89734046D01*
X107334677Y-89803809D01*
X107300208Y-89864584D01*
X107238352Y-89897076D01*
X107213952Y-89899500D01*
X106091130Y-89899500D01*
X106024091Y-89879815D01*
X105978336Y-89827011D01*
X105968392Y-89757853D01*
X105997417Y-89694297D01*
X106005697Y-89685626D01*
X106143053Y-89555059D01*
X106259295Y-89388049D01*
X106339540Y-89201058D01*
X106380500Y-89001741D01*
X106380500Y-88049258D01*
X106365074Y-87897562D01*
X106304159Y-87703412D01*
X106205409Y-87525498D01*
X106072866Y-87371105D01*
X105958923Y-87282906D01*
X105911957Y-87246551D01*
X105729272Y-87156940D01*
X105663609Y-87139938D01*
X105532285Y-87105937D01*
X105511670Y-87104891D01*
X105329062Y-87095630D01*
X105127928Y-87126443D01*
X104937113Y-87197113D01*
X104764431Y-87304745D01*
X104694623Y-87371104D01*
X104616947Y-87444941D01*
X104616946Y-87444943D01*
X104500705Y-87611950D01*
X104432382Y-87771161D01*
X104420460Y-87798942D01*
X104379500Y-87998259D01*
X104379500Y-88950742D01*
X104379815Y-88953835D01*
X104379817Y-88953865D01*
X104394926Y-89102440D01*
X104412366Y-89158024D01*
X104455841Y-89296588D01*
X104554591Y-89474502D01*
X104687134Y-89628895D01*
X104749854Y-89677444D01*
X104790818Y-89734046D01*
X104794677Y-89803809D01*
X104760208Y-89864584D01*
X104698352Y-89897076D01*
X104673952Y-89899500D01*
X104002872Y-89899500D01*
X103997145Y-89899368D01*
X103645923Y-89883129D01*
X103634519Y-89882072D01*
X103289143Y-89833895D01*
X103277884Y-89831790D01*
X102938434Y-89751952D01*
X102927418Y-89748818D01*
X102596768Y-89637995D01*
X102586088Y-89633857D01*
X102574026Y-89628531D01*
X102267085Y-89493003D01*
X102256842Y-89487903D01*
X102077131Y-89387805D01*
X101952190Y-89318213D01*
X101942452Y-89312184D01*
X101654750Y-89115104D01*
X101645610Y-89108201D01*
X101377334Y-88885427D01*
X101368870Y-88877711D01*
X101122288Y-88631129D01*
X101114572Y-88622665D01*
X101037718Y-88530113D01*
X100891796Y-88354386D01*
X100884895Y-88345249D01*
X100687815Y-88057547D01*
X100681786Y-88047809D01*
X100598097Y-87897559D01*
X100512091Y-87743149D01*
X100506999Y-87732922D01*
X100366137Y-87413898D01*
X100362009Y-87403244D01*
X100251177Y-87072568D01*
X100248050Y-87061578D01*
X100168207Y-86722107D01*
X100166104Y-86710856D01*
X100146053Y-86567115D01*
X100117926Y-86365473D01*
X100116870Y-86354076D01*
X100115727Y-86329362D01*
X100100632Y-86002855D01*
X100100500Y-85997128D01*
X100100500Y-82376000D01*
X100494500Y-82376000D01*
X100494854Y-82379294D01*
X100494855Y-82379309D01*
X100505697Y-82480145D01*
X100506053Y-82483456D01*
X100506757Y-82486693D01*
X100506759Y-82486704D01*
X100516553Y-82531722D01*
X100517259Y-82534967D01*
X100518305Y-82538110D01*
X100518309Y-82538124D01*
X100551385Y-82637503D01*
X100629173Y-82758541D01*
X100629175Y-82758543D01*
X100674930Y-82811347D01*
X100783664Y-82905567D01*
X100914541Y-82965338D01*
X100981580Y-82985023D01*
X100981584Y-82985024D01*
X101124000Y-83005500D01*
X102916716Y-83005500D01*
X102983755Y-83025185D01*
X103029510Y-83077989D01*
X103040700Y-83131500D01*
X102996653Y-85862398D01*
X102996653Y-85862409D01*
X102996598Y-85865848D01*
X102996924Y-85869278D01*
X102996925Y-85869281D01*
X103006908Y-85974047D01*
X103006910Y-85974061D01*
X103007235Y-85977470D01*
X103007937Y-85980828D01*
X103007938Y-85980833D01*
X103017718Y-86027604D01*
X103017721Y-86027617D01*
X103018425Y-86030981D01*
X103019502Y-86034262D01*
X103019504Y-86034268D01*
X103051425Y-86131482D01*
X103053403Y-86137504D01*
X103131191Y-86258543D01*
X103176946Y-86311347D01*
X103285680Y-86405567D01*
X103416557Y-86465338D01*
X103483596Y-86485023D01*
X103483600Y-86485024D01*
X103626016Y-86505500D01*
X112543636Y-86505500D01*
X112544947Y-86505500D01*
X112588202Y-86503646D01*
X112609347Y-86501830D01*
X112652291Y-86496280D01*
X112733521Y-86469887D01*
X112789124Y-86451821D01*
X112789126Y-86451819D01*
X112789129Y-86451819D01*
X112851830Y-86420991D01*
X112851834Y-86420989D01*
X112970602Y-86339776D01*
X112970601Y-86339776D01*
X112985319Y-86329713D01*
X112986858Y-86331964D01*
X113022129Y-86307838D01*
X113091970Y-86305830D01*
X113110903Y-86312482D01*
X113145068Y-86327694D01*
X113220197Y-86361144D01*
X113405352Y-86400500D01*
X113405354Y-86400500D01*
X113594648Y-86400500D01*
X113734257Y-86370825D01*
X113779803Y-86361144D01*
X113895133Y-86309794D01*
X113964383Y-86300510D01*
X114026773Y-86329362D01*
X114114717Y-86405567D01*
X114245594Y-86465338D01*
X114312633Y-86485023D01*
X114312637Y-86485024D01*
X114455053Y-86505500D01*
X114872676Y-86505500D01*
X114876000Y-86505500D01*
X114983456Y-86493947D01*
X115034967Y-86482741D01*
X115073587Y-86469887D01*
X115137503Y-86448614D01*
X115226360Y-86391508D01*
X115258543Y-86370825D01*
X115311347Y-86325070D01*
X115405567Y-86216336D01*
X115444319Y-86131482D01*
X118245500Y-86131482D01*
X118284691Y-86391507D01*
X118362202Y-86642787D01*
X118476296Y-86879707D01*
X118476297Y-86879709D01*
X118476298Y-86879710D01*
X118624430Y-87096980D01*
X118803290Y-87289746D01*
X119008883Y-87453701D01*
X119236616Y-87585183D01*
X119481402Y-87681254D01*
X119737772Y-87739769D01*
X119934346Y-87754500D01*
X119936663Y-87754500D01*
X120063337Y-87754500D01*
X120065654Y-87754500D01*
X120262228Y-87739769D01*
X120518598Y-87681254D01*
X120763384Y-87585183D01*
X120910927Y-87499999D01*
X124594644Y-87499999D01*
X124614039Y-87771161D01*
X124671823Y-88036796D01*
X124679563Y-88057547D01*
X124766828Y-88291513D01*
X124766830Y-88291517D01*
X124766831Y-88291519D01*
X124897109Y-88530108D01*
X124897113Y-88530113D01*
X125060029Y-88747742D01*
X125252258Y-88939971D01*
X125334773Y-89001741D01*
X125469891Y-89102890D01*
X125570863Y-89158024D01*
X125708487Y-89233172D01*
X125963199Y-89328175D01*
X125963202Y-89328175D01*
X125963203Y-89328176D01*
X126012852Y-89338976D01*
X126228840Y-89385961D01*
X126500000Y-89405355D01*
X126771160Y-89385961D01*
X127036801Y-89328175D01*
X127291513Y-89233172D01*
X127507739Y-89115104D01*
X127530108Y-89102890D01*
X127530109Y-89102889D01*
X127530113Y-89102887D01*
X127747742Y-88939971D01*
X127939971Y-88747742D01*
X128102887Y-88530113D01*
X128233172Y-88291513D01*
X128328175Y-88036801D01*
X128385961Y-87771160D01*
X128405355Y-87500000D01*
X131594644Y-87500000D01*
X131614039Y-87771161D01*
X131671823Y-88036796D01*
X131679563Y-88057547D01*
X131766828Y-88291513D01*
X131766830Y-88291517D01*
X131766831Y-88291519D01*
X131897109Y-88530108D01*
X131897113Y-88530113D01*
X132060029Y-88747742D01*
X132252258Y-88939971D01*
X132334773Y-89001741D01*
X132469891Y-89102890D01*
X132570863Y-89158024D01*
X132708487Y-89233172D01*
X132963199Y-89328175D01*
X132963202Y-89328175D01*
X132963203Y-89328176D01*
X133012852Y-89338976D01*
X133228840Y-89385961D01*
X133500000Y-89405355D01*
X133771160Y-89385961D01*
X134036801Y-89328175D01*
X134291513Y-89233172D01*
X134507739Y-89115104D01*
X134530108Y-89102890D01*
X134530109Y-89102889D01*
X134530113Y-89102887D01*
X134747742Y-88939971D01*
X134939971Y-88747742D01*
X135102887Y-88530113D01*
X135233172Y-88291513D01*
X135328175Y-88036801D01*
X135385961Y-87771160D01*
X135405355Y-87500000D01*
X135385961Y-87228840D01*
X135328175Y-86963199D01*
X135233172Y-86708487D01*
X135197297Y-86642787D01*
X135102890Y-86469891D01*
X135054737Y-86405567D01*
X134939971Y-86252258D01*
X134747742Y-86060029D01*
X134530113Y-85897113D01*
X134530114Y-85897113D01*
X134530108Y-85897109D01*
X134291519Y-85766831D01*
X134291517Y-85766830D01*
X134291513Y-85766828D01*
X134036801Y-85671825D01*
X134036796Y-85671823D01*
X133771161Y-85614039D01*
X133500000Y-85594644D01*
X133228838Y-85614039D01*
X132963203Y-85671823D01*
X132818956Y-85725624D01*
X132708487Y-85766828D01*
X132708484Y-85766829D01*
X132708480Y-85766831D01*
X132469891Y-85897109D01*
X132252255Y-86060031D01*
X132060031Y-86252255D01*
X131897109Y-86469891D01*
X131766831Y-86708480D01*
X131766829Y-86708484D01*
X131766828Y-86708487D01*
X131763828Y-86716531D01*
X131671823Y-86963203D01*
X131614039Y-87228838D01*
X131594644Y-87500000D01*
X128405355Y-87500000D01*
X128385961Y-87228840D01*
X128328175Y-86963199D01*
X128233172Y-86708487D01*
X128197297Y-86642787D01*
X128102890Y-86469891D01*
X128054737Y-86405567D01*
X127939971Y-86252258D01*
X127747742Y-86060029D01*
X127530113Y-85897113D01*
X127530114Y-85897113D01*
X127530108Y-85897109D01*
X127291519Y-85766831D01*
X127291517Y-85766830D01*
X127291513Y-85766828D01*
X127036801Y-85671825D01*
X127036796Y-85671823D01*
X126771161Y-85614039D01*
X126500000Y-85594644D01*
X126228838Y-85614039D01*
X125963203Y-85671823D01*
X125818956Y-85725624D01*
X125708487Y-85766828D01*
X125708484Y-85766829D01*
X125708480Y-85766831D01*
X125469891Y-85897109D01*
X125252255Y-86060031D01*
X125060031Y-86252255D01*
X124897109Y-86469891D01*
X124766831Y-86708480D01*
X124766829Y-86708484D01*
X124766828Y-86708487D01*
X124763828Y-86716531D01*
X124671823Y-86963203D01*
X124614039Y-87228838D01*
X124594644Y-87499999D01*
X120910927Y-87499999D01*
X120991117Y-87453701D01*
X121196710Y-87289746D01*
X121375570Y-87096980D01*
X121523702Y-86879710D01*
X121637798Y-86642788D01*
X121715308Y-86391508D01*
X121754500Y-86131482D01*
X121754500Y-85868518D01*
X121715308Y-85608492D01*
X121637798Y-85357212D01*
X121523702Y-85120290D01*
X121375570Y-84903020D01*
X121196710Y-84710254D01*
X120991117Y-84546299D01*
X120991116Y-84546298D01*
X120910925Y-84500000D01*
X128095146Y-84500000D01*
X128114536Y-84771089D01*
X128172305Y-85036654D01*
X128267287Y-85291307D01*
X128397536Y-85529842D01*
X128491320Y-85655124D01*
X128491321Y-85655124D01*
X129283338Y-84863107D01*
X129370577Y-85001948D01*
X129498052Y-85129423D01*
X129636891Y-85216661D01*
X128844874Y-86008677D01*
X128844875Y-86008678D01*
X128970157Y-86102463D01*
X129208692Y-86232712D01*
X129463345Y-86327694D01*
X129728910Y-86385463D01*
X130000000Y-86404853D01*
X130271089Y-86385463D01*
X130536654Y-86327694D01*
X130791307Y-86232712D01*
X131029839Y-86102465D01*
X131155124Y-86008677D01*
X130363108Y-85216661D01*
X130501948Y-85129423D01*
X130629423Y-85001948D01*
X130716661Y-84863108D01*
X131508677Y-85655124D01*
X131602465Y-85529839D01*
X131732712Y-85291307D01*
X131827694Y-85036654D01*
X131885463Y-84771089D01*
X131904853Y-84500000D01*
X135094644Y-84500000D01*
X135114039Y-84771161D01*
X135171823Y-85036796D01*
X135171825Y-85036801D01*
X135266828Y-85291513D01*
X135266830Y-85291517D01*
X135266831Y-85291519D01*
X135397109Y-85530108D01*
X135397113Y-85530113D01*
X135560029Y-85747742D01*
X135752258Y-85939971D01*
X135946606Y-86085459D01*
X135969891Y-86102890D01*
X136128650Y-86189578D01*
X136208487Y-86233172D01*
X136463199Y-86328175D01*
X136463202Y-86328175D01*
X136463203Y-86328176D01*
X136470269Y-86329713D01*
X136728840Y-86385961D01*
X137000000Y-86405355D01*
X137271160Y-86385961D01*
X137536801Y-86328175D01*
X137791513Y-86233172D01*
X138030113Y-86102887D01*
X138247742Y-85939971D01*
X138439971Y-85747742D01*
X138602887Y-85530113D01*
X138733172Y-85291513D01*
X138828175Y-85036801D01*
X138885961Y-84771160D01*
X138905355Y-84500000D01*
X138885961Y-84228840D01*
X138828175Y-83963199D01*
X138733172Y-83708487D01*
X138709864Y-83665802D01*
X138602890Y-83469891D01*
X138601685Y-83468281D01*
X138439971Y-83252258D01*
X138247742Y-83060029D01*
X138030678Y-82897536D01*
X138030108Y-82897109D01*
X137791519Y-82766831D01*
X137791517Y-82766830D01*
X137791513Y-82766828D01*
X137536801Y-82671825D01*
X137536796Y-82671823D01*
X137271161Y-82614039D01*
X137000000Y-82594644D01*
X136728838Y-82614039D01*
X136463203Y-82671823D01*
X136318956Y-82725624D01*
X136208487Y-82766828D01*
X136208484Y-82766829D01*
X136208480Y-82766831D01*
X135969891Y-82897109D01*
X135752255Y-83060031D01*
X135560031Y-83252255D01*
X135397109Y-83469891D01*
X135266831Y-83708480D01*
X135171823Y-83963203D01*
X135114039Y-84228838D01*
X135094644Y-84500000D01*
X131904853Y-84500000D01*
X131904853Y-84499999D01*
X131885463Y-84228910D01*
X131827694Y-83963345D01*
X131732712Y-83708692D01*
X131602463Y-83470157D01*
X131508678Y-83344875D01*
X131508677Y-83344874D01*
X130716660Y-84136890D01*
X130629423Y-83998052D01*
X130501948Y-83870577D01*
X130363108Y-83783338D01*
X131155124Y-82991321D01*
X131155124Y-82991320D01*
X131029842Y-82897536D01*
X130791307Y-82767287D01*
X130536654Y-82672305D01*
X130271089Y-82614536D01*
X130000000Y-82595146D01*
X129728910Y-82614536D01*
X129463345Y-82672305D01*
X129208692Y-82767286D01*
X128970162Y-82897534D01*
X128844875Y-82991321D01*
X129636892Y-83783338D01*
X129498052Y-83870577D01*
X129370577Y-83998052D01*
X129283338Y-84136892D01*
X128491321Y-83344875D01*
X128397534Y-83470162D01*
X128267286Y-83708692D01*
X128172305Y-83963345D01*
X128114536Y-84228910D01*
X128095146Y-84500000D01*
X120910925Y-84500000D01*
X120763382Y-84414816D01*
X120518600Y-84318746D01*
X120262225Y-84260230D01*
X120067968Y-84245673D01*
X120067957Y-84245672D01*
X120065654Y-84245500D01*
X119934346Y-84245500D01*
X119932043Y-84245672D01*
X119932031Y-84245673D01*
X119737774Y-84260230D01*
X119481399Y-84318746D01*
X119236617Y-84414816D01*
X119008883Y-84546298D01*
X118803290Y-84710253D01*
X118624431Y-84903018D01*
X118476296Y-85120292D01*
X118362202Y-85357212D01*
X118284691Y-85608492D01*
X118245500Y-85868517D01*
X118245500Y-86131482D01*
X115444319Y-86131482D01*
X115465338Y-86085459D01*
X115485023Y-86018420D01*
X115485024Y-86018416D01*
X115505500Y-85876000D01*
X115505500Y-81624000D01*
X115493947Y-81516544D01*
X115482741Y-81465033D01*
X115481690Y-81461875D01*
X115448614Y-81362496D01*
X115370826Y-81241458D01*
X115357359Y-81225917D01*
X115325070Y-81188653D01*
X115216336Y-81094433D01*
X115216335Y-81094432D01*
X115085460Y-81034662D01*
X115020113Y-81015474D01*
X115020111Y-81015473D01*
X115018420Y-81014977D01*
X115018416Y-81014976D01*
X115015290Y-81014526D01*
X115015277Y-81014524D01*
X114876000Y-80994500D01*
X110294924Y-80994500D01*
X110293454Y-80994571D01*
X110293423Y-80994572D01*
X110247553Y-80996796D01*
X110247515Y-80996798D01*
X110246025Y-80996871D01*
X110244543Y-80997014D01*
X110244502Y-80997018D01*
X110223669Y-80999043D01*
X110223637Y-80999046D01*
X110222144Y-80999192D01*
X110173689Y-81006284D01*
X110037882Y-81053805D01*
X110037880Y-81053805D01*
X110037877Y-81053807D01*
X109975886Y-81086032D01*
X109858973Y-81169887D01*
X109815209Y-81225928D01*
X109758433Y-81266649D01*
X109688654Y-81270210D01*
X109676531Y-81266650D01*
X109668062Y-81263687D01*
X109573073Y-81252984D01*
X109508659Y-81225917D01*
X109469104Y-81168322D01*
X109466967Y-81098485D01*
X109467970Y-81094862D01*
X109485023Y-81036790D01*
X109485024Y-81036786D01*
X109505500Y-80894370D01*
X109505500Y-78324999D01*
X131244750Y-78324999D01*
X131263686Y-78493056D01*
X131263686Y-78493058D01*
X131263687Y-78493059D01*
X131319544Y-78652690D01*
X131409523Y-78795890D01*
X131529110Y-78915477D01*
X131672310Y-79005456D01*
X131831941Y-79061313D01*
X132000000Y-79080249D01*
X132168059Y-79061313D01*
X132327690Y-79005456D01*
X132470890Y-78915477D01*
X132590477Y-78795890D01*
X132680456Y-78652690D01*
X132736313Y-78493059D01*
X132755249Y-78325000D01*
X132736313Y-78156941D01*
X132680456Y-77997310D01*
X132590477Y-77854110D01*
X132470890Y-77734523D01*
X132327690Y-77644544D01*
X132168059Y-77588687D01*
X132168058Y-77588686D01*
X132168056Y-77588686D01*
X132000000Y-77569750D01*
X131831943Y-77588686D01*
X131672310Y-77644544D01*
X131529108Y-77734524D01*
X131409524Y-77854108D01*
X131319544Y-77997310D01*
X131263686Y-78156943D01*
X131244750Y-78324999D01*
X109505500Y-78324999D01*
X109505500Y-76599999D01*
X118744750Y-76599999D01*
X118763686Y-76768056D01*
X118763686Y-76768058D01*
X118763687Y-76768059D01*
X118819544Y-76927690D01*
X118909523Y-77070890D01*
X119029110Y-77190477D01*
X119172310Y-77280456D01*
X119331941Y-77336313D01*
X119500000Y-77355249D01*
X119668059Y-77336313D01*
X119827690Y-77280456D01*
X119970890Y-77190477D01*
X120090477Y-77070890D01*
X120180456Y-76927690D01*
X120236313Y-76768059D01*
X120255249Y-76600000D01*
X120243981Y-76499999D01*
X131244750Y-76499999D01*
X131263686Y-76668056D01*
X131263686Y-76668058D01*
X131263687Y-76668059D01*
X131319544Y-76827690D01*
X131409523Y-76970890D01*
X131529110Y-77090477D01*
X131672310Y-77180456D01*
X131831941Y-77236313D01*
X132000000Y-77255249D01*
X132168059Y-77236313D01*
X132327690Y-77180456D01*
X132470890Y-77090477D01*
X132590477Y-76970890D01*
X132680456Y-76827690D01*
X132736313Y-76668059D01*
X132743982Y-76600000D01*
X136244750Y-76600000D01*
X136263686Y-76768056D01*
X136263686Y-76768058D01*
X136263687Y-76768059D01*
X136319544Y-76927690D01*
X136409523Y-77070890D01*
X136529110Y-77190477D01*
X136672310Y-77280456D01*
X136831941Y-77336313D01*
X136943980Y-77348936D01*
X136999999Y-77355249D01*
X136999999Y-77355248D01*
X137000000Y-77355249D01*
X137168059Y-77336313D01*
X137327690Y-77280456D01*
X137470890Y-77190477D01*
X137590477Y-77070890D01*
X137680456Y-76927690D01*
X137736313Y-76768059D01*
X137755249Y-76600000D01*
X137736313Y-76431941D01*
X137680456Y-76272310D01*
X137590477Y-76129110D01*
X137470890Y-76009523D01*
X137327690Y-75919544D01*
X137168059Y-75863687D01*
X137168058Y-75863686D01*
X137168056Y-75863686D01*
X137000000Y-75844750D01*
X136831943Y-75863686D01*
X136672310Y-75919544D01*
X136529108Y-76009524D01*
X136409524Y-76129108D01*
X136319544Y-76272310D01*
X136263686Y-76431943D01*
X136244750Y-76600000D01*
X132743982Y-76600000D01*
X132755249Y-76500000D01*
X132736313Y-76331941D01*
X132680456Y-76172310D01*
X132590477Y-76029110D01*
X132470890Y-75909523D01*
X132327690Y-75819544D01*
X132168059Y-75763687D01*
X132168058Y-75763686D01*
X132168056Y-75763686D01*
X132000000Y-75744750D01*
X131831943Y-75763686D01*
X131672310Y-75819544D01*
X131529108Y-75909524D01*
X131409524Y-76029108D01*
X131319544Y-76172310D01*
X131263686Y-76331943D01*
X131244750Y-76499999D01*
X120243981Y-76499999D01*
X120236313Y-76431941D01*
X120180456Y-76272310D01*
X120090477Y-76129110D01*
X119970890Y-76009523D01*
X119827690Y-75919544D01*
X119668059Y-75863687D01*
X119668058Y-75863686D01*
X119668056Y-75863686D01*
X119500000Y-75844750D01*
X119331943Y-75863686D01*
X119172310Y-75919544D01*
X119029108Y-76009524D01*
X118909524Y-76129108D01*
X118819544Y-76272310D01*
X118763686Y-76431943D01*
X118744750Y-76599999D01*
X109505500Y-76599999D01*
X109505500Y-73900000D01*
X115594750Y-73900000D01*
X115613686Y-74068056D01*
X115613686Y-74068058D01*
X115613687Y-74068059D01*
X115669544Y-74227690D01*
X115759523Y-74370890D01*
X115879110Y-74490477D01*
X116022310Y-74580456D01*
X116181941Y-74636313D01*
X116350000Y-74655249D01*
X116518059Y-74636313D01*
X116677690Y-74580456D01*
X116820890Y-74490477D01*
X116940477Y-74370890D01*
X117030456Y-74227690D01*
X117086313Y-74068059D01*
X117105249Y-73900000D01*
X117086313Y-73731941D01*
X117030456Y-73572310D01*
X116940477Y-73429110D01*
X116911367Y-73400000D01*
X124744750Y-73400000D01*
X124763686Y-73568056D01*
X124763686Y-73568058D01*
X124763687Y-73568059D01*
X124819544Y-73727690D01*
X124909523Y-73870890D01*
X125029110Y-73990477D01*
X125172310Y-74080456D01*
X125331941Y-74136313D01*
X125443980Y-74148936D01*
X125499999Y-74155249D01*
X125499999Y-74155248D01*
X125500000Y-74155249D01*
X125668059Y-74136313D01*
X125827690Y-74080456D01*
X125970890Y-73990477D01*
X126090477Y-73870890D01*
X126180456Y-73727690D01*
X126236313Y-73568059D01*
X126255249Y-73400000D01*
X126236313Y-73231941D01*
X126180456Y-73072310D01*
X126090477Y-72929110D01*
X125970890Y-72809523D01*
X125827690Y-72719544D01*
X125668059Y-72663687D01*
X125668058Y-72663686D01*
X125668056Y-72663686D01*
X125500000Y-72644750D01*
X125331943Y-72663686D01*
X125172310Y-72719544D01*
X125029108Y-72809524D01*
X124909524Y-72929108D01*
X124819544Y-73072310D01*
X124763686Y-73231943D01*
X124744750Y-73400000D01*
X116911367Y-73400000D01*
X116820890Y-73309523D01*
X116677690Y-73219544D01*
X116518059Y-73163687D01*
X116518058Y-73163686D01*
X116518056Y-73163686D01*
X116349999Y-73144750D01*
X116181943Y-73163686D01*
X116022310Y-73219544D01*
X115879108Y-73309524D01*
X115759524Y-73429108D01*
X115669544Y-73572310D01*
X115613686Y-73731943D01*
X115594750Y-73900000D01*
X109505500Y-73900000D01*
X109505500Y-71902902D01*
X109525184Y-71835867D01*
X109577988Y-71790112D01*
X109647146Y-71780168D01*
X109710702Y-71809193D01*
X109746540Y-71861951D01*
X109769542Y-71927687D01*
X109769544Y-71927690D01*
X109859523Y-72070890D01*
X109979110Y-72190477D01*
X110122310Y-72280456D01*
X110281941Y-72336313D01*
X110450000Y-72355249D01*
X110618059Y-72336313D01*
X110777690Y-72280456D01*
X110920890Y-72190477D01*
X111040477Y-72070890D01*
X111130456Y-71927690D01*
X111186313Y-71768059D01*
X111205249Y-71600000D01*
X111193982Y-71500000D01*
X115744750Y-71500000D01*
X115763686Y-71668056D01*
X115763686Y-71668058D01*
X115763687Y-71668059D01*
X115819544Y-71827690D01*
X115909523Y-71970890D01*
X116029110Y-72090477D01*
X116172310Y-72180456D01*
X116331941Y-72236313D01*
X116443980Y-72248936D01*
X116499999Y-72255249D01*
X116499999Y-72255248D01*
X116500000Y-72255249D01*
X116668059Y-72236313D01*
X116827690Y-72180456D01*
X116970890Y-72090477D01*
X117088319Y-71973047D01*
X117149642Y-71939563D01*
X117219334Y-71944547D01*
X117275267Y-71986419D01*
X117299684Y-72051883D01*
X117300000Y-72060729D01*
X117300000Y-72200000D01*
X118000000Y-72900000D01*
X123000000Y-72900000D01*
X123700000Y-72200000D01*
X123700000Y-70062500D01*
X125582250Y-70062500D01*
X125601186Y-70230556D01*
X125601186Y-70230558D01*
X125601187Y-70230559D01*
X125657044Y-70390190D01*
X125747023Y-70533390D01*
X125866610Y-70652977D01*
X126009810Y-70742956D01*
X126169441Y-70798813D01*
X126169442Y-70798813D01*
X126173157Y-70800113D01*
X126219884Y-70829474D01*
X126774696Y-71384287D01*
X126787596Y-71400388D01*
X126838723Y-71448400D01*
X126841520Y-71451111D01*
X126861029Y-71470620D01*
X126864209Y-71473087D01*
X126873071Y-71480655D01*
X126893671Y-71500000D01*
X126904918Y-71510562D01*
X126922470Y-71520211D01*
X126938738Y-71530897D01*
X126954564Y-71543173D01*
X126994646Y-71560517D01*
X127005133Y-71565655D01*
X127043407Y-71586697D01*
X127051910Y-71588879D01*
X127062808Y-71591678D01*
X127081213Y-71597978D01*
X127099604Y-71605937D01*
X127142750Y-71612770D01*
X127154168Y-71615135D01*
X127196481Y-71626000D01*
X127216516Y-71626000D01*
X127235915Y-71627527D01*
X127255696Y-71630660D01*
X127299174Y-71626550D01*
X127310844Y-71626000D01*
X137641756Y-71626000D01*
X137662262Y-71628264D01*
X137665165Y-71628172D01*
X137665167Y-71628173D01*
X137732372Y-71626061D01*
X137736268Y-71626000D01*
X137759948Y-71626000D01*
X137763850Y-71626000D01*
X137767813Y-71625499D01*
X137779462Y-71624580D01*
X137823127Y-71623209D01*
X137842359Y-71617620D01*
X137861418Y-71613674D01*
X137868599Y-71612767D01*
X137881292Y-71611164D01*
X137921907Y-71595082D01*
X137932944Y-71591303D01*
X137974890Y-71579118D01*
X137992129Y-71568922D01*
X138009602Y-71560362D01*
X138028232Y-71552986D01*
X138063564Y-71527314D01*
X138073330Y-71520900D01*
X138110918Y-71498671D01*
X138110917Y-71498671D01*
X138110920Y-71498670D01*
X138125085Y-71484504D01*
X138139873Y-71471873D01*
X138156087Y-71460094D01*
X138183938Y-71426426D01*
X138191779Y-71417809D01*
X139388288Y-70221301D01*
X139404385Y-70208406D01*
X139406373Y-70206287D01*
X139406377Y-70206286D01*
X139452449Y-70157223D01*
X139455034Y-70154555D01*
X139474620Y-70134971D01*
X139477085Y-70131792D01*
X139484667Y-70122916D01*
X139514562Y-70091082D01*
X139524217Y-70073518D01*
X139534894Y-70057264D01*
X139547173Y-70041436D01*
X139564518Y-70001352D01*
X139569660Y-69990856D01*
X139590697Y-69952592D01*
X139595679Y-69933184D01*
X139601981Y-69914780D01*
X139609937Y-69896396D01*
X139616769Y-69853252D01*
X139619133Y-69841838D01*
X139630000Y-69799519D01*
X139630000Y-69779483D01*
X139631527Y-69760084D01*
X139632293Y-69755249D01*
X139634660Y-69740304D01*
X139630550Y-69696824D01*
X139630000Y-69685155D01*
X139630000Y-64687243D01*
X139632264Y-64666739D01*
X139631627Y-64646471D01*
X139630061Y-64596612D01*
X139630000Y-64592718D01*
X139630000Y-64569041D01*
X139630000Y-64565150D01*
X139629498Y-64561183D01*
X139628581Y-64549527D01*
X139628324Y-64541349D01*
X139627210Y-64505873D01*
X139621618Y-64486626D01*
X139617674Y-64467585D01*
X139615164Y-64447708D01*
X139599079Y-64407083D01*
X139595308Y-64396068D01*
X139583118Y-64354110D01*
X139572914Y-64336855D01*
X139564363Y-64319401D01*
X139556986Y-64300768D01*
X139556985Y-64300767D01*
X139551218Y-64286200D01*
X139552910Y-64285529D01*
X139538032Y-64247200D01*
X139536313Y-64231941D01*
X139480456Y-64072310D01*
X139476471Y-64065969D01*
X139457473Y-63998733D01*
X139476475Y-63934024D01*
X139480456Y-63927690D01*
X139536313Y-63768059D01*
X139555249Y-63600000D01*
X139536313Y-63431941D01*
X139480456Y-63272310D01*
X139476471Y-63265969D01*
X139457473Y-63198733D01*
X139476475Y-63134024D01*
X139480456Y-63127690D01*
X139536313Y-62968059D01*
X139555249Y-62800000D01*
X139536313Y-62631941D01*
X139480456Y-62472310D01*
X139390477Y-62329110D01*
X139270890Y-62209523D01*
X139199289Y-62164533D01*
X139127689Y-62119543D01*
X139122404Y-62117694D01*
X139120538Y-62117041D01*
X139063762Y-62076321D01*
X139038014Y-62011369D01*
X139051470Y-61942807D01*
X139099856Y-61892403D01*
X139120536Y-61882958D01*
X139127690Y-61880456D01*
X139270890Y-61790477D01*
X139390477Y-61670890D01*
X139480456Y-61527690D01*
X139536313Y-61368059D01*
X139555249Y-61200000D01*
X139536313Y-61031941D01*
X139480456Y-60872310D01*
X139390477Y-60729110D01*
X139270890Y-60609523D01*
X139127690Y-60519544D01*
X139127687Y-60519542D01*
X138962545Y-60461756D01*
X138905769Y-60421034D01*
X138880022Y-60356082D01*
X138879500Y-60344715D01*
X138879500Y-60217494D01*
X138868363Y-60172310D01*
X138840010Y-60057276D01*
X138763325Y-59911165D01*
X138653901Y-59787651D01*
X138653900Y-59787650D01*
X138653899Y-59787649D01*
X138518099Y-59693912D01*
X138363809Y-59635399D01*
X138244825Y-59620951D01*
X138244813Y-59620950D01*
X138241105Y-59620500D01*
X138158895Y-59620500D01*
X138155187Y-59620950D01*
X138155174Y-59620951D01*
X138036190Y-59635399D01*
X137881900Y-59693912D01*
X137746100Y-59787649D01*
X137636673Y-59911167D01*
X137559990Y-60057274D01*
X137520500Y-60217494D01*
X137520500Y-60382505D01*
X137559990Y-60542725D01*
X137636673Y-60688832D01*
X137636675Y-60688835D01*
X137685298Y-60743719D01*
X137746100Y-60812350D01*
X137814000Y-60859218D01*
X137881901Y-60906087D01*
X137979806Y-60943217D01*
X138035508Y-60985394D01*
X138059566Y-61050992D01*
X138059055Y-61073043D01*
X138044750Y-61199999D01*
X138063686Y-61368056D01*
X138063686Y-61368058D01*
X138063687Y-61368059D01*
X138119544Y-61527690D01*
X138209523Y-61670890D01*
X138329110Y-61790477D01*
X138430577Y-61854233D01*
X138472312Y-61880457D01*
X138479462Y-61882959D01*
X138536238Y-61923680D01*
X138561985Y-61988633D01*
X138548529Y-62057195D01*
X138500141Y-62107598D01*
X138479462Y-62117041D01*
X138472312Y-62119542D01*
X138329108Y-62209524D01*
X138209524Y-62329108D01*
X138119544Y-62472310D01*
X138063686Y-62631943D01*
X138044750Y-62800000D01*
X138063686Y-62968056D01*
X138119544Y-63127691D01*
X138123528Y-63134031D01*
X138142526Y-63201268D01*
X138123529Y-63265966D01*
X138119547Y-63272303D01*
X138119545Y-63272308D01*
X138119544Y-63272310D01*
X138071531Y-63409524D01*
X138063686Y-63431945D01*
X138044750Y-63599999D01*
X138063686Y-63768056D01*
X138119544Y-63927691D01*
X138123528Y-63934031D01*
X138142526Y-64001268D01*
X138123529Y-64065966D01*
X138119547Y-64072303D01*
X138119545Y-64072308D01*
X138119544Y-64072310D01*
X138063687Y-64231941D01*
X138063686Y-64231945D01*
X138044750Y-64400000D01*
X138052378Y-64467697D01*
X138040324Y-64536519D01*
X137995133Y-64586573D01*
X137958610Y-64609522D01*
X137950159Y-64617974D01*
X137888835Y-64651457D01*
X137819143Y-64646471D01*
X137763211Y-64604598D01*
X137738796Y-64539133D01*
X137739260Y-64516406D01*
X137755249Y-64374499D01*
X137742009Y-64256991D01*
X137736313Y-64206441D01*
X137680456Y-64046810D01*
X137590477Y-63903610D01*
X137470890Y-63784023D01*
X137327690Y-63694044D01*
X137168059Y-63638187D01*
X137168058Y-63638186D01*
X137168056Y-63638186D01*
X136999999Y-63619250D01*
X136831943Y-63638186D01*
X136672310Y-63694044D01*
X136529108Y-63784024D01*
X136409524Y-63903608D01*
X136319544Y-64046810D01*
X136263686Y-64206443D01*
X136244750Y-64374499D01*
X136263686Y-64542556D01*
X136263686Y-64542558D01*
X136263687Y-64542559D01*
X136319544Y-64702190D01*
X136409523Y-64845390D01*
X136529110Y-64964977D01*
X136672310Y-65054956D01*
X136831941Y-65110813D01*
X136915970Y-65120281D01*
X136999998Y-65129749D01*
X136999998Y-65129748D01*
X137000000Y-65129749D01*
X137038151Y-65125450D01*
X137106972Y-65137503D01*
X137158353Y-65184852D01*
X137175978Y-65252462D01*
X137154253Y-65318868D01*
X137118009Y-65353663D01*
X137029109Y-65409523D01*
X136909524Y-65529108D01*
X136819544Y-65672310D01*
X136763686Y-65831943D01*
X136744750Y-66000000D01*
X136758419Y-66121316D01*
X136746364Y-66190138D01*
X136699015Y-66241517D01*
X136631405Y-66259141D01*
X136621316Y-66258419D01*
X136500000Y-66244750D01*
X136331943Y-66263686D01*
X136172310Y-66319544D01*
X136029108Y-66409524D01*
X135909524Y-66529108D01*
X135819544Y-66672310D01*
X135763686Y-66831943D01*
X135744750Y-66999999D01*
X135763686Y-67168056D01*
X135763686Y-67168058D01*
X135763687Y-67168059D01*
X135819544Y-67327690D01*
X135909523Y-67470890D01*
X136029110Y-67590477D01*
X136172310Y-67680456D01*
X136331941Y-67736313D01*
X136352230Y-67738599D01*
X136355016Y-67738913D01*
X136419431Y-67765979D01*
X136458986Y-67823573D01*
X136464354Y-67876017D01*
X136444750Y-68049999D01*
X136463686Y-68218056D01*
X136463686Y-68218058D01*
X136463687Y-68218059D01*
X136519544Y-68377690D01*
X136609085Y-68520193D01*
X136609524Y-68520891D01*
X136695825Y-68607192D01*
X136729310Y-68668515D01*
X136724326Y-68738207D01*
X136695825Y-68782554D01*
X135714700Y-69763681D01*
X135653377Y-69797166D01*
X135627019Y-69800000D01*
X132450876Y-69800000D01*
X132384904Y-69780994D01*
X132327690Y-69745044D01*
X132168056Y-69689186D01*
X131999999Y-69670250D01*
X131831943Y-69689186D01*
X131672310Y-69745044D01*
X131529108Y-69835024D01*
X131409524Y-69954608D01*
X131319544Y-70097810D01*
X131263686Y-70257443D01*
X131262848Y-70264884D01*
X131235781Y-70329298D01*
X131178186Y-70368853D01*
X131139628Y-70375000D01*
X127585953Y-70375000D01*
X127518914Y-70355315D01*
X127498272Y-70338681D01*
X127104473Y-69944882D01*
X127075112Y-69898155D01*
X127073813Y-69894443D01*
X127073813Y-69894441D01*
X127017956Y-69734810D01*
X126927977Y-69591610D01*
X126808390Y-69472023D01*
X126665190Y-69382044D01*
X126505559Y-69326187D01*
X126505558Y-69326186D01*
X126505556Y-69326186D01*
X126337500Y-69307250D01*
X126169443Y-69326186D01*
X126009810Y-69382044D01*
X125866608Y-69472024D01*
X125747024Y-69591608D01*
X125657044Y-69734810D01*
X125601186Y-69894443D01*
X125582250Y-70062500D01*
X123700000Y-70062500D01*
X123700000Y-69863746D01*
X123719684Y-69796711D01*
X123772487Y-69750956D01*
X123837883Y-69740530D01*
X123968518Y-69755249D01*
X124136577Y-69736313D01*
X124296208Y-69680456D01*
X124439408Y-69590477D01*
X124558995Y-69470890D01*
X124648974Y-69327690D01*
X124704831Y-69168059D01*
X124723767Y-69000000D01*
X124704831Y-68831941D01*
X124648974Y-68672310D01*
X124558995Y-68529110D01*
X124439408Y-68409523D01*
X124296208Y-68319544D01*
X124136577Y-68263687D01*
X124136576Y-68263686D01*
X124136574Y-68263686D01*
X123968517Y-68244750D01*
X123837882Y-68259469D01*
X123769060Y-68247414D01*
X123717681Y-68200065D01*
X123700000Y-68136252D01*
X123700000Y-67945359D01*
X129199391Y-67945359D01*
X129218327Y-68113415D01*
X129218327Y-68113417D01*
X129218328Y-68113418D01*
X129274185Y-68273049D01*
X129364164Y-68416249D01*
X129483751Y-68535836D01*
X129626951Y-68625815D01*
X129786582Y-68681672D01*
X129954641Y-68700608D01*
X130122700Y-68681672D01*
X130282331Y-68625815D01*
X130425531Y-68535836D01*
X130439867Y-68521498D01*
X130501188Y-68488013D01*
X130570880Y-68492996D01*
X130615229Y-68521498D01*
X130634210Y-68540478D01*
X130777410Y-68630457D01*
X130937041Y-68686314D01*
X131049080Y-68698937D01*
X131105099Y-68705250D01*
X131105099Y-68705249D01*
X131105100Y-68705250D01*
X131273159Y-68686314D01*
X131432790Y-68630457D01*
X131575990Y-68540478D01*
X131695577Y-68420891D01*
X131785556Y-68277691D01*
X131841413Y-68118060D01*
X131860349Y-67950001D01*
X131841413Y-67781942D01*
X131785556Y-67622311D01*
X131777892Y-67610114D01*
X131758893Y-67542880D01*
X131779261Y-67476044D01*
X131832528Y-67430830D01*
X131901785Y-67421592D01*
X131923842Y-67427103D01*
X131954812Y-67437940D01*
X132122872Y-67456876D01*
X132290931Y-67437940D01*
X132450562Y-67382083D01*
X132593762Y-67292104D01*
X132713349Y-67172517D01*
X132803328Y-67029317D01*
X132859185Y-66869686D01*
X132878121Y-66701627D01*
X132859185Y-66533568D01*
X132803328Y-66373937D01*
X132713349Y-66230737D01*
X132593762Y-66111150D01*
X132450562Y-66021171D01*
X132290931Y-65965314D01*
X132290930Y-65965313D01*
X132290928Y-65965313D01*
X132122872Y-65946377D01*
X131954813Y-65965313D01*
X131895552Y-65986049D01*
X131825773Y-65989610D01*
X131765146Y-65954880D01*
X131732920Y-65892886D01*
X131730599Y-65869016D01*
X131730599Y-62775343D01*
X131732863Y-62754845D01*
X131732771Y-62751933D01*
X131732772Y-62751932D01*
X131730661Y-62684744D01*
X131730600Y-62680850D01*
X131730600Y-62657144D01*
X131730600Y-62653250D01*
X131730098Y-62649281D01*
X131729180Y-62637624D01*
X131727809Y-62593973D01*
X131722220Y-62574737D01*
X131718276Y-62555693D01*
X131715764Y-62535808D01*
X131699682Y-62495191D01*
X131695898Y-62484140D01*
X131683717Y-62442210D01*
X131673521Y-62424969D01*
X131664963Y-62407502D01*
X131657586Y-62388868D01*
X131631898Y-62353512D01*
X131625509Y-62343784D01*
X131603270Y-62306179D01*
X131589106Y-62292015D01*
X131576469Y-62277220D01*
X131564695Y-62261014D01*
X131564694Y-62261013D01*
X131531035Y-62233168D01*
X131522405Y-62225314D01*
X131179473Y-61882382D01*
X131150112Y-61835655D01*
X131148813Y-61831943D01*
X131148813Y-61831941D01*
X131092956Y-61672310D01*
X131002977Y-61529110D01*
X130883390Y-61409523D01*
X130740190Y-61319544D01*
X130580559Y-61263687D01*
X130580558Y-61263686D01*
X130580556Y-61263686D01*
X130412500Y-61244750D01*
X130244443Y-61263686D01*
X130084810Y-61319544D01*
X129941608Y-61409524D01*
X129822024Y-61529108D01*
X129732044Y-61672310D01*
X129676186Y-61831943D01*
X129657250Y-61999999D01*
X129676186Y-62168056D01*
X129676186Y-62168058D01*
X129676187Y-62168059D01*
X129732044Y-62327690D01*
X129822023Y-62470890D01*
X129941610Y-62590477D01*
X130084810Y-62680456D01*
X130244441Y-62736313D01*
X130244442Y-62736313D01*
X130248157Y-62737613D01*
X130294884Y-62766974D01*
X130443281Y-62915371D01*
X130476766Y-62976694D01*
X130479600Y-63003052D01*
X130479600Y-67164494D01*
X130459915Y-67231533D01*
X130407111Y-67277288D01*
X130337953Y-67287232D01*
X130289630Y-67269489D01*
X130282331Y-67264903D01*
X130122700Y-67209046D01*
X130122699Y-67209045D01*
X130122697Y-67209045D01*
X129954640Y-67190109D01*
X129786584Y-67209045D01*
X129626951Y-67264903D01*
X129483749Y-67354883D01*
X129364165Y-67474467D01*
X129274185Y-67617669D01*
X129218327Y-67777302D01*
X129199391Y-67945359D01*
X123700000Y-67945359D01*
X123700000Y-67800000D01*
X123000000Y-67000000D01*
X122999999Y-67000000D01*
X121851362Y-67000000D01*
X121784323Y-66980315D01*
X121763681Y-66963681D01*
X121036319Y-66236319D01*
X121002834Y-66174996D01*
X121000000Y-66148638D01*
X121000000Y-66049998D01*
X127644750Y-66049998D01*
X127663686Y-66218055D01*
X127663686Y-66218057D01*
X127663687Y-66218058D01*
X127719544Y-66377689D01*
X127809523Y-66520889D01*
X127929110Y-66640476D01*
X128072310Y-66730455D01*
X128231941Y-66786312D01*
X128400000Y-66805248D01*
X128568059Y-66786312D01*
X128727690Y-66730455D01*
X128870890Y-66640476D01*
X128990477Y-66520889D01*
X129080456Y-66377689D01*
X129136313Y-66218058D01*
X129155249Y-66049999D01*
X129136313Y-65881940D01*
X129080456Y-65722309D01*
X128990477Y-65579109D01*
X128870890Y-65459522D01*
X128727690Y-65369543D01*
X128568059Y-65313686D01*
X128568058Y-65313685D01*
X128568056Y-65313685D01*
X128399999Y-65294749D01*
X128231943Y-65313685D01*
X128072310Y-65369543D01*
X127929108Y-65459523D01*
X127809524Y-65579107D01*
X127719544Y-65722309D01*
X127663686Y-65881942D01*
X127644750Y-66049998D01*
X121000000Y-66049998D01*
X121000000Y-64200000D01*
X120800000Y-64000000D01*
X127832250Y-64000000D01*
X127851186Y-64168056D01*
X127851186Y-64168058D01*
X127851187Y-64168059D01*
X127907044Y-64327690D01*
X127997023Y-64470890D01*
X128116610Y-64590477D01*
X128259810Y-64680456D01*
X128419441Y-64736313D01*
X128587500Y-64755249D01*
X128755559Y-64736313D01*
X128915190Y-64680456D01*
X129058390Y-64590477D01*
X129177977Y-64470890D01*
X129267956Y-64327690D01*
X129323813Y-64168059D01*
X129342749Y-64000000D01*
X129323813Y-63831941D01*
X129267956Y-63672310D01*
X129177977Y-63529110D01*
X129058390Y-63409523D01*
X128915190Y-63319544D01*
X128755559Y-63263687D01*
X128755558Y-63263686D01*
X128755556Y-63263686D01*
X128587500Y-63244750D01*
X128419443Y-63263686D01*
X128259810Y-63319544D01*
X128116608Y-63409524D01*
X127997024Y-63529108D01*
X127907044Y-63672310D01*
X127851186Y-63831943D01*
X127832250Y-64000000D01*
X120800000Y-64000000D01*
X120762050Y-63962050D01*
X120728565Y-63900727D01*
X120733549Y-63831035D01*
X120775421Y-63775102D01*
X120840885Y-63750685D01*
X120863610Y-63751148D01*
X120900000Y-63755249D01*
X120900001Y-63755248D01*
X120900002Y-63755249D01*
X120967223Y-63747674D01*
X121068059Y-63736313D01*
X121227690Y-63680456D01*
X121370890Y-63590477D01*
X121490477Y-63470890D01*
X121580456Y-63327690D01*
X121636313Y-63168059D01*
X121655249Y-63000000D01*
X121636313Y-62831941D01*
X121580456Y-62672310D01*
X121490477Y-62529110D01*
X121370890Y-62409523D01*
X121227690Y-62319544D01*
X121068059Y-62263687D01*
X121068058Y-62263686D01*
X121068056Y-62263686D01*
X120900000Y-62244750D01*
X120731943Y-62263686D01*
X120572310Y-62319544D01*
X120429108Y-62409524D01*
X120309524Y-62529108D01*
X120219544Y-62672310D01*
X120163686Y-62831943D01*
X120144750Y-62999999D01*
X120163686Y-63168056D01*
X120163686Y-63168058D01*
X120163687Y-63168059D01*
X120219544Y-63327690D01*
X120309523Y-63470890D01*
X120309524Y-63470891D01*
X120426952Y-63588319D01*
X120460437Y-63649642D01*
X120455453Y-63719334D01*
X120413581Y-63775267D01*
X120348117Y-63799684D01*
X120339271Y-63800000D01*
X119899999Y-63800000D01*
X119500000Y-64199999D01*
X119500000Y-66148637D01*
X119480315Y-66215676D01*
X119463681Y-66236318D01*
X118736319Y-66963681D01*
X118674996Y-66997166D01*
X118648638Y-67000000D01*
X118099999Y-67000000D01*
X117300000Y-67799999D01*
X117300000Y-68414198D01*
X117290058Y-68448053D01*
X117298141Y-68464407D01*
X117300000Y-68485801D01*
X117300000Y-70939270D01*
X117280315Y-71006309D01*
X117227511Y-71052064D01*
X117158353Y-71062008D01*
X117094797Y-71032983D01*
X117088319Y-71026952D01*
X117067676Y-71006309D01*
X116970890Y-70909523D01*
X116827690Y-70819544D01*
X116668059Y-70763687D01*
X116668058Y-70763686D01*
X116668056Y-70763686D01*
X116500000Y-70744750D01*
X116331943Y-70763686D01*
X116172310Y-70819544D01*
X116029108Y-70909524D01*
X115909524Y-71029108D01*
X115819544Y-71172310D01*
X115763686Y-71331943D01*
X115744750Y-71500000D01*
X111193982Y-71500000D01*
X111186313Y-71431941D01*
X111130456Y-71272310D01*
X111040477Y-71129110D01*
X110920890Y-71009523D01*
X110777690Y-70919544D01*
X110618059Y-70863687D01*
X110618058Y-70863686D01*
X110618056Y-70863686D01*
X110450000Y-70844750D01*
X110281943Y-70863686D01*
X110122310Y-70919544D01*
X109979108Y-71009524D01*
X109859524Y-71129108D01*
X109769543Y-71272311D01*
X109746540Y-71338049D01*
X109705818Y-71394824D01*
X109640865Y-71420571D01*
X109572303Y-71407114D01*
X109521901Y-71358726D01*
X109505500Y-71297096D01*
X109505500Y-69996848D01*
X109525185Y-69929808D01*
X109577989Y-69884054D01*
X109647147Y-69874110D01*
X109670455Y-69879806D01*
X109672306Y-69880453D01*
X109672310Y-69880456D01*
X109831941Y-69936313D01*
X110000000Y-69955249D01*
X110168059Y-69936313D01*
X110327690Y-69880456D01*
X110470890Y-69790477D01*
X110590477Y-69670890D01*
X110680456Y-69527690D01*
X110736313Y-69368059D01*
X110755249Y-69200000D01*
X110736313Y-69031941D01*
X110680456Y-68872310D01*
X110590477Y-68729110D01*
X110470890Y-68609523D01*
X110327690Y-68519544D01*
X110168059Y-68463687D01*
X110168058Y-68463686D01*
X110168056Y-68463686D01*
X110046585Y-68449999D01*
X115544750Y-68449999D01*
X115563686Y-68618056D01*
X115563686Y-68618058D01*
X115563687Y-68618059D01*
X115619544Y-68777690D01*
X115709523Y-68920890D01*
X115829110Y-69040477D01*
X115972310Y-69130456D01*
X116131941Y-69186313D01*
X116300000Y-69205249D01*
X116468059Y-69186313D01*
X116627690Y-69130456D01*
X116770890Y-69040477D01*
X116890477Y-68920890D01*
X116980456Y-68777690D01*
X117036313Y-68618059D01*
X117043021Y-68558522D01*
X117052780Y-68471917D01*
X117060246Y-68454148D01*
X117057023Y-68449133D01*
X117052780Y-68428082D01*
X117036313Y-68281943D01*
X117036313Y-68281941D01*
X116980456Y-68122310D01*
X116890477Y-67979110D01*
X116770890Y-67859523D01*
X116627690Y-67769544D01*
X116468059Y-67713687D01*
X116468058Y-67713686D01*
X116468056Y-67713686D01*
X116299999Y-67694750D01*
X116131943Y-67713686D01*
X115972310Y-67769544D01*
X115829108Y-67859524D01*
X115709524Y-67979108D01*
X115619544Y-68122310D01*
X115563686Y-68281943D01*
X115544750Y-68449999D01*
X110046585Y-68449999D01*
X110000000Y-68444750D01*
X109831943Y-68463686D01*
X109670454Y-68520193D01*
X109600675Y-68523754D01*
X109540048Y-68489025D01*
X109507821Y-68427031D01*
X109505500Y-68403151D01*
X109505500Y-66386100D01*
X111444750Y-66386100D01*
X111463686Y-66554156D01*
X111463686Y-66554158D01*
X111463687Y-66554159D01*
X111519544Y-66713790D01*
X111609523Y-66856990D01*
X111729110Y-66976577D01*
X111872310Y-67066556D01*
X112031941Y-67122413D01*
X112143980Y-67135036D01*
X112199999Y-67141349D01*
X112199999Y-67141348D01*
X112200000Y-67141349D01*
X112368059Y-67122413D01*
X112527690Y-67066556D01*
X112670890Y-66976577D01*
X112790477Y-66856990D01*
X112880456Y-66713790D01*
X112936313Y-66554159D01*
X112955249Y-66386100D01*
X112936313Y-66218041D01*
X112880456Y-66058410D01*
X112790477Y-65915210D01*
X112670890Y-65795623D01*
X112527690Y-65705644D01*
X112368059Y-65649787D01*
X112368058Y-65649786D01*
X112368056Y-65649786D01*
X112200000Y-65630850D01*
X112031943Y-65649786D01*
X111872310Y-65705644D01*
X111729108Y-65795624D01*
X111609524Y-65915208D01*
X111519544Y-66058410D01*
X111463686Y-66218043D01*
X111444750Y-66386100D01*
X109505500Y-66386100D01*
X109505500Y-63786099D01*
X111444750Y-63786099D01*
X111463686Y-63954156D01*
X111463686Y-63954158D01*
X111463687Y-63954159D01*
X111519544Y-64113790D01*
X111609523Y-64256990D01*
X111729110Y-64376577D01*
X111872310Y-64466556D01*
X112031941Y-64522413D01*
X112200000Y-64541349D01*
X112368059Y-64522413D01*
X112527690Y-64466556D01*
X112670890Y-64376577D01*
X112790477Y-64256990D01*
X112880456Y-64113790D01*
X112936313Y-63954159D01*
X112955249Y-63786100D01*
X112953402Y-63769712D01*
X115795250Y-63769712D01*
X115814186Y-63937768D01*
X115814186Y-63937770D01*
X115814187Y-63937771D01*
X115870044Y-64097402D01*
X115960023Y-64240602D01*
X116079610Y-64360189D01*
X116222810Y-64450168D01*
X116382441Y-64506025D01*
X116550500Y-64524961D01*
X116718559Y-64506025D01*
X116878190Y-64450168D01*
X117021390Y-64360189D01*
X117140977Y-64240602D01*
X117230956Y-64097402D01*
X117286813Y-63937771D01*
X117305749Y-63769712D01*
X117305562Y-63768056D01*
X117288660Y-63618043D01*
X117286813Y-63601653D01*
X117230956Y-63442022D01*
X117140977Y-63298822D01*
X117021390Y-63179235D01*
X116878190Y-63089256D01*
X116718559Y-63033399D01*
X116718558Y-63033398D01*
X116718556Y-63033398D01*
X116550500Y-63014462D01*
X116382443Y-63033398D01*
X116222810Y-63089256D01*
X116079608Y-63179236D01*
X115960024Y-63298820D01*
X115870044Y-63442022D01*
X115814186Y-63601655D01*
X115795250Y-63769712D01*
X112953402Y-63769712D01*
X112944877Y-63694044D01*
X112936313Y-63618041D01*
X112880456Y-63458410D01*
X112790477Y-63315210D01*
X112670890Y-63195623D01*
X112527690Y-63105644D01*
X112368059Y-63049787D01*
X112368058Y-63049786D01*
X112368056Y-63049786D01*
X112199999Y-63030850D01*
X112031943Y-63049786D01*
X111872310Y-63105644D01*
X111729108Y-63195624D01*
X111609524Y-63315208D01*
X111519544Y-63458410D01*
X111463686Y-63618043D01*
X111444750Y-63786099D01*
X109505500Y-63786099D01*
X109505500Y-62000000D01*
X127832250Y-62000000D01*
X127851186Y-62168056D01*
X127851186Y-62168058D01*
X127851187Y-62168059D01*
X127907044Y-62327690D01*
X127997023Y-62470890D01*
X128116610Y-62590477D01*
X128259810Y-62680456D01*
X128419441Y-62736313D01*
X128587500Y-62755249D01*
X128755559Y-62736313D01*
X128915190Y-62680456D01*
X129058390Y-62590477D01*
X129177977Y-62470890D01*
X129267956Y-62327690D01*
X129323813Y-62168059D01*
X129342749Y-62000000D01*
X129323813Y-61831941D01*
X129267956Y-61672310D01*
X129177977Y-61529110D01*
X129058390Y-61409523D01*
X128915190Y-61319544D01*
X128755559Y-61263687D01*
X128755558Y-61263686D01*
X128755556Y-61263686D01*
X128587500Y-61244750D01*
X128419443Y-61263686D01*
X128259810Y-61319544D01*
X128116608Y-61409524D01*
X127997024Y-61529108D01*
X127907044Y-61672310D01*
X127851186Y-61831943D01*
X127832250Y-62000000D01*
X109505500Y-62000000D01*
X109505500Y-60986099D01*
X111444750Y-60986099D01*
X111463686Y-61154156D01*
X111463686Y-61154158D01*
X111463687Y-61154159D01*
X111519544Y-61313790D01*
X111609523Y-61456990D01*
X111729110Y-61576577D01*
X111872310Y-61666556D01*
X112031941Y-61722413D01*
X112200000Y-61741349D01*
X112368059Y-61722413D01*
X112527690Y-61666556D01*
X112670890Y-61576577D01*
X112790477Y-61456990D01*
X112880456Y-61313790D01*
X112936313Y-61154159D01*
X112955249Y-60986100D01*
X112955169Y-60985394D01*
X112936313Y-60818043D01*
X112936313Y-60818041D01*
X112880456Y-60658410D01*
X112790477Y-60515210D01*
X112670890Y-60395623D01*
X112527690Y-60305644D01*
X112368059Y-60249787D01*
X112368058Y-60249786D01*
X112368056Y-60249786D01*
X112199999Y-60230850D01*
X112031943Y-60249786D01*
X111872310Y-60305644D01*
X111729108Y-60395624D01*
X111609524Y-60515208D01*
X111519544Y-60658410D01*
X111463686Y-60818043D01*
X111444750Y-60986099D01*
X109505500Y-60986099D01*
X109505500Y-60360729D01*
X109505176Y-60342564D01*
X109504854Y-60333612D01*
X109503898Y-60315829D01*
X109498205Y-60289657D01*
X109473312Y-60175228D01*
X109448895Y-60109764D01*
X109381766Y-59986826D01*
X109379943Y-59983487D01*
X109305980Y-59909523D01*
X109278207Y-59881749D01*
X109262705Y-59870144D01*
X109220834Y-59814210D01*
X109215577Y-59745805D01*
X109217255Y-59737676D01*
X109217257Y-59737673D01*
X109232450Y-59664088D01*
X109233186Y-59660771D01*
X109250500Y-59587721D01*
X109250500Y-59587716D01*
X109250791Y-59586489D01*
X109252770Y-59567121D01*
X109252733Y-59565859D01*
X109252734Y-59565856D01*
X109250552Y-59490868D01*
X109250500Y-59487262D01*
X109250500Y-58386100D01*
X111444750Y-58386100D01*
X111463686Y-58554156D01*
X111463686Y-58554158D01*
X111463687Y-58554159D01*
X111519544Y-58713790D01*
X111609523Y-58856990D01*
X111729110Y-58976577D01*
X111872310Y-59066556D01*
X112031941Y-59122413D01*
X112143980Y-59135036D01*
X112199999Y-59141349D01*
X112199999Y-59141348D01*
X112200000Y-59141349D01*
X112368059Y-59122413D01*
X112527690Y-59066556D01*
X112633613Y-59000000D01*
X114769250Y-59000000D01*
X114788186Y-59168056D01*
X114788186Y-59168058D01*
X114788187Y-59168059D01*
X114844044Y-59327690D01*
X114914389Y-59439643D01*
X114933389Y-59506878D01*
X114914389Y-59571584D01*
X114892854Y-59605856D01*
X114863027Y-59653326D01*
X114807169Y-59812960D01*
X114788233Y-59981017D01*
X114807169Y-60149073D01*
X114807169Y-60149075D01*
X114807170Y-60149076D01*
X114863027Y-60308707D01*
X114953006Y-60451907D01*
X115072593Y-60571494D01*
X115215793Y-60661473D01*
X115375424Y-60717330D01*
X115442647Y-60724904D01*
X115543480Y-60736266D01*
X115543481Y-60736265D01*
X115543483Y-60736266D01*
X115584304Y-60731666D01*
X115653124Y-60743719D01*
X115704504Y-60791067D01*
X115715229Y-60813931D01*
X115720042Y-60827687D01*
X115720044Y-60827690D01*
X115810023Y-60970890D01*
X115929610Y-61090477D01*
X116072810Y-61180456D01*
X116232441Y-61236313D01*
X116344480Y-61248936D01*
X116400499Y-61255249D01*
X116400499Y-61255248D01*
X116400500Y-61255249D01*
X116568559Y-61236313D01*
X116728190Y-61180456D01*
X116871390Y-61090477D01*
X116961868Y-60999999D01*
X118332250Y-60999999D01*
X118351186Y-61168056D01*
X118351186Y-61168058D01*
X118351187Y-61168059D01*
X118407044Y-61327690D01*
X118497023Y-61470890D01*
X118616610Y-61590477D01*
X118759810Y-61680456D01*
X118919441Y-61736313D01*
X119031480Y-61748936D01*
X119087499Y-61755249D01*
X119087499Y-61755248D01*
X119087500Y-61755249D01*
X119255559Y-61736313D01*
X119415190Y-61680456D01*
X119558390Y-61590477D01*
X119677977Y-61470890D01*
X119767956Y-61327690D01*
X119823813Y-61168059D01*
X119842749Y-61000000D01*
X119823813Y-60831941D01*
X119767956Y-60672310D01*
X119677977Y-60529110D01*
X119558390Y-60409523D01*
X119415190Y-60319544D01*
X119255559Y-60263687D01*
X119255558Y-60263686D01*
X119255556Y-60263686D01*
X119087500Y-60244750D01*
X118919443Y-60263686D01*
X118759810Y-60319544D01*
X118616608Y-60409524D01*
X118497024Y-60529108D01*
X118407044Y-60672310D01*
X118351186Y-60831943D01*
X118332250Y-60999999D01*
X116961868Y-60999999D01*
X116990977Y-60970890D01*
X117080956Y-60827690D01*
X117136813Y-60668059D01*
X117155749Y-60500000D01*
X117155661Y-60499223D01*
X117149436Y-60443980D01*
X117136813Y-60331941D01*
X117080956Y-60172310D01*
X116990977Y-60029110D01*
X116871390Y-59909523D01*
X116728190Y-59819544D01*
X116568559Y-59763687D01*
X116568558Y-59763686D01*
X116568556Y-59763686D01*
X116400502Y-59744750D01*
X116359676Y-59749350D01*
X116290854Y-59737294D01*
X116239475Y-59689944D01*
X116228752Y-59667083D01*
X116227744Y-59664203D01*
X116223939Y-59653327D01*
X116222293Y-59650708D01*
X116203312Y-59620500D01*
X116153593Y-59541372D01*
X116134593Y-59474139D01*
X116153593Y-59409433D01*
X116204956Y-59327690D01*
X116260813Y-59168059D01*
X116279749Y-59000000D01*
X116279749Y-58999999D01*
X118332250Y-58999999D01*
X118351186Y-59168056D01*
X118351186Y-59168058D01*
X118351187Y-59168059D01*
X118407044Y-59327690D01*
X118497023Y-59470890D01*
X118616610Y-59590477D01*
X118759810Y-59680456D01*
X118919441Y-59736313D01*
X119031480Y-59748936D01*
X119087499Y-59755249D01*
X119087499Y-59755248D01*
X119087500Y-59755249D01*
X119255559Y-59736313D01*
X119415190Y-59680456D01*
X119558390Y-59590477D01*
X119677977Y-59470890D01*
X119767956Y-59327690D01*
X119823813Y-59168059D01*
X119842749Y-59000000D01*
X119823813Y-58831941D01*
X119767956Y-58672310D01*
X119740487Y-58628594D01*
X119721487Y-58561359D01*
X119741854Y-58494524D01*
X119795122Y-58449310D01*
X119859365Y-58439403D01*
X119999999Y-58455249D01*
X119999999Y-58455248D01*
X120000000Y-58455249D01*
X120140634Y-58439403D01*
X120209456Y-58451457D01*
X120260835Y-58498806D01*
X120278460Y-58566416D01*
X120259512Y-58628595D01*
X120232044Y-58672309D01*
X120176186Y-58831943D01*
X120157250Y-58999999D01*
X120176186Y-59168056D01*
X120176186Y-59168058D01*
X120176187Y-59168059D01*
X120232044Y-59327690D01*
X120322023Y-59470890D01*
X120441610Y-59590477D01*
X120584810Y-59680456D01*
X120744441Y-59736313D01*
X120856480Y-59748936D01*
X120912499Y-59755249D01*
X120912499Y-59755248D01*
X120912500Y-59755249D01*
X121080559Y-59736313D01*
X121240190Y-59680456D01*
X121383390Y-59590477D01*
X121473867Y-59500000D01*
X126244750Y-59500000D01*
X126263686Y-59668056D01*
X126263686Y-59668058D01*
X126263687Y-59668059D01*
X126319544Y-59827690D01*
X126409523Y-59970890D01*
X126529110Y-60090477D01*
X126672310Y-60180456D01*
X126831941Y-60236313D01*
X127000000Y-60255249D01*
X127168059Y-60236313D01*
X127327690Y-60180456D01*
X127470890Y-60090477D01*
X127590477Y-59970890D01*
X127680456Y-59827690D01*
X127683579Y-59818766D01*
X128375983Y-59818766D01*
X128394919Y-59986823D01*
X128394919Y-59986825D01*
X128394920Y-59986826D01*
X128450777Y-60146457D01*
X128540756Y-60289657D01*
X128660343Y-60409244D01*
X128803543Y-60499223D01*
X128963174Y-60555080D01*
X129131233Y-60574016D01*
X129299292Y-60555080D01*
X129458923Y-60499223D01*
X129602123Y-60409244D01*
X129721710Y-60289657D01*
X129811689Y-60146457D01*
X129867546Y-59986826D01*
X129871695Y-59950001D01*
X130349850Y-59950001D01*
X130368786Y-60118057D01*
X130368786Y-60118059D01*
X130368787Y-60118060D01*
X130424644Y-60277691D01*
X130514623Y-60420891D01*
X130634210Y-60540478D01*
X130777410Y-60630457D01*
X130937041Y-60686314D01*
X131049080Y-60698937D01*
X131105099Y-60705250D01*
X131105099Y-60705249D01*
X131105100Y-60705250D01*
X131273159Y-60686314D01*
X131432790Y-60630457D01*
X131575990Y-60540478D01*
X131695577Y-60420891D01*
X131785556Y-60277691D01*
X131841413Y-60118060D01*
X131860349Y-59950001D01*
X131841413Y-59781942D01*
X131785556Y-59622311D01*
X131695577Y-59479111D01*
X131575990Y-59359524D01*
X131432790Y-59269545D01*
X131273159Y-59213688D01*
X131273158Y-59213687D01*
X131273156Y-59213687D01*
X131105100Y-59194751D01*
X130937043Y-59213687D01*
X130777410Y-59269545D01*
X130634208Y-59359525D01*
X130514624Y-59479109D01*
X130424644Y-59622311D01*
X130368786Y-59781944D01*
X130349850Y-59950001D01*
X129871695Y-59950001D01*
X129886482Y-59818767D01*
X129885827Y-59812958D01*
X129877302Y-59737294D01*
X129867546Y-59650708D01*
X129811689Y-59491077D01*
X129721710Y-59347877D01*
X129602123Y-59228290D01*
X129458923Y-59138311D01*
X129299292Y-59082454D01*
X129299291Y-59082453D01*
X129299289Y-59082453D01*
X129131233Y-59063517D01*
X128963176Y-59082453D01*
X128803543Y-59138311D01*
X128660341Y-59228291D01*
X128540757Y-59347875D01*
X128450777Y-59491077D01*
X128394919Y-59650710D01*
X128375983Y-59818766D01*
X127683579Y-59818766D01*
X127736313Y-59668059D01*
X127749250Y-59553236D01*
X127776316Y-59488824D01*
X127806494Y-59462129D01*
X127919738Y-59390974D01*
X128039325Y-59271387D01*
X128129304Y-59128187D01*
X128185161Y-58968556D01*
X128192140Y-58906611D01*
X128219206Y-58842199D01*
X128276800Y-58802644D01*
X128329244Y-58797276D01*
X128400000Y-58805248D01*
X128568059Y-58786312D01*
X128727690Y-58730455D01*
X128870890Y-58640476D01*
X128990477Y-58520889D01*
X129080456Y-58377689D01*
X129136313Y-58218058D01*
X129151917Y-58079573D01*
X130344776Y-58079573D01*
X130363712Y-58247629D01*
X130363712Y-58247631D01*
X130363713Y-58247632D01*
X130419570Y-58407263D01*
X130509549Y-58550463D01*
X130629136Y-58670050D01*
X130772336Y-58760029D01*
X130931967Y-58815886D01*
X131100026Y-58834822D01*
X131268085Y-58815886D01*
X131427716Y-58760029D01*
X131570916Y-58670050D01*
X131690503Y-58550463D01*
X131780482Y-58407263D01*
X131836339Y-58247632D01*
X131855275Y-58079573D01*
X131854354Y-58071403D01*
X131836339Y-57911516D01*
X131836339Y-57911514D01*
X131780482Y-57751883D01*
X131690503Y-57608683D01*
X131570916Y-57489096D01*
X131427716Y-57399117D01*
X131268085Y-57343260D01*
X131268084Y-57343259D01*
X131268082Y-57343259D01*
X131100026Y-57324323D01*
X130931969Y-57343259D01*
X130772336Y-57399117D01*
X130629134Y-57489097D01*
X130509550Y-57608681D01*
X130419570Y-57751883D01*
X130363712Y-57911516D01*
X130344776Y-58079573D01*
X129151917Y-58079573D01*
X129155249Y-58049999D01*
X129152735Y-58027691D01*
X129137275Y-57890477D01*
X129136313Y-57881940D01*
X129080456Y-57722309D01*
X128990477Y-57579109D01*
X128870890Y-57459522D01*
X128727690Y-57369543D01*
X128568059Y-57313686D01*
X128568058Y-57313685D01*
X128568056Y-57313685D01*
X128399999Y-57294749D01*
X128231943Y-57313685D01*
X128072307Y-57369544D01*
X128012005Y-57407434D01*
X127944768Y-57426434D01*
X127877933Y-57406066D01*
X127858353Y-57390121D01*
X127765434Y-57297202D01*
X127765433Y-57297201D01*
X127622233Y-57207222D01*
X127462602Y-57151365D01*
X127462601Y-57151364D01*
X127462599Y-57151364D01*
X127294542Y-57132428D01*
X127126486Y-57151364D01*
X126966853Y-57207222D01*
X126823651Y-57297202D01*
X126704067Y-57416786D01*
X126614087Y-57559988D01*
X126558229Y-57719621D01*
X126539293Y-57887678D01*
X126558229Y-58055734D01*
X126558229Y-58055736D01*
X126558230Y-58055737D01*
X126614087Y-58215368D01*
X126704066Y-58358568D01*
X126704067Y-58358569D01*
X126726236Y-58380738D01*
X126759721Y-58442061D01*
X126755597Y-58509373D01*
X126712534Y-58632440D01*
X126699596Y-58747261D01*
X126672529Y-58811675D01*
X126642349Y-58838369D01*
X126529109Y-58909523D01*
X126409524Y-59029108D01*
X126319544Y-59172310D01*
X126263686Y-59331943D01*
X126244750Y-59500000D01*
X121473867Y-59500000D01*
X121502977Y-59470890D01*
X121592956Y-59327690D01*
X121648813Y-59168059D01*
X121667749Y-59000000D01*
X121648813Y-58831941D01*
X121592956Y-58672310D01*
X121502977Y-58529110D01*
X121383390Y-58409523D01*
X121240190Y-58319544D01*
X121080559Y-58263687D01*
X121080558Y-58263686D01*
X121080556Y-58263686D01*
X120912499Y-58244750D01*
X120771865Y-58260596D01*
X120703043Y-58248542D01*
X120651663Y-58201192D01*
X120634039Y-58133582D01*
X120652986Y-58071407D01*
X120680456Y-58027690D01*
X120736313Y-57868059D01*
X120755249Y-57700000D01*
X120736313Y-57531941D01*
X120729898Y-57513609D01*
X121710173Y-57513609D01*
X121729109Y-57681666D01*
X121729109Y-57681668D01*
X121729110Y-57681669D01*
X121784967Y-57841300D01*
X121874946Y-57984500D01*
X121994533Y-58104087D01*
X122137733Y-58194066D01*
X122297364Y-58249923D01*
X122465423Y-58268859D01*
X122633482Y-58249923D01*
X122793113Y-58194066D01*
X122936313Y-58104087D01*
X123055900Y-57984500D01*
X123145879Y-57841300D01*
X123201736Y-57681669D01*
X123220672Y-57513610D01*
X123201736Y-57345551D01*
X123145879Y-57185920D01*
X123055900Y-57042720D01*
X122936313Y-56923133D01*
X122793113Y-56833154D01*
X122633482Y-56777297D01*
X122633481Y-56777296D01*
X122633479Y-56777296D01*
X122465422Y-56758360D01*
X122297366Y-56777296D01*
X122137733Y-56833154D01*
X121994531Y-56923134D01*
X121874947Y-57042718D01*
X121784967Y-57185920D01*
X121729109Y-57345553D01*
X121710173Y-57513609D01*
X120729898Y-57513609D01*
X120680456Y-57372310D01*
X120590477Y-57229110D01*
X120470890Y-57109523D01*
X120327690Y-57019544D01*
X120168059Y-56963687D01*
X120168058Y-56963686D01*
X120168056Y-56963686D01*
X120000000Y-56944750D01*
X119831943Y-56963686D01*
X119672310Y-57019544D01*
X119529108Y-57109524D01*
X119409524Y-57229108D01*
X119319544Y-57372310D01*
X119263686Y-57531943D01*
X119244750Y-57700000D01*
X119263686Y-57868056D01*
X119319544Y-58027691D01*
X119347011Y-58071403D01*
X119366012Y-58138640D01*
X119345645Y-58205475D01*
X119292377Y-58250690D01*
X119228134Y-58260596D01*
X119087500Y-58244750D01*
X118919443Y-58263686D01*
X118759810Y-58319544D01*
X118616608Y-58409524D01*
X118497024Y-58529108D01*
X118407044Y-58672310D01*
X118351186Y-58831943D01*
X118332250Y-58999999D01*
X116279749Y-58999999D01*
X116269227Y-58906613D01*
X116267807Y-58894009D01*
X116279861Y-58825187D01*
X116327210Y-58773807D01*
X116350062Y-58763088D01*
X116496190Y-58711956D01*
X116639390Y-58621977D01*
X116758977Y-58502390D01*
X116848956Y-58359190D01*
X116904813Y-58199559D01*
X116923749Y-58031500D01*
X116920784Y-58005186D01*
X116932837Y-57936366D01*
X116980185Y-57884986D01*
X117047795Y-57867360D01*
X117109976Y-57886308D01*
X117116608Y-57890475D01*
X117116610Y-57890477D01*
X117259810Y-57980456D01*
X117419441Y-58036313D01*
X117587500Y-58055249D01*
X117755559Y-58036313D01*
X117915190Y-57980456D01*
X118058390Y-57890477D01*
X118177977Y-57770890D01*
X118267956Y-57627690D01*
X118323813Y-57468059D01*
X118342749Y-57300000D01*
X118342157Y-57294750D01*
X118329895Y-57185920D01*
X118323813Y-57131941D01*
X118267956Y-56972310D01*
X118177977Y-56829110D01*
X118058390Y-56709523D01*
X117915190Y-56619544D01*
X117755559Y-56563687D01*
X117755558Y-56563686D01*
X117755556Y-56563686D01*
X117587500Y-56544750D01*
X117419443Y-56563686D01*
X117259810Y-56619544D01*
X117116608Y-56709524D01*
X116997024Y-56829108D01*
X116907044Y-56972310D01*
X116851186Y-57131943D01*
X116832250Y-57300000D01*
X116835215Y-57326314D01*
X116823160Y-57395136D01*
X116775811Y-57446515D01*
X116708201Y-57464139D01*
X116646023Y-57445191D01*
X116583756Y-57406066D01*
X116496190Y-57351044D01*
X116336559Y-57295187D01*
X116336558Y-57295186D01*
X116336556Y-57295186D01*
X116168500Y-57276250D01*
X116000443Y-57295186D01*
X115840810Y-57351044D01*
X115697608Y-57441024D01*
X115578024Y-57560608D01*
X115488044Y-57703810D01*
X115432186Y-57863443D01*
X115413250Y-58031499D01*
X115425193Y-58137489D01*
X115413139Y-58206311D01*
X115365790Y-58257690D01*
X115342928Y-58268414D01*
X115196812Y-58319542D01*
X115053608Y-58409524D01*
X114934024Y-58529108D01*
X114844044Y-58672310D01*
X114788186Y-58831943D01*
X114769250Y-59000000D01*
X112633613Y-59000000D01*
X112670890Y-58976577D01*
X112790477Y-58856990D01*
X112880456Y-58713790D01*
X112936313Y-58554159D01*
X112955249Y-58386100D01*
X112936313Y-58218041D01*
X112880456Y-58058410D01*
X112790477Y-57915210D01*
X112670890Y-57795623D01*
X112527690Y-57705644D01*
X112368059Y-57649787D01*
X112368058Y-57649786D01*
X112368056Y-57649786D01*
X112200000Y-57630850D01*
X112031943Y-57649786D01*
X111872310Y-57705644D01*
X111729108Y-57795624D01*
X111609524Y-57915208D01*
X111519544Y-58058410D01*
X111463686Y-58218043D01*
X111444750Y-58386100D01*
X109250500Y-58386100D01*
X109250500Y-55586100D01*
X111444750Y-55586100D01*
X111463686Y-55754156D01*
X111463686Y-55754158D01*
X111463687Y-55754159D01*
X111519544Y-55913790D01*
X111609523Y-56056990D01*
X111729110Y-56176577D01*
X111872310Y-56266556D01*
X112031941Y-56322413D01*
X112142001Y-56334814D01*
X112199999Y-56341349D01*
X112199999Y-56341348D01*
X112200000Y-56341349D01*
X112368059Y-56322413D01*
X112527690Y-56266556D01*
X112670890Y-56176577D01*
X112790477Y-56056990D01*
X112880456Y-55913790D01*
X112936313Y-55754159D01*
X112955249Y-55586100D01*
X112936313Y-55418041D01*
X112880456Y-55258410D01*
X112790477Y-55115210D01*
X112670890Y-54995623D01*
X112527690Y-54905644D01*
X112368059Y-54849787D01*
X112368058Y-54849786D01*
X112368056Y-54849786D01*
X112200000Y-54830850D01*
X112031943Y-54849786D01*
X111872310Y-54905644D01*
X111729108Y-54995624D01*
X111609524Y-55115208D01*
X111519544Y-55258410D01*
X111463686Y-55418043D01*
X111444750Y-55586100D01*
X109250500Y-55586100D01*
X109250500Y-54244578D01*
X117599500Y-54244578D01*
X117599501Y-54247872D01*
X117599853Y-54251152D01*
X117599854Y-54251159D01*
X117605909Y-54307484D01*
X117631056Y-54374906D01*
X117656204Y-54442331D01*
X117742454Y-54557546D01*
X117857669Y-54643796D01*
X117931583Y-54671364D01*
X117987516Y-54713233D01*
X118011934Y-54778698D01*
X118012250Y-54787545D01*
X118012250Y-55075020D01*
X117992565Y-55142059D01*
X117975935Y-55162697D01*
X117969986Y-55168645D01*
X117959520Y-55179112D01*
X117939688Y-55210674D01*
X117931967Y-55221604D01*
X117906888Y-55253323D01*
X117892879Y-55283362D01*
X117885496Y-55296919D01*
X117869543Y-55322309D01*
X117856028Y-55360931D01*
X117851372Y-55372374D01*
X117832743Y-55412325D01*
X117826779Y-55441210D01*
X117822384Y-55457085D01*
X117813686Y-55481943D01*
X117808697Y-55526220D01*
X117806915Y-55537408D01*
X117797265Y-55584140D01*
X117798017Y-55609977D01*
X117797290Y-55627458D01*
X117794750Y-55650002D01*
X117800146Y-55697890D01*
X117800873Y-55708163D01*
X117802368Y-55759512D01*
X117808111Y-55780946D01*
X117811556Y-55799151D01*
X117813686Y-55818059D01*
X117830810Y-55866997D01*
X117833543Y-55875856D01*
X117847776Y-55928974D01*
X117847777Y-55928976D01*
X117856293Y-55944771D01*
X117856570Y-55945283D01*
X117864467Y-55963181D01*
X117869543Y-55977690D01*
X117899059Y-56024663D01*
X117903210Y-56031785D01*
X117931039Y-56083398D01*
X117940933Y-56094516D01*
X117953293Y-56110976D01*
X117959523Y-56120890D01*
X118001311Y-56162678D01*
X118006261Y-56167924D01*
X118047674Y-56214459D01*
X118056859Y-56220890D01*
X118073417Y-56234784D01*
X118079110Y-56240477D01*
X118082667Y-56242712D01*
X118132246Y-56273865D01*
X118137396Y-56277283D01*
X118191388Y-56315088D01*
X118198402Y-56317874D01*
X118218585Y-56328116D01*
X118222309Y-56330456D01*
X118284980Y-56352385D01*
X118289808Y-56354188D01*
X118354430Y-56379861D01*
X118354433Y-56379862D01*
X118358271Y-56380424D01*
X118381255Y-56386073D01*
X118381941Y-56386313D01*
X118451610Y-56394162D01*
X118455550Y-56394673D01*
X118528023Y-56405289D01*
X118528238Y-56405270D01*
X118547657Y-56405513D01*
X118550000Y-56405249D01*
X118623260Y-56396994D01*
X118626237Y-56396696D01*
X118702797Y-56389999D01*
X118702797Y-56389998D01*
X118705585Y-56389755D01*
X118712658Y-56388203D01*
X118792003Y-56360438D01*
X118816306Y-56352385D01*
X118869334Y-56334814D01*
X118869334Y-56334813D01*
X118872336Y-56333819D01*
X118877685Y-56330457D01*
X118877690Y-56330456D01*
X118946644Y-56287128D01*
X119018656Y-56242712D01*
X119248398Y-56012968D01*
X119262010Y-56001205D01*
X119281280Y-55986860D01*
X119313116Y-55948917D01*
X119320430Y-55940938D01*
X119321014Y-55940353D01*
X119324341Y-55937027D01*
X119343583Y-55912689D01*
X119343737Y-55912500D01*
X130244750Y-55912500D01*
X130263686Y-56080556D01*
X130263686Y-56080558D01*
X130263687Y-56080559D01*
X130319544Y-56240190D01*
X130409523Y-56383390D01*
X130529110Y-56502977D01*
X130672310Y-56592956D01*
X130831941Y-56648813D01*
X131000000Y-56667749D01*
X131168059Y-56648813D01*
X131327690Y-56592956D01*
X131470890Y-56502977D01*
X131590477Y-56383390D01*
X131680456Y-56240190D01*
X131736313Y-56080559D01*
X131755249Y-55912500D01*
X131753840Y-55899999D01*
X132244750Y-55899999D01*
X132263686Y-56068056D01*
X132263686Y-56068058D01*
X132263687Y-56068059D01*
X132319544Y-56227690D01*
X132409523Y-56370890D01*
X132529110Y-56490477D01*
X132672310Y-56580456D01*
X132831941Y-56636313D01*
X132942880Y-56648813D01*
X132999999Y-56655249D01*
X132999999Y-56655248D01*
X133000000Y-56655249D01*
X133168059Y-56636313D01*
X133327690Y-56580456D01*
X133470890Y-56490477D01*
X133590477Y-56370890D01*
X133680456Y-56227690D01*
X133736313Y-56068059D01*
X133755249Y-55900000D01*
X133736313Y-55731941D01*
X133680456Y-55572310D01*
X133590477Y-55429110D01*
X133470890Y-55309523D01*
X133327690Y-55219544D01*
X133168059Y-55163687D01*
X133168058Y-55163686D01*
X133168056Y-55163686D01*
X133000000Y-55144750D01*
X132831943Y-55163686D01*
X132672310Y-55219544D01*
X132529108Y-55309524D01*
X132409524Y-55429108D01*
X132319544Y-55572310D01*
X132263686Y-55731943D01*
X132244750Y-55899999D01*
X131753840Y-55899999D01*
X131737408Y-55754159D01*
X131736313Y-55744441D01*
X131680456Y-55584810D01*
X131590477Y-55441610D01*
X131470890Y-55322023D01*
X131327690Y-55232044D01*
X131168059Y-55176187D01*
X131168058Y-55176186D01*
X131168056Y-55176186D01*
X130999999Y-55157250D01*
X130831943Y-55176186D01*
X130672310Y-55232044D01*
X130529108Y-55322024D01*
X130409524Y-55441608D01*
X130319544Y-55584810D01*
X130263686Y-55744443D01*
X130244750Y-55912500D01*
X119343737Y-55912500D01*
X119345840Y-55909920D01*
X119374423Y-55875856D01*
X119394052Y-55852464D01*
X119394053Y-55852461D01*
X119394865Y-55851494D01*
X119405323Y-55835077D01*
X119405856Y-55833932D01*
X119405861Y-55833927D01*
X119437583Y-55765896D01*
X119439112Y-55762738D01*
X119472790Y-55695683D01*
X119472790Y-55695682D01*
X119473362Y-55694544D01*
X119479750Y-55676164D01*
X119480005Y-55674925D01*
X119480007Y-55674923D01*
X119495197Y-55601353D01*
X119495936Y-55598020D01*
X119513250Y-55524971D01*
X119513250Y-55524966D01*
X119513541Y-55523739D01*
X119515520Y-55504371D01*
X119515483Y-55503109D01*
X119515484Y-55503106D01*
X119513302Y-55428118D01*
X119513250Y-55424512D01*
X119513250Y-54824499D01*
X119532935Y-54757460D01*
X119585739Y-54711705D01*
X119637250Y-54700499D01*
X119844561Y-54700499D01*
X119847872Y-54700499D01*
X119907483Y-54694091D01*
X120042331Y-54643796D01*
X120157546Y-54557546D01*
X120243796Y-54442331D01*
X120292810Y-54310916D01*
X120334681Y-54254983D01*
X120400146Y-54230566D01*
X120468419Y-54245418D01*
X120496673Y-54266569D01*
X120618599Y-54388495D01*
X120812170Y-54524035D01*
X121026337Y-54623903D01*
X121254592Y-54685063D01*
X121490000Y-54705659D01*
X121725408Y-54685063D01*
X121953663Y-54623903D01*
X122167830Y-54524035D01*
X122361401Y-54388495D01*
X122528495Y-54221401D01*
X122658426Y-54035839D01*
X122713002Y-53992217D01*
X122782501Y-53985024D01*
X122844855Y-54016546D01*
X122861571Y-54035837D01*
X122991505Y-54221401D01*
X123158599Y-54388495D01*
X123352170Y-54524035D01*
X123566337Y-54623903D01*
X123778059Y-54680633D01*
X123794592Y-54685063D01*
X124029999Y-54705659D01*
X124029999Y-54705658D01*
X124030000Y-54705659D01*
X124265408Y-54685063D01*
X124493663Y-54623903D01*
X124707830Y-54524035D01*
X124901401Y-54388495D01*
X125068495Y-54221401D01*
X125198732Y-54035403D01*
X125253307Y-53991780D01*
X125322805Y-53984586D01*
X125385160Y-54016109D01*
X125401880Y-54035404D01*
X125531893Y-54221081D01*
X125698918Y-54388106D01*
X125892423Y-54523600D01*
X126106509Y-54623430D01*
X126320000Y-54680634D01*
X126320000Y-53785501D01*
X126427685Y-53834680D01*
X126534237Y-53850000D01*
X126605763Y-53850000D01*
X126712315Y-53834680D01*
X126819999Y-53785501D01*
X126819999Y-54680633D01*
X127033491Y-54623430D01*
X127247576Y-54523600D01*
X127441081Y-54388106D01*
X127608106Y-54221081D01*
X127701641Y-54087499D01*
X134244750Y-54087499D01*
X134263686Y-54255556D01*
X134263686Y-54255558D01*
X134263687Y-54255559D01*
X134319544Y-54415190D01*
X134409523Y-54558390D01*
X134529110Y-54677977D01*
X134672310Y-54767956D01*
X134831941Y-54823813D01*
X135000000Y-54842749D01*
X135168059Y-54823813D01*
X135327690Y-54767956D01*
X135470890Y-54677977D01*
X135590477Y-54558390D01*
X135680456Y-54415190D01*
X135736313Y-54255559D01*
X135753841Y-54099999D01*
X136244750Y-54099999D01*
X136263686Y-54268056D01*
X136263686Y-54268058D01*
X136263687Y-54268059D01*
X136319544Y-54427690D01*
X136409523Y-54570890D01*
X136529110Y-54690477D01*
X136672310Y-54780456D01*
X136831941Y-54836313D01*
X137000000Y-54855249D01*
X137168059Y-54836313D01*
X137327690Y-54780456D01*
X137470890Y-54690477D01*
X137590477Y-54570890D01*
X137680456Y-54427690D01*
X137736313Y-54268059D01*
X137755249Y-54100000D01*
X137753840Y-54087499D01*
X137743380Y-53994664D01*
X137736313Y-53931941D01*
X137680456Y-53772310D01*
X137590477Y-53629110D01*
X137470890Y-53509523D01*
X137327690Y-53419544D01*
X137168059Y-53363687D01*
X137168058Y-53363686D01*
X137168056Y-53363686D01*
X136999999Y-53344750D01*
X136831943Y-53363686D01*
X136672310Y-53419544D01*
X136529108Y-53509524D01*
X136409524Y-53629108D01*
X136319544Y-53772310D01*
X136263686Y-53931943D01*
X136244750Y-54099999D01*
X135753841Y-54099999D01*
X135755249Y-54087500D01*
X135736313Y-53919441D01*
X135680456Y-53759810D01*
X135590477Y-53616610D01*
X135470890Y-53497023D01*
X135327690Y-53407044D01*
X135168059Y-53351187D01*
X135168058Y-53351186D01*
X135168056Y-53351186D01*
X135000000Y-53332250D01*
X134831943Y-53351186D01*
X134672310Y-53407044D01*
X134529108Y-53497024D01*
X134409524Y-53616608D01*
X134319544Y-53759810D01*
X134263686Y-53919443D01*
X134244750Y-54087499D01*
X127701641Y-54087499D01*
X127743600Y-54027576D01*
X127843430Y-53813492D01*
X127900636Y-53600000D01*
X127003686Y-53600000D01*
X127029493Y-53559844D01*
X127070000Y-53421889D01*
X127070000Y-53278111D01*
X127029493Y-53140156D01*
X127003686Y-53100000D01*
X127900636Y-53100000D01*
X127900635Y-53099999D01*
X127843430Y-52886507D01*
X127743599Y-52672421D01*
X127608109Y-52478921D01*
X127441081Y-52311893D01*
X127247576Y-52176399D01*
X127033492Y-52076569D01*
X126819999Y-52019364D01*
X126819999Y-52914498D01*
X126712315Y-52865320D01*
X126605763Y-52850000D01*
X126534237Y-52850000D01*
X126427685Y-52865320D01*
X126320000Y-52914498D01*
X126320000Y-52019364D01*
X126319999Y-52019364D01*
X126106507Y-52076569D01*
X125892421Y-52176400D01*
X125698921Y-52311890D01*
X125531893Y-52478918D01*
X125401880Y-52664596D01*
X125347303Y-52708220D01*
X125277804Y-52715413D01*
X125215450Y-52683891D01*
X125198730Y-52664595D01*
X125198425Y-52664159D01*
X125068495Y-52478599D01*
X124901401Y-52311505D01*
X124707830Y-52175965D01*
X124493663Y-52076097D01*
X124432501Y-52059709D01*
X124265407Y-52014936D01*
X124030000Y-51994340D01*
X123794592Y-52014936D01*
X123566336Y-52076097D01*
X123352170Y-52175965D01*
X123158598Y-52311505D01*
X122991505Y-52478598D01*
X122861575Y-52664159D01*
X122806998Y-52707784D01*
X122737500Y-52714978D01*
X122675145Y-52683455D01*
X122658425Y-52664159D01*
X122643449Y-52642771D01*
X122528495Y-52478599D01*
X122361401Y-52311505D01*
X122167830Y-52175965D01*
X121953663Y-52076097D01*
X121892501Y-52059709D01*
X121725407Y-52014936D01*
X121489999Y-51994340D01*
X121254592Y-52014936D01*
X121026336Y-52076097D01*
X120812170Y-52175965D01*
X120618601Y-52311503D01*
X120496673Y-52433431D01*
X120435350Y-52466915D01*
X120365658Y-52461931D01*
X120309725Y-52420059D01*
X120292810Y-52389082D01*
X120264019Y-52311890D01*
X120243796Y-52257669D01*
X120157546Y-52142454D01*
X120042331Y-52056204D01*
X119907483Y-52005909D01*
X119847873Y-51999500D01*
X119844550Y-51999500D01*
X118055439Y-51999500D01*
X118055420Y-51999500D01*
X118052128Y-51999501D01*
X118048848Y-51999853D01*
X118048840Y-51999854D01*
X117992515Y-52005909D01*
X117857669Y-52056204D01*
X117742454Y-52142454D01*
X117656204Y-52257668D01*
X117635980Y-52311893D01*
X117605909Y-52392517D01*
X117599500Y-52452127D01*
X117599500Y-52455448D01*
X117599500Y-52455449D01*
X117599500Y-54244560D01*
X117599500Y-54244578D01*
X109250500Y-54244578D01*
X109250500Y-53026229D01*
X109270185Y-52959190D01*
X109322989Y-52913435D01*
X109392147Y-52903491D01*
X109455703Y-52932516D01*
X109462180Y-52938548D01*
X109532356Y-53008723D01*
X109675556Y-53098702D01*
X109835187Y-53154559D01*
X109947226Y-53167183D01*
X110003245Y-53173495D01*
X110003245Y-53173494D01*
X110003246Y-53173495D01*
X110171305Y-53154559D01*
X110330936Y-53098702D01*
X110474136Y-53008723D01*
X110593723Y-52889136D01*
X110683702Y-52745936D01*
X110739559Y-52586305D01*
X110757678Y-52425500D01*
X112394181Y-52425500D01*
X112413117Y-52593556D01*
X112413117Y-52593558D01*
X112413118Y-52593559D01*
X112468975Y-52753190D01*
X112558954Y-52896390D01*
X112678541Y-53015977D01*
X112821741Y-53105956D01*
X112981372Y-53161813D01*
X113149431Y-53180749D01*
X113317490Y-53161813D01*
X113477121Y-53105956D01*
X113620321Y-53015977D01*
X113739908Y-52896390D01*
X113829887Y-52753190D01*
X113885744Y-52593559D01*
X113904680Y-52425500D01*
X113885744Y-52257441D01*
X113829887Y-52097810D01*
X113739908Y-51954610D01*
X113620321Y-51835023D01*
X113477121Y-51745044D01*
X113317490Y-51689187D01*
X113317489Y-51689186D01*
X113317487Y-51689186D01*
X113149431Y-51670250D01*
X112981374Y-51689186D01*
X112821741Y-51745044D01*
X112678539Y-51835024D01*
X112558955Y-51954608D01*
X112468975Y-52097810D01*
X112413117Y-52257443D01*
X112394181Y-52425500D01*
X110757678Y-52425500D01*
X110758495Y-52418246D01*
X110739559Y-52250187D01*
X110683702Y-52090556D01*
X110593723Y-51947356D01*
X110474136Y-51827769D01*
X110330936Y-51737790D01*
X110171305Y-51681933D01*
X110171304Y-51681932D01*
X110171302Y-51681932D01*
X110003246Y-51662996D01*
X109835189Y-51681932D01*
X109675556Y-51737790D01*
X109532356Y-51827769D01*
X109462180Y-51897945D01*
X109400856Y-51931429D01*
X109331165Y-51926444D01*
X109275231Y-51884573D01*
X109250815Y-51819108D01*
X109250500Y-51810290D01*
X109250500Y-49499999D01*
X117604340Y-49499999D01*
X117624936Y-49735407D01*
X117650803Y-49831943D01*
X117686097Y-49963663D01*
X117785965Y-50177830D01*
X117921505Y-50371401D01*
X118088599Y-50538495D01*
X118282170Y-50674035D01*
X118496337Y-50773903D01*
X118724592Y-50835063D01*
X118960000Y-50855659D01*
X119195408Y-50835063D01*
X119423663Y-50773903D01*
X119637830Y-50674035D01*
X119831401Y-50538495D01*
X119953329Y-50416566D01*
X120014648Y-50383084D01*
X120084340Y-50388068D01*
X120140274Y-50429939D01*
X120157189Y-50460916D01*
X120183291Y-50530898D01*
X120206204Y-50592331D01*
X120292454Y-50707546D01*
X120407669Y-50793796D01*
X120542517Y-50844091D01*
X120602127Y-50850500D01*
X122397872Y-50850499D01*
X122457483Y-50844091D01*
X122592331Y-50793796D01*
X122707546Y-50707546D01*
X122793796Y-50592331D01*
X122844091Y-50457483D01*
X122850500Y-50397873D01*
X122850500Y-50000000D01*
X126244750Y-50000000D01*
X126263686Y-50168056D01*
X126263686Y-50168058D01*
X126263687Y-50168059D01*
X126319544Y-50327690D01*
X126409523Y-50470890D01*
X126529110Y-50590477D01*
X126672310Y-50680456D01*
X126831941Y-50736313D01*
X127000000Y-50755249D01*
X127168059Y-50736313D01*
X127327690Y-50680456D01*
X127434028Y-50613638D01*
X127501264Y-50594638D01*
X127565970Y-50613638D01*
X127672310Y-50680456D01*
X127831941Y-50736313D01*
X128000000Y-50755249D01*
X128168059Y-50736313D01*
X128327690Y-50680456D01*
X128470890Y-50590477D01*
X128590477Y-50470890D01*
X128680456Y-50327690D01*
X128736313Y-50168059D01*
X128755249Y-50000000D01*
X128736313Y-49831941D01*
X128680456Y-49672310D01*
X128590477Y-49529110D01*
X128470890Y-49409523D01*
X128327690Y-49319544D01*
X128168059Y-49263687D01*
X128168058Y-49263686D01*
X128168056Y-49263686D01*
X128000000Y-49244750D01*
X127831943Y-49263686D01*
X127672309Y-49319544D01*
X127565972Y-49386361D01*
X127498735Y-49405361D01*
X127434028Y-49386361D01*
X127327690Y-49319544D01*
X127168056Y-49263686D01*
X126999999Y-49244750D01*
X126831943Y-49263686D01*
X126672310Y-49319544D01*
X126529108Y-49409524D01*
X126409524Y-49529108D01*
X126319544Y-49672310D01*
X126263686Y-49831943D01*
X126244750Y-50000000D01*
X122850500Y-50000000D01*
X122850499Y-48700000D01*
X135244750Y-48700000D01*
X135263686Y-48868056D01*
X135263686Y-48868058D01*
X135263687Y-48868059D01*
X135319544Y-49027690D01*
X135409523Y-49170890D01*
X135529110Y-49290477D01*
X135672310Y-49380456D01*
X135831941Y-49436313D01*
X136000000Y-49455249D01*
X136168059Y-49436313D01*
X136327690Y-49380456D01*
X136470890Y-49290477D01*
X136590477Y-49170890D01*
X136680456Y-49027690D01*
X136736313Y-48868059D01*
X136755249Y-48700000D01*
X136736313Y-48531941D01*
X136680456Y-48372310D01*
X136590477Y-48229110D01*
X136470890Y-48109523D01*
X136327690Y-48019544D01*
X136168059Y-47963687D01*
X136168058Y-47963686D01*
X136168056Y-47963686D01*
X135999999Y-47944750D01*
X135831943Y-47963686D01*
X135672310Y-48019544D01*
X135529108Y-48109524D01*
X135409524Y-48229108D01*
X135319544Y-48372310D01*
X135263686Y-48531943D01*
X135244750Y-48700000D01*
X122850499Y-48700000D01*
X122850499Y-48602128D01*
X122844091Y-48542517D01*
X122793796Y-48407669D01*
X122707546Y-48292454D01*
X122592331Y-48206204D01*
X122457483Y-48155909D01*
X122397873Y-48149500D01*
X122394550Y-48149500D01*
X120605439Y-48149500D01*
X120605420Y-48149500D01*
X120602128Y-48149501D01*
X120598848Y-48149853D01*
X120598840Y-48149854D01*
X120542515Y-48155909D01*
X120407669Y-48206204D01*
X120292454Y-48292454D01*
X120206204Y-48407669D01*
X120157189Y-48539083D01*
X120115317Y-48595016D01*
X120049852Y-48619433D01*
X119981580Y-48604581D01*
X119953326Y-48583430D01*
X119831404Y-48461508D01*
X119831404Y-48461507D01*
X119831401Y-48461505D01*
X119637830Y-48325965D01*
X119423663Y-48226097D01*
X119362502Y-48209709D01*
X119195407Y-48164936D01*
X118959999Y-48144340D01*
X118724592Y-48164936D01*
X118496336Y-48226097D01*
X118282170Y-48325965D01*
X118088598Y-48461505D01*
X117921505Y-48628598D01*
X117785965Y-48822170D01*
X117686097Y-49036336D01*
X117624936Y-49264592D01*
X117604340Y-49499999D01*
X109250500Y-49499999D01*
X109250500Y-47145545D01*
X109270184Y-47078510D01*
X109322988Y-47032755D01*
X109392146Y-47022811D01*
X109455702Y-47051836D01*
X109462180Y-47057868D01*
X109527992Y-47123680D01*
X109671192Y-47213659D01*
X109830823Y-47269516D01*
X109998882Y-47288452D01*
X110166941Y-47269516D01*
X110326572Y-47213659D01*
X110407992Y-47162499D01*
X111994750Y-47162499D01*
X112013686Y-47330556D01*
X112013686Y-47330558D01*
X112013687Y-47330559D01*
X112069544Y-47490190D01*
X112159523Y-47633390D01*
X112279110Y-47752977D01*
X112422310Y-47842956D01*
X112581941Y-47898813D01*
X112750000Y-47917749D01*
X112918059Y-47898813D01*
X113077690Y-47842956D01*
X113220890Y-47752977D01*
X113340477Y-47633390D01*
X113430456Y-47490190D01*
X113486313Y-47330559D01*
X113505249Y-47162500D01*
X113486313Y-46994441D01*
X113430456Y-46834810D01*
X113340477Y-46691610D01*
X113220890Y-46572023D01*
X113077690Y-46482044D01*
X112918059Y-46426187D01*
X112918058Y-46426186D01*
X112918056Y-46426186D01*
X112750000Y-46407250D01*
X112581943Y-46426186D01*
X112422310Y-46482044D01*
X112279108Y-46572024D01*
X112159524Y-46691608D01*
X112069544Y-46834810D01*
X112013686Y-46994443D01*
X111994750Y-47162499D01*
X110407992Y-47162499D01*
X110469772Y-47123680D01*
X110589359Y-47004093D01*
X110679338Y-46860893D01*
X110735195Y-46701262D01*
X110754131Y-46533203D01*
X110735195Y-46365144D01*
X110679338Y-46205513D01*
X110673032Y-46195478D01*
X110654031Y-46128243D01*
X110674397Y-46061407D01*
X110685870Y-46046539D01*
X110732533Y-45994716D01*
X110827179Y-45830784D01*
X110885674Y-45650756D01*
X110905460Y-45462500D01*
X113594540Y-45462500D01*
X113614326Y-45650757D01*
X113672820Y-45830784D01*
X113767466Y-45994716D01*
X113894129Y-46135389D01*
X114047267Y-46246650D01*
X114099101Y-46269728D01*
X114215099Y-46321374D01*
X114268335Y-46366623D01*
X114288657Y-46433472D01*
X114269612Y-46500696D01*
X114230637Y-46539646D01*
X114179108Y-46572024D01*
X114059524Y-46691608D01*
X113969544Y-46834810D01*
X113913686Y-46994443D01*
X113894750Y-47162499D01*
X113913686Y-47330556D01*
X113913686Y-47330558D01*
X113913687Y-47330559D01*
X113969544Y-47490190D01*
X114059523Y-47633390D01*
X114179110Y-47752977D01*
X114322310Y-47842956D01*
X114481941Y-47898813D01*
X114650000Y-47917749D01*
X114818059Y-47898813D01*
X114977690Y-47842956D01*
X115046054Y-47800000D01*
X127044750Y-47800000D01*
X127063686Y-47968056D01*
X127063686Y-47968058D01*
X127063687Y-47968059D01*
X127119544Y-48127690D01*
X127209523Y-48270890D01*
X127329110Y-48390477D01*
X127472310Y-48480456D01*
X127631941Y-48536313D01*
X127743980Y-48548936D01*
X127799999Y-48555249D01*
X127799999Y-48555248D01*
X127800000Y-48555249D01*
X127968059Y-48536313D01*
X128127690Y-48480456D01*
X128270890Y-48390477D01*
X128390477Y-48270890D01*
X128480456Y-48127690D01*
X128536313Y-47968059D01*
X128555249Y-47800000D01*
X128536313Y-47631941D01*
X128480456Y-47472310D01*
X128390477Y-47329110D01*
X128270890Y-47209523D01*
X128158635Y-47138988D01*
X132306785Y-47138988D01*
X132325721Y-47307044D01*
X132325721Y-47307046D01*
X132325722Y-47307047D01*
X132381579Y-47466678D01*
X132471558Y-47609878D01*
X132591145Y-47729465D01*
X132734345Y-47819444D01*
X132893976Y-47875301D01*
X133062035Y-47894237D01*
X133230094Y-47875301D01*
X133389725Y-47819444D01*
X133532925Y-47729465D01*
X133652512Y-47609878D01*
X133742491Y-47466678D01*
X133798348Y-47307047D01*
X133817284Y-47138988D01*
X133798348Y-46970929D01*
X133742491Y-46811298D01*
X133652512Y-46668098D01*
X133532925Y-46548511D01*
X133389725Y-46458532D01*
X133271964Y-46417326D01*
X133221211Y-46380923D01*
X133175882Y-46395414D01*
X133159047Y-46394669D01*
X133062035Y-46383738D01*
X132893978Y-46402674D01*
X132734345Y-46458532D01*
X132591143Y-46548512D01*
X132471559Y-46668096D01*
X132381579Y-46811298D01*
X132325721Y-46970931D01*
X132306785Y-47138988D01*
X128158635Y-47138988D01*
X128127690Y-47119544D01*
X127968059Y-47063687D01*
X127968058Y-47063686D01*
X127968056Y-47063686D01*
X127800000Y-47044750D01*
X127631943Y-47063686D01*
X127472310Y-47119544D01*
X127329108Y-47209524D01*
X127209524Y-47329108D01*
X127119544Y-47472310D01*
X127063686Y-47631943D01*
X127044750Y-47800000D01*
X115046054Y-47800000D01*
X115120890Y-47752977D01*
X115240477Y-47633390D01*
X115330456Y-47490190D01*
X115386313Y-47330559D01*
X115405249Y-47162500D01*
X115386313Y-46994441D01*
X115330456Y-46834810D01*
X115240477Y-46691610D01*
X115120890Y-46572023D01*
X114977690Y-46482044D01*
X114962643Y-46476779D01*
X114905869Y-46436058D01*
X114880121Y-46371106D01*
X114893577Y-46302544D01*
X114941964Y-46252141D01*
X114952608Y-46246740D01*
X115105870Y-46135389D01*
X115185878Y-46046532D01*
X115232533Y-45994716D01*
X115327179Y-45830784D01*
X115385674Y-45650756D01*
X115405460Y-45462500D01*
X115385674Y-45274244D01*
X115349333Y-45162398D01*
X115327179Y-45094215D01*
X115232533Y-44930283D01*
X115105870Y-44789610D01*
X114952730Y-44678348D01*
X114779802Y-44601355D01*
X114594648Y-44562000D01*
X114594646Y-44562000D01*
X114405354Y-44562000D01*
X114405352Y-44562000D01*
X114220197Y-44601355D01*
X114047269Y-44678348D01*
X113894129Y-44789610D01*
X113767466Y-44930283D01*
X113672820Y-45094215D01*
X113614326Y-45274242D01*
X113594540Y-45462500D01*
X110905460Y-45462500D01*
X110885674Y-45274244D01*
X110849333Y-45162398D01*
X110827179Y-45094215D01*
X110732533Y-44930283D01*
X110605870Y-44789610D01*
X110452730Y-44678348D01*
X110279802Y-44601355D01*
X110094648Y-44562000D01*
X110094646Y-44562000D01*
X109905354Y-44562000D01*
X109905352Y-44562000D01*
X109720197Y-44601355D01*
X109547269Y-44678348D01*
X109394129Y-44789610D01*
X109267466Y-44930283D01*
X109172820Y-45094215D01*
X109114326Y-45274242D01*
X109094540Y-45462500D01*
X109114326Y-45650757D01*
X109172820Y-45830784D01*
X109267466Y-45994716D01*
X109312806Y-46045071D01*
X109343036Y-46108063D01*
X109334411Y-46177398D01*
X109325652Y-46194012D01*
X109318425Y-46205514D01*
X109273731Y-46333241D01*
X109233009Y-46390017D01*
X109168057Y-46415764D01*
X109099495Y-46402308D01*
X109071598Y-46382481D01*
X109024272Y-46337831D01*
X109021686Y-46335319D01*
X107699786Y-45013418D01*
X107699785Y-45013417D01*
X107699777Y-45013409D01*
X107699772Y-45013405D01*
X107670890Y-44984523D01*
X107660961Y-44978284D01*
X107639326Y-44964689D01*
X107628394Y-44956966D01*
X107596679Y-44931890D01*
X107566642Y-44917883D01*
X107553079Y-44910497D01*
X107527690Y-44894544D01*
X107503919Y-44886226D01*
X107489065Y-44881028D01*
X107477617Y-44876369D01*
X107437674Y-44857743D01*
X107408785Y-44851778D01*
X107392910Y-44847382D01*
X107368059Y-44838687D01*
X107368057Y-44838686D01*
X107368055Y-44838686D01*
X107323780Y-44833697D01*
X107312591Y-44831915D01*
X107265859Y-44822265D01*
X107240022Y-44823017D01*
X107222541Y-44822290D01*
X107200002Y-44819751D01*
X107200001Y-44819751D01*
X107200000Y-44819751D01*
X107152106Y-44825147D01*
X107141836Y-44825873D01*
X107090487Y-44827368D01*
X107069054Y-44833111D01*
X107050849Y-44836556D01*
X107031939Y-44838686D01*
X106983004Y-44855809D01*
X106974148Y-44858541D01*
X106921024Y-44872776D01*
X106904715Y-44881570D01*
X106886827Y-44889464D01*
X106872311Y-44894543D01*
X106825337Y-44924059D01*
X106818218Y-44928208D01*
X106766598Y-44956041D01*
X106755481Y-44965934D01*
X106739036Y-44978284D01*
X106729113Y-44984520D01*
X106687318Y-45026314D01*
X106682074Y-45031261D01*
X106635539Y-45072674D01*
X106629103Y-45081866D01*
X106615219Y-45098413D01*
X106609521Y-45104111D01*
X106576127Y-45157254D01*
X106572713Y-45162398D01*
X106534911Y-45216388D01*
X106532119Y-45223415D01*
X106521886Y-45243581D01*
X106519544Y-45247308D01*
X106497615Y-45309977D01*
X106495813Y-45314802D01*
X106470137Y-45379433D01*
X106469574Y-45383278D01*
X106463930Y-45406245D01*
X106463687Y-45406938D01*
X106455845Y-45476531D01*
X106455316Y-45480615D01*
X106444710Y-45553023D01*
X106444730Y-45553246D01*
X106444488Y-45572671D01*
X106452996Y-45648184D01*
X106453304Y-45651259D01*
X106460243Y-45730571D01*
X106461803Y-45737674D01*
X106463686Y-45743057D01*
X106463687Y-45743059D01*
X106489561Y-45817003D01*
X106498027Y-45842552D01*
X106516182Y-45897339D01*
X106519543Y-45902689D01*
X106519544Y-45902690D01*
X106562870Y-45971644D01*
X106562871Y-45971644D01*
X106607289Y-46043658D01*
X107713181Y-47149548D01*
X107746666Y-47210871D01*
X107749500Y-47237229D01*
X107749500Y-48951271D01*
X107729815Y-49018310D01*
X107677011Y-49064065D01*
X107607853Y-49074009D01*
X107544297Y-49044984D01*
X107537819Y-49038952D01*
X107470891Y-48972024D01*
X107470891Y-48972023D01*
X107470890Y-48972023D01*
X107327690Y-48882044D01*
X107168059Y-48826187D01*
X107168058Y-48826186D01*
X107168056Y-48826186D01*
X107000000Y-48807250D01*
X106831943Y-48826186D01*
X106789756Y-48840948D01*
X106672310Y-48882044D01*
X106672308Y-48882044D01*
X106672308Y-48882045D01*
X106650757Y-48895586D01*
X106583520Y-48914585D01*
X106516686Y-48894216D01*
X106471472Y-48840948D01*
X106462236Y-48771691D01*
X106467744Y-48749642D01*
X106482688Y-48706935D01*
X106501624Y-48538876D01*
X106482688Y-48370817D01*
X106426831Y-48211186D01*
X106336852Y-48067986D01*
X106217265Y-47948399D01*
X106074065Y-47858420D01*
X105914434Y-47802563D01*
X105914433Y-47802562D01*
X105914431Y-47802562D01*
X105746374Y-47783626D01*
X105578318Y-47802562D01*
X105418685Y-47858420D01*
X105275483Y-47948400D01*
X105155899Y-48067984D01*
X105065919Y-48211186D01*
X105010061Y-48370819D01*
X104991125Y-48538875D01*
X105010061Y-48706932D01*
X105010061Y-48706934D01*
X105010062Y-48706935D01*
X105065919Y-48866566D01*
X105155898Y-49009766D01*
X105275485Y-49129353D01*
X105418685Y-49219332D01*
X105578316Y-49275189D01*
X105746375Y-49294125D01*
X105914434Y-49275189D01*
X106074065Y-49219332D01*
X106095614Y-49205791D01*
X106162849Y-49186790D01*
X106229685Y-49207156D01*
X106274900Y-49260423D01*
X106284139Y-49329680D01*
X106278629Y-49351737D01*
X106263686Y-49394441D01*
X106244750Y-49562499D01*
X106263686Y-49730556D01*
X106263686Y-49730558D01*
X106263687Y-49730559D01*
X106319544Y-49890190D01*
X106365710Y-49963663D01*
X106389846Y-50002074D01*
X106408846Y-50069311D01*
X106388478Y-50136146D01*
X106335211Y-50181360D01*
X106265954Y-50190598D01*
X106234416Y-50181325D01*
X106054802Y-50101355D01*
X105869648Y-50062000D01*
X105869646Y-50062000D01*
X105680354Y-50062000D01*
X105680352Y-50062000D01*
X105495197Y-50101355D01*
X105322269Y-50178348D01*
X105169129Y-50289610D01*
X105042466Y-50430283D01*
X104947820Y-50594215D01*
X104889326Y-50774242D01*
X104869540Y-50962500D01*
X104889326Y-51150757D01*
X104948275Y-51332182D01*
X104950270Y-51402023D01*
X104914190Y-51461856D01*
X104851489Y-51492684D01*
X104830344Y-51494500D01*
X101124000Y-51494500D01*
X101120706Y-51494854D01*
X101120690Y-51494855D01*
X101019854Y-51505697D01*
X101019851Y-51505697D01*
X101016544Y-51506053D01*
X101013309Y-51506756D01*
X101013295Y-51506759D01*
X100968277Y-51516553D01*
X100968272Y-51516554D01*
X100965033Y-51517259D01*
X100961893Y-51518303D01*
X100961875Y-51518309D01*
X100862496Y-51551385D01*
X100741458Y-51629173D01*
X100688652Y-51674931D01*
X100594432Y-51783664D01*
X100534662Y-51914539D01*
X100522896Y-51954610D01*
X100514977Y-51981580D01*
X100514976Y-51981584D01*
X100514527Y-51984706D01*
X100514524Y-51984722D01*
X100509544Y-52019364D01*
X100494500Y-52124000D01*
X100494500Y-53014572D01*
X100494500Y-55999999D01*
X100494500Y-58999999D01*
X100494500Y-62524256D01*
X100494500Y-65014572D01*
X100494500Y-67014572D01*
X100494500Y-69999999D01*
X100494500Y-72999998D01*
X100494500Y-76524256D01*
X100494500Y-79014572D01*
X100494500Y-82376000D01*
X100100500Y-82376000D01*
X100100500Y-45462499D01*
X104294540Y-45462499D01*
X104314326Y-45650757D01*
X104372820Y-45830784D01*
X104467466Y-45994716D01*
X104594129Y-46135389D01*
X104747269Y-46246651D01*
X104920197Y-46323644D01*
X105105352Y-46363000D01*
X105105354Y-46363000D01*
X105294648Y-46363000D01*
X105434652Y-46333241D01*
X105479803Y-46323644D01*
X105652730Y-46246651D01*
X105652729Y-46246650D01*
X105805870Y-46135389D01*
X105885878Y-46046532D01*
X105932533Y-45994716D01*
X106027179Y-45830784D01*
X106085674Y-45650756D01*
X106105460Y-45462500D01*
X106085674Y-45274244D01*
X106049333Y-45162398D01*
X106027179Y-45094215D01*
X105932533Y-44930283D01*
X105805870Y-44789610D01*
X105652730Y-44678348D01*
X105479802Y-44601355D01*
X105294648Y-44562000D01*
X105294646Y-44562000D01*
X105105354Y-44562000D01*
X105105352Y-44562000D01*
X104920197Y-44601355D01*
X104747269Y-44678348D01*
X104594129Y-44789610D01*
X104467466Y-44930283D01*
X104372820Y-45094215D01*
X104314326Y-45274242D01*
X104294540Y-45462499D01*
X100100500Y-45462499D01*
X100100500Y-44131482D01*
X118245500Y-44131482D01*
X118284691Y-44391507D01*
X118317178Y-44496825D01*
X118362202Y-44642788D01*
X118394366Y-44709577D01*
X118476296Y-44879707D01*
X118476297Y-44879709D01*
X118476298Y-44879710D01*
X118624430Y-45096980D01*
X118803290Y-45289746D01*
X119008883Y-45453701D01*
X119236616Y-45585183D01*
X119397141Y-45648184D01*
X119465484Y-45675007D01*
X119481402Y-45681254D01*
X119737772Y-45739769D01*
X119934346Y-45754500D01*
X119936663Y-45754500D01*
X120063337Y-45754500D01*
X120065654Y-45754500D01*
X120262228Y-45739769D01*
X120518598Y-45681254D01*
X120763384Y-45585183D01*
X120991117Y-45453701D01*
X121196710Y-45289746D01*
X121375570Y-45096980D01*
X121523702Y-44879710D01*
X121637798Y-44642788D01*
X121715308Y-44391508D01*
X121754500Y-44131482D01*
X121754500Y-43868518D01*
X121715308Y-43608492D01*
X121637798Y-43357212D01*
X121523702Y-43120290D01*
X121375570Y-42903020D01*
X121196710Y-42710254D01*
X121144453Y-42668580D01*
X121136139Y-42661950D01*
X126400000Y-42661950D01*
X126400281Y-42667859D01*
X126414964Y-42821620D01*
X126474149Y-43023187D01*
X126570412Y-43209912D01*
X126700269Y-43375038D01*
X126859036Y-43512611D01*
X127040963Y-43617646D01*
X127239485Y-43686355D01*
X127250000Y-43687866D01*
X127250000Y-42778610D01*
X127274457Y-42818110D01*
X127363962Y-42885701D01*
X127471840Y-42916395D01*
X127583521Y-42906046D01*
X127683922Y-42856052D01*
X127750000Y-42783569D01*
X127750000Y-43683758D01*
X127785179Y-43675224D01*
X127854970Y-43678548D01*
X127911884Y-43719076D01*
X127937852Y-43783940D01*
X127924630Y-43852548D01*
X127885536Y-43897304D01*
X127828378Y-43937324D01*
X128433748Y-44542694D01*
X128367031Y-44553262D01*
X128247077Y-44614382D01*
X128151882Y-44709577D01*
X128090762Y-44829531D01*
X128080195Y-44896249D01*
X127474824Y-44290878D01*
X127435066Y-44347661D01*
X127344480Y-44541922D01*
X127289002Y-44748970D01*
X127270320Y-44962500D01*
X127289002Y-45176029D01*
X127344480Y-45383076D01*
X127435066Y-45577337D01*
X127474825Y-45634119D01*
X128080194Y-45028750D01*
X128090762Y-45095469D01*
X128151882Y-45215423D01*
X128247077Y-45310618D01*
X128367031Y-45371738D01*
X128433747Y-45382304D01*
X127828378Y-45987673D01*
X127885162Y-46027433D01*
X128079423Y-46118019D01*
X128286470Y-46173497D01*
X128500000Y-46192179D01*
X128713529Y-46173497D01*
X128920578Y-46118018D01*
X129114837Y-46027434D01*
X129171620Y-45987673D01*
X128566252Y-45382304D01*
X128632969Y-45371738D01*
X128752923Y-45310618D01*
X128848118Y-45215423D01*
X128909238Y-45095469D01*
X128919804Y-45028751D01*
X129525173Y-45634119D01*
X129564934Y-45577337D01*
X129655518Y-45383078D01*
X129690621Y-45252074D01*
X130244750Y-45252074D01*
X130263686Y-45420131D01*
X130263686Y-45420133D01*
X130263687Y-45420134D01*
X130319544Y-45579765D01*
X130409523Y-45722965D01*
X130529110Y-45842552D01*
X130672310Y-45932531D01*
X130831941Y-45988388D01*
X130833361Y-45988548D01*
X130838152Y-45990561D01*
X130845128Y-45993002D01*
X130844978Y-45993429D01*
X130897773Y-46015613D01*
X130936519Y-46070813D01*
X130969542Y-46165187D01*
X130969544Y-46165190D01*
X131059523Y-46308390D01*
X131179110Y-46427977D01*
X131322310Y-46517956D01*
X131481941Y-46573813D01*
X131650000Y-46592749D01*
X131818059Y-46573813D01*
X131977690Y-46517956D01*
X132120890Y-46427977D01*
X132240477Y-46308390D01*
X132330456Y-46165190D01*
X132386313Y-46005559D01*
X132405249Y-45837500D01*
X132398383Y-45776570D01*
X132410438Y-45707748D01*
X132437411Y-45678479D01*
X132433939Y-45675007D01*
X133080195Y-45028751D01*
X133090762Y-45095469D01*
X133151882Y-45215423D01*
X133247077Y-45310618D01*
X133367031Y-45371738D01*
X133433747Y-45382304D01*
X132828378Y-45987673D01*
X132885162Y-46027433D01*
X133079423Y-46118019D01*
X133205025Y-46151674D01*
X133264685Y-46188039D01*
X133265314Y-46189335D01*
X133319242Y-46176446D01*
X133323729Y-46176757D01*
X133500000Y-46192179D01*
X133713529Y-46173497D01*
X133920578Y-46118018D01*
X134114837Y-46027434D01*
X134171620Y-45987673D01*
X133566252Y-45382304D01*
X133632969Y-45371738D01*
X133752923Y-45310618D01*
X133848118Y-45215423D01*
X133909238Y-45095469D01*
X133919804Y-45028750D01*
X134525173Y-45634119D01*
X134564934Y-45577337D01*
X134655518Y-45383078D01*
X134710997Y-45176029D01*
X134729679Y-44962499D01*
X134710997Y-44748970D01*
X134655519Y-44541923D01*
X134564932Y-44347659D01*
X134525173Y-44290878D01*
X133919804Y-44896246D01*
X133909238Y-44829531D01*
X133848118Y-44709577D01*
X133752923Y-44614382D01*
X133632969Y-44553262D01*
X133566251Y-44542695D01*
X134171620Y-43937325D01*
X134123470Y-43903610D01*
X134079845Y-43849032D01*
X134072653Y-43779534D01*
X134104175Y-43717179D01*
X134164405Y-43681766D01*
X134234220Y-43684537D01*
X134235155Y-43684857D01*
X134239485Y-43686355D01*
X134250000Y-43687866D01*
X134250000Y-42778610D01*
X134274457Y-42818110D01*
X134363962Y-42885701D01*
X134471840Y-42916395D01*
X134583521Y-42906046D01*
X134683922Y-42856052D01*
X134750000Y-42783569D01*
X134750000Y-43683757D01*
X134861410Y-43656729D01*
X135052505Y-43569460D01*
X135223621Y-43447607D01*
X135368592Y-43295566D01*
X135482166Y-43118844D01*
X135560244Y-42923814D01*
X135600000Y-42717537D01*
X135600000Y-42512500D01*
X134800000Y-42512500D01*
X134800000Y-42012500D01*
X135600000Y-42012500D01*
X135600000Y-41863049D01*
X135599718Y-41857140D01*
X135585035Y-41703379D01*
X135525850Y-41501812D01*
X135429587Y-41315087D01*
X135299730Y-41149961D01*
X135140963Y-41012388D01*
X134959036Y-40907353D01*
X134760511Y-40838643D01*
X134750000Y-40837131D01*
X134750000Y-41746389D01*
X134725543Y-41706890D01*
X134636038Y-41639299D01*
X134528160Y-41608605D01*
X134416479Y-41618954D01*
X134316078Y-41668948D01*
X134250000Y-41741430D01*
X134250000Y-40841240D01*
X134138593Y-40868268D01*
X133947494Y-40955539D01*
X133776378Y-41077392D01*
X133631407Y-41229433D01*
X133517833Y-41406155D01*
X133439755Y-41601185D01*
X133400000Y-41807462D01*
X133400000Y-42012500D01*
X134200000Y-42012500D01*
X134200000Y-42512500D01*
X133400000Y-42512500D01*
X133400000Y-42661950D01*
X133400281Y-42667859D01*
X133414964Y-42821620D01*
X133474149Y-43023187D01*
X133570412Y-43209912D01*
X133700269Y-43375038D01*
X133859036Y-43512611D01*
X133941472Y-43560205D01*
X133989688Y-43610772D01*
X134002911Y-43679379D01*
X133976943Y-43744244D01*
X133920029Y-43784772D01*
X133850238Y-43788097D01*
X133847378Y-43787367D01*
X133713529Y-43751502D01*
X133500000Y-43732820D01*
X133286470Y-43751502D01*
X133079423Y-43806980D01*
X132885163Y-43897565D01*
X132755868Y-43988098D01*
X132689661Y-44010425D01*
X132642021Y-43998465D01*
X132640878Y-44001734D01*
X132627691Y-43997119D01*
X132627690Y-43997119D01*
X132468059Y-43941262D01*
X132468058Y-43941261D01*
X132468056Y-43941261D01*
X132300000Y-43922325D01*
X132131943Y-43941261D01*
X131972310Y-43997119D01*
X131829108Y-44087099D01*
X131709524Y-44206683D01*
X131619544Y-44349885D01*
X131563686Y-44509518D01*
X131563644Y-44509895D01*
X131563110Y-44511164D01*
X131559073Y-44522703D01*
X131558365Y-44522455D01*
X131536575Y-44574308D01*
X131478979Y-44613862D01*
X131409142Y-44615997D01*
X131374453Y-44601002D01*
X131327690Y-44571619D01*
X131168059Y-44515762D01*
X131168058Y-44515761D01*
X131168056Y-44515761D01*
X131000000Y-44496825D01*
X130831943Y-44515761D01*
X130672310Y-44571619D01*
X130529108Y-44661599D01*
X130409524Y-44781183D01*
X130319544Y-44924385D01*
X130263686Y-45084018D01*
X130244750Y-45252074D01*
X129690621Y-45252074D01*
X129710997Y-45176029D01*
X129729679Y-44962500D01*
X129710997Y-44748970D01*
X129655519Y-44541923D01*
X129564932Y-44347659D01*
X129525173Y-44290878D01*
X128919804Y-44896247D01*
X128909238Y-44829531D01*
X128848118Y-44709577D01*
X128752923Y-44614382D01*
X128632969Y-44553262D01*
X128566251Y-44542695D01*
X129171620Y-43937325D01*
X129114837Y-43897566D01*
X128920576Y-43806980D01*
X128713529Y-43751502D01*
X128500000Y-43732820D01*
X128286468Y-43751502D01*
X128165354Y-43783954D01*
X128095504Y-43782291D01*
X128037642Y-43743128D01*
X128010138Y-43678899D01*
X128021725Y-43609997D01*
X128061334Y-43563171D01*
X128223625Y-43447604D01*
X128368592Y-43295566D01*
X128482166Y-43118844D01*
X128560244Y-42923814D01*
X128600000Y-42717537D01*
X128600000Y-42512500D01*
X127800000Y-42512500D01*
X127800000Y-42012500D01*
X128600000Y-42012500D01*
X128600000Y-41863049D01*
X128599718Y-41857140D01*
X128585035Y-41703379D01*
X128525850Y-41501812D01*
X128429587Y-41315087D01*
X128299730Y-41149961D01*
X128140963Y-41012388D01*
X127959036Y-40907353D01*
X127760511Y-40838643D01*
X127750000Y-40837131D01*
X127749999Y-41746387D01*
X127725543Y-41706890D01*
X127636038Y-41639299D01*
X127528160Y-41608605D01*
X127416479Y-41618954D01*
X127316078Y-41668948D01*
X127249999Y-41741430D01*
X127250000Y-40841240D01*
X127138593Y-40868268D01*
X126947494Y-40955539D01*
X126776378Y-41077392D01*
X126631407Y-41229433D01*
X126517833Y-41406155D01*
X126439755Y-41601185D01*
X126400000Y-41807462D01*
X126400000Y-42012500D01*
X127200000Y-42012500D01*
X127200000Y-42512500D01*
X126400000Y-42512500D01*
X126400000Y-42661950D01*
X121136139Y-42661950D01*
X120991116Y-42546298D01*
X120763382Y-42414816D01*
X120518600Y-42318746D01*
X120262225Y-42260230D01*
X120067968Y-42245673D01*
X120067957Y-42245672D01*
X120065654Y-42245500D01*
X119934346Y-42245500D01*
X119932043Y-42245672D01*
X119932031Y-42245673D01*
X119737774Y-42260230D01*
X119481399Y-42318746D01*
X119236617Y-42414816D01*
X119008883Y-42546298D01*
X118803290Y-42710253D01*
X118624431Y-42903018D01*
X118476296Y-43120292D01*
X118362202Y-43357212D01*
X118284691Y-43608492D01*
X118245500Y-43868517D01*
X118245500Y-44131482D01*
X100100500Y-44131482D01*
X100100500Y-44002870D01*
X100100632Y-43997143D01*
X100110451Y-43784772D01*
X100116870Y-43645914D01*
X100117927Y-43634519D01*
X100121558Y-43608492D01*
X100166106Y-43289131D01*
X100168206Y-43277896D01*
X100248052Y-42938416D01*
X100251175Y-42927437D01*
X100362011Y-42596748D01*
X100366134Y-42586108D01*
X100507003Y-42267068D01*
X100512086Y-42256859D01*
X100681789Y-41952184D01*
X100687815Y-41942452D01*
X100884905Y-41654736D01*
X100891787Y-41645623D01*
X100960812Y-41562499D01*
X103749750Y-41562499D01*
X103768686Y-41730556D01*
X103768686Y-41730558D01*
X103768687Y-41730559D01*
X103824544Y-41890190D01*
X103914523Y-42033390D01*
X104034110Y-42152977D01*
X104177310Y-42242956D01*
X104336941Y-42298813D01*
X104448980Y-42311436D01*
X104504999Y-42317749D01*
X104504999Y-42317748D01*
X104505000Y-42317749D01*
X104673059Y-42298813D01*
X104832690Y-42242956D01*
X104975890Y-42152977D01*
X105095477Y-42033390D01*
X105185456Y-41890190D01*
X105241313Y-41730559D01*
X105260249Y-41562500D01*
X105260249Y-41562499D01*
X107559750Y-41562499D01*
X107578686Y-41730556D01*
X107578686Y-41730558D01*
X107578687Y-41730559D01*
X107634544Y-41890190D01*
X107724523Y-42033390D01*
X107844110Y-42152977D01*
X107987310Y-42242956D01*
X108146941Y-42298813D01*
X108315000Y-42317749D01*
X108483059Y-42298813D01*
X108642690Y-42242956D01*
X108785890Y-42152977D01*
X108905477Y-42033390D01*
X108995456Y-41890190D01*
X109051313Y-41730559D01*
X109070249Y-41562500D01*
X109070249Y-41562499D01*
X112639750Y-41562499D01*
X112658686Y-41730556D01*
X112658686Y-41730558D01*
X112658687Y-41730559D01*
X112714544Y-41890190D01*
X112804523Y-42033390D01*
X112924110Y-42152977D01*
X113067310Y-42242956D01*
X113226941Y-42298813D01*
X113395000Y-42317749D01*
X113563059Y-42298813D01*
X113722690Y-42242956D01*
X113865890Y-42152977D01*
X113985477Y-42033390D01*
X114075456Y-41890190D01*
X114131313Y-41730559D01*
X114150249Y-41562500D01*
X114131313Y-41394441D01*
X114075456Y-41234810D01*
X113985477Y-41091610D01*
X113865890Y-40972023D01*
X113722690Y-40882044D01*
X113563059Y-40826187D01*
X113563058Y-40826186D01*
X113563056Y-40826186D01*
X113394999Y-40807250D01*
X113226943Y-40826186D01*
X113067310Y-40882044D01*
X112924108Y-40972024D01*
X112804524Y-41091608D01*
X112714544Y-41234810D01*
X112658686Y-41394443D01*
X112639750Y-41562499D01*
X109070249Y-41562499D01*
X109051313Y-41394441D01*
X108995456Y-41234810D01*
X108905477Y-41091610D01*
X108785890Y-40972023D01*
X108642690Y-40882044D01*
X108483059Y-40826187D01*
X108483058Y-40826186D01*
X108483056Y-40826186D01*
X108315000Y-40807250D01*
X108146943Y-40826186D01*
X107987310Y-40882044D01*
X107844108Y-40972024D01*
X107724524Y-41091608D01*
X107634544Y-41234810D01*
X107578686Y-41394443D01*
X107559750Y-41562499D01*
X105260249Y-41562499D01*
X105241313Y-41394441D01*
X105185456Y-41234810D01*
X105095477Y-41091610D01*
X104975890Y-40972023D01*
X104832690Y-40882044D01*
X104673059Y-40826187D01*
X104673058Y-40826186D01*
X104673056Y-40826186D01*
X104504999Y-40807250D01*
X104336943Y-40826186D01*
X104177310Y-40882044D01*
X104034108Y-40972024D01*
X103914524Y-41091608D01*
X103824544Y-41234810D01*
X103768686Y-41394443D01*
X103749750Y-41562499D01*
X100960812Y-41562499D01*
X101114582Y-41377321D01*
X101122277Y-41368881D01*
X101368881Y-41122277D01*
X101377321Y-41114582D01*
X101645623Y-40891787D01*
X101654736Y-40884905D01*
X101942457Y-40687811D01*
X101952184Y-40681789D01*
X102256859Y-40512086D01*
X102267068Y-40507003D01*
X102586108Y-40366134D01*
X102596748Y-40362011D01*
X102927437Y-40251175D01*
X102938416Y-40248052D01*
X103277896Y-40168206D01*
X103289131Y-40166106D01*
X103634528Y-40117926D01*
X103645914Y-40116870D01*
X103997144Y-40100632D01*
X104002872Y-40100500D01*
X104026929Y-40100500D01*
X135973071Y-40100500D01*
X135997128Y-40100500D01*
X136002855Y-40100632D01*
G37*
%TD.AperFunction*%
%TD*%
M02*
