%TF.GenerationSoftware,KiCad,Pcbnew,7.0.2*%
%TF.CreationDate,2023-11-21T14:26:02-06:00*%
%TF.ProjectId,BPS-PeripheralSOM,4250532d-5065-4726-9970-686572616c53,rev?*%
%TF.SameCoordinates,Original*%
%TF.FileFunction,Drillmap*%
%TF.FilePolarity,Positive*%
%FSLAX45Y45*%
G04 Gerber Fmt 4.5, Leading zero omitted, Abs format (unit mm)*
G04 Created by KiCad (PCBNEW 7.0.2) date 2023-11-21 14:26:02*
%MOMM*%
%LPD*%
G01*
G04 APERTURE LIST*
%ADD10C,0.100000*%
%ADD11C,0.200000*%
%ADD12C,0.030000*%
%ADD13C,0.060000*%
%ADD14C,0.085000*%
%ADD15C,0.102000*%
G04 APERTURE END LIST*
D10*
X14000000Y-4400000D02*
G75*
G03*
X13600000Y-4000000I-400000J0D01*
G01*
X13600000Y-9000000D02*
X10400000Y-9000000D01*
X13600000Y-9000000D02*
G75*
G03*
X14000000Y-8600000I0J400000D01*
G01*
X10400000Y-4000000D02*
G75*
G03*
X10000000Y-4400000I0J-400000D01*
G01*
X10400000Y-4000000D02*
X13600000Y-4000000D01*
X10000000Y-8600000D02*
X10000000Y-4400000D01*
X10000000Y-8600000D02*
G75*
G03*
X10400000Y-9000000I400000J0D01*
G01*
X14000000Y-4400000D02*
X14000000Y-8600000D01*
D11*
D12*
X10785000Y-7985000D02*
X10815000Y-8015000D01*
X10815000Y-7985000D02*
X10785000Y-8015000D01*
X10845000Y-4455000D02*
X10875000Y-4485000D01*
X10875000Y-4455000D02*
X10845000Y-4485000D01*
X10845000Y-4955000D02*
X10875000Y-4985000D01*
X10875000Y-4955000D02*
X10845000Y-4985000D01*
X10905000Y-7135000D02*
X10935000Y-7165000D01*
X10935000Y-7135000D02*
X10905000Y-7165000D01*
X10975000Y-8225000D02*
X11005000Y-8255000D01*
X11005000Y-8225000D02*
X10975000Y-8255000D01*
X11065000Y-7295000D02*
X11095000Y-7325000D01*
X11095000Y-7295000D02*
X11065000Y-7325000D01*
X11090000Y-7735000D02*
X11120000Y-7765000D01*
X11120000Y-7735000D02*
X11090000Y-7765000D01*
X11093750Y-7935000D02*
X11123750Y-7965000D01*
X11123750Y-7935000D02*
X11093750Y-7965000D01*
X11195000Y-6185000D02*
X11225000Y-6215000D01*
X11225000Y-6185000D02*
X11195000Y-6215000D01*
X11285000Y-8285000D02*
X11315000Y-8315000D01*
X11315000Y-8285000D02*
X11285000Y-8315000D01*
X11475000Y-6085000D02*
X11505000Y-6115000D01*
X11505000Y-6085000D02*
X11475000Y-6115000D01*
X11475000Y-6295000D02*
X11505000Y-6325000D01*
X11505000Y-6295000D02*
X11475000Y-6325000D01*
X11575000Y-8105000D02*
X11605000Y-8135000D01*
X11605000Y-8105000D02*
X11575000Y-8135000D01*
X11885000Y-6285000D02*
X11915000Y-6315000D01*
X11915000Y-6285000D02*
X11885000Y-6315000D01*
X11965000Y-7375000D02*
X11995000Y-7405000D01*
X11995000Y-7375000D02*
X11965000Y-7405000D01*
X11975000Y-5755318D02*
X12005000Y-5785318D01*
X12005000Y-5755318D02*
X11975000Y-5785318D01*
X12035000Y-5885000D02*
X12065000Y-5915000D01*
X12065000Y-5885000D02*
X12035000Y-5915000D01*
X12035000Y-6285000D02*
X12065000Y-6315000D01*
X12065000Y-6285000D02*
X12035000Y-6315000D01*
X12095000Y-7375000D02*
X12125000Y-7405000D01*
X12125000Y-7375000D02*
X12095000Y-7405000D01*
X12145000Y-7615000D02*
X12175000Y-7645000D01*
X12175000Y-7615000D02*
X12145000Y-7645000D01*
X12155000Y-5955000D02*
X12185000Y-5985000D01*
X12185000Y-5955000D02*
X12155000Y-5985000D01*
X12155000Y-7905000D02*
X12185000Y-7935000D01*
X12185000Y-7905000D02*
X12155000Y-7935000D01*
X12185000Y-6605000D02*
X12215000Y-6635000D01*
X12215000Y-6605000D02*
X12185000Y-6635000D01*
X12205000Y-5755000D02*
X12235000Y-5785000D01*
X12235000Y-5755000D02*
X12205000Y-5785000D01*
X12285000Y-5885000D02*
X12315000Y-5915000D01*
X12315000Y-5885000D02*
X12285000Y-5915000D01*
X12285000Y-6285000D02*
X12315000Y-6315000D01*
X12315000Y-6285000D02*
X12285000Y-6315000D01*
X12315000Y-5755000D02*
X12345000Y-5785000D01*
X12345000Y-5755000D02*
X12315000Y-5785000D01*
X12335000Y-5260000D02*
X12365000Y-5290000D01*
X12365000Y-5260000D02*
X12335000Y-5290000D01*
X12381852Y-6885000D02*
X12411852Y-6915000D01*
X12411852Y-6885000D02*
X12381852Y-6915000D01*
X12415000Y-5885000D02*
X12445000Y-5915000D01*
X12445000Y-5885000D02*
X12415000Y-5915000D01*
X12425000Y-6085000D02*
X12455000Y-6115000D01*
X12455000Y-6085000D02*
X12425000Y-6115000D01*
X12425000Y-6285000D02*
X12455000Y-6315000D01*
X12455000Y-6285000D02*
X12425000Y-6315000D01*
X12525000Y-7815000D02*
X12555000Y-7845000D01*
X12555000Y-7815000D02*
X12525000Y-7845000D01*
X12535000Y-7325000D02*
X12565000Y-7355000D01*
X12565000Y-7325000D02*
X12535000Y-7355000D01*
X12565000Y-5255000D02*
X12595000Y-5285000D01*
X12595000Y-5255000D02*
X12565000Y-5285000D01*
X12585000Y-7985000D02*
X12615000Y-8015000D01*
X12615000Y-7985000D02*
X12585000Y-8015000D01*
X12585000Y-8735000D02*
X12615000Y-8765000D01*
X12615000Y-8735000D02*
X12585000Y-8765000D01*
X12635000Y-7055000D02*
X12665000Y-7085000D01*
X12665000Y-7055000D02*
X12635000Y-7085000D01*
X12655000Y-8835000D02*
X12685000Y-8865000D01*
X12685000Y-8835000D02*
X12655000Y-8865000D01*
X12685000Y-7755000D02*
X12715000Y-7785000D01*
X12715000Y-7755000D02*
X12685000Y-7785000D01*
X12704341Y-5935659D02*
X12734341Y-5965659D01*
X12734341Y-5935659D02*
X12704341Y-5965659D01*
X12715000Y-5835000D02*
X12745000Y-5865000D01*
X12745000Y-5835000D02*
X12715000Y-5865000D01*
X12725000Y-6045000D02*
X12755000Y-6075000D01*
X12755000Y-6045000D02*
X12725000Y-6075000D01*
X12785000Y-8885000D02*
X12815000Y-8915000D01*
X12815000Y-8885000D02*
X12785000Y-8915000D01*
X12815000Y-8455000D02*
X12845000Y-8485000D01*
X12845000Y-8455000D02*
X12815000Y-8485000D01*
X12825000Y-5790000D02*
X12855000Y-5820000D01*
X12855000Y-5790000D02*
X12825000Y-5820000D01*
X12825000Y-6590000D02*
X12855000Y-6620000D01*
X12855000Y-6590000D02*
X12825000Y-6620000D01*
X12833058Y-5882879D02*
X12863058Y-5912879D01*
X12863058Y-5882879D02*
X12833058Y-5912879D01*
X12843750Y-6185000D02*
X12873750Y-6215000D01*
X12873750Y-6185000D02*
X12843750Y-6215000D01*
X12843750Y-6385000D02*
X12873750Y-6415000D01*
X12873750Y-6385000D02*
X12843750Y-6415000D01*
X12855000Y-7815000D02*
X12885000Y-7845000D01*
X12885000Y-7815000D02*
X12855000Y-7845000D01*
X12935000Y-8615000D02*
X12965000Y-8645000D01*
X12965000Y-8615000D02*
X12935000Y-8645000D01*
X12965000Y-6685000D02*
X12995000Y-6715000D01*
X12995000Y-6685000D02*
X12965000Y-6715000D01*
X12975000Y-5085000D02*
X13005000Y-5115000D01*
X13005000Y-5085000D02*
X12975000Y-5115000D01*
X12980464Y-6779536D02*
X13010464Y-6809536D01*
X13010464Y-6779536D02*
X12980464Y-6809536D01*
X13015000Y-7345000D02*
X13045000Y-7375000D01*
X13045000Y-7345000D02*
X13015000Y-7375000D01*
X13025000Y-5205000D02*
X13055000Y-5235000D01*
X13055000Y-5205000D02*
X13025000Y-5235000D01*
X13026250Y-6185000D02*
X13056250Y-6215000D01*
X13056250Y-6185000D02*
X13026250Y-6215000D01*
X13035000Y-7785000D02*
X13065000Y-7815000D01*
X13065000Y-7785000D02*
X13035000Y-7815000D01*
X13035000Y-7985000D02*
X13065000Y-8015000D01*
X13065000Y-7985000D02*
X13035000Y-8015000D01*
X13035000Y-8185000D02*
X13065000Y-8215000D01*
X13065000Y-8185000D02*
X13035000Y-8215000D01*
X13035000Y-8385000D02*
X13065000Y-8415000D01*
X13065000Y-8385000D02*
X13035000Y-8415000D01*
X13035000Y-8585000D02*
X13065000Y-8615000D01*
X13065000Y-8585000D02*
X13035000Y-8615000D01*
X13035000Y-8785000D02*
X13065000Y-8815000D01*
X13065000Y-8785000D02*
X13035000Y-8815000D01*
X13085000Y-5576250D02*
X13115000Y-5606250D01*
X13115000Y-5576250D02*
X13085000Y-5606250D01*
X13095003Y-5792957D02*
X13125003Y-5822957D01*
X13125003Y-5792957D02*
X13095003Y-5822957D01*
X13095510Y-6780000D02*
X13125510Y-6810000D01*
X13125510Y-6780000D02*
X13095510Y-6810000D01*
X13115000Y-5255000D02*
X13145000Y-5285000D01*
X13145000Y-5255000D02*
X13115000Y-5285000D01*
X13135000Y-7245000D02*
X13165000Y-7275000D01*
X13165000Y-7245000D02*
X13135000Y-7275000D01*
X13175000Y-4875000D02*
X13205000Y-4905000D01*
X13205000Y-4875000D02*
X13175000Y-4905000D01*
X13185000Y-7027550D02*
X13215000Y-7057550D01*
X13215000Y-7027550D02*
X13185000Y-7057550D01*
X13197287Y-6655163D02*
X13227287Y-6685163D01*
X13227287Y-6655163D02*
X13197287Y-6685163D01*
X13225000Y-5255000D02*
X13255000Y-5285000D01*
X13255000Y-5255000D02*
X13225000Y-5285000D01*
X13225000Y-8715000D02*
X13255000Y-8745000D01*
X13255000Y-8715000D02*
X13225000Y-8745000D01*
X13255000Y-8855000D02*
X13285000Y-8885000D01*
X13285000Y-8855000D02*
X13255000Y-8885000D01*
X13285000Y-5575000D02*
X13315000Y-5605000D01*
X13315000Y-5575000D02*
X13285000Y-5605000D01*
X13295000Y-6385000D02*
X13325000Y-6415000D01*
X13325000Y-6385000D02*
X13295000Y-6415000D01*
X13305000Y-6285000D02*
X13335000Y-6315000D01*
X13335000Y-6285000D02*
X13305000Y-6315000D01*
X13325000Y-6205000D02*
X13355000Y-6235000D01*
X13355000Y-6205000D02*
X13325000Y-6235000D01*
X13345000Y-6515000D02*
X13375000Y-6545000D01*
X13375000Y-6515000D02*
X13345000Y-6545000D01*
X13355000Y-5085000D02*
X13385000Y-5115000D01*
X13385000Y-5085000D02*
X13355000Y-5115000D01*
X13365000Y-7445000D02*
X13395000Y-7475000D01*
X13395000Y-7445000D02*
X13365000Y-7475000D01*
X13378180Y-4699427D02*
X13408180Y-4729427D01*
X13408180Y-4699427D02*
X13378180Y-4729427D01*
X13405000Y-8885000D02*
X13435000Y-8915000D01*
X13435000Y-8885000D02*
X13405000Y-8915000D01*
X13485000Y-4976250D02*
X13515000Y-5006250D01*
X13515000Y-4976250D02*
X13485000Y-5006250D01*
X13485000Y-5393750D02*
X13515000Y-5423750D01*
X13515000Y-5393750D02*
X13485000Y-5423750D01*
X13485000Y-8135000D02*
X13515000Y-8165000D01*
X13515000Y-8135000D02*
X13485000Y-8165000D01*
X13505000Y-7445000D02*
X13535000Y-7475000D01*
X13535000Y-7445000D02*
X13505000Y-7475000D01*
X13575000Y-4690000D02*
X13605000Y-4720000D01*
X13605000Y-4690000D02*
X13575000Y-4720000D01*
X13575000Y-5105000D02*
X13605000Y-5135000D01*
X13605000Y-5105000D02*
X13575000Y-5135000D01*
X13615000Y-6375000D02*
X13645000Y-6405000D01*
X13645000Y-6375000D02*
X13615000Y-6405000D01*
X13635000Y-6575000D02*
X13665000Y-6605000D01*
X13665000Y-6575000D02*
X13635000Y-6605000D01*
X13635000Y-6665000D02*
X13665000Y-6695000D01*
X13665000Y-6665000D02*
X13635000Y-6695000D01*
X13665000Y-6825000D02*
X13695000Y-6855000D01*
X13695000Y-6825000D02*
X13665000Y-6855000D01*
X13675000Y-8755000D02*
X13705000Y-8785000D01*
X13705000Y-8755000D02*
X13675000Y-8785000D01*
X13685000Y-4793750D02*
X13715000Y-4823750D01*
X13715000Y-4793750D02*
X13685000Y-4823750D01*
X13685000Y-5395000D02*
X13715000Y-5425000D01*
X13715000Y-5395000D02*
X13685000Y-5425000D01*
X13725000Y-8485000D02*
X13755000Y-8515000D01*
X13755000Y-8485000D02*
X13725000Y-8515000D01*
X13735000Y-6585000D02*
X13765000Y-6615000D01*
X13765000Y-6585000D02*
X13735000Y-6615000D01*
X13735000Y-6745000D02*
X13765000Y-6775000D01*
X13765000Y-6745000D02*
X13735000Y-6775000D01*
X13735000Y-7526250D02*
X13765000Y-7556250D01*
X13765000Y-7526250D02*
X13735000Y-7556250D01*
X13785000Y-8135000D02*
X13815000Y-8165000D01*
X13815000Y-8135000D02*
X13785000Y-8165000D01*
X13827950Y-6505000D02*
X13857950Y-6535000D01*
X13857950Y-6505000D02*
X13827950Y-6535000D01*
X13845000Y-4865000D02*
X13875000Y-4895000D01*
X13875000Y-4865000D02*
X13845000Y-4895000D01*
X13865000Y-6105000D02*
X13895000Y-6135000D01*
X13895000Y-6105000D02*
X13865000Y-6135000D01*
X13865000Y-6185000D02*
X13895000Y-6215000D01*
X13895000Y-6185000D02*
X13865000Y-6215000D01*
X13865000Y-6265000D02*
X13895000Y-6295000D01*
X13895000Y-6265000D02*
X13865000Y-6295000D01*
X13865000Y-6345000D02*
X13895000Y-6375000D01*
X13895000Y-6345000D02*
X13865000Y-6375000D01*
X13865000Y-6425000D02*
X13895000Y-6455000D01*
X13895000Y-6425000D02*
X13865000Y-6455000D01*
X13875000Y-8615000D02*
X13905000Y-8645000D01*
X13905000Y-8615000D02*
X13875000Y-8645000D01*
D13*
X12980000Y-4150000D02*
G75*
G03*
X12980000Y-4150000I-30000J0D01*
G01*
D11*
X12980000Y-4185000D02*
X12980000Y-4115000D01*
X12980000Y-4115000D02*
G75*
G03*
X12920000Y-4115000I-30000J0D01*
G01*
X12920000Y-4115000D02*
X12920000Y-4185000D01*
X12920000Y-4185000D02*
G75*
G03*
X12980000Y-4185000I30000J0D01*
G01*
D13*
X13680000Y-4150000D02*
G75*
G03*
X13680000Y-4150000I-30000J0D01*
G01*
D11*
X13620000Y-4115000D02*
X13620000Y-4185000D01*
X13620000Y-4185000D02*
G75*
G03*
X13680000Y-4185000I30000J0D01*
G01*
X13680000Y-4185000D02*
X13680000Y-4115000D01*
X13680000Y-4115000D02*
G75*
G03*
X13620000Y-4115000I-30000J0D01*
G01*
D14*
X13050000Y-4377500D02*
X13050000Y-4462500D01*
X13007500Y-4420000D02*
X13092500Y-4420000D01*
X13550000Y-4377500D02*
X13550000Y-4462500D01*
X13507500Y-4420000D02*
X13592500Y-4420000D01*
D10*
X10335356Y-4585356D02*
X10335356Y-4514644D01*
X10264644Y-4514644D01*
X10264644Y-4585356D01*
X10335356Y-4585356D01*
X10335356Y-8485356D02*
X10335356Y-8414644D01*
X10264644Y-8414644D01*
X10264644Y-8485356D01*
X10335356Y-8485356D01*
X10585356Y-4335356D02*
X10585356Y-4264644D01*
X10514644Y-4264644D01*
X10514644Y-4335356D01*
X10585356Y-4335356D01*
X10585356Y-8735356D02*
X10585356Y-8664644D01*
X10514644Y-8664644D01*
X10514644Y-8735356D01*
X10585356Y-8735356D01*
X11181356Y-8735356D02*
X11181356Y-8664644D01*
X11110644Y-8664644D01*
X11110644Y-8735356D01*
X11181356Y-8735356D01*
X11435356Y-8735356D02*
X11435356Y-8664644D01*
X11364644Y-8664644D01*
X11364644Y-8735356D01*
X11435356Y-8735356D01*
X11855356Y-5035356D02*
X11855356Y-4964644D01*
X11784644Y-4964644D01*
X11784644Y-5035356D01*
X11855356Y-5035356D01*
X12109356Y-5035356D02*
X12109356Y-4964644D01*
X12038644Y-4964644D01*
X12038644Y-5035356D01*
X12109356Y-5035356D01*
X12363356Y-5035356D02*
X12363356Y-4964644D01*
X12292644Y-4964644D01*
X12292644Y-5035356D01*
X12363356Y-5035356D01*
X12617356Y-5035356D02*
X12617356Y-4964644D01*
X12546644Y-4964644D01*
X12546644Y-5035356D01*
X12617356Y-5035356D01*
D15*
X10350000Y-5201000D02*
X10401000Y-5150000D01*
X10350000Y-5099000D01*
X10299000Y-5150000D01*
X10350000Y-5201000D01*
X10350000Y-5501000D02*
X10401000Y-5450000D01*
X10350000Y-5399000D01*
X10299000Y-5450000D01*
X10350000Y-5501000D01*
X10350000Y-5801000D02*
X10401000Y-5750000D01*
X10350000Y-5699000D01*
X10299000Y-5750000D01*
X10350000Y-5801000D01*
X10350000Y-6101000D02*
X10401000Y-6050000D01*
X10350000Y-5999000D01*
X10299000Y-6050000D01*
X10350000Y-6101000D01*
X10350000Y-7001000D02*
X10401000Y-6950000D01*
X10350000Y-6899000D01*
X10299000Y-6950000D01*
X10350000Y-7001000D01*
X10350000Y-7301000D02*
X10401000Y-7250000D01*
X10350000Y-7199000D01*
X10299000Y-7250000D01*
X10350000Y-7301000D01*
X10350000Y-7601000D02*
X10401000Y-7550000D01*
X10350000Y-7499000D01*
X10299000Y-7550000D01*
X10350000Y-7601000D01*
X10350000Y-7901000D02*
X10401000Y-7850000D01*
X10350000Y-7799000D01*
X10299000Y-7850000D01*
X10350000Y-7901000D01*
D11*
X10242619Y-9317524D02*
X10242619Y-9117524D01*
X10242619Y-9117524D02*
X10290238Y-9117524D01*
X10290238Y-9117524D02*
X10318810Y-9127048D01*
X10318810Y-9127048D02*
X10337857Y-9146095D01*
X10337857Y-9146095D02*
X10347381Y-9165143D01*
X10347381Y-9165143D02*
X10356905Y-9203238D01*
X10356905Y-9203238D02*
X10356905Y-9231810D01*
X10356905Y-9231810D02*
X10347381Y-9269905D01*
X10347381Y-9269905D02*
X10337857Y-9288952D01*
X10337857Y-9288952D02*
X10318810Y-9308000D01*
X10318810Y-9308000D02*
X10290238Y-9317524D01*
X10290238Y-9317524D02*
X10242619Y-9317524D01*
X10442619Y-9317524D02*
X10442619Y-9184190D01*
X10442619Y-9222286D02*
X10452143Y-9203238D01*
X10452143Y-9203238D02*
X10461667Y-9193714D01*
X10461667Y-9193714D02*
X10480714Y-9184190D01*
X10480714Y-9184190D02*
X10499762Y-9184190D01*
X10566429Y-9317524D02*
X10566429Y-9184190D01*
X10566429Y-9117524D02*
X10556905Y-9127048D01*
X10556905Y-9127048D02*
X10566429Y-9136571D01*
X10566429Y-9136571D02*
X10575952Y-9127048D01*
X10575952Y-9127048D02*
X10566429Y-9117524D01*
X10566429Y-9117524D02*
X10566429Y-9136571D01*
X10690238Y-9317524D02*
X10671190Y-9308000D01*
X10671190Y-9308000D02*
X10661667Y-9288952D01*
X10661667Y-9288952D02*
X10661667Y-9117524D01*
X10795000Y-9317524D02*
X10775952Y-9308000D01*
X10775952Y-9308000D02*
X10766429Y-9288952D01*
X10766429Y-9288952D02*
X10766429Y-9117524D01*
X11023571Y-9317524D02*
X11023571Y-9117524D01*
X11023571Y-9117524D02*
X11090238Y-9260381D01*
X11090238Y-9260381D02*
X11156905Y-9117524D01*
X11156905Y-9117524D02*
X11156905Y-9317524D01*
X11337857Y-9317524D02*
X11337857Y-9212762D01*
X11337857Y-9212762D02*
X11328333Y-9193714D01*
X11328333Y-9193714D02*
X11309286Y-9184190D01*
X11309286Y-9184190D02*
X11271190Y-9184190D01*
X11271190Y-9184190D02*
X11252143Y-9193714D01*
X11337857Y-9308000D02*
X11318809Y-9317524D01*
X11318809Y-9317524D02*
X11271190Y-9317524D01*
X11271190Y-9317524D02*
X11252143Y-9308000D01*
X11252143Y-9308000D02*
X11242619Y-9288952D01*
X11242619Y-9288952D02*
X11242619Y-9269905D01*
X11242619Y-9269905D02*
X11252143Y-9250857D01*
X11252143Y-9250857D02*
X11271190Y-9241333D01*
X11271190Y-9241333D02*
X11318809Y-9241333D01*
X11318809Y-9241333D02*
X11337857Y-9231810D01*
X11433095Y-9184190D02*
X11433095Y-9384190D01*
X11433095Y-9193714D02*
X11452143Y-9184190D01*
X11452143Y-9184190D02*
X11490238Y-9184190D01*
X11490238Y-9184190D02*
X11509286Y-9193714D01*
X11509286Y-9193714D02*
X11518809Y-9203238D01*
X11518809Y-9203238D02*
X11528333Y-9222286D01*
X11528333Y-9222286D02*
X11528333Y-9279429D01*
X11528333Y-9279429D02*
X11518809Y-9298476D01*
X11518809Y-9298476D02*
X11509286Y-9308000D01*
X11509286Y-9308000D02*
X11490238Y-9317524D01*
X11490238Y-9317524D02*
X11452143Y-9317524D01*
X11452143Y-9317524D02*
X11433095Y-9308000D01*
X11614048Y-9298476D02*
X11623571Y-9308000D01*
X11623571Y-9308000D02*
X11614048Y-9317524D01*
X11614048Y-9317524D02*
X11604524Y-9308000D01*
X11604524Y-9308000D02*
X11614048Y-9298476D01*
X11614048Y-9298476D02*
X11614048Y-9317524D01*
X11614048Y-9193714D02*
X11623571Y-9203238D01*
X11623571Y-9203238D02*
X11614048Y-9212762D01*
X11614048Y-9212762D02*
X11604524Y-9203238D01*
X11604524Y-9203238D02*
X11614048Y-9193714D01*
X11614048Y-9193714D02*
X11614048Y-9212762D01*
D12*
X9965000Y-9630000D02*
X9995000Y-9660000D01*
X9995000Y-9630000D02*
X9965000Y-9660000D01*
D11*
X10280714Y-9537524D02*
X10299762Y-9537524D01*
X10299762Y-9537524D02*
X10318810Y-9547048D01*
X10318810Y-9547048D02*
X10328333Y-9556571D01*
X10328333Y-9556571D02*
X10337857Y-9575619D01*
X10337857Y-9575619D02*
X10347381Y-9613714D01*
X10347381Y-9613714D02*
X10347381Y-9661333D01*
X10347381Y-9661333D02*
X10337857Y-9699429D01*
X10337857Y-9699429D02*
X10328333Y-9718476D01*
X10328333Y-9718476D02*
X10318810Y-9728000D01*
X10318810Y-9728000D02*
X10299762Y-9737524D01*
X10299762Y-9737524D02*
X10280714Y-9737524D01*
X10280714Y-9737524D02*
X10261667Y-9728000D01*
X10261667Y-9728000D02*
X10252143Y-9718476D01*
X10252143Y-9718476D02*
X10242619Y-9699429D01*
X10242619Y-9699429D02*
X10233095Y-9661333D01*
X10233095Y-9661333D02*
X10233095Y-9613714D01*
X10233095Y-9613714D02*
X10242619Y-9575619D01*
X10242619Y-9575619D02*
X10252143Y-9556571D01*
X10252143Y-9556571D02*
X10261667Y-9547048D01*
X10261667Y-9547048D02*
X10280714Y-9537524D01*
X10433095Y-9718476D02*
X10442619Y-9728000D01*
X10442619Y-9728000D02*
X10433095Y-9737524D01*
X10433095Y-9737524D02*
X10423571Y-9728000D01*
X10423571Y-9728000D02*
X10433095Y-9718476D01*
X10433095Y-9718476D02*
X10433095Y-9737524D01*
X10509286Y-9537524D02*
X10633095Y-9537524D01*
X10633095Y-9537524D02*
X10566429Y-9613714D01*
X10566429Y-9613714D02*
X10595000Y-9613714D01*
X10595000Y-9613714D02*
X10614048Y-9623238D01*
X10614048Y-9623238D02*
X10623571Y-9632762D01*
X10623571Y-9632762D02*
X10633095Y-9651810D01*
X10633095Y-9651810D02*
X10633095Y-9699429D01*
X10633095Y-9699429D02*
X10623571Y-9718476D01*
X10623571Y-9718476D02*
X10614048Y-9728000D01*
X10614048Y-9728000D02*
X10595000Y-9737524D01*
X10595000Y-9737524D02*
X10537857Y-9737524D01*
X10537857Y-9737524D02*
X10518810Y-9728000D01*
X10518810Y-9728000D02*
X10509286Y-9718476D01*
X10756905Y-9537524D02*
X10775952Y-9537524D01*
X10775952Y-9537524D02*
X10795000Y-9547048D01*
X10795000Y-9547048D02*
X10804524Y-9556571D01*
X10804524Y-9556571D02*
X10814048Y-9575619D01*
X10814048Y-9575619D02*
X10823571Y-9613714D01*
X10823571Y-9613714D02*
X10823571Y-9661333D01*
X10823571Y-9661333D02*
X10814048Y-9699429D01*
X10814048Y-9699429D02*
X10804524Y-9718476D01*
X10804524Y-9718476D02*
X10795000Y-9728000D01*
X10795000Y-9728000D02*
X10775952Y-9737524D01*
X10775952Y-9737524D02*
X10756905Y-9737524D01*
X10756905Y-9737524D02*
X10737857Y-9728000D01*
X10737857Y-9728000D02*
X10728333Y-9718476D01*
X10728333Y-9718476D02*
X10718810Y-9699429D01*
X10718810Y-9699429D02*
X10709286Y-9661333D01*
X10709286Y-9661333D02*
X10709286Y-9613714D01*
X10709286Y-9613714D02*
X10718810Y-9575619D01*
X10718810Y-9575619D02*
X10728333Y-9556571D01*
X10728333Y-9556571D02*
X10737857Y-9547048D01*
X10737857Y-9547048D02*
X10756905Y-9537524D01*
X10947381Y-9537524D02*
X10966429Y-9537524D01*
X10966429Y-9537524D02*
X10985476Y-9547048D01*
X10985476Y-9547048D02*
X10995000Y-9556571D01*
X10995000Y-9556571D02*
X11004524Y-9575619D01*
X11004524Y-9575619D02*
X11014048Y-9613714D01*
X11014048Y-9613714D02*
X11014048Y-9661333D01*
X11014048Y-9661333D02*
X11004524Y-9699429D01*
X11004524Y-9699429D02*
X10995000Y-9718476D01*
X10995000Y-9718476D02*
X10985476Y-9728000D01*
X10985476Y-9728000D02*
X10966429Y-9737524D01*
X10966429Y-9737524D02*
X10947381Y-9737524D01*
X10947381Y-9737524D02*
X10928333Y-9728000D01*
X10928333Y-9728000D02*
X10918810Y-9718476D01*
X10918810Y-9718476D02*
X10909286Y-9699429D01*
X10909286Y-9699429D02*
X10899762Y-9661333D01*
X10899762Y-9661333D02*
X10899762Y-9613714D01*
X10899762Y-9613714D02*
X10909286Y-9575619D01*
X10909286Y-9575619D02*
X10918810Y-9556571D01*
X10918810Y-9556571D02*
X10928333Y-9547048D01*
X10928333Y-9547048D02*
X10947381Y-9537524D01*
X11099762Y-9737524D02*
X11099762Y-9604190D01*
X11099762Y-9623238D02*
X11109286Y-9613714D01*
X11109286Y-9613714D02*
X11128333Y-9604190D01*
X11128333Y-9604190D02*
X11156905Y-9604190D01*
X11156905Y-9604190D02*
X11175952Y-9613714D01*
X11175952Y-9613714D02*
X11185476Y-9632762D01*
X11185476Y-9632762D02*
X11185476Y-9737524D01*
X11185476Y-9632762D02*
X11195000Y-9613714D01*
X11195000Y-9613714D02*
X11214048Y-9604190D01*
X11214048Y-9604190D02*
X11242619Y-9604190D01*
X11242619Y-9604190D02*
X11261667Y-9613714D01*
X11261667Y-9613714D02*
X11271190Y-9632762D01*
X11271190Y-9632762D02*
X11271190Y-9737524D01*
X11366429Y-9737524D02*
X11366429Y-9604190D01*
X11366429Y-9623238D02*
X11375952Y-9613714D01*
X11375952Y-9613714D02*
X11395000Y-9604190D01*
X11395000Y-9604190D02*
X11423571Y-9604190D01*
X11423571Y-9604190D02*
X11442619Y-9613714D01*
X11442619Y-9613714D02*
X11452143Y-9632762D01*
X11452143Y-9632762D02*
X11452143Y-9737524D01*
X11452143Y-9632762D02*
X11461667Y-9613714D01*
X11461667Y-9613714D02*
X11480714Y-9604190D01*
X11480714Y-9604190D02*
X11509286Y-9604190D01*
X11509286Y-9604190D02*
X11528333Y-9613714D01*
X11528333Y-9613714D02*
X11537857Y-9632762D01*
X11537857Y-9632762D02*
X11537857Y-9737524D01*
X11928333Y-9528000D02*
X11756905Y-9785143D01*
X12185476Y-9537524D02*
X12204524Y-9537524D01*
X12204524Y-9537524D02*
X12223572Y-9547048D01*
X12223572Y-9547048D02*
X12233095Y-9556571D01*
X12233095Y-9556571D02*
X12242619Y-9575619D01*
X12242619Y-9575619D02*
X12252143Y-9613714D01*
X12252143Y-9613714D02*
X12252143Y-9661333D01*
X12252143Y-9661333D02*
X12242619Y-9699429D01*
X12242619Y-9699429D02*
X12233095Y-9718476D01*
X12233095Y-9718476D02*
X12223572Y-9728000D01*
X12223572Y-9728000D02*
X12204524Y-9737524D01*
X12204524Y-9737524D02*
X12185476Y-9737524D01*
X12185476Y-9737524D02*
X12166429Y-9728000D01*
X12166429Y-9728000D02*
X12156905Y-9718476D01*
X12156905Y-9718476D02*
X12147381Y-9699429D01*
X12147381Y-9699429D02*
X12137857Y-9661333D01*
X12137857Y-9661333D02*
X12137857Y-9613714D01*
X12137857Y-9613714D02*
X12147381Y-9575619D01*
X12147381Y-9575619D02*
X12156905Y-9556571D01*
X12156905Y-9556571D02*
X12166429Y-9547048D01*
X12166429Y-9547048D02*
X12185476Y-9537524D01*
X12337857Y-9718476D02*
X12347381Y-9728000D01*
X12347381Y-9728000D02*
X12337857Y-9737524D01*
X12337857Y-9737524D02*
X12328333Y-9728000D01*
X12328333Y-9728000D02*
X12337857Y-9718476D01*
X12337857Y-9718476D02*
X12337857Y-9737524D01*
X12471191Y-9537524D02*
X12490238Y-9537524D01*
X12490238Y-9537524D02*
X12509286Y-9547048D01*
X12509286Y-9547048D02*
X12518810Y-9556571D01*
X12518810Y-9556571D02*
X12528333Y-9575619D01*
X12528333Y-9575619D02*
X12537857Y-9613714D01*
X12537857Y-9613714D02*
X12537857Y-9661333D01*
X12537857Y-9661333D02*
X12528333Y-9699429D01*
X12528333Y-9699429D02*
X12518810Y-9718476D01*
X12518810Y-9718476D02*
X12509286Y-9728000D01*
X12509286Y-9728000D02*
X12490238Y-9737524D01*
X12490238Y-9737524D02*
X12471191Y-9737524D01*
X12471191Y-9737524D02*
X12452143Y-9728000D01*
X12452143Y-9728000D02*
X12442619Y-9718476D01*
X12442619Y-9718476D02*
X12433095Y-9699429D01*
X12433095Y-9699429D02*
X12423572Y-9661333D01*
X12423572Y-9661333D02*
X12423572Y-9613714D01*
X12423572Y-9613714D02*
X12433095Y-9575619D01*
X12433095Y-9575619D02*
X12442619Y-9556571D01*
X12442619Y-9556571D02*
X12452143Y-9547048D01*
X12452143Y-9547048D02*
X12471191Y-9537524D01*
X12728333Y-9737524D02*
X12614048Y-9737524D01*
X12671191Y-9737524D02*
X12671191Y-9537524D01*
X12671191Y-9537524D02*
X12652143Y-9566095D01*
X12652143Y-9566095D02*
X12633095Y-9585143D01*
X12633095Y-9585143D02*
X12614048Y-9594667D01*
X12918810Y-9737524D02*
X12804524Y-9737524D01*
X12861667Y-9737524D02*
X12861667Y-9537524D01*
X12861667Y-9537524D02*
X12842619Y-9566095D01*
X12842619Y-9566095D02*
X12823572Y-9585143D01*
X12823572Y-9585143D02*
X12804524Y-9594667D01*
X13033095Y-9623238D02*
X13014048Y-9613714D01*
X13014048Y-9613714D02*
X13004524Y-9604190D01*
X13004524Y-9604190D02*
X12995000Y-9585143D01*
X12995000Y-9585143D02*
X12995000Y-9575619D01*
X12995000Y-9575619D02*
X13004524Y-9556571D01*
X13004524Y-9556571D02*
X13014048Y-9547048D01*
X13014048Y-9547048D02*
X13033095Y-9537524D01*
X13033095Y-9537524D02*
X13071191Y-9537524D01*
X13071191Y-9537524D02*
X13090238Y-9547048D01*
X13090238Y-9547048D02*
X13099762Y-9556571D01*
X13099762Y-9556571D02*
X13109286Y-9575619D01*
X13109286Y-9575619D02*
X13109286Y-9585143D01*
X13109286Y-9585143D02*
X13099762Y-9604190D01*
X13099762Y-9604190D02*
X13090238Y-9613714D01*
X13090238Y-9613714D02*
X13071191Y-9623238D01*
X13071191Y-9623238D02*
X13033095Y-9623238D01*
X13033095Y-9623238D02*
X13014048Y-9632762D01*
X13014048Y-9632762D02*
X13004524Y-9642286D01*
X13004524Y-9642286D02*
X12995000Y-9661333D01*
X12995000Y-9661333D02*
X12995000Y-9699429D01*
X12995000Y-9699429D02*
X13004524Y-9718476D01*
X13004524Y-9718476D02*
X13014048Y-9728000D01*
X13014048Y-9728000D02*
X13033095Y-9737524D01*
X13033095Y-9737524D02*
X13071191Y-9737524D01*
X13071191Y-9737524D02*
X13090238Y-9728000D01*
X13090238Y-9728000D02*
X13099762Y-9718476D01*
X13099762Y-9718476D02*
X13109286Y-9699429D01*
X13109286Y-9699429D02*
X13109286Y-9661333D01*
X13109286Y-9661333D02*
X13099762Y-9642286D01*
X13099762Y-9642286D02*
X13090238Y-9632762D01*
X13090238Y-9632762D02*
X13071191Y-9623238D01*
X13185476Y-9537524D02*
X13185476Y-9575619D01*
X13261667Y-9537524D02*
X13261667Y-9575619D01*
X13556905Y-9813714D02*
X13547381Y-9804190D01*
X13547381Y-9804190D02*
X13528334Y-9775619D01*
X13528334Y-9775619D02*
X13518810Y-9756571D01*
X13518810Y-9756571D02*
X13509286Y-9728000D01*
X13509286Y-9728000D02*
X13499762Y-9680381D01*
X13499762Y-9680381D02*
X13499762Y-9642286D01*
X13499762Y-9642286D02*
X13509286Y-9594667D01*
X13509286Y-9594667D02*
X13518810Y-9566095D01*
X13518810Y-9566095D02*
X13528334Y-9547048D01*
X13528334Y-9547048D02*
X13547381Y-9518476D01*
X13547381Y-9518476D02*
X13556905Y-9508952D01*
X13737857Y-9737524D02*
X13623572Y-9737524D01*
X13680714Y-9737524D02*
X13680714Y-9537524D01*
X13680714Y-9537524D02*
X13661667Y-9566095D01*
X13661667Y-9566095D02*
X13642619Y-9585143D01*
X13642619Y-9585143D02*
X13623572Y-9594667D01*
X13928334Y-9737524D02*
X13814048Y-9737524D01*
X13871191Y-9737524D02*
X13871191Y-9537524D01*
X13871191Y-9537524D02*
X13852143Y-9566095D01*
X13852143Y-9566095D02*
X13833095Y-9585143D01*
X13833095Y-9585143D02*
X13814048Y-9594667D01*
X14052143Y-9537524D02*
X14071191Y-9537524D01*
X14071191Y-9537524D02*
X14090238Y-9547048D01*
X14090238Y-9547048D02*
X14099762Y-9556571D01*
X14099762Y-9556571D02*
X14109286Y-9575619D01*
X14109286Y-9575619D02*
X14118810Y-9613714D01*
X14118810Y-9613714D02*
X14118810Y-9661333D01*
X14118810Y-9661333D02*
X14109286Y-9699429D01*
X14109286Y-9699429D02*
X14099762Y-9718476D01*
X14099762Y-9718476D02*
X14090238Y-9728000D01*
X14090238Y-9728000D02*
X14071191Y-9737524D01*
X14071191Y-9737524D02*
X14052143Y-9737524D01*
X14052143Y-9737524D02*
X14033095Y-9728000D01*
X14033095Y-9728000D02*
X14023572Y-9718476D01*
X14023572Y-9718476D02*
X14014048Y-9699429D01*
X14014048Y-9699429D02*
X14004524Y-9661333D01*
X14004524Y-9661333D02*
X14004524Y-9613714D01*
X14004524Y-9613714D02*
X14014048Y-9575619D01*
X14014048Y-9575619D02*
X14023572Y-9556571D01*
X14023572Y-9556571D02*
X14033095Y-9547048D01*
X14033095Y-9547048D02*
X14052143Y-9537524D01*
X14356905Y-9737524D02*
X14356905Y-9537524D01*
X14442619Y-9737524D02*
X14442619Y-9632762D01*
X14442619Y-9632762D02*
X14433096Y-9613714D01*
X14433096Y-9613714D02*
X14414048Y-9604190D01*
X14414048Y-9604190D02*
X14385476Y-9604190D01*
X14385476Y-9604190D02*
X14366429Y-9613714D01*
X14366429Y-9613714D02*
X14356905Y-9623238D01*
X14566429Y-9737524D02*
X14547381Y-9728000D01*
X14547381Y-9728000D02*
X14537857Y-9718476D01*
X14537857Y-9718476D02*
X14528334Y-9699429D01*
X14528334Y-9699429D02*
X14528334Y-9642286D01*
X14528334Y-9642286D02*
X14537857Y-9623238D01*
X14537857Y-9623238D02*
X14547381Y-9613714D01*
X14547381Y-9613714D02*
X14566429Y-9604190D01*
X14566429Y-9604190D02*
X14595000Y-9604190D01*
X14595000Y-9604190D02*
X14614048Y-9613714D01*
X14614048Y-9613714D02*
X14623572Y-9623238D01*
X14623572Y-9623238D02*
X14633096Y-9642286D01*
X14633096Y-9642286D02*
X14633096Y-9699429D01*
X14633096Y-9699429D02*
X14623572Y-9718476D01*
X14623572Y-9718476D02*
X14614048Y-9728000D01*
X14614048Y-9728000D02*
X14595000Y-9737524D01*
X14595000Y-9737524D02*
X14566429Y-9737524D01*
X14747381Y-9737524D02*
X14728334Y-9728000D01*
X14728334Y-9728000D02*
X14718810Y-9708952D01*
X14718810Y-9708952D02*
X14718810Y-9537524D01*
X14899762Y-9728000D02*
X14880715Y-9737524D01*
X14880715Y-9737524D02*
X14842619Y-9737524D01*
X14842619Y-9737524D02*
X14823572Y-9728000D01*
X14823572Y-9728000D02*
X14814048Y-9708952D01*
X14814048Y-9708952D02*
X14814048Y-9632762D01*
X14814048Y-9632762D02*
X14823572Y-9613714D01*
X14823572Y-9613714D02*
X14842619Y-9604190D01*
X14842619Y-9604190D02*
X14880715Y-9604190D01*
X14880715Y-9604190D02*
X14899762Y-9613714D01*
X14899762Y-9613714D02*
X14909286Y-9632762D01*
X14909286Y-9632762D02*
X14909286Y-9651810D01*
X14909286Y-9651810D02*
X14814048Y-9670857D01*
X14985477Y-9728000D02*
X15004524Y-9737524D01*
X15004524Y-9737524D02*
X15042619Y-9737524D01*
X15042619Y-9737524D02*
X15061667Y-9728000D01*
X15061667Y-9728000D02*
X15071191Y-9708952D01*
X15071191Y-9708952D02*
X15071191Y-9699429D01*
X15071191Y-9699429D02*
X15061667Y-9680381D01*
X15061667Y-9680381D02*
X15042619Y-9670857D01*
X15042619Y-9670857D02*
X15014048Y-9670857D01*
X15014048Y-9670857D02*
X14995000Y-9661333D01*
X14995000Y-9661333D02*
X14985477Y-9642286D01*
X14985477Y-9642286D02*
X14985477Y-9632762D01*
X14985477Y-9632762D02*
X14995000Y-9613714D01*
X14995000Y-9613714D02*
X15014048Y-9604190D01*
X15014048Y-9604190D02*
X15042619Y-9604190D01*
X15042619Y-9604190D02*
X15061667Y-9613714D01*
X15137858Y-9813714D02*
X15147381Y-9804190D01*
X15147381Y-9804190D02*
X15166429Y-9775619D01*
X15166429Y-9775619D02*
X15175953Y-9756571D01*
X15175953Y-9756571D02*
X15185477Y-9728000D01*
X15185477Y-9728000D02*
X15195000Y-9680381D01*
X15195000Y-9680381D02*
X15195000Y-9642286D01*
X15195000Y-9642286D02*
X15185477Y-9594667D01*
X15185477Y-9594667D02*
X15175953Y-9566095D01*
X15175953Y-9566095D02*
X15166429Y-9547048D01*
X15166429Y-9547048D02*
X15147381Y-9518476D01*
X15147381Y-9518476D02*
X15137858Y-9508952D01*
D13*
X9995000Y-9909000D02*
G75*
G03*
X9995000Y-9909000I-30000J0D01*
G01*
D11*
X10280714Y-9801524D02*
X10299762Y-9801524D01*
X10299762Y-9801524D02*
X10318810Y-9811048D01*
X10318810Y-9811048D02*
X10328333Y-9820571D01*
X10328333Y-9820571D02*
X10337857Y-9839619D01*
X10337857Y-9839619D02*
X10347381Y-9877714D01*
X10347381Y-9877714D02*
X10347381Y-9925333D01*
X10347381Y-9925333D02*
X10337857Y-9963429D01*
X10337857Y-9963429D02*
X10328333Y-9982476D01*
X10328333Y-9982476D02*
X10318810Y-9992000D01*
X10318810Y-9992000D02*
X10299762Y-10001524D01*
X10299762Y-10001524D02*
X10280714Y-10001524D01*
X10280714Y-10001524D02*
X10261667Y-9992000D01*
X10261667Y-9992000D02*
X10252143Y-9982476D01*
X10252143Y-9982476D02*
X10242619Y-9963429D01*
X10242619Y-9963429D02*
X10233095Y-9925333D01*
X10233095Y-9925333D02*
X10233095Y-9877714D01*
X10233095Y-9877714D02*
X10242619Y-9839619D01*
X10242619Y-9839619D02*
X10252143Y-9820571D01*
X10252143Y-9820571D02*
X10261667Y-9811048D01*
X10261667Y-9811048D02*
X10280714Y-9801524D01*
X10433095Y-9982476D02*
X10442619Y-9992000D01*
X10442619Y-9992000D02*
X10433095Y-10001524D01*
X10433095Y-10001524D02*
X10423571Y-9992000D01*
X10423571Y-9992000D02*
X10433095Y-9982476D01*
X10433095Y-9982476D02*
X10433095Y-10001524D01*
X10614048Y-9801524D02*
X10575952Y-9801524D01*
X10575952Y-9801524D02*
X10556905Y-9811048D01*
X10556905Y-9811048D02*
X10547381Y-9820571D01*
X10547381Y-9820571D02*
X10528333Y-9849143D01*
X10528333Y-9849143D02*
X10518810Y-9887238D01*
X10518810Y-9887238D02*
X10518810Y-9963429D01*
X10518810Y-9963429D02*
X10528333Y-9982476D01*
X10528333Y-9982476D02*
X10537857Y-9992000D01*
X10537857Y-9992000D02*
X10556905Y-10001524D01*
X10556905Y-10001524D02*
X10595000Y-10001524D01*
X10595000Y-10001524D02*
X10614048Y-9992000D01*
X10614048Y-9992000D02*
X10623571Y-9982476D01*
X10623571Y-9982476D02*
X10633095Y-9963429D01*
X10633095Y-9963429D02*
X10633095Y-9915810D01*
X10633095Y-9915810D02*
X10623571Y-9896762D01*
X10623571Y-9896762D02*
X10614048Y-9887238D01*
X10614048Y-9887238D02*
X10595000Y-9877714D01*
X10595000Y-9877714D02*
X10556905Y-9877714D01*
X10556905Y-9877714D02*
X10537857Y-9887238D01*
X10537857Y-9887238D02*
X10528333Y-9896762D01*
X10528333Y-9896762D02*
X10518810Y-9915810D01*
X10756905Y-9801524D02*
X10775952Y-9801524D01*
X10775952Y-9801524D02*
X10795000Y-9811048D01*
X10795000Y-9811048D02*
X10804524Y-9820571D01*
X10804524Y-9820571D02*
X10814048Y-9839619D01*
X10814048Y-9839619D02*
X10823571Y-9877714D01*
X10823571Y-9877714D02*
X10823571Y-9925333D01*
X10823571Y-9925333D02*
X10814048Y-9963429D01*
X10814048Y-9963429D02*
X10804524Y-9982476D01*
X10804524Y-9982476D02*
X10795000Y-9992000D01*
X10795000Y-9992000D02*
X10775952Y-10001524D01*
X10775952Y-10001524D02*
X10756905Y-10001524D01*
X10756905Y-10001524D02*
X10737857Y-9992000D01*
X10737857Y-9992000D02*
X10728333Y-9982476D01*
X10728333Y-9982476D02*
X10718810Y-9963429D01*
X10718810Y-9963429D02*
X10709286Y-9925333D01*
X10709286Y-9925333D02*
X10709286Y-9877714D01*
X10709286Y-9877714D02*
X10718810Y-9839619D01*
X10718810Y-9839619D02*
X10728333Y-9820571D01*
X10728333Y-9820571D02*
X10737857Y-9811048D01*
X10737857Y-9811048D02*
X10756905Y-9801524D01*
X10947381Y-9801524D02*
X10966429Y-9801524D01*
X10966429Y-9801524D02*
X10985476Y-9811048D01*
X10985476Y-9811048D02*
X10995000Y-9820571D01*
X10995000Y-9820571D02*
X11004524Y-9839619D01*
X11004524Y-9839619D02*
X11014048Y-9877714D01*
X11014048Y-9877714D02*
X11014048Y-9925333D01*
X11014048Y-9925333D02*
X11004524Y-9963429D01*
X11004524Y-9963429D02*
X10995000Y-9982476D01*
X10995000Y-9982476D02*
X10985476Y-9992000D01*
X10985476Y-9992000D02*
X10966429Y-10001524D01*
X10966429Y-10001524D02*
X10947381Y-10001524D01*
X10947381Y-10001524D02*
X10928333Y-9992000D01*
X10928333Y-9992000D02*
X10918810Y-9982476D01*
X10918810Y-9982476D02*
X10909286Y-9963429D01*
X10909286Y-9963429D02*
X10899762Y-9925333D01*
X10899762Y-9925333D02*
X10899762Y-9877714D01*
X10899762Y-9877714D02*
X10909286Y-9839619D01*
X10909286Y-9839619D02*
X10918810Y-9820571D01*
X10918810Y-9820571D02*
X10928333Y-9811048D01*
X10928333Y-9811048D02*
X10947381Y-9801524D01*
X11099762Y-10001524D02*
X11099762Y-9868190D01*
X11099762Y-9887238D02*
X11109286Y-9877714D01*
X11109286Y-9877714D02*
X11128333Y-9868190D01*
X11128333Y-9868190D02*
X11156905Y-9868190D01*
X11156905Y-9868190D02*
X11175952Y-9877714D01*
X11175952Y-9877714D02*
X11185476Y-9896762D01*
X11185476Y-9896762D02*
X11185476Y-10001524D01*
X11185476Y-9896762D02*
X11195000Y-9877714D01*
X11195000Y-9877714D02*
X11214048Y-9868190D01*
X11214048Y-9868190D02*
X11242619Y-9868190D01*
X11242619Y-9868190D02*
X11261667Y-9877714D01*
X11261667Y-9877714D02*
X11271190Y-9896762D01*
X11271190Y-9896762D02*
X11271190Y-10001524D01*
X11366429Y-10001524D02*
X11366429Y-9868190D01*
X11366429Y-9887238D02*
X11375952Y-9877714D01*
X11375952Y-9877714D02*
X11395000Y-9868190D01*
X11395000Y-9868190D02*
X11423571Y-9868190D01*
X11423571Y-9868190D02*
X11442619Y-9877714D01*
X11442619Y-9877714D02*
X11452143Y-9896762D01*
X11452143Y-9896762D02*
X11452143Y-10001524D01*
X11452143Y-9896762D02*
X11461667Y-9877714D01*
X11461667Y-9877714D02*
X11480714Y-9868190D01*
X11480714Y-9868190D02*
X11509286Y-9868190D01*
X11509286Y-9868190D02*
X11528333Y-9877714D01*
X11528333Y-9877714D02*
X11537857Y-9896762D01*
X11537857Y-9896762D02*
X11537857Y-10001524D01*
X11928333Y-9792000D02*
X11756905Y-10049143D01*
X12185476Y-9801524D02*
X12204524Y-9801524D01*
X12204524Y-9801524D02*
X12223572Y-9811048D01*
X12223572Y-9811048D02*
X12233095Y-9820571D01*
X12233095Y-9820571D02*
X12242619Y-9839619D01*
X12242619Y-9839619D02*
X12252143Y-9877714D01*
X12252143Y-9877714D02*
X12252143Y-9925333D01*
X12252143Y-9925333D02*
X12242619Y-9963429D01*
X12242619Y-9963429D02*
X12233095Y-9982476D01*
X12233095Y-9982476D02*
X12223572Y-9992000D01*
X12223572Y-9992000D02*
X12204524Y-10001524D01*
X12204524Y-10001524D02*
X12185476Y-10001524D01*
X12185476Y-10001524D02*
X12166429Y-9992000D01*
X12166429Y-9992000D02*
X12156905Y-9982476D01*
X12156905Y-9982476D02*
X12147381Y-9963429D01*
X12147381Y-9963429D02*
X12137857Y-9925333D01*
X12137857Y-9925333D02*
X12137857Y-9877714D01*
X12137857Y-9877714D02*
X12147381Y-9839619D01*
X12147381Y-9839619D02*
X12156905Y-9820571D01*
X12156905Y-9820571D02*
X12166429Y-9811048D01*
X12166429Y-9811048D02*
X12185476Y-9801524D01*
X12337857Y-9982476D02*
X12347381Y-9992000D01*
X12347381Y-9992000D02*
X12337857Y-10001524D01*
X12337857Y-10001524D02*
X12328333Y-9992000D01*
X12328333Y-9992000D02*
X12337857Y-9982476D01*
X12337857Y-9982476D02*
X12337857Y-10001524D01*
X12471191Y-9801524D02*
X12490238Y-9801524D01*
X12490238Y-9801524D02*
X12509286Y-9811048D01*
X12509286Y-9811048D02*
X12518810Y-9820571D01*
X12518810Y-9820571D02*
X12528333Y-9839619D01*
X12528333Y-9839619D02*
X12537857Y-9877714D01*
X12537857Y-9877714D02*
X12537857Y-9925333D01*
X12537857Y-9925333D02*
X12528333Y-9963429D01*
X12528333Y-9963429D02*
X12518810Y-9982476D01*
X12518810Y-9982476D02*
X12509286Y-9992000D01*
X12509286Y-9992000D02*
X12490238Y-10001524D01*
X12490238Y-10001524D02*
X12471191Y-10001524D01*
X12471191Y-10001524D02*
X12452143Y-9992000D01*
X12452143Y-9992000D02*
X12442619Y-9982476D01*
X12442619Y-9982476D02*
X12433095Y-9963429D01*
X12433095Y-9963429D02*
X12423572Y-9925333D01*
X12423572Y-9925333D02*
X12423572Y-9877714D01*
X12423572Y-9877714D02*
X12433095Y-9839619D01*
X12433095Y-9839619D02*
X12442619Y-9820571D01*
X12442619Y-9820571D02*
X12452143Y-9811048D01*
X12452143Y-9811048D02*
X12471191Y-9801524D01*
X12614048Y-9820571D02*
X12623572Y-9811048D01*
X12623572Y-9811048D02*
X12642619Y-9801524D01*
X12642619Y-9801524D02*
X12690238Y-9801524D01*
X12690238Y-9801524D02*
X12709286Y-9811048D01*
X12709286Y-9811048D02*
X12718810Y-9820571D01*
X12718810Y-9820571D02*
X12728333Y-9839619D01*
X12728333Y-9839619D02*
X12728333Y-9858667D01*
X12728333Y-9858667D02*
X12718810Y-9887238D01*
X12718810Y-9887238D02*
X12604524Y-10001524D01*
X12604524Y-10001524D02*
X12728333Y-10001524D01*
X12795000Y-9801524D02*
X12918810Y-9801524D01*
X12918810Y-9801524D02*
X12852143Y-9877714D01*
X12852143Y-9877714D02*
X12880714Y-9877714D01*
X12880714Y-9877714D02*
X12899762Y-9887238D01*
X12899762Y-9887238D02*
X12909286Y-9896762D01*
X12909286Y-9896762D02*
X12918810Y-9915810D01*
X12918810Y-9915810D02*
X12918810Y-9963429D01*
X12918810Y-9963429D02*
X12909286Y-9982476D01*
X12909286Y-9982476D02*
X12899762Y-9992000D01*
X12899762Y-9992000D02*
X12880714Y-10001524D01*
X12880714Y-10001524D02*
X12823572Y-10001524D01*
X12823572Y-10001524D02*
X12804524Y-9992000D01*
X12804524Y-9992000D02*
X12795000Y-9982476D01*
X13090238Y-9801524D02*
X13052143Y-9801524D01*
X13052143Y-9801524D02*
X13033095Y-9811048D01*
X13033095Y-9811048D02*
X13023572Y-9820571D01*
X13023572Y-9820571D02*
X13004524Y-9849143D01*
X13004524Y-9849143D02*
X12995000Y-9887238D01*
X12995000Y-9887238D02*
X12995000Y-9963429D01*
X12995000Y-9963429D02*
X13004524Y-9982476D01*
X13004524Y-9982476D02*
X13014048Y-9992000D01*
X13014048Y-9992000D02*
X13033095Y-10001524D01*
X13033095Y-10001524D02*
X13071191Y-10001524D01*
X13071191Y-10001524D02*
X13090238Y-9992000D01*
X13090238Y-9992000D02*
X13099762Y-9982476D01*
X13099762Y-9982476D02*
X13109286Y-9963429D01*
X13109286Y-9963429D02*
X13109286Y-9915810D01*
X13109286Y-9915810D02*
X13099762Y-9896762D01*
X13099762Y-9896762D02*
X13090238Y-9887238D01*
X13090238Y-9887238D02*
X13071191Y-9877714D01*
X13071191Y-9877714D02*
X13033095Y-9877714D01*
X13033095Y-9877714D02*
X13014048Y-9887238D01*
X13014048Y-9887238D02*
X13004524Y-9896762D01*
X13004524Y-9896762D02*
X12995000Y-9915810D01*
X13185476Y-9801524D02*
X13185476Y-9839619D01*
X13261667Y-9801524D02*
X13261667Y-9839619D01*
X13556905Y-10077714D02*
X13547381Y-10068190D01*
X13547381Y-10068190D02*
X13528334Y-10039619D01*
X13528334Y-10039619D02*
X13518810Y-10020571D01*
X13518810Y-10020571D02*
X13509286Y-9992000D01*
X13509286Y-9992000D02*
X13499762Y-9944381D01*
X13499762Y-9944381D02*
X13499762Y-9906286D01*
X13499762Y-9906286D02*
X13509286Y-9858667D01*
X13509286Y-9858667D02*
X13518810Y-9830095D01*
X13518810Y-9830095D02*
X13528334Y-9811048D01*
X13528334Y-9811048D02*
X13547381Y-9782476D01*
X13547381Y-9782476D02*
X13556905Y-9772952D01*
X13671191Y-9801524D02*
X13690238Y-9801524D01*
X13690238Y-9801524D02*
X13709286Y-9811048D01*
X13709286Y-9811048D02*
X13718810Y-9820571D01*
X13718810Y-9820571D02*
X13728334Y-9839619D01*
X13728334Y-9839619D02*
X13737857Y-9877714D01*
X13737857Y-9877714D02*
X13737857Y-9925333D01*
X13737857Y-9925333D02*
X13728334Y-9963429D01*
X13728334Y-9963429D02*
X13718810Y-9982476D01*
X13718810Y-9982476D02*
X13709286Y-9992000D01*
X13709286Y-9992000D02*
X13690238Y-10001524D01*
X13690238Y-10001524D02*
X13671191Y-10001524D01*
X13671191Y-10001524D02*
X13652143Y-9992000D01*
X13652143Y-9992000D02*
X13642619Y-9982476D01*
X13642619Y-9982476D02*
X13633095Y-9963429D01*
X13633095Y-9963429D02*
X13623572Y-9925333D01*
X13623572Y-9925333D02*
X13623572Y-9877714D01*
X13623572Y-9877714D02*
X13633095Y-9839619D01*
X13633095Y-9839619D02*
X13642619Y-9820571D01*
X13642619Y-9820571D02*
X13652143Y-9811048D01*
X13652143Y-9811048D02*
X13671191Y-9801524D01*
X13975953Y-10001524D02*
X13975953Y-9801524D01*
X14061667Y-10001524D02*
X14061667Y-9896762D01*
X14061667Y-9896762D02*
X14052143Y-9877714D01*
X14052143Y-9877714D02*
X14033096Y-9868190D01*
X14033096Y-9868190D02*
X14004524Y-9868190D01*
X14004524Y-9868190D02*
X13985476Y-9877714D01*
X13985476Y-9877714D02*
X13975953Y-9887238D01*
X14185476Y-10001524D02*
X14166429Y-9992000D01*
X14166429Y-9992000D02*
X14156905Y-9982476D01*
X14156905Y-9982476D02*
X14147381Y-9963429D01*
X14147381Y-9963429D02*
X14147381Y-9906286D01*
X14147381Y-9906286D02*
X14156905Y-9887238D01*
X14156905Y-9887238D02*
X14166429Y-9877714D01*
X14166429Y-9877714D02*
X14185476Y-9868190D01*
X14185476Y-9868190D02*
X14214048Y-9868190D01*
X14214048Y-9868190D02*
X14233096Y-9877714D01*
X14233096Y-9877714D02*
X14242619Y-9887238D01*
X14242619Y-9887238D02*
X14252143Y-9906286D01*
X14252143Y-9906286D02*
X14252143Y-9963429D01*
X14252143Y-9963429D02*
X14242619Y-9982476D01*
X14242619Y-9982476D02*
X14233096Y-9992000D01*
X14233096Y-9992000D02*
X14214048Y-10001524D01*
X14214048Y-10001524D02*
X14185476Y-10001524D01*
X14366429Y-10001524D02*
X14347381Y-9992000D01*
X14347381Y-9992000D02*
X14337857Y-9972952D01*
X14337857Y-9972952D02*
X14337857Y-9801524D01*
X14518810Y-9992000D02*
X14499762Y-10001524D01*
X14499762Y-10001524D02*
X14461667Y-10001524D01*
X14461667Y-10001524D02*
X14442619Y-9992000D01*
X14442619Y-9992000D02*
X14433096Y-9972952D01*
X14433096Y-9972952D02*
X14433096Y-9896762D01*
X14433096Y-9896762D02*
X14442619Y-9877714D01*
X14442619Y-9877714D02*
X14461667Y-9868190D01*
X14461667Y-9868190D02*
X14499762Y-9868190D01*
X14499762Y-9868190D02*
X14518810Y-9877714D01*
X14518810Y-9877714D02*
X14528334Y-9896762D01*
X14528334Y-9896762D02*
X14528334Y-9915810D01*
X14528334Y-9915810D02*
X14433096Y-9934857D01*
X14604524Y-9992000D02*
X14623572Y-10001524D01*
X14623572Y-10001524D02*
X14661667Y-10001524D01*
X14661667Y-10001524D02*
X14680715Y-9992000D01*
X14680715Y-9992000D02*
X14690238Y-9972952D01*
X14690238Y-9972952D02*
X14690238Y-9963429D01*
X14690238Y-9963429D02*
X14680715Y-9944381D01*
X14680715Y-9944381D02*
X14661667Y-9934857D01*
X14661667Y-9934857D02*
X14633096Y-9934857D01*
X14633096Y-9934857D02*
X14614048Y-9925333D01*
X14614048Y-9925333D02*
X14604524Y-9906286D01*
X14604524Y-9906286D02*
X14604524Y-9896762D01*
X14604524Y-9896762D02*
X14614048Y-9877714D01*
X14614048Y-9877714D02*
X14633096Y-9868190D01*
X14633096Y-9868190D02*
X14661667Y-9868190D01*
X14661667Y-9868190D02*
X14680715Y-9877714D01*
X14928334Y-9925333D02*
X15080715Y-9925333D01*
X15004524Y-10001524D02*
X15004524Y-9849143D01*
X15318810Y-9820571D02*
X15328334Y-9811048D01*
X15328334Y-9811048D02*
X15347381Y-9801524D01*
X15347381Y-9801524D02*
X15395000Y-9801524D01*
X15395000Y-9801524D02*
X15414048Y-9811048D01*
X15414048Y-9811048D02*
X15423572Y-9820571D01*
X15423572Y-9820571D02*
X15433096Y-9839619D01*
X15433096Y-9839619D02*
X15433096Y-9858667D01*
X15433096Y-9858667D02*
X15423572Y-9887238D01*
X15423572Y-9887238D02*
X15309286Y-10001524D01*
X15309286Y-10001524D02*
X15433096Y-10001524D01*
X15661667Y-9992000D02*
X15680715Y-10001524D01*
X15680715Y-10001524D02*
X15718810Y-10001524D01*
X15718810Y-10001524D02*
X15737858Y-9992000D01*
X15737858Y-9992000D02*
X15747381Y-9972952D01*
X15747381Y-9972952D02*
X15747381Y-9963429D01*
X15747381Y-9963429D02*
X15737858Y-9944381D01*
X15737858Y-9944381D02*
X15718810Y-9934857D01*
X15718810Y-9934857D02*
X15690239Y-9934857D01*
X15690239Y-9934857D02*
X15671191Y-9925333D01*
X15671191Y-9925333D02*
X15661667Y-9906286D01*
X15661667Y-9906286D02*
X15661667Y-9896762D01*
X15661667Y-9896762D02*
X15671191Y-9877714D01*
X15671191Y-9877714D02*
X15690239Y-9868190D01*
X15690239Y-9868190D02*
X15718810Y-9868190D01*
X15718810Y-9868190D02*
X15737858Y-9877714D01*
X15861667Y-10001524D02*
X15842620Y-9992000D01*
X15842620Y-9992000D02*
X15833096Y-9972952D01*
X15833096Y-9972952D02*
X15833096Y-9801524D01*
X15966429Y-10001524D02*
X15947381Y-9992000D01*
X15947381Y-9992000D02*
X15937858Y-9982476D01*
X15937858Y-9982476D02*
X15928334Y-9963429D01*
X15928334Y-9963429D02*
X15928334Y-9906286D01*
X15928334Y-9906286D02*
X15937858Y-9887238D01*
X15937858Y-9887238D02*
X15947381Y-9877714D01*
X15947381Y-9877714D02*
X15966429Y-9868190D01*
X15966429Y-9868190D02*
X15995001Y-9868190D01*
X15995001Y-9868190D02*
X16014048Y-9877714D01*
X16014048Y-9877714D02*
X16023572Y-9887238D01*
X16023572Y-9887238D02*
X16033096Y-9906286D01*
X16033096Y-9906286D02*
X16033096Y-9963429D01*
X16033096Y-9963429D02*
X16023572Y-9982476D01*
X16023572Y-9982476D02*
X16014048Y-9992000D01*
X16014048Y-9992000D02*
X15995001Y-10001524D01*
X15995001Y-10001524D02*
X15966429Y-10001524D01*
X16090239Y-9868190D02*
X16166429Y-9868190D01*
X16118810Y-9801524D02*
X16118810Y-9972952D01*
X16118810Y-9972952D02*
X16128334Y-9992000D01*
X16128334Y-9992000D02*
X16147381Y-10001524D01*
X16147381Y-10001524D02*
X16166429Y-10001524D01*
X16223572Y-9992000D02*
X16242620Y-10001524D01*
X16242620Y-10001524D02*
X16280715Y-10001524D01*
X16280715Y-10001524D02*
X16299762Y-9992000D01*
X16299762Y-9992000D02*
X16309286Y-9972952D01*
X16309286Y-9972952D02*
X16309286Y-9963429D01*
X16309286Y-9963429D02*
X16299762Y-9944381D01*
X16299762Y-9944381D02*
X16280715Y-9934857D01*
X16280715Y-9934857D02*
X16252143Y-9934857D01*
X16252143Y-9934857D02*
X16233096Y-9925333D01*
X16233096Y-9925333D02*
X16223572Y-9906286D01*
X16223572Y-9906286D02*
X16223572Y-9896762D01*
X16223572Y-9896762D02*
X16233096Y-9877714D01*
X16233096Y-9877714D02*
X16252143Y-9868190D01*
X16252143Y-9868190D02*
X16280715Y-9868190D01*
X16280715Y-9868190D02*
X16299762Y-9877714D01*
X16375953Y-10077714D02*
X16385477Y-10068190D01*
X16385477Y-10068190D02*
X16404524Y-10039619D01*
X16404524Y-10039619D02*
X16414048Y-10020571D01*
X16414048Y-10020571D02*
X16423572Y-9992000D01*
X16423572Y-9992000D02*
X16433096Y-9944381D01*
X16433096Y-9944381D02*
X16433096Y-9906286D01*
X16433096Y-9906286D02*
X16423572Y-9858667D01*
X16423572Y-9858667D02*
X16414048Y-9830095D01*
X16414048Y-9830095D02*
X16404524Y-9811048D01*
X16404524Y-9811048D02*
X16385477Y-9782476D01*
X16385477Y-9782476D02*
X16375953Y-9772952D01*
D14*
X9952500Y-10130500D02*
X9952500Y-10215500D01*
X9910000Y-10173000D02*
X9995000Y-10173000D01*
D11*
X10280714Y-10065524D02*
X10299762Y-10065524D01*
X10299762Y-10065524D02*
X10318810Y-10075048D01*
X10318810Y-10075048D02*
X10328333Y-10084571D01*
X10328333Y-10084571D02*
X10337857Y-10103619D01*
X10337857Y-10103619D02*
X10347381Y-10141714D01*
X10347381Y-10141714D02*
X10347381Y-10189333D01*
X10347381Y-10189333D02*
X10337857Y-10227429D01*
X10337857Y-10227429D02*
X10328333Y-10246476D01*
X10328333Y-10246476D02*
X10318810Y-10256000D01*
X10318810Y-10256000D02*
X10299762Y-10265524D01*
X10299762Y-10265524D02*
X10280714Y-10265524D01*
X10280714Y-10265524D02*
X10261667Y-10256000D01*
X10261667Y-10256000D02*
X10252143Y-10246476D01*
X10252143Y-10246476D02*
X10242619Y-10227429D01*
X10242619Y-10227429D02*
X10233095Y-10189333D01*
X10233095Y-10189333D02*
X10233095Y-10141714D01*
X10233095Y-10141714D02*
X10242619Y-10103619D01*
X10242619Y-10103619D02*
X10252143Y-10084571D01*
X10252143Y-10084571D02*
X10261667Y-10075048D01*
X10261667Y-10075048D02*
X10280714Y-10065524D01*
X10433095Y-10246476D02*
X10442619Y-10256000D01*
X10442619Y-10256000D02*
X10433095Y-10265524D01*
X10433095Y-10265524D02*
X10423571Y-10256000D01*
X10423571Y-10256000D02*
X10433095Y-10246476D01*
X10433095Y-10246476D02*
X10433095Y-10265524D01*
X10556905Y-10151238D02*
X10537857Y-10141714D01*
X10537857Y-10141714D02*
X10528333Y-10132190D01*
X10528333Y-10132190D02*
X10518810Y-10113143D01*
X10518810Y-10113143D02*
X10518810Y-10103619D01*
X10518810Y-10103619D02*
X10528333Y-10084571D01*
X10528333Y-10084571D02*
X10537857Y-10075048D01*
X10537857Y-10075048D02*
X10556905Y-10065524D01*
X10556905Y-10065524D02*
X10595000Y-10065524D01*
X10595000Y-10065524D02*
X10614048Y-10075048D01*
X10614048Y-10075048D02*
X10623571Y-10084571D01*
X10623571Y-10084571D02*
X10633095Y-10103619D01*
X10633095Y-10103619D02*
X10633095Y-10113143D01*
X10633095Y-10113143D02*
X10623571Y-10132190D01*
X10623571Y-10132190D02*
X10614048Y-10141714D01*
X10614048Y-10141714D02*
X10595000Y-10151238D01*
X10595000Y-10151238D02*
X10556905Y-10151238D01*
X10556905Y-10151238D02*
X10537857Y-10160762D01*
X10537857Y-10160762D02*
X10528333Y-10170286D01*
X10528333Y-10170286D02*
X10518810Y-10189333D01*
X10518810Y-10189333D02*
X10518810Y-10227429D01*
X10518810Y-10227429D02*
X10528333Y-10246476D01*
X10528333Y-10246476D02*
X10537857Y-10256000D01*
X10537857Y-10256000D02*
X10556905Y-10265524D01*
X10556905Y-10265524D02*
X10595000Y-10265524D01*
X10595000Y-10265524D02*
X10614048Y-10256000D01*
X10614048Y-10256000D02*
X10623571Y-10246476D01*
X10623571Y-10246476D02*
X10633095Y-10227429D01*
X10633095Y-10227429D02*
X10633095Y-10189333D01*
X10633095Y-10189333D02*
X10623571Y-10170286D01*
X10623571Y-10170286D02*
X10614048Y-10160762D01*
X10614048Y-10160762D02*
X10595000Y-10151238D01*
X10814048Y-10065524D02*
X10718810Y-10065524D01*
X10718810Y-10065524D02*
X10709286Y-10160762D01*
X10709286Y-10160762D02*
X10718810Y-10151238D01*
X10718810Y-10151238D02*
X10737857Y-10141714D01*
X10737857Y-10141714D02*
X10785476Y-10141714D01*
X10785476Y-10141714D02*
X10804524Y-10151238D01*
X10804524Y-10151238D02*
X10814048Y-10160762D01*
X10814048Y-10160762D02*
X10823571Y-10179810D01*
X10823571Y-10179810D02*
X10823571Y-10227429D01*
X10823571Y-10227429D02*
X10814048Y-10246476D01*
X10814048Y-10246476D02*
X10804524Y-10256000D01*
X10804524Y-10256000D02*
X10785476Y-10265524D01*
X10785476Y-10265524D02*
X10737857Y-10265524D01*
X10737857Y-10265524D02*
X10718810Y-10256000D01*
X10718810Y-10256000D02*
X10709286Y-10246476D01*
X10947381Y-10065524D02*
X10966429Y-10065524D01*
X10966429Y-10065524D02*
X10985476Y-10075048D01*
X10985476Y-10075048D02*
X10995000Y-10084571D01*
X10995000Y-10084571D02*
X11004524Y-10103619D01*
X11004524Y-10103619D02*
X11014048Y-10141714D01*
X11014048Y-10141714D02*
X11014048Y-10189333D01*
X11014048Y-10189333D02*
X11004524Y-10227429D01*
X11004524Y-10227429D02*
X10995000Y-10246476D01*
X10995000Y-10246476D02*
X10985476Y-10256000D01*
X10985476Y-10256000D02*
X10966429Y-10265524D01*
X10966429Y-10265524D02*
X10947381Y-10265524D01*
X10947381Y-10265524D02*
X10928333Y-10256000D01*
X10928333Y-10256000D02*
X10918810Y-10246476D01*
X10918810Y-10246476D02*
X10909286Y-10227429D01*
X10909286Y-10227429D02*
X10899762Y-10189333D01*
X10899762Y-10189333D02*
X10899762Y-10141714D01*
X10899762Y-10141714D02*
X10909286Y-10103619D01*
X10909286Y-10103619D02*
X10918810Y-10084571D01*
X10918810Y-10084571D02*
X10928333Y-10075048D01*
X10928333Y-10075048D02*
X10947381Y-10065524D01*
X11099762Y-10265524D02*
X11099762Y-10132190D01*
X11099762Y-10151238D02*
X11109286Y-10141714D01*
X11109286Y-10141714D02*
X11128333Y-10132190D01*
X11128333Y-10132190D02*
X11156905Y-10132190D01*
X11156905Y-10132190D02*
X11175952Y-10141714D01*
X11175952Y-10141714D02*
X11185476Y-10160762D01*
X11185476Y-10160762D02*
X11185476Y-10265524D01*
X11185476Y-10160762D02*
X11195000Y-10141714D01*
X11195000Y-10141714D02*
X11214048Y-10132190D01*
X11214048Y-10132190D02*
X11242619Y-10132190D01*
X11242619Y-10132190D02*
X11261667Y-10141714D01*
X11261667Y-10141714D02*
X11271190Y-10160762D01*
X11271190Y-10160762D02*
X11271190Y-10265524D01*
X11366429Y-10265524D02*
X11366429Y-10132190D01*
X11366429Y-10151238D02*
X11375952Y-10141714D01*
X11375952Y-10141714D02*
X11395000Y-10132190D01*
X11395000Y-10132190D02*
X11423571Y-10132190D01*
X11423571Y-10132190D02*
X11442619Y-10141714D01*
X11442619Y-10141714D02*
X11452143Y-10160762D01*
X11452143Y-10160762D02*
X11452143Y-10265524D01*
X11452143Y-10160762D02*
X11461667Y-10141714D01*
X11461667Y-10141714D02*
X11480714Y-10132190D01*
X11480714Y-10132190D02*
X11509286Y-10132190D01*
X11509286Y-10132190D02*
X11528333Y-10141714D01*
X11528333Y-10141714D02*
X11537857Y-10160762D01*
X11537857Y-10160762D02*
X11537857Y-10265524D01*
X11928333Y-10056000D02*
X11756905Y-10313143D01*
X12185476Y-10065524D02*
X12204524Y-10065524D01*
X12204524Y-10065524D02*
X12223572Y-10075048D01*
X12223572Y-10075048D02*
X12233095Y-10084571D01*
X12233095Y-10084571D02*
X12242619Y-10103619D01*
X12242619Y-10103619D02*
X12252143Y-10141714D01*
X12252143Y-10141714D02*
X12252143Y-10189333D01*
X12252143Y-10189333D02*
X12242619Y-10227429D01*
X12242619Y-10227429D02*
X12233095Y-10246476D01*
X12233095Y-10246476D02*
X12223572Y-10256000D01*
X12223572Y-10256000D02*
X12204524Y-10265524D01*
X12204524Y-10265524D02*
X12185476Y-10265524D01*
X12185476Y-10265524D02*
X12166429Y-10256000D01*
X12166429Y-10256000D02*
X12156905Y-10246476D01*
X12156905Y-10246476D02*
X12147381Y-10227429D01*
X12147381Y-10227429D02*
X12137857Y-10189333D01*
X12137857Y-10189333D02*
X12137857Y-10141714D01*
X12137857Y-10141714D02*
X12147381Y-10103619D01*
X12147381Y-10103619D02*
X12156905Y-10084571D01*
X12156905Y-10084571D02*
X12166429Y-10075048D01*
X12166429Y-10075048D02*
X12185476Y-10065524D01*
X12337857Y-10246476D02*
X12347381Y-10256000D01*
X12347381Y-10256000D02*
X12337857Y-10265524D01*
X12337857Y-10265524D02*
X12328333Y-10256000D01*
X12328333Y-10256000D02*
X12337857Y-10246476D01*
X12337857Y-10246476D02*
X12337857Y-10265524D01*
X12471191Y-10065524D02*
X12490238Y-10065524D01*
X12490238Y-10065524D02*
X12509286Y-10075048D01*
X12509286Y-10075048D02*
X12518810Y-10084571D01*
X12518810Y-10084571D02*
X12528333Y-10103619D01*
X12528333Y-10103619D02*
X12537857Y-10141714D01*
X12537857Y-10141714D02*
X12537857Y-10189333D01*
X12537857Y-10189333D02*
X12528333Y-10227429D01*
X12528333Y-10227429D02*
X12518810Y-10246476D01*
X12518810Y-10246476D02*
X12509286Y-10256000D01*
X12509286Y-10256000D02*
X12490238Y-10265524D01*
X12490238Y-10265524D02*
X12471191Y-10265524D01*
X12471191Y-10265524D02*
X12452143Y-10256000D01*
X12452143Y-10256000D02*
X12442619Y-10246476D01*
X12442619Y-10246476D02*
X12433095Y-10227429D01*
X12433095Y-10227429D02*
X12423572Y-10189333D01*
X12423572Y-10189333D02*
X12423572Y-10141714D01*
X12423572Y-10141714D02*
X12433095Y-10103619D01*
X12433095Y-10103619D02*
X12442619Y-10084571D01*
X12442619Y-10084571D02*
X12452143Y-10075048D01*
X12452143Y-10075048D02*
X12471191Y-10065524D01*
X12604524Y-10065524D02*
X12728333Y-10065524D01*
X12728333Y-10065524D02*
X12661667Y-10141714D01*
X12661667Y-10141714D02*
X12690238Y-10141714D01*
X12690238Y-10141714D02*
X12709286Y-10151238D01*
X12709286Y-10151238D02*
X12718810Y-10160762D01*
X12718810Y-10160762D02*
X12728333Y-10179810D01*
X12728333Y-10179810D02*
X12728333Y-10227429D01*
X12728333Y-10227429D02*
X12718810Y-10246476D01*
X12718810Y-10246476D02*
X12709286Y-10256000D01*
X12709286Y-10256000D02*
X12690238Y-10265524D01*
X12690238Y-10265524D02*
X12633095Y-10265524D01*
X12633095Y-10265524D02*
X12614048Y-10256000D01*
X12614048Y-10256000D02*
X12604524Y-10246476D01*
X12795000Y-10065524D02*
X12918810Y-10065524D01*
X12918810Y-10065524D02*
X12852143Y-10141714D01*
X12852143Y-10141714D02*
X12880714Y-10141714D01*
X12880714Y-10141714D02*
X12899762Y-10151238D01*
X12899762Y-10151238D02*
X12909286Y-10160762D01*
X12909286Y-10160762D02*
X12918810Y-10179810D01*
X12918810Y-10179810D02*
X12918810Y-10227429D01*
X12918810Y-10227429D02*
X12909286Y-10246476D01*
X12909286Y-10246476D02*
X12899762Y-10256000D01*
X12899762Y-10256000D02*
X12880714Y-10265524D01*
X12880714Y-10265524D02*
X12823572Y-10265524D01*
X12823572Y-10265524D02*
X12804524Y-10256000D01*
X12804524Y-10256000D02*
X12795000Y-10246476D01*
X13099762Y-10065524D02*
X13004524Y-10065524D01*
X13004524Y-10065524D02*
X12995000Y-10160762D01*
X12995000Y-10160762D02*
X13004524Y-10151238D01*
X13004524Y-10151238D02*
X13023572Y-10141714D01*
X13023572Y-10141714D02*
X13071191Y-10141714D01*
X13071191Y-10141714D02*
X13090238Y-10151238D01*
X13090238Y-10151238D02*
X13099762Y-10160762D01*
X13099762Y-10160762D02*
X13109286Y-10179810D01*
X13109286Y-10179810D02*
X13109286Y-10227429D01*
X13109286Y-10227429D02*
X13099762Y-10246476D01*
X13099762Y-10246476D02*
X13090238Y-10256000D01*
X13090238Y-10256000D02*
X13071191Y-10265524D01*
X13071191Y-10265524D02*
X13023572Y-10265524D01*
X13023572Y-10265524D02*
X13004524Y-10256000D01*
X13004524Y-10256000D02*
X12995000Y-10246476D01*
X13185476Y-10065524D02*
X13185476Y-10103619D01*
X13261667Y-10065524D02*
X13261667Y-10103619D01*
X13556905Y-10341714D02*
X13547381Y-10332190D01*
X13547381Y-10332190D02*
X13528334Y-10303619D01*
X13528334Y-10303619D02*
X13518810Y-10284571D01*
X13518810Y-10284571D02*
X13509286Y-10256000D01*
X13509286Y-10256000D02*
X13499762Y-10208381D01*
X13499762Y-10208381D02*
X13499762Y-10170286D01*
X13499762Y-10170286D02*
X13509286Y-10122667D01*
X13509286Y-10122667D02*
X13518810Y-10094095D01*
X13518810Y-10094095D02*
X13528334Y-10075048D01*
X13528334Y-10075048D02*
X13547381Y-10046476D01*
X13547381Y-10046476D02*
X13556905Y-10036952D01*
X13623572Y-10084571D02*
X13633095Y-10075048D01*
X13633095Y-10075048D02*
X13652143Y-10065524D01*
X13652143Y-10065524D02*
X13699762Y-10065524D01*
X13699762Y-10065524D02*
X13718810Y-10075048D01*
X13718810Y-10075048D02*
X13728334Y-10084571D01*
X13728334Y-10084571D02*
X13737857Y-10103619D01*
X13737857Y-10103619D02*
X13737857Y-10122667D01*
X13737857Y-10122667D02*
X13728334Y-10151238D01*
X13728334Y-10151238D02*
X13614048Y-10265524D01*
X13614048Y-10265524D02*
X13737857Y-10265524D01*
X13975953Y-10265524D02*
X13975953Y-10065524D01*
X14061667Y-10265524D02*
X14061667Y-10160762D01*
X14061667Y-10160762D02*
X14052143Y-10141714D01*
X14052143Y-10141714D02*
X14033096Y-10132190D01*
X14033096Y-10132190D02*
X14004524Y-10132190D01*
X14004524Y-10132190D02*
X13985476Y-10141714D01*
X13985476Y-10141714D02*
X13975953Y-10151238D01*
X14185476Y-10265524D02*
X14166429Y-10256000D01*
X14166429Y-10256000D02*
X14156905Y-10246476D01*
X14156905Y-10246476D02*
X14147381Y-10227429D01*
X14147381Y-10227429D02*
X14147381Y-10170286D01*
X14147381Y-10170286D02*
X14156905Y-10151238D01*
X14156905Y-10151238D02*
X14166429Y-10141714D01*
X14166429Y-10141714D02*
X14185476Y-10132190D01*
X14185476Y-10132190D02*
X14214048Y-10132190D01*
X14214048Y-10132190D02*
X14233096Y-10141714D01*
X14233096Y-10141714D02*
X14242619Y-10151238D01*
X14242619Y-10151238D02*
X14252143Y-10170286D01*
X14252143Y-10170286D02*
X14252143Y-10227429D01*
X14252143Y-10227429D02*
X14242619Y-10246476D01*
X14242619Y-10246476D02*
X14233096Y-10256000D01*
X14233096Y-10256000D02*
X14214048Y-10265524D01*
X14214048Y-10265524D02*
X14185476Y-10265524D01*
X14366429Y-10265524D02*
X14347381Y-10256000D01*
X14347381Y-10256000D02*
X14337857Y-10236952D01*
X14337857Y-10236952D02*
X14337857Y-10065524D01*
X14518810Y-10256000D02*
X14499762Y-10265524D01*
X14499762Y-10265524D02*
X14461667Y-10265524D01*
X14461667Y-10265524D02*
X14442619Y-10256000D01*
X14442619Y-10256000D02*
X14433096Y-10236952D01*
X14433096Y-10236952D02*
X14433096Y-10160762D01*
X14433096Y-10160762D02*
X14442619Y-10141714D01*
X14442619Y-10141714D02*
X14461667Y-10132190D01*
X14461667Y-10132190D02*
X14499762Y-10132190D01*
X14499762Y-10132190D02*
X14518810Y-10141714D01*
X14518810Y-10141714D02*
X14528334Y-10160762D01*
X14528334Y-10160762D02*
X14528334Y-10179810D01*
X14528334Y-10179810D02*
X14433096Y-10198857D01*
X14604524Y-10256000D02*
X14623572Y-10265524D01*
X14623572Y-10265524D02*
X14661667Y-10265524D01*
X14661667Y-10265524D02*
X14680715Y-10256000D01*
X14680715Y-10256000D02*
X14690238Y-10236952D01*
X14690238Y-10236952D02*
X14690238Y-10227429D01*
X14690238Y-10227429D02*
X14680715Y-10208381D01*
X14680715Y-10208381D02*
X14661667Y-10198857D01*
X14661667Y-10198857D02*
X14633096Y-10198857D01*
X14633096Y-10198857D02*
X14614048Y-10189333D01*
X14614048Y-10189333D02*
X14604524Y-10170286D01*
X14604524Y-10170286D02*
X14604524Y-10160762D01*
X14604524Y-10160762D02*
X14614048Y-10141714D01*
X14614048Y-10141714D02*
X14633096Y-10132190D01*
X14633096Y-10132190D02*
X14661667Y-10132190D01*
X14661667Y-10132190D02*
X14680715Y-10141714D01*
X14756905Y-10341714D02*
X14766429Y-10332190D01*
X14766429Y-10332190D02*
X14785477Y-10303619D01*
X14785477Y-10303619D02*
X14795000Y-10284571D01*
X14795000Y-10284571D02*
X14804524Y-10256000D01*
X14804524Y-10256000D02*
X14814048Y-10208381D01*
X14814048Y-10208381D02*
X14814048Y-10170286D01*
X14814048Y-10170286D02*
X14804524Y-10122667D01*
X14804524Y-10122667D02*
X14795000Y-10094095D01*
X14795000Y-10094095D02*
X14785477Y-10075048D01*
X14785477Y-10075048D02*
X14766429Y-10046476D01*
X14766429Y-10046476D02*
X14756905Y-10036952D01*
D10*
X9980356Y-10472356D02*
X9980356Y-10401644D01*
X9909644Y-10401644D01*
X9909644Y-10472356D01*
X9980356Y-10472356D01*
D11*
X10347381Y-10529524D02*
X10233095Y-10529524D01*
X10290238Y-10529524D02*
X10290238Y-10329524D01*
X10290238Y-10329524D02*
X10271190Y-10358095D01*
X10271190Y-10358095D02*
X10252143Y-10377143D01*
X10252143Y-10377143D02*
X10233095Y-10386667D01*
X10433095Y-10510476D02*
X10442619Y-10520000D01*
X10442619Y-10520000D02*
X10433095Y-10529524D01*
X10433095Y-10529524D02*
X10423571Y-10520000D01*
X10423571Y-10520000D02*
X10433095Y-10510476D01*
X10433095Y-10510476D02*
X10433095Y-10529524D01*
X10566429Y-10329524D02*
X10585476Y-10329524D01*
X10585476Y-10329524D02*
X10604524Y-10339048D01*
X10604524Y-10339048D02*
X10614048Y-10348571D01*
X10614048Y-10348571D02*
X10623571Y-10367619D01*
X10623571Y-10367619D02*
X10633095Y-10405714D01*
X10633095Y-10405714D02*
X10633095Y-10453333D01*
X10633095Y-10453333D02*
X10623571Y-10491429D01*
X10623571Y-10491429D02*
X10614048Y-10510476D01*
X10614048Y-10510476D02*
X10604524Y-10520000D01*
X10604524Y-10520000D02*
X10585476Y-10529524D01*
X10585476Y-10529524D02*
X10566429Y-10529524D01*
X10566429Y-10529524D02*
X10547381Y-10520000D01*
X10547381Y-10520000D02*
X10537857Y-10510476D01*
X10537857Y-10510476D02*
X10528333Y-10491429D01*
X10528333Y-10491429D02*
X10518810Y-10453333D01*
X10518810Y-10453333D02*
X10518810Y-10405714D01*
X10518810Y-10405714D02*
X10528333Y-10367619D01*
X10528333Y-10367619D02*
X10537857Y-10348571D01*
X10537857Y-10348571D02*
X10547381Y-10339048D01*
X10547381Y-10339048D02*
X10566429Y-10329524D01*
X10756905Y-10329524D02*
X10775952Y-10329524D01*
X10775952Y-10329524D02*
X10795000Y-10339048D01*
X10795000Y-10339048D02*
X10804524Y-10348571D01*
X10804524Y-10348571D02*
X10814048Y-10367619D01*
X10814048Y-10367619D02*
X10823571Y-10405714D01*
X10823571Y-10405714D02*
X10823571Y-10453333D01*
X10823571Y-10453333D02*
X10814048Y-10491429D01*
X10814048Y-10491429D02*
X10804524Y-10510476D01*
X10804524Y-10510476D02*
X10795000Y-10520000D01*
X10795000Y-10520000D02*
X10775952Y-10529524D01*
X10775952Y-10529524D02*
X10756905Y-10529524D01*
X10756905Y-10529524D02*
X10737857Y-10520000D01*
X10737857Y-10520000D02*
X10728333Y-10510476D01*
X10728333Y-10510476D02*
X10718810Y-10491429D01*
X10718810Y-10491429D02*
X10709286Y-10453333D01*
X10709286Y-10453333D02*
X10709286Y-10405714D01*
X10709286Y-10405714D02*
X10718810Y-10367619D01*
X10718810Y-10367619D02*
X10728333Y-10348571D01*
X10728333Y-10348571D02*
X10737857Y-10339048D01*
X10737857Y-10339048D02*
X10756905Y-10329524D01*
X10947381Y-10329524D02*
X10966429Y-10329524D01*
X10966429Y-10329524D02*
X10985476Y-10339048D01*
X10985476Y-10339048D02*
X10995000Y-10348571D01*
X10995000Y-10348571D02*
X11004524Y-10367619D01*
X11004524Y-10367619D02*
X11014048Y-10405714D01*
X11014048Y-10405714D02*
X11014048Y-10453333D01*
X11014048Y-10453333D02*
X11004524Y-10491429D01*
X11004524Y-10491429D02*
X10995000Y-10510476D01*
X10995000Y-10510476D02*
X10985476Y-10520000D01*
X10985476Y-10520000D02*
X10966429Y-10529524D01*
X10966429Y-10529524D02*
X10947381Y-10529524D01*
X10947381Y-10529524D02*
X10928333Y-10520000D01*
X10928333Y-10520000D02*
X10918810Y-10510476D01*
X10918810Y-10510476D02*
X10909286Y-10491429D01*
X10909286Y-10491429D02*
X10899762Y-10453333D01*
X10899762Y-10453333D02*
X10899762Y-10405714D01*
X10899762Y-10405714D02*
X10909286Y-10367619D01*
X10909286Y-10367619D02*
X10918810Y-10348571D01*
X10918810Y-10348571D02*
X10928333Y-10339048D01*
X10928333Y-10339048D02*
X10947381Y-10329524D01*
X11099762Y-10529524D02*
X11099762Y-10396190D01*
X11099762Y-10415238D02*
X11109286Y-10405714D01*
X11109286Y-10405714D02*
X11128333Y-10396190D01*
X11128333Y-10396190D02*
X11156905Y-10396190D01*
X11156905Y-10396190D02*
X11175952Y-10405714D01*
X11175952Y-10405714D02*
X11185476Y-10424762D01*
X11185476Y-10424762D02*
X11185476Y-10529524D01*
X11185476Y-10424762D02*
X11195000Y-10405714D01*
X11195000Y-10405714D02*
X11214048Y-10396190D01*
X11214048Y-10396190D02*
X11242619Y-10396190D01*
X11242619Y-10396190D02*
X11261667Y-10405714D01*
X11261667Y-10405714D02*
X11271190Y-10424762D01*
X11271190Y-10424762D02*
X11271190Y-10529524D01*
X11366429Y-10529524D02*
X11366429Y-10396190D01*
X11366429Y-10415238D02*
X11375952Y-10405714D01*
X11375952Y-10405714D02*
X11395000Y-10396190D01*
X11395000Y-10396190D02*
X11423571Y-10396190D01*
X11423571Y-10396190D02*
X11442619Y-10405714D01*
X11442619Y-10405714D02*
X11452143Y-10424762D01*
X11452143Y-10424762D02*
X11452143Y-10529524D01*
X11452143Y-10424762D02*
X11461667Y-10405714D01*
X11461667Y-10405714D02*
X11480714Y-10396190D01*
X11480714Y-10396190D02*
X11509286Y-10396190D01*
X11509286Y-10396190D02*
X11528333Y-10405714D01*
X11528333Y-10405714D02*
X11537857Y-10424762D01*
X11537857Y-10424762D02*
X11537857Y-10529524D01*
X11928333Y-10320000D02*
X11756905Y-10577143D01*
X12185476Y-10329524D02*
X12204524Y-10329524D01*
X12204524Y-10329524D02*
X12223572Y-10339048D01*
X12223572Y-10339048D02*
X12233095Y-10348571D01*
X12233095Y-10348571D02*
X12242619Y-10367619D01*
X12242619Y-10367619D02*
X12252143Y-10405714D01*
X12252143Y-10405714D02*
X12252143Y-10453333D01*
X12252143Y-10453333D02*
X12242619Y-10491429D01*
X12242619Y-10491429D02*
X12233095Y-10510476D01*
X12233095Y-10510476D02*
X12223572Y-10520000D01*
X12223572Y-10520000D02*
X12204524Y-10529524D01*
X12204524Y-10529524D02*
X12185476Y-10529524D01*
X12185476Y-10529524D02*
X12166429Y-10520000D01*
X12166429Y-10520000D02*
X12156905Y-10510476D01*
X12156905Y-10510476D02*
X12147381Y-10491429D01*
X12147381Y-10491429D02*
X12137857Y-10453333D01*
X12137857Y-10453333D02*
X12137857Y-10405714D01*
X12137857Y-10405714D02*
X12147381Y-10367619D01*
X12147381Y-10367619D02*
X12156905Y-10348571D01*
X12156905Y-10348571D02*
X12166429Y-10339048D01*
X12166429Y-10339048D02*
X12185476Y-10329524D01*
X12337857Y-10510476D02*
X12347381Y-10520000D01*
X12347381Y-10520000D02*
X12337857Y-10529524D01*
X12337857Y-10529524D02*
X12328333Y-10520000D01*
X12328333Y-10520000D02*
X12337857Y-10510476D01*
X12337857Y-10510476D02*
X12337857Y-10529524D01*
X12471191Y-10329524D02*
X12490238Y-10329524D01*
X12490238Y-10329524D02*
X12509286Y-10339048D01*
X12509286Y-10339048D02*
X12518810Y-10348571D01*
X12518810Y-10348571D02*
X12528333Y-10367619D01*
X12528333Y-10367619D02*
X12537857Y-10405714D01*
X12537857Y-10405714D02*
X12537857Y-10453333D01*
X12537857Y-10453333D02*
X12528333Y-10491429D01*
X12528333Y-10491429D02*
X12518810Y-10510476D01*
X12518810Y-10510476D02*
X12509286Y-10520000D01*
X12509286Y-10520000D02*
X12490238Y-10529524D01*
X12490238Y-10529524D02*
X12471191Y-10529524D01*
X12471191Y-10529524D02*
X12452143Y-10520000D01*
X12452143Y-10520000D02*
X12442619Y-10510476D01*
X12442619Y-10510476D02*
X12433095Y-10491429D01*
X12433095Y-10491429D02*
X12423572Y-10453333D01*
X12423572Y-10453333D02*
X12423572Y-10405714D01*
X12423572Y-10405714D02*
X12433095Y-10367619D01*
X12433095Y-10367619D02*
X12442619Y-10348571D01*
X12442619Y-10348571D02*
X12452143Y-10339048D01*
X12452143Y-10339048D02*
X12471191Y-10329524D01*
X12604524Y-10329524D02*
X12728333Y-10329524D01*
X12728333Y-10329524D02*
X12661667Y-10405714D01*
X12661667Y-10405714D02*
X12690238Y-10405714D01*
X12690238Y-10405714D02*
X12709286Y-10415238D01*
X12709286Y-10415238D02*
X12718810Y-10424762D01*
X12718810Y-10424762D02*
X12728333Y-10443810D01*
X12728333Y-10443810D02*
X12728333Y-10491429D01*
X12728333Y-10491429D02*
X12718810Y-10510476D01*
X12718810Y-10510476D02*
X12709286Y-10520000D01*
X12709286Y-10520000D02*
X12690238Y-10529524D01*
X12690238Y-10529524D02*
X12633095Y-10529524D01*
X12633095Y-10529524D02*
X12614048Y-10520000D01*
X12614048Y-10520000D02*
X12604524Y-10510476D01*
X12823572Y-10529524D02*
X12861667Y-10529524D01*
X12861667Y-10529524D02*
X12880714Y-10520000D01*
X12880714Y-10520000D02*
X12890238Y-10510476D01*
X12890238Y-10510476D02*
X12909286Y-10481905D01*
X12909286Y-10481905D02*
X12918810Y-10443810D01*
X12918810Y-10443810D02*
X12918810Y-10367619D01*
X12918810Y-10367619D02*
X12909286Y-10348571D01*
X12909286Y-10348571D02*
X12899762Y-10339048D01*
X12899762Y-10339048D02*
X12880714Y-10329524D01*
X12880714Y-10329524D02*
X12842619Y-10329524D01*
X12842619Y-10329524D02*
X12823572Y-10339048D01*
X12823572Y-10339048D02*
X12814048Y-10348571D01*
X12814048Y-10348571D02*
X12804524Y-10367619D01*
X12804524Y-10367619D02*
X12804524Y-10415238D01*
X12804524Y-10415238D02*
X12814048Y-10434286D01*
X12814048Y-10434286D02*
X12823572Y-10443810D01*
X12823572Y-10443810D02*
X12842619Y-10453333D01*
X12842619Y-10453333D02*
X12880714Y-10453333D01*
X12880714Y-10453333D02*
X12899762Y-10443810D01*
X12899762Y-10443810D02*
X12909286Y-10434286D01*
X12909286Y-10434286D02*
X12918810Y-10415238D01*
X13090238Y-10396190D02*
X13090238Y-10529524D01*
X13042619Y-10320000D02*
X12995000Y-10462857D01*
X12995000Y-10462857D02*
X13118810Y-10462857D01*
X13185476Y-10329524D02*
X13185476Y-10367619D01*
X13261667Y-10329524D02*
X13261667Y-10367619D01*
X13556905Y-10605714D02*
X13547381Y-10596190D01*
X13547381Y-10596190D02*
X13528334Y-10567619D01*
X13528334Y-10567619D02*
X13518810Y-10548571D01*
X13518810Y-10548571D02*
X13509286Y-10520000D01*
X13509286Y-10520000D02*
X13499762Y-10472381D01*
X13499762Y-10472381D02*
X13499762Y-10434286D01*
X13499762Y-10434286D02*
X13509286Y-10386667D01*
X13509286Y-10386667D02*
X13518810Y-10358095D01*
X13518810Y-10358095D02*
X13528334Y-10339048D01*
X13528334Y-10339048D02*
X13547381Y-10310476D01*
X13547381Y-10310476D02*
X13556905Y-10300952D01*
X13737857Y-10529524D02*
X13623572Y-10529524D01*
X13680714Y-10529524D02*
X13680714Y-10329524D01*
X13680714Y-10329524D02*
X13661667Y-10358095D01*
X13661667Y-10358095D02*
X13642619Y-10377143D01*
X13642619Y-10377143D02*
X13623572Y-10386667D01*
X13861667Y-10329524D02*
X13880715Y-10329524D01*
X13880715Y-10329524D02*
X13899762Y-10339048D01*
X13899762Y-10339048D02*
X13909286Y-10348571D01*
X13909286Y-10348571D02*
X13918810Y-10367619D01*
X13918810Y-10367619D02*
X13928334Y-10405714D01*
X13928334Y-10405714D02*
X13928334Y-10453333D01*
X13928334Y-10453333D02*
X13918810Y-10491429D01*
X13918810Y-10491429D02*
X13909286Y-10510476D01*
X13909286Y-10510476D02*
X13899762Y-10520000D01*
X13899762Y-10520000D02*
X13880715Y-10529524D01*
X13880715Y-10529524D02*
X13861667Y-10529524D01*
X13861667Y-10529524D02*
X13842619Y-10520000D01*
X13842619Y-10520000D02*
X13833095Y-10510476D01*
X13833095Y-10510476D02*
X13823572Y-10491429D01*
X13823572Y-10491429D02*
X13814048Y-10453333D01*
X13814048Y-10453333D02*
X13814048Y-10405714D01*
X13814048Y-10405714D02*
X13823572Y-10367619D01*
X13823572Y-10367619D02*
X13833095Y-10348571D01*
X13833095Y-10348571D02*
X13842619Y-10339048D01*
X13842619Y-10339048D02*
X13861667Y-10329524D01*
X14166429Y-10529524D02*
X14166429Y-10329524D01*
X14252143Y-10529524D02*
X14252143Y-10424762D01*
X14252143Y-10424762D02*
X14242619Y-10405714D01*
X14242619Y-10405714D02*
X14223572Y-10396190D01*
X14223572Y-10396190D02*
X14195000Y-10396190D01*
X14195000Y-10396190D02*
X14175953Y-10405714D01*
X14175953Y-10405714D02*
X14166429Y-10415238D01*
X14375953Y-10529524D02*
X14356905Y-10520000D01*
X14356905Y-10520000D02*
X14347381Y-10510476D01*
X14347381Y-10510476D02*
X14337857Y-10491429D01*
X14337857Y-10491429D02*
X14337857Y-10434286D01*
X14337857Y-10434286D02*
X14347381Y-10415238D01*
X14347381Y-10415238D02*
X14356905Y-10405714D01*
X14356905Y-10405714D02*
X14375953Y-10396190D01*
X14375953Y-10396190D02*
X14404524Y-10396190D01*
X14404524Y-10396190D02*
X14423572Y-10405714D01*
X14423572Y-10405714D02*
X14433096Y-10415238D01*
X14433096Y-10415238D02*
X14442619Y-10434286D01*
X14442619Y-10434286D02*
X14442619Y-10491429D01*
X14442619Y-10491429D02*
X14433096Y-10510476D01*
X14433096Y-10510476D02*
X14423572Y-10520000D01*
X14423572Y-10520000D02*
X14404524Y-10529524D01*
X14404524Y-10529524D02*
X14375953Y-10529524D01*
X14556905Y-10529524D02*
X14537857Y-10520000D01*
X14537857Y-10520000D02*
X14528334Y-10500952D01*
X14528334Y-10500952D02*
X14528334Y-10329524D01*
X14709286Y-10520000D02*
X14690238Y-10529524D01*
X14690238Y-10529524D02*
X14652143Y-10529524D01*
X14652143Y-10529524D02*
X14633096Y-10520000D01*
X14633096Y-10520000D02*
X14623572Y-10500952D01*
X14623572Y-10500952D02*
X14623572Y-10424762D01*
X14623572Y-10424762D02*
X14633096Y-10405714D01*
X14633096Y-10405714D02*
X14652143Y-10396190D01*
X14652143Y-10396190D02*
X14690238Y-10396190D01*
X14690238Y-10396190D02*
X14709286Y-10405714D01*
X14709286Y-10405714D02*
X14718810Y-10424762D01*
X14718810Y-10424762D02*
X14718810Y-10443810D01*
X14718810Y-10443810D02*
X14623572Y-10462857D01*
X14795000Y-10520000D02*
X14814048Y-10529524D01*
X14814048Y-10529524D02*
X14852143Y-10529524D01*
X14852143Y-10529524D02*
X14871191Y-10520000D01*
X14871191Y-10520000D02*
X14880715Y-10500952D01*
X14880715Y-10500952D02*
X14880715Y-10491429D01*
X14880715Y-10491429D02*
X14871191Y-10472381D01*
X14871191Y-10472381D02*
X14852143Y-10462857D01*
X14852143Y-10462857D02*
X14823572Y-10462857D01*
X14823572Y-10462857D02*
X14804524Y-10453333D01*
X14804524Y-10453333D02*
X14795000Y-10434286D01*
X14795000Y-10434286D02*
X14795000Y-10424762D01*
X14795000Y-10424762D02*
X14804524Y-10405714D01*
X14804524Y-10405714D02*
X14823572Y-10396190D01*
X14823572Y-10396190D02*
X14852143Y-10396190D01*
X14852143Y-10396190D02*
X14871191Y-10405714D01*
X14947381Y-10605714D02*
X14956905Y-10596190D01*
X14956905Y-10596190D02*
X14975953Y-10567619D01*
X14975953Y-10567619D02*
X14985477Y-10548571D01*
X14985477Y-10548571D02*
X14995000Y-10520000D01*
X14995000Y-10520000D02*
X15004524Y-10472381D01*
X15004524Y-10472381D02*
X15004524Y-10434286D01*
X15004524Y-10434286D02*
X14995000Y-10386667D01*
X14995000Y-10386667D02*
X14985477Y-10358095D01*
X14985477Y-10358095D02*
X14975953Y-10339048D01*
X14975953Y-10339048D02*
X14956905Y-10310476D01*
X14956905Y-10310476D02*
X14947381Y-10300952D01*
D15*
X9944000Y-10752000D02*
X9995000Y-10701000D01*
X9944000Y-10650000D01*
X9893000Y-10701000D01*
X9944000Y-10752000D01*
D11*
X10347381Y-10793524D02*
X10233095Y-10793524D01*
X10290238Y-10793524D02*
X10290238Y-10593524D01*
X10290238Y-10593524D02*
X10271190Y-10622095D01*
X10271190Y-10622095D02*
X10252143Y-10641143D01*
X10252143Y-10641143D02*
X10233095Y-10650667D01*
X10433095Y-10774476D02*
X10442619Y-10784000D01*
X10442619Y-10784000D02*
X10433095Y-10793524D01*
X10433095Y-10793524D02*
X10423571Y-10784000D01*
X10423571Y-10784000D02*
X10433095Y-10774476D01*
X10433095Y-10774476D02*
X10433095Y-10793524D01*
X10566429Y-10593524D02*
X10585476Y-10593524D01*
X10585476Y-10593524D02*
X10604524Y-10603048D01*
X10604524Y-10603048D02*
X10614048Y-10612571D01*
X10614048Y-10612571D02*
X10623571Y-10631619D01*
X10623571Y-10631619D02*
X10633095Y-10669714D01*
X10633095Y-10669714D02*
X10633095Y-10717333D01*
X10633095Y-10717333D02*
X10623571Y-10755429D01*
X10623571Y-10755429D02*
X10614048Y-10774476D01*
X10614048Y-10774476D02*
X10604524Y-10784000D01*
X10604524Y-10784000D02*
X10585476Y-10793524D01*
X10585476Y-10793524D02*
X10566429Y-10793524D01*
X10566429Y-10793524D02*
X10547381Y-10784000D01*
X10547381Y-10784000D02*
X10537857Y-10774476D01*
X10537857Y-10774476D02*
X10528333Y-10755429D01*
X10528333Y-10755429D02*
X10518810Y-10717333D01*
X10518810Y-10717333D02*
X10518810Y-10669714D01*
X10518810Y-10669714D02*
X10528333Y-10631619D01*
X10528333Y-10631619D02*
X10537857Y-10612571D01*
X10537857Y-10612571D02*
X10547381Y-10603048D01*
X10547381Y-10603048D02*
X10566429Y-10593524D01*
X10709286Y-10612571D02*
X10718810Y-10603048D01*
X10718810Y-10603048D02*
X10737857Y-10593524D01*
X10737857Y-10593524D02*
X10785476Y-10593524D01*
X10785476Y-10593524D02*
X10804524Y-10603048D01*
X10804524Y-10603048D02*
X10814048Y-10612571D01*
X10814048Y-10612571D02*
X10823571Y-10631619D01*
X10823571Y-10631619D02*
X10823571Y-10650667D01*
X10823571Y-10650667D02*
X10814048Y-10679238D01*
X10814048Y-10679238D02*
X10699762Y-10793524D01*
X10699762Y-10793524D02*
X10823571Y-10793524D01*
X10947381Y-10593524D02*
X10966429Y-10593524D01*
X10966429Y-10593524D02*
X10985476Y-10603048D01*
X10985476Y-10603048D02*
X10995000Y-10612571D01*
X10995000Y-10612571D02*
X11004524Y-10631619D01*
X11004524Y-10631619D02*
X11014048Y-10669714D01*
X11014048Y-10669714D02*
X11014048Y-10717333D01*
X11014048Y-10717333D02*
X11004524Y-10755429D01*
X11004524Y-10755429D02*
X10995000Y-10774476D01*
X10995000Y-10774476D02*
X10985476Y-10784000D01*
X10985476Y-10784000D02*
X10966429Y-10793524D01*
X10966429Y-10793524D02*
X10947381Y-10793524D01*
X10947381Y-10793524D02*
X10928333Y-10784000D01*
X10928333Y-10784000D02*
X10918810Y-10774476D01*
X10918810Y-10774476D02*
X10909286Y-10755429D01*
X10909286Y-10755429D02*
X10899762Y-10717333D01*
X10899762Y-10717333D02*
X10899762Y-10669714D01*
X10899762Y-10669714D02*
X10909286Y-10631619D01*
X10909286Y-10631619D02*
X10918810Y-10612571D01*
X10918810Y-10612571D02*
X10928333Y-10603048D01*
X10928333Y-10603048D02*
X10947381Y-10593524D01*
X11099762Y-10793524D02*
X11099762Y-10660190D01*
X11099762Y-10679238D02*
X11109286Y-10669714D01*
X11109286Y-10669714D02*
X11128333Y-10660190D01*
X11128333Y-10660190D02*
X11156905Y-10660190D01*
X11156905Y-10660190D02*
X11175952Y-10669714D01*
X11175952Y-10669714D02*
X11185476Y-10688762D01*
X11185476Y-10688762D02*
X11185476Y-10793524D01*
X11185476Y-10688762D02*
X11195000Y-10669714D01*
X11195000Y-10669714D02*
X11214048Y-10660190D01*
X11214048Y-10660190D02*
X11242619Y-10660190D01*
X11242619Y-10660190D02*
X11261667Y-10669714D01*
X11261667Y-10669714D02*
X11271190Y-10688762D01*
X11271190Y-10688762D02*
X11271190Y-10793524D01*
X11366429Y-10793524D02*
X11366429Y-10660190D01*
X11366429Y-10679238D02*
X11375952Y-10669714D01*
X11375952Y-10669714D02*
X11395000Y-10660190D01*
X11395000Y-10660190D02*
X11423571Y-10660190D01*
X11423571Y-10660190D02*
X11442619Y-10669714D01*
X11442619Y-10669714D02*
X11452143Y-10688762D01*
X11452143Y-10688762D02*
X11452143Y-10793524D01*
X11452143Y-10688762D02*
X11461667Y-10669714D01*
X11461667Y-10669714D02*
X11480714Y-10660190D01*
X11480714Y-10660190D02*
X11509286Y-10660190D01*
X11509286Y-10660190D02*
X11528333Y-10669714D01*
X11528333Y-10669714D02*
X11537857Y-10688762D01*
X11537857Y-10688762D02*
X11537857Y-10793524D01*
X11928333Y-10584000D02*
X11756905Y-10841143D01*
X12185476Y-10593524D02*
X12204524Y-10593524D01*
X12204524Y-10593524D02*
X12223572Y-10603048D01*
X12223572Y-10603048D02*
X12233095Y-10612571D01*
X12233095Y-10612571D02*
X12242619Y-10631619D01*
X12242619Y-10631619D02*
X12252143Y-10669714D01*
X12252143Y-10669714D02*
X12252143Y-10717333D01*
X12252143Y-10717333D02*
X12242619Y-10755429D01*
X12242619Y-10755429D02*
X12233095Y-10774476D01*
X12233095Y-10774476D02*
X12223572Y-10784000D01*
X12223572Y-10784000D02*
X12204524Y-10793524D01*
X12204524Y-10793524D02*
X12185476Y-10793524D01*
X12185476Y-10793524D02*
X12166429Y-10784000D01*
X12166429Y-10784000D02*
X12156905Y-10774476D01*
X12156905Y-10774476D02*
X12147381Y-10755429D01*
X12147381Y-10755429D02*
X12137857Y-10717333D01*
X12137857Y-10717333D02*
X12137857Y-10669714D01*
X12137857Y-10669714D02*
X12147381Y-10631619D01*
X12147381Y-10631619D02*
X12156905Y-10612571D01*
X12156905Y-10612571D02*
X12166429Y-10603048D01*
X12166429Y-10603048D02*
X12185476Y-10593524D01*
X12337857Y-10774476D02*
X12347381Y-10784000D01*
X12347381Y-10784000D02*
X12337857Y-10793524D01*
X12337857Y-10793524D02*
X12328333Y-10784000D01*
X12328333Y-10784000D02*
X12337857Y-10774476D01*
X12337857Y-10774476D02*
X12337857Y-10793524D01*
X12471191Y-10593524D02*
X12490238Y-10593524D01*
X12490238Y-10593524D02*
X12509286Y-10603048D01*
X12509286Y-10603048D02*
X12518810Y-10612571D01*
X12518810Y-10612571D02*
X12528333Y-10631619D01*
X12528333Y-10631619D02*
X12537857Y-10669714D01*
X12537857Y-10669714D02*
X12537857Y-10717333D01*
X12537857Y-10717333D02*
X12528333Y-10755429D01*
X12528333Y-10755429D02*
X12518810Y-10774476D01*
X12518810Y-10774476D02*
X12509286Y-10784000D01*
X12509286Y-10784000D02*
X12490238Y-10793524D01*
X12490238Y-10793524D02*
X12471191Y-10793524D01*
X12471191Y-10793524D02*
X12452143Y-10784000D01*
X12452143Y-10784000D02*
X12442619Y-10774476D01*
X12442619Y-10774476D02*
X12433095Y-10755429D01*
X12433095Y-10755429D02*
X12423572Y-10717333D01*
X12423572Y-10717333D02*
X12423572Y-10669714D01*
X12423572Y-10669714D02*
X12433095Y-10631619D01*
X12433095Y-10631619D02*
X12442619Y-10612571D01*
X12442619Y-10612571D02*
X12452143Y-10603048D01*
X12452143Y-10603048D02*
X12471191Y-10593524D01*
X12709286Y-10660190D02*
X12709286Y-10793524D01*
X12661667Y-10584000D02*
X12614048Y-10726857D01*
X12614048Y-10726857D02*
X12737857Y-10726857D01*
X12852143Y-10593524D02*
X12871191Y-10593524D01*
X12871191Y-10593524D02*
X12890238Y-10603048D01*
X12890238Y-10603048D02*
X12899762Y-10612571D01*
X12899762Y-10612571D02*
X12909286Y-10631619D01*
X12909286Y-10631619D02*
X12918810Y-10669714D01*
X12918810Y-10669714D02*
X12918810Y-10717333D01*
X12918810Y-10717333D02*
X12909286Y-10755429D01*
X12909286Y-10755429D02*
X12899762Y-10774476D01*
X12899762Y-10774476D02*
X12890238Y-10784000D01*
X12890238Y-10784000D02*
X12871191Y-10793524D01*
X12871191Y-10793524D02*
X12852143Y-10793524D01*
X12852143Y-10793524D02*
X12833095Y-10784000D01*
X12833095Y-10784000D02*
X12823572Y-10774476D01*
X12823572Y-10774476D02*
X12814048Y-10755429D01*
X12814048Y-10755429D02*
X12804524Y-10717333D01*
X12804524Y-10717333D02*
X12804524Y-10669714D01*
X12804524Y-10669714D02*
X12814048Y-10631619D01*
X12814048Y-10631619D02*
X12823572Y-10612571D01*
X12823572Y-10612571D02*
X12833095Y-10603048D01*
X12833095Y-10603048D02*
X12852143Y-10593524D01*
X12995000Y-10612571D02*
X13004524Y-10603048D01*
X13004524Y-10603048D02*
X13023572Y-10593524D01*
X13023572Y-10593524D02*
X13071191Y-10593524D01*
X13071191Y-10593524D02*
X13090238Y-10603048D01*
X13090238Y-10603048D02*
X13099762Y-10612571D01*
X13099762Y-10612571D02*
X13109286Y-10631619D01*
X13109286Y-10631619D02*
X13109286Y-10650667D01*
X13109286Y-10650667D02*
X13099762Y-10679238D01*
X13099762Y-10679238D02*
X12985476Y-10793524D01*
X12985476Y-10793524D02*
X13109286Y-10793524D01*
X13185476Y-10593524D02*
X13185476Y-10631619D01*
X13261667Y-10593524D02*
X13261667Y-10631619D01*
X13556905Y-10869714D02*
X13547381Y-10860190D01*
X13547381Y-10860190D02*
X13528334Y-10831619D01*
X13528334Y-10831619D02*
X13518810Y-10812571D01*
X13518810Y-10812571D02*
X13509286Y-10784000D01*
X13509286Y-10784000D02*
X13499762Y-10736381D01*
X13499762Y-10736381D02*
X13499762Y-10698286D01*
X13499762Y-10698286D02*
X13509286Y-10650667D01*
X13509286Y-10650667D02*
X13518810Y-10622095D01*
X13518810Y-10622095D02*
X13528334Y-10603048D01*
X13528334Y-10603048D02*
X13547381Y-10574476D01*
X13547381Y-10574476D02*
X13556905Y-10564952D01*
X13661667Y-10679238D02*
X13642619Y-10669714D01*
X13642619Y-10669714D02*
X13633095Y-10660190D01*
X13633095Y-10660190D02*
X13623572Y-10641143D01*
X13623572Y-10641143D02*
X13623572Y-10631619D01*
X13623572Y-10631619D02*
X13633095Y-10612571D01*
X13633095Y-10612571D02*
X13642619Y-10603048D01*
X13642619Y-10603048D02*
X13661667Y-10593524D01*
X13661667Y-10593524D02*
X13699762Y-10593524D01*
X13699762Y-10593524D02*
X13718810Y-10603048D01*
X13718810Y-10603048D02*
X13728334Y-10612571D01*
X13728334Y-10612571D02*
X13737857Y-10631619D01*
X13737857Y-10631619D02*
X13737857Y-10641143D01*
X13737857Y-10641143D02*
X13728334Y-10660190D01*
X13728334Y-10660190D02*
X13718810Y-10669714D01*
X13718810Y-10669714D02*
X13699762Y-10679238D01*
X13699762Y-10679238D02*
X13661667Y-10679238D01*
X13661667Y-10679238D02*
X13642619Y-10688762D01*
X13642619Y-10688762D02*
X13633095Y-10698286D01*
X13633095Y-10698286D02*
X13623572Y-10717333D01*
X13623572Y-10717333D02*
X13623572Y-10755429D01*
X13623572Y-10755429D02*
X13633095Y-10774476D01*
X13633095Y-10774476D02*
X13642619Y-10784000D01*
X13642619Y-10784000D02*
X13661667Y-10793524D01*
X13661667Y-10793524D02*
X13699762Y-10793524D01*
X13699762Y-10793524D02*
X13718810Y-10784000D01*
X13718810Y-10784000D02*
X13728334Y-10774476D01*
X13728334Y-10774476D02*
X13737857Y-10755429D01*
X13737857Y-10755429D02*
X13737857Y-10717333D01*
X13737857Y-10717333D02*
X13728334Y-10698286D01*
X13728334Y-10698286D02*
X13718810Y-10688762D01*
X13718810Y-10688762D02*
X13699762Y-10679238D01*
X13975953Y-10793524D02*
X13975953Y-10593524D01*
X14061667Y-10793524D02*
X14061667Y-10688762D01*
X14061667Y-10688762D02*
X14052143Y-10669714D01*
X14052143Y-10669714D02*
X14033096Y-10660190D01*
X14033096Y-10660190D02*
X14004524Y-10660190D01*
X14004524Y-10660190D02*
X13985476Y-10669714D01*
X13985476Y-10669714D02*
X13975953Y-10679238D01*
X14185476Y-10793524D02*
X14166429Y-10784000D01*
X14166429Y-10784000D02*
X14156905Y-10774476D01*
X14156905Y-10774476D02*
X14147381Y-10755429D01*
X14147381Y-10755429D02*
X14147381Y-10698286D01*
X14147381Y-10698286D02*
X14156905Y-10679238D01*
X14156905Y-10679238D02*
X14166429Y-10669714D01*
X14166429Y-10669714D02*
X14185476Y-10660190D01*
X14185476Y-10660190D02*
X14214048Y-10660190D01*
X14214048Y-10660190D02*
X14233096Y-10669714D01*
X14233096Y-10669714D02*
X14242619Y-10679238D01*
X14242619Y-10679238D02*
X14252143Y-10698286D01*
X14252143Y-10698286D02*
X14252143Y-10755429D01*
X14252143Y-10755429D02*
X14242619Y-10774476D01*
X14242619Y-10774476D02*
X14233096Y-10784000D01*
X14233096Y-10784000D02*
X14214048Y-10793524D01*
X14214048Y-10793524D02*
X14185476Y-10793524D01*
X14366429Y-10793524D02*
X14347381Y-10784000D01*
X14347381Y-10784000D02*
X14337857Y-10764952D01*
X14337857Y-10764952D02*
X14337857Y-10593524D01*
X14518810Y-10784000D02*
X14499762Y-10793524D01*
X14499762Y-10793524D02*
X14461667Y-10793524D01*
X14461667Y-10793524D02*
X14442619Y-10784000D01*
X14442619Y-10784000D02*
X14433096Y-10764952D01*
X14433096Y-10764952D02*
X14433096Y-10688762D01*
X14433096Y-10688762D02*
X14442619Y-10669714D01*
X14442619Y-10669714D02*
X14461667Y-10660190D01*
X14461667Y-10660190D02*
X14499762Y-10660190D01*
X14499762Y-10660190D02*
X14518810Y-10669714D01*
X14518810Y-10669714D02*
X14528334Y-10688762D01*
X14528334Y-10688762D02*
X14528334Y-10707810D01*
X14528334Y-10707810D02*
X14433096Y-10726857D01*
X14604524Y-10784000D02*
X14623572Y-10793524D01*
X14623572Y-10793524D02*
X14661667Y-10793524D01*
X14661667Y-10793524D02*
X14680715Y-10784000D01*
X14680715Y-10784000D02*
X14690238Y-10764952D01*
X14690238Y-10764952D02*
X14690238Y-10755429D01*
X14690238Y-10755429D02*
X14680715Y-10736381D01*
X14680715Y-10736381D02*
X14661667Y-10726857D01*
X14661667Y-10726857D02*
X14633096Y-10726857D01*
X14633096Y-10726857D02*
X14614048Y-10717333D01*
X14614048Y-10717333D02*
X14604524Y-10698286D01*
X14604524Y-10698286D02*
X14604524Y-10688762D01*
X14604524Y-10688762D02*
X14614048Y-10669714D01*
X14614048Y-10669714D02*
X14633096Y-10660190D01*
X14633096Y-10660190D02*
X14661667Y-10660190D01*
X14661667Y-10660190D02*
X14680715Y-10669714D01*
X14756905Y-10869714D02*
X14766429Y-10860190D01*
X14766429Y-10860190D02*
X14785477Y-10831619D01*
X14785477Y-10831619D02*
X14795000Y-10812571D01*
X14795000Y-10812571D02*
X14804524Y-10784000D01*
X14804524Y-10784000D02*
X14814048Y-10736381D01*
X14814048Y-10736381D02*
X14814048Y-10698286D01*
X14814048Y-10698286D02*
X14804524Y-10650667D01*
X14804524Y-10650667D02*
X14795000Y-10622095D01*
X14795000Y-10622095D02*
X14785477Y-10603048D01*
X14785477Y-10603048D02*
X14766429Y-10574476D01*
X14766429Y-10574476D02*
X14756905Y-10564952D01*
M02*
