M48
; DRILL file {KiCad 9.0.3} date 2025-09-05T10:56:40-0500
; FORMAT={-:-/ absolute / inch / decimal}
; #@! TF.CreationDate,2025-09-05T10:56:40-05:00
; #@! TF.GenerationSoftware,Kicad,Pcbnew,9.0.3
; #@! TF.FileFunction,Plated,1,4,PTH
FMAT,2
INCH
; #@! TA.AperFunction,Plated,PTH,ViaDrill
T1C0.0079
; #@! TA.AperFunction,Plated,PTH,ViaDrill
T2C0.0118
; #@! TA.AperFunction,Plated,PTH,ComponentDrill
T3C0.0236
; #@! TA.AperFunction,Plated,PTH,ComponentDrill
T4C0.0394
; #@! TA.AperFunction,Plated,PTH,ComponentDrill
T5C0.0472
; #@! TA.AperFunction,Plated,PTH,ComponentDrill
T6C0.1260
%
G90
G05
T1
X4.439Y-3.8976
X4.4488Y-4.0748
X4.4572Y-4.0315
X4.5084Y-3.9252
X4.5669Y-3.3169
X4.6161Y-3.4449
X4.6457Y-3.9764
X4.6555Y-3.3169
X4.6949Y-3.435
X4.7047Y-2.9823
X4.7441Y-3.3169
X4.7835Y-3.4252
X4.8189Y-3.4724
X4.8327Y-3.3169
X4.9567Y-3.0512
X5.1009Y-3.7756
X5.1009Y-3.8072
X5.1009Y-3.8386
X5.1301Y-3.7756
X5.1301Y-3.8072
X5.1301Y-3.8386
X5.1575Y-3.1004
X5.1599Y-3.7756
X5.1599Y-3.8072
X5.1599Y-3.8386
X5.1993Y-3.8898
X5.2047Y-3.4094
X5.2151Y-3.874
X5.2362Y-3.7106
X5.248Y-3.4449
X5.2559Y-3.7303
X5.315Y-3.4449
X5.315Y-3.9567
X5.3174Y-3.7913
X5.3268Y-3.378
X5.3346Y-3.9862
X5.3543Y-3.9567
X5.3611Y-4.1032
X5.3642Y-3.1102
X5.3839Y-3.189
X5.3976Y-3.8268
X5.4035Y-3.1102
X5.4094Y-4.0984
X5.4291Y-3.063
X5.437Y-4.3286
X5.4409Y-4.0709
X5.4469Y-3.0492
X5.4596Y-4.1131
X5.4646Y-3.5551
X5.4803Y-3.1772
X5.4921Y-3.1575
X5.502Y-3.3563
X5.5709Y-3.127
X5.5709Y-3.2185
X5.5748Y-3.1554
X5.5748Y-3.1772
X5.5906Y-3.0807
X5.5906Y-3.5138
X5.5906Y-3.7303
X5.5906Y-3.937
X5.5945Y-3.5433
X5.5945Y-3.6811
X5.625Y-3.7254
X5.6452Y-3.717
X5.6791Y-3.7992
X5.685Y-3.685
X5.689Y-4.3504
X5.6969Y-3.8661
X5.7087Y-3.7598
X5.7874Y-3.563
X5.7972Y-3.4646
X5.8071Y-3.4843
X5.8465Y-3.7598
X5.8465Y-3.8091
X5.8563Y-3.6614
X5.8563Y-3.9173
X5.8583Y-4.0
X5.8661Y-3.5827
X5.8711Y-3.8533
X5.874Y-3.3228
X5.876Y-3.563
X5.8781Y-3.9173
X5.8898Y-3.1339
X5.8898Y-3.1614
X5.8922Y-3.1988
X5.8922Y-3.2382
X5.8957Y-3.4646
X5.9016Y-3.6654
X5.9055Y-3.6122
X5.9055Y-3.7894
X5.9252Y-4.0854
X5.9321Y-3.9949
X5.9547Y-3.937
X5.9611Y-3.1988
X5.9646Y-3.2874
X5.9646Y-3.5609
X5.9646Y-3.5827
X5.9685Y-3.8701
X5.9715Y-3.9949
X5.9733Y-3.4677
X5.9843Y-3.1339
X5.9917Y-4.003
X6.0Y-3.6693
X6.0236Y-3.435
X6.0236Y-3.4724
X6.0236Y-3.8583
X6.0236Y-3.9961
X6.0315Y-3.9291
X6.0335Y-3.563
X6.0335Y-3.8168
X6.0335Y-3.8386
X6.0335Y-3.8976
X6.0433Y-3.189
X6.0512Y-3.748
X6.0512Y-4.0472
X6.0531Y-3.6713
X6.063Y-3.5827
X6.1201Y-3.9324
X6.1273Y-3.9746
X6.1292Y-3.9528
X6.2165Y-3.9439
X6.2451Y-3.8287
X6.2697Y-3.7894
X6.2697Y-4.065
X6.2894Y-3.5335
X6.2894Y-3.563
X6.2894Y-3.5925
X6.2894Y-3.622
X6.2894Y-3.6614
X6.2894Y-3.6832
X6.2894Y-3.705
X6.2894Y-3.7303
X6.2894Y-3.7598
T2
X4.3406Y-3.189
X4.3406Y-3.2283
X4.3504Y-3.4646
X4.3504Y-3.5138
X4.3602Y-3.8189
X4.3799Y-3.2283
X4.3898Y-3.435
X4.3898Y-3.4843
X4.3996Y-3.7894
X4.4193Y-3.2283
X4.439Y-3.8189
X4.4783Y-3.7894
X4.498Y-3.563
X4.5079Y-4.0925
X4.5276Y-4.061
X4.5512Y-4.0925
X4.5709Y-4.061
X4.6063Y-4.2402
X4.6063Y-4.2835
X4.6063Y-4.3307
X4.6063Y-4.374
X4.7126Y-3.7913
X4.7343Y-4.0846
X4.7638Y-3.7913
X4.7835Y-4.0748
X4.813Y-4.124
X4.813Y-4.1634
X4.815Y-3.7913
X4.8425Y-4.1929
X4.8524Y-2.9823
X4.8524Y-4.2421
X4.8819Y-3.0217
X4.8819Y-4.2815
X4.8917Y-4.1929
X4.9016Y-2.9823
X4.9114Y-4.2421
X4.9311Y-3.0217
X4.9311Y-3.2283
X4.9409Y-4.2815
X4.9567Y-4.0748
X4.9764Y-4.0433
X5.0Y-4.0748
X5.0098Y-4.2913
X5.0197Y-4.0433
X5.0394Y-4.0748
X5.0984Y-3.4055
X5.1378Y-3.4055
X5.1476Y-3.248
X5.1673Y-3.2874
X5.1969Y-3.248
X5.2165Y-3.2874
X5.2461Y-2.9528
X5.2953Y-2.9528
X5.4528Y-4.0157
X5.4764Y-3.0
X5.5433Y-3.0
X5.5906Y-4.0354
X5.5945Y-3.8543
X5.6102Y-3.6457
X5.6496Y-4.0354
X5.6693Y-3.6457
X5.7485Y-4.0157
X5.7677Y-4.0709
X6.063Y-3.002
X6.1024Y-3.002
X6.1024Y-3.0413
X6.1024Y-3.0807
X6.1024Y-4.2126
X6.1024Y-4.252
X6.1024Y-4.2913
X6.1024Y-4.3307
X6.1024Y-4.3701
X6.1234Y-3.75
X6.1319Y-3.4252
X6.1319Y-3.4646
X6.1319Y-3.5039
X6.1811Y-3.4252
X6.2598Y-3.4252
X6.2598Y-3.5039
X6.2598Y-3.878
X6.3091Y-3.9173
X6.3091Y-3.9764
X6.3287Y-3.3858
X6.3287Y-3.4252
X6.3386Y-3.8878
X6.3386Y-3.9469
X6.3386Y-4.0059
X6.3681Y-3.4055
X6.3681Y-3.4449
X6.3681Y-3.9173
X6.3681Y-3.9764
T4
X5.7274Y-3.3957
X5.8274Y-3.3957
T5
X5.2165Y-3.6122
X5.315Y-3.6122
X5.4134Y-3.6122
X5.5118Y-3.6122
T6
X4.439Y-3.061
X4.439Y-4.2717
X6.2697Y-3.061
X6.2697Y-4.2717
T3
G00X5.2375Y-4.1513
M15
G01X5.2375Y-4.1946
M16
G05
G00X5.2375Y-4.3218
M15
G01X5.2375Y-4.3532
M16
G05
G00X5.5777Y-4.1513
M15
G01X5.5777Y-4.1946
M16
G05
G00X5.5777Y-4.3218
M15
G01X5.5777Y-4.3532
M16
G05
M30
