%TF.GenerationSoftware,KiCad,Pcbnew,9.0.3*%
%TF.CreationDate,2025-08-10T22:23:36-07:00*%
%TF.ProjectId,PeripheralSOM,50657269-7068-4657-9261-6c534f4d2e6b,rev?*%
%TF.SameCoordinates,Original*%
%TF.FileFunction,Copper,L3,Inr*%
%TF.FilePolarity,Positive*%
%FSLAX46Y46*%
G04 Gerber Fmt 4.6, Leading zero omitted, Abs format (unit mm)*
G04 Created by KiCad (PCBNEW 9.0.3) date 2025-08-10 22:23:36*
%MOMM*%
%LPD*%
G01*
G04 APERTURE LIST*
%TA.AperFunction,ComponentPad*%
%ADD10C,1.574800*%
%TD*%
%TA.AperFunction,ComponentPad*%
%ADD11C,1.700000*%
%TD*%
%TA.AperFunction,ComponentPad*%
%ADD12R,1.700000X1.700000*%
%TD*%
%TA.AperFunction,ComponentPad*%
%ADD13C,3.600000*%
%TD*%
%TA.AperFunction,HeatsinkPad*%
%ADD14O,1.000000X2.100000*%
%TD*%
%TA.AperFunction,HeatsinkPad*%
%ADD15O,1.000000X1.800000*%
%TD*%
%TA.AperFunction,ViaPad*%
%ADD16C,0.600000*%
%TD*%
%TA.AperFunction,ViaPad*%
%ADD17C,0.400000*%
%TD*%
%TA.AperFunction,ViaPad*%
%ADD18C,0.450000*%
%TD*%
G04 APERTURE END LIST*
D10*
%TO.N,/MCU/SWDIO*%
%TO.C,J1*%
X154790000Y-122750000D03*
%TO.N,GND*%
X152250000Y-122750000D03*
%TO.N,/MCU/SWCLK*%
X149710000Y-122750000D03*
%TO.N,+3.3V*%
X147170000Y-122750000D03*
%TD*%
D11*
%TO.N,/CAN_L*%
%TO.C,JP1*%
X83760000Y-47700000D03*
D12*
%TO.N,Net-(JP1-A)*%
X86300000Y-47700000D03*
%TD*%
D13*
%TO.N,N/C*%
%TO.C,MH4*%
X159250000Y-109000000D03*
%TD*%
%TO.N,N/C*%
%TO.C,MH3*%
X114250000Y-109000000D03*
%TD*%
%TO.N,N/C*%
%TO.C,MH1*%
X114250000Y-77750000D03*
%TD*%
D14*
%TO.N,GND*%
%TO.C,J2*%
X130640000Y-80480000D03*
D15*
X130640000Y-76300000D03*
D14*
X122000000Y-80480000D03*
D15*
X122000000Y-76300000D03*
%TD*%
D13*
%TO.N,N/C*%
%TO.C,MH2*%
X159250000Y-77750000D03*
%TD*%
D16*
%TO.N,GND*%
X161000000Y-101750000D03*
X161000000Y-98750000D03*
X154000000Y-90750000D03*
X152750000Y-90000000D03*
X154000000Y-89250000D03*
X152750000Y-88500000D03*
X160750000Y-86000000D03*
X161750000Y-86500000D03*
X160750000Y-87000000D03*
X161750000Y-87500000D03*
%TO.N,+24V*%
X139000000Y-83000000D03*
X140000000Y-83500000D03*
X139500000Y-84750000D03*
X138500000Y-84250000D03*
X137500000Y-84750000D03*
X136500000Y-84250000D03*
X135500000Y-84750000D03*
X150000000Y-103250000D03*
X150000000Y-104250000D03*
X150500000Y-105250000D03*
X150500000Y-106250000D03*
X149500000Y-106250000D03*
X148500000Y-106250000D03*
%TO.N,+24V_EXT*%
X159000000Y-89000000D03*
X159000000Y-87000000D03*
X157000000Y-87000000D03*
X155750000Y-89000000D03*
X155750000Y-88000000D03*
X155750000Y-87000000D03*
%TO.N,GND*%
X161750000Y-101000000D03*
X160250000Y-101000000D03*
X161000000Y-100250000D03*
X160250000Y-99500000D03*
X161750000Y-99500000D03*
D17*
X115302500Y-83700000D03*
X132500000Y-91750000D03*
X115302500Y-84442500D03*
X114500000Y-84442500D03*
X116100000Y-85200000D03*
X121250000Y-89750000D03*
X118250000Y-89750000D03*
X116100000Y-83700000D03*
X115302500Y-85200000D03*
X114500000Y-85200000D03*
X116100000Y-84442500D03*
X114500000Y-83700000D03*
%TO.N,GNDA*%
X129350000Y-106150000D03*
%TO.N,VDDA*%
X129350000Y-107150000D03*
%TO.N,+5V*%
X125187500Y-93550000D03*
%TO.N,/PowerDist/PowerProtection/UVLO*%
X148624000Y-82100000D03*
%TO.N,/PowerDist/PowerProtection/OVP*%
X148624000Y-81100000D03*
X150374000Y-81100000D03*
%TO.N,/USB/CC1*%
X127500000Y-82250000D03*
%TO.N,/USB/CC2*%
X125000000Y-82000000D03*
%TO.N,Net-(SW2-B)*%
X115550000Y-117000000D03*
%TO.N,/PowerDist/PowerProtection/MODE*%
X148874000Y-79600000D03*
%TO.N,/PowerDist/PowerProtection/SHDN*%
X148624000Y-79100000D03*
X153124000Y-81100000D03*
%TO.N,/PowerDist/PowerProtection/ILIM*%
X139374000Y-79350000D03*
%TO.N,/PowerDist/PowerProtection/IMON*%
X139374000Y-77850000D03*
D16*
%TO.N,Net-(D1-K)*%
X143300000Y-95350000D03*
X144100000Y-95350000D03*
%TO.N,Net-(U2-BOOT)*%
X146850000Y-99350000D03*
D17*
%TO.N,Net-(U7-DVDT)*%
X140124000Y-81350000D03*
D18*
%TO.N,/USB/RST*%
X114750000Y-87250000D03*
D17*
%TO.N,/USB/VBUS*%
X116500000Y-87250000D03*
%TO.N,/PowerDist/ILIM*%
X130600000Y-89850000D03*
%TO.N,/PowerDist/STAT*%
X129300000Y-92550000D03*
%TD*%
%TA.AperFunction,Conductor*%
%TO.N,GND*%
G36*
X162392539Y-74570185D02*
G01*
X162438294Y-74622989D01*
X162449500Y-74674500D01*
X162449500Y-112075500D01*
X162429815Y-112142539D01*
X162377011Y-112188294D01*
X162325500Y-112199500D01*
X111174500Y-112199500D01*
X111107461Y-112179815D01*
X111061706Y-112127011D01*
X111050500Y-112075500D01*
X111050500Y-108868872D01*
X112249500Y-108868872D01*
X112249500Y-109131127D01*
X112276123Y-109333339D01*
X112283730Y-109391116D01*
X112351602Y-109644418D01*
X112351605Y-109644428D01*
X112451953Y-109886690D01*
X112451958Y-109886700D01*
X112583075Y-110113803D01*
X112742718Y-110321851D01*
X112742726Y-110321860D01*
X112928140Y-110507274D01*
X112928148Y-110507281D01*
X113136196Y-110666924D01*
X113363299Y-110798041D01*
X113363309Y-110798046D01*
X113605571Y-110898394D01*
X113605581Y-110898398D01*
X113858884Y-110966270D01*
X114118880Y-111000500D01*
X114118887Y-111000500D01*
X114381113Y-111000500D01*
X114381120Y-111000500D01*
X114641116Y-110966270D01*
X114894419Y-110898398D01*
X115136697Y-110798043D01*
X115363803Y-110666924D01*
X115571851Y-110507282D01*
X115571855Y-110507277D01*
X115571860Y-110507274D01*
X115757274Y-110321860D01*
X115757277Y-110321855D01*
X115757282Y-110321851D01*
X115916924Y-110113803D01*
X116048043Y-109886697D01*
X116148398Y-109644419D01*
X116216270Y-109391116D01*
X116250500Y-109131120D01*
X116250500Y-108900000D01*
X120600000Y-108900000D01*
X126850000Y-108900000D01*
X126850000Y-108868872D01*
X157249500Y-108868872D01*
X157249500Y-109131127D01*
X157276123Y-109333339D01*
X157283730Y-109391116D01*
X157351602Y-109644418D01*
X157351605Y-109644428D01*
X157451953Y-109886690D01*
X157451958Y-109886700D01*
X157583075Y-110113803D01*
X157742718Y-110321851D01*
X157742726Y-110321860D01*
X157928140Y-110507274D01*
X157928148Y-110507281D01*
X158136196Y-110666924D01*
X158363299Y-110798041D01*
X158363309Y-110798046D01*
X158605571Y-110898394D01*
X158605581Y-110898398D01*
X158858884Y-110966270D01*
X159118880Y-111000500D01*
X159118887Y-111000500D01*
X159381113Y-111000500D01*
X159381120Y-111000500D01*
X159641116Y-110966270D01*
X159894419Y-110898398D01*
X160136697Y-110798043D01*
X160363803Y-110666924D01*
X160571851Y-110507282D01*
X160571855Y-110507277D01*
X160571860Y-110507274D01*
X160757274Y-110321860D01*
X160757277Y-110321855D01*
X160757282Y-110321851D01*
X160916924Y-110113803D01*
X161048043Y-109886697D01*
X161148398Y-109644419D01*
X161216270Y-109391116D01*
X161250500Y-109131120D01*
X161250500Y-108868880D01*
X161216270Y-108608884D01*
X161148398Y-108355581D01*
X161148394Y-108355571D01*
X161048046Y-108113309D01*
X161048041Y-108113299D01*
X160916924Y-107886196D01*
X160757281Y-107678148D01*
X160757274Y-107678140D01*
X160571860Y-107492726D01*
X160571851Y-107492718D01*
X160363803Y-107333075D01*
X160136700Y-107201958D01*
X160136690Y-107201953D01*
X159894428Y-107101605D01*
X159894421Y-107101603D01*
X159894419Y-107101602D01*
X159641116Y-107033730D01*
X159583339Y-107026123D01*
X159381127Y-106999500D01*
X159381120Y-106999500D01*
X159118880Y-106999500D01*
X159118872Y-106999500D01*
X158887772Y-107029926D01*
X158858884Y-107033730D01*
X158621737Y-107097273D01*
X158605581Y-107101602D01*
X158605571Y-107101605D01*
X158363309Y-107201953D01*
X158363299Y-107201958D01*
X158136196Y-107333075D01*
X157928148Y-107492718D01*
X157742718Y-107678148D01*
X157583075Y-107886196D01*
X157451958Y-108113299D01*
X157451953Y-108113309D01*
X157351605Y-108355571D01*
X157351602Y-108355581D01*
X157283730Y-108608885D01*
X157249500Y-108868872D01*
X126850000Y-108868872D01*
X126850000Y-106097273D01*
X128949500Y-106097273D01*
X128949500Y-106202727D01*
X128976793Y-106304587D01*
X129029520Y-106395913D01*
X129104087Y-106470480D01*
X129195413Y-106523207D01*
X129221606Y-106530225D01*
X129281267Y-106566590D01*
X129311796Y-106629437D01*
X129303501Y-106698812D01*
X129259016Y-106752690D01*
X129221607Y-106769774D01*
X129195417Y-106776792D01*
X129195413Y-106776793D01*
X129195410Y-106776794D01*
X129104085Y-106829521D01*
X129029521Y-106904085D01*
X128976794Y-106995410D01*
X128976793Y-106995413D01*
X128949500Y-107097273D01*
X128949500Y-107202727D01*
X128976793Y-107304587D01*
X129029520Y-107395913D01*
X129104087Y-107470480D01*
X129195413Y-107523207D01*
X129297273Y-107550500D01*
X129297275Y-107550500D01*
X129402725Y-107550500D01*
X129402727Y-107550500D01*
X129504587Y-107523207D01*
X129595913Y-107470480D01*
X129670480Y-107395913D01*
X129723207Y-107304587D01*
X129750500Y-107202727D01*
X129750500Y-107097273D01*
X129723207Y-106995413D01*
X129670480Y-106904087D01*
X129595913Y-106829520D01*
X129504587Y-106776793D01*
X129504585Y-106776792D01*
X129488979Y-106772611D01*
X129478393Y-106769774D01*
X129418733Y-106733411D01*
X129388203Y-106670564D01*
X129396497Y-106601188D01*
X129440982Y-106547310D01*
X129478392Y-106530225D01*
X129504587Y-106523207D01*
X129595913Y-106470480D01*
X129670480Y-106395913D01*
X129723207Y-106304587D01*
X129750500Y-106202727D01*
X129750500Y-106184108D01*
X147999500Y-106184108D01*
X147999500Y-106315891D01*
X148033608Y-106443187D01*
X148049365Y-106470478D01*
X148099500Y-106557314D01*
X148192686Y-106650500D01*
X148306814Y-106716392D01*
X148434108Y-106750500D01*
X148434110Y-106750500D01*
X148565890Y-106750500D01*
X148565892Y-106750500D01*
X148693186Y-106716392D01*
X148807314Y-106650500D01*
X148900500Y-106557314D01*
X148900504Y-106557306D01*
X148901625Y-106555847D01*
X148902892Y-106554921D01*
X148906247Y-106551567D01*
X148906770Y-106552090D01*
X148958053Y-106514645D01*
X149027799Y-106510491D01*
X149088719Y-106544704D01*
X149098375Y-106555847D01*
X149099498Y-106557311D01*
X149099500Y-106557314D01*
X149192686Y-106650500D01*
X149306814Y-106716392D01*
X149434108Y-106750500D01*
X149434110Y-106750500D01*
X149565890Y-106750500D01*
X149565892Y-106750500D01*
X149693186Y-106716392D01*
X149807314Y-106650500D01*
X149900500Y-106557314D01*
X149900504Y-106557306D01*
X149901625Y-106555847D01*
X149902892Y-106554921D01*
X149906247Y-106551567D01*
X149906770Y-106552090D01*
X149958053Y-106514645D01*
X150027799Y-106510491D01*
X150088719Y-106544704D01*
X150098375Y-106555847D01*
X150099498Y-106557311D01*
X150099500Y-106557314D01*
X150192686Y-106650500D01*
X150306814Y-106716392D01*
X150434108Y-106750500D01*
X150434110Y-106750500D01*
X150565890Y-106750500D01*
X150565892Y-106750500D01*
X150693186Y-106716392D01*
X150807314Y-106650500D01*
X150900500Y-106557314D01*
X150966392Y-106443186D01*
X151000500Y-106315892D01*
X151000500Y-106184108D01*
X150966392Y-106056814D01*
X150900500Y-105942686D01*
X150807314Y-105849500D01*
X150807311Y-105849498D01*
X150805847Y-105848375D01*
X150804921Y-105847107D01*
X150801567Y-105843753D01*
X150802090Y-105843229D01*
X150764645Y-105791947D01*
X150760491Y-105722201D01*
X150794704Y-105661281D01*
X150805847Y-105651625D01*
X150807306Y-105650504D01*
X150807314Y-105650500D01*
X150900500Y-105557314D01*
X150966392Y-105443186D01*
X151000500Y-105315892D01*
X151000500Y-105184108D01*
X150966392Y-105056814D01*
X150900500Y-104942686D01*
X150807314Y-104849500D01*
X150750250Y-104816554D01*
X150693187Y-104783608D01*
X150629539Y-104766554D01*
X150565892Y-104749500D01*
X150504315Y-104749500D01*
X150437276Y-104729815D01*
X150391521Y-104677011D01*
X150381577Y-104607853D01*
X150396928Y-104563499D01*
X150400497Y-104557316D01*
X150400500Y-104557314D01*
X150466392Y-104443186D01*
X150500500Y-104315892D01*
X150500500Y-104184108D01*
X150466392Y-104056814D01*
X150400500Y-103942686D01*
X150307314Y-103849500D01*
X150307311Y-103849498D01*
X150305847Y-103848375D01*
X150304921Y-103847107D01*
X150301567Y-103843753D01*
X150302090Y-103843229D01*
X150264645Y-103791947D01*
X150260491Y-103722201D01*
X150294704Y-103661281D01*
X150305847Y-103651625D01*
X150307306Y-103650504D01*
X150307314Y-103650500D01*
X150400500Y-103557314D01*
X150466392Y-103443186D01*
X150500500Y-103315892D01*
X150500500Y-103184108D01*
X150466392Y-103056814D01*
X150400500Y-102942686D01*
X150307314Y-102849500D01*
X150250250Y-102816554D01*
X150193187Y-102783608D01*
X150129539Y-102766554D01*
X150065892Y-102749500D01*
X149934108Y-102749500D01*
X149806812Y-102783608D01*
X149692686Y-102849500D01*
X149692683Y-102849502D01*
X149599502Y-102942683D01*
X149599500Y-102942686D01*
X149533608Y-103056812D01*
X149499500Y-103184108D01*
X149499500Y-103315891D01*
X149533608Y-103443187D01*
X149566554Y-103500250D01*
X149599500Y-103557314D01*
X149599502Y-103557316D01*
X149692687Y-103650501D01*
X149694158Y-103651630D01*
X149695083Y-103652897D01*
X149698433Y-103656247D01*
X149697910Y-103656769D01*
X149735356Y-103708060D01*
X149739506Y-103777807D01*
X149705289Y-103838725D01*
X149694158Y-103848370D01*
X149692687Y-103849498D01*
X149599502Y-103942683D01*
X149599500Y-103942686D01*
X149533608Y-104056812D01*
X149499500Y-104184108D01*
X149499500Y-104315891D01*
X149533608Y-104443187D01*
X149566554Y-104500250D01*
X149599500Y-104557314D01*
X149692686Y-104650500D01*
X149806814Y-104716392D01*
X149934108Y-104750500D01*
X149934110Y-104750500D01*
X149995685Y-104750500D01*
X150062724Y-104770185D01*
X150108479Y-104822989D01*
X150118423Y-104892147D01*
X150103072Y-104936501D01*
X150099502Y-104942683D01*
X150099500Y-104942686D01*
X150069509Y-104994630D01*
X150033608Y-105056812D01*
X149999500Y-105184108D01*
X149999500Y-105315891D01*
X150033608Y-105443187D01*
X150066554Y-105500250D01*
X150099500Y-105557314D01*
X150099502Y-105557316D01*
X150192687Y-105650501D01*
X150194158Y-105651630D01*
X150195083Y-105652897D01*
X150198433Y-105656247D01*
X150197910Y-105656769D01*
X150204241Y-105665442D01*
X150217931Y-105675690D01*
X150224414Y-105693073D01*
X150235356Y-105708060D01*
X150236371Y-105725131D01*
X150242348Y-105741154D01*
X150238403Y-105759284D01*
X150239506Y-105777807D01*
X150231055Y-105793065D01*
X150227496Y-105809427D01*
X150211909Y-105827634D01*
X150206345Y-105837681D01*
X150197039Y-105846986D01*
X150192686Y-105849500D01*
X150099500Y-105942686D01*
X150096986Y-105947039D01*
X150087681Y-105956345D01*
X150063862Y-105969350D01*
X150041940Y-105985356D01*
X150033647Y-105985849D01*
X150026358Y-105989830D01*
X149999285Y-105987893D01*
X149972193Y-105989506D01*
X149964951Y-105985438D01*
X149956666Y-105984846D01*
X149934938Y-105968580D01*
X149911275Y-105955289D01*
X149901630Y-105944158D01*
X149900501Y-105942687D01*
X149807316Y-105849502D01*
X149807314Y-105849500D01*
X149737906Y-105809427D01*
X149693187Y-105783608D01*
X149629539Y-105766554D01*
X149565892Y-105749500D01*
X149434108Y-105749500D01*
X149306812Y-105783608D01*
X149192686Y-105849500D01*
X149192683Y-105849502D01*
X149099498Y-105942687D01*
X149098370Y-105944158D01*
X149097102Y-105945083D01*
X149093753Y-105948433D01*
X149093230Y-105947910D01*
X149041940Y-105985356D01*
X148972193Y-105989506D01*
X148911275Y-105955289D01*
X148901630Y-105944158D01*
X148900501Y-105942687D01*
X148807316Y-105849502D01*
X148807314Y-105849500D01*
X148737906Y-105809427D01*
X148693187Y-105783608D01*
X148629539Y-105766554D01*
X148565892Y-105749500D01*
X148434108Y-105749500D01*
X148306812Y-105783608D01*
X148192686Y-105849500D01*
X148192683Y-105849502D01*
X148099502Y-105942683D01*
X148099500Y-105942686D01*
X148033608Y-106056812D01*
X147999500Y-106184108D01*
X129750500Y-106184108D01*
X129750500Y-106097273D01*
X129723207Y-105995413D01*
X129670480Y-105904087D01*
X129595913Y-105829520D01*
X129516391Y-105783608D01*
X129504589Y-105776794D01*
X129504588Y-105776793D01*
X129504587Y-105776793D01*
X129402727Y-105749500D01*
X129297273Y-105749500D01*
X129195413Y-105776793D01*
X129195410Y-105776794D01*
X129104085Y-105829521D01*
X129029521Y-105904085D01*
X128976794Y-105995410D01*
X128976793Y-105995413D01*
X128949500Y-106097273D01*
X126850000Y-106097273D01*
X126850000Y-101650000D01*
X120600000Y-101650000D01*
X120600000Y-108900000D01*
X116250500Y-108900000D01*
X116250500Y-108868880D01*
X116216270Y-108608884D01*
X116148398Y-108355581D01*
X116148394Y-108355571D01*
X116048046Y-108113309D01*
X116048041Y-108113299D01*
X115916924Y-107886196D01*
X115757281Y-107678148D01*
X115757274Y-107678140D01*
X115571860Y-107492726D01*
X115571851Y-107492718D01*
X115363803Y-107333075D01*
X115136700Y-107201958D01*
X115136690Y-107201953D01*
X114894428Y-107101605D01*
X114894421Y-107101603D01*
X114894419Y-107101602D01*
X114641116Y-107033730D01*
X114583339Y-107026123D01*
X114381127Y-106999500D01*
X114381120Y-106999500D01*
X114118880Y-106999500D01*
X114118872Y-106999500D01*
X113887772Y-107029926D01*
X113858884Y-107033730D01*
X113621737Y-107097273D01*
X113605581Y-107101602D01*
X113605571Y-107101605D01*
X113363309Y-107201953D01*
X113363299Y-107201958D01*
X113136196Y-107333075D01*
X112928148Y-107492718D01*
X112742718Y-107678148D01*
X112583075Y-107886196D01*
X112451958Y-108113299D01*
X112451953Y-108113309D01*
X112351605Y-108355571D01*
X112351602Y-108355581D01*
X112283730Y-108608885D01*
X112249500Y-108868872D01*
X111050500Y-108868872D01*
X111050500Y-99284108D01*
X146349500Y-99284108D01*
X146349500Y-99415891D01*
X146383608Y-99543187D01*
X146416554Y-99600250D01*
X146449500Y-99657314D01*
X146542686Y-99750500D01*
X146656814Y-99816392D01*
X146784108Y-99850500D01*
X146784110Y-99850500D01*
X146915890Y-99850500D01*
X146915892Y-99850500D01*
X147043186Y-99816392D01*
X147157314Y-99750500D01*
X147250500Y-99657314D01*
X147316392Y-99543186D01*
X147350500Y-99415892D01*
X147350500Y-99284108D01*
X147316392Y-99156814D01*
X147250500Y-99042686D01*
X147157314Y-98949500D01*
X147100250Y-98916554D01*
X147043187Y-98883608D01*
X146979539Y-98866554D01*
X146915892Y-98849500D01*
X146784108Y-98849500D01*
X146656812Y-98883608D01*
X146542686Y-98949500D01*
X146542683Y-98949502D01*
X146449502Y-99042683D01*
X146449500Y-99042686D01*
X146383608Y-99156812D01*
X146349500Y-99284108D01*
X111050500Y-99284108D01*
X111050500Y-98741927D01*
X157270499Y-98741927D01*
X157296611Y-98873197D01*
X157296614Y-98873207D01*
X157347831Y-98996857D01*
X157347838Y-98996870D01*
X157422197Y-99108155D01*
X157422200Y-99108159D01*
X157516840Y-99202799D01*
X157516844Y-99202802D01*
X157628129Y-99277161D01*
X157628142Y-99277168D01*
X157751792Y-99328385D01*
X157751797Y-99328387D01*
X157751801Y-99328387D01*
X157751802Y-99328388D01*
X157883072Y-99354500D01*
X157883075Y-99354500D01*
X158016927Y-99354500D01*
X158105244Y-99336932D01*
X158148203Y-99328387D01*
X158271864Y-99277165D01*
X158383156Y-99202802D01*
X158477802Y-99108156D01*
X158552165Y-98996864D01*
X158603387Y-98873203D01*
X158629500Y-98741925D01*
X158629500Y-98608075D01*
X158629500Y-98608072D01*
X158603388Y-98476802D01*
X158603387Y-98476801D01*
X158603387Y-98476797D01*
X158603385Y-98476792D01*
X158552168Y-98353142D01*
X158552161Y-98353129D01*
X158477802Y-98241844D01*
X158477799Y-98241840D01*
X158383159Y-98147200D01*
X158383155Y-98147197D01*
X158271870Y-98072838D01*
X158271857Y-98072831D01*
X158148207Y-98021614D01*
X158148197Y-98021611D01*
X158016927Y-97995500D01*
X158016925Y-97995500D01*
X157883075Y-97995500D01*
X157883073Y-97995500D01*
X157751802Y-98021611D01*
X157751792Y-98021614D01*
X157628142Y-98072831D01*
X157628129Y-98072838D01*
X157516844Y-98147197D01*
X157516840Y-98147200D01*
X157422200Y-98241840D01*
X157422197Y-98241844D01*
X157347838Y-98353129D01*
X157347831Y-98353142D01*
X157296614Y-98476792D01*
X157296611Y-98476802D01*
X157270500Y-98608072D01*
X157270500Y-98608075D01*
X157270500Y-98741925D01*
X157270500Y-98741927D01*
X157270499Y-98741927D01*
X111050500Y-98741927D01*
X111050500Y-95284108D01*
X142799500Y-95284108D01*
X142799500Y-95415891D01*
X142833608Y-95543187D01*
X142866554Y-95600250D01*
X142899500Y-95657314D01*
X142992686Y-95750500D01*
X143106814Y-95816392D01*
X143234108Y-95850500D01*
X143234110Y-95850500D01*
X143365890Y-95850500D01*
X143365892Y-95850500D01*
X143493186Y-95816392D01*
X143607314Y-95750500D01*
X143612319Y-95745495D01*
X143673642Y-95712010D01*
X143743334Y-95716994D01*
X143787681Y-95745495D01*
X143792686Y-95750500D01*
X143906814Y-95816392D01*
X144034108Y-95850500D01*
X144034110Y-95850500D01*
X144165890Y-95850500D01*
X144165892Y-95850500D01*
X144293186Y-95816392D01*
X144407314Y-95750500D01*
X144500500Y-95657314D01*
X144566392Y-95543186D01*
X144600500Y-95415892D01*
X144600500Y-95284108D01*
X144566392Y-95156814D01*
X144500500Y-95042686D01*
X144407314Y-94949500D01*
X144350250Y-94916554D01*
X144293187Y-94883608D01*
X144229539Y-94866554D01*
X144165892Y-94849500D01*
X144034108Y-94849500D01*
X143906812Y-94883608D01*
X143792686Y-94949500D01*
X143792683Y-94949502D01*
X143787681Y-94954505D01*
X143726358Y-94987990D01*
X143656666Y-94983006D01*
X143612319Y-94954505D01*
X143607316Y-94949502D01*
X143607314Y-94949500D01*
X143550250Y-94916554D01*
X143493187Y-94883608D01*
X143429539Y-94866554D01*
X143365892Y-94849500D01*
X143234108Y-94849500D01*
X143106812Y-94883608D01*
X142992686Y-94949500D01*
X142992683Y-94949502D01*
X142899502Y-95042683D01*
X142899500Y-95042686D01*
X142833608Y-95156812D01*
X142799500Y-95284108D01*
X111050500Y-95284108D01*
X111050500Y-93497273D01*
X124787000Y-93497273D01*
X124787000Y-93602727D01*
X124814293Y-93704587D01*
X124867020Y-93795913D01*
X124941587Y-93870480D01*
X125032913Y-93923207D01*
X125134773Y-93950500D01*
X125134775Y-93950500D01*
X125240225Y-93950500D01*
X125240227Y-93950500D01*
X125342087Y-93923207D01*
X125433413Y-93870480D01*
X125507980Y-93795913D01*
X125560707Y-93704587D01*
X125588000Y-93602727D01*
X125588000Y-93497273D01*
X125560707Y-93395413D01*
X125507980Y-93304087D01*
X125433413Y-93229520D01*
X125342087Y-93176793D01*
X125240227Y-93149500D01*
X125134773Y-93149500D01*
X125032913Y-93176793D01*
X125032910Y-93176794D01*
X124941585Y-93229521D01*
X124867021Y-93304085D01*
X124814294Y-93395410D01*
X124814293Y-93395413D01*
X124787000Y-93497273D01*
X111050500Y-93497273D01*
X111050500Y-92497273D01*
X128899500Y-92497273D01*
X128899500Y-92602727D01*
X128926793Y-92704587D01*
X128979520Y-92795913D01*
X129054087Y-92870480D01*
X129145413Y-92923207D01*
X129247273Y-92950500D01*
X129247275Y-92950500D01*
X129352725Y-92950500D01*
X129352727Y-92950500D01*
X129454587Y-92923207D01*
X129545913Y-92870480D01*
X129620480Y-92795913D01*
X129673207Y-92704587D01*
X129700500Y-92602727D01*
X129700500Y-92497273D01*
X129673207Y-92395413D01*
X129620480Y-92304087D01*
X129545913Y-92229520D01*
X129454587Y-92176793D01*
X129352727Y-92149500D01*
X129247273Y-92149500D01*
X129145413Y-92176793D01*
X129145410Y-92176794D01*
X129054085Y-92229521D01*
X128979521Y-92304085D01*
X128926794Y-92395410D01*
X128926793Y-92395413D01*
X128899500Y-92497273D01*
X111050500Y-92497273D01*
X111050500Y-89797273D01*
X130199500Y-89797273D01*
X130199500Y-89902727D01*
X130226793Y-90004587D01*
X130279520Y-90095913D01*
X130354087Y-90170480D01*
X130445413Y-90223207D01*
X130547273Y-90250500D01*
X130547275Y-90250500D01*
X130652725Y-90250500D01*
X130652727Y-90250500D01*
X130754587Y-90223207D01*
X130845913Y-90170480D01*
X130920480Y-90095913D01*
X130973207Y-90004587D01*
X131000500Y-89902727D01*
X131000500Y-89797273D01*
X130973207Y-89695413D01*
X130920480Y-89604087D01*
X130845913Y-89529520D01*
X130754587Y-89476793D01*
X130652727Y-89449500D01*
X130547273Y-89449500D01*
X130445413Y-89476793D01*
X130445410Y-89476794D01*
X130354085Y-89529521D01*
X130279521Y-89604085D01*
X130226794Y-89695410D01*
X130226793Y-89695413D01*
X130199500Y-89797273D01*
X111050500Y-89797273D01*
X111050500Y-87193982D01*
X114324500Y-87193982D01*
X114324500Y-87306018D01*
X114350912Y-87404587D01*
X114353497Y-87414236D01*
X114353498Y-87414239D01*
X114357756Y-87421614D01*
X114409515Y-87511263D01*
X114488737Y-87590485D01*
X114585763Y-87646503D01*
X114693982Y-87675500D01*
X114693984Y-87675500D01*
X114806016Y-87675500D01*
X114806018Y-87675500D01*
X114914237Y-87646503D01*
X115011263Y-87590485D01*
X115090485Y-87511263D01*
X115146503Y-87414237D01*
X115175500Y-87306018D01*
X115175500Y-87197273D01*
X116099500Y-87197273D01*
X116099500Y-87302727D01*
X116126000Y-87401625D01*
X116126793Y-87404586D01*
X116126794Y-87404589D01*
X116140922Y-87429059D01*
X116179520Y-87495913D01*
X116254087Y-87570480D01*
X116345413Y-87623207D01*
X116447273Y-87650500D01*
X116447275Y-87650500D01*
X116552725Y-87650500D01*
X116552727Y-87650500D01*
X116654587Y-87623207D01*
X116745913Y-87570480D01*
X116820480Y-87495913D01*
X116873207Y-87404587D01*
X116900500Y-87302727D01*
X116900500Y-87197273D01*
X116873207Y-87095413D01*
X116820480Y-87004087D01*
X116750501Y-86934108D01*
X155249500Y-86934108D01*
X155249500Y-87065892D01*
X155257409Y-87095410D01*
X155283608Y-87193187D01*
X155316554Y-87250250D01*
X155349500Y-87307314D01*
X155349502Y-87307316D01*
X155442687Y-87400501D01*
X155444158Y-87401630D01*
X155445083Y-87402897D01*
X155448433Y-87406247D01*
X155447910Y-87406769D01*
X155485356Y-87458060D01*
X155489506Y-87527807D01*
X155455289Y-87588725D01*
X155444158Y-87598370D01*
X155442687Y-87599498D01*
X155349502Y-87692683D01*
X155349500Y-87692686D01*
X155283608Y-87806812D01*
X155249500Y-87934108D01*
X155249500Y-88065891D01*
X155283608Y-88193187D01*
X155316554Y-88250250D01*
X155349500Y-88307314D01*
X155349502Y-88307316D01*
X155442687Y-88400501D01*
X155444158Y-88401630D01*
X155445083Y-88402897D01*
X155448433Y-88406247D01*
X155447910Y-88406769D01*
X155485356Y-88458060D01*
X155489506Y-88527807D01*
X155455289Y-88588725D01*
X155444158Y-88598370D01*
X155442687Y-88599498D01*
X155349502Y-88692683D01*
X155349500Y-88692686D01*
X155283608Y-88806812D01*
X155249500Y-88934108D01*
X155249500Y-89065891D01*
X155283608Y-89193187D01*
X155316554Y-89250250D01*
X155349500Y-89307314D01*
X155442686Y-89400500D01*
X155556814Y-89466392D01*
X155684108Y-89500500D01*
X155684110Y-89500500D01*
X155815890Y-89500500D01*
X155815892Y-89500500D01*
X155943186Y-89466392D01*
X156057314Y-89400500D01*
X156150500Y-89307314D01*
X156216392Y-89193186D01*
X156250500Y-89065892D01*
X156250500Y-88934108D01*
X156216392Y-88806814D01*
X156150500Y-88692686D01*
X156057314Y-88599500D01*
X156057311Y-88599498D01*
X156055847Y-88598375D01*
X156054921Y-88597107D01*
X156051567Y-88593753D01*
X156052090Y-88593229D01*
X156014645Y-88541947D01*
X156010491Y-88472201D01*
X156044704Y-88411281D01*
X156055847Y-88401625D01*
X156057306Y-88400504D01*
X156057314Y-88400500D01*
X156150500Y-88307314D01*
X156216392Y-88193186D01*
X156230127Y-88141927D01*
X157270499Y-88141927D01*
X157296611Y-88273197D01*
X157296614Y-88273207D01*
X157347831Y-88396857D01*
X157347838Y-88396870D01*
X157422197Y-88508155D01*
X157422200Y-88508159D01*
X157516840Y-88602799D01*
X157516844Y-88602802D01*
X157628129Y-88677161D01*
X157628142Y-88677168D01*
X157743651Y-88725013D01*
X157751797Y-88728387D01*
X157751801Y-88728387D01*
X157751802Y-88728388D01*
X157883072Y-88754500D01*
X157883075Y-88754500D01*
X158016927Y-88754500D01*
X158105244Y-88736932D01*
X158148203Y-88728387D01*
X158271864Y-88677165D01*
X158377684Y-88606457D01*
X158444359Y-88585581D01*
X158511739Y-88604065D01*
X158558430Y-88656044D01*
X158569606Y-88725013D01*
X158553961Y-88771560D01*
X158533608Y-88806811D01*
X158499500Y-88934108D01*
X158499500Y-89065891D01*
X158533608Y-89193187D01*
X158566554Y-89250250D01*
X158599500Y-89307314D01*
X158692686Y-89400500D01*
X158806814Y-89466392D01*
X158934108Y-89500500D01*
X158934110Y-89500500D01*
X159065890Y-89500500D01*
X159065892Y-89500500D01*
X159193186Y-89466392D01*
X159307314Y-89400500D01*
X159400500Y-89307314D01*
X159466392Y-89193186D01*
X159500500Y-89065892D01*
X159500500Y-88934108D01*
X159466392Y-88806814D01*
X159400500Y-88692686D01*
X159307314Y-88599500D01*
X159207630Y-88541947D01*
X159193187Y-88533608D01*
X159098208Y-88508159D01*
X159065892Y-88499500D01*
X158934108Y-88499500D01*
X158806814Y-88533608D01*
X158806813Y-88533608D01*
X158806811Y-88533609D01*
X158806810Y-88533609D01*
X158704033Y-88592948D01*
X158636133Y-88609421D01*
X158570106Y-88586568D01*
X158526915Y-88531647D01*
X158520274Y-88462094D01*
X158538932Y-88416668D01*
X158552165Y-88396864D01*
X158603387Y-88273203D01*
X158619303Y-88193187D01*
X158629500Y-88141927D01*
X158629500Y-88008072D01*
X158603388Y-87876802D01*
X158603387Y-87876801D01*
X158603387Y-87876797D01*
X158574399Y-87806814D01*
X158552168Y-87753142D01*
X158552161Y-87753129D01*
X158477802Y-87641844D01*
X158477799Y-87641840D01*
X158383159Y-87547200D01*
X158383155Y-87547197D01*
X158271870Y-87472838D01*
X158271857Y-87472831D01*
X158148207Y-87421614D01*
X158148197Y-87421611D01*
X158016927Y-87395500D01*
X158016925Y-87395500D01*
X157883075Y-87395500D01*
X157883073Y-87395500D01*
X157751802Y-87421611D01*
X157751792Y-87421614D01*
X157628142Y-87472831D01*
X157628129Y-87472838D01*
X157516844Y-87547197D01*
X157516840Y-87547200D01*
X157422200Y-87641840D01*
X157422197Y-87641844D01*
X157347838Y-87753129D01*
X157347831Y-87753142D01*
X157296614Y-87876792D01*
X157296611Y-87876802D01*
X157270500Y-88008072D01*
X157270500Y-88008075D01*
X157270500Y-88141925D01*
X157270500Y-88141927D01*
X157270499Y-88141927D01*
X156230127Y-88141927D01*
X156250500Y-88065892D01*
X156250500Y-87934108D01*
X156216392Y-87806814D01*
X156150500Y-87692686D01*
X156057314Y-87599500D01*
X156057311Y-87599498D01*
X156055847Y-87598375D01*
X156054921Y-87597107D01*
X156051567Y-87593753D01*
X156052090Y-87593229D01*
X156014645Y-87541947D01*
X156010491Y-87472201D01*
X156044704Y-87411281D01*
X156055847Y-87401625D01*
X156057306Y-87400504D01*
X156057314Y-87400500D01*
X156150500Y-87307314D01*
X156216392Y-87193186D01*
X156250500Y-87065892D01*
X156250500Y-86934108D01*
X156499500Y-86934108D01*
X156499500Y-87065892D01*
X156507409Y-87095410D01*
X156533608Y-87193187D01*
X156566554Y-87250250D01*
X156599500Y-87307314D01*
X156692686Y-87400500D01*
X156806814Y-87466392D01*
X156934108Y-87500500D01*
X156934110Y-87500500D01*
X157065890Y-87500500D01*
X157065892Y-87500500D01*
X157193186Y-87466392D01*
X157307314Y-87400500D01*
X157400500Y-87307314D01*
X157466392Y-87193186D01*
X157500500Y-87065892D01*
X157500500Y-86934108D01*
X158499500Y-86934108D01*
X158499500Y-87065892D01*
X158507409Y-87095410D01*
X158533608Y-87193187D01*
X158566554Y-87250250D01*
X158599500Y-87307314D01*
X158692686Y-87400500D01*
X158806814Y-87466392D01*
X158934108Y-87500500D01*
X158934110Y-87500500D01*
X159065890Y-87500500D01*
X159065892Y-87500500D01*
X159193186Y-87466392D01*
X159307314Y-87400500D01*
X159400500Y-87307314D01*
X159466392Y-87193186D01*
X159500500Y-87065892D01*
X159500500Y-86934108D01*
X159466392Y-86806814D01*
X159400500Y-86692686D01*
X159307314Y-86599500D01*
X159250250Y-86566554D01*
X159193187Y-86533608D01*
X159129539Y-86516554D01*
X159065892Y-86499500D01*
X158934108Y-86499500D01*
X158806812Y-86533608D01*
X158692686Y-86599500D01*
X158692683Y-86599502D01*
X158599502Y-86692683D01*
X158599500Y-86692686D01*
X158533608Y-86806812D01*
X158528869Y-86824500D01*
X158499500Y-86934108D01*
X157500500Y-86934108D01*
X157466392Y-86806814D01*
X157400500Y-86692686D01*
X157307314Y-86599500D01*
X157250250Y-86566554D01*
X157193187Y-86533608D01*
X157129539Y-86516554D01*
X157065892Y-86499500D01*
X156934108Y-86499500D01*
X156806812Y-86533608D01*
X156692686Y-86599500D01*
X156692683Y-86599502D01*
X156599502Y-86692683D01*
X156599500Y-86692686D01*
X156533608Y-86806812D01*
X156528869Y-86824500D01*
X156499500Y-86934108D01*
X156250500Y-86934108D01*
X156216392Y-86806814D01*
X156150500Y-86692686D01*
X156057314Y-86599500D01*
X156000250Y-86566554D01*
X155943187Y-86533608D01*
X155879539Y-86516554D01*
X155815892Y-86499500D01*
X155684108Y-86499500D01*
X155556812Y-86533608D01*
X155442686Y-86599500D01*
X155442683Y-86599502D01*
X155349502Y-86692683D01*
X155349500Y-86692686D01*
X155283608Y-86806812D01*
X155278869Y-86824500D01*
X155249500Y-86934108D01*
X116750501Y-86934108D01*
X116745913Y-86929520D01*
X116654587Y-86876793D01*
X116552727Y-86849500D01*
X116447273Y-86849500D01*
X116345413Y-86876793D01*
X116345410Y-86876794D01*
X116254085Y-86929521D01*
X116179521Y-87004085D01*
X116126794Y-87095410D01*
X116126793Y-87095413D01*
X116099500Y-87197273D01*
X115175500Y-87197273D01*
X115175500Y-87193982D01*
X115146503Y-87085763D01*
X115090485Y-86988737D01*
X115011263Y-86909515D01*
X114914237Y-86853497D01*
X114806018Y-86824500D01*
X114693982Y-86824500D01*
X114585763Y-86853497D01*
X114585760Y-86853498D01*
X114488740Y-86909513D01*
X114488734Y-86909517D01*
X114409517Y-86988734D01*
X114409513Y-86988740D01*
X114353498Y-87085760D01*
X114353497Y-87085763D01*
X114324500Y-87193982D01*
X111050500Y-87193982D01*
X111050500Y-84684108D01*
X134999500Y-84684108D01*
X134999500Y-84815891D01*
X135033608Y-84943187D01*
X135066554Y-85000250D01*
X135099500Y-85057314D01*
X135192686Y-85150500D01*
X135306814Y-85216392D01*
X135434108Y-85250500D01*
X135434110Y-85250500D01*
X135565890Y-85250500D01*
X135565892Y-85250500D01*
X135693186Y-85216392D01*
X135807314Y-85150500D01*
X135900500Y-85057314D01*
X135966392Y-84943186D01*
X136000500Y-84815892D01*
X136000500Y-84754315D01*
X136020185Y-84687276D01*
X136072989Y-84641521D01*
X136142147Y-84631577D01*
X136186501Y-84646928D01*
X136192683Y-84650497D01*
X136192686Y-84650500D01*
X136306814Y-84716392D01*
X136434108Y-84750500D01*
X136434110Y-84750500D01*
X136565890Y-84750500D01*
X136565892Y-84750500D01*
X136693186Y-84716392D01*
X136807314Y-84650500D01*
X136807316Y-84650497D01*
X136813499Y-84646928D01*
X136881399Y-84630455D01*
X136947426Y-84653307D01*
X136990617Y-84708228D01*
X136999500Y-84754315D01*
X136999500Y-84815891D01*
X137033608Y-84943187D01*
X137066554Y-85000250D01*
X137099500Y-85057314D01*
X137192686Y-85150500D01*
X137306814Y-85216392D01*
X137434108Y-85250500D01*
X137434110Y-85250500D01*
X137565890Y-85250500D01*
X137565892Y-85250500D01*
X137693186Y-85216392D01*
X137807314Y-85150500D01*
X137900500Y-85057314D01*
X137966392Y-84943186D01*
X138000500Y-84815892D01*
X138000500Y-84754315D01*
X138020185Y-84687276D01*
X138072989Y-84641521D01*
X138142147Y-84631577D01*
X138186501Y-84646928D01*
X138192683Y-84650497D01*
X138192686Y-84650500D01*
X138306814Y-84716392D01*
X138434108Y-84750500D01*
X138434110Y-84750500D01*
X138565890Y-84750500D01*
X138565892Y-84750500D01*
X138693186Y-84716392D01*
X138807314Y-84650500D01*
X138807316Y-84650497D01*
X138813499Y-84646928D01*
X138881399Y-84630455D01*
X138947426Y-84653307D01*
X138990617Y-84708228D01*
X138999500Y-84754315D01*
X138999500Y-84815891D01*
X139033608Y-84943187D01*
X139066554Y-85000250D01*
X139099500Y-85057314D01*
X139192686Y-85150500D01*
X139306814Y-85216392D01*
X139434108Y-85250500D01*
X139434110Y-85250500D01*
X139565890Y-85250500D01*
X139565892Y-85250500D01*
X139693186Y-85216392D01*
X139807314Y-85150500D01*
X139900500Y-85057314D01*
X139966392Y-84943186D01*
X140000500Y-84815892D01*
X140000500Y-84684108D01*
X139966392Y-84556814D01*
X139900500Y-84442686D01*
X139807314Y-84349500D01*
X139743615Y-84312723D01*
X139693187Y-84283608D01*
X139629539Y-84266554D01*
X139565892Y-84249500D01*
X139434108Y-84249500D01*
X139306814Y-84283608D01*
X139306813Y-84283608D01*
X139306811Y-84283609D01*
X139306810Y-84283609D01*
X139186500Y-84353071D01*
X139118600Y-84369544D01*
X139052573Y-84346692D01*
X139009382Y-84291770D01*
X139000500Y-84245684D01*
X139000500Y-84184110D01*
X139000500Y-84184108D01*
X138966392Y-84056814D01*
X138900500Y-83942686D01*
X138807314Y-83849500D01*
X138750250Y-83816554D01*
X138693187Y-83783608D01*
X138629539Y-83766554D01*
X138565892Y-83749500D01*
X138434108Y-83749500D01*
X138306812Y-83783608D01*
X138192686Y-83849500D01*
X138192683Y-83849502D01*
X138099502Y-83942683D01*
X138099500Y-83942686D01*
X138033608Y-84056812D01*
X137999500Y-84184108D01*
X137999500Y-84245684D01*
X137979815Y-84312723D01*
X137927011Y-84358478D01*
X137857853Y-84368422D01*
X137813500Y-84353071D01*
X137693189Y-84283609D01*
X137693186Y-84283608D01*
X137565892Y-84249500D01*
X137434108Y-84249500D01*
X137306814Y-84283608D01*
X137306813Y-84283608D01*
X137306811Y-84283609D01*
X137306810Y-84283609D01*
X137186500Y-84353071D01*
X137118600Y-84369544D01*
X137052573Y-84346692D01*
X137009382Y-84291770D01*
X137000500Y-84245684D01*
X137000500Y-84184110D01*
X137000500Y-84184108D01*
X136966392Y-84056814D01*
X136900500Y-83942686D01*
X136807314Y-83849500D01*
X136750250Y-83816554D01*
X136693187Y-83783608D01*
X136629539Y-83766554D01*
X136565892Y-83749500D01*
X136434108Y-83749500D01*
X136306812Y-83783608D01*
X136192686Y-83849500D01*
X136192683Y-83849502D01*
X136099502Y-83942683D01*
X136099500Y-83942686D01*
X136033608Y-84056812D01*
X135999500Y-84184108D01*
X135999500Y-84245684D01*
X135979815Y-84312723D01*
X135927011Y-84358478D01*
X135857853Y-84368422D01*
X135813500Y-84353071D01*
X135693189Y-84283609D01*
X135693186Y-84283608D01*
X135565892Y-84249500D01*
X135434108Y-84249500D01*
X135306812Y-84283608D01*
X135192686Y-84349500D01*
X135192683Y-84349502D01*
X135099502Y-84442683D01*
X135099500Y-84442686D01*
X135033608Y-84556812D01*
X134999500Y-84684108D01*
X111050500Y-84684108D01*
X111050500Y-82934108D01*
X138499500Y-82934108D01*
X138499500Y-83065891D01*
X138533608Y-83193187D01*
X138566554Y-83250250D01*
X138599500Y-83307314D01*
X138692686Y-83400500D01*
X138806814Y-83466392D01*
X138934108Y-83500500D01*
X138934110Y-83500500D01*
X139065890Y-83500500D01*
X139065892Y-83500500D01*
X139193186Y-83466392D01*
X139307314Y-83400500D01*
X139307316Y-83400497D01*
X139313499Y-83396928D01*
X139381399Y-83380455D01*
X139447426Y-83403307D01*
X139490617Y-83458228D01*
X139499500Y-83504315D01*
X139499500Y-83565891D01*
X139533608Y-83693187D01*
X139566121Y-83749500D01*
X139599500Y-83807314D01*
X139692686Y-83900500D01*
X139806814Y-83966392D01*
X139934108Y-84000500D01*
X139934110Y-84000500D01*
X140065890Y-84000500D01*
X140065892Y-84000500D01*
X140193186Y-83966392D01*
X140307314Y-83900500D01*
X140400500Y-83807314D01*
X140466392Y-83693186D01*
X140500500Y-83565892D01*
X140500500Y-83434108D01*
X140466392Y-83306814D01*
X140400500Y-83192686D01*
X140307314Y-83099500D01*
X140249102Y-83065891D01*
X140193187Y-83033608D01*
X140129539Y-83016554D01*
X140065892Y-82999500D01*
X139934108Y-82999500D01*
X139806814Y-83033608D01*
X139806813Y-83033608D01*
X139806811Y-83033609D01*
X139806810Y-83033609D01*
X139686500Y-83103071D01*
X139618600Y-83119544D01*
X139552573Y-83096692D01*
X139509382Y-83041770D01*
X139500500Y-82995684D01*
X139500500Y-82934110D01*
X139500500Y-82934108D01*
X139466392Y-82806814D01*
X139400500Y-82692686D01*
X139307314Y-82599500D01*
X139250250Y-82566554D01*
X139193187Y-82533608D01*
X139129539Y-82516554D01*
X139065892Y-82499500D01*
X138934108Y-82499500D01*
X138806812Y-82533608D01*
X138692686Y-82599500D01*
X138692683Y-82599502D01*
X138599502Y-82692683D01*
X138599500Y-82692686D01*
X138533608Y-82806812D01*
X138499500Y-82934108D01*
X111050500Y-82934108D01*
X111050500Y-79831504D01*
X121000000Y-79831504D01*
X121000000Y-80230000D01*
X121700000Y-80230000D01*
X121700000Y-80730000D01*
X121000000Y-80730000D01*
X121000000Y-81128495D01*
X121038427Y-81321681D01*
X121038430Y-81321693D01*
X121113807Y-81503671D01*
X121113814Y-81503684D01*
X121223248Y-81667462D01*
X121223251Y-81667466D01*
X121362533Y-81806748D01*
X121362537Y-81806751D01*
X121526315Y-81916185D01*
X121526328Y-81916192D01*
X121708308Y-81991569D01*
X121750000Y-81999862D01*
X121750000Y-81196988D01*
X121759940Y-81214205D01*
X121815795Y-81270060D01*
X121884204Y-81309556D01*
X121960504Y-81330000D01*
X122039496Y-81330000D01*
X122115796Y-81309556D01*
X122184205Y-81270060D01*
X122240060Y-81214205D01*
X122250000Y-81196988D01*
X122250000Y-81999862D01*
X122291690Y-81991569D01*
X122291692Y-81991569D01*
X122398634Y-81947273D01*
X124599500Y-81947273D01*
X124599500Y-82052727D01*
X124626793Y-82154587D01*
X124679520Y-82245913D01*
X124754087Y-82320480D01*
X124845413Y-82373207D01*
X124947273Y-82400500D01*
X124947275Y-82400500D01*
X125052725Y-82400500D01*
X125052727Y-82400500D01*
X125154587Y-82373207D01*
X125245913Y-82320480D01*
X125320480Y-82245913D01*
X125348562Y-82197273D01*
X127099500Y-82197273D01*
X127099500Y-82302727D01*
X127126793Y-82404587D01*
X127179520Y-82495913D01*
X127254087Y-82570480D01*
X127345413Y-82623207D01*
X127447273Y-82650500D01*
X127447275Y-82650500D01*
X127552725Y-82650500D01*
X127552727Y-82650500D01*
X127654587Y-82623207D01*
X127745913Y-82570480D01*
X127820480Y-82495913D01*
X127873207Y-82404587D01*
X127900500Y-82302727D01*
X127900500Y-82197273D01*
X127873207Y-82095413D01*
X127820480Y-82004087D01*
X127745913Y-81929520D01*
X127654587Y-81876793D01*
X127552727Y-81849500D01*
X127447273Y-81849500D01*
X127345413Y-81876793D01*
X127345410Y-81876794D01*
X127254085Y-81929521D01*
X127179521Y-82004085D01*
X127126794Y-82095410D01*
X127126793Y-82095413D01*
X127099500Y-82197273D01*
X125348562Y-82197273D01*
X125373207Y-82154587D01*
X125400500Y-82052727D01*
X125400500Y-81947273D01*
X125373207Y-81845413D01*
X125320480Y-81754087D01*
X125245913Y-81679520D01*
X125154587Y-81626793D01*
X125052727Y-81599500D01*
X124947273Y-81599500D01*
X124845413Y-81626793D01*
X124845410Y-81626794D01*
X124754085Y-81679521D01*
X124679521Y-81754085D01*
X124626794Y-81845410D01*
X124626793Y-81845413D01*
X124599500Y-81947273D01*
X122398634Y-81947273D01*
X122473671Y-81916192D01*
X122473684Y-81916185D01*
X122593624Y-81836044D01*
X122637462Y-81806751D01*
X122637466Y-81806748D01*
X122776748Y-81667466D01*
X122776751Y-81667462D01*
X122886185Y-81503684D01*
X122886192Y-81503671D01*
X122961569Y-81321693D01*
X122961572Y-81321681D01*
X122999999Y-81128495D01*
X123000000Y-81128492D01*
X123000000Y-80730000D01*
X122300000Y-80730000D01*
X122300000Y-80230000D01*
X122833598Y-80230000D01*
X122900637Y-80249685D01*
X122940984Y-80291999D01*
X122966285Y-80335821D01*
X123074179Y-80443715D01*
X123074180Y-80443716D01*
X123074182Y-80443717D01*
X123206318Y-80520006D01*
X123206319Y-80520006D01*
X123206322Y-80520008D01*
X123353707Y-80559500D01*
X123353710Y-80559500D01*
X123506290Y-80559500D01*
X123506293Y-80559500D01*
X123653678Y-80520008D01*
X123785821Y-80443715D01*
X123893715Y-80335821D01*
X123970008Y-80203678D01*
X124009500Y-80056293D01*
X124009500Y-79903707D01*
X128630500Y-79903707D01*
X128630500Y-80056293D01*
X128669992Y-80203678D01*
X128669993Y-80203681D01*
X128746282Y-80335817D01*
X128746284Y-80335819D01*
X128746285Y-80335821D01*
X128854179Y-80443715D01*
X128854180Y-80443716D01*
X128854182Y-80443717D01*
X128986318Y-80520006D01*
X128986319Y-80520006D01*
X128986322Y-80520008D01*
X129133707Y-80559500D01*
X129133710Y-80559500D01*
X129286291Y-80559500D01*
X129286293Y-80559500D01*
X129433678Y-80520008D01*
X129565821Y-80443715D01*
X129673715Y-80335821D01*
X129699015Y-80291999D01*
X129749582Y-80243784D01*
X129806402Y-80230000D01*
X130340000Y-80230000D01*
X130340000Y-80730000D01*
X129640000Y-80730000D01*
X129640000Y-81128495D01*
X129678427Y-81321681D01*
X129678430Y-81321693D01*
X129753807Y-81503671D01*
X129753814Y-81503684D01*
X129863248Y-81667462D01*
X129863251Y-81667466D01*
X130002533Y-81806748D01*
X130002537Y-81806751D01*
X130166315Y-81916185D01*
X130166328Y-81916192D01*
X130348308Y-81991569D01*
X130390000Y-81999862D01*
X130390000Y-81196988D01*
X130399940Y-81214205D01*
X130455795Y-81270060D01*
X130524204Y-81309556D01*
X130600504Y-81330000D01*
X130679496Y-81330000D01*
X130755796Y-81309556D01*
X130824205Y-81270060D01*
X130880060Y-81214205D01*
X130890000Y-81196988D01*
X130890000Y-81999862D01*
X130931690Y-81991569D01*
X130931692Y-81991569D01*
X131113671Y-81916192D01*
X131113684Y-81916185D01*
X131277462Y-81806751D01*
X131277466Y-81806748D01*
X131416748Y-81667466D01*
X131416751Y-81667462D01*
X131526185Y-81503684D01*
X131526192Y-81503671D01*
X131601569Y-81321693D01*
X131601570Y-81321689D01*
X131606427Y-81297273D01*
X139723500Y-81297273D01*
X139723500Y-81402727D01*
X139750793Y-81504587D01*
X139803520Y-81595913D01*
X139878087Y-81670480D01*
X139969413Y-81723207D01*
X140071273Y-81750500D01*
X140071275Y-81750500D01*
X140176725Y-81750500D01*
X140176727Y-81750500D01*
X140278587Y-81723207D01*
X140369913Y-81670480D01*
X140444480Y-81595913D01*
X140497207Y-81504587D01*
X140524500Y-81402727D01*
X140524500Y-81297273D01*
X140497207Y-81195413D01*
X140444480Y-81104087D01*
X140387666Y-81047273D01*
X148223500Y-81047273D01*
X148223500Y-81152726D01*
X148250793Y-81254586D01*
X148250794Y-81254589D01*
X148259726Y-81270060D01*
X148303520Y-81345913D01*
X148378087Y-81420480D01*
X148469413Y-81473207D01*
X148495606Y-81480225D01*
X148555267Y-81516590D01*
X148585796Y-81579437D01*
X148577501Y-81648812D01*
X148533016Y-81702690D01*
X148495607Y-81719774D01*
X148469417Y-81726792D01*
X148469413Y-81726793D01*
X148469410Y-81726794D01*
X148378085Y-81779521D01*
X148303521Y-81854085D01*
X148250794Y-81945410D01*
X148250793Y-81945413D01*
X148223500Y-82047273D01*
X148223500Y-82152727D01*
X148250793Y-82254587D01*
X148303520Y-82345913D01*
X148378087Y-82420480D01*
X148469413Y-82473207D01*
X148571273Y-82500500D01*
X148571275Y-82500500D01*
X148676725Y-82500500D01*
X148676727Y-82500500D01*
X148778587Y-82473207D01*
X148869913Y-82420480D01*
X148944480Y-82345913D01*
X148997207Y-82254587D01*
X149024500Y-82152727D01*
X149024500Y-82047273D01*
X148997207Y-81945413D01*
X148944480Y-81854087D01*
X148869913Y-81779520D01*
X148778587Y-81726793D01*
X148778585Y-81726792D01*
X148762979Y-81722611D01*
X148752393Y-81719774D01*
X148692733Y-81683411D01*
X148662203Y-81620564D01*
X148670497Y-81551188D01*
X148714982Y-81497310D01*
X148752392Y-81480225D01*
X148778587Y-81473207D01*
X148869913Y-81420480D01*
X148944480Y-81345913D01*
X148997207Y-81254587D01*
X149024500Y-81152727D01*
X149024500Y-81047273D01*
X149973500Y-81047273D01*
X149973500Y-81152726D01*
X150000793Y-81254586D01*
X150000794Y-81254589D01*
X150009726Y-81270060D01*
X150053520Y-81345913D01*
X150128087Y-81420480D01*
X150219413Y-81473207D01*
X150321273Y-81500500D01*
X150321275Y-81500500D01*
X150426725Y-81500500D01*
X150426727Y-81500500D01*
X150528587Y-81473207D01*
X150619913Y-81420480D01*
X150694480Y-81345913D01*
X150747207Y-81254587D01*
X150774500Y-81152727D01*
X150774500Y-81047273D01*
X152723500Y-81047273D01*
X152723500Y-81152726D01*
X152750793Y-81254586D01*
X152750794Y-81254589D01*
X152759726Y-81270060D01*
X152803520Y-81345913D01*
X152878087Y-81420480D01*
X152969413Y-81473207D01*
X153071273Y-81500500D01*
X153071275Y-81500500D01*
X153176725Y-81500500D01*
X153176727Y-81500500D01*
X153278587Y-81473207D01*
X153369913Y-81420480D01*
X153444480Y-81345913D01*
X153497207Y-81254587D01*
X153524500Y-81152727D01*
X153524500Y-81047273D01*
X153497207Y-80945413D01*
X153444480Y-80854087D01*
X153369913Y-80779520D01*
X153278587Y-80726793D01*
X153176727Y-80699500D01*
X153071273Y-80699500D01*
X152969413Y-80726793D01*
X152969410Y-80726794D01*
X152878085Y-80779521D01*
X152803521Y-80854085D01*
X152750794Y-80945410D01*
X152750793Y-80945413D01*
X152723500Y-81047273D01*
X150774500Y-81047273D01*
X150747207Y-80945413D01*
X150694480Y-80854087D01*
X150619913Y-80779520D01*
X150528587Y-80726793D01*
X150426727Y-80699500D01*
X150321273Y-80699500D01*
X150219413Y-80726793D01*
X150219410Y-80726794D01*
X150128085Y-80779521D01*
X150053521Y-80854085D01*
X150000794Y-80945410D01*
X150000793Y-80945413D01*
X149973500Y-81047273D01*
X149024500Y-81047273D01*
X148997207Y-80945413D01*
X148944480Y-80854087D01*
X148869913Y-80779520D01*
X148778587Y-80726793D01*
X148676727Y-80699500D01*
X148571273Y-80699500D01*
X148469413Y-80726793D01*
X148469410Y-80726794D01*
X148378085Y-80779521D01*
X148303521Y-80854085D01*
X148250794Y-80945410D01*
X148250793Y-80945413D01*
X148223500Y-81047273D01*
X140387666Y-81047273D01*
X140369913Y-81029520D01*
X140278587Y-80976793D01*
X140176727Y-80949500D01*
X140071273Y-80949500D01*
X139969413Y-80976793D01*
X139969410Y-80976794D01*
X139878085Y-81029521D01*
X139803521Y-81104085D01*
X139750794Y-81195410D01*
X139750793Y-81195413D01*
X139723500Y-81297273D01*
X131606427Y-81297273D01*
X131612855Y-81264956D01*
X131612856Y-81264953D01*
X131639999Y-81128494D01*
X131640000Y-81128492D01*
X131640000Y-80730000D01*
X130940000Y-80730000D01*
X130940000Y-80230000D01*
X131640000Y-80230000D01*
X131640000Y-79831508D01*
X131639999Y-79831504D01*
X131601572Y-79638318D01*
X131601569Y-79638306D01*
X131526192Y-79456328D01*
X131526185Y-79456315D01*
X131460517Y-79358037D01*
X131419916Y-79297273D01*
X138973500Y-79297273D01*
X138973500Y-79402727D01*
X139000793Y-79504587D01*
X139053520Y-79595913D01*
X139128087Y-79670480D01*
X139219413Y-79723207D01*
X139321273Y-79750500D01*
X139321275Y-79750500D01*
X139426725Y-79750500D01*
X139426727Y-79750500D01*
X139528587Y-79723207D01*
X139619913Y-79670480D01*
X139694480Y-79595913D01*
X139747207Y-79504587D01*
X139774500Y-79402727D01*
X139774500Y-79297273D01*
X139747207Y-79195413D01*
X139694480Y-79104087D01*
X139637666Y-79047273D01*
X148223500Y-79047273D01*
X148223500Y-79152727D01*
X148250793Y-79254587D01*
X148303520Y-79345913D01*
X148378087Y-79420480D01*
X148411501Y-79439772D01*
X148459715Y-79490336D01*
X148473500Y-79547157D01*
X148473500Y-79547273D01*
X148473500Y-79652727D01*
X148500793Y-79754587D01*
X148553520Y-79845913D01*
X148628087Y-79920480D01*
X148719413Y-79973207D01*
X148821273Y-80000500D01*
X148821275Y-80000500D01*
X148926725Y-80000500D01*
X148926727Y-80000500D01*
X149028587Y-79973207D01*
X149119913Y-79920480D01*
X149194480Y-79845913D01*
X149247207Y-79754587D01*
X149274500Y-79652727D01*
X149274500Y-79547273D01*
X149247207Y-79445413D01*
X149194480Y-79354087D01*
X149119913Y-79279520D01*
X149086499Y-79260228D01*
X149038284Y-79209661D01*
X149024500Y-79152842D01*
X149024500Y-79047275D01*
X149024500Y-79047273D01*
X148997207Y-78945413D01*
X148944480Y-78854087D01*
X148869913Y-78779520D01*
X148778587Y-78726793D01*
X148676727Y-78699500D01*
X148571273Y-78699500D01*
X148469413Y-78726793D01*
X148469410Y-78726794D01*
X148378085Y-78779521D01*
X148303521Y-78854085D01*
X148250794Y-78945410D01*
X148250793Y-78945413D01*
X148223500Y-79047273D01*
X139637666Y-79047273D01*
X139619913Y-79029520D01*
X139528587Y-78976793D01*
X139426727Y-78949500D01*
X139321273Y-78949500D01*
X139219413Y-78976793D01*
X139219410Y-78976794D01*
X139128085Y-79029521D01*
X139053521Y-79104085D01*
X139000794Y-79195410D01*
X139000793Y-79195413D01*
X138973500Y-79297273D01*
X131419916Y-79297273D01*
X131416751Y-79292537D01*
X131416748Y-79292533D01*
X131277466Y-79153251D01*
X131277462Y-79153248D01*
X131113684Y-79043814D01*
X131113671Y-79043807D01*
X130931691Y-78968429D01*
X130931683Y-78968427D01*
X130890000Y-78960135D01*
X130890000Y-79763011D01*
X130880060Y-79745795D01*
X130824205Y-79689940D01*
X130755796Y-79650444D01*
X130679496Y-79630000D01*
X130600504Y-79630000D01*
X130524204Y-79650444D01*
X130455795Y-79689940D01*
X130399940Y-79745795D01*
X130390000Y-79763011D01*
X130390000Y-78960136D01*
X130389999Y-78960135D01*
X130348316Y-78968427D01*
X130348308Y-78968429D01*
X130166328Y-79043807D01*
X130166315Y-79043814D01*
X130002537Y-79153248D01*
X130002533Y-79153251D01*
X129863251Y-79292533D01*
X129863248Y-79292537D01*
X129753814Y-79456315D01*
X129753808Y-79456326D01*
X129751462Y-79461991D01*
X129707617Y-79516391D01*
X129641321Y-79538451D01*
X129573623Y-79521167D01*
X129569826Y-79518597D01*
X129433681Y-79439993D01*
X129433682Y-79439993D01*
X129421595Y-79436754D01*
X129286293Y-79400500D01*
X129133707Y-79400500D01*
X128998404Y-79436754D01*
X128986318Y-79439993D01*
X128854182Y-79516282D01*
X128854176Y-79516287D01*
X128746287Y-79624176D01*
X128746282Y-79624182D01*
X128669993Y-79756318D01*
X128669992Y-79756322D01*
X128630500Y-79903707D01*
X124009500Y-79903707D01*
X123970008Y-79756322D01*
X123969007Y-79754589D01*
X123893717Y-79624182D01*
X123893712Y-79624176D01*
X123785823Y-79516287D01*
X123785817Y-79516282D01*
X123653681Y-79439993D01*
X123653682Y-79439993D01*
X123641595Y-79436754D01*
X123506293Y-79400500D01*
X123353707Y-79400500D01*
X123218404Y-79436754D01*
X123206318Y-79439993D01*
X123067140Y-79520349D01*
X123065715Y-79517881D01*
X123013405Y-79538102D01*
X122944961Y-79524059D01*
X122894974Y-79475243D01*
X122888534Y-79461983D01*
X122886188Y-79456321D01*
X122886187Y-79456318D01*
X122776751Y-79292537D01*
X122776748Y-79292533D01*
X122637466Y-79153251D01*
X122637462Y-79153248D01*
X122473684Y-79043814D01*
X122473671Y-79043807D01*
X122291691Y-78968429D01*
X122291683Y-78968427D01*
X122250000Y-78960135D01*
X122250000Y-79763011D01*
X122240060Y-79745795D01*
X122184205Y-79689940D01*
X122115796Y-79650444D01*
X122039496Y-79630000D01*
X121960504Y-79630000D01*
X121884204Y-79650444D01*
X121815795Y-79689940D01*
X121759940Y-79745795D01*
X121750000Y-79763011D01*
X121750000Y-78960136D01*
X121749999Y-78960135D01*
X121708316Y-78968427D01*
X121708308Y-78968429D01*
X121526328Y-79043807D01*
X121526315Y-79043814D01*
X121362537Y-79153248D01*
X121362533Y-79153251D01*
X121223251Y-79292533D01*
X121223248Y-79292537D01*
X121113814Y-79456315D01*
X121113807Y-79456328D01*
X121038430Y-79638306D01*
X121038427Y-79638318D01*
X121000000Y-79831504D01*
X111050500Y-79831504D01*
X111050500Y-77618872D01*
X112249500Y-77618872D01*
X112249500Y-77881127D01*
X112265755Y-78004586D01*
X112283730Y-78141116D01*
X112351602Y-78394418D01*
X112351605Y-78394428D01*
X112451953Y-78636690D01*
X112451958Y-78636700D01*
X112583075Y-78863803D01*
X112742718Y-79071851D01*
X112742726Y-79071860D01*
X112928140Y-79257274D01*
X112928148Y-79257281D01*
X112928149Y-79257282D01*
X112957130Y-79279520D01*
X113136196Y-79416924D01*
X113363299Y-79548041D01*
X113363309Y-79548046D01*
X113605571Y-79648394D01*
X113605581Y-79648398D01*
X113858884Y-79716270D01*
X114118880Y-79750500D01*
X114118887Y-79750500D01*
X114381113Y-79750500D01*
X114381120Y-79750500D01*
X114641116Y-79716270D01*
X114894419Y-79648398D01*
X115136697Y-79548043D01*
X115363803Y-79416924D01*
X115571851Y-79257282D01*
X115571855Y-79257277D01*
X115571860Y-79257274D01*
X115757274Y-79071860D01*
X115757277Y-79071855D01*
X115757282Y-79071851D01*
X115916924Y-78863803D01*
X116048043Y-78636697D01*
X116148398Y-78394419D01*
X116216270Y-78141116D01*
X116250500Y-77881120D01*
X116250500Y-77797273D01*
X138973500Y-77797273D01*
X138973500Y-77902727D01*
X139000793Y-78004587D01*
X139053520Y-78095913D01*
X139128087Y-78170480D01*
X139219413Y-78223207D01*
X139321273Y-78250500D01*
X139321275Y-78250500D01*
X139426725Y-78250500D01*
X139426727Y-78250500D01*
X139528587Y-78223207D01*
X139619913Y-78170480D01*
X139694480Y-78095913D01*
X139747207Y-78004587D01*
X139774500Y-77902727D01*
X139774500Y-77797273D01*
X139747207Y-77695413D01*
X139703016Y-77618872D01*
X157249500Y-77618872D01*
X157249500Y-77881127D01*
X157265755Y-78004586D01*
X157283730Y-78141116D01*
X157351602Y-78394418D01*
X157351605Y-78394428D01*
X157451953Y-78636690D01*
X157451958Y-78636700D01*
X157583075Y-78863803D01*
X157742718Y-79071851D01*
X157742726Y-79071860D01*
X157928140Y-79257274D01*
X157928148Y-79257281D01*
X157928149Y-79257282D01*
X157957130Y-79279520D01*
X158136196Y-79416924D01*
X158363299Y-79548041D01*
X158363309Y-79548046D01*
X158605571Y-79648394D01*
X158605581Y-79648398D01*
X158858884Y-79716270D01*
X159118880Y-79750500D01*
X159118887Y-79750500D01*
X159381113Y-79750500D01*
X159381120Y-79750500D01*
X159641116Y-79716270D01*
X159894419Y-79648398D01*
X160136697Y-79548043D01*
X160363803Y-79416924D01*
X160571851Y-79257282D01*
X160571855Y-79257277D01*
X160571860Y-79257274D01*
X160757274Y-79071860D01*
X160757277Y-79071855D01*
X160757282Y-79071851D01*
X160916924Y-78863803D01*
X161048043Y-78636697D01*
X161148398Y-78394419D01*
X161216270Y-78141116D01*
X161250500Y-77881120D01*
X161250500Y-77618880D01*
X161216270Y-77358884D01*
X161148398Y-77105581D01*
X161056701Y-76884205D01*
X161048046Y-76863309D01*
X161048041Y-76863299D01*
X160916924Y-76636196D01*
X160757281Y-76428148D01*
X160757274Y-76428140D01*
X160571860Y-76242726D01*
X160571851Y-76242718D01*
X160363803Y-76083075D01*
X160136700Y-75951958D01*
X160136690Y-75951953D01*
X159894428Y-75851605D01*
X159894421Y-75851603D01*
X159894419Y-75851602D01*
X159641116Y-75783730D01*
X159583339Y-75776123D01*
X159381127Y-75749500D01*
X159381120Y-75749500D01*
X159118880Y-75749500D01*
X159118872Y-75749500D01*
X158887772Y-75779926D01*
X158858884Y-75783730D01*
X158605581Y-75851602D01*
X158605571Y-75851605D01*
X158363309Y-75951953D01*
X158363299Y-75951958D01*
X158136196Y-76083075D01*
X157928148Y-76242718D01*
X157742718Y-76428148D01*
X157583075Y-76636196D01*
X157451958Y-76863299D01*
X157451953Y-76863309D01*
X157351605Y-77105571D01*
X157351602Y-77105581D01*
X157333358Y-77173671D01*
X157283730Y-77358885D01*
X157249500Y-77618872D01*
X139703016Y-77618872D01*
X139694480Y-77604087D01*
X139619913Y-77529520D01*
X139528587Y-77476793D01*
X139426727Y-77449500D01*
X139321273Y-77449500D01*
X139219413Y-77476793D01*
X139219410Y-77476794D01*
X139128085Y-77529521D01*
X139053521Y-77604085D01*
X139000794Y-77695410D01*
X139000793Y-77695413D01*
X138973500Y-77797273D01*
X116250500Y-77797273D01*
X116250500Y-77618880D01*
X116216270Y-77358884D01*
X116148398Y-77105581D01*
X116056701Y-76884205D01*
X116048046Y-76863309D01*
X116048041Y-76863299D01*
X115916924Y-76636196D01*
X115869296Y-76574128D01*
X115757282Y-76428149D01*
X115757276Y-76428143D01*
X115757273Y-76428139D01*
X115571860Y-76242726D01*
X115571851Y-76242718D01*
X115363803Y-76083075D01*
X115136700Y-75951958D01*
X115136690Y-75951953D01*
X115035352Y-75909978D01*
X114894428Y-75851605D01*
X114894421Y-75851603D01*
X114894419Y-75851602D01*
X114707450Y-75801504D01*
X121000000Y-75801504D01*
X121000000Y-76050000D01*
X121700000Y-76050000D01*
X121700000Y-76550000D01*
X121000000Y-76550000D01*
X121000000Y-76798495D01*
X121038427Y-76991681D01*
X121038430Y-76991693D01*
X121113807Y-77173671D01*
X121113814Y-77173684D01*
X121223248Y-77337462D01*
X121223251Y-77337466D01*
X121362533Y-77476748D01*
X121362537Y-77476751D01*
X121526315Y-77586185D01*
X121526328Y-77586192D01*
X121708308Y-77661569D01*
X121750000Y-77669862D01*
X121750000Y-76866988D01*
X121759940Y-76884205D01*
X121815795Y-76940060D01*
X121884204Y-76979556D01*
X121960504Y-77000000D01*
X122039496Y-77000000D01*
X122115796Y-76979556D01*
X122184205Y-76940060D01*
X122240060Y-76884205D01*
X122250000Y-76866988D01*
X122250000Y-77669862D01*
X122291690Y-77661569D01*
X122291692Y-77661569D01*
X122473671Y-77586192D01*
X122473684Y-77586185D01*
X122637462Y-77476751D01*
X122637466Y-77476748D01*
X122776748Y-77337466D01*
X122776751Y-77337462D01*
X122886185Y-77173684D01*
X122886192Y-77173671D01*
X122961569Y-76991693D01*
X122961572Y-76991681D01*
X122999999Y-76798495D01*
X123000000Y-76798492D01*
X123000000Y-76550000D01*
X122300000Y-76550000D01*
X122300000Y-76050000D01*
X123000000Y-76050000D01*
X123000000Y-75801508D01*
X122999999Y-75801504D01*
X129640000Y-75801504D01*
X129640000Y-76050000D01*
X130340000Y-76050000D01*
X130340000Y-76550000D01*
X129640000Y-76550000D01*
X129640000Y-76798495D01*
X129678427Y-76991681D01*
X129678430Y-76991693D01*
X129753807Y-77173671D01*
X129753814Y-77173684D01*
X129863248Y-77337462D01*
X129863251Y-77337466D01*
X130002533Y-77476748D01*
X130002537Y-77476751D01*
X130166315Y-77586185D01*
X130166328Y-77586192D01*
X130348308Y-77661569D01*
X130390000Y-77669862D01*
X130390000Y-76866988D01*
X130399940Y-76884205D01*
X130455795Y-76940060D01*
X130524204Y-76979556D01*
X130600504Y-77000000D01*
X130679496Y-77000000D01*
X130755796Y-76979556D01*
X130824205Y-76940060D01*
X130880060Y-76884205D01*
X130890000Y-76866988D01*
X130890000Y-77669862D01*
X130901738Y-77667528D01*
X130901745Y-77667527D01*
X130931680Y-77661572D01*
X130931692Y-77661569D01*
X131113671Y-77586192D01*
X131113684Y-77586185D01*
X131277462Y-77476751D01*
X131277466Y-77476748D01*
X131416748Y-77337466D01*
X131416751Y-77337462D01*
X131526185Y-77173684D01*
X131526192Y-77173671D01*
X131601569Y-76991693D01*
X131601572Y-76991681D01*
X131639999Y-76798495D01*
X131640000Y-76798492D01*
X131640000Y-76550000D01*
X130940000Y-76550000D01*
X130940000Y-76050000D01*
X131640000Y-76050000D01*
X131640000Y-75801508D01*
X131639999Y-75801504D01*
X131601572Y-75608318D01*
X131601569Y-75608306D01*
X131526192Y-75426328D01*
X131526185Y-75426315D01*
X131416751Y-75262537D01*
X131416748Y-75262533D01*
X131277466Y-75123251D01*
X131277462Y-75123248D01*
X131113684Y-75013814D01*
X131113671Y-75013807D01*
X130931691Y-74938429D01*
X130931683Y-74938427D01*
X130890000Y-74930135D01*
X130890000Y-75733011D01*
X130880060Y-75715795D01*
X130824205Y-75659940D01*
X130755796Y-75620444D01*
X130679496Y-75600000D01*
X130600504Y-75600000D01*
X130524204Y-75620444D01*
X130455795Y-75659940D01*
X130399940Y-75715795D01*
X130390000Y-75733011D01*
X130390000Y-74930136D01*
X130389999Y-74930135D01*
X130348316Y-74938427D01*
X130348308Y-74938429D01*
X130166328Y-75013807D01*
X130166315Y-75013814D01*
X130002537Y-75123248D01*
X130002533Y-75123251D01*
X129863251Y-75262533D01*
X129863248Y-75262537D01*
X129753814Y-75426315D01*
X129753807Y-75426328D01*
X129678430Y-75608306D01*
X129678427Y-75608318D01*
X129640000Y-75801504D01*
X122999999Y-75801504D01*
X122961572Y-75608318D01*
X122961569Y-75608306D01*
X122886192Y-75426328D01*
X122886185Y-75426315D01*
X122776751Y-75262537D01*
X122776748Y-75262533D01*
X122637466Y-75123251D01*
X122637462Y-75123248D01*
X122473684Y-75013814D01*
X122473671Y-75013807D01*
X122291691Y-74938429D01*
X122291683Y-74938427D01*
X122250000Y-74930135D01*
X122250000Y-75733011D01*
X122240060Y-75715795D01*
X122184205Y-75659940D01*
X122115796Y-75620444D01*
X122039496Y-75600000D01*
X121960504Y-75600000D01*
X121884204Y-75620444D01*
X121815795Y-75659940D01*
X121759940Y-75715795D01*
X121750000Y-75733011D01*
X121750000Y-74930136D01*
X121749999Y-74930135D01*
X121708316Y-74938427D01*
X121708308Y-74938429D01*
X121526328Y-75013807D01*
X121526315Y-75013814D01*
X121362537Y-75123248D01*
X121362533Y-75123251D01*
X121223251Y-75262533D01*
X121223248Y-75262537D01*
X121113814Y-75426315D01*
X121113807Y-75426328D01*
X121038430Y-75608306D01*
X121038427Y-75608318D01*
X121000000Y-75801504D01*
X114707450Y-75801504D01*
X114641116Y-75783730D01*
X114583339Y-75776123D01*
X114381127Y-75749500D01*
X114381120Y-75749500D01*
X114118880Y-75749500D01*
X114118872Y-75749500D01*
X113887772Y-75779926D01*
X113858884Y-75783730D01*
X113605581Y-75851602D01*
X113605571Y-75851605D01*
X113363309Y-75951953D01*
X113363299Y-75951958D01*
X113136196Y-76083075D01*
X112928148Y-76242718D01*
X112742718Y-76428148D01*
X112583075Y-76636196D01*
X112451958Y-76863299D01*
X112451953Y-76863309D01*
X112351605Y-77105571D01*
X112351602Y-77105581D01*
X112333358Y-77173671D01*
X112283730Y-77358885D01*
X112249500Y-77618872D01*
X111050500Y-77618872D01*
X111050500Y-74674500D01*
X111070185Y-74607461D01*
X111122989Y-74561706D01*
X111174500Y-74550500D01*
X162325500Y-74550500D01*
X162392539Y-74570185D01*
G37*
%TD.AperFunction*%
%TD*%
M02*
