%TF.GenerationSoftware,KiCad,Pcbnew,9.0.3*%
%TF.CreationDate,2025-11-05T15:26:23-06:00*%
%TF.ProjectId,PeripheralSOM,50657269-7068-4657-9261-6c534f4d2e6b,rev?*%
%TF.SameCoordinates,Original*%
%TF.FileFunction,Soldermask,Bot*%
%TF.FilePolarity,Negative*%
%FSLAX46Y46*%
G04 Gerber Fmt 4.6, Leading zero omitted, Abs format (unit mm)*
G04 Created by KiCad (PCBNEW 9.0.3) date 2025-11-05 15:26:23*
%MOMM*%
%LPD*%
G01*
G04 APERTURE LIST*
G04 Aperture macros list*
%AMRoundRect*
0 Rectangle with rounded corners*
0 $1 Rounding radius*
0 $2 $3 $4 $5 $6 $7 $8 $9 X,Y pos of 4 corners*
0 Add a 4 corners polygon primitive as box body*
4,1,4,$2,$3,$4,$5,$6,$7,$8,$9,$2,$3,0*
0 Add four circle primitives for the rounded corners*
1,1,$1+$1,$2,$3*
1,1,$1+$1,$4,$5*
1,1,$1+$1,$6,$7*
1,1,$1+$1,$8,$9*
0 Add four rect primitives between the rounded corners*
20,1,$1+$1,$2,$3,$4,$5,0*
20,1,$1+$1,$4,$5,$6,$7,0*
20,1,$1+$1,$6,$7,$8,$9,0*
20,1,$1+$1,$8,$9,$2,$3,0*%
G04 Aperture macros list end*
%ADD10C,0.000000*%
%ADD11RoundRect,0.175000X0.175000X-0.325000X0.175000X0.325000X-0.175000X0.325000X-0.175000X-0.325000X0*%
%ADD12R,0.450000X1.200000*%
%ADD13RoundRect,0.237500X-0.237500X0.250000X-0.237500X-0.250000X0.237500X-0.250000X0.237500X0.250000X0*%
%ADD14RoundRect,0.237500X0.250000X0.237500X-0.250000X0.237500X-0.250000X-0.237500X0.250000X-0.237500X0*%
%ADD15RoundRect,0.237500X-0.250000X-0.237500X0.250000X-0.237500X0.250000X0.237500X-0.250000X0.237500X0*%
%ADD16RoundRect,0.237500X0.237500X-0.250000X0.237500X0.250000X-0.237500X0.250000X-0.237500X-0.250000X0*%
%ADD17C,6.400000*%
%ADD18C,3.600000*%
%ADD19R,1.500000X0.550000*%
%ADD20C,0.850000*%
%ADD21O,1.000000X1.800000*%
%ADD22O,1.000000X2.100000*%
%ADD23C,0.650000*%
%ADD24O,1.700000X2.200000*%
%ADD25RoundRect,0.250000X0.600000X-0.850000X0.600000X0.850000X-0.600000X0.850000X-0.600000X-0.850000X0*%
%ADD26C,1.300000*%
%ADD27RoundRect,0.237500X-0.300000X-0.237500X0.300000X-0.237500X0.300000X0.237500X-0.300000X0.237500X0*%
%ADD28RoundRect,0.250000X-0.300000X-0.300000X0.300000X-0.300000X0.300000X0.300000X-0.300000X0.300000X0*%
%ADD29RoundRect,0.237500X-0.237500X0.300000X-0.237500X-0.300000X0.237500X-0.300000X0.237500X0.300000X0*%
%ADD30RoundRect,0.250000X-0.337500X-0.475000X0.337500X-0.475000X0.337500X0.475000X-0.337500X0.475000X0*%
%ADD31RoundRect,0.250000X-0.475000X0.337500X-0.475000X-0.337500X0.475000X-0.337500X0.475000X0.337500X0*%
%ADD32RoundRect,0.237500X0.300000X0.237500X-0.300000X0.237500X-0.300000X-0.237500X0.300000X-0.237500X0*%
%ADD33R,1.700000X1.700000*%
%ADD34C,1.700000*%
%ADD35R,1.000000X1.000000*%
G04 APERTURE END LIST*
D10*
%TO.C,LOGO2*%
G36*
X129942166Y-79461488D02*
G01*
X129955562Y-80860000D01*
X128619249Y-80860000D01*
X127282936Y-80860000D01*
X127282936Y-80609059D01*
X127282936Y-80358119D01*
X128303472Y-80344476D01*
X129324007Y-80330833D01*
X129349206Y-79196905D01*
X129374404Y-78062976D01*
X129651587Y-78062976D01*
X129928769Y-78062976D01*
X129942166Y-79461488D01*
G37*
G36*
X118500000Y-79188968D02*
G01*
X118500000Y-79894524D01*
X117718849Y-79894524D01*
X116937699Y-79894524D01*
X116937699Y-80146508D01*
X116937699Y-80398492D01*
X117718849Y-80398492D01*
X118500000Y-80398492D01*
X118500000Y-80625278D01*
X118500000Y-80852063D01*
X117492064Y-80852063D01*
X116484127Y-80852063D01*
X116484127Y-80146508D01*
X116484127Y-79440952D01*
X117265278Y-79440952D01*
X118046429Y-79440952D01*
X118046429Y-79188968D01*
X118046429Y-78936984D01*
X117265278Y-78936984D01*
X116484127Y-78936984D01*
X116484127Y-78710198D01*
X116484127Y-78483413D01*
X117492064Y-78483413D01*
X118500000Y-78483413D01*
X118500000Y-79188968D01*
G37*
G36*
X123770010Y-78047105D02*
G01*
X123846219Y-78096509D01*
X123888229Y-78199779D01*
X123907939Y-78372555D01*
X123917248Y-78630474D01*
X123931547Y-79171706D01*
X125015079Y-79171706D01*
X126098611Y-79171706D01*
X126113153Y-78670561D01*
X126119124Y-78533801D01*
X126135949Y-78331243D01*
X126158725Y-78178573D01*
X126184272Y-78101244D01*
X126189637Y-78095420D01*
X126298210Y-78052861D01*
X126497309Y-78048025D01*
X126753769Y-78062976D01*
X126767170Y-79463914D01*
X126780571Y-80864851D01*
X126464789Y-80849826D01*
X126149007Y-80834801D01*
X126134749Y-80266859D01*
X126120490Y-79698916D01*
X125026018Y-79712494D01*
X123931547Y-79726071D01*
X123917297Y-80293036D01*
X123903048Y-80860000D01*
X123576322Y-80860000D01*
X123249596Y-80860000D01*
X123262992Y-79461488D01*
X123276388Y-78062976D01*
X123473172Y-78046870D01*
X123647702Y-78035930D01*
X123770010Y-78047105D01*
G37*
G36*
X122495238Y-79475047D02*
G01*
X122495238Y-80860000D01*
X122167658Y-80860000D01*
X121840079Y-80860000D01*
X121840079Y-80431627D01*
X121840079Y-80003254D01*
X120886197Y-80003254D01*
X119932315Y-80003254D01*
X119827864Y-80136042D01*
X119778102Y-80214351D01*
X119735658Y-80357713D01*
X119723412Y-80564415D01*
X119723412Y-80860000D01*
X119389668Y-80860000D01*
X119055924Y-80860000D01*
X119077562Y-80407429D01*
X119079366Y-80370905D01*
X119094684Y-80153634D01*
X119117770Y-80008775D01*
X119154437Y-79911351D01*
X119210501Y-79836385D01*
X119219712Y-79826572D01*
X119286703Y-79746382D01*
X119286870Y-79694076D01*
X119222629Y-79628160D01*
X119178578Y-79572966D01*
X119108305Y-79412348D01*
X119057812Y-79203805D01*
X119040385Y-79039462D01*
X119698214Y-79039462D01*
X119698593Y-79074497D01*
X119722805Y-79265962D01*
X119788147Y-79384093D01*
X119804651Y-79398897D01*
X119855141Y-79427551D01*
X119933859Y-79448885D01*
X120055319Y-79464404D01*
X120234035Y-79475610D01*
X120484518Y-79484007D01*
X120821281Y-79491098D01*
X120822842Y-79491126D01*
X121121655Y-79494519D01*
X121385436Y-79493761D01*
X121597756Y-79489204D01*
X121742181Y-79481199D01*
X121802281Y-79470099D01*
X121808184Y-79459012D01*
X121824458Y-79367374D01*
X121835812Y-79209653D01*
X121840079Y-79012116D01*
X121840079Y-78592143D01*
X120888122Y-78592143D01*
X120632936Y-78592554D01*
X120360760Y-78595123D01*
X120163212Y-78601247D01*
X120025186Y-78612287D01*
X119931577Y-78629601D01*
X119867280Y-78654546D01*
X119817190Y-78688484D01*
X119746590Y-78763196D01*
X119708209Y-78870129D01*
X119698214Y-79039462D01*
X119040385Y-79039462D01*
X119034219Y-78981314D01*
X119044648Y-78778856D01*
X119073307Y-78619132D01*
X119113728Y-78462094D01*
X119170818Y-78337992D01*
X119255092Y-78242721D01*
X119377066Y-78172178D01*
X119547256Y-78122257D01*
X119776177Y-78088856D01*
X120074345Y-78067869D01*
X120452275Y-78055193D01*
X120920483Y-78046724D01*
X121243611Y-78042880D01*
X121580996Y-78041106D01*
X121877153Y-78041903D01*
X122117195Y-78045150D01*
X122286236Y-78050726D01*
X122369392Y-78058509D01*
X122495238Y-78090095D01*
X122495238Y-79012116D01*
X122495238Y-79475047D01*
G37*
%TD*%
D11*
%TO.C,U5*%
X146750000Y-88750000D03*
X145800000Y-91150000D03*
X147700000Y-91150000D03*
%TD*%
D12*
%TO.C,U4*%
X147750000Y-93000000D03*
X147100000Y-93000000D03*
X146450000Y-93000000D03*
X145800000Y-93000000D03*
X145800000Y-95500000D03*
X146450000Y-95500000D03*
X147100000Y-95500000D03*
X147750000Y-95500000D03*
%TD*%
D13*
%TO.C,R33*%
X112500000Y-87162500D03*
X112500000Y-85337500D03*
%TD*%
D14*
%TO.C,R31*%
X135587500Y-77000000D03*
X137412500Y-77000000D03*
%TD*%
%TO.C,R28*%
X135587500Y-82500000D03*
X137412500Y-82500000D03*
%TD*%
D15*
%TO.C,R25*%
X140912500Y-89000000D03*
X139087500Y-89000000D03*
%TD*%
D14*
%TO.C,R23*%
X154250000Y-82250000D03*
X156075000Y-82250000D03*
%TD*%
D15*
%TO.C,R21*%
X135937500Y-95500000D03*
X134112500Y-95500000D03*
%TD*%
D16*
%TO.C,R18*%
X122750000Y-85337500D03*
X122750000Y-87162500D03*
%TD*%
%TO.C,R17*%
X120500000Y-85337500D03*
X120500000Y-87162500D03*
%TD*%
D13*
%TO.C,R16*%
X139172873Y-109947500D03*
X139172873Y-108122500D03*
%TD*%
%TO.C,R14*%
X136972873Y-109947500D03*
X136972873Y-108122500D03*
%TD*%
D15*
%TO.C,R13*%
X152325000Y-80500000D03*
X150500000Y-80500000D03*
%TD*%
D14*
%TO.C,R12*%
X150500000Y-82250000D03*
X152325000Y-82250000D03*
%TD*%
D16*
%TO.C,R11*%
X116000000Y-85337500D03*
X116000000Y-87162500D03*
%TD*%
%TO.C,R10*%
X114250000Y-85337500D03*
X114250000Y-87162500D03*
%TD*%
D14*
%TO.C,R9*%
X116800000Y-98700000D03*
X118625000Y-98700000D03*
%TD*%
D16*
%TO.C,R8*%
X112412500Y-100487500D03*
X112412500Y-102312500D03*
%TD*%
D14*
%TO.C,R7*%
X145837500Y-83750000D03*
X147662500Y-83750000D03*
%TD*%
D16*
%TO.C,R6*%
X118250000Y-85337500D03*
X118250000Y-87162500D03*
%TD*%
D15*
%TO.C,R1*%
X141075000Y-82500000D03*
X139250000Y-82500000D03*
%TD*%
D17*
%TO.C,MH4*%
X159250000Y-108500000D03*
D18*
X159250000Y-108500000D03*
%TD*%
D17*
%TO.C,MH3*%
X112750000Y-108500000D03*
D18*
X112750000Y-108500000D03*
%TD*%
D17*
%TO.C,MH2*%
X159250000Y-77750000D03*
D18*
X159250000Y-77750000D03*
%TD*%
D17*
%TO.C,MH1*%
X112750000Y-77750000D03*
D18*
X112750000Y-77750000D03*
%TD*%
D19*
%TO.C,J4*%
X157350000Y-88975000D03*
X161150000Y-88975000D03*
X157350000Y-89775000D03*
X161150000Y-89775000D03*
X157350000Y-90575000D03*
X161150000Y-90575000D03*
X157350000Y-91375000D03*
X161150000Y-91375000D03*
X157350000Y-92175000D03*
X161150000Y-92175000D03*
X157350000Y-92975000D03*
X161150000Y-92975000D03*
X157350000Y-93775000D03*
X161150000Y-93775000D03*
X157350000Y-94575000D03*
X161150000Y-94575000D03*
X157350000Y-95375000D03*
X161150000Y-95375000D03*
X157350000Y-96175000D03*
X161150000Y-96175000D03*
X157350000Y-96975000D03*
X161150000Y-96975000D03*
X157350000Y-97775000D03*
X161150000Y-97775000D03*
D20*
X157950000Y-98675000D03*
X157950000Y-88075000D03*
%TD*%
D21*
%TO.C,J2*%
X141672873Y-110172500D03*
D22*
X141672873Y-105992500D03*
D21*
X133032873Y-110172500D03*
D22*
X133032873Y-105992500D03*
D23*
X140242873Y-106492500D03*
X134462873Y-106492500D03*
%TD*%
D24*
%TO.C,J1*%
X140000000Y-91750000D03*
X137500000Y-91750000D03*
X135000000Y-91750000D03*
D25*
X132500000Y-91750000D03*
D26*
X136250000Y-93090000D03*
%TD*%
D27*
%TO.C,FB4*%
X152287500Y-97100000D03*
X150562500Y-97100000D03*
%TD*%
%TO.C,FB1*%
X148787500Y-100719760D03*
X147062500Y-100719760D03*
%TD*%
D28*
%TO.C,D1*%
X134550000Y-88944000D03*
X131750000Y-88944000D03*
%TD*%
D29*
%TO.C,C36*%
X110750000Y-85112500D03*
X110750000Y-83387500D03*
%TD*%
D27*
%TO.C,C33*%
X135887500Y-97200000D03*
X134162500Y-97200000D03*
%TD*%
D30*
%TO.C,C32*%
X136300000Y-99100000D03*
X134225000Y-99100000D03*
%TD*%
D29*
%TO.C,C31*%
X130262500Y-101925000D03*
X130262500Y-100200000D03*
%TD*%
D31*
%TO.C,C30*%
X132162500Y-102337500D03*
X132162500Y-100262500D03*
%TD*%
D27*
%TO.C,C24*%
X147637500Y-97250000D03*
X145912500Y-97250000D03*
%TD*%
%TO.C,C19*%
X147637500Y-99000000D03*
X145912500Y-99000000D03*
%TD*%
D32*
%TO.C,C15*%
X150562500Y-100719760D03*
X152287500Y-100719760D03*
%TD*%
%TO.C,C12*%
X150562500Y-102600000D03*
X152287500Y-102600000D03*
%TD*%
%TO.C,C7*%
X150562500Y-99000000D03*
X152287500Y-99000000D03*
%TD*%
D33*
%TO.C,JP1*%
X145475000Y-86250000D03*
D34*
X148015000Y-86250000D03*
%TD*%
D35*
%TO.C,TP8*%
X117000000Y-110000000D03*
%TD*%
M02*
