%TF.GenerationSoftware,KiCad,Pcbnew,9.0.3*%
%TF.CreationDate,2025-08-10T22:23:36-07:00*%
%TF.ProjectId,PeripheralSOM,50657269-7068-4657-9261-6c534f4d2e6b,rev?*%
%TF.SameCoordinates,Original*%
%TF.FileFunction,Legend,Bot*%
%TF.FilePolarity,Positive*%
%FSLAX46Y46*%
G04 Gerber Fmt 4.6, Leading zero omitted, Abs format (unit mm)*
G04 Created by KiCad (PCBNEW 9.0.3) date 2025-08-10 22:23:36*
%MOMM*%
%LPD*%
G01*
G04 APERTURE LIST*
G04 Aperture macros list*
%AMRoundRect*
0 Rectangle with rounded corners*
0 $1 Rounding radius*
0 $2 $3 $4 $5 $6 $7 $8 $9 X,Y pos of 4 corners*
0 Add a 4 corners polygon primitive as box body*
4,1,4,$2,$3,$4,$5,$6,$7,$8,$9,$2,$3,0*
0 Add four circle primitives for the rounded corners*
1,1,$1+$1,$2,$3*
1,1,$1+$1,$4,$5*
1,1,$1+$1,$6,$7*
1,1,$1+$1,$8,$9*
0 Add four rect primitives between the rounded corners*
20,1,$1+$1,$2,$3,$4,$5,0*
20,1,$1+$1,$4,$5,$6,$7,0*
20,1,$1+$1,$6,$7,$8,$9,0*
20,1,$1+$1,$8,$9,$2,$3,0*%
G04 Aperture macros list end*
%ADD10C,0.150000*%
%ADD11C,0.508000*%
%ADD12C,0.120000*%
%ADD13C,0.200000*%
%ADD14C,0.250000*%
%ADD15C,0.100000*%
%ADD16C,1.778800*%
%ADD17RoundRect,0.237500X-0.237500X0.300000X-0.237500X-0.300000X0.237500X-0.300000X0.237500X0.300000X0*%
%ADD18R,1.200000X0.450000*%
%ADD19C,1.700000*%
%ADD20R,1.700000X1.700000*%
%ADD21RoundRect,0.237500X0.237500X-0.250000X0.237500X0.250000X-0.237500X0.250000X-0.237500X-0.250000X0*%
%ADD22RoundRect,0.175000X-0.325000X-0.175000X0.325000X-0.175000X0.325000X0.175000X-0.325000X0.175000X0*%
%ADD23RoundRect,0.237500X-0.250000X-0.237500X0.250000X-0.237500X0.250000X0.237500X-0.250000X0.237500X0*%
%ADD24C,3.600000*%
%ADD25C,6.400000*%
%ADD26RoundRect,0.237500X-0.300000X-0.237500X0.300000X-0.237500X0.300000X0.237500X-0.300000X0.237500X0*%
%ADD27RoundRect,0.237500X0.250000X0.237500X-0.250000X0.237500X-0.250000X-0.237500X0.250000X-0.237500X0*%
%ADD28C,0.650000*%
%ADD29O,1.000000X2.100000*%
%ADD30O,1.000000X1.800000*%
%ADD31RoundRect,0.237500X0.237500X-0.300000X0.237500X0.300000X-0.237500X0.300000X-0.237500X-0.300000X0*%
%ADD32RoundRect,0.250000X-0.475000X0.337500X-0.475000X-0.337500X0.475000X-0.337500X0.475000X0.337500X0*%
%ADD33R,0.850000X0.300000*%
%ADD34R,0.300000X0.850000*%
%ADD35R,2.550000X2.550000*%
%ADD36RoundRect,0.250000X-0.300000X0.300000X-0.300000X-0.300000X0.300000X-0.300000X0.300000X0.300000X0*%
%ADD37RoundRect,0.237500X-0.237500X0.250000X-0.237500X-0.250000X0.237500X-0.250000X0.237500X0.250000X0*%
%ADD38R,1.500000X0.550000*%
%ADD39C,0.850000*%
%ADD40RoundRect,0.250000X-0.337500X-0.475000X0.337500X-0.475000X0.337500X0.475000X-0.337500X0.475000X0*%
G04 APERTURE END LIST*
D10*
X134392857Y-131747080D02*
X134440476Y-131794700D01*
X134440476Y-131794700D02*
X134583333Y-131842319D01*
X134583333Y-131842319D02*
X134678571Y-131842319D01*
X134678571Y-131842319D02*
X134821428Y-131794700D01*
X134821428Y-131794700D02*
X134916666Y-131699461D01*
X134916666Y-131699461D02*
X134964285Y-131604223D01*
X134964285Y-131604223D02*
X135011904Y-131413747D01*
X135011904Y-131413747D02*
X135011904Y-131270890D01*
X135011904Y-131270890D02*
X134964285Y-131080414D01*
X134964285Y-131080414D02*
X134916666Y-130985176D01*
X134916666Y-130985176D02*
X134821428Y-130889938D01*
X134821428Y-130889938D02*
X134678571Y-130842319D01*
X134678571Y-130842319D02*
X134583333Y-130842319D01*
X134583333Y-130842319D02*
X134440476Y-130889938D01*
X134440476Y-130889938D02*
X134392857Y-130937557D01*
X133440476Y-131842319D02*
X134011904Y-131842319D01*
X133726190Y-131842319D02*
X133726190Y-130842319D01*
X133726190Y-130842319D02*
X133821428Y-130985176D01*
X133821428Y-130985176D02*
X133916666Y-131080414D01*
X133916666Y-131080414D02*
X134011904Y-131128033D01*
X132964285Y-131842319D02*
X132773809Y-131842319D01*
X132773809Y-131842319D02*
X132678571Y-131794700D01*
X132678571Y-131794700D02*
X132630952Y-131747080D01*
X132630952Y-131747080D02*
X132535714Y-131604223D01*
X132535714Y-131604223D02*
X132488095Y-131413747D01*
X132488095Y-131413747D02*
X132488095Y-131032795D01*
X132488095Y-131032795D02*
X132535714Y-130937557D01*
X132535714Y-130937557D02*
X132583333Y-130889938D01*
X132583333Y-130889938D02*
X132678571Y-130842319D01*
X132678571Y-130842319D02*
X132869047Y-130842319D01*
X132869047Y-130842319D02*
X132964285Y-130889938D01*
X132964285Y-130889938D02*
X133011904Y-130937557D01*
X133011904Y-130937557D02*
X133059523Y-131032795D01*
X133059523Y-131032795D02*
X133059523Y-131270890D01*
X133059523Y-131270890D02*
X133011904Y-131366128D01*
X133011904Y-131366128D02*
X132964285Y-131413747D01*
X132964285Y-131413747D02*
X132869047Y-131461366D01*
X132869047Y-131461366D02*
X132678571Y-131461366D01*
X132678571Y-131461366D02*
X132583333Y-131413747D01*
X132583333Y-131413747D02*
X132535714Y-131366128D01*
X132535714Y-131366128D02*
X132488095Y-131270890D01*
X134011904Y-123304819D02*
X134011904Y-124114342D01*
X134011904Y-124114342D02*
X133964285Y-124209580D01*
X133964285Y-124209580D02*
X133916666Y-124257200D01*
X133916666Y-124257200D02*
X133821428Y-124304819D01*
X133821428Y-124304819D02*
X133630952Y-124304819D01*
X133630952Y-124304819D02*
X133535714Y-124257200D01*
X133535714Y-124257200D02*
X133488095Y-124209580D01*
X133488095Y-124209580D02*
X133440476Y-124114342D01*
X133440476Y-124114342D02*
X133440476Y-123304819D01*
X132535714Y-123638152D02*
X132535714Y-124304819D01*
X132773809Y-123257200D02*
X133011904Y-123971485D01*
X133011904Y-123971485D02*
X132392857Y-123971485D01*
X136142857Y-126997080D02*
X136190476Y-127044700D01*
X136190476Y-127044700D02*
X136333333Y-127092319D01*
X136333333Y-127092319D02*
X136428571Y-127092319D01*
X136428571Y-127092319D02*
X136571428Y-127044700D01*
X136571428Y-127044700D02*
X136666666Y-126949461D01*
X136666666Y-126949461D02*
X136714285Y-126854223D01*
X136714285Y-126854223D02*
X136761904Y-126663747D01*
X136761904Y-126663747D02*
X136761904Y-126520890D01*
X136761904Y-126520890D02*
X136714285Y-126330414D01*
X136714285Y-126330414D02*
X136666666Y-126235176D01*
X136666666Y-126235176D02*
X136571428Y-126139938D01*
X136571428Y-126139938D02*
X136428571Y-126092319D01*
X136428571Y-126092319D02*
X136333333Y-126092319D01*
X136333333Y-126092319D02*
X136190476Y-126139938D01*
X136190476Y-126139938D02*
X136142857Y-126187557D01*
X135761904Y-126187557D02*
X135714285Y-126139938D01*
X135714285Y-126139938D02*
X135619047Y-126092319D01*
X135619047Y-126092319D02*
X135380952Y-126092319D01*
X135380952Y-126092319D02*
X135285714Y-126139938D01*
X135285714Y-126139938D02*
X135238095Y-126187557D01*
X135238095Y-126187557D02*
X135190476Y-126282795D01*
X135190476Y-126282795D02*
X135190476Y-126378033D01*
X135190476Y-126378033D02*
X135238095Y-126520890D01*
X135238095Y-126520890D02*
X135809523Y-127092319D01*
X135809523Y-127092319D02*
X135190476Y-127092319D01*
X134333333Y-126425652D02*
X134333333Y-127092319D01*
X134571428Y-126044700D02*
X134809523Y-126758985D01*
X134809523Y-126758985D02*
X134190476Y-126758985D01*
X91084819Y-47533333D02*
X90608628Y-47200000D01*
X91084819Y-46961905D02*
X90084819Y-46961905D01*
X90084819Y-46961905D02*
X90084819Y-47342857D01*
X90084819Y-47342857D02*
X90132438Y-47438095D01*
X90132438Y-47438095D02*
X90180057Y-47485714D01*
X90180057Y-47485714D02*
X90275295Y-47533333D01*
X90275295Y-47533333D02*
X90418152Y-47533333D01*
X90418152Y-47533333D02*
X90513390Y-47485714D01*
X90513390Y-47485714D02*
X90561009Y-47438095D01*
X90561009Y-47438095D02*
X90608628Y-47342857D01*
X90608628Y-47342857D02*
X90608628Y-46961905D01*
X90084819Y-47866667D02*
X90084819Y-48533333D01*
X90084819Y-48533333D02*
X91084819Y-48104762D01*
X164311904Y-119404819D02*
X164311904Y-120214342D01*
X164311904Y-120214342D02*
X164264285Y-120309580D01*
X164264285Y-120309580D02*
X164216666Y-120357200D01*
X164216666Y-120357200D02*
X164121428Y-120404819D01*
X164121428Y-120404819D02*
X163930952Y-120404819D01*
X163930952Y-120404819D02*
X163835714Y-120357200D01*
X163835714Y-120357200D02*
X163788095Y-120309580D01*
X163788095Y-120309580D02*
X163740476Y-120214342D01*
X163740476Y-120214342D02*
X163740476Y-119404819D01*
X162788095Y-119404819D02*
X163264285Y-119404819D01*
X163264285Y-119404819D02*
X163311904Y-119881009D01*
X163311904Y-119881009D02*
X163264285Y-119833390D01*
X163264285Y-119833390D02*
X163169047Y-119785771D01*
X163169047Y-119785771D02*
X162930952Y-119785771D01*
X162930952Y-119785771D02*
X162835714Y-119833390D01*
X162835714Y-119833390D02*
X162788095Y-119881009D01*
X162788095Y-119881009D02*
X162740476Y-119976247D01*
X162740476Y-119976247D02*
X162740476Y-120214342D01*
X162740476Y-120214342D02*
X162788095Y-120309580D01*
X162788095Y-120309580D02*
X162835714Y-120357200D01*
X162835714Y-120357200D02*
X162930952Y-120404819D01*
X162930952Y-120404819D02*
X163169047Y-120404819D01*
X163169047Y-120404819D02*
X163264285Y-120357200D01*
X163264285Y-120357200D02*
X163311904Y-120309580D01*
X139766857Y-78734819D02*
X140100190Y-78258628D01*
X140338285Y-78734819D02*
X140338285Y-77734819D01*
X140338285Y-77734819D02*
X139957333Y-77734819D01*
X139957333Y-77734819D02*
X139862095Y-77782438D01*
X139862095Y-77782438D02*
X139814476Y-77830057D01*
X139814476Y-77830057D02*
X139766857Y-77925295D01*
X139766857Y-77925295D02*
X139766857Y-78068152D01*
X139766857Y-78068152D02*
X139814476Y-78163390D01*
X139814476Y-78163390D02*
X139862095Y-78211009D01*
X139862095Y-78211009D02*
X139957333Y-78258628D01*
X139957333Y-78258628D02*
X140338285Y-78258628D01*
X139433523Y-77734819D02*
X138814476Y-77734819D01*
X138814476Y-77734819D02*
X139147809Y-78115771D01*
X139147809Y-78115771D02*
X139004952Y-78115771D01*
X139004952Y-78115771D02*
X138909714Y-78163390D01*
X138909714Y-78163390D02*
X138862095Y-78211009D01*
X138862095Y-78211009D02*
X138814476Y-78306247D01*
X138814476Y-78306247D02*
X138814476Y-78544342D01*
X138814476Y-78544342D02*
X138862095Y-78639580D01*
X138862095Y-78639580D02*
X138909714Y-78687200D01*
X138909714Y-78687200D02*
X139004952Y-78734819D01*
X139004952Y-78734819D02*
X139290666Y-78734819D01*
X139290666Y-78734819D02*
X139385904Y-78687200D01*
X139385904Y-78687200D02*
X139433523Y-78639580D01*
X138195428Y-77734819D02*
X138100190Y-77734819D01*
X138100190Y-77734819D02*
X138004952Y-77782438D01*
X138004952Y-77782438D02*
X137957333Y-77830057D01*
X137957333Y-77830057D02*
X137909714Y-77925295D01*
X137909714Y-77925295D02*
X137862095Y-78115771D01*
X137862095Y-78115771D02*
X137862095Y-78353866D01*
X137862095Y-78353866D02*
X137909714Y-78544342D01*
X137909714Y-78544342D02*
X137957333Y-78639580D01*
X137957333Y-78639580D02*
X138004952Y-78687200D01*
X138004952Y-78687200D02*
X138100190Y-78734819D01*
X138100190Y-78734819D02*
X138195428Y-78734819D01*
X138195428Y-78734819D02*
X138290666Y-78687200D01*
X138290666Y-78687200D02*
X138338285Y-78639580D01*
X138338285Y-78639580D02*
X138385904Y-78544342D01*
X138385904Y-78544342D02*
X138433523Y-78353866D01*
X138433523Y-78353866D02*
X138433523Y-78115771D01*
X138433523Y-78115771D02*
X138385904Y-77925295D01*
X138385904Y-77925295D02*
X138338285Y-77830057D01*
X138338285Y-77830057D02*
X138290666Y-77782438D01*
X138290666Y-77782438D02*
X138195428Y-77734819D01*
X136766857Y-80709580D02*
X136814476Y-80757200D01*
X136814476Y-80757200D02*
X136957333Y-80804819D01*
X136957333Y-80804819D02*
X137052571Y-80804819D01*
X137052571Y-80804819D02*
X137195428Y-80757200D01*
X137195428Y-80757200D02*
X137290666Y-80661961D01*
X137290666Y-80661961D02*
X137338285Y-80566723D01*
X137338285Y-80566723D02*
X137385904Y-80376247D01*
X137385904Y-80376247D02*
X137385904Y-80233390D01*
X137385904Y-80233390D02*
X137338285Y-80042914D01*
X137338285Y-80042914D02*
X137290666Y-79947676D01*
X137290666Y-79947676D02*
X137195428Y-79852438D01*
X137195428Y-79852438D02*
X137052571Y-79804819D01*
X137052571Y-79804819D02*
X136957333Y-79804819D01*
X136957333Y-79804819D02*
X136814476Y-79852438D01*
X136814476Y-79852438D02*
X136766857Y-79900057D01*
X136385904Y-79900057D02*
X136338285Y-79852438D01*
X136338285Y-79852438D02*
X136243047Y-79804819D01*
X136243047Y-79804819D02*
X136004952Y-79804819D01*
X136004952Y-79804819D02*
X135909714Y-79852438D01*
X135909714Y-79852438D02*
X135862095Y-79900057D01*
X135862095Y-79900057D02*
X135814476Y-79995295D01*
X135814476Y-79995295D02*
X135814476Y-80090533D01*
X135814476Y-80090533D02*
X135862095Y-80233390D01*
X135862095Y-80233390D02*
X136433523Y-80804819D01*
X136433523Y-80804819D02*
X135814476Y-80804819D01*
X134909714Y-79804819D02*
X135385904Y-79804819D01*
X135385904Y-79804819D02*
X135433523Y-80281009D01*
X135433523Y-80281009D02*
X135385904Y-80233390D01*
X135385904Y-80233390D02*
X135290666Y-80185771D01*
X135290666Y-80185771D02*
X135052571Y-80185771D01*
X135052571Y-80185771D02*
X134957333Y-80233390D01*
X134957333Y-80233390D02*
X134909714Y-80281009D01*
X134909714Y-80281009D02*
X134862095Y-80376247D01*
X134862095Y-80376247D02*
X134862095Y-80614342D01*
X134862095Y-80614342D02*
X134909714Y-80709580D01*
X134909714Y-80709580D02*
X134957333Y-80757200D01*
X134957333Y-80757200D02*
X135052571Y-80804819D01*
X135052571Y-80804819D02*
X135290666Y-80804819D01*
X135290666Y-80804819D02*
X135385904Y-80757200D01*
X135385904Y-80757200D02*
X135433523Y-80709580D01*
X154016857Y-80804819D02*
X154350190Y-80328628D01*
X154588285Y-80804819D02*
X154588285Y-79804819D01*
X154588285Y-79804819D02*
X154207333Y-79804819D01*
X154207333Y-79804819D02*
X154112095Y-79852438D01*
X154112095Y-79852438D02*
X154064476Y-79900057D01*
X154064476Y-79900057D02*
X154016857Y-79995295D01*
X154016857Y-79995295D02*
X154016857Y-80138152D01*
X154016857Y-80138152D02*
X154064476Y-80233390D01*
X154064476Y-80233390D02*
X154112095Y-80281009D01*
X154112095Y-80281009D02*
X154207333Y-80328628D01*
X154207333Y-80328628D02*
X154588285Y-80328628D01*
X153064476Y-80804819D02*
X153635904Y-80804819D01*
X153350190Y-80804819D02*
X153350190Y-79804819D01*
X153350190Y-79804819D02*
X153445428Y-79947676D01*
X153445428Y-79947676D02*
X153540666Y-80042914D01*
X153540666Y-80042914D02*
X153635904Y-80090533D01*
X152731142Y-79804819D02*
X152112095Y-79804819D01*
X152112095Y-79804819D02*
X152445428Y-80185771D01*
X152445428Y-80185771D02*
X152302571Y-80185771D01*
X152302571Y-80185771D02*
X152207333Y-80233390D01*
X152207333Y-80233390D02*
X152159714Y-80281009D01*
X152159714Y-80281009D02*
X152112095Y-80376247D01*
X152112095Y-80376247D02*
X152112095Y-80614342D01*
X152112095Y-80614342D02*
X152159714Y-80709580D01*
X152159714Y-80709580D02*
X152207333Y-80757200D01*
X152207333Y-80757200D02*
X152302571Y-80804819D01*
X152302571Y-80804819D02*
X152588285Y-80804819D01*
X152588285Y-80804819D02*
X152683523Y-80757200D01*
X152683523Y-80757200D02*
X152731142Y-80709580D01*
X151016857Y-83804819D02*
X151350190Y-83328628D01*
X151588285Y-83804819D02*
X151588285Y-82804819D01*
X151588285Y-82804819D02*
X151207333Y-82804819D01*
X151207333Y-82804819D02*
X151112095Y-82852438D01*
X151112095Y-82852438D02*
X151064476Y-82900057D01*
X151064476Y-82900057D02*
X151016857Y-82995295D01*
X151016857Y-82995295D02*
X151016857Y-83138152D01*
X151016857Y-83138152D02*
X151064476Y-83233390D01*
X151064476Y-83233390D02*
X151112095Y-83281009D01*
X151112095Y-83281009D02*
X151207333Y-83328628D01*
X151207333Y-83328628D02*
X151588285Y-83328628D01*
X150064476Y-83804819D02*
X150635904Y-83804819D01*
X150350190Y-83804819D02*
X150350190Y-82804819D01*
X150350190Y-82804819D02*
X150445428Y-82947676D01*
X150445428Y-82947676D02*
X150540666Y-83042914D01*
X150540666Y-83042914D02*
X150635904Y-83090533D01*
X149683523Y-82900057D02*
X149635904Y-82852438D01*
X149635904Y-82852438D02*
X149540666Y-82804819D01*
X149540666Y-82804819D02*
X149302571Y-82804819D01*
X149302571Y-82804819D02*
X149207333Y-82852438D01*
X149207333Y-82852438D02*
X149159714Y-82900057D01*
X149159714Y-82900057D02*
X149112095Y-82995295D01*
X149112095Y-82995295D02*
X149112095Y-83090533D01*
X149112095Y-83090533D02*
X149159714Y-83233390D01*
X149159714Y-83233390D02*
X149731142Y-83804819D01*
X149731142Y-83804819D02*
X149112095Y-83804819D01*
X154766857Y-83804819D02*
X155100190Y-83328628D01*
X155338285Y-83804819D02*
X155338285Y-82804819D01*
X155338285Y-82804819D02*
X154957333Y-82804819D01*
X154957333Y-82804819D02*
X154862095Y-82852438D01*
X154862095Y-82852438D02*
X154814476Y-82900057D01*
X154814476Y-82900057D02*
X154766857Y-82995295D01*
X154766857Y-82995295D02*
X154766857Y-83138152D01*
X154766857Y-83138152D02*
X154814476Y-83233390D01*
X154814476Y-83233390D02*
X154862095Y-83281009D01*
X154862095Y-83281009D02*
X154957333Y-83328628D01*
X154957333Y-83328628D02*
X155338285Y-83328628D01*
X154385904Y-82900057D02*
X154338285Y-82852438D01*
X154338285Y-82852438D02*
X154243047Y-82804819D01*
X154243047Y-82804819D02*
X154004952Y-82804819D01*
X154004952Y-82804819D02*
X153909714Y-82852438D01*
X153909714Y-82852438D02*
X153862095Y-82900057D01*
X153862095Y-82900057D02*
X153814476Y-82995295D01*
X153814476Y-82995295D02*
X153814476Y-83090533D01*
X153814476Y-83090533D02*
X153862095Y-83233390D01*
X153862095Y-83233390D02*
X154433523Y-83804819D01*
X154433523Y-83804819D02*
X153814476Y-83804819D01*
X153481142Y-82804819D02*
X152862095Y-82804819D01*
X152862095Y-82804819D02*
X153195428Y-83185771D01*
X153195428Y-83185771D02*
X153052571Y-83185771D01*
X153052571Y-83185771D02*
X152957333Y-83233390D01*
X152957333Y-83233390D02*
X152909714Y-83281009D01*
X152909714Y-83281009D02*
X152862095Y-83376247D01*
X152862095Y-83376247D02*
X152862095Y-83614342D01*
X152862095Y-83614342D02*
X152909714Y-83709580D01*
X152909714Y-83709580D02*
X152957333Y-83757200D01*
X152957333Y-83757200D02*
X153052571Y-83804819D01*
X153052571Y-83804819D02*
X153338285Y-83804819D01*
X153338285Y-83804819D02*
X153433523Y-83757200D01*
X153433523Y-83757200D02*
X153481142Y-83709580D01*
X139766857Y-80484819D02*
X140100190Y-80008628D01*
X140338285Y-80484819D02*
X140338285Y-79484819D01*
X140338285Y-79484819D02*
X139957333Y-79484819D01*
X139957333Y-79484819D02*
X139862095Y-79532438D01*
X139862095Y-79532438D02*
X139814476Y-79580057D01*
X139814476Y-79580057D02*
X139766857Y-79675295D01*
X139766857Y-79675295D02*
X139766857Y-79818152D01*
X139766857Y-79818152D02*
X139814476Y-79913390D01*
X139814476Y-79913390D02*
X139862095Y-79961009D01*
X139862095Y-79961009D02*
X139957333Y-80008628D01*
X139957333Y-80008628D02*
X140338285Y-80008628D01*
X139385904Y-79580057D02*
X139338285Y-79532438D01*
X139338285Y-79532438D02*
X139243047Y-79484819D01*
X139243047Y-79484819D02*
X139004952Y-79484819D01*
X139004952Y-79484819D02*
X138909714Y-79532438D01*
X138909714Y-79532438D02*
X138862095Y-79580057D01*
X138862095Y-79580057D02*
X138814476Y-79675295D01*
X138814476Y-79675295D02*
X138814476Y-79770533D01*
X138814476Y-79770533D02*
X138862095Y-79913390D01*
X138862095Y-79913390D02*
X139433523Y-80484819D01*
X139433523Y-80484819D02*
X138814476Y-80484819D01*
X138481142Y-79484819D02*
X137814476Y-79484819D01*
X137814476Y-79484819D02*
X138243047Y-80484819D01*
X154016857Y-77304819D02*
X154350190Y-76828628D01*
X154588285Y-77304819D02*
X154588285Y-76304819D01*
X154588285Y-76304819D02*
X154207333Y-76304819D01*
X154207333Y-76304819D02*
X154112095Y-76352438D01*
X154112095Y-76352438D02*
X154064476Y-76400057D01*
X154064476Y-76400057D02*
X154016857Y-76495295D01*
X154016857Y-76495295D02*
X154016857Y-76638152D01*
X154016857Y-76638152D02*
X154064476Y-76733390D01*
X154064476Y-76733390D02*
X154112095Y-76781009D01*
X154112095Y-76781009D02*
X154207333Y-76828628D01*
X154207333Y-76828628D02*
X154588285Y-76828628D01*
X153635904Y-76400057D02*
X153588285Y-76352438D01*
X153588285Y-76352438D02*
X153493047Y-76304819D01*
X153493047Y-76304819D02*
X153254952Y-76304819D01*
X153254952Y-76304819D02*
X153159714Y-76352438D01*
X153159714Y-76352438D02*
X153112095Y-76400057D01*
X153112095Y-76400057D02*
X153064476Y-76495295D01*
X153064476Y-76495295D02*
X153064476Y-76590533D01*
X153064476Y-76590533D02*
X153112095Y-76733390D01*
X153112095Y-76733390D02*
X153683523Y-77304819D01*
X153683523Y-77304819D02*
X153064476Y-77304819D01*
X152445428Y-76304819D02*
X152350190Y-76304819D01*
X152350190Y-76304819D02*
X152254952Y-76352438D01*
X152254952Y-76352438D02*
X152207333Y-76400057D01*
X152207333Y-76400057D02*
X152159714Y-76495295D01*
X152159714Y-76495295D02*
X152112095Y-76685771D01*
X152112095Y-76685771D02*
X152112095Y-76923866D01*
X152112095Y-76923866D02*
X152159714Y-77114342D01*
X152159714Y-77114342D02*
X152207333Y-77209580D01*
X152207333Y-77209580D02*
X152254952Y-77257200D01*
X152254952Y-77257200D02*
X152350190Y-77304819D01*
X152350190Y-77304819D02*
X152445428Y-77304819D01*
X152445428Y-77304819D02*
X152540666Y-77257200D01*
X152540666Y-77257200D02*
X152588285Y-77209580D01*
X152588285Y-77209580D02*
X152635904Y-77114342D01*
X152635904Y-77114342D02*
X152683523Y-76923866D01*
X152683523Y-76923866D02*
X152683523Y-76685771D01*
X152683523Y-76685771D02*
X152635904Y-76495295D01*
X152635904Y-76495295D02*
X152588285Y-76400057D01*
X152588285Y-76400057D02*
X152540666Y-76352438D01*
X152540666Y-76352438D02*
X152445428Y-76304819D01*
X154016857Y-79054819D02*
X154350190Y-78578628D01*
X154588285Y-79054819D02*
X154588285Y-78054819D01*
X154588285Y-78054819D02*
X154207333Y-78054819D01*
X154207333Y-78054819D02*
X154112095Y-78102438D01*
X154112095Y-78102438D02*
X154064476Y-78150057D01*
X154064476Y-78150057D02*
X154016857Y-78245295D01*
X154016857Y-78245295D02*
X154016857Y-78388152D01*
X154016857Y-78388152D02*
X154064476Y-78483390D01*
X154064476Y-78483390D02*
X154112095Y-78531009D01*
X154112095Y-78531009D02*
X154207333Y-78578628D01*
X154207333Y-78578628D02*
X154588285Y-78578628D01*
X153064476Y-79054819D02*
X153635904Y-79054819D01*
X153350190Y-79054819D02*
X153350190Y-78054819D01*
X153350190Y-78054819D02*
X153445428Y-78197676D01*
X153445428Y-78197676D02*
X153540666Y-78292914D01*
X153540666Y-78292914D02*
X153635904Y-78340533D01*
X152159714Y-78054819D02*
X152635904Y-78054819D01*
X152635904Y-78054819D02*
X152683523Y-78531009D01*
X152683523Y-78531009D02*
X152635904Y-78483390D01*
X152635904Y-78483390D02*
X152540666Y-78435771D01*
X152540666Y-78435771D02*
X152302571Y-78435771D01*
X152302571Y-78435771D02*
X152207333Y-78483390D01*
X152207333Y-78483390D02*
X152159714Y-78531009D01*
X152159714Y-78531009D02*
X152112095Y-78626247D01*
X152112095Y-78626247D02*
X152112095Y-78864342D01*
X152112095Y-78864342D02*
X152159714Y-78959580D01*
X152159714Y-78959580D02*
X152207333Y-79007200D01*
X152207333Y-79007200D02*
X152302571Y-79054819D01*
X152302571Y-79054819D02*
X152540666Y-79054819D01*
X152540666Y-79054819D02*
X152635904Y-79007200D01*
X152635904Y-79007200D02*
X152683523Y-78959580D01*
X132209580Y-109257142D02*
X132257200Y-109209523D01*
X132257200Y-109209523D02*
X132304819Y-109066666D01*
X132304819Y-109066666D02*
X132304819Y-108971428D01*
X132304819Y-108971428D02*
X132257200Y-108828571D01*
X132257200Y-108828571D02*
X132161961Y-108733333D01*
X132161961Y-108733333D02*
X132066723Y-108685714D01*
X132066723Y-108685714D02*
X131876247Y-108638095D01*
X131876247Y-108638095D02*
X131733390Y-108638095D01*
X131733390Y-108638095D02*
X131542914Y-108685714D01*
X131542914Y-108685714D02*
X131447676Y-108733333D01*
X131447676Y-108733333D02*
X131352438Y-108828571D01*
X131352438Y-108828571D02*
X131304819Y-108971428D01*
X131304819Y-108971428D02*
X131304819Y-109066666D01*
X131304819Y-109066666D02*
X131352438Y-109209523D01*
X131352438Y-109209523D02*
X131400057Y-109257142D01*
X132304819Y-110209523D02*
X132304819Y-109638095D01*
X132304819Y-109923809D02*
X131304819Y-109923809D01*
X131304819Y-109923809D02*
X131447676Y-109828571D01*
X131447676Y-109828571D02*
X131542914Y-109733333D01*
X131542914Y-109733333D02*
X131590533Y-109638095D01*
X131400057Y-110590476D02*
X131352438Y-110638095D01*
X131352438Y-110638095D02*
X131304819Y-110733333D01*
X131304819Y-110733333D02*
X131304819Y-110971428D01*
X131304819Y-110971428D02*
X131352438Y-111066666D01*
X131352438Y-111066666D02*
X131400057Y-111114285D01*
X131400057Y-111114285D02*
X131495295Y-111161904D01*
X131495295Y-111161904D02*
X131590533Y-111161904D01*
X131590533Y-111161904D02*
X131733390Y-111114285D01*
X131733390Y-111114285D02*
X132304819Y-110542857D01*
X132304819Y-110542857D02*
X132304819Y-111161904D01*
X113859580Y-88894642D02*
X113907200Y-88847023D01*
X113907200Y-88847023D02*
X113954819Y-88704166D01*
X113954819Y-88704166D02*
X113954819Y-88608928D01*
X113954819Y-88608928D02*
X113907200Y-88466071D01*
X113907200Y-88466071D02*
X113811961Y-88370833D01*
X113811961Y-88370833D02*
X113716723Y-88323214D01*
X113716723Y-88323214D02*
X113526247Y-88275595D01*
X113526247Y-88275595D02*
X113383390Y-88275595D01*
X113383390Y-88275595D02*
X113192914Y-88323214D01*
X113192914Y-88323214D02*
X113097676Y-88370833D01*
X113097676Y-88370833D02*
X113002438Y-88466071D01*
X113002438Y-88466071D02*
X112954819Y-88608928D01*
X112954819Y-88608928D02*
X112954819Y-88704166D01*
X112954819Y-88704166D02*
X113002438Y-88847023D01*
X113002438Y-88847023D02*
X113050057Y-88894642D01*
X112954819Y-89227976D02*
X112954819Y-89847023D01*
X112954819Y-89847023D02*
X113335771Y-89513690D01*
X113335771Y-89513690D02*
X113335771Y-89656547D01*
X113335771Y-89656547D02*
X113383390Y-89751785D01*
X113383390Y-89751785D02*
X113431009Y-89799404D01*
X113431009Y-89799404D02*
X113526247Y-89847023D01*
X113526247Y-89847023D02*
X113764342Y-89847023D01*
X113764342Y-89847023D02*
X113859580Y-89799404D01*
X113859580Y-89799404D02*
X113907200Y-89751785D01*
X113907200Y-89751785D02*
X113954819Y-89656547D01*
X113954819Y-89656547D02*
X113954819Y-89370833D01*
X113954819Y-89370833D02*
X113907200Y-89275595D01*
X113907200Y-89275595D02*
X113859580Y-89227976D01*
X113050057Y-90227976D02*
X113002438Y-90275595D01*
X113002438Y-90275595D02*
X112954819Y-90370833D01*
X112954819Y-90370833D02*
X112954819Y-90608928D01*
X112954819Y-90608928D02*
X113002438Y-90704166D01*
X113002438Y-90704166D02*
X113050057Y-90751785D01*
X113050057Y-90751785D02*
X113145295Y-90799404D01*
X113145295Y-90799404D02*
X113240533Y-90799404D01*
X113240533Y-90799404D02*
X113383390Y-90751785D01*
X113383390Y-90751785D02*
X113954819Y-90180357D01*
X113954819Y-90180357D02*
X113954819Y-90799404D01*
X111454819Y-81988095D02*
X112264342Y-81988095D01*
X112264342Y-81988095D02*
X112359580Y-82035714D01*
X112359580Y-82035714D02*
X112407200Y-82083333D01*
X112407200Y-82083333D02*
X112454819Y-82178571D01*
X112454819Y-82178571D02*
X112454819Y-82369047D01*
X112454819Y-82369047D02*
X112407200Y-82464285D01*
X112407200Y-82464285D02*
X112359580Y-82511904D01*
X112359580Y-82511904D02*
X112264342Y-82559523D01*
X112264342Y-82559523D02*
X111454819Y-82559523D01*
X111883390Y-83178571D02*
X111835771Y-83083333D01*
X111835771Y-83083333D02*
X111788152Y-83035714D01*
X111788152Y-83035714D02*
X111692914Y-82988095D01*
X111692914Y-82988095D02*
X111645295Y-82988095D01*
X111645295Y-82988095D02*
X111550057Y-83035714D01*
X111550057Y-83035714D02*
X111502438Y-83083333D01*
X111502438Y-83083333D02*
X111454819Y-83178571D01*
X111454819Y-83178571D02*
X111454819Y-83369047D01*
X111454819Y-83369047D02*
X111502438Y-83464285D01*
X111502438Y-83464285D02*
X111550057Y-83511904D01*
X111550057Y-83511904D02*
X111645295Y-83559523D01*
X111645295Y-83559523D02*
X111692914Y-83559523D01*
X111692914Y-83559523D02*
X111788152Y-83511904D01*
X111788152Y-83511904D02*
X111835771Y-83464285D01*
X111835771Y-83464285D02*
X111883390Y-83369047D01*
X111883390Y-83369047D02*
X111883390Y-83178571D01*
X111883390Y-83178571D02*
X111931009Y-83083333D01*
X111931009Y-83083333D02*
X111978628Y-83035714D01*
X111978628Y-83035714D02*
X112073866Y-82988095D01*
X112073866Y-82988095D02*
X112264342Y-82988095D01*
X112264342Y-82988095D02*
X112359580Y-83035714D01*
X112359580Y-83035714D02*
X112407200Y-83083333D01*
X112407200Y-83083333D02*
X112454819Y-83178571D01*
X112454819Y-83178571D02*
X112454819Y-83369047D01*
X112454819Y-83369047D02*
X112407200Y-83464285D01*
X112407200Y-83464285D02*
X112359580Y-83511904D01*
X112359580Y-83511904D02*
X112264342Y-83559523D01*
X112264342Y-83559523D02*
X112073866Y-83559523D01*
X112073866Y-83559523D02*
X111978628Y-83511904D01*
X111978628Y-83511904D02*
X111931009Y-83464285D01*
X111931009Y-83464285D02*
X111883390Y-83369047D01*
X132924580Y-58357142D02*
X132972200Y-58309523D01*
X132972200Y-58309523D02*
X133019819Y-58166666D01*
X133019819Y-58166666D02*
X133019819Y-58071428D01*
X133019819Y-58071428D02*
X132972200Y-57928571D01*
X132972200Y-57928571D02*
X132876961Y-57833333D01*
X132876961Y-57833333D02*
X132781723Y-57785714D01*
X132781723Y-57785714D02*
X132591247Y-57738095D01*
X132591247Y-57738095D02*
X132448390Y-57738095D01*
X132448390Y-57738095D02*
X132257914Y-57785714D01*
X132257914Y-57785714D02*
X132162676Y-57833333D01*
X132162676Y-57833333D02*
X132067438Y-57928571D01*
X132067438Y-57928571D02*
X132019819Y-58071428D01*
X132019819Y-58071428D02*
X132019819Y-58166666D01*
X132019819Y-58166666D02*
X132067438Y-58309523D01*
X132067438Y-58309523D02*
X132115057Y-58357142D01*
X133019819Y-59309523D02*
X133019819Y-58738095D01*
X133019819Y-59023809D02*
X132019819Y-59023809D01*
X132019819Y-59023809D02*
X132162676Y-58928571D01*
X132162676Y-58928571D02*
X132257914Y-58833333D01*
X132257914Y-58833333D02*
X132305533Y-58738095D01*
X133019819Y-60261904D02*
X133019819Y-59690476D01*
X133019819Y-59976190D02*
X132019819Y-59976190D01*
X132019819Y-59976190D02*
X132162676Y-59880952D01*
X132162676Y-59880952D02*
X132257914Y-59785714D01*
X132257914Y-59785714D02*
X132305533Y-59690476D01*
X118392857Y-92167080D02*
X118440476Y-92214700D01*
X118440476Y-92214700D02*
X118583333Y-92262319D01*
X118583333Y-92262319D02*
X118678571Y-92262319D01*
X118678571Y-92262319D02*
X118821428Y-92214700D01*
X118821428Y-92214700D02*
X118916666Y-92119461D01*
X118916666Y-92119461D02*
X118964285Y-92024223D01*
X118964285Y-92024223D02*
X119011904Y-91833747D01*
X119011904Y-91833747D02*
X119011904Y-91690890D01*
X119011904Y-91690890D02*
X118964285Y-91500414D01*
X118964285Y-91500414D02*
X118916666Y-91405176D01*
X118916666Y-91405176D02*
X118821428Y-91309938D01*
X118821428Y-91309938D02*
X118678571Y-91262319D01*
X118678571Y-91262319D02*
X118583333Y-91262319D01*
X118583333Y-91262319D02*
X118440476Y-91309938D01*
X118440476Y-91309938D02*
X118392857Y-91357557D01*
X118059523Y-91262319D02*
X117440476Y-91262319D01*
X117440476Y-91262319D02*
X117773809Y-91643271D01*
X117773809Y-91643271D02*
X117630952Y-91643271D01*
X117630952Y-91643271D02*
X117535714Y-91690890D01*
X117535714Y-91690890D02*
X117488095Y-91738509D01*
X117488095Y-91738509D02*
X117440476Y-91833747D01*
X117440476Y-91833747D02*
X117440476Y-92071842D01*
X117440476Y-92071842D02*
X117488095Y-92167080D01*
X117488095Y-92167080D02*
X117535714Y-92214700D01*
X117535714Y-92214700D02*
X117630952Y-92262319D01*
X117630952Y-92262319D02*
X117916666Y-92262319D01*
X117916666Y-92262319D02*
X118011904Y-92214700D01*
X118011904Y-92214700D02*
X118059523Y-92167080D01*
X117107142Y-91262319D02*
X116488095Y-91262319D01*
X116488095Y-91262319D02*
X116821428Y-91643271D01*
X116821428Y-91643271D02*
X116678571Y-91643271D01*
X116678571Y-91643271D02*
X116583333Y-91690890D01*
X116583333Y-91690890D02*
X116535714Y-91738509D01*
X116535714Y-91738509D02*
X116488095Y-91833747D01*
X116488095Y-91833747D02*
X116488095Y-92071842D01*
X116488095Y-92071842D02*
X116535714Y-92167080D01*
X116535714Y-92167080D02*
X116583333Y-92214700D01*
X116583333Y-92214700D02*
X116678571Y-92262319D01*
X116678571Y-92262319D02*
X116964285Y-92262319D01*
X116964285Y-92262319D02*
X117059523Y-92214700D01*
X117059523Y-92214700D02*
X117107142Y-92167080D01*
X129642857Y-78704819D02*
X129976190Y-78228628D01*
X130214285Y-78704819D02*
X130214285Y-77704819D01*
X130214285Y-77704819D02*
X129833333Y-77704819D01*
X129833333Y-77704819D02*
X129738095Y-77752438D01*
X129738095Y-77752438D02*
X129690476Y-77800057D01*
X129690476Y-77800057D02*
X129642857Y-77895295D01*
X129642857Y-77895295D02*
X129642857Y-78038152D01*
X129642857Y-78038152D02*
X129690476Y-78133390D01*
X129690476Y-78133390D02*
X129738095Y-78181009D01*
X129738095Y-78181009D02*
X129833333Y-78228628D01*
X129833333Y-78228628D02*
X130214285Y-78228628D01*
X128690476Y-78704819D02*
X129261904Y-78704819D01*
X128976190Y-78704819D02*
X128976190Y-77704819D01*
X128976190Y-77704819D02*
X129071428Y-77847676D01*
X129071428Y-77847676D02*
X129166666Y-77942914D01*
X129166666Y-77942914D02*
X129261904Y-77990533D01*
X127833333Y-78038152D02*
X127833333Y-78704819D01*
X128071428Y-77657200D02*
X128309523Y-78371485D01*
X128309523Y-78371485D02*
X127690476Y-78371485D01*
X115192857Y-117574819D02*
X115526190Y-117098628D01*
X115764285Y-117574819D02*
X115764285Y-116574819D01*
X115764285Y-116574819D02*
X115383333Y-116574819D01*
X115383333Y-116574819D02*
X115288095Y-116622438D01*
X115288095Y-116622438D02*
X115240476Y-116670057D01*
X115240476Y-116670057D02*
X115192857Y-116765295D01*
X115192857Y-116765295D02*
X115192857Y-116908152D01*
X115192857Y-116908152D02*
X115240476Y-117003390D01*
X115240476Y-117003390D02*
X115288095Y-117051009D01*
X115288095Y-117051009D02*
X115383333Y-117098628D01*
X115383333Y-117098628D02*
X115764285Y-117098628D01*
X114240476Y-117574819D02*
X114811904Y-117574819D01*
X114526190Y-117574819D02*
X114526190Y-116574819D01*
X114526190Y-116574819D02*
X114621428Y-116717676D01*
X114621428Y-116717676D02*
X114716666Y-116812914D01*
X114716666Y-116812914D02*
X114811904Y-116860533D01*
X113764285Y-117574819D02*
X113573809Y-117574819D01*
X113573809Y-117574819D02*
X113478571Y-117527200D01*
X113478571Y-117527200D02*
X113430952Y-117479580D01*
X113430952Y-117479580D02*
X113335714Y-117336723D01*
X113335714Y-117336723D02*
X113288095Y-117146247D01*
X113288095Y-117146247D02*
X113288095Y-116765295D01*
X113288095Y-116765295D02*
X113335714Y-116670057D01*
X113335714Y-116670057D02*
X113383333Y-116622438D01*
X113383333Y-116622438D02*
X113478571Y-116574819D01*
X113478571Y-116574819D02*
X113669047Y-116574819D01*
X113669047Y-116574819D02*
X113764285Y-116622438D01*
X113764285Y-116622438D02*
X113811904Y-116670057D01*
X113811904Y-116670057D02*
X113859523Y-116765295D01*
X113859523Y-116765295D02*
X113859523Y-117003390D01*
X113859523Y-117003390D02*
X113811904Y-117098628D01*
X113811904Y-117098628D02*
X113764285Y-117146247D01*
X113764285Y-117146247D02*
X113669047Y-117193866D01*
X113669047Y-117193866D02*
X113478571Y-117193866D01*
X113478571Y-117193866D02*
X113383333Y-117146247D01*
X113383333Y-117146247D02*
X113335714Y-117098628D01*
X113335714Y-117098628D02*
X113288095Y-117003390D01*
X130031009Y-99566666D02*
X130031009Y-99233333D01*
X130554819Y-99233333D02*
X129554819Y-99233333D01*
X129554819Y-99233333D02*
X129554819Y-99709523D01*
X130031009Y-100423809D02*
X130078628Y-100566666D01*
X130078628Y-100566666D02*
X130126247Y-100614285D01*
X130126247Y-100614285D02*
X130221485Y-100661904D01*
X130221485Y-100661904D02*
X130364342Y-100661904D01*
X130364342Y-100661904D02*
X130459580Y-100614285D01*
X130459580Y-100614285D02*
X130507200Y-100566666D01*
X130507200Y-100566666D02*
X130554819Y-100471428D01*
X130554819Y-100471428D02*
X130554819Y-100090476D01*
X130554819Y-100090476D02*
X129554819Y-100090476D01*
X129554819Y-100090476D02*
X129554819Y-100423809D01*
X129554819Y-100423809D02*
X129602438Y-100519047D01*
X129602438Y-100519047D02*
X129650057Y-100566666D01*
X129650057Y-100566666D02*
X129745295Y-100614285D01*
X129745295Y-100614285D02*
X129840533Y-100614285D01*
X129840533Y-100614285D02*
X129935771Y-100566666D01*
X129935771Y-100566666D02*
X129983390Y-100519047D01*
X129983390Y-100519047D02*
X130031009Y-100423809D01*
X130031009Y-100423809D02*
X130031009Y-100090476D01*
X130554819Y-101614285D02*
X130554819Y-101042857D01*
X130554819Y-101328571D02*
X129554819Y-101328571D01*
X129554819Y-101328571D02*
X129697676Y-101233333D01*
X129697676Y-101233333D02*
X129792914Y-101138095D01*
X129792914Y-101138095D02*
X129840533Y-101042857D01*
X130459580Y-109257142D02*
X130507200Y-109209523D01*
X130507200Y-109209523D02*
X130554819Y-109066666D01*
X130554819Y-109066666D02*
X130554819Y-108971428D01*
X130554819Y-108971428D02*
X130507200Y-108828571D01*
X130507200Y-108828571D02*
X130411961Y-108733333D01*
X130411961Y-108733333D02*
X130316723Y-108685714D01*
X130316723Y-108685714D02*
X130126247Y-108638095D01*
X130126247Y-108638095D02*
X129983390Y-108638095D01*
X129983390Y-108638095D02*
X129792914Y-108685714D01*
X129792914Y-108685714D02*
X129697676Y-108733333D01*
X129697676Y-108733333D02*
X129602438Y-108828571D01*
X129602438Y-108828571D02*
X129554819Y-108971428D01*
X129554819Y-108971428D02*
X129554819Y-109066666D01*
X129554819Y-109066666D02*
X129602438Y-109209523D01*
X129602438Y-109209523D02*
X129650057Y-109257142D01*
X130554819Y-110209523D02*
X130554819Y-109638095D01*
X130554819Y-109923809D02*
X129554819Y-109923809D01*
X129554819Y-109923809D02*
X129697676Y-109828571D01*
X129697676Y-109828571D02*
X129792914Y-109733333D01*
X129792914Y-109733333D02*
X129840533Y-109638095D01*
X129554819Y-111114285D02*
X129554819Y-110638095D01*
X129554819Y-110638095D02*
X130031009Y-110590476D01*
X130031009Y-110590476D02*
X129983390Y-110638095D01*
X129983390Y-110638095D02*
X129935771Y-110733333D01*
X129935771Y-110733333D02*
X129935771Y-110971428D01*
X129935771Y-110971428D02*
X129983390Y-111066666D01*
X129983390Y-111066666D02*
X130031009Y-111114285D01*
X130031009Y-111114285D02*
X130126247Y-111161904D01*
X130126247Y-111161904D02*
X130364342Y-111161904D01*
X130364342Y-111161904D02*
X130459580Y-111114285D01*
X130459580Y-111114285D02*
X130507200Y-111066666D01*
X130507200Y-111066666D02*
X130554819Y-110971428D01*
X130554819Y-110971428D02*
X130554819Y-110733333D01*
X130554819Y-110733333D02*
X130507200Y-110638095D01*
X130507200Y-110638095D02*
X130459580Y-110590476D01*
X126266666Y-95434819D02*
X126599999Y-94958628D01*
X126838094Y-95434819D02*
X126838094Y-94434819D01*
X126838094Y-94434819D02*
X126457142Y-94434819D01*
X126457142Y-94434819D02*
X126361904Y-94482438D01*
X126361904Y-94482438D02*
X126314285Y-94530057D01*
X126314285Y-94530057D02*
X126266666Y-94625295D01*
X126266666Y-94625295D02*
X126266666Y-94768152D01*
X126266666Y-94768152D02*
X126314285Y-94863390D01*
X126314285Y-94863390D02*
X126361904Y-94911009D01*
X126361904Y-94911009D02*
X126457142Y-94958628D01*
X126457142Y-94958628D02*
X126838094Y-94958628D01*
X125790475Y-95434819D02*
X125599999Y-95434819D01*
X125599999Y-95434819D02*
X125504761Y-95387200D01*
X125504761Y-95387200D02*
X125457142Y-95339580D01*
X125457142Y-95339580D02*
X125361904Y-95196723D01*
X125361904Y-95196723D02*
X125314285Y-95006247D01*
X125314285Y-95006247D02*
X125314285Y-94625295D01*
X125314285Y-94625295D02*
X125361904Y-94530057D01*
X125361904Y-94530057D02*
X125409523Y-94482438D01*
X125409523Y-94482438D02*
X125504761Y-94434819D01*
X125504761Y-94434819D02*
X125695237Y-94434819D01*
X125695237Y-94434819D02*
X125790475Y-94482438D01*
X125790475Y-94482438D02*
X125838094Y-94530057D01*
X125838094Y-94530057D02*
X125885713Y-94625295D01*
X125885713Y-94625295D02*
X125885713Y-94863390D01*
X125885713Y-94863390D02*
X125838094Y-94958628D01*
X125838094Y-94958628D02*
X125790475Y-95006247D01*
X125790475Y-95006247D02*
X125695237Y-95053866D01*
X125695237Y-95053866D02*
X125504761Y-95053866D01*
X125504761Y-95053866D02*
X125409523Y-95006247D01*
X125409523Y-95006247D02*
X125361904Y-94958628D01*
X125361904Y-94958628D02*
X125314285Y-94863390D01*
X135281009Y-109066666D02*
X135281009Y-108733333D01*
X135804819Y-108733333D02*
X134804819Y-108733333D01*
X134804819Y-108733333D02*
X134804819Y-109209523D01*
X135281009Y-109923809D02*
X135328628Y-110066666D01*
X135328628Y-110066666D02*
X135376247Y-110114285D01*
X135376247Y-110114285D02*
X135471485Y-110161904D01*
X135471485Y-110161904D02*
X135614342Y-110161904D01*
X135614342Y-110161904D02*
X135709580Y-110114285D01*
X135709580Y-110114285D02*
X135757200Y-110066666D01*
X135757200Y-110066666D02*
X135804819Y-109971428D01*
X135804819Y-109971428D02*
X135804819Y-109590476D01*
X135804819Y-109590476D02*
X134804819Y-109590476D01*
X134804819Y-109590476D02*
X134804819Y-109923809D01*
X134804819Y-109923809D02*
X134852438Y-110019047D01*
X134852438Y-110019047D02*
X134900057Y-110066666D01*
X134900057Y-110066666D02*
X134995295Y-110114285D01*
X134995295Y-110114285D02*
X135090533Y-110114285D01*
X135090533Y-110114285D02*
X135185771Y-110066666D01*
X135185771Y-110066666D02*
X135233390Y-110019047D01*
X135233390Y-110019047D02*
X135281009Y-109923809D01*
X135281009Y-109923809D02*
X135281009Y-109590476D01*
X135138152Y-111019047D02*
X135804819Y-111019047D01*
X134757200Y-110780952D02*
X135471485Y-110542857D01*
X135471485Y-110542857D02*
X135471485Y-111161904D01*
X137634819Y-58357142D02*
X137158628Y-58023809D01*
X137634819Y-57785714D02*
X136634819Y-57785714D01*
X136634819Y-57785714D02*
X136634819Y-58166666D01*
X136634819Y-58166666D02*
X136682438Y-58261904D01*
X136682438Y-58261904D02*
X136730057Y-58309523D01*
X136730057Y-58309523D02*
X136825295Y-58357142D01*
X136825295Y-58357142D02*
X136968152Y-58357142D01*
X136968152Y-58357142D02*
X137063390Y-58309523D01*
X137063390Y-58309523D02*
X137111009Y-58261904D01*
X137111009Y-58261904D02*
X137158628Y-58166666D01*
X137158628Y-58166666D02*
X137158628Y-57785714D01*
X136730057Y-58738095D02*
X136682438Y-58785714D01*
X136682438Y-58785714D02*
X136634819Y-58880952D01*
X136634819Y-58880952D02*
X136634819Y-59119047D01*
X136634819Y-59119047D02*
X136682438Y-59214285D01*
X136682438Y-59214285D02*
X136730057Y-59261904D01*
X136730057Y-59261904D02*
X136825295Y-59309523D01*
X136825295Y-59309523D02*
X136920533Y-59309523D01*
X136920533Y-59309523D02*
X137063390Y-59261904D01*
X137063390Y-59261904D02*
X137634819Y-58690476D01*
X137634819Y-58690476D02*
X137634819Y-59309523D01*
X137634819Y-59785714D02*
X137634819Y-59976190D01*
X137634819Y-59976190D02*
X137587200Y-60071428D01*
X137587200Y-60071428D02*
X137539580Y-60119047D01*
X137539580Y-60119047D02*
X137396723Y-60214285D01*
X137396723Y-60214285D02*
X137206247Y-60261904D01*
X137206247Y-60261904D02*
X136825295Y-60261904D01*
X136825295Y-60261904D02*
X136730057Y-60214285D01*
X136730057Y-60214285D02*
X136682438Y-60166666D01*
X136682438Y-60166666D02*
X136634819Y-60071428D01*
X136634819Y-60071428D02*
X136634819Y-59880952D01*
X136634819Y-59880952D02*
X136682438Y-59785714D01*
X136682438Y-59785714D02*
X136730057Y-59738095D01*
X136730057Y-59738095D02*
X136825295Y-59690476D01*
X136825295Y-59690476D02*
X137063390Y-59690476D01*
X137063390Y-59690476D02*
X137158628Y-59738095D01*
X137158628Y-59738095D02*
X137206247Y-59785714D01*
X137206247Y-59785714D02*
X137253866Y-59880952D01*
X137253866Y-59880952D02*
X137253866Y-60071428D01*
X137253866Y-60071428D02*
X137206247Y-60166666D01*
X137206247Y-60166666D02*
X137158628Y-60214285D01*
X137158628Y-60214285D02*
X137063390Y-60261904D01*
X147639580Y-97683333D02*
X147687200Y-97635714D01*
X147687200Y-97635714D02*
X147734819Y-97492857D01*
X147734819Y-97492857D02*
X147734819Y-97397619D01*
X147734819Y-97397619D02*
X147687200Y-97254762D01*
X147687200Y-97254762D02*
X147591961Y-97159524D01*
X147591961Y-97159524D02*
X147496723Y-97111905D01*
X147496723Y-97111905D02*
X147306247Y-97064286D01*
X147306247Y-97064286D02*
X147163390Y-97064286D01*
X147163390Y-97064286D02*
X146972914Y-97111905D01*
X146972914Y-97111905D02*
X146877676Y-97159524D01*
X146877676Y-97159524D02*
X146782438Y-97254762D01*
X146782438Y-97254762D02*
X146734819Y-97397619D01*
X146734819Y-97397619D02*
X146734819Y-97492857D01*
X146734819Y-97492857D02*
X146782438Y-97635714D01*
X146782438Y-97635714D02*
X146830057Y-97683333D01*
X147068152Y-98540476D02*
X147734819Y-98540476D01*
X146687200Y-98302381D02*
X147401485Y-98064286D01*
X147401485Y-98064286D02*
X147401485Y-98683333D01*
X142149819Y-97384905D02*
X141149819Y-97384905D01*
X141149819Y-97384905D02*
X141149819Y-97623000D01*
X141149819Y-97623000D02*
X141197438Y-97765857D01*
X141197438Y-97765857D02*
X141292676Y-97861095D01*
X141292676Y-97861095D02*
X141387914Y-97908714D01*
X141387914Y-97908714D02*
X141578390Y-97956333D01*
X141578390Y-97956333D02*
X141721247Y-97956333D01*
X141721247Y-97956333D02*
X141911723Y-97908714D01*
X141911723Y-97908714D02*
X142006961Y-97861095D01*
X142006961Y-97861095D02*
X142102200Y-97765857D01*
X142102200Y-97765857D02*
X142149819Y-97623000D01*
X142149819Y-97623000D02*
X142149819Y-97384905D01*
X142149819Y-98908714D02*
X142149819Y-98337286D01*
X142149819Y-98623000D02*
X141149819Y-98623000D01*
X141149819Y-98623000D02*
X141292676Y-98527762D01*
X141292676Y-98527762D02*
X141387914Y-98432524D01*
X141387914Y-98432524D02*
X141435533Y-98337286D01*
X120642857Y-84859580D02*
X120690476Y-84907200D01*
X120690476Y-84907200D02*
X120833333Y-84954819D01*
X120833333Y-84954819D02*
X120928571Y-84954819D01*
X120928571Y-84954819D02*
X121071428Y-84907200D01*
X121071428Y-84907200D02*
X121166666Y-84811961D01*
X121166666Y-84811961D02*
X121214285Y-84716723D01*
X121214285Y-84716723D02*
X121261904Y-84526247D01*
X121261904Y-84526247D02*
X121261904Y-84383390D01*
X121261904Y-84383390D02*
X121214285Y-84192914D01*
X121214285Y-84192914D02*
X121166666Y-84097676D01*
X121166666Y-84097676D02*
X121071428Y-84002438D01*
X121071428Y-84002438D02*
X120928571Y-83954819D01*
X120928571Y-83954819D02*
X120833333Y-83954819D01*
X120833333Y-83954819D02*
X120690476Y-84002438D01*
X120690476Y-84002438D02*
X120642857Y-84050057D01*
X120309523Y-83954819D02*
X119690476Y-83954819D01*
X119690476Y-83954819D02*
X120023809Y-84335771D01*
X120023809Y-84335771D02*
X119880952Y-84335771D01*
X119880952Y-84335771D02*
X119785714Y-84383390D01*
X119785714Y-84383390D02*
X119738095Y-84431009D01*
X119738095Y-84431009D02*
X119690476Y-84526247D01*
X119690476Y-84526247D02*
X119690476Y-84764342D01*
X119690476Y-84764342D02*
X119738095Y-84859580D01*
X119738095Y-84859580D02*
X119785714Y-84907200D01*
X119785714Y-84907200D02*
X119880952Y-84954819D01*
X119880952Y-84954819D02*
X120166666Y-84954819D01*
X120166666Y-84954819D02*
X120261904Y-84907200D01*
X120261904Y-84907200D02*
X120309523Y-84859580D01*
X118738095Y-84954819D02*
X119309523Y-84954819D01*
X119023809Y-84954819D02*
X119023809Y-83954819D01*
X119023809Y-83954819D02*
X119119047Y-84097676D01*
X119119047Y-84097676D02*
X119214285Y-84192914D01*
X119214285Y-84192914D02*
X119309523Y-84240533D01*
X130424819Y-90683333D02*
X129948628Y-90350000D01*
X130424819Y-90111905D02*
X129424819Y-90111905D01*
X129424819Y-90111905D02*
X129424819Y-90492857D01*
X129424819Y-90492857D02*
X129472438Y-90588095D01*
X129472438Y-90588095D02*
X129520057Y-90635714D01*
X129520057Y-90635714D02*
X129615295Y-90683333D01*
X129615295Y-90683333D02*
X129758152Y-90683333D01*
X129758152Y-90683333D02*
X129853390Y-90635714D01*
X129853390Y-90635714D02*
X129901009Y-90588095D01*
X129901009Y-90588095D02*
X129948628Y-90492857D01*
X129948628Y-90492857D02*
X129948628Y-90111905D01*
X129853390Y-91254762D02*
X129805771Y-91159524D01*
X129805771Y-91159524D02*
X129758152Y-91111905D01*
X129758152Y-91111905D02*
X129662914Y-91064286D01*
X129662914Y-91064286D02*
X129615295Y-91064286D01*
X129615295Y-91064286D02*
X129520057Y-91111905D01*
X129520057Y-91111905D02*
X129472438Y-91159524D01*
X129472438Y-91159524D02*
X129424819Y-91254762D01*
X129424819Y-91254762D02*
X129424819Y-91445238D01*
X129424819Y-91445238D02*
X129472438Y-91540476D01*
X129472438Y-91540476D02*
X129520057Y-91588095D01*
X129520057Y-91588095D02*
X129615295Y-91635714D01*
X129615295Y-91635714D02*
X129662914Y-91635714D01*
X129662914Y-91635714D02*
X129758152Y-91588095D01*
X129758152Y-91588095D02*
X129805771Y-91540476D01*
X129805771Y-91540476D02*
X129853390Y-91445238D01*
X129853390Y-91445238D02*
X129853390Y-91254762D01*
X129853390Y-91254762D02*
X129901009Y-91159524D01*
X129901009Y-91159524D02*
X129948628Y-91111905D01*
X129948628Y-91111905D02*
X130043866Y-91064286D01*
X130043866Y-91064286D02*
X130234342Y-91064286D01*
X130234342Y-91064286D02*
X130329580Y-91111905D01*
X130329580Y-91111905D02*
X130377200Y-91159524D01*
X130377200Y-91159524D02*
X130424819Y-91254762D01*
X130424819Y-91254762D02*
X130424819Y-91445238D01*
X130424819Y-91445238D02*
X130377200Y-91540476D01*
X130377200Y-91540476D02*
X130329580Y-91588095D01*
X130329580Y-91588095D02*
X130234342Y-91635714D01*
X130234342Y-91635714D02*
X130043866Y-91635714D01*
X130043866Y-91635714D02*
X129948628Y-91588095D01*
X129948628Y-91588095D02*
X129901009Y-91540476D01*
X129901009Y-91540476D02*
X129853390Y-91445238D01*
X133959580Y-109233333D02*
X134007200Y-109185714D01*
X134007200Y-109185714D02*
X134054819Y-109042857D01*
X134054819Y-109042857D02*
X134054819Y-108947619D01*
X134054819Y-108947619D02*
X134007200Y-108804762D01*
X134007200Y-108804762D02*
X133911961Y-108709524D01*
X133911961Y-108709524D02*
X133816723Y-108661905D01*
X133816723Y-108661905D02*
X133626247Y-108614286D01*
X133626247Y-108614286D02*
X133483390Y-108614286D01*
X133483390Y-108614286D02*
X133292914Y-108661905D01*
X133292914Y-108661905D02*
X133197676Y-108709524D01*
X133197676Y-108709524D02*
X133102438Y-108804762D01*
X133102438Y-108804762D02*
X133054819Y-108947619D01*
X133054819Y-108947619D02*
X133054819Y-109042857D01*
X133054819Y-109042857D02*
X133102438Y-109185714D01*
X133102438Y-109185714D02*
X133150057Y-109233333D01*
X133054819Y-109566667D02*
X133054819Y-110233333D01*
X133054819Y-110233333D02*
X134054819Y-109804762D01*
X122892857Y-78704819D02*
X123226190Y-78228628D01*
X123464285Y-78704819D02*
X123464285Y-77704819D01*
X123464285Y-77704819D02*
X123083333Y-77704819D01*
X123083333Y-77704819D02*
X122988095Y-77752438D01*
X122988095Y-77752438D02*
X122940476Y-77800057D01*
X122940476Y-77800057D02*
X122892857Y-77895295D01*
X122892857Y-77895295D02*
X122892857Y-78038152D01*
X122892857Y-78038152D02*
X122940476Y-78133390D01*
X122940476Y-78133390D02*
X122988095Y-78181009D01*
X122988095Y-78181009D02*
X123083333Y-78228628D01*
X123083333Y-78228628D02*
X123464285Y-78228628D01*
X121940476Y-78704819D02*
X122511904Y-78704819D01*
X122226190Y-78704819D02*
X122226190Y-77704819D01*
X122226190Y-77704819D02*
X122321428Y-77847676D01*
X122321428Y-77847676D02*
X122416666Y-77942914D01*
X122416666Y-77942914D02*
X122511904Y-77990533D01*
X121083333Y-77704819D02*
X121273809Y-77704819D01*
X121273809Y-77704819D02*
X121369047Y-77752438D01*
X121369047Y-77752438D02*
X121416666Y-77800057D01*
X121416666Y-77800057D02*
X121511904Y-77942914D01*
X121511904Y-77942914D02*
X121559523Y-78133390D01*
X121559523Y-78133390D02*
X121559523Y-78514342D01*
X121559523Y-78514342D02*
X121511904Y-78609580D01*
X121511904Y-78609580D02*
X121464285Y-78657200D01*
X121464285Y-78657200D02*
X121369047Y-78704819D01*
X121369047Y-78704819D02*
X121178571Y-78704819D01*
X121178571Y-78704819D02*
X121083333Y-78657200D01*
X121083333Y-78657200D02*
X121035714Y-78609580D01*
X121035714Y-78609580D02*
X120988095Y-78514342D01*
X120988095Y-78514342D02*
X120988095Y-78276247D01*
X120988095Y-78276247D02*
X121035714Y-78181009D01*
X121035714Y-78181009D02*
X121083333Y-78133390D01*
X121083333Y-78133390D02*
X121178571Y-78085771D01*
X121178571Y-78085771D02*
X121369047Y-78085771D01*
X121369047Y-78085771D02*
X121464285Y-78133390D01*
X121464285Y-78133390D02*
X121511904Y-78181009D01*
X121511904Y-78181009D02*
X121559523Y-78276247D01*
X157583333Y-100329819D02*
X157583333Y-101044104D01*
X157583333Y-101044104D02*
X157630952Y-101186961D01*
X157630952Y-101186961D02*
X157726190Y-101282200D01*
X157726190Y-101282200D02*
X157869047Y-101329819D01*
X157869047Y-101329819D02*
X157964285Y-101329819D01*
X156678571Y-100663152D02*
X156678571Y-101329819D01*
X156916666Y-100282200D02*
X157154761Y-100996485D01*
X157154761Y-100996485D02*
X156535714Y-100996485D01*
X120892857Y-90609580D02*
X120940476Y-90657200D01*
X120940476Y-90657200D02*
X121083333Y-90704819D01*
X121083333Y-90704819D02*
X121178571Y-90704819D01*
X121178571Y-90704819D02*
X121321428Y-90657200D01*
X121321428Y-90657200D02*
X121416666Y-90561961D01*
X121416666Y-90561961D02*
X121464285Y-90466723D01*
X121464285Y-90466723D02*
X121511904Y-90276247D01*
X121511904Y-90276247D02*
X121511904Y-90133390D01*
X121511904Y-90133390D02*
X121464285Y-89942914D01*
X121464285Y-89942914D02*
X121416666Y-89847676D01*
X121416666Y-89847676D02*
X121321428Y-89752438D01*
X121321428Y-89752438D02*
X121178571Y-89704819D01*
X121178571Y-89704819D02*
X121083333Y-89704819D01*
X121083333Y-89704819D02*
X120940476Y-89752438D01*
X120940476Y-89752438D02*
X120892857Y-89800057D01*
X120559523Y-89704819D02*
X119940476Y-89704819D01*
X119940476Y-89704819D02*
X120273809Y-90085771D01*
X120273809Y-90085771D02*
X120130952Y-90085771D01*
X120130952Y-90085771D02*
X120035714Y-90133390D01*
X120035714Y-90133390D02*
X119988095Y-90181009D01*
X119988095Y-90181009D02*
X119940476Y-90276247D01*
X119940476Y-90276247D02*
X119940476Y-90514342D01*
X119940476Y-90514342D02*
X119988095Y-90609580D01*
X119988095Y-90609580D02*
X120035714Y-90657200D01*
X120035714Y-90657200D02*
X120130952Y-90704819D01*
X120130952Y-90704819D02*
X120416666Y-90704819D01*
X120416666Y-90704819D02*
X120511904Y-90657200D01*
X120511904Y-90657200D02*
X120559523Y-90609580D01*
X119321428Y-89704819D02*
X119226190Y-89704819D01*
X119226190Y-89704819D02*
X119130952Y-89752438D01*
X119130952Y-89752438D02*
X119083333Y-89800057D01*
X119083333Y-89800057D02*
X119035714Y-89895295D01*
X119035714Y-89895295D02*
X118988095Y-90085771D01*
X118988095Y-90085771D02*
X118988095Y-90323866D01*
X118988095Y-90323866D02*
X119035714Y-90514342D01*
X119035714Y-90514342D02*
X119083333Y-90609580D01*
X119083333Y-90609580D02*
X119130952Y-90657200D01*
X119130952Y-90657200D02*
X119226190Y-90704819D01*
X119226190Y-90704819D02*
X119321428Y-90704819D01*
X119321428Y-90704819D02*
X119416666Y-90657200D01*
X119416666Y-90657200D02*
X119464285Y-90609580D01*
X119464285Y-90609580D02*
X119511904Y-90514342D01*
X119511904Y-90514342D02*
X119559523Y-90323866D01*
X119559523Y-90323866D02*
X119559523Y-90085771D01*
X119559523Y-90085771D02*
X119511904Y-89895295D01*
X119511904Y-89895295D02*
X119464285Y-89800057D01*
X119464285Y-89800057D02*
X119416666Y-89752438D01*
X119416666Y-89752438D02*
X119321428Y-89704819D01*
D11*
%TO.C,J1*%
X144452200Y-122750000D02*
G75*
G02*
X143690200Y-122750000I-381000J0D01*
G01*
X143690200Y-122750000D02*
G75*
G02*
X144452200Y-122750000I381000J0D01*
G01*
D12*
%TO.C,C19*%
X134260000Y-128991233D02*
X134260000Y-129283767D01*
X133240000Y-128991233D02*
X133240000Y-129283767D01*
D13*
%TO.C,U4*%
X132650000Y-122775000D02*
X133850000Y-122775000D01*
X134200000Y-122675000D02*
X134800000Y-122675000D01*
X134800000Y-122675000D02*
X134800000Y-119775000D01*
X134200000Y-119775000D02*
X134200000Y-122675000D01*
X134800000Y-119775000D02*
X134200000Y-119775000D01*
D12*
%TO.C,C24*%
X136010000Y-128991233D02*
X136010000Y-129283767D01*
X134990000Y-128991233D02*
X134990000Y-129283767D01*
%TO.C,R7*%
X89722500Y-47954724D02*
X89722500Y-47445276D01*
X88677500Y-47954724D02*
X88677500Y-47445276D01*
%TO.C,U5*%
X161425000Y-115890000D02*
X163575000Y-115890000D01*
X161975000Y-119110000D02*
X163575000Y-119110000D01*
X163575000Y-116800000D02*
X163575000Y-115890000D01*
X163575000Y-119110000D02*
X163575000Y-118200000D01*
X161715000Y-119390000D02*
X161235000Y-119390000D01*
X161475000Y-119060000D01*
X161715000Y-119390000D01*
G36*
X161715000Y-119390000D02*
G01*
X161235000Y-119390000D01*
X161475000Y-119060000D01*
X161715000Y-119390000D01*
G37*
%TO.C,R30*%
X138869276Y-76327500D02*
X139378724Y-76327500D01*
X138869276Y-77372500D02*
X139378724Y-77372500D01*
%TO.C,C25*%
X138977733Y-79840000D02*
X139270267Y-79840000D01*
X138977733Y-80860000D02*
X139270267Y-80860000D01*
%TO.C,R13*%
X150119276Y-79827500D02*
X150628724Y-79827500D01*
X150119276Y-80872500D02*
X150628724Y-80872500D01*
%TO.C,R12*%
X150628724Y-81577500D02*
X150119276Y-81577500D01*
X150628724Y-82622500D02*
X150119276Y-82622500D01*
%TO.C,R23*%
X154378724Y-81577500D02*
X153869276Y-81577500D01*
X154378724Y-82622500D02*
X153869276Y-82622500D01*
%TO.C,R27*%
X138869276Y-78077500D02*
X139378724Y-78077500D01*
X138869276Y-79122500D02*
X139378724Y-79122500D01*
%TO.C,R20*%
X150628724Y-76327500D02*
X150119276Y-76327500D01*
X150628724Y-77372500D02*
X150119276Y-77372500D01*
%TO.C,R15*%
X150628724Y-78077500D02*
X150119276Y-78077500D01*
X150628724Y-79122500D02*
X150119276Y-79122500D01*
%TO.C,C12*%
X131340000Y-107046267D02*
X131340000Y-106753733D01*
X132360000Y-107046267D02*
X132360000Y-106753733D01*
%TO.C,C32*%
X114515000Y-89276248D02*
X114515000Y-89798752D01*
X115985000Y-89276248D02*
X115985000Y-89798752D01*
D14*
%TO.C,U8*%
X117802500Y-82442500D02*
G75*
G02*
X117552500Y-82442500I-125000J0D01*
G01*
X117552500Y-82442500D02*
G75*
G02*
X117802500Y-82442500I125000J0D01*
G01*
D12*
%TO.C,C11*%
X133485000Y-58853733D02*
X133485000Y-59146267D01*
X134505000Y-58853733D02*
X134505000Y-59146267D01*
%TO.C,C33*%
X116740000Y-89161233D02*
X116740000Y-89453767D01*
X117760000Y-89161233D02*
X117760000Y-89453767D01*
%TO.C,R14*%
X126177500Y-77692224D02*
X126177500Y-77182776D01*
X127222500Y-77692224D02*
X127222500Y-77182776D01*
%TO.C,R19*%
X114804724Y-118027500D02*
X114295276Y-118027500D01*
X114804724Y-119072500D02*
X114295276Y-119072500D01*
%TO.C,FB1*%
X129590000Y-103253733D02*
X129590000Y-103546267D01*
X130610000Y-103253733D02*
X130610000Y-103546267D01*
%TO.C,C15*%
X129590000Y-107046267D02*
X129590000Y-106753733D01*
X130610000Y-107046267D02*
X130610000Y-106753733D01*
%TO.C,R9*%
X125845276Y-93027500D02*
X126354724Y-93027500D01*
X125845276Y-94072500D02*
X126354724Y-94072500D01*
%TO.C,FB4*%
X134840000Y-106753733D02*
X134840000Y-107046267D01*
X135860000Y-106753733D02*
X135860000Y-107046267D01*
%TO.C,R29*%
X135227500Y-59254724D02*
X135227500Y-58745276D01*
X136272500Y-59254724D02*
X136272500Y-58745276D01*
%TO.C,C4*%
X145340000Y-97996267D02*
X145340000Y-97703733D01*
X146360000Y-97996267D02*
X146360000Y-97703733D01*
%TO.C,D1*%
X142600000Y-96040000D02*
X142600000Y-99900000D01*
X142600000Y-96040000D02*
X144600000Y-96040000D01*
X144600000Y-96040000D02*
X144600000Y-99900000D01*
%TO.C,C31*%
X119853733Y-85240000D02*
X120146267Y-85240000D01*
X119853733Y-86260000D02*
X120146267Y-86260000D01*
%TO.C,R8*%
X130877500Y-90595276D02*
X130877500Y-91104724D01*
X131922500Y-90595276D02*
X131922500Y-91104724D01*
%TO.C,C7*%
X133090000Y-107046267D02*
X133090000Y-106753733D01*
X134110000Y-107046267D02*
X134110000Y-106753733D01*
%TO.C,R16*%
X123977500Y-77692224D02*
X123977500Y-77182776D01*
X125022500Y-77692224D02*
X125022500Y-77182776D01*
D13*
%TO.C,J4*%
X162650000Y-97775000D02*
G75*
G02*
X162650000Y-97875000I0J-50000D01*
G01*
X162650000Y-97775000D02*
G75*
G02*
X162650000Y-97875000I0J-50000D01*
G01*
X162650000Y-97875000D02*
G75*
G02*
X162650000Y-97775000I0J50000D01*
G01*
D15*
X160850000Y-87775000D02*
X160850000Y-87775000D01*
X160850000Y-87775000D02*
X160850000Y-87775000D01*
X160850000Y-87775000D02*
X159000000Y-87775000D01*
X160850000Y-87775000D02*
X160850000Y-88125000D01*
X159000000Y-87775000D02*
X160850000Y-87775000D01*
X159000000Y-87775000D02*
X159000000Y-87775000D01*
X160850000Y-88125000D02*
X160850000Y-87775000D01*
X160850000Y-88125000D02*
X160850000Y-88125000D01*
D13*
X162650000Y-97775000D02*
X162650000Y-97775000D01*
X162650000Y-97775000D02*
X162650000Y-97775000D01*
X162650000Y-97875000D02*
X162650000Y-97875000D01*
D15*
X160850000Y-98625000D02*
X160850000Y-98625000D01*
X160850000Y-98625000D02*
X160850000Y-98975000D01*
X160850000Y-98975000D02*
X160850000Y-98625000D01*
X160850000Y-98975000D02*
X160850000Y-98975000D01*
X160850000Y-98975000D02*
X160850000Y-98975000D01*
X160850000Y-98975000D02*
X159000000Y-98975000D01*
X159000000Y-98975000D02*
X160850000Y-98975000D01*
X159000000Y-98975000D02*
X159000000Y-98975000D01*
D12*
%TO.C,C30*%
X119988748Y-87765000D02*
X120511252Y-87765000D01*
X119988748Y-89235000D02*
X120511252Y-89235000D01*
%TD*%
%LPC*%
D16*
%TO.C,J1*%
X154790000Y-122750000D03*
X152250000Y-122750000D03*
X149710000Y-122750000D03*
X147170000Y-122750000D03*
%TD*%
D17*
%TO.C,C19*%
X133750000Y-128275000D03*
X133750000Y-130000000D03*
%TD*%
D18*
%TO.C,U4*%
X135750000Y-122200000D03*
X135750000Y-121550000D03*
X135750000Y-120900000D03*
X135750000Y-120250000D03*
X133250000Y-120250000D03*
X133250000Y-120900000D03*
X133250000Y-121550000D03*
X133250000Y-122200000D03*
%TD*%
D17*
%TO.C,C24*%
X135500000Y-128275000D03*
X135500000Y-130000000D03*
%TD*%
D19*
%TO.C,JP1*%
X83760000Y-47700000D03*
D20*
X86300000Y-47700000D03*
%TD*%
D21*
%TO.C,R7*%
X89200000Y-46787500D03*
X89200000Y-48612500D03*
%TD*%
D22*
%TO.C,U5*%
X161300000Y-118450000D03*
X161300000Y-116550000D03*
X163700000Y-117500000D03*
%TD*%
D23*
%TO.C,R30*%
X140036500Y-76850000D03*
X138211500Y-76850000D03*
%TD*%
D24*
%TO.C,MH4*%
X159250000Y-109000000D03*
D25*
X159250000Y-109000000D03*
%TD*%
D26*
%TO.C,C25*%
X139986500Y-80350000D03*
X138261500Y-80350000D03*
%TD*%
D23*
%TO.C,R13*%
X151286500Y-80350000D03*
X149461500Y-80350000D03*
%TD*%
D24*
%TO.C,MH3*%
X114250000Y-109000000D03*
D25*
X114250000Y-109000000D03*
%TD*%
D27*
%TO.C,R12*%
X149461500Y-82100000D03*
X151286500Y-82100000D03*
%TD*%
D24*
%TO.C,MH1*%
X114250000Y-77750000D03*
D25*
X114250000Y-77750000D03*
%TD*%
D27*
%TO.C,R23*%
X153211500Y-82100000D03*
X155036500Y-82100000D03*
%TD*%
D28*
%TO.C,J2*%
X129210000Y-79980000D03*
X123430000Y-79980000D03*
D29*
X130640000Y-80480000D03*
D30*
X130640000Y-76300000D03*
D29*
X122000000Y-80480000D03*
D30*
X122000000Y-76300000D03*
%TD*%
D23*
%TO.C,R27*%
X140036500Y-78600000D03*
X138211500Y-78600000D03*
%TD*%
D27*
%TO.C,R20*%
X149461500Y-76850000D03*
X151286500Y-76850000D03*
%TD*%
%TO.C,R15*%
X149461500Y-78600000D03*
X151286500Y-78600000D03*
%TD*%
D24*
%TO.C,MH2*%
X159250000Y-77750000D03*
D25*
X159250000Y-77750000D03*
%TD*%
D31*
%TO.C,C12*%
X131850000Y-107762500D03*
X131850000Y-106037500D03*
%TD*%
D32*
%TO.C,C32*%
X115250000Y-88500000D03*
X115250000Y-90575000D03*
%TD*%
D33*
%TO.C,U8*%
X117252500Y-83192500D03*
X117252500Y-83692500D03*
X117252500Y-84192500D03*
X117252500Y-84692500D03*
X117252500Y-85192500D03*
X117252500Y-85692500D03*
D34*
X116552500Y-86392500D03*
X116052500Y-86392500D03*
X115552500Y-86392500D03*
X115052500Y-86392500D03*
X114552500Y-86392500D03*
X114052500Y-86392500D03*
D33*
X113352500Y-85692500D03*
X113352500Y-85192500D03*
X113352500Y-84692500D03*
X113352500Y-84192500D03*
X113352500Y-83692500D03*
X113352500Y-83192500D03*
D34*
X114052500Y-82492500D03*
X114552500Y-82492500D03*
X115052500Y-82492500D03*
X115552500Y-82492500D03*
X116052500Y-82492500D03*
X116552500Y-82492500D03*
D35*
X115302500Y-84442500D03*
%TD*%
D17*
%TO.C,C11*%
X133995000Y-58137500D03*
X133995000Y-59862500D03*
%TD*%
%TO.C,C33*%
X117250000Y-88445000D03*
X117250000Y-90170000D03*
%TD*%
D21*
%TO.C,R14*%
X126700000Y-78350000D03*
X126700000Y-76525000D03*
%TD*%
D27*
%TO.C,R19*%
X115462500Y-118550000D03*
X113637500Y-118550000D03*
%TD*%
D17*
%TO.C,FB1*%
X130100000Y-102537500D03*
X130100000Y-104262500D03*
%TD*%
D31*
%TO.C,C15*%
X130100000Y-107762500D03*
X130100000Y-106037500D03*
%TD*%
D23*
%TO.C,R9*%
X125187500Y-93550000D03*
X127012500Y-93550000D03*
%TD*%
D17*
%TO.C,FB4*%
X135350000Y-106037500D03*
X135350000Y-107762500D03*
%TD*%
D21*
%TO.C,R29*%
X135750000Y-59912500D03*
X135750000Y-58087500D03*
%TD*%
D31*
%TO.C,C4*%
X145850000Y-98712500D03*
X145850000Y-96987500D03*
%TD*%
D36*
%TO.C,D1*%
X143600000Y-96850000D03*
X143600000Y-99650000D03*
%TD*%
D26*
%TO.C,C31*%
X119137500Y-85750000D03*
X120862500Y-85750000D03*
%TD*%
D37*
%TO.C,R8*%
X131400000Y-89937500D03*
X131400000Y-91762500D03*
%TD*%
D31*
%TO.C,C7*%
X133600000Y-107762500D03*
X133600000Y-106037500D03*
%TD*%
D21*
%TO.C,R16*%
X124500000Y-78350000D03*
X124500000Y-76525000D03*
%TD*%
D38*
%TO.C,J4*%
X157350000Y-88975000D03*
X161150000Y-88975000D03*
X157350000Y-89775000D03*
X161150000Y-89775000D03*
X157350000Y-90575000D03*
X161150000Y-90575000D03*
X157350000Y-91375000D03*
X161150000Y-91375000D03*
X157350000Y-92175000D03*
X161150000Y-92175000D03*
X157350000Y-92975000D03*
X161150000Y-92975000D03*
X157350000Y-93775000D03*
X161150000Y-93775000D03*
X157350000Y-94575000D03*
X161150000Y-94575000D03*
X157350000Y-95375000D03*
X161150000Y-95375000D03*
X157350000Y-96175000D03*
X161150000Y-96175000D03*
X157350000Y-96975000D03*
X161150000Y-96975000D03*
X157350000Y-97775000D03*
X161150000Y-97775000D03*
D39*
X157950000Y-98675000D03*
X157950000Y-88075000D03*
%TD*%
D40*
%TO.C,C30*%
X119212500Y-88500000D03*
X121287500Y-88500000D03*
%TD*%
%LPD*%
M02*
