M48
; DRILL file {KiCad 9.0.3} date 2025-08-10T22:23:36-0700
; FORMAT={-:-/ absolute / inch / decimal}
; #@! TF.CreationDate,2025-08-10T22:23:36-07:00
; #@! TF.GenerationSoftware,Kicad,Pcbnew,9.0.3
; #@! TF.FileFunction,Plated,1,4,PTH
FMAT,2
INCH
; #@! TA.AperFunction,Plated,PTH,ViaDrill
T1C0.0079
; #@! TA.AperFunction,Plated,PTH,ViaDrill
T2C0.0098
; #@! TA.AperFunction,Plated,PTH,ViaDrill
T3C0.0118
; #@! TA.AperFunction,Plated,PTH,ComponentDrill
T4C0.0236
; #@! TA.AperFunction,Plated,PTH,ComponentDrill
T5C0.0394
; #@! TA.AperFunction,Plated,PTH,ComponentDrill
T6C0.0420
; #@! TA.AperFunction,Plated,PTH,ComponentDrill
T7C0.1260
%
G90
G05
T1
X4.5079Y-3.2953
X4.5079Y-3.3245
X4.5079Y-3.3543
X4.5395Y-3.2953
X4.5395Y-3.3245
X4.5395Y-3.3543
X4.5492Y-4.6063
X4.5709Y-3.2953
X4.5709Y-3.3245
X4.5709Y-3.3543
X4.5866Y-3.435
X4.6555Y-3.5335
X4.7736Y-3.5335
X4.9213Y-3.2283
X4.9286Y-3.6831
X5.0197Y-3.2382
X5.0906Y-3.6437
X5.0925Y-4.1791
X5.0925Y-4.2185
X5.1417Y-3.5374
X5.2165Y-3.6122
X5.4872Y-3.065
X5.4872Y-3.124
X5.5167Y-3.2028
X5.8513Y-3.1142
X5.8513Y-3.1929
X5.8513Y-3.2323
X5.8612Y-3.1339
X5.9202Y-3.1929
X6.0285Y-3.1929
T2
X4.5177Y-3.435
T3
X5.3346Y-3.3366
X5.374Y-3.3169
X5.4134Y-3.3366
X5.4528Y-3.3169
X5.4724Y-3.2677
X5.4921Y-3.3366
X5.5118Y-3.2874
X5.6417Y-3.7539
X5.6732Y-3.7539
X5.7815Y-3.9114
X5.8465Y-4.1831
X5.8858Y-4.1831
X5.9055Y-4.065
X5.9055Y-4.1043
X5.9252Y-4.1437
X5.9252Y-4.1831
X6.0138Y-3.4843
X6.0138Y-3.5433
X6.063Y-3.5138
X6.063Y-3.5728
X6.1319Y-3.4252
X6.1319Y-3.4646
X6.1319Y-3.5039
X6.1811Y-3.4252
X6.2598Y-3.4252
X6.2598Y-3.5039
X6.3091Y-3.9173
X6.3091Y-3.9764
X6.3287Y-3.3858
X6.3287Y-3.4252
X6.3386Y-3.8878
X6.3386Y-3.9469
X6.3386Y-4.0059
X6.3681Y-3.4055
X6.3681Y-3.4449
X6.3681Y-3.9173
X6.3681Y-3.9764
T5
X3.2976Y-1.878
X3.3976Y-1.878
T6
X5.7941Y-4.8327
X5.8941Y-4.8327
X5.9941Y-4.8327
X6.0941Y-4.8327
T7
X4.498Y-3.061
X4.498Y-4.2913
X6.2697Y-3.061
X6.2697Y-4.2913
T4
G00X4.8031Y-3.0197
M15
G01X4.8031Y-2.9882
M16
G05
G00X4.8031Y-3.1902
M15
G01X4.8031Y-3.1469
M16
G05
G00X5.1433Y-3.0197
M15
G01X5.1433Y-2.9882
M16
G05
G00X5.1433Y-3.1902
M15
G01X5.1433Y-3.1469
M16
G05
M30
