%TF.GenerationSoftware,KiCad,Pcbnew,9.0.3*%
%TF.CreationDate,2025-08-10T22:23:36-07:00*%
%TF.ProjectId,PeripheralSOM,50657269-7068-4657-9261-6c534f4d2e6b,rev?*%
%TF.SameCoordinates,Original*%
%TF.FileFunction,Soldermask,Top*%
%TF.FilePolarity,Negative*%
%FSLAX46Y46*%
G04 Gerber Fmt 4.6, Leading zero omitted, Abs format (unit mm)*
G04 Created by KiCad (PCBNEW 9.0.3) date 2025-08-10 22:23:36*
%MOMM*%
%LPD*%
G01*
G04 APERTURE LIST*
G04 Aperture macros list*
%AMRoundRect*
0 Rectangle with rounded corners*
0 $1 Rounding radius*
0 $2 $3 $4 $5 $6 $7 $8 $9 X,Y pos of 4 corners*
0 Add a 4 corners polygon primitive as box body*
4,1,4,$2,$3,$4,$5,$6,$7,$8,$9,$2,$3,0*
0 Add four circle primitives for the rounded corners*
1,1,$1+$1,$2,$3*
1,1,$1+$1,$4,$5*
1,1,$1+$1,$6,$7*
1,1,$1+$1,$8,$9*
0 Add four rect primitives between the rounded corners*
20,1,$1+$1,$2,$3,$4,$5,0*
20,1,$1+$1,$4,$5,$6,$7,0*
20,1,$1+$1,$6,$7,$8,$9,0*
20,1,$1+$1,$8,$9,$2,$3,0*%
G04 Aperture macros list end*
%ADD10C,0.000000*%
%ADD11C,1.778800*%
%ADD12RoundRect,0.237500X-0.237500X0.250000X-0.237500X-0.250000X0.237500X-0.250000X0.237500X0.250000X0*%
%ADD13C,1.700000*%
%ADD14R,1.700000X1.700000*%
%ADD15RoundRect,0.250000X0.450000X-0.325000X0.450000X0.325000X-0.450000X0.325000X-0.450000X-0.325000X0*%
%ADD16R,1.000000X1.000000*%
%ADD17RoundRect,0.250000X-0.475000X0.337500X-0.475000X-0.337500X0.475000X-0.337500X0.475000X0.337500X0*%
%ADD18RoundRect,0.250000X-0.325000X-0.450000X0.325000X-0.450000X0.325000X0.450000X-0.325000X0.450000X0*%
%ADD19RoundRect,0.237500X0.237500X-0.250000X0.237500X0.250000X-0.237500X0.250000X-0.237500X-0.250000X0*%
%ADD20RoundRect,0.075000X-0.662500X-0.075000X0.662500X-0.075000X0.662500X0.075000X-0.662500X0.075000X0*%
%ADD21RoundRect,0.075000X-0.075000X-0.662500X0.075000X-0.662500X0.075000X0.662500X-0.075000X0.662500X0*%
%ADD22RoundRect,0.237500X-0.250000X-0.237500X0.250000X-0.237500X0.250000X0.237500X-0.250000X0.237500X0*%
%ADD23RoundRect,0.237500X-0.300000X-0.237500X0.300000X-0.237500X0.300000X0.237500X-0.300000X0.237500X0*%
%ADD24RoundRect,0.250000X0.337500X0.475000X-0.337500X0.475000X-0.337500X-0.475000X0.337500X-0.475000X0*%
%ADD25C,3.600000*%
%ADD26C,6.400000*%
%ADD27R,1.150000X0.600000*%
%ADD28RoundRect,0.237500X0.250000X0.237500X-0.250000X0.237500X-0.250000X-0.237500X0.250000X-0.237500X0*%
%ADD29RoundRect,0.237500X0.237500X-0.300000X0.237500X0.300000X-0.237500X0.300000X-0.237500X-0.300000X0*%
%ADD30RoundRect,0.237500X-0.237500X0.300000X-0.237500X-0.300000X0.237500X-0.300000X0.237500X0.300000X0*%
%ADD31RoundRect,0.375000X-0.375000X0.625000X-0.375000X-0.625000X0.375000X-0.625000X0.375000X0.625000X0*%
%ADD32RoundRect,0.500000X-1.400000X0.500000X-1.400000X-0.500000X1.400000X-0.500000X1.400000X0.500000X0*%
%ADD33RoundRect,0.102000X-0.500000X-0.800000X0.500000X-0.800000X0.500000X0.800000X-0.500000X0.800000X0*%
%ADD34RoundRect,0.250000X-0.950000X0.700000X-0.950000X-0.700000X0.950000X-0.700000X0.950000X0.700000X0*%
%ADD35RoundRect,0.237500X0.300000X0.237500X-0.300000X0.237500X-0.300000X-0.237500X0.300000X-0.237500X0*%
%ADD36RoundRect,0.250000X1.750000X2.500000X-1.750000X2.500000X-1.750000X-2.500000X1.750000X-2.500000X0*%
%ADD37RoundRect,0.150000X0.150000X0.425000X-0.150000X0.425000X-0.150000X-0.425000X0.150000X-0.425000X0*%
%ADD38RoundRect,0.075000X0.075000X0.500000X-0.075000X0.500000X-0.075000X-0.500000X0.075000X-0.500000X0*%
%ADD39O,1.000000X2.100000*%
%ADD40O,1.000000X1.800000*%
%ADD41RoundRect,0.087500X0.337500X0.087500X-0.337500X0.087500X-0.337500X-0.087500X0.337500X-0.087500X0*%
%ADD42R,1.650000X2.400000*%
%ADD43R,0.650000X1.528000*%
%ADD44R,2.750000X1.000000*%
%ADD45RoundRect,0.250000X-0.300000X-0.300000X0.300000X-0.300000X0.300000X0.300000X-0.300000X0.300000X0*%
%ADD46RoundRect,0.175000X0.175000X0.325000X-0.175000X0.325000X-0.175000X-0.325000X0.175000X-0.325000X0*%
%ADD47RoundRect,0.150000X0.200000X0.150000X-0.200000X0.150000X-0.200000X-0.150000X0.200000X-0.150000X0*%
%ADD48RoundRect,0.250000X-0.337500X-0.475000X0.337500X-0.475000X0.337500X0.475000X-0.337500X0.475000X0*%
%ADD49RoundRect,0.250000X0.475000X-0.337500X0.475000X0.337500X-0.475000X0.337500X-0.475000X-0.337500X0*%
%ADD50RoundRect,0.225000X0.375000X-0.225000X0.375000X0.225000X-0.375000X0.225000X-0.375000X-0.225000X0*%
%ADD51R,2.460000X3.550000*%
%ADD52R,1.475000X0.450000*%
%ADD53RoundRect,0.250000X0.250000X-0.250000X0.250000X0.250000X-0.250000X0.250000X-0.250000X-0.250000X0*%
G04 APERTURE END LIST*
D10*
%TO.C,LOGO2*%
G36*
X242606389Y-146892880D02*
G01*
X242929517Y-146896724D01*
X243397725Y-146905193D01*
X243775655Y-146917869D01*
X244073823Y-146938856D01*
X244302744Y-146972257D01*
X244472934Y-147022178D01*
X244594908Y-147092721D01*
X244679182Y-147187992D01*
X244736272Y-147312094D01*
X244776693Y-147469132D01*
X244805352Y-147628856D01*
X244815781Y-147831314D01*
X244792188Y-148053805D01*
X244741695Y-148262348D01*
X244671422Y-148422966D01*
X244627371Y-148478160D01*
X244563130Y-148544076D01*
X244563297Y-148596382D01*
X244630288Y-148676572D01*
X244639499Y-148686385D01*
X244695563Y-148761351D01*
X244732230Y-148858775D01*
X244755316Y-149003634D01*
X244770634Y-149220905D01*
X244772438Y-149257429D01*
X244794076Y-149710000D01*
X244460332Y-149710000D01*
X244126588Y-149710000D01*
X244126588Y-149414415D01*
X244114342Y-149207713D01*
X244071898Y-149064351D01*
X244022136Y-148986042D01*
X243917685Y-148853254D01*
X242963803Y-148853254D01*
X242009921Y-148853254D01*
X242009921Y-149281627D01*
X242009921Y-149710000D01*
X241682342Y-149710000D01*
X241354762Y-149710000D01*
X241354762Y-148325047D01*
X241354762Y-147862116D01*
X241354762Y-147442143D01*
X242009921Y-147442143D01*
X242009921Y-147862116D01*
X242014188Y-148059653D01*
X242025542Y-148217374D01*
X242041816Y-148309012D01*
X242047719Y-148320099D01*
X242107819Y-148331199D01*
X242252244Y-148339204D01*
X242464564Y-148343761D01*
X242728345Y-148344519D01*
X243027158Y-148341126D01*
X243028719Y-148341098D01*
X243365482Y-148334007D01*
X243615965Y-148325610D01*
X243794681Y-148314404D01*
X243916141Y-148298885D01*
X243994859Y-148277551D01*
X244045349Y-148248897D01*
X244061853Y-148234093D01*
X244127195Y-148115962D01*
X244151407Y-147924497D01*
X244151786Y-147889462D01*
X244141791Y-147720129D01*
X244103410Y-147613196D01*
X244032810Y-147538484D01*
X243982720Y-147504546D01*
X243918423Y-147479601D01*
X243824814Y-147462287D01*
X243686788Y-147451247D01*
X243489240Y-147445123D01*
X243217064Y-147442554D01*
X242961878Y-147442143D01*
X242009921Y-147442143D01*
X241354762Y-147442143D01*
X241354762Y-146940095D01*
X241480608Y-146908509D01*
X241563764Y-146900726D01*
X241732805Y-146895150D01*
X241972847Y-146891903D01*
X242269004Y-146891106D01*
X242606389Y-146892880D01*
G37*
G36*
X240376828Y-146896870D02*
G01*
X240573612Y-146912976D01*
X240587008Y-148311488D01*
X240600404Y-149710000D01*
X240273678Y-149710000D01*
X239946952Y-149710000D01*
X239932703Y-149143036D01*
X239918453Y-148576071D01*
X238823982Y-148562494D01*
X237729510Y-148548916D01*
X237715251Y-149116859D01*
X237700993Y-149684801D01*
X237385211Y-149699826D01*
X237069429Y-149714851D01*
X237082830Y-148313914D01*
X237096231Y-146912976D01*
X237352691Y-146898025D01*
X237551790Y-146902861D01*
X237660363Y-146945420D01*
X237665728Y-146951244D01*
X237691275Y-147028573D01*
X237714051Y-147181243D01*
X237730876Y-147383801D01*
X237736847Y-147520561D01*
X237751389Y-148021706D01*
X238834921Y-148021706D01*
X239918453Y-148021706D01*
X239932752Y-147480474D01*
X239942061Y-147222555D01*
X239961771Y-147049779D01*
X240003781Y-146946509D01*
X240079990Y-146897105D01*
X240202298Y-146885930D01*
X240376828Y-146896870D01*
G37*
G36*
X247365873Y-147560198D02*
G01*
X247365873Y-147786984D01*
X246584722Y-147786984D01*
X245803571Y-147786984D01*
X245803571Y-148038968D01*
X245803571Y-148290952D01*
X246584722Y-148290952D01*
X247365873Y-148290952D01*
X247365873Y-148996508D01*
X247365873Y-149702063D01*
X246357936Y-149702063D01*
X245350000Y-149702063D01*
X245350000Y-149475278D01*
X245350000Y-149248492D01*
X246131151Y-149248492D01*
X246912301Y-149248492D01*
X246912301Y-148996508D01*
X246912301Y-148744524D01*
X246131151Y-148744524D01*
X245350000Y-148744524D01*
X245350000Y-148038968D01*
X245350000Y-147333413D01*
X246357936Y-147333413D01*
X247365873Y-147333413D01*
X247365873Y-147560198D01*
G37*
G36*
X234500794Y-148046905D02*
G01*
X234525993Y-149180833D01*
X235546528Y-149194476D01*
X236567064Y-149208119D01*
X236567064Y-149459059D01*
X236567064Y-149710000D01*
X235230751Y-149710000D01*
X233894438Y-149710000D01*
X233907834Y-148311488D01*
X233921231Y-146912976D01*
X234198413Y-146912976D01*
X234475596Y-146912976D01*
X234500794Y-148046905D01*
G37*
%TD*%
D11*
%TO.C,J1*%
X154790000Y-122750000D03*
X152250000Y-122750000D03*
X149710000Y-122750000D03*
X147170000Y-122750000D03*
%TD*%
D12*
%TO.C,R4*%
X86600000Y-22600000D03*
X86600000Y-20775000D03*
%TD*%
%TO.C,R5*%
X84350000Y-19512500D03*
X84350000Y-17687500D03*
%TD*%
D13*
%TO.C,JP1*%
X83760000Y-47700000D03*
D14*
X86300000Y-47700000D03*
%TD*%
D15*
%TO.C,D3*%
X84350000Y-21575000D03*
X84350000Y-23625000D03*
%TD*%
D16*
%TO.C,TP6*%
X107750000Y-93500000D03*
%TD*%
D17*
%TO.C,C10*%
X123500000Y-93675000D03*
X123500000Y-95750000D03*
%TD*%
D18*
%TO.C,D7*%
X94000000Y-77170000D03*
X96050000Y-77170000D03*
%TD*%
D16*
%TO.C,TP1*%
X32750000Y-124250000D03*
%TD*%
D12*
%TO.C,R3*%
X148600000Y-90187500D03*
X148600000Y-92012500D03*
%TD*%
D18*
%TO.C,D13*%
X80500000Y-78460000D03*
X82550000Y-78460000D03*
%TD*%
D17*
%TO.C,C34*%
X131850000Y-93912500D03*
X131850000Y-95987500D03*
%TD*%
D18*
%TO.C,D11*%
X94000000Y-72000000D03*
X96050000Y-72000000D03*
%TD*%
D19*
%TO.C,R21*%
X113500000Y-89412500D03*
X113500000Y-87587500D03*
%TD*%
D20*
%TO.C,U1*%
X128025000Y-102900000D03*
X128025000Y-103400000D03*
X128025000Y-103900000D03*
X128025000Y-104400000D03*
X128025000Y-104900000D03*
X128025000Y-105400000D03*
X128025000Y-105900000D03*
X128025000Y-106400000D03*
X128025000Y-106900000D03*
X128025000Y-107400000D03*
X128025000Y-107900000D03*
X128025000Y-108400000D03*
D21*
X129437500Y-109812500D03*
X129937500Y-109812500D03*
X130437500Y-109812500D03*
X130937500Y-109812500D03*
X131437500Y-109812500D03*
X131937500Y-109812500D03*
X132437500Y-109812500D03*
X132937500Y-109812500D03*
X133437500Y-109812500D03*
X133937500Y-109812500D03*
X134437500Y-109812500D03*
X134937500Y-109812500D03*
D20*
X136350000Y-108400000D03*
X136350000Y-107900000D03*
X136350000Y-107400000D03*
X136350000Y-106900000D03*
X136350000Y-106400000D03*
X136350000Y-105900000D03*
X136350000Y-105400000D03*
X136350000Y-104900000D03*
X136350000Y-104400000D03*
X136350000Y-103900000D03*
X136350000Y-103400000D03*
X136350000Y-102900000D03*
D21*
X134937500Y-101487500D03*
X134437500Y-101487500D03*
X133937500Y-101487500D03*
X133437500Y-101487500D03*
X132937500Y-101487500D03*
X132437500Y-101487500D03*
X131937500Y-101487500D03*
X131437500Y-101487500D03*
X130937500Y-101487500D03*
X130437500Y-101487500D03*
X129937500Y-101487500D03*
X129437500Y-101487500D03*
%TD*%
D22*
%TO.C,R6*%
X50175000Y-173720000D03*
X52000000Y-173720000D03*
%TD*%
D23*
%TO.C,C16*%
X136637499Y-111150000D03*
X138362501Y-111150000D03*
%TD*%
D24*
%TO.C,C13*%
X127959880Y-98759880D03*
X125884880Y-98759880D03*
%TD*%
D16*
%TO.C,TP2*%
X56000000Y-135000000D03*
%TD*%
D25*
%TO.C,MH4*%
X159250000Y-109000000D03*
D26*
X159250000Y-109000000D03*
%TD*%
D27*
%TO.C,CR2*%
X141450000Y-105100000D03*
X141450000Y-104150000D03*
X141450000Y-103200000D03*
X138850000Y-103200000D03*
X138850000Y-104150000D03*
X138850000Y-105100000D03*
%TD*%
D22*
%TO.C,R1*%
X173687500Y-91682500D03*
X175512500Y-91682500D03*
%TD*%
D16*
%TO.C,TP4*%
X86250000Y-98000000D03*
%TD*%
D28*
%TO.C,R22*%
X119912500Y-86750000D03*
X118087500Y-86750000D03*
%TD*%
D29*
%TO.C,C22*%
X121500000Y-107862500D03*
X121500000Y-106137500D03*
%TD*%
D30*
%TO.C,C21*%
X121500000Y-102637500D03*
X121500000Y-104362500D03*
%TD*%
D31*
%TO.C,U3*%
X120865000Y-91562500D03*
X118565000Y-91562500D03*
D32*
X118565000Y-97862500D03*
D31*
X116265000Y-91562500D03*
%TD*%
D30*
%TO.C,C27*%
X126862500Y-93637500D03*
X126862500Y-95362500D03*
%TD*%
D18*
%TO.C,D9*%
X94000000Y-83250000D03*
X96050000Y-83250000D03*
%TD*%
D22*
%TO.C,R25*%
X57925000Y-176230000D03*
X59750000Y-176230000D03*
%TD*%
D27*
%TO.C,CR1*%
X138850000Y-107250000D03*
X138850000Y-108200000D03*
X138850000Y-109150000D03*
X141450000Y-109150000D03*
X141450000Y-108200000D03*
X141450000Y-107250000D03*
%TD*%
D25*
%TO.C,MH3*%
X114250000Y-109000000D03*
D26*
X114250000Y-109000000D03*
%TD*%
D18*
%TO.C,D12*%
X80500000Y-75420000D03*
X82550000Y-75420000D03*
%TD*%
%TO.C,D14*%
X80500000Y-81500000D03*
X82550000Y-81500000D03*
%TD*%
D33*
%TO.C,SW2*%
X113800000Y-119300000D03*
X115550000Y-117000000D03*
X117300000Y-119300000D03*
%TD*%
D22*
%TO.C,R17*%
X50175000Y-178740000D03*
X52000000Y-178740000D03*
%TD*%
D34*
%TO.C,Y1*%
X124500000Y-103100000D03*
X124500000Y-107200000D03*
%TD*%
D16*
%TO.C,TP7*%
X36250000Y-110750000D03*
%TD*%
D25*
%TO.C,MH1*%
X114250000Y-77750000D03*
D26*
X114250000Y-77750000D03*
%TD*%
D17*
%TO.C,C35*%
X129600000Y-93912500D03*
X129600000Y-95987500D03*
%TD*%
D22*
%TO.C,R11*%
X50175000Y-176230000D03*
X52000000Y-176230000D03*
%TD*%
D35*
%TO.C,C9*%
X148462500Y-101850000D03*
X146737500Y-101850000D03*
%TD*%
%TO.C,C26*%
X124975000Y-91750000D03*
X123250000Y-91750000D03*
%TD*%
D36*
%TO.C,L1*%
X144100000Y-92100000D03*
X135600000Y-92100000D03*
%TD*%
D18*
%TO.C,D4*%
X80500000Y-72380000D03*
X82550000Y-72380000D03*
%TD*%
D37*
%TO.C,J2*%
X129520000Y-81055000D03*
X128720000Y-81055000D03*
D38*
X127570000Y-81055000D03*
X126570000Y-81055000D03*
X126070000Y-81055000D03*
X125070000Y-81055000D03*
D37*
X123920000Y-81055000D03*
X123120000Y-81055000D03*
X123120000Y-81055000D03*
X123920000Y-81055000D03*
D38*
X124570000Y-81055000D03*
X125570000Y-81055000D03*
X127070000Y-81055000D03*
X128070000Y-81055000D03*
D37*
X128720000Y-81055000D03*
X129520000Y-81055000D03*
D39*
X130640000Y-80480000D03*
D40*
X130640000Y-76300000D03*
D39*
X122000000Y-80480000D03*
D40*
X122000000Y-76300000D03*
%TD*%
D23*
%TO.C,C17*%
X136709880Y-100759880D03*
X138434882Y-100759880D03*
%TD*%
D22*
%TO.C,R28*%
X57925000Y-181250000D03*
X59750000Y-181250000D03*
%TD*%
D41*
%TO.C,U6*%
X129697500Y-91850000D03*
X129697500Y-91200000D03*
X129697500Y-90550000D03*
X129697500Y-89900000D03*
X126797500Y-89900000D03*
X126797500Y-90550000D03*
X126797500Y-91200000D03*
X126797500Y-91850000D03*
D42*
X128247500Y-90875000D03*
%TD*%
D43*
%TO.C,U2*%
X147695000Y-99561000D03*
X148965000Y-99561000D03*
X150235000Y-99561000D03*
X151505000Y-99561000D03*
X151505000Y-94139000D03*
X150235000Y-94139000D03*
X148965000Y-94139000D03*
X147695000Y-94139000D03*
%TD*%
D17*
%TO.C,C18*%
X113500000Y-93675000D03*
X113500000Y-95750000D03*
%TD*%
D29*
%TO.C,C6*%
X150350000Y-91962500D03*
X150350000Y-90237500D03*
%TD*%
D44*
%TO.C,SW1*%
X172000000Y-98250000D03*
X177750000Y-98250000D03*
X172000000Y-102250000D03*
X177750000Y-102250000D03*
%TD*%
D16*
%TO.C,TP8*%
X95000000Y-100000000D03*
%TD*%
D22*
%TO.C,R24*%
X118087500Y-85000000D03*
X119912500Y-85000000D03*
%TD*%
D45*
%TO.C,D10*%
X177600000Y-111750000D03*
X180400000Y-111750000D03*
%TD*%
D22*
%TO.C,R18*%
X50175000Y-181250000D03*
X52000000Y-181250000D03*
%TD*%
D23*
%TO.C,C5*%
X151737500Y-101600000D03*
X153462500Y-101600000D03*
%TD*%
D22*
%TO.C,R31*%
X172837500Y-111750000D03*
X174662500Y-111750000D03*
%TD*%
D24*
%TO.C,C3*%
X148637500Y-104100000D03*
X146562500Y-104100000D03*
%TD*%
D16*
%TO.C,TP3*%
X155500000Y-69750000D03*
%TD*%
D46*
%TO.C,D6*%
X126750000Y-85250000D03*
D47*
X126750000Y-83550000D03*
X124750000Y-83550000D03*
X124750000Y-85450000D03*
%TD*%
D25*
%TO.C,MH2*%
X159250000Y-77750000D03*
D26*
X159250000Y-77750000D03*
%TD*%
D48*
%TO.C,C29*%
X125000000Y-87800000D03*
X127075000Y-87800000D03*
%TD*%
D22*
%TO.C,R26*%
X57925000Y-178740000D03*
X59750000Y-178740000D03*
%TD*%
D35*
%TO.C,C28*%
X124975000Y-90000000D03*
X123250000Y-90000000D03*
%TD*%
D49*
%TO.C,C8*%
X131850000Y-90187500D03*
X131850000Y-88112500D03*
%TD*%
D18*
%TO.C,D8*%
X94000000Y-80210000D03*
X96050000Y-80210000D03*
%TD*%
D22*
%TO.C,R32*%
X54925000Y-188500000D03*
X56750000Y-188500000D03*
%TD*%
%TO.C,R2*%
X151687500Y-103350000D03*
X153512500Y-103350000D03*
%TD*%
D50*
%TO.C,D5*%
X122250000Y-86700000D03*
X122250000Y-83400000D03*
%TD*%
D35*
%TO.C,C14*%
X127822381Y-100759880D03*
X126097379Y-100759880D03*
%TD*%
D30*
%TO.C,C1*%
X149524000Y-85112500D03*
X149524000Y-83387500D03*
%TD*%
D49*
%TO.C,C23*%
X135624000Y-80812500D03*
X135624000Y-82887500D03*
%TD*%
D17*
%TO.C,C20*%
X151524000Y-85287500D03*
X151524000Y-83212500D03*
%TD*%
D51*
%TO.C,U7*%
X144562000Y-81075000D03*
D52*
X141624000Y-83350000D03*
X141624000Y-82700000D03*
X141624000Y-82050000D03*
X141624000Y-81400000D03*
X141624000Y-80750000D03*
X141624000Y-80100000D03*
X141624000Y-79450000D03*
X141624000Y-78800000D03*
X147500000Y-78800000D03*
X147500000Y-79450000D03*
X147500000Y-80100000D03*
X147500000Y-80750000D03*
X147500000Y-81400000D03*
X147500000Y-82050000D03*
X147500000Y-82700000D03*
X147500000Y-83350000D03*
%TD*%
D53*
%TO.C,D2*%
X153774000Y-83250000D03*
X153774000Y-85750000D03*
%TD*%
D29*
%TO.C,C2*%
X137624000Y-81237500D03*
X137624000Y-82962500D03*
%TD*%
M02*
