%TF.GenerationSoftware,KiCad,Pcbnew,9.0.3*%
%TF.CreationDate,2025-08-18T13:56:50-05:00*%
%TF.ProjectId,PeripheralSOM,50657269-7068-4657-9261-6c534f4d2e6b,rev?*%
%TF.SameCoordinates,Original*%
%TF.FileFunction,Soldermask,Top*%
%TF.FilePolarity,Negative*%
%FSLAX46Y46*%
G04 Gerber Fmt 4.6, Leading zero omitted, Abs format (unit mm)*
G04 Created by KiCad (PCBNEW 9.0.3) date 2025-08-18 13:56:50*
%MOMM*%
%LPD*%
G01*
G04 APERTURE LIST*
G04 Aperture macros list*
%AMRoundRect*
0 Rectangle with rounded corners*
0 $1 Rounding radius*
0 $2 $3 $4 $5 $6 $7 $8 $9 X,Y pos of 4 corners*
0 Add a 4 corners polygon primitive as box body*
4,1,4,$2,$3,$4,$5,$6,$7,$8,$9,$2,$3,0*
0 Add four circle primitives for the rounded corners*
1,1,$1+$1,$2,$3*
1,1,$1+$1,$4,$5*
1,1,$1+$1,$6,$7*
1,1,$1+$1,$8,$9*
0 Add four rect primitives between the rounded corners*
20,1,$1+$1,$2,$3,$4,$5,0*
20,1,$1+$1,$4,$5,$6,$7,0*
20,1,$1+$1,$6,$7,$8,$9,0*
20,1,$1+$1,$8,$9,$2,$3,0*%
G04 Aperture macros list end*
%ADD10RoundRect,0.237500X-0.237500X0.287500X-0.237500X-0.287500X0.237500X-0.287500X0.237500X0.287500X0*%
%ADD11RoundRect,0.237500X0.237500X-0.287500X0.237500X0.287500X-0.237500X0.287500X-0.237500X-0.287500X0*%
%ADD12RoundRect,0.237500X0.287500X0.237500X-0.287500X0.237500X-0.287500X-0.237500X0.287500X-0.237500X0*%
%ADD13R,0.300000X0.850000*%
%ADD14R,0.850000X0.300000*%
%ADD15R,2.550000X2.550000*%
%ADD16R,1.000000X1.000000*%
%ADD17RoundRect,0.237500X-0.237500X0.250000X-0.237500X-0.250000X0.237500X-0.250000X0.237500X0.250000X0*%
%ADD18RoundRect,0.250000X0.475000X-0.337500X0.475000X0.337500X-0.475000X0.337500X-0.475000X-0.337500X0*%
%ADD19RoundRect,0.237500X-0.237500X0.300000X-0.237500X-0.300000X0.237500X-0.300000X0.237500X0.300000X0*%
%ADD20RoundRect,0.237500X0.237500X-0.250000X0.237500X0.250000X-0.237500X0.250000X-0.237500X-0.250000X0*%
%ADD21RoundRect,0.250000X-0.475000X0.337500X-0.475000X-0.337500X0.475000X-0.337500X0.475000X0.337500X0*%
%ADD22RoundRect,0.075000X0.662500X-0.075000X0.662500X0.075000X-0.662500X0.075000X-0.662500X-0.075000X0*%
%ADD23RoundRect,0.075000X0.075000X-0.662500X0.075000X0.662500X-0.075000X0.662500X-0.075000X-0.662500X0*%
%ADD24O,1.700000X2.200000*%
%ADD25RoundRect,0.250000X0.600000X-0.850000X0.600000X0.850000X-0.600000X0.850000X-0.600000X-0.850000X0*%
%ADD26RoundRect,0.237500X0.237500X-0.300000X0.237500X0.300000X-0.237500X0.300000X-0.237500X-0.300000X0*%
%ADD27RoundRect,0.237500X-0.250000X-0.237500X0.250000X-0.237500X0.250000X0.237500X-0.250000X0.237500X0*%
%ADD28C,6.400000*%
%ADD29C,3.600000*%
%ADD30R,0.600000X1.150000*%
%ADD31RoundRect,0.237500X0.250000X0.237500X-0.250000X0.237500X-0.250000X-0.237500X0.250000X-0.237500X0*%
%ADD32RoundRect,0.237500X0.300000X0.237500X-0.300000X0.237500X-0.300000X-0.237500X0.300000X-0.237500X0*%
%ADD33RoundRect,0.237500X-0.300000X-0.237500X0.300000X-0.237500X0.300000X0.237500X-0.300000X0.237500X0*%
%ADD34RoundRect,0.375000X-0.625000X-0.375000X0.625000X-0.375000X0.625000X0.375000X-0.625000X0.375000X0*%
%ADD35RoundRect,0.500000X-0.500000X-1.400000X0.500000X-1.400000X0.500000X1.400000X-0.500000X1.400000X0*%
%ADD36RoundRect,0.102000X0.500000X0.800000X-0.500000X0.800000X-0.500000X-0.800000X0.500000X-0.800000X0*%
%ADD37RoundRect,0.250000X-0.700000X-0.950000X0.700000X-0.950000X0.700000X0.950000X-0.700000X0.950000X0*%
%ADD38RoundRect,0.250000X1.750000X2.500000X-1.750000X2.500000X-1.750000X-2.500000X1.750000X-2.500000X0*%
%ADD39O,1.000000X1.800000*%
%ADD40O,1.000000X2.100000*%
%ADD41RoundRect,0.150000X-0.150000X-0.425000X0.150000X-0.425000X0.150000X0.425000X-0.150000X0.425000X0*%
%ADD42RoundRect,0.075000X-0.075000X-0.500000X0.075000X-0.500000X0.075000X0.500000X-0.075000X0.500000X0*%
%ADD43R,1.650000X2.400000*%
%ADD44RoundRect,0.087500X-0.337500X-0.087500X0.337500X-0.087500X0.337500X0.087500X-0.337500X0.087500X0*%
%ADD45R,1.528000X0.650000*%
%ADD46RoundRect,0.102000X-0.500000X-0.375000X0.500000X-0.375000X0.500000X0.375000X-0.500000X0.375000X0*%
%ADD47R,2.460000X3.550000*%
%ADD48R,1.475000X0.450000*%
%ADD49RoundRect,0.250000X0.300000X-0.300000X0.300000X0.300000X-0.300000X0.300000X-0.300000X-0.300000X0*%
%ADD50RoundRect,0.150000X-0.200000X-0.150000X0.200000X-0.150000X0.200000X0.150000X-0.200000X0.150000X0*%
%ADD51RoundRect,0.175000X-0.175000X-0.325000X0.175000X-0.325000X0.175000X0.325000X-0.175000X0.325000X0*%
%ADD52RoundRect,0.250000X-0.337500X-0.475000X0.337500X-0.475000X0.337500X0.475000X-0.337500X0.475000X0*%
%ADD53RoundRect,0.225000X-0.225000X-0.375000X0.225000X-0.375000X0.225000X0.375000X-0.225000X0.375000X0*%
%ADD54C,1.700000*%
%ADD55R,1.700000X1.700000*%
%ADD56RoundRect,0.250000X-0.250000X0.250000X-0.250000X-0.250000X0.250000X-0.250000X0.250000X0.250000X0*%
G04 APERTURE END LIST*
D10*
%TO.C,D14*%
X122750000Y-83125000D03*
X122750000Y-81375000D03*
%TD*%
%TO.C,D13*%
X120500000Y-83125000D03*
X120500000Y-81375000D03*
%TD*%
%TO.C,D12*%
X118250000Y-83125000D03*
X118250000Y-81375000D03*
%TD*%
%TO.C,D11*%
X111750000Y-102375000D03*
X111750000Y-100625000D03*
%TD*%
%TO.C,D9*%
X136750000Y-79875000D03*
X136750000Y-78125000D03*
%TD*%
%TO.C,D8*%
X140750000Y-97125000D03*
X140750000Y-95375000D03*
%TD*%
D11*
%TO.C,D7*%
X143250000Y-89375000D03*
X143250000Y-91125000D03*
%TD*%
D10*
%TO.C,D4*%
X116000000Y-83125000D03*
X116000000Y-81375000D03*
%TD*%
D12*
%TO.C,D3*%
X155100000Y-104000000D03*
X156850000Y-104000000D03*
%TD*%
D13*
%TO.C,U8*%
X129062500Y-98600000D03*
X129562500Y-98600000D03*
X130062500Y-98600000D03*
X130562500Y-98600000D03*
X131062500Y-98600000D03*
X131562500Y-98600000D03*
D14*
X132262500Y-97900000D03*
X132262500Y-97400000D03*
X132262500Y-96900000D03*
X132262500Y-96400000D03*
X132262500Y-95900000D03*
X132262500Y-95400000D03*
D13*
X131562500Y-94700000D03*
X131062500Y-94700000D03*
X130562500Y-94700000D03*
X130062500Y-94700000D03*
X129562500Y-94700000D03*
X129062500Y-94700000D03*
D14*
X128362500Y-95400000D03*
X128362500Y-95900000D03*
X128362500Y-96400000D03*
X128362500Y-96900000D03*
X128362500Y-97400000D03*
X128362500Y-97900000D03*
D15*
X130312500Y-96650000D03*
%TD*%
D16*
%TO.C,TP6*%
X144500000Y-110500000D03*
%TD*%
D17*
%TO.C,R5*%
X157000000Y-102000000D03*
X157000000Y-100175000D03*
%TD*%
D18*
%TO.C,C10*%
X121000000Y-98212500D03*
X121000000Y-100287500D03*
%TD*%
D19*
%TO.C,C1*%
X150562500Y-85262500D03*
X150562500Y-83537500D03*
%TD*%
D16*
%TO.C,TP1*%
X158500000Y-83500000D03*
%TD*%
D20*
%TO.C,R3*%
X127000000Y-76294000D03*
X127000000Y-78119000D03*
%TD*%
D21*
%TO.C,C34*%
X113500000Y-94637500D03*
X113500000Y-92562500D03*
%TD*%
%TO.C,C23*%
X140750000Y-87250000D03*
X140750000Y-85175000D03*
%TD*%
D20*
%TO.C,R4*%
X158750000Y-100175000D03*
X158750000Y-102000000D03*
%TD*%
D22*
%TO.C,U1*%
X146012500Y-101382260D03*
X146012500Y-100882260D03*
X146012500Y-100382260D03*
X146012500Y-99882260D03*
X146012500Y-99382260D03*
X146012500Y-98882260D03*
X146012500Y-98382260D03*
X146012500Y-97882260D03*
X146012500Y-97382260D03*
X146012500Y-96882260D03*
X146012500Y-96382260D03*
X146012500Y-95882260D03*
D23*
X147425000Y-94469760D03*
X147925000Y-94469760D03*
X148425000Y-94469760D03*
X148925000Y-94469760D03*
X149425000Y-94469760D03*
X149925000Y-94469760D03*
X150425000Y-94469760D03*
X150925000Y-94469760D03*
X151425000Y-94469760D03*
X151925000Y-94469760D03*
X152425000Y-94469760D03*
X152925000Y-94469760D03*
D22*
X154337500Y-95882260D03*
X154337500Y-96382260D03*
X154337500Y-96882260D03*
X154337500Y-97382260D03*
X154337500Y-97882260D03*
X154337500Y-98382260D03*
X154337500Y-98882260D03*
X154337500Y-99382260D03*
X154337500Y-99882260D03*
X154337500Y-100382260D03*
X154337500Y-100882260D03*
X154337500Y-101382260D03*
D23*
X152925000Y-102794760D03*
X152425000Y-102794760D03*
X151925000Y-102794760D03*
X151425000Y-102794760D03*
X150925000Y-102794760D03*
X150425000Y-102794760D03*
X149925000Y-102794760D03*
X149425000Y-102794760D03*
X148925000Y-102794760D03*
X148425000Y-102794760D03*
X147925000Y-102794760D03*
X147425000Y-102794760D03*
%TD*%
D19*
%TO.C,C11*%
X158750000Y-95362500D03*
X158750000Y-93637500D03*
%TD*%
D24*
%TO.C,J1*%
X140000000Y-91750000D03*
X137500000Y-91750000D03*
X135000000Y-91750000D03*
D25*
X132500000Y-91750000D03*
%TD*%
D26*
%TO.C,C16*%
X155284880Y-92457259D03*
X155284880Y-94182261D03*
%TD*%
D18*
%TO.C,C13*%
X143534880Y-98897380D03*
X143534880Y-100972380D03*
%TD*%
D21*
%TO.C,C20*%
X152562500Y-85437500D03*
X152562500Y-83362500D03*
%TD*%
D16*
%TO.C,TP2*%
X136500000Y-83300000D03*
%TD*%
D27*
%TO.C,R19*%
X125162500Y-78250000D03*
X123337500Y-78250000D03*
%TD*%
D28*
%TO.C,MH4*%
X159250000Y-108500000D03*
D29*
X159250000Y-108500000D03*
%TD*%
D30*
%TO.C,CR2*%
X149234880Y-91969760D03*
X148284880Y-91969760D03*
X147334880Y-91969760D03*
X147334880Y-89369760D03*
X148284880Y-89369760D03*
X149234880Y-89369760D03*
%TD*%
D16*
%TO.C,TP4*%
X116750000Y-105500000D03*
%TD*%
D31*
%TO.C,R22*%
X135337500Y-99250000D03*
X137162500Y-99250000D03*
%TD*%
D32*
%TO.C,C22*%
X150662500Y-109319760D03*
X152387500Y-109319760D03*
%TD*%
D33*
%TO.C,C21*%
X148887500Y-109319760D03*
X147162500Y-109319760D03*
%TD*%
D34*
%TO.C,U3*%
X123602500Y-105200000D03*
D35*
X129902500Y-102900000D03*
D34*
X123602500Y-102900000D03*
X123602500Y-100600000D03*
%TD*%
D32*
%TO.C,C27*%
X115137500Y-98550000D03*
X116862500Y-98550000D03*
%TD*%
D30*
%TO.C,CR1*%
X151334880Y-89369760D03*
X152284880Y-89369760D03*
X153234880Y-89369760D03*
X153234880Y-91969760D03*
X152284880Y-91969760D03*
X151334880Y-91969760D03*
%TD*%
D28*
%TO.C,MH3*%
X112750000Y-108500000D03*
D29*
X112750000Y-108500000D03*
%TD*%
D36*
%TO.C,SW2*%
X117500000Y-75750000D03*
X119250000Y-78050000D03*
X121000000Y-75750000D03*
%TD*%
D37*
%TO.C,Y1*%
X151725000Y-106319760D03*
X147625000Y-106319760D03*
%TD*%
D16*
%TO.C,TP7*%
X113750000Y-83900000D03*
%TD*%
D28*
%TO.C,MH1*%
X112750000Y-77750000D03*
D29*
X112750000Y-77750000D03*
%TD*%
D21*
%TO.C,C35*%
X111250000Y-94637500D03*
X111250000Y-92562500D03*
%TD*%
D20*
%TO.C,R29*%
X156995000Y-93587500D03*
X156995000Y-95412500D03*
%TD*%
D19*
%TO.C,C9*%
X136500000Y-86845000D03*
X136500000Y-85120000D03*
%TD*%
D26*
%TO.C,C26*%
X119000000Y-98637500D03*
X119000000Y-100362500D03*
%TD*%
D38*
%TO.C,L1*%
X117000000Y-90750000D03*
X125500000Y-90750000D03*
%TD*%
D39*
%TO.C,J2*%
X141672873Y-110172500D03*
D40*
X141672873Y-105992500D03*
D39*
X133032873Y-110172500D03*
D40*
X133032873Y-105992500D03*
D41*
X134152873Y-105417500D03*
X134952873Y-105417500D03*
D42*
X135602873Y-105417500D03*
X136602873Y-105417500D03*
X138102873Y-105417500D03*
X139102873Y-105417500D03*
D41*
X139752873Y-105417500D03*
X140552873Y-105417500D03*
X140552873Y-105417500D03*
X139752873Y-105417500D03*
D42*
X138602873Y-105417500D03*
X137602873Y-105417500D03*
X137102873Y-105417500D03*
X136102873Y-105417500D03*
D41*
X134952873Y-105417500D03*
X134152873Y-105417500D03*
%TD*%
D26*
%TO.C,C17*%
X145284880Y-92384878D03*
X145284880Y-94109880D03*
%TD*%
D43*
%TO.C,U6*%
X115565000Y-101375000D03*
D44*
X117015000Y-100400000D03*
X117015000Y-101050000D03*
X117015000Y-101700000D03*
X117015000Y-102350000D03*
X114115000Y-102350000D03*
X114115000Y-101700000D03*
X114115000Y-101050000D03*
X114115000Y-100400000D03*
%TD*%
D45*
%TO.C,U2*%
X129039000Y-84849000D03*
X129039000Y-83579000D03*
X129039000Y-82309000D03*
X129039000Y-81039000D03*
X134461000Y-81039000D03*
X134461000Y-82309000D03*
X134461000Y-83579000D03*
X134461000Y-84849000D03*
%TD*%
D21*
%TO.C,C18*%
X121000000Y-107287500D03*
X121000000Y-105212500D03*
%TD*%
D26*
%TO.C,C6*%
X127000000Y-79931500D03*
X127000000Y-81656500D03*
%TD*%
D46*
%TO.C,SW1*%
X161500000Y-89675000D03*
X157000000Y-89675000D03*
X161500000Y-91825000D03*
X157000000Y-91825000D03*
%TD*%
D47*
%TO.C,U7*%
X145600500Y-81225000D03*
D48*
X142662500Y-83500000D03*
X142662500Y-82850000D03*
X142662500Y-82200000D03*
X142662500Y-81550000D03*
X142662500Y-80900000D03*
X142662500Y-80250000D03*
X142662500Y-79600000D03*
X142662500Y-78950000D03*
X148538500Y-78950000D03*
X148538500Y-79600000D03*
X148538500Y-80250000D03*
X148538500Y-80900000D03*
X148538500Y-81550000D03*
X148538500Y-82200000D03*
X148538500Y-82850000D03*
X148538500Y-83500000D03*
%TD*%
D17*
%TO.C,R24*%
X133750000Y-101075000D03*
X133750000Y-99250000D03*
%TD*%
D49*
%TO.C,D10*%
X129500000Y-76350000D03*
X129500000Y-79150000D03*
%TD*%
D26*
%TO.C,C5*%
X134500000Y-77431500D03*
X134500000Y-79156500D03*
%TD*%
D21*
%TO.C,C3*%
X138500000Y-87250000D03*
X138500000Y-85175000D03*
%TD*%
D16*
%TO.C,TP3*%
X111250000Y-90500000D03*
%TD*%
D50*
%TO.C,D6*%
X138922873Y-101022500D03*
X138922873Y-102922500D03*
X136922873Y-102922500D03*
D51*
X136922873Y-101222500D03*
%TD*%
D28*
%TO.C,MH2*%
X159250000Y-77750000D03*
D29*
X159250000Y-77750000D03*
%TD*%
D52*
%TO.C,C29*%
X129287500Y-110250000D03*
X127212500Y-110250000D03*
%TD*%
D20*
%TO.C,R26*%
X140750000Y-99087500D03*
X140750000Y-100912500D03*
%TD*%
D33*
%TO.C,C28*%
X120562500Y-102250000D03*
X118837500Y-102250000D03*
%TD*%
D18*
%TO.C,C8*%
X113500000Y-86762500D03*
X113500000Y-88837500D03*
%TD*%
D31*
%TO.C,R32*%
X111087500Y-104250000D03*
X112912500Y-104250000D03*
%TD*%
D20*
%TO.C,R2*%
X132000000Y-77381500D03*
X132000000Y-79206500D03*
%TD*%
D53*
%TO.C,D5*%
X130450000Y-107750000D03*
X127150000Y-107750000D03*
%TD*%
D54*
%TO.C,JP1*%
X148015000Y-86250000D03*
D55*
X145475000Y-86250000D03*
%TD*%
D19*
%TO.C,C14*%
X145284880Y-104722381D03*
X145284880Y-102997379D03*
%TD*%
D56*
%TO.C,D2*%
X154750000Y-83250000D03*
X154750000Y-80750000D03*
%TD*%
D19*
%TO.C,C2*%
X142750000Y-86862500D03*
X142750000Y-85137500D03*
%TD*%
D27*
%TO.C,R30*%
X140512500Y-78300000D03*
X138687500Y-78300000D03*
%TD*%
D33*
%TO.C,C25*%
X140462500Y-81500000D03*
X138737500Y-81500000D03*
%TD*%
D32*
%TO.C,C4*%
X129937500Y-87500000D03*
X131662500Y-87500000D03*
%TD*%
D27*
%TO.C,R27*%
X140512500Y-79900000D03*
X138687500Y-79900000D03*
%TD*%
D31*
%TO.C,R20*%
X150487500Y-78800000D03*
X152312500Y-78800000D03*
%TD*%
%TO.C,R15*%
X150500000Y-80500000D03*
X152325000Y-80500000D03*
%TD*%
M02*
